<svg width="38" height="48" viewBox="0 0 38 48" fill="none" xmlns="http://www.w3.org/2000/svg" xmlns:xlink="http://www.w3.org/1999/xlink">
<path d="M0,0L18.043,0C20.139,0 22.235,0.158 24.331,0.475C26.472,0.746 28.386,1.333 30.072,2.237C31.758,3.096 33.125,4.316 34.173,5.898C35.221,7.48 35.745,9.582 35.745,12.203C35.745,14.915 34.97,17.175 33.421,18.983C31.917,20.746 29.912,22.011 27.406,22.78L27.406,22.915C29.001,23.141 30.436,23.593 31.712,24.271C33.034,24.904 34.15,25.74 35.061,26.78C36.018,27.774 36.747,28.949 37.248,30.305C37.749,31.661 38,33.107 38,34.644C38,37.175 37.453,39.299 36.36,41.017C35.266,42.689 33.854,44.045 32.122,45.085C30.391,46.124 28.432,46.87 26.245,47.322C24.103,47.774 21.962,48 19.82,48L0,48L0,0ZM10.662,19.186L18.385,19.186C19.205,19.186 20.002,19.096 20.777,18.915C21.597,18.734 22.326,18.441 22.964,18.034C23.602,17.627 24.103,17.085 24.468,16.407C24.878,15.729 25.083,14.915 25.083,13.966C25.083,12.972 24.855,12.158 24.399,11.525C23.989,10.847 23.442,10.328 22.759,9.966C22.076,9.605 21.301,9.356 20.435,9.22C19.57,9.04 18.727,8.949 17.906,8.949L10.662,8.949L10.662,19.186ZM10.662,39.051L20.23,39.051C21.05,39.051 21.871,38.96 22.691,38.78C23.556,38.599 24.331,38.282 25.014,37.831C25.698,37.379 26.245,36.791 26.655,36.068C27.11,35.345 27.338,34.463 27.338,33.424C27.338,32.294 27.042,31.39 26.45,30.712C25.903,29.989 25.197,29.446 24.331,29.085C23.465,28.723 22.531,28.475 21.529,28.339C20.526,28.203 19.592,28.136 18.727,28.136L10.662,28.136L10.662,39.051Z" fill="#E4E4E3"/>
</svg>
