<svg width="48" height="24" viewBox="0 0 48 24" fill="none" xmlns="http://www.w3.org/2000/svg" xmlns:xlink="http://www.w3.org/1999/xlink">
<g opacity="0.4">
<path d="M5.728,1C4.432,1.032 3.202,1.576 2.307,2.513C1.412,3.451 0.926,4.704 0.954,6L0.954,18C0.926,19.295 1.412,20.549 2.307,21.486C3.201,22.423 4.43,22.967 5.726,23L36.272,23C37.567,22.968 38.797,22.424 39.692,21.487C40.587,20.549 41.073,19.296 41.046,18L41.046,6C41.073,4.704 40.587,3.451 39.692,2.513C38.797,1.576 37.567,1.032 36.272,1L5.728,1ZM5.728,0L36.272,0C37.827,0.037 39.303,0.689 40.377,1.814C41.452,2.939 42.035,4.445 42,6L42,18C42.035,19.555 41.452,21.061 40.377,22.186C39.303,23.311 37.827,23.963 36.272,24L5.728,24C4.173,23.963 2.696,23.311 1.622,22.186C0.548,21.061 -0.036,19.555 0,18L0,6C-0.036,4.445 0.548,2.939 1.622,1.814C2.696,0.689 4.173,0.037 5.728,0L5.728,0Z" fill="#E4E4E3"/>
</g>
<rect  x="4" y="4" width="34" height="16" rx="2" fill="#E4E4E3"/>
<g opacity="0.4">
<path d="M44,8C45.061,8 46.078,8.421 46.828,9.172C47.579,9.922 48,10.939 48,12C48,13.061 47.579,14.078 46.828,14.828C46.078,15.579 45.061,16 44,16L44,8Z" fill="#E4E4E3"/>
</g>
</svg>
