<svg width="112" height="112" viewBox="0 0 112 112" fill="none" xmlns="http://www.w3.org/2000/svg" xmlns:xlink="http://www.w3.org/1999/xlink">
<path d="M95.324,16.612C82.419,3.708 61.498,3.708 48.592,16.612L27.024,38.181L73.756,84.912L95.324,63.344C108.229,50.439 108.229,29.517 95.324,16.612Z" fill="#292927"/>
<path d="M64.769,86.709L25.227,47.167C18.278,40.219 7.012,40.219 0.064,47.167L64.769,111.872C71.717,104.923 71.717,93.658 64.769,86.709Z" fill="#292927"/>
<path d="M34.394,92.282C31.125,97.216 31.663,103.93 36.011,108.278C40.358,112.626 47.073,113.165 52.007,109.895L34.394,92.282Z" fill="#292927"/>
<path d="M109.703,2.233C106.725,-0.745 101.897,-0.745 98.918,2.233C97.414,3.738 96.671,5.714 96.686,7.686C98.087,8.761 99.434,9.938 100.716,11.22C101.998,12.502 103.175,13.849 104.25,15.25C106.222,15.265 108.198,14.522 109.703,13.018C112.681,10.039 112.681,5.211 109.703,2.233Z" fill="#292927"/>
</svg>
