<svg width="48" height="48" viewBox="0 0 48 48" fill="none" xmlns="http://www.w3.org/2000/svg" xmlns:xlink="http://www.w3.org/1999/xlink">
<path d="M16.336,4.891C16.707,4.334 17.331,4 18,4L30,4C30.669,4 31.293,4.334 31.664,4.891L35.07,10L42,10C43.591,10 45.117,10.632 46.243,11.757C47.368,12.883 48,14.409 48,16L48,38C48,39.591 47.368,41.117 46.243,42.243C45.117,43.368 43.591,44 42,44L6,44C4.409,44 2.883,43.368 1.757,42.243C0.632,41.117 0,39.591 0,38L0,16C0,14.409 0.632,12.883 1.757,11.757C2.883,10.632 4.409,10 6,10L12.93,10L16.336,4.891ZM19.07,8L15.664,13.109C15.293,13.666 14.669,14 14,14L6,14C5.47,14 4.961,14.211 4.586,14.586C4.211,14.961 4,15.47 4,16L4,38C4,38.53 4.211,39.039 4.586,39.414C4.961,39.789 5.47,40 6,40L42,40C42.53,40 43.039,39.789 43.414,39.414C43.789,39.039 44,38.53 44,38L44,16C44,15.47 43.789,14.961 43.414,14.586C43.039,14.211 42.53,14 42,14L34,14C33.331,14 32.707,13.666 32.336,13.109L28.93,8L19.07,8Z" clip-rule="evenodd" fill-rule="evenodd" fill="#E4E4E3"/>
<path d="M24,20C20.686,20 18,22.686 18,26C18,29.314 20.686,32 24,32C27.314,32 30,29.314 30,26C30,22.686 27.314,20 24,20ZM14,26C14,20.477 18.477,16 24,16C29.523,16 34,20.477 34,26C34,31.523 29.523,36 24,36C18.477,36 14,31.523 14,26Z" clip-rule="evenodd" fill-rule="evenodd" fill="#E4E4E3"/>
</svg>
