<svg width="48" height="48" viewBox="0 0 48 48" fill="none" xmlns="http://www.w3.org/2000/svg" xmlns:xlink="http://www.w3.org/1999/xlink">
<path d="M24,48C26.877,48 29.355,46.262 30.442,43.781L17.558,43.781C18.645,46.262 21.123,48 24,48Z" fill="#E4E4E3"/>
<path d="M38.531,23.237L38.531,20.156C38.531,13.61 34.18,8.062 28.219,6.25L28.219,4.219C28.219,1.893 26.326,0 24,0C21.674,0 19.781,1.893 19.781,4.219L19.781,6.25C13.82,8.062 9.469,13.61 9.469,20.156L9.469,23.237C9.469,28.987 7.277,34.439 3.297,38.589C2.907,38.996 2.798,39.596 3.019,40.114C3.24,40.632 3.749,40.969 4.312,40.969L43.688,40.969C44.251,40.969 44.76,40.632 44.981,40.114C45.202,39.596 45.092,38.996 44.703,38.589C40.723,34.439 38.531,28.987 38.531,23.237ZM25.406,5.693C24.943,5.649 24.474,5.625 24,5.625C23.526,5.625 23.057,5.649 22.594,5.693L22.594,4.219C22.594,3.443 23.225,2.813 24,2.813C24.775,2.813 25.406,3.443 25.406,4.219L25.406,5.693Z" fill="#E4E4E3"/>
<path d="M42.281,20.156C42.281,20.933 42.911,21.562 43.687,21.562C44.464,21.562 45.094,20.933 45.094,20.156C45.094,14.522 42.9,9.225 38.916,5.241C38.366,4.691 37.476,4.691 36.927,5.241C36.378,5.79 36.378,6.68 36.927,7.229C40.38,10.682 42.281,15.273 42.281,20.156Z" fill="#E4E4E3"/>
<path d="M4.313,21.562C5.089,21.562 5.719,20.933 5.719,20.156C5.719,15.273 7.62,10.682 11.073,7.229C11.622,6.68 11.622,5.79 11.073,5.241C10.524,4.691 9.634,4.691 9.084,5.241C5.1,9.225 2.906,14.522 2.906,20.156C2.906,20.933 3.536,21.562 4.313,21.562Z" fill="#E4E4E3"/>
</svg>
