<svg width="48" height="48" viewBox="0 0 48 48" fill="none" xmlns="http://www.w3.org/2000/svg" xmlns:xlink="http://www.w3.org/1999/xlink">
<path d="M4.4,30.24C3.317,30.02 2.261,30.718 2.04,31.8C1.82,32.883 2.518,33.939 3.6,34.16L4.4,30.24ZM9.84,40.4C10.061,41.482 11.117,42.18 12.2,41.96C13.282,41.739 13.98,40.683 13.76,39.6L9.84,40.4ZM4.221,22.112C3.123,21.99 2.134,22.781 2.012,23.879C1.89,24.977 2.681,25.966 3.779,26.088L4.221,22.112ZM17.912,40.221C18.034,41.319 19.023,42.11 20.121,41.988C21.219,41.866 22.01,40.877 21.888,39.779L17.912,40.221ZM2,16C2,17.105 2.895,18 4,18C5.105,18 6,17.105 6,16L2,16ZM8,8L8,6L8,8ZM40,8L40,6L40,8ZM28,38C26.895,38 26,38.895 26,40C26,41.105 26.895,42 28,42L28,38ZM3.6,34.16C5.138,34.473 6.549,35.232 7.659,36.341L10.487,33.513C8.823,31.849 6.706,30.711 4.4,30.24L3.6,34.16ZM7.659,36.341C8.768,37.451 9.527,38.862 9.84,40.4L13.76,39.6C13.289,37.294 12.151,35.177 10.487,33.513L7.659,36.341ZM3.779,26.088C7.389,26.489 10.755,28.107 13.324,30.676L16.152,27.848C12.942,24.637 8.734,22.614 4.221,22.112L3.779,26.088ZM13.324,30.676C15.893,33.245 17.511,36.611 17.912,40.221L21.888,39.779C21.386,35.266 19.363,31.058 16.152,27.848L13.324,30.676ZM6,16L6,12L2,12L2,16L6,16ZM6,12C6,11.47 6.211,10.961 6.586,10.586L3.757,7.757C2.632,8.883 2,10.409 2,12L6,12ZM6.586,10.586C6.961,10.211 7.47,10 8,10L8,6C6.409,6 4.883,6.632 3.757,7.757L6.586,10.586ZM8,10L40,10L40,6L8,6L8,10ZM40,10C40.53,10 41.039,10.211 41.414,10.586L44.243,7.757C43.117,6.632 41.591,6 40,6L40,10ZM41.414,10.586C41.789,10.961 42,11.47 42,12L46,12C46,10.409 45.368,8.883 44.243,7.757L41.414,10.586ZM42,12L42,36L46,36L46,12L42,12ZM42,36C42,36.53 41.789,37.039 41.414,37.414L44.243,40.243C45.368,39.117 46,37.591 46,36L42,36ZM41.414,37.414C41.039,37.789 40.53,38 40,38L40,42C41.591,42 43.117,41.368 44.243,40.243L41.414,37.414ZM40,38L28,38L28,42L40,42L40,38Z" fill="#E4E4E3"/>
<line x1="4" y1="38" x2="4.02" y2="38" stroke="#E4E4E3" stroke-width="2" stroke-miterlimit="3.999327" stroke-linecap="round" stroke-linejoin="round"/>
</svg>
