<svg width="112" height="114" viewBox="0 0 112 114" fill="none" xmlns="http://www.w3.org/2000/svg" xmlns:xlink="http://www.w3.org/1999/xlink">
<path d="M45.582,11.538C20.868,11.538 0,27.499 0,48.195C0,57.935 4.767,67.188 13.194,74.019L5.246,88.002C3.546,90.992 6.458,94.476 9.688,93.383L36.882,84.186C64.945,88.526 91.167,71.392 91.167,48.196L91.167,48.068C91.167,48.061 91.167,48.055 91.167,48.049C91.067,27.439 70.263,11.538 45.582,11.538Z" fill="#292927"/>
<path d="M103.202,88.043C116.378,76.624 114.675,58.023 98.629,48.51C98.451,69.711 80.991,86.051 59.27,90.842C66.451,95.38 75.74,97.401 85.244,95.988L103.779,102.257C107.009,103.35 109.92,99.866 108.221,96.876L103.202,88.043Z" fill="#292927"/>
</svg>
