<svg width="82" height="78" viewBox="0 0 82 78" fill="none" xmlns="http://www.w3.org/2000/svg" xmlns:xlink="http://www.w3.org/1999/xlink">
<path d="M6.133,75.045C3.526,77.651 -0.93,75.805 -0.93,72.119L-0.93,7.641C-0.93,5.366 -0.12,3.418 1.501,1.798C3.121,0.177 5.069,-0.633 7.344,-0.633L73.536,-0.633C75.811,-0.633 77.759,0.177 79.38,1.798C81,3.418 81.81,5.366 81.81,7.641L81.81,57.285C81.81,59.56 81,61.508 79.38,63.129C77.759,64.749 75.811,65.559 73.536,65.559L17.332,65.559C16.235,65.559 15.182,65.995 14.407,66.771L6.133,75.045Z" stroke="#1D1D1B" stroke-width="4.137" stroke-miterlimit="3.999327" stroke-linecap="round" stroke-linejoin="round"/>
</svg>
