<svg width="40" height="36" viewBox="0 0 40 36" fill="none" xmlns="http://www.w3.org/2000/svg" xmlns:xlink="http://www.w3.org/1999/xlink">
<path d="M0,6.75L0,29.25C0,29.694 0.041,30.128 0.12,30.547L5.79,17.65C7.635,13.351 11.788,10.5 16.457,10.5L34.61,10.5C34.251,7.125 31.497,4.5 28.153,4.5L21.445,4.5C20.29,4.5 19.155,4.18 18.158,3.572L13.821,0.928C12.824,0.32 11.689,0 10.533,0L6.497,0C2.909,0 0,3.022 0,6.75ZM16.457,13.5L34.649,13.5L35.662,13.5C39.029,13.5 41.108,17.316 39.376,20.315L32.842,31.63C31.276,34.341 28.456,36 25.414,36L6.497,36C4.691,36 3.057,35.235 1.88,33.999L8.542,18.845C9.932,15.595 13.034,13.5 16.457,13.5Z" clip-rule="evenodd" fill-rule="evenodd" fill="url(#pf_0_7361_108749)"/>
<defs>
<linearGradient id="pf_0_7361_108749" x1="20" y1="0" x2="20" y2="36" gradientUnits="userSpaceOnUse">
<stop offset="0.07" stop-color="#5DFF81"/>
<stop offset="1" stop-color="#18D341"/>
</linearGradient>
</defs>
</svg>
