<svg width="48" height="34" viewBox="0 0 48 34" fill="none" xmlns="http://www.w3.org/2000/svg" xmlns:xlink="http://www.w3.org/1999/xlink">
<path d="M24.153,-0.004C24.17,-0.004 24.189,-0.004 24.209,-0.004L24.421,-0.003C26.886,0.006 39.382,0.097 42.751,1.002C44.816,1.556 46.442,3.189 46.994,5.261C47.298,6.399 47.51,7.913 47.658,9.469L47.686,9.781C47.709,10.041 47.731,10.301 47.751,10.561L47.774,10.872C47.971,13.614 47.994,16.181 47.997,16.742L47.997,16.818C47.997,16.824 47.997,16.834 47.997,16.834L47.997,16.877C47.997,16.877 47.997,16.887 47.997,16.893L47.997,16.969C47.994,17.551 47.969,20.293 47.751,23.15L47.726,23.462L47.7,23.774C47.551,25.492 47.328,27.198 46.994,28.45C46.442,30.522 44.816,32.155 42.751,32.709C39.269,33.645 26.043,33.71 24.209,33.715L24.067,33.715C24.056,33.715 24.046,33.715 24.037,33.715L23.979,33.715C23.979,33.715 23.966,33.715 23.957,33.715L23.785,33.715C22.858,33.713 19.022,33.695 15.004,33.557L14.49,33.538C14.404,33.535 14.319,33.532 14.233,33.529L13.719,33.509L13.206,33.487C9.877,33.341 6.704,33.101 5.244,32.709C3.178,32.155 1.552,30.522 1,28.45C0.666,27.198 0.443,25.492 0.294,23.774L0.268,23.462L0.243,23.15C0.033,20.397 0.002,17.751 -0.002,17.041L-0.003,16.939C-0.003,16.93 -0.003,16.922 -0.003,16.914L-0.003,16.797C-0.003,16.789 -0.003,16.781 -0.003,16.772L-0.002,16.67C0.002,16.027 0.027,13.796 0.188,11.336L0.209,11.027C0.213,10.976 0.217,10.924 0.22,10.872L0.243,10.561C0.263,10.301 0.285,10.041 0.308,9.781L0.337,9.469C0.484,7.913 0.696,6.399 1,5.261C1.552,3.189 3.178,1.556 5.244,1.002C6.704,0.61 9.877,0.37 13.206,0.224L13.719,0.203L14.233,0.182C14.319,0.179 14.404,0.176 14.49,0.173L15.004,0.154C18.765,0.025 22.368,0.001 23.573,-0.003L23.785,-0.004C23.805,-0.004 23.823,-0.004 23.841,-0.004L24.153,-0.004ZM19.197,9.63L19.197,24.081L31.667,16.856L19.197,9.63Z" fill="#E4E4E3"/>
</svg>
