<svg width="28" height="20" viewBox="0 0 28 20" fill="none" xmlns="http://www.w3.org/2000/svg" xmlns:xlink="http://www.w3.org/1999/xlink">
<path d="M14.091,0C14.101,0 14.112,0 14.123,0L14.247,0C15.685,0.006 22.974,0.06 24.94,0.597C26.144,0.925 27.093,1.894 27.415,3.123C27.592,3.798 27.716,4.696 27.802,5.619L27.819,5.803C27.832,5.958 27.845,6.112 27.856,6.266L27.87,6.451C27.985,8.077 27.998,9.6 28,9.933L28,9.978C28,9.981 28,9.987 28,9.987L28,10.012C28,10.012 28,10.018 28,10.022L28,10.067C27.998,10.413 27.984,12.039 27.856,13.733L27.842,13.918L27.827,14.104C27.74,15.123 27.61,16.134 27.415,16.877C27.093,18.106 26.144,19.075 24.94,19.403C22.909,19.958 15.194,19.997 14.123,20L14.041,20C14.034,20 14.028,20 14.023,20L13.99,20C13.99,20 13.982,20 13.977,20L13.877,20C13.336,19.998 11.098,19.988 8.754,19.906L8.454,19.895C8.404,19.893 8.354,19.891 8.304,19.889L8.004,19.877L7.705,19.864C5.763,19.778 3.912,19.636 3.061,19.403C1.856,19.075 0.907,18.106 0.585,16.877C0.39,16.134 0.26,15.123 0.173,14.104L0.158,13.918L0.144,13.733C0.021,12.1 0.003,10.531 0,10.11L0,10.049C0,10.044 0,10.039 0,10.034L0,9.965C0,9.961 0,9.956 0,9.95L0,9.89C0.003,9.508 0.018,8.185 0.112,6.726L0.124,6.543C0.126,6.512 0.128,6.482 0.13,6.451L0.144,6.266C0.155,6.112 0.168,5.958 0.181,5.803L0.198,5.619C0.284,4.696 0.408,3.798 0.585,3.123C0.907,1.894 1.856,0.925 3.061,0.597C3.912,0.364 5.763,0.222 7.705,0.135L8.004,0.122L8.304,0.11C8.354,0.108 8.404,0.107 8.454,0.105L8.754,0.094C10.948,0.017 13.05,0.003 13.753,0L13.877,0C13.888,0 13.899,0 13.909,0L14.091,0ZM11.2,5.714L11.2,14.286L18.474,10L11.2,5.714Z" fill="#FFFFFF"/>
</svg>
