<svg width="48" height="34" viewBox="0 0 48 34" fill="none" xmlns="http://www.w3.org/2000/svg" xmlns:xlink="http://www.w3.org/1999/xlink">
<path d="M24.152,-0.004C24.169,-0.004 24.188,-0.004 24.208,-0.004L24.42,-0.003C26.885,0.006 39.381,0.097 42.75,1.002C44.815,1.556 46.441,3.189 46.993,5.261C47.297,6.399 47.509,7.913 47.657,9.469L47.685,9.781C47.708,10.041 47.73,10.301 47.75,10.561L47.773,10.872C47.97,13.614 47.993,16.181 47.996,16.742L47.996,16.818C47.996,16.824 47.996,16.834 47.996,16.834L47.996,16.877C47.996,16.877 47.996,16.887 47.996,16.893L47.996,16.969C47.993,17.551 47.968,20.293 47.75,23.15L47.725,23.462L47.699,23.774C47.55,25.492 47.327,27.198 46.993,28.45C46.441,30.522 44.815,32.155 42.75,32.709C39.268,33.645 26.042,33.71 24.208,33.715L24.066,33.715C24.055,33.715 24.045,33.715 24.036,33.715L23.978,33.715C23.978,33.715 23.965,33.715 23.956,33.715L23.784,33.715C22.857,33.713 19.021,33.695 15.003,33.557L14.489,33.538C14.404,33.535 14.318,33.532 14.232,33.529L13.718,33.509L13.205,33.487C9.876,33.341 6.703,33.101 5.243,32.709C3.177,32.155 1.551,30.522 0.999,28.45C0.665,27.198 0.442,25.492 0.293,23.774L0.267,23.462L0.242,23.15C0.032,20.397 0.001,17.751 -0.003,17.041L-0.004,16.939C-0.004,16.93 -0.004,16.922 -0.004,16.914L-0.004,16.797C-0.004,16.789 -0.004,16.781 -0.004,16.772L-0.003,16.67C0.001,16.027 0.026,13.796 0.187,11.336L0.208,11.027C0.212,10.976 0.216,10.924 0.219,10.872L0.242,10.561C0.262,10.301 0.284,10.041 0.307,9.781L0.336,9.469C0.483,7.913 0.695,6.399 0.999,5.261C1.551,3.189 3.177,1.556 5.243,1.002C6.703,0.61 9.876,0.37 13.205,0.224L13.718,0.203L14.232,0.182C14.318,0.179 14.404,0.176 14.489,0.173L15.003,0.154C18.764,0.025 22.367,0.001 23.572,-0.003L23.784,-0.004C23.804,-0.004 23.822,-0.004 23.84,-0.004L24.152,-0.004ZM19.196,9.63L19.196,24.081L31.666,16.856L19.196,9.63Z" fill="#E4E4E3"/>
</svg>
