<svg width="238" height="68" viewBox="0 0 238 68" fill="none" xmlns="http://www.w3.org/2000/svg" xmlns:xlink="http://www.w3.org/1999/xlink">
<rect  x="0" y="0" width="236" height="66" rx="43" fill="#121212" stroke="#808189" stroke-width="1" stroke-miterlimit="3.999327"/>
<path d="M187.044,57L166.971,57C166.971,57 166.922,56.934 166.886,56.934C165.165,56.373 164.25,54.79 164.25,52.382C164.25,45.852 164.25,39.321 164.25,32.774C164.25,30.119 165.617,28.272 167.593,28.272L168.496,28.272C168.496,26.408 168.496,24.594 168.496,22.796C168.496,22.038 168.545,21.263 168.631,20.52C169.351,14.501 173.804,10.164 178.246,11.137C182.517,12.077 185.507,16.81 185.507,22.648C185.507,24.346 185.507,26.062 185.507,27.76L185.507,28.255C185.921,28.255 186.288,28.255 186.641,28.255C188.338,28.304 189.741,30.152 189.741,32.444C189.753,39.222 189.753,46 189.741,52.778C189.741,54.543 188.887,56.109 187.642,56.72C187.435,56.819 187.227,56.901 187.02,56.984M182.651,28.222C182.651,26.721 182.651,25.27 182.651,23.802C182.651,22.928 182.651,22.038 182.566,21.164C182.114,17.173 179.125,14.254 176.184,14.913C173.304,15.556 171.352,18.64 171.327,22.598C171.327,24.116 171.327,25.616 171.327,27.134L171.327,28.222L182.663,28.222L182.651,28.222ZM175.574,45.406C175.574,45.654 175.574,45.918 175.574,46.165C175.574,46.627 175.574,47.089 175.574,47.55C175.623,48.523 176.233,49.298 176.965,49.315C177.709,49.315 178.356,48.54 178.38,47.55C178.405,46.231 178.393,44.912 178.38,43.609C178.38,43.246 178.441,42.999 178.685,42.751C179.723,41.712 180.089,39.898 179.601,38.298C179.113,36.682 177.905,35.726 176.623,35.94C175.476,36.138 174.537,37.226 174.244,38.727C173.939,40.261 174.341,41.828 175.293,42.768C175.501,42.966 175.574,43.18 175.562,43.51C175.549,44.136 175.562,44.763 175.562,45.39Z" fill="#E4E4E3"/>
<rect  x="0" y="0" width="112.389" height="68" rx="44" fill="#6BE3F9"/>
<path d="M79,34.073C78.964,47.236 68.173,58 55.004,58C41.775,58.005 30.968,47.163 31,33.928C31.036,20.705 41.92,9.916 55.145,10C68.318,10.085 79.032,20.898 79,34.073ZM54.322,14.149C46.543,14.516 38.917,20.017 36.531,27.216C36.389,27.646 36.353,28.234 36.531,28.624C37.427,30.564 38.779,32.017 40.967,32.568C42.619,32.982 44.241,33.51 45.868,34.013C47.947,34.656 48.787,35.787 48.827,37.98C48.844,38.93 48.844,39.884 48.827,40.833C48.807,42.129 49.348,43.039 50.366,43.904C51.076,44.508 51.52,45.554 51.799,46.487C52.029,47.272 51.867,48.174 51.843,49.027C51.815,50.222 51.879,51.401 53.187,51.936C54.447,52.451 55.63,52.057 56.498,51.139C57.16,50.439 57.834,49.542 58.016,48.636C58.468,46.387 59.647,44.829 61.641,43.771C63.175,42.958 63.986,41.634 64.152,39.916C64.491,36.415 62.226,33.852 58.65,34C55.339,34.137 52.279,33.723 49.534,31.687C48.573,30.974 47.713,30.363 48.169,29.043C48.525,28.013 50.067,27.381 51.347,27.691C52.174,27.892 52.99,28.318 53.809,28.306C54.508,28.298 55.505,27.988 55.807,27.481C56.114,26.962 55.993,25.86 55.618,25.32C53.183,21.811 53.143,21.84 55.759,18.564C55.852,18.447 55.949,18.33 56.042,18.214C56.788,17.256 57.059,16.113 56.385,15.147C56.005,14.6 55.024,14.471 54.314,14.149L54.322,14.149ZM72.234,24.435C71.467,24.717 70.809,24.942 70.167,25.196C67.906,26.093 67.317,27.345 68.044,29.691C68.326,30.6 68.617,31.501 68.912,32.407C69.941,35.598 71.007,36.387 74.58,36.495C75.052,32.262 74.321,28.29 72.238,24.435L72.234,24.435Z" fill="#121212"/>
</svg>
