<svg width="46" height="44" viewBox="0 0 46 44" fill="none" xmlns="http://www.w3.org/2000/svg" xmlns:xlink="http://www.w3.org/1999/xlink">
<path d="M1.757,5.15C2.883,4.025 4.409,3.393 6,3.393L20,3.393C21.105,3.393 22,4.288 22,5.393C22,6.497 21.105,7.393 20,7.393L6,7.393C5.47,7.393 4.961,7.603 4.586,7.978C4.211,8.353 4,8.862 4,9.393L4,37.393C4,37.923 4.211,38.432 4.586,38.807C4.961,39.182 5.47,39.393 6,39.393L34,39.393C34.53,39.393 35.039,39.182 35.414,38.807C35.789,38.432 36,37.923 36,37.393L36,23.393C36,22.288 36.895,21.393 38,21.393C39.105,21.393 40,22.288 40,23.393L40,37.393C40,38.984 39.368,40.51 38.243,41.635C37.117,42.76 35.591,43.393 34,43.393L6,43.393C4.409,43.393 2.883,42.76 1.757,41.635C0.632,40.51 0,38.984 0,37.393L0,9.393C0,7.801 0.632,6.275 1.757,5.15Z" clip-rule="evenodd" fill-rule="evenodd" fill="#E4E4E3"/>
<path d="M38,3.15C37.405,3.15 36.835,3.387 36.414,3.807L17.806,22.416L16.749,26.644L20.978,25.587L39.586,6.979C40.006,6.558 40.243,5.988 40.243,5.393C40.243,4.798 40.006,4.228 39.586,3.807C39.165,3.387 38.595,3.15 38,3.15ZM33.586,0.979C34.757,-0.192 36.344,-0.85 38,-0.85C39.656,-0.85 41.244,-0.192 42.414,0.979C43.585,2.15 44.243,3.737 44.243,5.393C44.243,7.049 43.585,8.637 42.414,9.807L23.414,28.807C23.158,29.064 22.837,29.245 22.485,29.333L14.485,31.333C13.804,31.504 13.083,31.304 12.586,30.807C12.089,30.31 11.889,29.59 12.06,28.908L14.06,20.908C14.148,20.556 14.33,20.235 14.586,19.979L33.586,0.979Z" clip-rule="evenodd" fill-rule="evenodd" fill="#E4E4E3"/>
</svg>
