<svg width="48" height="40" viewBox="0 0 48 40" fill="none" xmlns="http://www.w3.org/2000/svg" xmlns:xlink="http://www.w3.org/1999/xlink">
<path d="M16.336,-0.035C16.707,-0.592 17.331,-0.926 18,-0.926L30,-0.926C30.669,-0.926 31.293,-0.592 31.664,-0.035L35.07,5.074L42,5.074C43.591,5.074 45.117,5.706 46.243,6.832C47.368,7.957 48,9.483 48,11.074L48,33.074C48,34.666 47.368,36.192 46.243,37.317C45.117,38.442 43.591,39.074 42,39.074L6,39.074C4.409,39.074 2.883,38.442 1.757,37.317C0.632,36.192 0,34.666 0,33.074L0,11.074C0,9.483 0.632,7.957 1.757,6.832C2.883,5.706 4.409,5.074 6,5.074L12.93,5.074L16.336,-0.035ZM19.07,3.074L15.664,8.184C15.293,8.74 14.669,9.074 14,9.074L6,9.074C5.47,9.074 4.961,9.285 4.586,9.66C4.211,10.035 4,10.544 4,11.074L4,33.074C4,33.605 4.211,34.113 4.586,34.488C4.961,34.863 5.47,35.074 6,35.074L42,35.074C42.53,35.074 43.039,34.863 43.414,34.488C43.789,34.113 44,33.605 44,33.074L44,11.074C44,10.544 43.789,10.035 43.414,9.66C43.039,9.285 42.53,9.074 42,9.074L34,9.074C33.331,9.074 32.707,8.74 32.336,8.184L28.93,3.074L19.07,3.074Z" clip-rule="evenodd" fill-rule="evenodd" fill="#E4E4E3"/>
<path d="M24,15.074C20.686,15.074 18,17.761 18,21.074C18,24.388 20.686,27.074 24,27.074C27.314,27.074 30,24.388 30,21.074C30,17.761 27.314,15.074 24,15.074ZM14,21.074C14,15.551 18.477,11.074 24,11.074C29.523,11.074 34,15.551 34,21.074C34,26.597 29.523,31.074 24,31.074C18.477,31.074 14,26.597 14,21.074Z" clip-rule="evenodd" fill-rule="evenodd" fill="#E4E4E3"/>
</svg>
