<svg width="34" height="34" viewBox="0 0 34 34" fill="none" xmlns="http://www.w3.org/2000/svg" xmlns:xlink="http://www.w3.org/1999/xlink">
<path d="M31.69,4.781C32.604,3.867 32.604,2.386 31.69,1.473C30.777,0.559 29.296,0.559 28.382,1.473L31.69,4.781ZM0.313,29.542C-0.601,30.456 -0.601,31.937 0.313,32.85C1.226,33.764 2.707,33.764 3.621,32.85L0.313,29.542ZM28.382,1.473L0.313,29.542L3.621,32.85L31.69,4.781L28.382,1.473Z" fill="#E4E4E3"/>
<path d="M3.621,1.473C2.707,0.559 1.226,0.559 0.313,1.473C-0.601,2.386 -0.601,3.867 0.313,4.781L3.621,1.473ZM28.382,32.85C29.296,33.764 30.777,33.764 31.69,32.85C32.604,31.937 32.604,30.456 31.69,29.542L28.382,32.85ZM0.313,4.781L28.382,32.85L31.69,29.542L3.621,1.473L0.313,4.781Z" fill="#E4E4E3"/>
</svg>
