<svg width="36" height="34" viewBox="0 0 36 34" fill="none" xmlns="http://www.w3.org/2000/svg" xmlns:xlink="http://www.w3.org/1999/xlink">
<path d="M29.026,18.184L29.026,15.735C29.026,10.53 25.566,6.119 20.826,4.678L20.826,3.062C20.826,1.213 19.321,-0.292 17.472,-0.292C15.622,-0.292 14.117,1.213 14.117,3.062L14.117,4.678C9.377,6.119 5.917,10.53 5.917,15.735L5.917,18.184C5.917,22.756 4.175,27.091 1.01,30.391C0.7,30.715 0.613,31.192 0.789,31.604C0.965,32.016 1.369,32.283 1.817,32.283L33.126,32.283C33.574,32.283 33.978,32.016 34.154,31.604C34.33,31.192 34.243,30.715 33.933,30.391C30.768,27.091 29.026,22.756 29.026,18.184ZM18.59,4.235C18.222,4.199 17.849,4.181 17.472,4.181C17.094,4.181 16.721,4.199 16.353,4.235L16.353,3.062C16.353,2.446 16.855,1.944 17.472,1.944C18.088,1.944 18.59,2.446 18.59,3.062L18.59,4.235Z" fill="#E4E4E3"/>
<path d="M32.007,15.734C32.007,16.352 32.507,16.852 33.125,16.852C33.743,16.852 34.243,16.352 34.243,15.734C34.243,11.254 32.499,7.042 29.331,3.874C28.894,3.438 28.186,3.438 27.749,3.874C27.313,4.311 27.313,5.019 27.749,5.456C30.495,8.201 32.007,11.852 32.007,15.734Z" fill="#E4E4E3"/>
<path d="M1.817,16.852C2.435,16.852 2.936,16.352 2.936,15.734C2.936,11.852 4.448,8.201 7.193,5.456C7.63,5.019 7.63,4.311 7.193,3.875C6.756,3.438 6.048,3.438 5.612,3.875C2.444,7.042 0.699,11.254 0.699,15.734C0.699,16.352 1.2,16.852 1.817,16.852Z" fill="#E4E4E3"/>
</svg>
