<svg width="190" height="88" viewBox="0 0 190 88" fill="none" xmlns="http://www.w3.org/2000/svg" xmlns:xlink="http://www.w3.org/1999/xlink">
<path d="M182.389,84.661C182.983,86.208 184.718,86.98 186.265,86.386C187.812,85.792 188.584,84.057 187.99,82.51L182.389,84.661ZM153.632,50.63L155.421,48.223L153.632,50.63ZM120.266,30.66L121.451,27.904L120.266,30.66ZM66.929,20.757L66.527,23.73L66.929,20.757ZM13.593,14.018C11.936,14.018 10.593,15.361 10.593,17.018C10.593,18.675 11.936,20.018 13.593,20.018L13.593,14.018ZM187.99,82.51C184.991,74.698 179.767,68.334 173.895,62.852C168.05,57.395 161.369,52.643 155.421,48.223L151.842,53.038C157.946,57.575 164.268,62.072 169.801,67.237C175.307,72.378 179.836,78.012 182.389,84.661L187.99,82.51ZM155.421,48.223C144.953,40.441 133.655,33.152 121.451,27.904L119.08,33.416C130.691,38.409 141.569,45.402 151.842,53.038L155.421,48.223ZM121.451,27.904C112.924,24.238 103.624,22.302 94.397,20.983C89.777,20.322 85.136,19.811 80.602,19.322C76.051,18.831 71.617,18.363 67.331,17.784L66.527,23.73C70.911,24.323 75.437,24.8 79.959,25.288C84.497,25.777 89.043,26.278 93.547,26.922C102.568,28.212 111.266,30.056 119.08,33.416L121.451,27.904ZM67.331,17.784C49.378,15.358 31.692,14.018 13.593,14.018L13.593,20.018C31.39,20.018 48.806,21.335 66.527,23.73L67.331,17.784Z" fill="#F24822"/>
<path d="M15.437,10.188C16.976,10.804 18.722,10.055 19.337,8.517C19.952,6.979 19.204,5.233 17.666,4.617L15.437,10.188ZM9.402,3.253L8.599,6.143L9.402,3.253ZM6.032,3.705L6.147,6.702L6.032,3.705ZM3.361,9.416L0.601,10.593L0.601,10.593L3.361,9.416ZM16.223,29.304L13.804,31.079L16.223,29.304ZM28.275,47.669C29.68,48.547 31.531,48.12 32.409,46.715C33.287,45.31 32.86,43.459 31.455,42.581L28.275,47.669ZM17.666,4.617C16.804,4.273 16.052,3.704 14.806,2.8C13.685,1.987 12.156,0.904 10.205,0.362L8.599,6.143C9.405,6.367 10.162,6.844 11.282,7.657C12.277,8.378 13.721,9.502 15.437,10.188L17.666,4.617ZM10.205,0.362C8.753,-0.041 7.59,0.216 6.823,0.444C5.975,0.697 6.044,0.702 5.917,0.707L6.147,6.702C6.765,6.679 7.287,6.565 7.691,6.454C7.887,6.4 8.067,6.343 8.202,6.3C8.354,6.251 8.441,6.223 8.534,6.195C8.703,6.145 8.731,6.148 8.704,6.15C8.687,6.151 8.663,6.151 8.636,6.149C8.61,6.146 8.596,6.142 8.599,6.143L10.205,0.362ZM5.917,0.707C4.753,0.752 3.577,0.822 2.611,1.053C1.657,1.281 0.103,1.859 -0.636,3.554C-1.264,4.995 -0.91,6.458 -0.669,7.281C-0.39,8.236 0.081,9.371 0.601,10.593L6.121,8.24C5.576,6.96 5.252,6.153 5.09,5.597C5.012,5.33 5.008,5.241 5.009,5.268C5.012,5.305 5.025,5.582 4.864,5.952C4.685,6.361 4.4,6.64 4.164,6.793C3.973,6.916 3.872,6.921 4.007,6.888C4.132,6.858 4.359,6.82 4.74,6.785C5.114,6.75 5.573,6.724 6.147,6.702L5.917,0.707ZM0.601,10.593C4.022,18.617 9.115,24.686 13.804,31.079L18.642,27.53C13.663,20.741 9.19,15.441 6.121,8.24L0.601,10.593ZM13.804,31.079C14.816,32.46 15.777,33.875 16.789,35.347C17.787,36.801 18.828,38.3 19.942,39.751C22.176,42.658 24.793,45.493 28.275,47.669L31.455,42.581C28.821,40.934 26.712,38.715 24.701,36.096C23.693,34.784 22.731,33.401 21.735,31.95C20.751,30.518 19.724,29.006 18.642,27.53L13.804,31.079Z" fill="#F24822"/>
</svg>
