<svg width="26" height="26" viewBox="0 0 26 26" fill="none" xmlns="http://www.w3.org/2000/svg" xmlns:xlink="http://www.w3.org/1999/xlink">
<path d="M20.377,14.477L20.377,12.639C20.377,8.732 17.781,5.421 14.223,4.34L14.223,3.127C14.223,1.739 13.094,0.61 11.705,0.61C10.317,0.61 9.188,1.739 9.188,3.127L9.188,4.34C5.63,5.421 3.033,8.732 3.033,12.639L3.033,14.477C3.033,17.909 1.725,21.163 -0.65,23.639C-0.883,23.882 -0.948,24.24 -0.816,24.549C-0.684,24.859 -0.38,25.059 -0.044,25.059L23.455,25.059C23.791,25.059 24.095,24.859 24.227,24.549C24.358,24.24 24.293,23.882 24.06,23.639C21.685,21.163 20.377,17.909 20.377,14.477ZM12.545,4.007C12.268,3.981 11.988,3.967 11.705,3.967C11.422,3.967 11.142,3.981 10.866,4.007L10.866,3.127C10.866,2.665 11.243,2.288 11.705,2.288C12.168,2.288 12.545,2.665 12.545,3.127L12.545,4.007Z" fill="#E4E4E3"/>
<path d="M22.616,12.639C22.616,13.102 22.991,13.478 23.455,13.478C23.918,13.478 24.294,13.102 24.294,12.639C24.294,9.276 22.985,6.115 20.607,3.737C20.279,3.41 19.748,3.409 19.42,3.737C19.092,4.065 19.092,4.596 19.42,4.924C21.481,6.985 22.616,9.725 22.616,12.639Z" fill="#E4E4E3"/>
<path d="M-0.044,13.478C0.419,13.478 0.795,13.102 0.795,12.639C0.795,9.725 1.93,6.985 3.991,4.924C4.318,4.596 4.318,4.065 3.991,3.737C3.663,3.41 3.132,3.41 2.804,3.737C0.426,6.115 -0.883,9.276 -0.883,12.639C-0.883,13.102 -0.508,13.478 -0.044,13.478Z" fill="#E4E4E3"/>
</svg>
