<svg width="26" height="26" viewBox="0 0 26 26" fill="none" xmlns="http://www.w3.org/2000/svg" xmlns:xlink="http://www.w3.org/1999/xlink">
<path d="M21.268,14.151L21.268,12.312C21.268,8.406 18.671,5.095 15.113,4.013L15.113,2.801C15.113,1.413 13.984,0.283 12.595,0.283C11.207,0.283 10.078,1.413 10.078,2.801L10.078,4.013C6.52,5.095 3.923,8.406 3.923,12.312L3.923,14.151C3.923,17.582 2.615,20.836 0.24,23.313C0.008,23.556 -0.058,23.914 0.074,24.223C0.206,24.532 0.51,24.733 0.846,24.733L24.345,24.733C24.681,24.733 24.985,24.532 25.117,24.223C25.249,23.914 25.183,23.556 24.951,23.313C22.576,20.836 21.268,17.582 21.268,14.151ZM13.435,3.681C13.159,3.654 12.879,3.64 12.595,3.64C12.312,3.64 12.032,3.654 11.756,3.681L11.756,2.801C11.756,2.338 12.133,1.962 12.595,1.962C13.058,1.962 13.435,2.338 13.435,2.801L13.435,3.681Z" fill="#E4E4E3"/>
<path d="M23.506,12.312C23.506,12.776 23.882,13.152 24.345,13.152C24.808,13.152 25.184,12.776 25.184,12.312C25.184,8.95 23.875,5.788 21.497,3.411C21.169,3.083 20.638,3.083 20.31,3.411C19.983,3.739 19.983,4.27 20.31,4.598C22.371,6.658 23.506,9.398 23.506,12.312Z" fill="#E4E4E3"/>
<path d="M0.846,13.152C1.31,13.152 1.685,12.776 1.685,12.312C1.685,9.398 2.82,6.658 4.881,4.598C5.209,4.27 5.209,3.739 4.881,3.411C4.553,3.083 4.022,3.083 3.694,3.411C1.316,5.789 0.007,8.95 0.007,12.312C0.007,12.776 0.383,13.152 0.846,13.152Z" fill="#E4E4E3"/>
</svg>
