<svg width="26" height="24" viewBox="0 0 26 24" fill="none" xmlns="http://www.w3.org/2000/svg" xmlns:xlink="http://www.w3.org/1999/xlink">
<path d="M20.377,13.136L20.377,11.298C20.377,7.391 17.781,4.08 14.223,2.999L14.223,1.786C14.223,0.398 13.094,-0.731 11.705,-0.731C10.317,-0.731 9.188,0.398 9.188,1.786L9.188,2.999C5.63,4.08 3.033,7.391 3.033,11.298L3.033,13.136C3.033,16.568 1.725,19.822 -0.65,22.298C-0.883,22.541 -0.948,22.899 -0.816,23.208C-0.684,23.518 -0.38,23.718 -0.044,23.718L23.455,23.718C23.791,23.718 24.095,23.518 24.227,23.208C24.358,22.899 24.293,22.541 24.06,22.298C21.685,19.822 20.377,16.568 20.377,13.136ZM12.545,2.666C12.268,2.64 11.988,2.626 11.705,2.626C11.422,2.626 11.142,2.64 10.866,2.666L10.866,1.786C10.866,1.324 11.243,0.947 11.705,0.947C12.168,0.947 12.545,1.324 12.545,1.786L12.545,2.666Z" fill="#E4E4E3"/>
<path d="M22.616,11.298C22.616,11.761 22.991,12.137 23.455,12.137C23.918,12.137 24.294,11.761 24.294,11.298C24.294,7.935 22.985,4.774 20.607,2.396C20.279,2.068 19.748,2.068 19.42,2.396C19.092,2.724 19.092,3.255 19.42,3.583C21.481,5.644 22.616,8.383 22.616,11.298Z" fill="#E4E4E3"/>
<path d="M-0.044,12.137C0.419,12.137 0.795,11.761 0.795,11.298C0.795,8.384 1.93,5.644 3.991,3.583C4.318,3.255 4.318,2.724 3.991,2.396C3.663,2.068 3.132,2.068 2.804,2.396C0.426,4.774 -0.883,7.935 -0.883,11.298C-0.883,11.761 -0.508,12.137 -0.044,12.137Z" fill="#E4E4E3"/>
</svg>
