<svg width="36" height="32" viewBox="0 0 36 32" fill="none" xmlns="http://www.w3.org/2000/svg" xmlns:xlink="http://www.w3.org/1999/xlink">
<path d="M29.026,17.722L29.026,15.272C29.026,10.067 25.566,5.656 20.826,4.215L20.826,2.6C20.826,0.75 19.321,-0.755 17.472,-0.755C15.622,-0.755 14.117,0.75 14.117,2.6L14.117,4.215C9.377,5.656 5.917,10.067 5.917,15.272L5.917,17.722C5.917,22.294 4.175,26.629 1.01,29.929C0.7,30.252 0.613,30.729 0.789,31.141C0.965,31.553 1.369,31.821 1.817,31.821L33.126,31.821C33.574,31.821 33.978,31.553 34.154,31.141C34.33,30.729 34.243,30.252 33.933,29.929C30.768,26.629 29.026,22.294 29.026,17.722ZM18.59,3.772C18.222,3.737 17.849,3.718 17.472,3.718C17.094,3.718 16.721,3.737 16.353,3.772L16.353,2.6C16.353,1.983 16.855,1.482 17.472,1.482C18.088,1.482 18.59,1.983 18.59,2.6L18.59,3.772Z" fill="#E4E4E3"/>
<path d="M32.007,15.272C32.007,15.889 32.507,16.39 33.125,16.39C33.743,16.39 34.243,15.889 34.243,15.272C34.243,10.792 32.499,6.58 29.331,3.412C28.894,2.975 28.186,2.975 27.749,3.412C27.313,3.849 27.313,4.556 27.749,4.993C30.495,7.739 32.007,11.389 32.007,15.272Z" fill="#E4E4E3"/>
<path d="M1.817,16.39C2.435,16.39 2.936,15.889 2.936,15.272C2.936,11.389 4.448,7.739 7.193,4.993C7.63,4.556 7.63,3.849 7.193,3.412C6.756,2.975 6.048,2.975 5.612,3.412C2.444,6.58 0.699,10.792 0.699,15.272C0.699,15.889 1.2,16.39 1.817,16.39Z" fill="#E4E4E3"/>
</svg>
