<svg width="34" height="34" viewBox="0 0 34 34" fill="none" xmlns="http://www.w3.org/2000/svg" xmlns:xlink="http://www.w3.org/1999/xlink">
<path d="M31.46,3.657C32.373,2.744 32.373,1.262 31.46,0.348C30.546,-0.565 29.065,-0.565 28.151,0.348L31.46,3.657ZM0.074,28.425C-0.84,29.339 -0.84,30.82 0.074,31.734C0.988,32.648 2.469,32.648 3.383,31.734L0.074,28.425ZM28.151,0.348L0.074,28.425L3.383,31.734L31.46,3.657L28.151,0.348Z" fill="#E4E4E3"/>
<path d="M3.383,0.348C2.469,-0.565 0.988,-0.565 0.074,0.348C-0.84,1.262 -0.84,2.744 0.074,3.657L3.383,0.348ZM28.151,31.734C29.065,32.648 30.546,32.648 31.46,31.734C32.373,30.82 32.373,29.339 31.46,28.425L28.151,31.734ZM0.074,3.657L28.151,31.734L31.46,28.425L3.383,0.348L0.074,3.657Z" fill="#E4E4E3"/>
</svg>
