<svg width="48" height="48" viewBox="0 0 48 48" fill="none" xmlns="http://www.w3.org/2000/svg" xmlns:xlink="http://www.w3.org/1999/xlink">
<path d="M22.775,25.206C21.994,24.425 20.728,24.424 19.946,25.205C19.165,25.986 19.164,27.252 19.945,28.034L22.775,25.206ZM28.18,31.82L27.191,33.559C27.974,34.004 28.958,33.871 29.594,33.234L28.18,31.82ZM30.72,29.28L29.314,27.858L29.306,27.866L30.72,29.28ZM34.94,28.38L34.236,30.252L34.241,30.254L34.94,28.38ZM40.56,29.78L40.84,27.8L40.822,27.797L40.56,29.78ZM44,33.78L42,33.76L42,33.78L44,33.78ZM44,39.78L42,39.78L42,39.788L44,39.78ZM39.64,43.78L39.424,45.768C39.436,45.77 39.448,45.771 39.46,45.772L39.64,43.78ZM22.38,37.64L23.468,35.962L23.452,35.952L22.38,37.64ZM17.135,30.887C16.354,30.105 15.088,30.104 14.307,30.885C13.525,31.666 13.524,32.932 14.305,33.713L17.135,30.887ZM8.702,26.708C9.303,27.635 10.541,27.899 11.468,27.298C12.395,26.697 12.659,25.459 12.058,24.532L8.702,26.708ZM4.24,8.36L2.248,8.54C2.249,8.552 2.25,8.564 2.252,8.576L4.24,8.36ZM8.22,4L8.22,2L8.218,2L8.22,4ZM14.22,4L14.22,6L14.24,6L14.22,4ZM18.22,7.44L20.203,7.178L20.2,7.16L18.22,7.44ZM19.62,13.06L17.746,13.759L17.748,13.764L19.62,13.06ZM18.72,17.28L20.134,18.694L20.142,18.686L18.72,17.28ZM14.766,18.406C13.985,19.187 13.985,20.453 14.766,21.234C15.547,22.015 16.813,22.015 17.594,21.234L14.766,18.406ZM19.945,28.034C22.102,30.192 24.539,32.05 27.191,33.559L29.169,30.081C26.828,28.751 24.678,27.111 22.775,25.206L19.945,28.034ZM29.594,33.234L32.134,30.694L29.306,27.866L26.766,30.406L29.594,33.234ZM32.126,30.702C32.398,30.433 32.741,30.248 33.115,30.168L32.281,26.256C31.159,26.495 30.129,27.051 29.314,27.858L32.126,30.702ZM33.115,30.168C33.489,30.088 33.878,30.118 34.236,30.252L35.644,26.508C34.57,26.104 33.403,26.017 32.281,26.256L33.115,30.168ZM34.241,30.254C36.197,30.984 38.229,31.49 40.299,31.763L40.822,27.797C39.051,27.564 37.312,27.131 35.639,26.506L34.241,30.254ZM40.28,31.76C40.761,31.828 41.2,32.069 41.517,32.437L44.549,29.828C43.6,28.724 42.282,28.003 40.84,27.8L40.28,31.76ZM41.517,32.437C41.833,32.805 42.005,33.275 42,33.76L46,33.8C46.014,32.344 45.499,30.932 44.549,29.828L41.517,32.437ZM42,33.78L42,39.78L46,39.78L46,33.78L42,33.78ZM42,39.788C42.001,40.067 41.944,40.342 41.833,40.597L45.498,42.2C45.832,41.434 46.003,40.607 46,39.772L42,39.788ZM41.833,40.597C41.721,40.853 41.557,41.082 41.352,41.27L44.056,44.217C44.672,43.653 45.163,42.965 45.498,42.2L41.833,40.597ZM41.352,41.27C41.147,41.458 40.905,41.602 40.641,41.691L41.922,45.48C42.714,45.212 43.441,44.782 44.056,44.217L41.352,41.27ZM40.641,41.691C40.377,41.78 40.097,41.813 39.82,41.788L39.46,45.772C40.292,45.847 41.131,45.748 41.922,45.48L40.641,41.691ZM39.856,41.792C34.013,41.157 28.4,39.16 23.468,35.962L21.292,39.318C26.748,42.857 32.959,45.066 39.424,45.768L39.856,41.792ZM23.452,35.952C21.167,34.5 19.048,32.802 17.135,30.887L14.305,33.713C16.426,35.837 18.774,37.72 21.308,39.328L23.452,35.952ZM12.058,24.532C8.86,19.6 6.863,13.987 6.228,8.144L2.252,8.576C2.954,15.041 5.163,21.252 8.702,26.708L12.058,24.532ZM6.232,8.18C6.207,7.903 6.24,7.625 6.328,7.362L2.538,6.085C2.272,6.874 2.173,7.71 2.248,8.54L6.232,8.18ZM6.328,7.362C6.417,7.098 6.559,6.857 6.747,6.652L3.792,3.955C3.231,4.57 2.803,5.295 2.538,6.085L6.328,7.362ZM6.747,6.652C6.934,6.447 7.162,6.283 7.416,6.171L5.799,2.512C5.038,2.848 4.354,3.34 3.792,3.955L6.747,6.652ZM7.416,6.171C7.67,6.058 7.944,6 8.222,6L8.218,2C7.385,2.001 6.561,2.175 5.799,2.512L7.416,6.171ZM8.22,6L14.22,6L14.22,2L8.22,2L8.22,6ZM14.24,6C14.725,5.995 15.195,6.167 15.563,6.483L18.172,3.451C17.068,2.501 15.656,1.986 14.2,2L14.24,6ZM15.563,6.483C15.931,6.8 16.172,7.239 16.24,7.72L20.2,7.16C19.997,5.718 19.275,4.4 18.172,3.451L15.563,6.483ZM16.237,7.702C16.51,9.771 17.016,11.803 17.746,13.759L21.494,12.361C20.869,10.688 20.436,8.949 20.203,7.178L16.237,7.702ZM17.748,13.764C17.882,14.122 17.912,14.511 17.832,14.885L21.744,15.719C21.983,14.597 21.896,13.43 21.492,12.356L17.748,13.764ZM17.832,14.885C17.752,15.259 17.567,15.602 17.298,15.874L20.142,18.686C20.949,17.871 21.505,16.841 21.744,15.719L17.832,14.885ZM17.306,15.866L14.766,18.406L17.594,21.234L20.134,18.694L17.306,15.866Z" fill="#E4E4E3"/>
<path d="M47.414,3.414C48.195,2.633 48.195,1.367 47.414,0.586C46.633,-0.195 45.367,-0.195 44.586,0.586L47.414,3.414ZM0.586,44.586C-0.195,45.367 -0.195,46.633 0.586,47.414C1.367,48.195 2.633,48.195 3.414,47.414L0.586,44.586ZM44.586,0.586L0.586,44.586L3.414,47.414L47.414,3.414L44.586,0.586Z" fill="#E4E4E3"/>
</svg>
