<svg width="44" height="24" viewBox="0 0 44 24" fill="none" xmlns="http://www.w3.org/2000/svg" xmlns:xlink="http://www.w3.org/1999/xlink">
<path d="M24.052,5.378C25.7,5.2 26.891,3.721 26.714,2.074C26.537,0.426 25.057,-0.765 23.41,-0.588L24.052,5.378ZM6.556,14.207L8.8,16.198L6.556,14.207ZM2.171,14.713C0.689,15.454 0.088,17.256 0.829,18.737C1.57,20.219 3.372,20.82 4.854,20.079L2.171,14.713ZM23.41,-0.588C14.468,0.375 8.927,7.015 4.312,12.216L8.8,16.198C13.796,10.568 17.823,6.049 24.052,5.378L23.41,-0.588ZM4.312,12.216C4.029,12.536 3.749,12.888 3.516,13.182C3.266,13.498 3.053,13.768 2.837,14.024C2.345,14.605 2.14,14.728 2.171,14.713L4.854,20.079C6.01,19.501 6.888,18.525 7.417,17.9C7.711,17.552 7.994,17.192 8.221,16.906C8.465,16.597 8.645,16.373 8.8,16.198L4.312,12.216Z" fill="#F24822"/>
<path d="M21.288,0.433C19.844,-0.38 18.015,0.133 17.203,1.577C16.39,3.021 16.903,4.85 18.347,5.662L21.288,0.433ZM22.571,5.946L24.341,3.524L24.341,3.524L22.571,5.946ZM27.499,9.207L29.341,6.839L29.341,6.839L27.499,9.207ZM39.024,21.849C40.403,22.768 42.265,22.395 43.184,21.017C44.103,19.638 43.731,17.776 42.352,16.857L39.024,21.849ZM18.347,5.662C18.391,5.687 18.459,5.716 18.8,6.192C19.095,6.604 19.735,7.589 20.801,8.368L24.341,3.524C24.209,3.427 24.133,3.334 23.68,2.702C23.274,2.134 22.564,1.15 21.288,0.433L18.347,5.662ZM20.801,8.368C21.706,9.03 22.67,9.616 23.478,10.117C24.329,10.644 25.038,11.093 25.657,11.575L29.341,6.839C28.437,6.136 27.473,5.534 26.637,5.016C25.758,4.471 25.019,4.019 24.341,3.524L20.801,8.368ZM25.657,11.575C29.845,14.833 34.31,18.706 39.024,21.849L42.352,16.857C37.872,13.87 33.896,10.382 29.341,6.839L25.657,11.575Z" fill="#F24822"/>
</svg>
