<svg width="52" height="52" viewBox="0 0 52 52" fill="none" xmlns="http://www.w3.org/2000/svg" xmlns:xlink="http://www.w3.org/1999/xlink">
<path d="M1.155,6.545C2.471,5.229 4.256,4.489 6.117,4.489L22.491,4.489C23.783,4.489 24.83,5.537 24.83,6.828C24.83,8.12 23.783,9.167 22.491,9.167L6.117,9.167C5.497,9.167 4.902,9.414 4.463,9.853C4.024,10.291 3.778,10.886 3.778,11.507L3.778,44.254C3.778,44.875 4.024,45.47 4.463,45.908C4.902,46.347 5.497,46.593 6.117,46.593L38.865,46.593C39.485,46.593 40.08,46.347 40.519,45.908C40.957,45.47 41.204,44.875 41.204,44.254L41.204,27.88C41.204,26.589 42.251,25.541 43.543,25.541C44.835,25.541 45.882,26.589 45.882,27.88L45.882,44.254C45.882,46.115 45.143,47.9 43.827,49.216C42.511,50.532 40.726,51.272 38.865,51.272L6.117,51.272C4.256,51.272 2.471,50.532 1.155,49.216C-0.161,47.9 -0.9,46.115 -0.9,44.254L-0.9,11.507C-0.9,9.645 -0.161,7.861 1.155,6.545Z" clip-rule="evenodd" fill-rule="evenodd" fill="#E4E4E3"/>
<path d="M43.541,4.206C42.846,4.206 42.179,4.482 41.687,4.974L19.923,26.737L18.687,31.683L23.633,30.447L45.396,8.683C45.888,8.191 46.164,7.524 46.164,6.828C46.164,6.133 45.888,5.466 45.396,4.974C44.904,4.482 44.237,4.206 43.541,4.206ZM38.379,1.666C39.748,0.297 41.605,-0.473 43.541,-0.473C45.478,-0.473 47.335,0.297 48.704,1.666C50.073,3.035 50.843,4.892 50.843,6.828C50.843,8.765 50.073,10.622 48.704,11.991L26.482,34.213C26.183,34.513 25.807,34.725 25.396,34.828L16.039,37.167C15.242,37.367 14.399,37.133 13.818,36.552C13.237,35.971 13.003,35.128 13.203,34.331L15.542,24.974C15.645,24.563 15.857,24.187 16.157,23.888L38.379,1.666Z" clip-rule="evenodd" fill-rule="evenodd" fill="#E4E4E3"/>
</svg>
