<svg width="36" height="32" viewBox="0 0 36 32" fill="none" xmlns="http://www.w3.org/2000/svg" xmlns:xlink="http://www.w3.org/1999/xlink">
<path d="M29.03,17.723L29.03,15.273C29.03,10.068 25.57,5.657 20.83,4.216L20.83,2.601C20.83,0.751 19.325,-0.754 17.475,-0.754C15.626,-0.754 14.121,0.751 14.121,2.601L14.121,4.216C9.381,5.657 5.921,10.068 5.921,15.273L5.921,17.723C5.921,22.294 4.179,26.629 1.014,29.929C0.704,30.253 0.617,30.73 0.793,31.142C0.969,31.554 1.373,31.821 1.821,31.821L33.13,31.821C33.578,31.821 33.982,31.554 34.158,31.142C34.334,30.73 34.247,30.253 33.937,29.929C30.772,26.629 29.03,22.294 29.03,17.723ZM18.594,3.773C18.226,3.737 17.853,3.719 17.475,3.719C17.098,3.719 16.725,3.737 16.357,3.773L16.357,2.601C16.357,1.984 16.859,1.482 17.475,1.482C18.092,1.482 18.594,1.984 18.594,2.601L18.594,3.773Z" fill="#E4E4E3"/>
<path d="M32.015,15.272C32.015,15.89 32.515,16.39 33.133,16.39C33.75,16.39 34.251,15.89 34.251,15.272C34.251,10.792 32.506,6.58 29.338,3.412C28.902,2.976 28.194,2.976 27.757,3.412C27.321,3.849 27.321,4.557 27.757,4.994C30.503,7.739 32.015,11.39 32.015,15.272Z" fill="#E4E4E3"/>
<path d="M1.821,16.39C2.439,16.39 2.939,15.89 2.939,15.272C2.939,11.39 4.451,7.739 7.197,4.994C7.634,4.557 7.634,3.849 7.197,3.412C6.76,2.976 6.052,2.976 5.616,3.412C2.448,6.58 0.703,10.792 0.703,15.272C0.703,15.89 1.204,16.39 1.821,16.39Z" fill="#E4E4E3"/>
</svg>
