<svg width="26" height="26" viewBox="0 0 26 26" fill="none" xmlns="http://www.w3.org/2000/svg" xmlns:xlink="http://www.w3.org/1999/xlink">
<path d="M21.377,13.859L21.377,12.021C21.377,8.114 18.781,4.803 15.223,3.722L15.223,2.509C15.223,1.121 14.094,-0.008 12.705,-0.008C11.317,-0.008 10.188,1.121 10.188,2.509L10.188,3.722C6.63,4.803 4.033,8.114 4.033,12.021L4.033,13.859C4.033,17.291 2.725,20.545 0.35,23.021C0.117,23.264 0.052,23.622 0.184,23.931C0.316,24.241 0.62,24.441 0.956,24.441L24.455,24.441C24.791,24.441 25.095,24.241 25.227,23.931C25.358,23.622 25.293,23.264 25.06,23.021C22.685,20.545 21.377,17.291 21.377,13.859ZM13.545,3.389C13.268,3.363 12.988,3.349 12.705,3.349C12.422,3.349 12.142,3.363 11.866,3.389L11.866,2.509C11.866,2.047 12.243,1.67 12.705,1.67C13.168,1.67 13.545,2.047 13.545,2.509L13.545,3.389Z" fill="#E4E4E3"/>
<path d="M23.615,12.021C23.615,12.484 23.991,12.86 24.455,12.86C24.918,12.86 25.294,12.484 25.294,12.021C25.294,8.658 23.984,5.497 21.607,3.119C21.279,2.792 20.748,2.792 20.42,3.119C20.092,3.447 20.092,3.978 20.42,4.306C22.481,6.367 23.615,9.107 23.615,12.021Z" fill="#E4E4E3"/>
<path d="M0.956,12.86C1.419,12.86 1.795,12.484 1.795,12.021C1.795,9.107 2.93,6.367 4.991,4.306C5.318,3.978 5.318,3.447 4.991,3.119C4.663,2.792 4.132,2.792 3.804,3.119C1.426,5.497 0.117,8.658 0.117,12.021C0.117,12.484 0.492,12.86 0.956,12.86Z" fill="#E4E4E3"/>
</svg>
