<svg width="34" height="34" viewBox="0 0 34 34" fill="none" xmlns="http://www.w3.org/2000/svg" xmlns:xlink="http://www.w3.org/1999/xlink">
<path d="M28.026,18.184L28.026,15.735C28.026,10.53 24.566,6.119 19.826,4.678L19.826,3.062C19.826,1.213 18.321,-0.292 16.472,-0.292C14.622,-0.292 13.117,1.213 13.117,3.062L13.117,4.678C8.377,6.119 4.917,10.53 4.917,15.735L4.917,18.184C4.917,22.756 3.175,27.091 0.01,30.391C-0.3,30.715 -0.387,31.192 -0.211,31.604C-0.035,32.016 0.369,32.283 0.817,32.283L32.126,32.283C32.574,32.283 32.978,32.016 33.154,31.604C33.33,31.192 33.243,30.715 32.933,30.391C29.768,27.091 28.026,22.756 28.026,18.184ZM17.59,4.235C17.222,4.199 16.849,4.181 16.472,4.181C16.094,4.181 15.721,4.199 15.353,4.235L15.353,3.062C15.353,2.446 15.855,1.944 16.472,1.944C17.088,1.944 17.59,2.446 17.59,3.062L17.59,4.235Z" fill="#E4E4E3"/>
<path d="M31.007,15.734C31.007,16.352 31.507,16.852 32.125,16.852C32.743,16.852 33.243,16.352 33.243,15.734C33.243,11.254 31.499,7.042 28.331,3.874C27.894,3.438 27.186,3.438 26.749,3.874C26.313,4.311 26.313,5.019 26.749,5.456C29.495,8.201 31.007,11.852 31.007,15.734Z" fill="#E4E4E3"/>
<path d="M0.817,16.852C1.435,16.852 1.936,16.352 1.936,15.734C1.936,11.852 3.448,8.201 6.193,5.456C6.63,5.019 6.63,4.311 6.193,3.875C5.756,3.438 5.048,3.438 4.612,3.875C1.444,7.042 -0.301,11.254 -0.301,15.734C-0.301,16.352 0.2,16.852 0.817,16.852Z" fill="#E4E4E3"/>
</svg>
