<svg width="26" height="24" viewBox="0 0 26 24" fill="none" xmlns="http://www.w3.org/2000/svg" xmlns:xlink="http://www.w3.org/1999/xlink">
<path d="M21.268,13.265L21.268,11.427C21.268,7.52 18.671,4.209 15.113,3.128L15.113,1.915C15.113,0.527 13.984,-0.603 12.595,-0.603C11.207,-0.603 10.078,0.527 10.078,1.915L10.078,3.128C6.52,4.209 3.923,7.52 3.923,11.427L3.923,13.265C3.923,16.697 2.615,19.95 0.24,22.427C0.008,22.67 -0.058,23.028 0.074,23.337C0.206,23.647 0.51,23.847 0.846,23.847L24.345,23.847C24.681,23.847 24.985,23.647 25.117,23.337C25.249,23.028 25.183,22.67 24.951,22.427C22.576,19.95 21.268,16.697 21.268,13.265ZM13.435,2.795C13.159,2.769 12.879,2.754 12.595,2.754C12.312,2.754 12.032,2.769 11.756,2.795L11.756,1.915C11.756,1.452 12.133,1.076 12.595,1.076C13.058,1.076 13.435,1.452 13.435,1.915L13.435,2.795Z" fill="#E4E4E3"/>
<path d="M23.506,11.427C23.506,11.89 23.882,12.266 24.345,12.266C24.808,12.266 25.184,11.89 25.184,11.427C25.184,8.064 23.875,4.903 21.497,2.525C21.169,2.197 20.638,2.197 20.31,2.525C19.983,2.853 19.983,3.384 20.31,3.712C22.371,5.773 23.506,8.512 23.506,11.427Z" fill="#E4E4E3"/>
<path d="M0.846,12.266C1.31,12.266 1.685,11.89 1.685,11.427C1.685,8.512 2.82,5.773 4.881,3.712C5.209,3.384 5.209,2.853 4.881,2.525C4.553,2.197 4.022,2.197 3.694,2.525C1.316,4.903 0.007,8.064 0.007,11.427C0.007,11.89 0.383,12.266 0.846,12.266Z" fill="#E4E4E3"/>
</svg>
