<svg width="20" height="20" viewBox="0 0 20 20" fill="none" xmlns="http://www.w3.org/2000/svg" xmlns:xlink="http://www.w3.org/1999/xlink">
<path d="M18.195,1.933C18.724,1.404 18.724,0.546 18.195,0.016C17.666,-0.513 16.807,-0.513 16.278,0.016L18.195,1.933ZM0.014,16.28C-0.515,16.809 -0.515,17.668 0.014,18.197C0.544,18.726 1.402,18.726 1.931,18.197L0.014,16.28ZM16.278,0.016L0.014,16.28L1.931,18.197L18.195,1.933L16.278,0.016Z" fill="#E4E4E3"/>
<path d="M1.931,0.016C1.402,-0.513 0.544,-0.513 0.014,0.016C-0.515,0.546 -0.515,1.404 0.014,1.933L1.931,0.016ZM16.278,18.197C16.807,18.726 17.666,18.726 18.195,18.197C18.724,17.668 18.724,16.809 18.195,16.28L16.278,18.197ZM0.014,1.933L16.278,18.197L18.195,16.28L1.931,0.016L0.014,1.933Z" fill="#E4E4E3"/>
</svg>
