<svg width="20" height="18" viewBox="0 0 20 18" fill="none" xmlns="http://www.w3.org/2000/svg" xmlns:xlink="http://www.w3.org/1999/xlink">
<path d="M16.586,11.414C17.367,12.195 18.633,12.195 19.414,11.414C20.195,10.633 20.195,9.367 19.414,8.586L16.586,11.414ZM10,2L11.414,0.586C10.633,-0.195 9.367,-0.195 8.586,0.586L10,2ZM0.586,8.586C-0.195,9.367 -0.195,10.633 0.586,11.414C1.367,12.195 2.633,12.195 3.414,11.414L0.586,8.586ZM19.414,8.586L11.414,0.586L8.586,3.414L16.586,11.414L19.414,8.586ZM8.586,0.586L0.586,8.586L3.414,11.414L11.414,3.414L8.586,0.586Z" fill="#E4E4E3"/>
<line x1="8" y1="2" x2="8" y2="18" stroke="#E4E4E3" stroke-width="2" stroke-miterlimit="3.999327" stroke-linecap="round" stroke-linejoin="round"/>
</svg>
