<svg width="26" height="24" viewBox="0 0 26 24" fill="none" xmlns="http://www.w3.org/2000/svg" xmlns:xlink="http://www.w3.org/1999/xlink">
<path d="M20.377,13.364L20.377,11.525C20.377,7.618 17.781,4.307 14.223,3.226L14.223,2.014C14.223,0.625 13.094,-0.504 11.705,-0.504C10.317,-0.504 9.188,0.625 9.188,2.014L9.188,3.226C5.63,4.307 3.033,7.618 3.033,11.525L3.033,13.364C3.033,16.795 1.725,20.049 -0.65,22.526C-0.883,22.768 -0.948,23.126 -0.816,23.436C-0.684,23.745 -0.38,23.946 -0.044,23.946L23.455,23.946C23.791,23.946 24.095,23.745 24.227,23.436C24.358,23.126 24.293,22.768 24.06,22.526C21.685,20.049 20.377,16.795 20.377,13.364ZM12.545,2.894C12.268,2.867 11.988,2.853 11.705,2.853C11.422,2.853 11.142,2.867 10.866,2.894L10.866,2.014C10.866,1.551 11.243,1.174 11.705,1.174C12.168,1.174 12.545,1.551 12.545,2.014L12.545,2.894Z" fill="#E4E4E3"/>
<path d="M22.616,11.525C22.616,11.988 22.991,12.364 23.455,12.364C23.918,12.364 24.294,11.988 24.294,11.525C24.294,8.162 22.985,5.001 20.607,2.623C20.279,2.296 19.748,2.296 19.42,2.623C19.092,2.951 19.092,3.482 19.42,3.81C21.481,5.871 22.616,8.611 22.616,11.525Z" fill="#E4E4E3"/>
<path d="M-0.044,12.364C0.419,12.364 0.795,11.988 0.795,11.525C0.795,8.611 1.93,5.871 3.991,3.81C4.318,3.483 4.318,2.951 3.991,2.623C3.663,2.296 3.132,2.296 2.804,2.623C0.426,5.001 -0.883,8.162 -0.883,11.525C-0.883,11.988 -0.508,12.364 -0.044,12.364Z" fill="#E4E4E3"/>
</svg>
