<svg width="26" height="26" viewBox="0 0 26 26" fill="none" xmlns="http://www.w3.org/2000/svg" xmlns:xlink="http://www.w3.org/1999/xlink">
<path d="M21.269,13.859L21.269,12.021C21.269,8.114 18.672,4.803 15.115,3.722L15.115,2.509C15.115,1.121 13.985,-0.008 12.597,-0.008C11.209,-0.008 10.079,1.121 10.079,2.509L10.079,3.722C6.521,4.803 3.925,8.114 3.925,12.021L3.925,13.859C3.925,17.291 2.617,20.545 0.242,23.021C0.009,23.264 -0.056,23.622 0.076,23.931C0.208,24.241 0.511,24.441 0.848,24.441L24.346,24.441C24.683,24.441 24.986,24.241 25.118,23.931C25.25,23.622 25.185,23.264 24.952,23.021C22.577,20.545 21.269,17.291 21.269,13.859ZM13.436,3.389C13.16,3.363 12.88,3.349 12.597,3.349C12.314,3.349 12.034,3.363 11.758,3.389L11.758,2.509C11.758,2.047 12.134,1.67 12.597,1.67C13.06,1.67 13.436,2.047 13.436,2.509L13.436,3.389Z" fill="#E4E4E3"/>
<path d="M23.507,12.021C23.507,12.484 23.883,12.86 24.346,12.86C24.81,12.86 25.185,12.484 25.185,12.021C25.185,8.658 23.876,5.497 21.498,3.119C21.171,2.792 20.639,2.792 20.311,3.119C19.984,3.447 19.984,3.978 20.311,4.306C22.372,6.367 23.507,9.107 23.507,12.021Z" fill="#E4E4E3"/>
<path d="M0.848,12.86C1.311,12.86 1.687,12.484 1.687,12.021C1.687,9.107 2.822,6.367 4.882,4.306C5.21,3.978 5.21,3.447 4.882,3.119C4.555,2.792 4.023,2.792 3.695,3.119C1.318,5.497 0.008,8.658 0.008,12.021C0.008,12.484 0.384,12.86 0.848,12.86Z" fill="#E4E4E3"/>
</svg>
