<svg width="28" height="28" viewBox="0 0 28 28" fill="none" xmlns="http://www.w3.org/2000/svg" xmlns:xlink="http://www.w3.org/1999/xlink">
<path d="M27.414,2.414C28.195,1.633 28.195,0.367 27.414,-0.414C26.633,-1.195 25.367,-1.195 24.586,-0.414L27.414,2.414ZM0.586,23.586C-0.195,24.367 -0.195,25.633 0.586,26.414C1.367,27.195 2.633,27.195 3.414,26.414L0.586,23.586ZM24.586,-0.414L0.586,23.586L3.414,26.414L27.414,2.414L24.586,-0.414Z" fill="#E4E4E3"/>
<path d="M3.414,-0.414C2.633,-1.195 1.367,-1.195 0.586,-0.414C-0.195,0.367 -0.195,1.633 0.586,2.414L3.414,-0.414ZM24.586,26.414C25.367,27.195 26.633,27.195 27.414,26.414C28.195,25.633 28.195,24.367 27.414,23.586L24.586,26.414ZM0.586,2.414L24.586,26.414L27.414,23.586L3.414,-0.414L0.586,2.414Z" fill="#E4E4E3"/>
</svg>
