<svg width="28" height="28" viewBox="0 0 28 28" fill="none" xmlns="http://www.w3.org/2000/svg" xmlns:xlink="http://www.w3.org/1999/xlink">
<path d="M26.414,2.414C27.195,1.633 27.195,0.367 26.414,-0.414C25.633,-1.195 24.367,-1.195 23.586,-0.414L26.414,2.414ZM-0.414,23.586C-1.195,24.367 -1.195,25.633 -0.414,26.414C0.367,27.195 1.633,27.195 2.414,26.414L-0.414,23.586ZM23.586,-0.414L-0.414,23.586L2.414,26.414L26.414,2.414L23.586,-0.414Z" fill="#E4E4E3"/>
<path d="M2.414,-0.414C1.633,-1.195 0.367,-1.195 -0.414,-0.414C-1.195,0.367 -1.195,1.633 -0.414,2.414L2.414,-0.414ZM23.586,26.414C24.367,27.195 25.633,27.195 26.414,26.414C27.195,25.633 27.195,24.367 26.414,23.586L23.586,26.414ZM-0.414,2.414L23.586,26.414L26.414,23.586L2.414,-0.414L-0.414,2.414Z" fill="#E4E4E3"/>
</svg>
