<svg width="26" height="24" viewBox="0 0 26 24" fill="none" xmlns="http://www.w3.org/2000/svg" xmlns:xlink="http://www.w3.org/1999/xlink">
<path d="M12.586,20.586C11.805,21.367 11.805,22.633 12.586,23.414C13.367,24.195 14.633,24.195 15.414,23.414L12.586,20.586ZM24,12L25.414,13.414C26.195,12.633 26.195,11.367 25.414,10.586L24,12ZM15.414,0.586C14.633,-0.195 13.367,-0.195 12.586,0.586C11.805,1.367 11.805,2.633 12.586,3.414L15.414,0.586ZM15.414,23.414L25.414,13.414L22.586,10.586L12.586,20.586L15.414,23.414ZM25.414,10.586L15.414,0.586L12.586,3.414L22.586,13.414L25.414,10.586Z" fill="#E4E4E3"/>
<line x1="0" y1="10" x2="24" y2="10" stroke="#E4E4E3" stroke-width="2" stroke-miterlimit="3.999327" stroke-linecap="round" stroke-linejoin="round"/>
</svg>
