<svg width="26" height="26" viewBox="0 0 26 26" fill="none" xmlns="http://www.w3.org/2000/svg" xmlns:xlink="http://www.w3.org/1999/xlink">
<path d="M21.271,14.151L21.271,12.312C21.271,8.406 18.674,5.095 15.116,4.013L15.116,2.801C15.116,1.413 13.987,0.283 12.598,0.283C11.21,0.283 10.081,1.413 10.081,2.801L10.081,4.013C6.523,5.095 3.926,8.406 3.926,12.312L3.926,14.151C3.926,17.582 2.618,20.836 0.243,23.313C0.011,23.556 -0.055,23.914 0.077,24.223C0.209,24.532 0.513,24.733 0.849,24.733L24.348,24.733C24.684,24.733 24.988,24.532 25.12,24.223C25.252,23.914 25.186,23.556 24.954,23.313C22.579,20.836 21.271,17.582 21.271,14.151ZM13.438,3.681C13.161,3.654 12.882,3.64 12.598,3.64C12.315,3.64 12.035,3.654 11.759,3.681L11.759,2.801C11.759,2.338 12.136,1.962 12.598,1.962C13.061,1.962 13.438,2.338 13.438,2.801L13.438,3.681Z" fill="#E4E4E3"/>
<path d="M23.508,12.312C23.508,12.776 23.883,13.152 24.347,13.152C24.81,13.152 25.186,12.776 25.186,12.312C25.186,8.95 23.877,5.788 21.499,3.411C21.171,3.083 20.64,3.083 20.312,3.411C19.984,3.739 19.984,4.27 20.312,4.598C22.373,6.658 23.508,9.398 23.508,12.312Z" fill="#E4E4E3"/>
<path d="M0.849,13.152C1.312,13.152 1.688,12.776 1.688,12.312C1.688,9.398 2.823,6.658 4.884,4.598C5.211,4.27 5.211,3.739 4.884,3.411C4.556,3.083 4.025,3.083 3.697,3.411C1.319,5.789 0.01,8.95 0.01,12.312C0.01,12.776 0.386,13.152 0.849,13.152Z" fill="#E4E4E3"/>
</svg>
