<svg width="52" height="52" viewBox="0 0 52 52" fill="none" xmlns="http://www.w3.org/2000/svg" xmlns:xlink="http://www.w3.org/1999/xlink">
<path d="M1.155,6.265C2.471,4.949 4.256,4.21 6.117,4.21L22.491,4.21C23.783,4.21 24.83,5.257 24.83,6.549C24.83,7.841 23.783,8.888 22.491,8.888L6.117,8.888C5.497,8.888 4.902,9.135 4.463,9.573C4.024,10.012 3.778,10.607 3.778,11.227L3.778,43.975C3.778,44.595 4.024,45.19 4.463,45.629C4.902,46.068 5.497,46.314 6.117,46.314L38.865,46.314C39.485,46.314 40.08,46.068 40.519,45.629C40.957,45.19 41.204,44.595 41.204,43.975L41.204,27.601C41.204,26.309 42.251,25.262 43.543,25.262C44.835,25.262 45.882,26.309 45.882,27.601L45.882,43.975C45.882,45.836 45.143,47.621 43.827,48.937C42.511,50.253 40.726,50.992 38.865,50.992L6.117,50.992C4.256,50.992 2.471,50.253 1.155,48.937C-0.161,47.621 -0.9,45.836 -0.9,43.975L-0.9,11.227C-0.9,9.366 -0.161,7.581 1.155,6.265Z" clip-rule="evenodd" fill-rule="evenodd" fill="#E4E4E3"/>
<path d="M43.541,3.926C42.846,3.926 42.179,4.203 41.687,4.695L19.923,26.458L18.687,31.404L23.633,30.167L45.396,8.404C45.888,7.912 46.164,7.245 46.164,6.549C46.164,5.854 45.888,5.186 45.396,4.695C44.904,4.203 44.237,3.926 43.541,3.926ZM38.379,1.387C39.748,0.017 41.605,-0.752 43.541,-0.752C45.478,-0.752 47.335,0.017 48.704,1.387C50.073,2.756 50.843,4.613 50.843,6.549C50.843,8.486 50.073,10.343 48.704,11.712L26.482,33.933C26.183,34.233 25.807,34.446 25.396,34.549L16.039,36.888C15.242,37.087 14.399,36.854 13.818,36.273C13.237,35.692 13.003,34.848 13.203,34.051L15.542,24.695C15.645,24.284 15.857,23.908 16.157,23.608L38.379,1.387Z" clip-rule="evenodd" fill-rule="evenodd" fill="#E4E4E3"/>
</svg>
