<svg width="30" height="32" viewBox="0 0 30 32" fill="none" xmlns="http://www.w3.org/2000/svg" xmlns:xlink="http://www.w3.org/1999/xlink">
<path d="M0.232,4.099C0.994,3.337 2.029,2.908 3.107,2.908L12.594,2.908C13.343,2.908 13.95,3.515 13.95,4.264C13.95,5.012 13.343,5.619 12.594,5.619L3.107,5.619C2.748,5.619 2.403,5.762 2.149,6.016C1.894,6.27 1.752,6.615 1.752,6.974L1.752,25.949C1.752,26.308 1.894,26.653 2.149,26.907C2.403,27.161 2.748,27.304 3.107,27.304L22.081,27.304C22.441,27.304 22.786,27.161 23.04,26.907C23.294,26.653 23.437,26.308 23.437,25.949L23.437,16.461C23.437,15.713 24.044,15.106 24.792,15.106C25.541,15.106 26.147,15.713 26.147,16.461L26.147,25.949C26.147,27.027 25.719,28.061 24.957,28.824C24.194,29.586 23.16,30.015 22.081,30.015L3.107,30.015C2.029,30.015 0.994,29.586 0.232,28.824C-0.531,28.061 -0.959,27.027 -0.959,25.949L-0.959,6.974C-0.959,5.896 -0.531,4.862 0.232,4.099Z" clip-rule="evenodd" fill-rule="evenodd" fill="#E4E4E3"/>
<path d="M24.791,2.745C24.388,2.745 24.001,2.905 23.716,3.19L11.106,15.8L10.39,18.666L13.256,17.949L25.866,5.339C26.151,5.054 26.311,4.668 26.311,4.265C26.311,3.862 26.151,3.475 25.866,3.19C25.581,2.905 25.194,2.745 24.791,2.745ZM21.8,1.273C22.593,0.48 23.669,0.034 24.791,0.034C25.913,0.034 26.989,0.48 27.782,1.273C28.576,2.067 29.021,3.143 29.021,4.265C29.021,5.387 28.576,6.463 27.782,7.256L14.907,20.131C14.733,20.305 14.516,20.428 14.277,20.488L8.856,21.843C8.394,21.959 7.906,21.823 7.569,21.487C7.232,21.15 7.097,20.662 7.212,20.2L8.568,14.778C8.627,14.54 8.75,14.322 8.924,14.149L21.8,1.273Z" clip-rule="evenodd" fill-rule="evenodd" fill="#E4E4E3"/>
</svg>
