<svg width="52" height="54" viewBox="0 0 52 54" fill="none" xmlns="http://www.w3.org/2000/svg" xmlns:xlink="http://www.w3.org/1999/xlink">
<path d="M1.155,7.403C2.471,6.087 4.256,5.348 6.117,5.348L22.491,5.348C23.783,5.348 24.83,6.395 24.83,7.687C24.83,8.979 23.783,10.026 22.491,10.026L6.117,10.026C5.497,10.026 4.902,10.272 4.463,10.711C4.024,11.15 3.778,11.745 3.778,12.365L3.778,45.113C3.778,45.733 4.024,46.328 4.463,46.767C4.902,47.205 5.497,47.452 6.117,47.452L38.865,47.452C39.485,47.452 40.08,47.205 40.519,46.767C40.957,46.328 41.204,45.733 41.204,45.113L41.204,28.739C41.204,27.447 42.251,26.4 43.543,26.4C44.835,26.4 45.882,27.447 45.882,28.739L45.882,45.113C45.882,46.974 45.143,48.759 43.827,50.075C42.511,51.391 40.726,52.13 38.865,52.13L6.117,52.13C4.256,52.13 2.471,51.391 1.155,50.075C-0.161,48.759 -0.9,46.974 -0.9,45.113L-0.9,12.365C-0.9,10.504 -0.161,8.719 1.155,7.403Z" clip-rule="evenodd" fill-rule="evenodd" fill="#E4E4E3"/>
<path d="M43.541,5.065C42.846,5.065 42.179,5.341 41.687,5.833L19.923,27.597L18.687,32.543L23.633,31.306L45.396,9.543C45.888,9.051 46.164,8.383 46.164,7.688C46.164,6.992 45.888,6.325 45.396,5.833C44.904,5.341 44.237,5.065 43.541,5.065ZM38.379,2.525C39.748,1.156 41.605,0.387 43.541,0.387C45.478,0.387 47.335,1.156 48.704,2.525C50.073,3.894 50.843,5.751 50.843,7.688C50.843,9.624 50.073,11.481 48.704,12.851L26.482,35.072C26.183,35.372 25.807,35.585 25.396,35.688L16.039,38.027C15.242,38.226 14.399,37.992 13.818,37.411C13.237,36.83 13.003,35.987 13.203,35.19L15.542,25.834C15.645,25.422 15.857,25.047 16.157,24.747L38.379,2.525Z" clip-rule="evenodd" fill-rule="evenodd" fill="#E4E4E3"/>
</svg>
