<svg width="34" height="34" viewBox="0 0 34 34" fill="none" xmlns="http://www.w3.org/2000/svg" xmlns:xlink="http://www.w3.org/1999/xlink">
<path d="M28.029,18.184L28.029,15.735C28.029,10.53 24.57,6.119 19.829,4.678L19.829,3.062C19.829,1.213 18.325,-0.292 16.475,-0.292C14.625,-0.292 13.121,1.213 13.121,3.062L13.121,4.678C8.38,6.119 4.921,10.53 4.921,15.735L4.921,18.184C4.921,22.756 3.178,27.091 0.014,30.391C-0.296,30.715 -0.383,31.192 -0.208,31.604C-0.032,32.016 0.373,32.283 0.821,32.283L32.129,32.283C32.577,32.283 32.982,32.016 33.158,31.604C33.333,31.192 33.246,30.715 32.936,30.391C29.772,27.091 28.029,22.756 28.029,18.184ZM17.593,4.235C17.225,4.199 16.852,4.181 16.475,4.181C16.098,4.181 15.725,4.199 15.357,4.235L15.357,3.062C15.357,2.446 15.858,1.944 16.475,1.944C17.092,1.944 17.593,2.446 17.593,3.062L17.593,4.235Z" fill="#E4E4E3"/>
<path d="M31.011,15.734C31.011,16.352 31.512,16.852 32.129,16.852C32.747,16.852 33.248,16.352 33.248,15.734C33.248,11.254 31.503,7.042 28.335,3.874C27.898,3.438 27.19,3.438 26.754,3.874C26.317,4.311 26.317,5.019 26.754,5.456C29.499,8.201 31.011,11.851 31.011,15.734Z" fill="#E4E4E3"/>
<path d="M0.821,16.852C1.438,16.852 1.939,16.352 1.939,15.734C1.939,11.851 3.451,8.201 6.196,5.456C6.633,5.019 6.633,4.311 6.196,3.874C5.76,3.438 5.052,3.438 4.615,3.874C1.447,7.042 -0.297,11.254 -0.297,15.734C-0.297,16.352 0.203,16.852 0.821,16.852Z" fill="#E4E4E3"/>
</svg>
