<svg width="26" height="26" viewBox="0 0 26 26" fill="none" xmlns="http://www.w3.org/2000/svg" xmlns:xlink="http://www.w3.org/1999/xlink">
<path d="M21.378,14.065L21.378,12.226C21.378,8.32 18.781,5.009 15.223,3.927L15.223,2.715C15.223,1.327 14.094,0.197 12.706,0.197C11.317,0.197 10.188,1.327 10.188,2.715L10.188,3.927C6.63,5.009 4.033,8.32 4.033,12.226L4.033,14.065C4.033,17.496 2.725,20.75 0.35,23.227C0.118,23.47 0.052,23.828 0.184,24.137C0.316,24.446 0.62,24.647 0.956,24.647L24.455,24.647C24.791,24.647 25.095,24.446 25.227,24.137C25.359,23.828 25.293,23.47 25.061,23.227C22.686,20.75 21.378,17.496 21.378,14.065ZM13.545,3.595C13.269,3.568 12.989,3.554 12.706,3.554C12.423,3.554 12.143,3.568 11.866,3.595L11.866,2.715C11.866,2.252 12.243,1.876 12.706,1.876C13.168,1.876 13.545,2.252 13.545,2.715L13.545,3.595Z" fill="#E4E4E3"/>
<path d="M23.616,12.226C23.616,12.69 23.991,13.066 24.455,13.066C24.918,13.066 25.294,12.69 25.294,12.226C25.294,8.864 23.985,5.703 21.607,3.325C21.279,2.997 20.748,2.997 20.42,3.325C20.092,3.653 20.092,4.184 20.42,4.512C22.481,6.572 23.616,9.312 23.616,12.226Z" fill="#E4E4E3"/>
<path d="M0.956,13.066C1.42,13.066 1.795,12.69 1.795,12.226C1.795,9.312 2.93,6.572 4.991,4.512C5.319,4.184 5.319,3.653 4.991,3.325C4.663,2.997 4.132,2.997 3.804,3.325C1.426,5.703 0.117,8.864 0.117,12.226C0.117,12.69 0.493,13.066 0.956,13.066Z" fill="#E4E4E3"/>
</svg>
