<svg width="52" height="52" viewBox="0 0 52 52" fill="none" xmlns="http://www.w3.org/2000/svg" xmlns:xlink="http://www.w3.org/1999/xlink">
<path d="M1.155,6.823C2.471,5.507 4.256,4.768 6.117,4.768L22.491,4.768C23.783,4.768 24.83,5.815 24.83,7.107C24.83,8.399 23.783,9.446 22.491,9.446L6.117,9.446C5.497,9.446 4.902,9.692 4.463,10.131C4.024,10.57 3.778,11.165 3.778,11.785L3.778,44.533C3.778,45.153 4.024,45.748 4.463,46.187C4.902,46.625 5.497,46.872 6.117,46.872L38.865,46.872C39.485,46.872 40.08,46.625 40.519,46.187C40.957,45.748 41.204,45.153 41.204,44.533L41.204,28.159C41.204,26.867 42.251,25.82 43.543,25.82C44.835,25.82 45.882,26.867 45.882,28.159L45.882,44.533C45.882,46.394 45.143,48.179 43.827,49.495C42.511,50.811 40.726,51.55 38.865,51.55L6.117,51.55C4.256,51.55 2.471,50.811 1.155,49.495C-0.161,48.179 -0.9,46.394 -0.9,44.533L-0.9,11.785C-0.9,9.924 -0.161,8.139 1.155,6.823Z" clip-rule="evenodd" fill-rule="evenodd" fill="#E4E4E3"/>
<path d="M43.541,4.485C42.846,4.485 42.179,4.761 41.687,5.253L19.923,27.017L18.687,31.962L23.633,30.726L45.396,8.962C45.888,8.471 46.164,7.803 46.164,7.108C46.164,6.412 45.888,5.745 45.396,5.253C44.904,4.761 44.237,4.485 43.541,4.485ZM38.379,1.945C39.748,0.576 41.605,-0.193 43.541,-0.193C45.478,-0.193 47.335,0.576 48.704,1.945C50.073,3.314 50.843,5.171 50.843,7.108C50.843,9.044 50.073,10.901 48.704,12.27L26.482,34.492C26.183,34.792 25.807,35.005 25.396,35.107L16.039,37.446C15.242,37.646 14.399,37.412 13.818,36.831C13.237,36.25 13.003,35.407 13.203,34.61L15.542,25.253C15.645,24.842 15.857,24.466 16.157,24.167L38.379,1.945Z" clip-rule="evenodd" fill-rule="evenodd" fill="#E4E4E3"/>
</svg>
