<svg width="26" height="26" viewBox="0 0 26 26" fill="none" xmlns="http://www.w3.org/2000/svg" xmlns:xlink="http://www.w3.org/1999/xlink">
<path d="M21.377,14.378L21.377,12.54C21.377,8.633 18.781,5.322 15.223,4.241L15.223,3.028C15.223,1.64 14.094,0.511 12.705,0.511C11.317,0.511 10.188,1.64 10.188,3.028L10.188,4.241C6.63,5.322 4.033,8.633 4.033,12.54L4.033,14.378C4.033,17.81 2.725,21.064 0.35,23.541C0.117,23.783 0.052,24.141 0.184,24.451C0.316,24.76 0.62,24.961 0.956,24.961L24.455,24.961C24.791,24.961 25.095,24.76 25.227,24.451C25.358,24.141 25.293,23.783 25.06,23.541C22.685,21.064 21.377,17.81 21.377,14.378ZM13.545,3.908C13.268,3.882 12.988,3.868 12.705,3.868C12.422,3.868 12.142,3.882 11.866,3.908L11.866,3.028C11.866,2.566 12.243,2.189 12.705,2.189C13.168,2.189 13.545,2.566 13.545,3.028L13.545,3.908Z" fill="#E4E4E3"/>
<path d="M23.616,12.54C23.616,13.003 23.991,13.379 24.455,13.379C24.918,13.379 25.294,13.003 25.294,12.54C25.294,9.177 23.985,6.016 21.607,3.638C21.279,3.311 20.748,3.311 20.42,3.638C20.092,3.966 20.092,4.497 20.42,4.825C22.481,6.886 23.616,9.626 23.616,12.54Z" fill="#E4E4E3"/>
<path d="M0.956,13.379C1.419,13.379 1.795,13.003 1.795,12.54C1.795,9.626 2.93,6.886 4.991,4.825C5.318,4.497 5.318,3.966 4.991,3.638C4.663,3.311 4.132,3.311 3.804,3.638C1.426,6.016 0.117,9.177 0.117,12.54C0.117,13.003 0.492,13.379 0.956,13.379Z" fill="#E4E4E3"/>
</svg>
