<svg width="36" height="34" viewBox="0 0 36 34" fill="none" xmlns="http://www.w3.org/2000/svg" xmlns:xlink="http://www.w3.org/1999/xlink">
<path d="M29.03,18.492L29.03,16.042C29.03,10.838 25.57,6.426 20.83,4.985L20.83,3.37C20.83,1.52 19.325,0.016 17.475,0.016C15.626,0.016 14.121,1.52 14.121,3.37L14.121,4.985C9.381,6.426 5.921,10.838 5.921,16.042L5.921,18.492C5.921,23.064 4.179,27.399 1.014,30.699C0.704,31.022 0.617,31.5 0.793,31.912C0.969,32.324 1.373,32.591 1.821,32.591L33.13,32.591C33.578,32.591 33.982,32.324 34.158,31.912C34.334,31.5 34.247,31.022 33.937,30.699C30.772,27.399 29.03,23.064 29.03,18.492ZM18.594,4.542C18.226,4.507 17.853,4.488 17.475,4.488C17.098,4.488 16.725,4.507 16.357,4.542L16.357,3.37C16.357,2.754 16.859,2.252 17.475,2.252C18.092,2.252 18.594,2.754 18.594,3.37L18.594,4.542Z" fill="#E4E4E3"/>
<path d="M32.015,16.042C32.015,16.659 32.515,17.16 33.133,17.16C33.75,17.16 34.251,16.659 34.251,16.042C34.251,11.562 32.506,7.35 29.338,4.182C28.902,3.745 28.194,3.745 27.757,4.182C27.321,4.619 27.321,5.327 27.757,5.763C30.503,8.509 32.015,12.159 32.015,16.042Z" fill="#E4E4E3"/>
<path d="M1.821,17.16C2.439,17.16 2.939,16.659 2.939,16.042C2.939,12.159 4.451,8.509 7.197,5.763C7.634,5.327 7.634,4.619 7.197,4.182C6.76,3.745 6.052,3.745 5.616,4.182C2.448,7.35 0.703,11.562 0.703,16.042C0.703,16.659 1.204,17.16 1.821,17.16Z" fill="#E4E4E3"/>
</svg>
