<svg width="34" height="32" viewBox="0 0 34 32" fill="none" xmlns="http://www.w3.org/2000/svg" xmlns:xlink="http://www.w3.org/1999/xlink">
<path d="M28.027,17.719L28.027,15.269C28.027,10.064 24.567,5.653 19.827,4.212L19.827,2.597C19.827,0.747 18.322,-0.758 16.473,-0.758C14.623,-0.758 13.118,0.747 13.118,2.597L13.118,4.212C8.378,5.653 4.918,10.064 4.918,15.269L4.918,17.719C4.918,22.291 3.176,26.626 0.011,29.926C-0.299,30.249 -0.386,30.726 -0.21,31.138C-0.034,31.55 0.37,31.818 0.818,31.818L32.127,31.818C32.575,31.818 32.979,31.55 33.155,31.138C33.331,30.726 33.244,30.249 32.934,29.926C29.769,26.626 28.027,22.29 28.027,17.719ZM17.591,3.769C17.223,3.734 16.85,3.715 16.473,3.715C16.095,3.715 15.722,3.734 15.354,3.769L15.354,2.597C15.354,1.98 15.856,1.478 16.473,1.478C17.089,1.478 17.591,1.98 17.591,2.597L17.591,3.769Z" fill="#E4E4E3"/>
<path d="M31.009,15.265C31.009,15.883 31.51,16.384 32.127,16.384C32.745,16.384 33.245,15.883 33.245,15.265C33.245,10.785 31.501,6.573 28.333,3.406C27.896,2.969 27.188,2.969 26.752,3.406C26.315,3.842 26.315,4.55 26.752,4.987C29.497,7.732 31.009,11.383 31.009,15.265Z" fill="#E4E4E3"/>
<path d="M0.818,16.384C1.436,16.384 1.936,15.883 1.936,15.265C1.936,11.383 3.449,7.732 6.194,4.987C6.631,4.55 6.631,3.842 6.194,3.406C5.757,2.969 5.049,2.969 4.613,3.406C1.445,6.574 -0.3,10.785 -0.3,15.265C-0.3,15.883 0.201,16.384 0.818,16.384Z" fill="#E4E4E3"/>
</svg>
