<svg width="36" height="34" viewBox="0 0 36 34" fill="none" xmlns="http://www.w3.org/2000/svg" xmlns:xlink="http://www.w3.org/1999/xlink">
<path d="M29.027,18.183L29.027,15.734C29.027,10.529 25.568,6.118 20.827,4.677L20.827,3.061C20.827,1.212 19.323,-0.293 17.473,-0.293C15.623,-0.293 14.119,1.212 14.119,3.061L14.119,4.677C9.378,6.118 5.919,10.529 5.919,15.734L5.919,18.183C5.919,22.755 4.176,27.09 1.012,30.39C0.702,30.714 0.615,31.191 0.79,31.603C0.966,32.015 1.371,32.282 1.819,32.282L33.127,32.282C33.575,32.282 33.98,32.015 34.156,31.603C34.331,31.191 34.244,30.714 33.934,30.39C30.77,27.09 29.027,22.755 29.027,18.183ZM18.591,4.234C18.223,4.198 17.85,4.18 17.473,4.18C17.096,4.18 16.723,4.198 16.355,4.234L16.355,3.061C16.355,2.445 16.856,1.943 17.473,1.943C18.09,1.943 18.591,2.445 18.591,3.061L18.591,4.234Z" fill="#E4E4E3"/>
<path d="M32.009,15.734C32.009,16.352 32.51,16.852 33.127,16.852C33.745,16.852 34.246,16.352 34.246,15.734C34.246,11.254 32.501,7.042 29.333,3.874C28.897,3.438 28.188,3.438 27.752,3.874C27.315,4.311 27.315,5.019 27.752,5.456C30.497,8.201 32.009,11.851 32.009,15.734Z" fill="#E4E4E3"/>
<path d="M1.819,16.852C2.436,16.852 2.937,16.352 2.937,15.734C2.937,11.851 4.449,8.201 7.194,5.456C7.631,5.019 7.631,4.311 7.194,3.874C6.758,3.438 6.05,3.438 5.613,3.874C2.445,7.042 0.701,11.254 0.701,15.734C0.701,16.352 1.201,16.852 1.819,16.852Z" fill="#E4E4E3"/>
</svg>
