<svg width="44" height="30" viewBox="0 0 44 30" fill="none" xmlns="http://www.w3.org/2000/svg" xmlns:xlink="http://www.w3.org/1999/xlink">
<path d="M8.664,9.433C7.007,9.433 5.664,10.776 5.664,12.433C5.664,14.089 7.007,15.433 8.664,15.433L8.664,9.433ZM15.92,12.81L13.478,14.554L15.92,12.81ZM19.191,20.275L16.353,21.248L16.353,21.248L19.191,20.275ZM20.218,24.28L23.112,23.491L20.218,24.28ZM13.382,24.867L14.414,22.05L14.414,22.05L13.382,24.867ZM6.945,22.267L5.573,24.935L5.573,24.935L6.945,22.267ZM4.051,20.736L4.167,17.738L4.051,20.736ZM3.108,18.618L5.979,19.488L3.108,18.618ZM11.083,10.777C12.462,9.858 12.834,7.995 11.915,6.617C10.996,5.238 9.134,4.866 7.755,5.785L11.083,10.777ZM8.664,15.433C9.416,15.433 10.269,15.296 10.881,15.198C11.595,15.084 12.203,14.982 12.789,14.927C13.389,14.87 13.738,14.89 13.906,14.924C14.044,14.953 13.741,14.921 13.478,14.554L18.361,11.066C17.449,9.79 16.149,9.257 15.099,9.044C14.078,8.837 13.046,8.876 12.229,8.953C11.399,9.031 10.554,9.175 9.934,9.274C9.213,9.389 8.851,9.433 8.664,9.433L8.664,15.433ZM13.478,14.554C14.682,16.239 15.456,18.631 16.353,21.248L22.029,19.302C21.257,17.052 20.197,13.637 18.361,11.066L13.478,14.554ZM16.353,21.248C16.53,21.764 16.667,22.306 16.815,22.948C16.954,23.551 17.12,24.32 17.324,25.069L23.112,23.491C22.949,22.893 22.83,22.328 22.662,21.599C22.503,20.91 22.31,20.122 22.029,19.302L16.353,21.248ZM17.324,25.069C17.368,25.231 17.416,25.355 17.437,25.407C17.463,25.471 17.486,25.525 17.503,25.561C17.535,25.633 17.567,25.697 17.589,25.74C17.634,25.83 17.686,25.926 17.73,26.009C17.776,26.095 17.828,26.191 17.878,26.281C17.928,26.375 17.978,26.466 18.027,26.556C18.13,26.748 18.2,26.883 18.235,26.957C18.259,27.007 18.232,26.956 18.195,26.851C18.182,26.815 18.117,26.633 18.076,26.378C18.057,26.256 18.019,25.979 18.055,25.624C18.086,25.319 18.214,24.516 18.915,23.815L23.157,28.058C23.862,27.353 23.993,26.543 24.025,26.227C24.062,25.863 24.024,25.574 24.002,25.437C23.957,25.153 23.88,24.932 23.851,24.85C23.781,24.652 23.699,24.475 23.652,24.377C23.547,24.157 23.415,23.908 23.31,23.713C23.254,23.609 23.198,23.505 23.148,23.413C23.096,23.318 23.052,23.238 23.014,23.167C22.975,23.094 22.954,23.054 22.946,23.037C22.941,23.028 22.95,23.046 22.966,23.081C22.974,23.099 22.991,23.136 23.011,23.187C23.026,23.225 23.071,23.338 23.112,23.491L17.324,25.069ZM18.915,23.815C19.282,23.447 19.638,23.355 19.694,23.342C19.762,23.325 19.725,23.343 19.535,23.34C19.149,23.334 18.568,23.251 17.84,23.086C16.412,22.763 14.947,22.245 14.414,22.05L12.351,27.684C12.946,27.902 14.701,28.527 16.513,28.938C17.406,29.14 18.45,29.324 19.438,29.34C19.934,29.348 20.52,29.316 21.115,29.171C21.699,29.029 22.486,28.729 23.157,28.058L18.915,23.815ZM14.414,22.05C12.141,21.218 10.162,20.548 8.317,19.599L5.573,24.935C7.84,26.101 10.289,26.929 12.351,27.684L14.414,22.05ZM8.317,19.599C8.324,19.603 8.301,19.591 8.237,19.551C8.175,19.511 8.098,19.46 7.993,19.388C7.819,19.268 7.494,19.038 7.201,18.848C6.893,18.647 6.485,18.399 6.021,18.193C5.567,17.99 4.925,17.768 4.167,17.738L3.936,23.734C3.664,23.724 3.528,23.65 3.583,23.675C3.629,23.695 3.735,23.751 3.929,23.877C4.139,24.014 4.305,24.134 4.596,24.333C4.83,24.494 5.188,24.737 5.573,24.935L8.317,19.599ZM4.167,17.738C3.975,17.731 3.858,17.724 3.785,17.717C3.702,17.71 3.748,17.709 3.858,17.737C3.961,17.763 4.281,17.853 4.641,18.116C5.056,18.419 5.391,18.855 5.571,19.371C5.73,19.822 5.717,20.185 5.708,20.316C5.698,20.452 5.678,20.515 5.695,20.445C5.737,20.273 5.809,20.047 5.979,19.488L0.237,17.748C0.119,18.137 -0.042,18.642 -0.137,19.034C-0.199,19.291 -0.464,20.291 -0.09,21.357C0.44,22.869 1.73,23.387 2.385,23.553C2.951,23.696 3.568,23.72 3.936,23.734L4.167,17.738ZM5.979,19.488C7.108,15.763 8.686,12.375 11.083,10.777L7.755,5.785C3.437,8.663 1.381,13.97 0.237,17.748L5.979,19.488Z" fill="#F51D1D"/>
<path d="M14.723,24.511C14.723,26.168 16.066,27.511 17.723,27.511C19.379,27.511 20.723,26.168 20.723,24.511L14.723,24.511ZM20.029,20.59L17.643,18.771L17.643,18.771L20.029,20.59ZM32.296,6.142L30.198,3.997L30.198,3.997L32.296,6.142ZM39.237,5.242C40.893,5.242 42.237,3.899 42.237,2.242C42.237,0.585 40.893,-0.758 39.237,-0.758L39.237,5.242ZM20.723,24.511C20.723,24.664 20.646,24.607 20.966,24.168C21.119,23.958 21.307,23.734 21.567,23.431C21.799,23.161 22.125,22.788 22.415,22.409L17.643,18.771C17.487,18.976 17.302,19.189 17.018,19.519C16.762,19.817 16.429,20.207 16.117,20.634C15.507,21.472 14.723,22.791 14.723,24.511L20.723,24.511ZM22.415,22.409C26.315,17.293 29.959,12.623 34.393,8.287L30.198,3.997C25.419,8.671 21.541,13.658 17.643,18.771L22.415,22.409ZM34.393,8.287C34.747,7.941 35.067,7.619 35.352,7.333C35.642,7.04 35.885,6.795 36.114,6.572C36.578,6.12 36.879,5.864 37.133,5.693C37.474,5.464 37.907,5.242 39.237,5.242L39.237,-0.758C37.049,-0.758 35.359,-0.346 33.781,0.717C32.52,1.566 31.296,2.924 30.198,3.997L34.393,8.287Z" fill="#F51D1D"/>
</svg>
