<svg width="36" height="34" viewBox="0 0 36 34" fill="none" xmlns="http://www.w3.org/2000/svg" xmlns:xlink="http://www.w3.org/1999/xlink">
<path d="M29.027,19.26L29.027,16.81C29.027,11.605 25.568,7.194 20.827,5.753L20.827,4.138C20.827,2.288 19.323,0.783 17.473,0.783C15.623,0.783 14.119,2.288 14.119,4.138L14.119,5.753C9.378,7.194 5.919,11.605 5.919,16.81L5.919,19.26C5.919,23.832 4.176,28.167 1.012,31.467C0.702,31.79 0.615,32.267 0.79,32.679C0.966,33.091 1.371,33.359 1.819,33.359L33.127,33.359C33.575,33.359 33.98,33.091 34.156,32.679C34.331,32.267 34.244,31.79 33.934,31.467C30.77,28.167 29.027,23.831 29.027,19.26ZM18.591,5.31C18.223,5.275 17.85,5.256 17.473,5.256C17.096,5.256 16.723,5.275 16.355,5.31L16.355,4.138C16.355,3.521 16.856,3.02 17.473,3.02C18.09,3.02 18.591,3.521 18.591,4.138L18.591,5.31Z" fill="#E4E4E3"/>
<path d="M32.009,16.809C32.009,17.427 32.51,17.928 33.127,17.928C33.745,17.928 34.246,17.427 34.246,16.809C34.246,12.329 32.501,8.117 29.333,4.95C28.897,4.513 28.188,4.513 27.752,4.95C27.315,5.386 27.315,6.094 27.752,6.531C30.497,9.276 32.009,12.927 32.009,16.809Z" fill="#E4E4E3"/>
<path d="M1.819,17.927C2.436,17.927 2.937,17.427 2.937,16.809C2.937,12.927 4.449,9.276 7.194,6.531C7.631,6.094 7.631,5.386 7.194,4.95C6.758,4.513 6.05,4.513 5.613,4.95C2.445,8.117 0.701,12.329 0.701,16.809C0.701,17.427 1.201,17.927 1.819,17.927Z" fill="#E4E4E3"/>
</svg>
