<svg width="36" height="34" viewBox="0 0 36 34" fill="none" xmlns="http://www.w3.org/2000/svg" xmlns:xlink="http://www.w3.org/1999/xlink">
<path d="M29.03,18.185L29.03,15.736C29.03,10.531 25.57,6.12 20.83,4.679L20.83,3.063C20.83,1.214 19.325,-0.291 17.475,-0.291C15.626,-0.291 14.121,1.214 14.121,3.063L14.121,4.679C9.381,6.12 5.921,10.531 5.921,15.736L5.921,18.185C5.921,22.757 4.179,27.092 1.014,30.392C0.704,30.716 0.617,31.193 0.793,31.605C0.969,32.017 1.373,32.284 1.821,32.284L33.13,32.284C33.578,32.284 33.982,32.017 34.158,31.605C34.334,31.193 34.247,30.716 33.937,30.392C30.772,27.092 29.03,22.757 29.03,18.185ZM18.594,4.236C18.226,4.2 17.853,4.182 17.475,4.182C17.098,4.182 16.725,4.2 16.357,4.236L16.357,3.063C16.357,2.447 16.859,1.945 17.475,1.945C18.092,1.945 18.594,2.447 18.594,3.063L18.594,4.236Z" fill="#E4E4E3"/>
<path d="M32.015,15.735C32.015,16.353 32.515,16.853 33.133,16.853C33.75,16.853 34.251,16.353 34.251,15.735C34.251,11.255 32.506,7.043 29.338,3.875C28.902,3.439 28.194,3.439 27.757,3.875C27.321,4.312 27.321,5.02 27.757,5.457C30.503,8.202 32.015,11.852 32.015,15.735Z" fill="#E4E4E3"/>
<path d="M1.821,16.853C2.439,16.853 2.939,16.353 2.939,15.735C2.939,11.852 4.451,8.202 7.197,5.457C7.634,5.02 7.634,4.312 7.197,3.875C6.76,3.439 6.052,3.439 5.616,3.875C2.448,7.043 0.703,11.255 0.703,15.735C0.703,16.353 1.204,16.853 1.821,16.853Z" fill="#E4E4E3"/>
</svg>
