<svg width="36" height="46" viewBox="0 0 36 46" fill="none" xmlns="http://www.w3.org/2000/svg" xmlns:xlink="http://www.w3.org/1999/xlink">
<path d="M26.991,14.278C26.991,16.503 27.011,18.732 26.991,20.957C26.942,25.689 23.084,29.289 18.049,29.314C13.023,29.34 9.067,25.737 9.03,21.031C8.994,16.532 8.986,12.031 9.03,7.533C9.071,2.903 12.978,-0.656 17.96,-0.685C22.982,-0.715 26.922,2.892 26.983,7.598C27.011,9.824 26.987,12.053 26.987,14.278L26.991,14.278Z" fill="#E4E4E3"/>
<path d="M20.348,37.62L20.348,40.822C21.724,40.822 23.071,40.81 24.418,40.822C26.311,40.842 27.34,41.638 27.348,43.052C27.353,44.47 26.319,45.294 24.439,45.302C20.124,45.318 15.804,45.318 11.489,45.302C9.617,45.294 8.584,44.458 8.601,43.036C8.618,41.622 9.647,40.846 11.548,40.818C12.759,40.802 13.97,40.802 15.182,40.786C15.275,40.786 15.368,40.721 15.554,40.649L15.554,37.648C14.932,37.503 14.284,37.354 13.636,37.206C6.517,35.566 1.101,29.391 0.732,22.443C0.648,20.848 0.656,19.245 0.703,17.646C0.741,16.288 1.66,15.38 2.892,15.335C4.163,15.291 5.166,16.252 5.226,17.666C5.289,19.165 5.17,20.675 5.323,22.162C6.051,29.17 11.468,33.577 18.925,33.312C25.477,33.079 30.588,27.779 30.694,21.097C30.715,19.848 30.664,18.594 30.74,17.348C30.817,16.107 31.689,15.408 32.904,15.368C34.124,15.327 35.081,15.982 35.191,17.212C35.763,23.56 34.67,29.383 29.224,33.802C26.675,35.868 23.719,37.037 20.34,37.616L20.348,37.62Z" fill="#E4E4E3"/>
</svg>
