<svg width="46" height="40" viewBox="0 0 46 40" fill="none" xmlns="http://www.w3.org/2000/svg" xmlns:xlink="http://www.w3.org/1999/xlink">
<path d="M18.58,3.72L16.87,2.683L16.864,2.692L18.58,3.72ZM1.64,32L-0.076,30.972C-0.081,30.982 -0.087,30.991 -0.092,31L1.64,32ZM5.06,38L5.038,40L5.06,40L5.06,38ZM38.94,38L38.94,40L38.962,40L38.94,38ZM42.36,32L44.092,31C44.087,30.991 44.081,30.982 44.076,30.972L42.36,32ZM25.42,3.72L27.136,2.692L27.13,2.683L25.42,3.72ZM22,1.795L22,-0.205L22,1.795ZM16.864,2.692L-0.076,30.972L3.356,33.028L20.296,4.748L16.864,2.692ZM-0.092,31C-0.616,31.907 -0.893,32.936 -0.896,33.984L3.104,33.995C3.105,33.646 3.197,33.303 3.372,33L-0.092,31ZM-0.896,33.984C-0.899,35.031 -0.627,36.061 -0.109,36.972L3.366,34.991C3.194,34.687 3.103,34.344 3.104,33.995L-0.896,33.984ZM-0.109,36.972C0.41,37.882 1.158,38.64 2.061,39.172L4.09,35.724C3.789,35.547 3.539,35.294 3.366,34.991L-0.109,36.972ZM2.061,39.172C2.964,39.703 3.99,39.988 5.038,40L5.082,36C4.733,35.996 4.391,35.901 4.09,35.724L2.061,39.172ZM5.06,40L38.94,40L38.94,36L5.06,36L5.06,40ZM38.962,40C40.01,39.988 41.036,39.703 41.939,39.172L39.91,35.724C39.609,35.901 39.267,35.996 38.918,36L38.962,40ZM41.939,39.172C42.842,38.64 43.59,37.882 44.109,36.972L40.634,34.991C40.461,35.294 40.211,35.547 39.91,35.724L41.939,39.172ZM44.109,36.972C44.628,36.061 44.899,35.031 44.896,33.984L40.896,33.995C40.897,34.344 40.807,34.687 40.634,34.991L44.109,36.972ZM44.896,33.984C44.893,32.936 44.616,31.907 44.092,31L40.628,33C40.803,33.303 40.895,33.646 40.896,33.995L44.896,33.984ZM44.076,30.972L27.136,2.692L23.704,4.748L40.644,33.028L44.076,30.972ZM27.13,2.683C26.595,1.801 25.842,1.072 24.944,0.566L22.981,4.052C23.281,4.22 23.532,4.463 23.71,4.757L27.13,2.683ZM24.944,0.566C24.045,0.06 23.031,-0.205 22,-0.205L22,3.795C22.344,3.795 22.682,3.883 22.981,4.052L24.944,0.566ZM22,-0.205C20.969,-0.205 19.955,0.06 19.056,0.566L21.019,4.052C21.318,3.883 21.656,3.795 22,3.795L22,-0.205ZM19.056,0.566C18.158,1.072 17.405,1.801 16.87,2.683L20.29,4.757C20.468,4.463 20.719,4.22 21.019,4.052L19.056,0.566Z" fill="#E4E4E3"/>
<line x1="20" y1="14" x2="20" y2="22" stroke="#E4E4E3" stroke-width="2" stroke-miterlimit="3.999327" stroke-linecap="round" stroke-linejoin="round"/>
</svg>
