<svg width="26" height="26" viewBox="0 0 26 26" fill="none" xmlns="http://www.w3.org/2000/svg" xmlns:xlink="http://www.w3.org/1999/xlink">
<path d="M21.269,14.519L21.269,12.68C21.269,8.774 18.672,5.463 15.115,4.382L15.115,3.169C15.115,1.781 13.985,0.651 12.597,0.651C11.209,0.651 10.079,1.781 10.079,3.169L10.079,4.382C6.521,5.463 3.925,8.774 3.925,12.68L3.925,14.519C3.925,17.951 2.617,21.204 0.242,23.681C0.009,23.924 -0.056,24.282 0.076,24.591C0.208,24.901 0.511,25.101 0.848,25.101L24.346,25.101C24.683,25.101 24.986,24.901 25.118,24.591C25.25,24.282 25.185,23.924 24.952,23.681C22.577,21.204 21.269,17.95 21.269,14.519ZM13.436,4.049C13.16,4.022 12.88,4.008 12.597,4.008C12.314,4.008 12.034,4.022 11.758,4.049L11.758,3.169C11.758,2.706 12.134,2.33 12.597,2.33C13.06,2.33 13.436,2.706 13.436,3.169L13.436,4.049Z" fill="#E4E4E3"/>
<path d="M23.507,12.681C23.507,13.144 23.883,13.52 24.346,13.52C24.81,13.52 25.185,13.144 25.185,12.681C25.185,9.318 23.876,6.157 21.498,3.779C21.171,3.451 20.639,3.451 20.311,3.779C19.984,4.107 19.984,4.638 20.311,4.966C22.372,7.027 23.507,9.766 23.507,12.681Z" fill="#E4E4E3"/>
<path d="M0.848,13.52C1.311,13.52 1.687,13.144 1.687,12.68C1.687,9.766 2.822,7.027 4.882,4.966C5.21,4.638 5.21,4.107 4.882,3.779C4.555,3.451 4.023,3.451 3.695,3.779C1.318,6.157 0.008,9.318 0.008,12.68C0.008,13.144 0.384,13.52 0.848,13.52Z" fill="#E4E4E3"/>
</svg>
