<svg width="36" height="34" viewBox="0 0 36 34" fill="none" xmlns="http://www.w3.org/2000/svg" xmlns:xlink="http://www.w3.org/1999/xlink">
<path d="M29.026,18.183L29.026,15.734C29.026,10.529 25.566,6.118 20.826,4.677L20.826,3.061C20.826,1.212 19.321,-0.293 17.472,-0.293C15.622,-0.293 14.117,1.212 14.117,3.061L14.117,4.677C9.377,6.118 5.917,10.529 5.917,15.734L5.917,18.183C5.917,22.755 4.175,27.09 1.01,30.39C0.7,30.714 0.613,31.191 0.789,31.603C0.965,32.015 1.369,32.282 1.817,32.282L33.126,32.282C33.574,32.282 33.978,32.015 34.154,31.603C34.33,31.191 34.243,30.714 33.933,30.39C30.768,27.09 29.026,22.755 29.026,18.183ZM18.59,4.234C18.222,4.198 17.849,4.18 17.472,4.18C17.094,4.18 16.721,4.198 16.353,4.234L16.353,3.061C16.353,2.445 16.855,1.943 17.472,1.943C18.088,1.943 18.59,2.445 18.59,3.061L18.59,4.234Z" fill="#E4E4E3"/>
<path d="M32.007,15.734C32.007,16.352 32.507,16.852 33.125,16.852C33.743,16.852 34.243,16.352 34.243,15.734C34.243,11.254 32.499,7.042 29.331,3.874C28.894,3.438 28.186,3.438 27.749,3.874C27.313,4.311 27.313,5.019 27.749,5.456C30.495,8.201 32.007,11.851 32.007,15.734Z" fill="#E4E4E3"/>
<path d="M1.817,16.852C2.435,16.852 2.936,16.352 2.936,15.734C2.936,11.851 4.448,8.201 7.193,5.456C7.63,5.019 7.63,4.311 7.193,3.874C6.756,3.438 6.048,3.438 5.612,3.874C2.444,7.042 0.699,11.254 0.699,15.734C0.699,16.352 1.2,16.852 1.817,16.852Z" fill="#E4E4E3"/>
</svg>
