<svg width="46" height="48" viewBox="0 0 46 48" fill="none" xmlns="http://www.w3.org/2000/svg" xmlns:xlink="http://www.w3.org/1999/xlink">
<path d="M33.364,15.767C33.364,18.214 33.355,26.199 33.334,28.646C33.302,31.96 29.133,30.845 29.133,30.845L14.568,16.352C14.568,16.352 14.575,11.016 14.6,8.349C14.642,3.258 18.724,-0.655 23.929,-0.687C29.176,-0.719 33.292,3.246 33.356,8.422C33.386,10.869 33.36,13.32 33.36,15.767L33.364,15.767Z" fill="#E4E4E3"/>
<path d="M26.348,39.618L26.348,42.82C27.725,42.82 29.071,42.808 30.418,42.82C32.311,42.84 33.34,43.636 33.349,45.05C33.353,46.469 32.319,47.292 30.439,47.3C26.124,47.316 21.804,47.316 17.489,47.3C15.617,47.292 14.584,46.456 14.601,45.034C14.618,43.62 15.647,42.844 17.548,42.816C18.759,42.8 19.971,42.8 21.182,42.784C21.275,42.784 21.368,42.72 21.554,42.647L21.554,39.646C20.932,39.501 20.284,39.353 19.636,39.204C12.517,37.564 7.101,31.389 6.732,24.441C6.648,22.846 6.656,21.243 6.703,19.644C6.741,18.286 7.66,17.378 8.892,17.333C10.163,17.289 11.166,18.25 11.226,19.664C11.289,21.163 11.17,22.674 11.323,24.16C12.051,31.168 17.468,35.576 24.925,35.31C31.477,35.077 36.588,29.777 36.694,23.095C36.715,21.846 36.664,20.592 36.741,19.347C36.817,18.105 37.689,17.406 38.905,17.366C40.124,17.325 41.081,17.98 41.191,19.21C41.763,25.558 40.671,31.381 35.225,35.801C32.675,37.866 29.719,39.035 26.34,39.614L26.348,39.618Z" fill="#E4E4E3"/>
<path d="M1.261,19.979C0.156,19.979 -0.739,20.875 -0.739,21.979C-0.739,23.084 0.156,23.979 1.261,23.979L1.261,19.979ZM42.744,23.979C43.849,23.979 44.744,23.084 44.744,21.979C44.744,20.875 43.849,19.979 42.744,19.979L42.744,23.979ZM1.261,23.979L42.744,23.979L42.744,19.979L1.261,19.979L1.261,23.979Z" transform="rotate(90 22.003 21.979)" fill="#E4E4E3"/>
</svg>
