<svg width="34" height="34" viewBox="0 0 34 34" fill="none" xmlns="http://www.w3.org/2000/svg" xmlns:xlink="http://www.w3.org/1999/xlink">
<path d="M32.575,4.83C33.49,3.915 33.49,2.433 32.575,1.519C31.661,0.605 30.179,0.605 29.265,1.519L32.575,4.83ZM1.171,29.613C0.256,30.527 0.256,32.009 1.171,32.924C2.085,33.838 3.567,33.838 4.482,32.924L1.171,29.613ZM29.265,1.519L1.171,29.613L4.482,32.924L32.575,4.83L29.265,1.519Z" fill="#E4E4E3"/>
<path d="M4.482,1.519C3.567,0.605 2.085,0.605 1.171,1.519C0.256,2.433 0.256,3.915 1.171,4.83L4.482,1.519ZM29.265,32.924C30.179,33.838 31.661,33.838 32.575,32.924C33.49,32.009 33.49,30.527 32.575,29.613L29.265,32.924ZM1.171,4.83L29.265,32.924L32.575,29.613L4.482,1.519L1.171,4.83Z" fill="#E4E4E3"/>
</svg>
