<svg width="36" height="34" viewBox="0 0 36 34" fill="none" xmlns="http://www.w3.org/2000/svg" xmlns:xlink="http://www.w3.org/1999/xlink">
<path d="M29.03,18.954L29.03,16.504C29.03,11.3 25.57,6.888 20.83,5.447L20.83,3.832C20.83,1.982 19.325,0.478 17.475,0.478C15.626,0.478 14.121,1.982 14.121,3.832L14.121,5.447C9.381,6.888 5.921,11.3 5.921,16.504L5.921,18.954C5.921,23.526 4.179,27.861 1.014,31.161C0.704,31.484 0.617,31.962 0.793,32.374C0.969,32.786 1.373,33.053 1.821,33.053L33.13,33.053C33.578,33.053 33.982,32.786 34.158,32.374C34.334,31.962 34.247,31.484 33.937,31.161C30.772,27.861 29.03,23.526 29.03,18.954ZM18.594,5.004C18.226,4.969 17.853,4.95 17.475,4.95C17.098,4.95 16.725,4.969 16.357,5.004L16.357,3.832C16.357,3.215 16.859,2.714 17.475,2.714C18.092,2.714 18.594,3.215 18.594,3.832L18.594,5.004Z" fill="#E4E4E3"/>
<path d="M32.015,16.504C32.015,17.121 32.515,17.622 33.133,17.622C33.75,17.622 34.251,17.121 34.251,16.504C34.251,12.024 32.506,7.812 29.338,4.644C28.902,4.207 28.194,4.207 27.757,4.644C27.321,5.081 27.321,5.788 27.757,6.225C30.503,8.971 32.015,12.621 32.015,16.504Z" fill="#E4E4E3"/>
<path d="M1.821,17.622C2.439,17.622 2.939,17.121 2.939,16.504C2.939,12.621 4.451,8.971 7.197,6.225C7.634,5.789 7.634,5.081 7.197,4.644C6.76,4.207 6.052,4.207 5.616,4.644C2.448,7.812 0.703,12.024 0.703,16.504C0.703,17.121 1.204,17.622 1.821,17.622Z" fill="#E4E4E3"/>
</svg>
