<svg width="26" height="24" viewBox="0 0 26 24" fill="none" xmlns="http://www.w3.org/2000/svg" xmlns:xlink="http://www.w3.org/1999/xlink">
<path d="M21.377,13.265L21.377,11.427C21.377,7.52 18.78,4.209 15.223,3.128L15.223,1.915C15.223,0.527 14.093,-0.603 12.705,-0.603C11.317,-0.603 10.187,0.527 10.187,1.915L10.187,3.128C6.629,4.209 4.033,7.52 4.033,11.427L4.033,13.265C4.033,16.697 2.725,19.95 0.35,22.427C0.117,22.67 0.052,23.028 0.184,23.337C0.315,23.647 0.619,23.847 0.956,23.847L24.454,23.847C24.79,23.847 25.094,23.647 25.226,23.337C25.358,23.028 25.293,22.67 25.06,22.427C22.685,19.95 21.377,16.697 21.377,13.265ZM13.544,2.795C13.268,2.769 12.988,2.754 12.705,2.754C12.422,2.754 12.142,2.769 11.866,2.795L11.866,1.915C11.866,1.452 12.242,1.076 12.705,1.076C13.168,1.076 13.544,1.452 13.544,1.915L13.544,2.795Z" fill="#E4E4E3"/>
<path d="M23.615,11.427C23.615,11.89 23.991,12.266 24.454,12.266C24.918,12.266 25.294,11.89 25.294,11.427C25.294,8.064 23.984,4.903 21.606,2.525C21.279,2.197 20.747,2.197 20.42,2.525C20.092,2.853 20.092,3.384 20.42,3.712C22.48,5.773 23.615,8.512 23.615,11.427Z" fill="#E4E4E3"/>
<path d="M0.955,12.266C1.419,12.266 1.795,11.89 1.795,11.427C1.795,8.512 2.93,5.773 4.99,3.712C5.318,3.384 5.318,2.853 4.99,2.525C4.662,2.197 4.131,2.197 3.803,2.525C1.426,4.903 0.116,8.064 0.116,11.427C0.116,11.89 0.492,12.266 0.955,12.266Z" fill="#E4E4E3"/>
</svg>
