<svg width="26" height="24" viewBox="0 0 26 24" fill="none" xmlns="http://www.w3.org/2000/svg" xmlns:xlink="http://www.w3.org/1999/xlink">
<path d="M20.486,13.364L20.486,11.525C20.486,7.618 17.89,4.307 14.332,3.226L14.332,2.014C14.332,0.625 13.203,-0.504 11.814,-0.504C10.426,-0.504 9.297,0.625 9.297,2.014L9.297,3.226C5.739,4.307 3.142,7.618 3.142,11.525L3.142,13.364C3.142,16.795 1.834,20.049 -0.541,22.526C-0.774,22.768 -0.839,23.126 -0.707,23.436C-0.575,23.745 -0.271,23.946 0.065,23.946L23.564,23.946C23.9,23.946 24.204,23.745 24.336,23.436C24.467,23.126 24.402,22.768 24.169,22.526C21.794,20.049 20.486,16.795 20.486,13.364ZM12.653,2.894C12.377,2.867 12.097,2.853 11.814,2.853C11.531,2.853 11.251,2.867 10.975,2.894L10.975,2.014C10.975,1.551 11.351,1.174 11.814,1.174C12.277,1.174 12.653,1.551 12.653,2.014L12.653,2.894Z" fill="#E4E4E3"/>
<path d="M22.725,11.525C22.725,11.988 23.1,12.364 23.564,12.364C24.027,12.364 24.403,11.988 24.403,11.525C24.403,8.162 23.094,5.001 20.716,2.623C20.388,2.296 19.857,2.296 19.529,2.623C19.201,2.951 19.201,3.482 19.529,3.81C21.59,5.871 22.725,8.611 22.725,11.525Z" fill="#E4E4E3"/>
<path d="M0.065,12.364C0.528,12.364 0.904,11.988 0.904,11.525C0.904,8.611 2.039,5.871 4.1,3.81C4.427,3.483 4.427,2.951 4.1,2.623C3.772,2.296 3.24,2.296 2.913,2.623C0.535,5.001 -0.774,8.162 -0.774,11.525C-0.774,11.988 -0.399,12.364 0.065,12.364Z" fill="#E4E4E3"/>
</svg>
