<svg width="34" height="34" viewBox="0 0 34 34" fill="none" xmlns="http://www.w3.org/2000/svg" xmlns:xlink="http://www.w3.org/1999/xlink">
<path d="M28.028,18.183L28.028,15.734C28.028,10.529 24.568,6.118 19.828,4.677L19.828,3.061C19.828,1.212 18.323,-0.293 16.474,-0.293C14.624,-0.293 13.119,1.212 13.119,3.061L13.119,4.677C8.379,6.118 4.919,10.529 4.919,15.734L4.919,18.183C4.919,22.755 3.177,27.09 0.012,30.39C-0.298,30.714 -0.385,31.191 -0.209,31.603C-0.033,32.015 0.371,32.282 0.819,32.282L32.128,32.282C32.576,32.282 32.98,32.015 33.156,31.603C33.332,31.191 33.245,30.714 32.935,30.39C29.77,27.09 28.028,22.755 28.028,18.183ZM17.592,4.234C17.224,4.198 16.851,4.18 16.474,4.18C16.096,4.18 15.723,4.198 15.355,4.234L15.355,3.061C15.355,2.445 15.857,1.943 16.474,1.943C17.09,1.943 17.592,2.445 17.592,3.061L17.592,4.234Z" fill="#E4E4E3"/>
<path d="M31.011,15.734C31.011,16.352 31.511,16.852 32.129,16.852C32.746,16.852 33.247,16.352 33.247,15.734C33.247,11.254 31.502,7.042 28.335,3.874C27.898,3.438 27.19,3.438 26.753,3.874C26.317,4.311 26.317,5.019 26.753,5.456C29.499,8.201 31.011,11.851 31.011,15.734Z" fill="#E4E4E3"/>
<path d="M0.819,16.852C1.437,16.852 1.937,16.352 1.937,15.734C1.937,11.851 3.45,8.201 6.195,5.456C6.632,5.019 6.632,4.311 6.195,3.874C5.758,3.438 5.05,3.438 4.614,3.874C1.446,7.042 -0.299,11.254 -0.299,15.734C-0.299,16.352 0.202,16.852 0.819,16.852Z" fill="#E4E4E3"/>
</svg>
