<svg width="44" height="44" viewBox="0 0 44 44" fill="none" xmlns="http://www.w3.org/2000/svg" xmlns:xlink="http://www.w3.org/1999/xlink">
<path d="M13.72,2L13.72,0C13.19,0 12.681,0.211 12.306,0.586L13.72,2ZM30.28,2L31.694,0.586C31.319,0.211 30.81,0 30.28,0L30.28,2ZM42,13.72L44,13.72C44,13.19 43.789,12.681 43.414,12.306L42,13.72ZM42,30.28L43.414,31.694C43.789,31.319 44,30.81 44,30.28L42,30.28ZM30.28,42L30.28,44C30.81,44 31.319,43.789 31.694,43.414L30.28,42ZM13.72,42L12.306,43.414C12.681,43.789 13.19,44 13.72,44L13.72,42ZM2,30.28L0,30.28C0,30.81 0.211,31.319 0.586,31.694L2,30.28ZM2,13.72L0.586,12.306C0.211,12.681 0,13.19 0,13.72L2,13.72ZM13.72,4L30.28,4L30.28,0L13.72,0L13.72,4ZM28.866,3.414L40.586,15.134L43.414,12.306L31.694,0.586L28.866,3.414ZM40,13.72L40,30.28L44,30.28L44,13.72L40,13.72ZM40.586,28.866L28.866,40.586L31.694,43.414L43.414,31.694L40.586,28.866ZM30.28,40L13.72,40L13.72,44L30.28,44L30.28,40ZM15.134,40.586L3.414,28.866L0.586,31.694L12.306,43.414L15.134,40.586ZM4,30.28L4,13.72L0,13.72L0,30.28L4,30.28ZM3.414,15.134L15.134,3.414L12.306,0.586L0.586,12.306L3.414,15.134Z" fill="#FFFFFF"/>
<line x1="20" y1="14" x2="20" y2="22" stroke="#FFFFFF" stroke-width="2" stroke-miterlimit="3.999327" stroke-linecap="round" stroke-linejoin="round"/>
</svg>
