<svg width="26" height="26" viewBox="0 0 26 26" fill="none" xmlns="http://www.w3.org/2000/svg" xmlns:xlink="http://www.w3.org/1999/xlink">
<path d="M21.269,14.151L21.269,12.312C21.269,8.406 18.672,5.095 15.114,4.013L15.114,2.801C15.114,1.413 13.985,0.283 12.596,0.283C11.208,0.283 10.079,1.413 10.079,2.801L10.079,4.013C6.521,5.095 3.924,8.406 3.924,12.312L3.924,14.151C3.924,17.582 2.616,20.836 0.241,23.313C0.009,23.556 -0.057,23.914 0.075,24.223C0.207,24.532 0.511,24.733 0.847,24.733L24.346,24.733C24.682,24.733 24.986,24.532 25.118,24.223C25.25,23.914 25.184,23.556 24.952,23.313C22.577,20.836 21.269,17.582 21.269,14.151ZM13.436,3.681C13.159,3.654 12.88,3.64 12.596,3.64C12.313,3.64 12.033,3.654 11.757,3.681L11.757,2.801C11.757,2.338 12.134,1.962 12.596,1.962C13.059,1.962 13.436,2.338 13.436,2.801L13.436,3.681Z" fill="#E4E4E3"/>
<path d="M23.507,12.312C23.507,12.776 23.882,13.152 24.346,13.152C24.809,13.152 25.185,12.776 25.185,12.312C25.185,8.95 23.876,5.788 21.498,3.411C21.17,3.083 20.639,3.083 20.311,3.411C19.983,3.739 19.983,4.27 20.311,4.598C22.372,6.658 23.507,9.398 23.507,12.312Z" fill="#E4E4E3"/>
<path d="M0.847,13.152C1.311,13.152 1.686,12.776 1.686,12.312C1.686,9.398 2.821,6.658 4.882,4.598C5.21,4.27 5.21,3.739 4.882,3.411C4.554,3.083 4.023,3.083 3.695,3.411C1.317,5.789 0.008,8.95 0.008,12.312C0.008,12.776 0.384,13.152 0.847,13.152Z" fill="#E4E4E3"/>
</svg>
