<svg width="24" height="46" viewBox="0 0 24 46" fill="none" xmlns="http://www.w3.org/2000/svg" xmlns:xlink="http://www.w3.org/1999/xlink">
<path d="M4.267,3.794C4.267,2.177 3.331,0.855 2.186,0.855C1.04,0.855 0.115,2.177 0.115,3.794L0.115,21.565C1.206,19.995 2.659,18.937 4.267,18.611L4.267,3.794Z" fill="#E4E4E3"/>
<path d="M20.897,0.855C19.751,0.855 18.815,2.177 18.815,3.794L18.815,24.332C18.815,27.566 16.954,30.194 14.663,30.194L11.117,30.194C13.265,32.619 14.663,36.289 14.663,40.455C14.663,41.264 14.201,41.917 13.628,41.917C13.055,41.917 12.593,41.264 12.593,40.455C12.593,34.796 9.333,30.194 5.324,30.194C4.752,30.194 4.289,29.541 4.289,28.732C4.289,27.924 4.752,27.271 5.324,27.271L14.674,27.271C15.82,27.271 16.756,25.949 16.756,24.332C16.756,22.715 15.82,21.394 14.674,21.394L5.313,21.394C2.45,21.394 0.115,24.674 0.115,28.717L0.115,31.655C0.115,38.932 4.311,44.855 9.465,44.855L13.617,44.855C18.771,44.855 22.967,38.932 22.967,31.655L22.967,3.794C22.967,2.177 22.042,0.855 20.897,0.855Z" fill="#E4E4E3"/>
</svg>
