<svg width="26" height="26" viewBox="0 0 26 26" fill="none" xmlns="http://www.w3.org/2000/svg" xmlns:xlink="http://www.w3.org/1999/xlink">
<path d="M21.271,14.378L21.271,12.54C21.271,8.633 18.674,5.322 15.116,4.241L15.116,3.028C15.116,1.64 13.987,0.511 12.598,0.511C11.21,0.511 10.081,1.64 10.081,3.028L10.081,4.241C6.523,5.322 3.926,8.633 3.926,12.54L3.926,14.378C3.926,17.81 2.618,21.064 0.243,23.541C0.011,23.783 -0.055,24.141 0.077,24.451C0.209,24.76 0.513,24.961 0.849,24.961L24.348,24.961C24.684,24.961 24.988,24.76 25.12,24.451C25.252,24.141 25.186,23.783 24.954,23.541C22.579,21.064 21.271,17.81 21.271,14.378ZM13.438,3.908C13.161,3.882 12.882,3.868 12.598,3.868C12.315,3.868 12.035,3.882 11.759,3.908L11.759,3.028C11.759,2.566 12.136,2.189 12.598,2.189C13.061,2.189 13.438,2.566 13.438,3.028L13.438,3.908Z" fill="#E4E4E3"/>
<path d="M23.508,12.54C23.508,13.003 23.883,13.379 24.347,13.379C24.81,13.379 25.186,13.003 25.186,12.54C25.186,9.177 23.877,6.016 21.499,3.638C21.171,3.311 20.64,3.311 20.312,3.638C19.984,3.966 19.984,4.497 20.312,4.825C22.373,6.886 23.508,9.626 23.508,12.54Z" fill="#E4E4E3"/>
<path d="M0.849,13.379C1.312,13.379 1.688,13.003 1.688,12.54C1.688,9.626 2.823,6.886 4.884,4.825C5.211,4.497 5.211,3.966 4.884,3.638C4.556,3.311 4.025,3.311 3.697,3.638C1.319,6.016 0.01,9.177 0.01,12.54C0.01,13.003 0.386,13.379 0.849,13.379Z" fill="#E4E4E3"/>
</svg>
