<svg width="36" height="32" viewBox="0 0 36 32" fill="none" xmlns="http://www.w3.org/2000/svg" xmlns:xlink="http://www.w3.org/1999/xlink">
<path d="M29.027,17.719L29.027,15.269C29.027,10.064 25.567,5.653 20.827,4.212L20.827,2.597C20.827,0.747 19.322,-0.758 17.473,-0.758C15.623,-0.758 14.118,0.747 14.118,2.597L14.118,4.212C9.378,5.653 5.918,10.064 5.918,15.269L5.918,17.719C5.918,22.291 4.176,26.626 1.011,29.926C0.701,30.249 0.614,30.726 0.79,31.138C0.966,31.55 1.37,31.818 1.818,31.818L33.127,31.818C33.575,31.818 33.979,31.55 34.155,31.138C34.331,30.726 34.244,30.249 33.934,29.926C30.769,26.626 29.027,22.29 29.027,17.719ZM18.591,3.769C18.223,3.734 17.85,3.715 17.473,3.715C17.095,3.715 16.722,3.734 16.354,3.769L16.354,2.597C16.354,1.98 16.856,1.478 17.473,1.478C18.089,1.478 18.591,1.98 18.591,2.597L18.591,3.769Z" fill="#E4E4E3"/>
<path d="M32.009,15.265C32.009,15.883 32.51,16.384 33.127,16.384C33.745,16.384 34.245,15.883 34.245,15.265C34.245,10.785 32.501,6.573 29.333,3.406C28.896,2.969 28.188,2.969 27.752,3.406C27.315,3.842 27.315,4.55 27.752,4.987C30.497,7.732 32.009,11.383 32.009,15.265Z" fill="#E4E4E3"/>
<path d="M1.818,16.384C2.436,16.384 2.936,15.883 2.936,15.265C2.936,11.383 4.449,7.732 7.194,4.987C7.631,4.55 7.631,3.842 7.194,3.406C6.757,2.969 6.049,2.969 5.613,3.406C2.445,6.574 0.7,10.785 0.7,15.265C0.7,15.883 1.201,16.384 1.818,16.384Z" fill="#E4E4E3"/>
</svg>
