<svg width="46" height="46" viewBox="0 0 46 46" fill="none" xmlns="http://www.w3.org/2000/svg" xmlns:xlink="http://www.w3.org/1999/xlink">
<path d="M2.757,6.757C3.883,5.632 5.409,5 7,5L21,5C22.105,5 23,5.895 23,7C23,8.105 22.105,9 21,9L7,9C6.47,9 5.961,9.211 5.586,9.586C5.211,9.961 5,10.47 5,11L5,39C5,39.53 5.211,40.039 5.586,40.414C5.961,40.789 6.47,41 7,41L35,41C35.53,41 36.039,40.789 36.414,40.414C36.789,40.039 37,39.53 37,39L37,25C37,23.895 37.895,23 39,23C40.105,23 41,23.895 41,25L41,39C41,40.591 40.368,42.117 39.243,43.243C38.117,44.368 36.591,45 35,45L7,45C5.409,45 3.883,44.368 2.757,43.243C1.632,42.117 1,40.591 1,39L1,11C1,9.409 1.632,7.883 2.757,6.757Z" clip-rule="evenodd" fill-rule="evenodd" fill="#E4E4E3"/>
<path d="M39,4.757C38.405,4.757 37.835,4.994 37.414,5.414L18.806,24.023L17.749,28.251L21.978,27.194L40.586,8.586C41.006,8.165 41.243,7.595 41.243,7C41.243,6.405 41.006,5.835 40.586,5.414C40.165,4.994 39.595,4.757 39,4.757ZM34.586,2.586C35.757,1.415 37.344,0.757 39,0.757C40.656,0.757 42.244,1.415 43.414,2.586C44.585,3.756 45.243,5.344 45.243,7C45.243,8.656 44.585,10.243 43.414,11.414L24.414,30.414C24.158,30.671 23.837,30.852 23.485,30.94L15.485,32.94C14.804,33.111 14.083,32.911 13.586,32.414C13.089,31.917 12.889,31.197 13.06,30.515L15.06,22.515C15.148,22.163 15.33,21.842 15.586,21.586L34.586,2.586Z" clip-rule="evenodd" fill-rule="evenodd" fill="#E4E4E3"/>
</svg>
