<svg width="48" height="48" viewBox="0 0 48 48" fill="none" xmlns="http://www.w3.org/2000/svg" xmlns:xlink="http://www.w3.org/1999/xlink">
<path d="M21.775,24.519C20.994,23.738 19.728,23.737 18.946,24.518C18.165,25.298 18.164,26.565 18.945,27.346L21.775,24.519ZM27.18,31.133L26.191,32.871C26.974,33.316 27.957,33.183 28.594,32.547L27.18,31.133ZM29.72,28.593L28.314,27.171L28.306,27.179L29.72,28.593ZM33.94,27.693L33.236,29.565L33.241,29.567L33.94,27.693ZM39.56,29.093L39.84,27.112L39.821,27.11L39.56,29.093ZM43,33.093L41,33.073L41,33.093L43,33.093ZM43,39.093L41,39.093L41,39.101L43,39.093ZM38.64,43.093L38.424,45.081C38.436,45.082 38.448,45.084 38.46,45.084L38.64,43.093ZM21.38,36.953L22.468,35.274L22.452,35.264L21.38,36.953ZM16.135,30.199C15.354,29.418 14.088,29.417 13.306,30.198C12.525,30.978 12.524,32.245 13.305,33.026L16.135,30.199ZM7.702,26.021C8.303,26.948 9.541,27.212 10.468,26.611C11.395,26.01 11.659,24.771 11.058,23.844L7.702,26.021ZM3.24,7.673L1.248,7.853C1.249,7.865 1.25,7.877 1.252,7.889L3.24,7.673ZM7.22,3.313L7.22,1.313L7.218,1.313L7.22,3.313ZM13.22,3.313L13.22,5.313L13.24,5.313L13.22,3.313ZM17.22,6.753L19.203,6.491L19.2,6.473L17.22,6.753ZM18.62,12.373L16.746,13.072L16.748,13.076L18.62,12.373ZM17.72,16.593L19.134,18.007L19.142,17.999L17.72,16.593ZM13.766,17.718C12.985,18.5 12.985,19.766 13.766,20.547C14.547,21.328 15.813,21.328 16.594,20.547L13.766,17.718ZM18.945,27.346C21.102,29.505 23.539,31.363 26.191,32.871L28.168,29.394C25.828,28.063 23.678,26.424 21.775,24.519L18.945,27.346ZM28.594,32.547L31.134,30.007L28.306,27.179L25.766,29.719L28.594,32.547ZM31.126,30.015C31.398,29.746 31.741,29.561 32.115,29.481L31.281,25.569C30.159,25.808 29.129,26.364 28.314,27.171L31.126,30.015ZM32.115,29.481C32.489,29.401 32.878,29.43 33.236,29.565L34.644,25.821C33.57,25.417 32.403,25.33 31.281,25.569L32.115,29.481ZM33.241,29.567C35.196,30.296 37.229,30.802 39.298,31.075L39.821,27.11C38.051,26.876 36.312,26.443 34.639,25.819L33.241,29.567ZM39.28,31.073C39.76,31.141 40.2,31.381 40.516,31.749L43.549,29.141C42.6,28.037 41.281,27.316 39.84,27.112L39.28,31.073ZM40.516,31.749C40.833,32.117 41.005,32.588 41,33.073L45,33.112C45.014,31.656 44.499,30.245 43.549,29.141L40.516,31.749ZM41,33.093L41,39.093L45,39.093L45,33.093L41,33.093ZM41,39.101C41.001,39.379 40.944,39.655 40.832,39.91L44.497,41.513C44.832,40.747 45.003,39.92 45,39.084L41,39.101ZM40.832,39.91C40.721,40.165 40.557,40.394 40.352,40.583L43.056,43.53C43.672,42.965 44.163,42.278 44.497,41.513L40.832,39.91ZM40.352,40.583C40.147,40.771 39.904,40.914 39.641,41.003L40.922,44.793C41.714,44.525 42.44,44.095 43.056,43.53L40.352,40.583ZM39.641,41.003C39.377,41.093 39.097,41.126 38.82,41.101L38.46,45.084C39.292,45.16 40.131,45.06 40.922,44.793L39.641,41.003ZM38.856,41.104C33.013,40.469 27.4,38.473 22.468,35.275L20.292,38.631C25.748,42.169 31.958,44.378 38.424,45.081L38.856,41.104ZM22.452,35.264C20.167,33.813 18.048,32.115 16.135,30.199L13.305,33.026C15.426,35.149 17.774,37.033 20.308,38.641L22.452,35.264ZM11.058,23.844C7.86,18.913 5.863,13.3 5.228,7.457L1.252,7.889C1.954,14.354 4.163,20.564 7.702,26.021L11.058,23.844ZM5.232,7.493C5.207,7.216 5.24,6.937 5.328,6.674L1.537,5.398C1.272,6.187 1.173,7.023 1.248,7.853L5.232,7.493ZM5.328,6.674C5.417,6.411 5.559,6.169 5.747,5.964L2.792,3.268C2.231,3.883 1.803,4.608 1.537,5.398L5.328,6.674ZM5.747,5.964C5.934,5.759 6.162,5.595 6.416,5.483L4.799,1.824C4.037,2.161 3.354,2.652 2.792,3.268L5.747,5.964ZM6.416,5.483C6.67,5.371 6.944,5.313 7.222,5.313L7.218,1.313C6.385,1.313 5.561,1.488 4.799,1.824L6.416,5.483ZM7.22,5.313L13.22,5.313L13.22,1.313L7.22,1.313L7.22,5.313ZM13.24,5.313C13.725,5.308 14.195,5.48 14.563,5.796L17.171,2.763C16.068,1.814 14.656,1.298 13.2,1.313L13.24,5.313ZM14.563,5.796C14.931,6.113 15.172,6.552 15.24,7.033L19.2,6.473C18.996,5.031 18.275,3.713 17.171,2.763L14.563,5.796ZM15.237,7.014C15.51,9.084 16.016,11.116 16.746,13.072L20.494,11.673C19.869,10 19.436,8.262 19.203,6.491L15.237,7.014ZM16.748,13.076C16.882,13.434 16.911,13.823 16.832,14.197L20.744,15.032C20.983,13.91 20.896,12.743 20.492,11.669L16.748,13.076ZM16.832,14.197C16.752,14.571 16.567,14.915 16.298,15.186L19.142,17.999C19.949,17.183 20.504,16.154 20.744,15.032L16.832,14.197ZM16.306,15.178L13.766,17.718L16.594,20.547L19.134,18.007L16.306,15.178Z" fill="#FFE3E7"/>
<path d="M46.414,2.727C47.195,1.946 47.195,0.679 46.414,-0.102C45.633,-0.883 44.367,-0.883 43.586,-0.102L46.414,2.727ZM-0.414,43.898C-1.195,44.679 -1.195,45.946 -0.414,46.727C0.367,47.508 1.633,47.508 2.414,46.727L-0.414,43.898ZM43.586,-0.102L-0.414,43.898L2.414,46.727L46.414,2.727L43.586,-0.102Z" fill="#FFE3E7"/>
</svg>
