<svg width="34" height="34" viewBox="0 0 34 34" fill="none" xmlns="http://www.w3.org/2000/svg" xmlns:xlink="http://www.w3.org/1999/xlink">
<path d="M28.027,18.18L28.027,15.73C28.027,10.525 24.568,6.114 19.827,4.673L19.827,3.058C19.827,1.208 18.323,-0.297 16.473,-0.297C14.623,-0.297 13.119,1.208 13.119,3.058L13.119,4.673C8.378,6.114 4.919,10.525 4.919,15.73L4.919,18.18C4.919,22.752 3.176,27.087 0.012,30.387C-0.298,30.71 -0.385,31.187 -0.21,31.599C-0.034,32.011 0.371,32.279 0.819,32.279L32.127,32.279C32.575,32.279 32.98,32.011 33.156,31.599C33.331,31.187 33.244,30.71 32.934,30.387C29.77,27.087 28.027,22.751 28.027,18.18ZM17.591,4.23C17.223,4.195 16.85,4.176 16.473,4.176C16.096,4.176 15.723,4.195 15.355,4.23L15.355,3.058C15.355,2.441 15.856,1.939 16.473,1.939C17.09,1.939 17.591,2.441 17.591,3.058L17.591,4.23Z" fill="#E4E4E3"/>
<path d="M31.009,15.726C31.009,16.344 31.51,16.845 32.127,16.845C32.745,16.845 33.246,16.344 33.246,15.726C33.246,11.246 31.501,7.034 28.333,3.867C27.897,3.43 27.188,3.43 26.752,3.867C26.315,4.303 26.315,5.011 26.752,5.448C29.497,8.193 31.009,11.844 31.009,15.726Z" fill="#E4E4E3"/>
<path d="M0.819,16.844C1.436,16.844 1.937,16.344 1.937,15.726C1.937,11.844 3.449,8.193 6.194,5.448C6.631,5.011 6.631,4.303 6.194,3.867C5.758,3.43 5.05,3.43 4.613,3.867C1.445,7.034 -0.299,11.246 -0.299,15.726C-0.299,16.344 0.201,16.844 0.819,16.844Z" fill="#E4E4E3"/>
</svg>
