<svg width="26" height="26" viewBox="0 0 26 26" fill="none" xmlns="http://www.w3.org/2000/svg" xmlns:xlink="http://www.w3.org/1999/xlink">
<path d="M21.377,14.151L21.377,12.312C21.377,8.406 18.78,5.095 15.223,4.013L15.223,2.801C15.223,1.413 14.093,0.283 12.705,0.283C11.317,0.283 10.187,1.413 10.187,2.801L10.187,4.013C6.629,5.095 4.033,8.406 4.033,12.312L4.033,14.151C4.033,17.582 2.725,20.836 0.35,23.313C0.117,23.556 0.052,23.914 0.184,24.223C0.315,24.532 0.619,24.733 0.956,24.733L24.454,24.733C24.79,24.733 25.094,24.532 25.226,24.223C25.358,23.914 25.293,23.556 25.06,23.313C22.685,20.836 21.377,17.582 21.377,14.151ZM13.544,3.681C13.268,3.654 12.988,3.64 12.705,3.64C12.422,3.64 12.142,3.654 11.866,3.681L11.866,2.801C11.866,2.338 12.242,1.962 12.705,1.962C13.168,1.962 13.544,2.338 13.544,2.801L13.544,3.681Z" fill="#E4E4E3"/>
<path d="M23.615,12.312C23.615,12.776 23.991,13.152 24.454,13.152C24.918,13.152 25.294,12.776 25.294,12.312C25.294,8.95 23.984,5.788 21.606,3.411C21.279,3.083 20.747,3.083 20.42,3.411C20.092,3.739 20.092,4.27 20.42,4.598C22.48,6.658 23.615,9.398 23.615,12.312Z" fill="#E4E4E3"/>
<path d="M0.955,13.152C1.419,13.152 1.795,12.776 1.795,12.312C1.795,9.398 2.93,6.658 4.99,4.598C5.318,4.27 5.318,3.739 4.99,3.411C4.662,3.083 4.131,3.083 3.803,3.411C1.426,5.789 0.116,8.95 0.116,12.312C0.116,12.776 0.492,13.152 0.955,13.152Z" fill="#E4E4E3"/>
</svg>
