<svg width="26" height="24" viewBox="0 0 26 24" fill="none" xmlns="http://www.w3.org/2000/svg" xmlns:xlink="http://www.w3.org/1999/xlink">
<path d="M21.377,13.2L21.377,11.362C21.377,7.455 18.781,4.144 15.223,3.063L15.223,1.85C15.223,0.462 14.094,-0.667 12.705,-0.667C11.317,-0.667 10.188,0.462 10.188,1.85L10.188,3.063C6.63,4.144 4.033,7.455 4.033,11.362L4.033,13.2C4.033,16.632 2.725,19.886 0.35,22.362C0.117,22.605 0.052,22.963 0.184,23.272C0.316,23.582 0.62,23.782 0.956,23.782L24.455,23.782C24.791,23.782 25.095,23.582 25.227,23.272C25.358,22.963 25.293,22.605 25.06,22.362C22.685,19.886 21.377,16.632 21.377,13.2ZM13.545,2.73C13.268,2.704 12.988,2.689 12.705,2.689C12.422,2.689 12.142,2.704 11.866,2.73L11.866,1.85C11.866,1.387 12.243,1.011 12.705,1.011C13.168,1.011 13.545,1.387 13.545,1.85L13.545,2.73Z" fill="#E4E4E3"/>
<path d="M23.615,11.362C23.615,11.825 23.991,12.201 24.455,12.201C24.918,12.201 25.294,11.825 25.294,11.362C25.294,7.999 23.984,4.838 21.607,2.46C21.279,2.132 20.748,2.132 20.42,2.46C20.092,2.788 20.092,3.319 20.42,3.647C22.481,5.708 23.615,8.447 23.615,11.362Z" fill="#E4E4E3"/>
<path d="M0.956,12.201C1.419,12.201 1.795,11.825 1.795,11.362C1.795,8.447 2.93,5.708 4.991,3.647C5.318,3.319 5.318,2.788 4.991,2.46C4.663,2.132 4.132,2.132 3.804,2.46C1.426,4.838 0.117,7.999 0.117,11.362C0.117,11.825 0.492,12.201 0.956,12.201Z" fill="#E4E4E3"/>
</svg>
