<svg width="34" height="34" viewBox="0 0 34 34" fill="none" xmlns="http://www.w3.org/2000/svg" xmlns:xlink="http://www.w3.org/1999/xlink">
<path d="M31.46,3.937C32.373,3.023 32.373,1.542 31.46,0.628C30.546,-0.286 29.065,-0.286 28.151,0.628L31.46,3.937ZM0.074,28.704C-0.84,29.618 -0.84,31.1 0.074,32.013C0.988,32.927 2.469,32.927 3.383,32.013L0.074,28.704ZM28.151,0.628L0.074,28.704L3.383,32.013L31.46,3.937L28.151,0.628Z" fill="#E4E4E3"/>
<path d="M3.383,0.628C2.469,-0.286 0.988,-0.286 0.074,0.628C-0.84,1.542 -0.84,3.023 0.074,3.937L3.383,0.628ZM28.151,32.013C29.065,32.927 30.546,32.927 31.46,32.013C32.373,31.1 32.373,29.618 31.46,28.704L28.151,32.013ZM0.074,3.937L28.151,32.013L31.46,28.704L3.383,0.628L0.074,3.937Z" fill="#E4E4E3"/>
</svg>
