<svg width="26" height="26" viewBox="0 0 26 26" fill="none" xmlns="http://www.w3.org/2000/svg" xmlns:xlink="http://www.w3.org/1999/xlink">
<path d="M21.38,14.378L21.38,12.54C21.38,8.633 18.783,5.322 15.226,4.241L15.226,3.028C15.226,1.64 14.096,0.511 12.708,0.511C11.32,0.511 10.19,1.64 10.19,3.028L10.19,4.241C6.632,5.322 4.036,8.633 4.036,12.54L4.036,14.378C4.036,17.81 2.728,21.064 0.353,23.541C0.12,23.783 0.055,24.141 0.186,24.451C0.318,24.76 0.622,24.961 0.958,24.961L24.457,24.961C24.793,24.961 25.097,24.76 25.229,24.451C25.361,24.141 25.296,23.783 25.063,23.541C22.688,21.064 21.38,17.81 21.38,14.378ZM13.547,3.908C13.271,3.882 12.991,3.868 12.708,3.868C12.425,3.868 12.145,3.882 11.869,3.908L11.869,3.028C11.869,2.566 12.245,2.189 12.708,2.189C13.171,2.189 13.547,2.566 13.547,3.028L13.547,3.908Z" fill="#E4E4E3"/>
<path d="M23.617,12.54C23.617,13.003 23.993,13.379 24.456,13.379C24.92,13.379 25.296,13.003 25.296,12.54C25.296,9.177 23.986,6.016 21.608,3.638C21.281,3.311 20.749,3.311 20.422,3.638C20.094,3.966 20.094,4.497 20.422,4.825C22.482,6.886 23.617,9.626 23.617,12.54Z" fill="#E4E4E3"/>
<path d="M0.958,13.379C1.422,13.379 1.798,13.003 1.798,12.54C1.798,9.626 2.933,6.886 4.993,4.825C5.321,4.497 5.321,3.966 4.993,3.638C4.665,3.311 4.134,3.311 3.806,3.638C1.429,6.016 0.119,9.177 0.119,12.54C0.119,13.003 0.495,13.379 0.958,13.379Z" fill="#E4E4E3"/>
</svg>
