<svg width="22" height="44" viewBox="0 0 22 44" fill="none" xmlns="http://www.w3.org/2000/svg" xmlns:xlink="http://www.w3.org/1999/xlink">
<path d="M3.267,2.376C3.267,0.759 2.331,-0.563 1.186,-0.563C0.04,-0.563 -0.885,0.759 -0.885,2.376L-0.885,20.147C0.206,18.577 1.659,17.519 3.267,17.193L3.267,2.376Z" fill="#E4E4E3"/>
<path d="M19.897,-0.563C18.751,-0.563 17.815,0.759 17.815,2.376L17.815,22.914C17.815,26.149 15.954,28.776 13.663,28.776L10.117,28.776C12.265,31.202 13.663,34.871 13.663,39.037C13.663,39.846 13.201,40.499 12.628,40.499C12.055,40.499 11.593,39.846 11.593,39.037C11.593,33.378 8.333,28.776 4.324,28.776C3.752,28.776 3.289,28.123 3.289,27.315C3.289,26.506 3.752,25.853 4.324,25.853L13.674,25.853C14.82,25.853 15.756,24.531 15.756,22.914C15.756,21.298 14.82,19.976 13.674,19.976L4.313,19.976C1.45,19.976 -0.885,23.257 -0.885,27.299L-0.885,30.238C-0.885,37.514 3.311,43.438 8.465,43.438L12.617,43.438C17.771,43.438 21.967,37.514 21.967,30.238L21.967,2.376C21.967,0.759 21.042,-0.563 19.897,-0.563Z" fill="#E4E4E3"/>
</svg>
