<svg width="26" height="26" viewBox="0 0 26 26" fill="none" xmlns="http://www.w3.org/2000/svg" xmlns:xlink="http://www.w3.org/1999/xlink">
<path d="M21.377,13.719L21.377,11.881C21.377,7.974 18.78,4.663 15.223,3.582L15.223,2.369C15.223,0.981 14.093,-0.148 12.705,-0.148C11.317,-0.148 10.187,0.981 10.187,2.369L10.187,3.582C6.629,4.663 4.033,7.974 4.033,11.881L4.033,13.719C4.033,17.151 2.725,20.405 0.35,22.881C0.117,23.124 0.052,23.482 0.184,23.791C0.315,24.101 0.619,24.301 0.956,24.301L24.454,24.301C24.79,24.301 25.094,24.101 25.226,23.791C25.358,23.482 25.293,23.124 25.06,22.881C22.685,20.405 21.377,17.151 21.377,13.719ZM13.544,3.249C13.268,3.223 12.988,3.209 12.705,3.209C12.422,3.209 12.142,3.223 11.866,3.249L11.866,2.369C11.866,1.907 12.242,1.53 12.705,1.53C13.168,1.53 13.544,1.907 13.544,2.369L13.544,3.249Z" fill="#E4E4E3"/>
<path d="M23.615,11.881C23.615,12.344 23.991,12.72 24.454,12.72C24.918,12.72 25.294,12.344 25.294,11.881C25.294,8.518 23.984,5.357 21.606,2.979C21.279,2.651 20.747,2.651 20.42,2.979C20.092,3.307 20.092,3.838 20.42,4.166C22.48,6.227 23.615,8.966 23.615,11.881Z" fill="#E4E4E3"/>
<path d="M0.955,12.72C1.419,12.72 1.795,12.344 1.795,11.881C1.795,8.967 2.93,6.227 4.99,4.166C5.318,3.838 5.318,3.307 4.99,2.979C4.662,2.651 4.131,2.651 3.803,2.979C1.426,5.357 0.116,8.518 0.116,11.881C0.116,12.344 0.492,12.72 0.955,12.72Z" fill="#E4E4E3"/>
</svg>
