<svg width="26" height="24" viewBox="0 0 26 24" fill="none" xmlns="http://www.w3.org/2000/svg" xmlns:xlink="http://www.w3.org/1999/xlink">
<path d="M21.269,13.059L21.269,11.221C21.269,7.314 18.672,4.003 15.114,2.922L15.114,1.709C15.114,0.321 13.985,-0.809 12.596,-0.809C11.208,-0.809 10.079,0.321 10.079,1.709L10.079,2.922C6.521,4.003 3.924,7.314 3.924,11.221L3.924,13.059C3.924,16.491 2.616,19.744 0.241,22.221C0.009,22.464 -0.057,22.822 0.075,23.131C0.207,23.441 0.511,23.641 0.847,23.641L24.346,23.641C24.682,23.641 24.986,23.441 25.118,23.131C25.25,22.822 25.184,22.464 24.952,22.221C22.577,19.744 21.269,16.491 21.269,13.059ZM13.436,2.589C13.159,2.562 12.88,2.548 12.596,2.548C12.313,2.548 12.033,2.562 11.757,2.589L11.757,1.709C11.757,1.246 12.134,0.87 12.596,0.87C13.059,0.87 13.436,1.246 13.436,1.709L13.436,2.589Z" fill="#E4E4E3"/>
<path d="M23.507,11.221C23.507,11.684 23.882,12.06 24.346,12.06C24.809,12.06 25.185,11.684 25.185,11.221C25.185,7.858 23.876,4.697 21.498,2.319C21.17,1.991 20.639,1.991 20.311,2.319C19.983,2.647 19.983,3.178 20.311,3.506C22.372,5.567 23.507,8.306 23.507,11.221Z" fill="#E4E4E3"/>
<path d="M0.847,12.06C1.311,12.06 1.686,11.684 1.686,11.221C1.686,8.306 2.821,5.567 4.882,3.506C5.21,3.178 5.21,2.647 4.882,2.319C4.554,1.991 4.023,1.991 3.695,2.319C1.317,4.697 0.008,7.858 0.008,11.221C0.008,11.684 0.384,12.06 0.847,12.06Z" fill="#E4E4E3"/>
</svg>
