<svg width="52" height="52" viewBox="0 0 52 52" fill="none" xmlns="http://www.w3.org/2000/svg" xmlns:xlink="http://www.w3.org/1999/xlink">
<path d="M1.155,6.264C2.471,4.948 4.256,4.209 6.117,4.209L22.491,4.209C23.783,4.209 24.83,5.256 24.83,6.548C24.83,7.84 23.783,8.887 22.491,8.887L6.117,8.887C5.497,8.887 4.902,9.134 4.463,9.572C4.024,10.011 3.778,10.606 3.778,11.226L3.778,43.974C3.778,44.594 4.024,45.189 4.463,45.628C4.902,46.067 5.497,46.313 6.117,46.313L38.865,46.313C39.485,46.313 40.08,46.067 40.519,45.628C40.957,45.189 41.204,44.594 41.204,43.974L41.204,27.6C41.204,26.308 42.251,25.261 43.543,25.261C44.835,25.261 45.882,26.308 45.882,27.6L45.882,43.974C45.882,45.835 45.143,47.62 43.827,48.936C42.511,50.252 40.726,50.991 38.865,50.991L6.117,50.991C4.256,50.991 2.471,50.252 1.155,48.936C-0.161,47.62 -0.9,45.835 -0.9,43.974L-0.9,11.226C-0.9,9.365 -0.161,7.58 1.155,6.264Z" clip-rule="evenodd" fill-rule="evenodd" fill="#E4E4E3"/>
<path d="M43.541,3.926C42.846,3.926 42.179,4.203 41.687,4.695L19.923,26.458L18.687,31.404L23.633,30.167L45.396,8.404C45.888,7.912 46.164,7.245 46.164,6.549C46.164,5.854 45.888,5.186 45.396,4.695C44.904,4.203 44.237,3.926 43.541,3.926ZM38.379,1.387C39.748,0.017 41.605,-0.752 43.541,-0.752C45.478,-0.752 47.335,0.017 48.704,1.387C50.073,2.756 50.843,4.613 50.843,6.549C50.843,8.486 50.073,10.343 48.704,11.712L26.482,33.933C26.183,34.233 25.807,34.446 25.396,34.549L16.039,36.888C15.242,37.087 14.399,36.854 13.818,36.273C13.237,35.692 13.003,34.848 13.203,34.051L15.542,24.695C15.645,24.284 15.857,23.908 16.157,23.608L38.379,1.387Z" clip-rule="evenodd" fill-rule="evenodd" fill="#E4E4E3"/>
</svg>
