<svg width="24" height="24" viewBox="0 0 24 24" fill="none" xmlns="http://www.w3.org/2000/svg" xmlns:xlink="http://www.w3.org/1999/xlink">
<path d="M23.179,3.179C23.829,2.528 23.829,1.472 23.179,0.821C22.528,0.171 21.472,0.171 20.821,0.821L23.179,3.179ZM0.821,20.821C0.171,21.472 0.171,22.528 0.821,23.179C1.472,23.829 2.528,23.829 3.179,23.179L0.821,20.821ZM20.821,0.821L0.821,20.821L3.179,23.179L23.179,3.179L20.821,0.821Z" fill="#E4E4E3"/>
<path d="M3.179,0.821C2.528,0.171 1.472,0.171 0.821,0.821C0.171,1.472 0.171,2.528 0.821,3.179L3.179,0.821ZM20.821,23.179C21.472,23.829 22.528,23.829 23.179,23.179C23.829,22.528 23.829,21.472 23.179,20.821L20.821,23.179ZM0.821,3.179L20.821,23.179L23.179,20.821L3.179,0.821L0.821,3.179Z" fill="#E4E4E3"/>
</svg>
