<svg width="48" height="24" viewBox="0 0 48 24" fill="none" xmlns="http://www.w3.org/2000/svg" xmlns:xlink="http://www.w3.org/1999/xlink">
<path d="M30,0C28.895,0 28,0.895 28,2C28,3.105 28.895,4 30,4L30,0ZM36,2L36,0L36,2ZM36,22L36,20L36,22ZM30,20C28.895,20 28,20.895 28,22C28,23.105 28.895,24 30,24L30,20ZM18,24C19.105,24 20,23.105 20,22C20,20.895 19.105,20 18,20L18,24ZM12,22L12,20L12,22ZM2,12L0,12L2,12ZM12,2L12,0L12,2ZM18,4C19.105,4 20,3.105 20,2C20,0.895 19.105,0 18,0L18,4ZM30,4L36,4L36,0L30,0L30,4ZM36,4C37.051,4 38.091,4.207 39.061,4.609L40.592,0.913C39.136,0.31 37.576,0 36,0L36,4ZM39.061,4.609C40.032,5.011 40.914,5.6 41.657,6.343L44.485,3.515C43.371,2.4 42.048,1.517 40.592,0.913L39.061,4.609ZM41.657,6.343C42.4,7.086 42.989,7.968 43.391,8.939L47.087,7.408C46.483,5.952 45.6,4.629 44.485,3.515L41.657,6.343ZM43.391,8.939C43.793,9.909 44,10.949 44,12L48,12C48,10.424 47.69,8.864 47.087,7.408L43.391,8.939ZM44,12C44,13.051 43.793,14.091 43.391,15.061L47.087,16.592C47.69,15.136 48,13.576 48,12L44,12ZM43.391,15.061C42.989,16.032 42.4,16.914 41.657,17.657L44.485,20.485C45.6,19.371 46.483,18.048 47.087,16.592L43.391,15.061ZM41.657,17.657C40.914,18.4 40.032,18.989 39.061,19.391L40.592,23.087C42.048,22.483 43.371,21.6 44.485,20.485L41.657,17.657ZM39.061,19.391C38.091,19.793 37.051,20 36,20L36,24C37.576,24 39.136,23.69 40.592,23.087L39.061,19.391ZM36,20L30,20L30,24L36,24L36,20ZM18,20L12,20L12,24L18,24L18,20ZM12,20C10.949,20 9.909,19.793 8.939,19.391L7.408,23.087C8.864,23.69 10.424,24 12,24L12,20ZM8.939,19.391C7.968,18.989 7.086,18.4 6.343,17.657L3.515,20.485C4.629,21.6 5.952,22.483 7.408,23.087L8.939,19.391ZM6.343,17.657C4.843,16.157 4,14.122 4,12L0,12C0,15.183 1.264,18.235 3.515,20.485L6.343,17.657ZM4,12C4,9.878 4.843,7.843 6.343,6.343L3.515,3.515C1.264,5.765 0,8.817 0,12L4,12ZM6.343,6.343C7.843,4.843 9.878,4 12,4L12,0C8.817,0 5.765,1.264 3.515,3.515L6.343,6.343ZM12,4L18,4L18,0L12,0L12,4Z" fill="#E4E4E3"/>
<line x1="16" y1="10" x2="32" y2="10" stroke="#E4E4E3" stroke-width="2" stroke-miterlimit="3.999327" stroke-linecap="round" stroke-linejoin="round"/>
</svg>
