<svg width="22" height="44" viewBox="0 0 22 44" fill="none" xmlns="http://www.w3.org/2000/svg" xmlns:xlink="http://www.w3.org/1999/xlink">
<path d="M3.269,1.989C3.269,0.372 2.333,-0.95 1.188,-0.95C0.042,-0.95 -0.883,0.372 -0.883,1.989L-0.883,19.76C0.207,18.19 1.661,17.132 3.269,16.806L3.269,1.989Z" fill="#E4E4E3"/>
<path d="M19.899,-0.95C18.753,-0.95 17.817,0.372 17.817,1.989L17.817,22.527C17.817,25.761 15.956,28.389 13.665,28.389L10.119,28.389C12.267,30.814 13.665,34.483 13.665,38.65C13.665,39.459 13.203,40.112 12.63,40.112C12.057,40.112 11.595,39.459 11.595,38.65C11.595,32.991 8.335,28.389 4.326,28.389C3.754,28.389 3.291,27.736 3.291,26.927C3.291,26.119 3.754,25.466 4.326,25.466L13.676,25.466C14.822,25.466 15.758,24.144 15.758,22.527C15.758,20.91 14.822,19.589 13.676,19.589L4.315,19.589C1.452,19.589 -0.883,22.869 -0.883,26.912L-0.883,29.85C-0.883,37.127 3.313,43.05 8.467,43.05L12.619,43.05C17.773,43.05 21.969,37.127 21.969,29.85L21.969,1.989C21.969,0.372 21.044,-0.95 19.899,-0.95Z" fill="#E4E4E3"/>
</svg>
