<svg width="36" height="44" viewBox="0 0 36 44" fill="none" xmlns="http://www.w3.org/2000/svg" xmlns:xlink="http://www.w3.org/1999/xlink">
<line x1="0" y1="8" x2="36" y2="8" stroke="#E4E4E3" stroke-width="2" stroke-miterlimit="3.999327" stroke-linecap="round" stroke-linejoin="round"/>
<path d="M34,10C34,8.895 33.105,8 32,8C30.895,8 30,8.895 30,10L34,10ZM4,38L2,38L4,38ZM6,10C6,8.895 5.105,8 4,8C2.895,8 2,8.895 2,10L6,10ZM8,10C8,11.105 8.895,12 10,12C11.105,12 12,11.105 12,10L8,10ZM14,2L14,0L14,2ZM22,2L22,0L22,2ZM24,10C24,11.105 24.895,12 26,12C27.105,12 28,11.105 28,10L24,10ZM30,10L30,38L34,38L34,10L30,10ZM30,38C30,38.53 29.789,39.039 29.414,39.414L32.243,42.243C33.368,41.117 34,39.591 34,38L30,38ZM29.414,39.414C29.039,39.789 28.53,40 28,40L28,44C29.591,44 31.117,43.368 32.243,42.243L29.414,39.414ZM28,40L8,40L8,44L28,44L28,40ZM8,40C7.47,40 6.961,39.789 6.586,39.414L3.757,42.243C4.883,43.368 6.409,44 8,44L8,40ZM6.586,39.414C6.211,39.039 6,38.53 6,38L2,38C2,39.591 2.632,41.117 3.757,42.243L6.586,39.414ZM6,38L6,10L2,10L2,38L6,38ZM12,10L12,6L8,6L8,10L12,10ZM12,6C12,5.47 12.211,4.961 12.586,4.586L9.757,1.757C8.632,2.883 8,4.409 8,6L12,6ZM12.586,4.586C12.961,4.211 13.47,4 14,4L14,0C12.409,0 10.883,0.632 9.757,1.757L12.586,4.586ZM14,4L22,4L22,0L14,0L14,4ZM22,4C22.53,4 23.039,4.211 23.414,4.586L26.243,1.757C25.117,0.632 23.591,0 22,0L22,4ZM23.414,4.586C23.789,4.961 24,5.47 24,6L28,6C28,4.409 27.368,2.883 26.243,1.757L23.414,4.586ZM24,6L24,10L28,10L28,6L24,6Z" fill="#E4E4E3"/>
</svg>
