<svg width="32" height="30" viewBox="0 0 32 30" fill="none" xmlns="http://www.w3.org/2000/svg" xmlns:xlink="http://www.w3.org/1999/xlink">
<path d="M1.552,3.686C2.315,2.923 3.349,2.495 4.427,2.495L13.915,2.495C14.663,2.495 15.27,3.102 15.27,3.85C15.27,4.599 14.663,5.206 13.915,5.206L4.427,5.206C4.068,5.206 3.723,5.348 3.469,5.602C3.215,5.857 3.072,6.201 3.072,6.561L3.072,25.535C3.072,25.895 3.215,26.239 3.469,26.494C3.723,26.748 4.068,26.891 4.427,26.891L23.402,26.891C23.761,26.891 24.106,26.748 24.36,26.494C24.614,26.239 24.757,25.895 24.757,25.535L24.757,16.048C24.757,15.3 25.364,14.693 26.113,14.693C26.861,14.693 27.468,15.3 27.468,16.048L27.468,25.535C27.468,26.614 27.039,27.648 26.277,28.41C25.514,29.173 24.48,29.601 23.402,29.601L4.427,29.601C3.349,29.601 2.315,29.173 1.552,28.41C0.79,27.648 0.361,26.614 0.361,25.535L0.361,6.561C0.361,5.482 0.79,4.448 1.552,3.686Z" clip-rule="evenodd" fill-rule="evenodd" fill="#E4E4E3"/>
<path d="M26.111,2.331C25.708,2.331 25.322,2.491 25.037,2.776L12.427,15.386L11.71,18.251L14.576,17.535L27.186,4.925C27.471,4.64 27.631,4.253 27.631,3.85C27.631,3.447 27.471,3.061 27.186,2.776C26.901,2.491 26.514,2.331 26.111,2.331ZM23.12,0.859C23.913,0.066 24.989,-0.38 26.111,-0.38C27.233,-0.38 28.309,0.066 29.103,0.859C29.896,1.652 30.342,2.728 30.342,3.85C30.342,4.972 29.896,6.048 29.103,6.842L16.227,19.717C16.053,19.891 15.836,20.014 15.598,20.074L10.176,21.429C9.714,21.544 9.226,21.409 8.889,21.072C8.553,20.736 8.417,20.247 8.533,19.785L9.888,14.364C9.948,14.126 10.071,13.908 10.245,13.734L23.12,0.859Z" clip-rule="evenodd" fill-rule="evenodd" fill="#E4E4E3"/>
</svg>
