<svg width="36" height="34" viewBox="0 0 36 34" fill="none" xmlns="http://www.w3.org/2000/svg" xmlns:xlink="http://www.w3.org/1999/xlink">
<path d="M29.027,18.18L29.027,15.73C29.027,10.525 25.567,6.114 20.827,4.673L20.827,3.058C20.827,1.208 19.322,-0.297 17.473,-0.297C15.623,-0.297 14.118,1.208 14.118,3.058L14.118,4.673C9.378,6.114 5.918,10.525 5.918,15.73L5.918,18.18C5.918,22.752 4.176,27.087 1.011,30.387C0.701,30.71 0.614,31.187 0.79,31.599C0.966,32.011 1.37,32.279 1.818,32.279L33.127,32.279C33.575,32.279 33.979,32.011 34.155,31.599C34.331,31.187 34.244,30.71 33.934,30.387C30.769,27.087 29.027,22.751 29.027,18.18ZM18.591,4.23C18.223,4.195 17.85,4.176 17.473,4.176C17.095,4.176 16.722,4.195 16.354,4.23L16.354,3.058C16.354,2.441 16.856,1.939 17.473,1.939C18.089,1.939 18.591,2.441 18.591,3.058L18.591,4.23Z" fill="#E4E4E3"/>
<path d="M32.009,15.726C32.009,16.344 32.51,16.845 33.127,16.845C33.745,16.845 34.245,16.344 34.245,15.726C34.245,11.246 32.501,7.034 29.333,3.867C28.896,3.43 28.188,3.43 27.752,3.867C27.315,4.303 27.315,5.011 27.752,5.448C30.497,8.193 32.009,11.844 32.009,15.726Z" fill="#E4E4E3"/>
<path d="M1.818,16.844C2.436,16.844 2.936,16.344 2.936,15.726C2.936,11.844 4.449,8.193 7.194,5.448C7.631,5.011 7.631,4.303 7.194,3.867C6.757,3.43 6.049,3.43 5.613,3.867C2.445,7.034 0.7,11.246 0.7,15.726C0.7,16.344 1.201,16.844 1.818,16.844Z" fill="#E4E4E3"/>
</svg>
