<svg width="26" height="24" viewBox="0 0 26 24" fill="none" xmlns="http://www.w3.org/2000/svg" xmlns:xlink="http://www.w3.org/1999/xlink">
<path d="M21.269,13.179L21.269,11.341C21.269,7.434 18.672,4.123 15.115,3.042L15.115,1.829C15.115,0.441 13.985,-0.688 12.597,-0.688C11.209,-0.688 10.079,0.441 10.079,1.829L10.079,3.042C6.521,4.123 3.925,7.434 3.925,11.341L3.925,13.179C3.925,16.611 2.617,19.865 0.242,22.341C0.009,22.584 -0.056,22.942 0.076,23.251C0.208,23.561 0.511,23.761 0.848,23.761L24.346,23.761C24.683,23.761 24.986,23.561 25.118,23.251C25.25,22.942 25.185,22.584 24.952,22.341C22.577,19.865 21.269,16.611 21.269,13.179ZM13.436,2.709C13.16,2.683 12.88,2.668 12.597,2.668C12.314,2.668 12.034,2.683 11.758,2.709L11.758,1.829C11.758,1.366 12.134,0.99 12.597,0.99C13.06,0.99 13.436,1.366 13.436,1.829L13.436,2.709Z" fill="#E4E4E3"/>
<path d="M23.507,11.341C23.507,11.804 23.883,12.18 24.346,12.18C24.81,12.18 25.186,11.804 25.186,11.341C25.186,7.978 23.876,4.817 21.499,2.439C21.171,2.111 20.639,2.111 20.312,2.439C19.984,2.767 19.984,3.298 20.312,3.626C22.372,5.687 23.507,8.426 23.507,11.341Z" fill="#E4E4E3"/>
<path d="M0.848,12.18C1.311,12.18 1.687,11.804 1.687,11.341C1.687,8.426 2.822,5.687 4.882,3.626C5.21,3.298 5.21,2.767 4.882,2.439C4.555,2.111 4.023,2.111 3.695,2.439C1.318,4.817 0.008,7.978 0.008,11.341C0.008,11.804 0.384,12.18 0.848,12.18Z" fill="#E4E4E3"/>
</svg>
