<svg width="36" height="32" viewBox="0 0 36 32" fill="none" xmlns="http://www.w3.org/2000/svg" xmlns:xlink="http://www.w3.org/1999/xlink">
<path d="M29.027,17.723L29.027,15.273C29.027,10.068 25.568,5.657 20.827,4.216L20.827,2.601C20.827,0.751 19.323,-0.754 17.473,-0.754C15.623,-0.754 14.119,0.751 14.119,2.601L14.119,4.216C9.378,5.657 5.919,10.068 5.919,15.273L5.919,17.723C5.919,22.294 4.176,26.629 1.012,29.929C0.702,30.253 0.615,30.73 0.79,31.142C0.966,31.554 1.371,31.821 1.819,31.821L33.127,31.821C33.575,31.821 33.98,31.554 34.156,31.142C34.331,30.73 34.244,30.253 33.934,29.929C30.77,26.629 29.027,22.294 29.027,17.723ZM18.591,3.773C18.223,3.737 17.85,3.719 17.473,3.719C17.096,3.719 16.723,3.737 16.355,3.773L16.355,2.601C16.355,1.984 16.856,1.482 17.473,1.482C18.09,1.482 18.591,1.984 18.591,2.601L18.591,3.773Z" fill="#E4E4E3"/>
<path d="M32.009,15.272C32.009,15.89 32.51,16.39 33.127,16.39C33.745,16.39 34.246,15.89 34.246,15.272C34.246,10.792 32.501,6.58 29.333,3.412C28.897,2.976 28.188,2.976 27.752,3.412C27.315,3.849 27.315,4.557 27.752,4.994C30.497,7.739 32.009,11.39 32.009,15.272Z" fill="#E4E4E3"/>
<path d="M1.819,16.39C2.436,16.39 2.937,15.89 2.937,15.272C2.937,11.39 4.449,7.739 7.194,4.994C7.631,4.557 7.631,3.849 7.194,3.412C6.758,2.976 6.05,2.976 5.613,3.412C2.445,6.58 0.701,10.792 0.701,15.272C0.701,15.89 1.201,16.39 1.819,16.39Z" fill="#E4E4E3"/>
</svg>
