<svg width="30" height="32" viewBox="0 0 30 32" fill="none" xmlns="http://www.w3.org/2000/svg" xmlns:xlink="http://www.w3.org/1999/xlink">
<path d="M-0.877,9.516C8.487,16.198 17.737,22.798 27,29.408C25.975,30.901 24.486,31.474 22.768,31.484C16.468,31.521 10.167,31.531 3.867,31.484C1.119,31.463 -0.945,29.659 -0.969,27.24C-1.025,21.525 -0.989,15.81 -0.986,10.094C-0.986,9.962 -0.938,9.83 -0.877,9.516Z" fill="#E4E4E3"/>
<path d="M-0.869,-0.484C9.165,6.198 19.075,12.798 29,19.408C27.902,20.901 26.307,21.474 24.466,21.484C17.716,21.521 10.965,21.531 4.215,21.484C1.27,21.463 -0.941,19.659 -0.967,17.24C-1.027,11.525 -0.988,5.81 -0.984,0.094C-0.984,-0.038 -0.933,-0.17 -0.869,-0.484Z" transform="rotate(360 14 10.516)" fill="#E4E4E3"/>
</svg>
