<svg width="30" height="34" viewBox="0 0 30 34" fill="none" xmlns="http://www.w3.org/2000/svg" xmlns:xlink="http://www.w3.org/1999/xlink">
<path d="M0.123,10.203C9.487,16.886 18.737,23.486 28,30.096C26.975,31.589 25.486,32.162 23.768,32.172C17.468,32.209 11.167,32.219 4.867,32.172C2.119,32.151 0.055,30.346 0.031,27.927C-0.025,22.213 0.011,16.497 0.014,10.782C0.014,10.65 0.062,10.517 0.123,10.203Z" fill="#E4E4E3"/>
<path d="M0.131,0.203C10.165,6.886 20.075,13.486 30,20.096C28.902,21.589 27.307,22.162 25.466,22.172C18.716,22.209 11.965,22.219 5.215,22.172C2.27,22.151 0.059,20.346 0.033,17.928C-0.027,12.213 0.012,6.497 0.016,0.782C0.016,0.65 0.067,0.517 0.131,0.203Z" transform="rotate(360 15 11.203)" fill="#E4E4E3"/>
</svg>
