<svg width="36" height="46" viewBox="0 0 36 46" fill="none" xmlns="http://www.w3.org/2000/svg" xmlns:xlink="http://www.w3.org/1999/xlink">
<path d="M26.991,14.276C26.991,16.501 27.011,18.73 26.991,20.955C26.942,25.688 23.084,29.287 18.049,29.312C13.023,29.338 9.067,25.735 9.03,21.029C8.994,16.531 8.986,12.029 9.03,7.531C9.071,2.901 12.978,-0.658 17.96,-0.687C22.982,-0.717 26.922,2.89 26.983,7.596C27.011,9.822 26.987,12.051 26.987,14.276L26.991,14.276Z" fill="#E4E4E3"/>
<path d="M20.348,37.618L20.348,40.82C21.724,40.82 23.071,40.808 24.418,40.82C26.311,40.84 27.34,41.636 27.348,43.05C27.353,44.468 26.319,45.292 24.439,45.3C20.124,45.316 15.804,45.316 11.489,45.3C9.617,45.292 8.584,44.456 8.601,43.034C8.618,41.62 9.647,40.844 11.548,40.816C12.759,40.8 13.97,40.8 15.182,40.784C15.275,40.784 15.368,40.719 15.554,40.647L15.554,37.646C14.932,37.501 14.284,37.352 13.636,37.204C6.517,35.564 1.101,29.389 0.732,22.441C0.648,20.846 0.656,19.243 0.703,17.644C0.741,16.286 1.66,15.378 2.892,15.333C4.163,15.289 5.166,16.25 5.226,17.664C5.289,19.163 5.17,20.673 5.323,22.16C6.051,29.168 11.468,33.575 18.925,33.31C25.477,33.077 30.588,27.777 30.694,21.095C30.715,19.846 30.664,18.592 30.74,17.347C30.817,16.105 31.689,15.406 32.904,15.366C34.124,15.325 35.081,15.98 35.191,17.21C35.763,23.558 34.67,29.381 29.224,33.8C26.675,35.866 23.719,37.035 20.34,37.614L20.348,37.618Z" fill="#E4E4E3"/>
</svg>
