<svg width="46" height="56" viewBox="0 0 46 56" fill="none" xmlns="http://www.w3.org/2000/svg" xmlns:xlink="http://www.w3.org/1999/xlink">
<path d="M0.238,50.899C-0.716,52.254 -0.392,54.125 0.962,55.08C2.316,56.035 4.187,55.711 5.142,54.357L0.238,50.899ZM23.617,16.142L21.058,14.577L21.058,14.577L23.617,16.142ZM39.302,9.958C40.959,9.958 42.302,8.615 42.302,6.958C42.302,5.301 40.959,3.958 39.302,3.958L39.302,9.958ZM5.142,54.357C9.32,48.43 12.793,42.164 16.1,35.966C19.432,29.722 22.572,23.599 26.176,17.708L21.058,14.577C17.334,20.663 14.075,27.018 10.807,33.141C7.515,39.31 4.188,45.297 0.238,50.899L5.142,54.357ZM26.176,17.708C29.216,12.74 33.683,9.958 39.302,9.958L39.302,3.958C31.334,3.958 25.045,8.061 21.058,14.577L26.176,17.708Z" fill="#F51D1D"/>
<path d="M30.814,-0.418C29.242,-0.942 27.543,-0.092 27.019,1.48C26.495,3.052 27.345,4.751 28.916,5.275L30.814,-0.418ZM39.427,8.006L41.116,5.527L41.116,5.527L39.427,8.006ZM41.021,12.787L38.137,11.96L41.021,12.787ZM36.533,22.558L33.977,20.988L33.977,20.988L36.533,22.558ZM32.149,26.207C32.149,27.864 33.492,29.207 35.149,29.207C36.806,29.207 38.149,27.864 38.149,26.207L32.149,26.207ZM28.916,5.275C31.722,6.21 34.64,8.375 37.738,10.486L41.116,5.527C38.457,3.716 34.632,0.855 30.814,-0.418L28.916,5.275ZM37.738,10.486C38.222,10.815 38.444,11.002 38.547,11.105C38.62,11.178 38.523,11.1 38.455,10.897C38.391,10.706 38.427,10.621 38.407,10.796C38.384,11 38.314,11.344 38.137,11.96L43.904,13.614C44.264,12.359 44.705,10.671 44.147,8.998C43.567,7.259 42.153,6.233 41.116,5.527L37.738,10.486ZM38.137,11.96C37.233,15.111 35.78,18.055 33.977,20.988L39.089,24.129C41.071,20.905 42.803,17.453 43.904,13.614L38.137,11.96ZM33.977,20.988C33.348,22.012 32.149,23.888 32.149,26.207L38.149,26.207C38.149,25.831 38.34,25.348 39.089,24.129L33.977,20.988Z" fill="#F51D1D"/>
</svg>
