<svg width="1648" height="1318" viewBox="0 0 1648 1318" fill="none" xmlns="http://www.w3.org/2000/svg" xmlns:xlink="http://www.w3.org/1999/xlink">
<path d="M2.713,-0.273C1.056,-0.273 -0.287,1.07 -0.287,2.727C-0.287,4.384 1.056,5.727 2.713,5.727L2.713,-0.273ZM177.602,39.172L175.816,41.583L175.816,41.583L177.602,39.172ZM208.491,62.505L210.113,59.981L208.491,62.505ZM240.713,103.616L242.567,101.257L240.713,103.616ZM264.935,131.838L262.585,133.702L262.585,133.702L264.935,131.838ZM310.713,192.727L313.229,191.095L310.713,192.727ZM330.713,345.171L333.713,345.209L330.713,345.171ZM331.601,455.393L334.571,454.965L331.601,455.393ZM342.601,550.505L345.601,550.419L342.601,550.505ZM348.825,777.949L345.827,778.079L348.825,777.949ZM365.825,1004.283L368.815,1004.055L365.825,1004.283ZM386.047,1108.727L388.769,1107.467L386.047,1108.727ZM444.047,1180.949L446.177,1178.837L446.177,1178.837L444.047,1180.949ZM560.713,1261.393L561.613,1258.531L560.713,1261.393ZM576.491,1263.615L576.959,1260.653L576.491,1263.615ZM718.935,1292.727L718.393,1295.677L718.935,1292.727ZM844.269,1311.839L844.435,1308.843L844.269,1311.839ZM1113.825,1264.283L1113.347,1261.321L1113.825,1264.283ZM1258.713,1234.727L1259.439,1237.637L1259.439,1237.637L1258.713,1234.727ZM1298.935,1215.393L1297.005,1213.097L1298.935,1215.393ZM1386.379,1133.839L1388.785,1135.631L1388.785,1135.631L1386.379,1133.839ZM1441.603,1044.283L1439.263,1042.403L1441.603,1044.283ZM1491.157,990.283L1493.315,992.367L1491.157,990.283ZM1565.935,868.061L1563.121,867.021L1565.935,868.061ZM1600.603,755.171L1597.607,754.985L1600.603,755.171ZM1609.157,717.839L1606.261,717.061L1609.157,717.839ZM1631.491,631.505L1628.587,630.749L1631.491,631.505ZM1647.713,578.727C1647.713,577.071 1646.371,575.727 1644.713,575.727C1643.057,575.727 1641.713,577.071 1641.713,578.727L1647.713,578.727ZM2.713,5.727C43.285,5.727 83.543,8.694 122.874,18.527L124.329,12.706C84.35,2.711 43.559,-0.273 2.713,-0.273L2.713,5.727ZM122.874,18.527C142.64,23.468 159.829,29.746 175.816,41.583L179.387,36.761C162.505,24.262 144.463,17.739 124.329,12.706L122.874,18.527ZM175.816,41.583C180.909,45.353 185.868,49.398 191.012,53.457C196.121,57.487 201.366,61.491 206.869,65.029L210.113,59.981C204.865,56.607 199.805,52.751 194.729,48.746C189.687,44.769 184.577,40.604 179.387,36.761L175.816,41.583ZM206.869,65.029C213.941,69.575 218.101,76.406 222.443,84.062C226.683,91.539 231.135,99.906 238.859,105.975L242.567,101.257C235.957,96.063 232.067,88.869 227.663,81.103C223.361,73.516 218.577,65.422 210.113,59.981L206.869,65.029ZM238.859,105.975C243.369,109.518 247.381,113.998 251.249,118.863C253.179,121.292 255.053,123.786 256.931,126.293C258.801,128.788 260.681,131.299 262.585,133.702L267.287,129.975C265.443,127.648 263.615,125.205 261.733,122.695C259.861,120.196 257.937,117.634 255.945,115.129C251.965,110.124 247.615,105.224 242.567,101.257L238.859,105.975ZM262.585,133.702C278.515,153.806 294.345,173.007 308.197,194.36L313.229,191.095C299.183,169.439 283.115,149.949 267.287,129.975L262.585,133.702ZM308.197,194.36C322.035,215.693 327.131,240.725 328.633,266.863C330.145,293.117 328.029,319.879 327.713,345.133L333.713,345.209C334.021,320.525 336.149,293.021 334.623,266.517C333.093,239.895 327.875,213.673 313.229,191.095L308.197,194.36ZM327.713,345.133C327.257,381.565 323.277,418.641 328.633,455.821L334.571,454.965C329.303,418.399 333.247,382.403 333.713,345.209L327.713,345.133ZM328.633,455.821C333.235,487.773 338.691,518.647 339.603,550.591L345.601,550.419C344.675,518.029 339.137,486.659 334.571,454.965L328.633,455.821ZM339.603,550.591C341.765,626.247 342.529,702.245 345.827,778.079L351.821,777.819C348.527,702.027 347.767,626.241 345.601,550.419L339.603,550.591ZM345.827,778.079C346.657,797.161 349.147,816.259 351.407,835.159C353.673,854.113 355.713,872.901 355.713,891.615L361.713,891.615C361.713,872.507 359.631,853.401 357.365,834.447C355.093,815.441 352.639,796.617 351.821,777.819L345.827,778.079ZM355.713,891.615C355.713,929.389 359.983,967.201 362.833,1004.511L368.815,1004.055C365.943,966.451 361.713,929.085 361.713,891.615L355.713,891.615ZM362.833,1004.511C365.479,1039.171 368.131,1077.169 383.323,1109.987L388.769,1107.467C374.115,1075.815 371.481,1038.971 368.815,1004.055L362.833,1004.511ZM383.323,1109.987C396.333,1138.085 421.237,1162.189 441.915,1183.061L446.177,1178.837C425.231,1157.693 401.237,1134.397 388.769,1107.467L383.323,1109.987ZM441.915,1183.061C474.853,1216.309 513.559,1249.719 559.813,1264.255L561.613,1258.531C516.839,1244.459 479.003,1211.973 446.177,1178.837L441.915,1183.061ZM559.813,1264.255C562.707,1265.165 565.575,1265.533 568.265,1265.785C571.045,1266.047 573.487,1266.179 576.023,1266.579L576.959,1260.653C574.175,1260.213 571.311,1260.045 568.827,1259.813C566.251,1259.571 563.889,1259.247 561.613,1258.531L559.813,1264.255ZM576.023,1266.579C599.819,1270.337 623.449,1275.409 647.131,1280.647C670.787,1285.881 694.517,1291.289 718.393,1295.677L719.477,1289.777C695.737,1285.411 672.141,1280.035 648.427,1274.789C624.739,1269.549 600.953,1264.441 576.959,1260.653L576.023,1266.579ZM718.393,1295.677C759.807,1303.291 801.559,1312.483 844.103,1314.833L844.435,1308.843C802.385,1306.521 761.181,1297.443 719.477,1289.777L718.393,1295.677ZM844.103,1314.833C878.465,1316.731 916.171,1318.649 950.441,1310.081L948.985,1304.261C915.743,1312.571 878.955,1310.749 844.435,1308.843L844.103,1314.833ZM950.441,1310.081C978.191,1303.145 1005.199,1294.669 1032.157,1286.843C1059.165,1279.001 1086.213,1271.779 1114.303,1267.245L1113.347,1261.321C1084.885,1265.917 1057.553,1273.221 1030.483,1281.081C1003.361,1288.955 976.589,1297.361 948.985,1304.261L950.441,1310.081ZM1114.303,1267.245C1163.267,1259.339 1211.275,1249.647 1259.439,1237.637L1257.987,1231.817C1209.999,1243.781 1162.157,1253.441 1113.347,1261.321L1114.303,1267.245ZM1259.439,1237.637C1268.583,1235.359 1275.425,1233.369 1281.753,1230.427C1288.119,1227.465 1293.841,1223.597 1300.867,1217.689L1297.005,1213.097C1290.235,1218.789 1284.961,1222.317 1279.223,1224.985C1273.445,1227.673 1267.075,1229.551 1257.987,1231.817L1259.439,1237.637ZM1300.867,1217.689C1330.715,1192.589 1364.839,1167.769 1388.785,1135.631L1383.975,1132.045C1360.575,1163.451 1327.331,1187.595 1297.005,1213.097L1300.867,1217.689ZM1388.785,1135.631C1399.423,1121.353 1407.755,1105.697 1416.119,1090.353C1424.519,1074.941 1432.969,1059.809 1443.941,1046.163L1439.263,1042.403C1427.915,1056.519 1419.237,1072.095 1410.851,1087.483C1402.425,1102.941 1394.305,1118.179 1383.975,1132.045L1388.785,1135.631ZM1443.941,1046.163C1459.309,1027.045 1475.941,1010.341 1493.315,992.367L1489.001,988.197C1471.719,1006.075 1454.847,1023.017 1439.263,1042.403L1443.941,1046.163ZM1493.315,992.367C1527.299,957.211 1551.937,914.593 1568.749,869.101L1563.121,867.021C1546.543,911.881 1522.307,953.743 1489.001,988.197L1493.315,992.367ZM1568.749,869.101C1572.131,859.947 1575.825,850.835 1579.523,841.635C1583.215,832.453 1586.909,823.191 1590.257,813.819C1596.955,795.073 1602.321,775.753 1603.597,755.359L1597.607,754.985C1596.383,774.581 1591.217,793.301 1584.607,811.799C1581.303,821.049 1577.649,830.211 1573.955,839.397C1570.269,848.567 1566.541,857.769 1563.121,867.021L1568.749,869.101ZM1603.597,755.359C1604.419,742.203 1608.359,732.395 1612.055,718.615L1606.261,717.061C1602.761,730.105 1598.481,741.029 1597.607,754.985L1603.597,755.359ZM1612.055,718.615C1619.759,689.901 1626.929,660.975 1634.395,632.259L1628.587,630.749C1621.095,659.567 1613.959,688.363 1606.261,717.061L1612.055,718.615ZM1634.395,632.259C1636.585,623.839 1639.785,615.383 1642.621,606.249C1645.399,597.305 1647.713,588.001 1647.713,578.727L1641.713,578.727C1641.713,587.071 1639.623,595.673 1636.891,604.471C1634.219,613.081 1630.809,622.207 1628.587,630.749L1634.395,632.259Z" fill="#F24822"/>
<path d="M110.213,743.727C108.557,743.727 107.213,745.071 107.213,746.727C107.213,748.384 108.557,749.727 110.213,749.727L110.213,743.727ZM124.713,749.2L124.901,746.206L124.713,749.2ZM129.88,749.45L129.195,752.37L129.88,749.45ZM136.602,752.227L135.732,755.099L136.602,752.227ZM146.491,762.45L143.593,761.674L146.491,762.45ZM127.38,776.839L128.285,779.699L127.38,776.839ZM61.713,778.839L61.501,781.831L61.713,778.839ZM54.269,778.7L54.419,775.703L54.269,778.7ZM43.936,773.228L46.787,772.295L43.936,773.228ZM44.519,761.922L47.241,763.183L44.519,761.922ZM47.824,756.283L45.378,754.547L47.824,756.283ZM52.491,751.227L50.103,749.412L50.103,749.412L52.491,751.227ZM57.102,748.977L56.703,746.004L57.102,748.977ZM78.491,745.061L77.858,742.128L78.491,745.061ZM114.713,745.727C116.37,745.727 117.713,744.384 117.713,742.727C117.713,741.071 116.37,739.727 114.713,739.727L114.713,745.727ZM110.213,749.727C112.313,749.727 114.376,750.18 116.764,750.762C119.054,751.32 121.717,752.018 124.526,752.194L124.901,746.206C122.736,746.07 120.65,745.533 118.184,744.932C115.815,744.355 113.115,743.727 110.213,743.727L110.213,749.727ZM124.526,752.194C125.507,752.255 126.611,752.217 127.307,752.216C128.114,752.216 128.697,752.254 129.195,752.37L130.565,746.529C129.374,746.25 128.23,746.216 127.304,746.216C126.268,746.217 125.633,746.251 124.901,746.206L124.526,752.194ZM129.195,752.37C129.99,752.557 130.811,752.928 131.928,753.475C132.946,753.973 134.29,754.661 135.732,755.099L137.472,749.356C136.598,749.091 135.747,748.664 134.566,748.086C133.483,747.556 132.102,746.889 130.565,746.529L129.195,752.37ZM135.732,755.099C138.022,755.792 140.437,756.723 142.059,757.989C142.84,758.599 143.298,759.181 143.526,759.711C143.731,760.187 143.829,760.792 143.593,761.674L149.389,763.225C149.955,761.111 149.803,759.118 149.036,757.338C148.293,755.611 147.056,754.278 145.75,753.259C143.198,751.267 139.866,750.082 137.472,749.356L135.732,755.099ZM143.593,761.674C142.912,764.218 140.532,766.78 136.994,769.091C133.555,771.336 129.528,773.013 126.475,773.978L128.285,779.699C131.706,778.617 136.262,776.734 140.274,774.115C144.186,771.56 148.124,767.951 149.389,763.225L143.593,761.674ZM126.475,773.978C112.621,778.361 98.015,777.228 82.658,777.228L82.658,783.228C97.336,783.228 113.287,784.443 128.285,779.699L126.475,773.978ZM82.658,777.228C75.779,777.228 69.141,776.357 61.925,775.846L61.501,781.831C68.247,782.309 75.509,783.228 82.658,783.228L82.658,777.228ZM61.925,775.846C60.563,775.75 59.222,775.747 57.984,775.75C56.714,775.753 55.563,775.761 54.419,775.703L54.119,781.696C55.455,781.763 56.786,781.752 57.998,781.75C59.241,781.747 60.383,781.752 61.501,781.831L61.925,775.846ZM54.419,775.703C53.818,775.673 53.237,775.496 52.374,775.139C51.615,774.824 50.36,774.234 49.024,773.9L47.569,779.721C48.34,779.914 48.944,780.212 50.08,780.682C51.113,781.11 52.466,781.613 54.119,781.696L54.419,775.703ZM49.024,773.9C47.948,773.631 47.573,773.467 47.365,773.318C47.279,773.256 47.047,773.089 46.787,772.295L41.084,774.16C41.642,775.866 42.515,777.222 43.868,778.193C45.099,779.076 46.496,779.453 47.569,779.721L49.024,773.9ZM46.787,772.295C46.457,771.286 46.274,769.568 46.37,767.658C46.466,765.738 46.82,764.091 47.241,763.183L41.797,760.661C40.918,762.558 40.492,765.071 40.378,767.358C40.263,769.653 40.438,772.184 41.084,774.16L46.787,772.295ZM47.241,763.183C48.084,761.365 49.08,759.698 50.271,758.019L45.378,754.547C44.01,756.476 42.817,758.459 41.797,760.661L47.241,763.183ZM50.271,758.019C50.782,757.299 51.409,756.67 52.235,755.873C53.006,755.129 54.012,754.184 54.88,753.043L50.103,749.412C49.571,750.112 48.935,750.72 48.069,751.555C47.257,752.338 46.251,753.317 45.378,754.547L50.271,758.019ZM54.88,753.043C55.336,752.443 55.544,752.353 55.644,752.31C55.899,752.199 56.289,752.114 57.502,751.951L56.703,746.004C55.66,746.144 54.412,746.305 53.259,746.804C51.951,747.371 50.982,748.255 50.103,749.412L54.88,753.043ZM57.502,751.951C64.837,750.965 71.983,749.536 79.125,747.993L77.858,742.128C70.763,743.661 63.801,745.051 56.703,746.004L57.502,751.951ZM79.125,747.993C90.838,745.463 102.314,745.727 114.713,745.727L114.713,739.727C102.553,739.727 90.338,739.432 77.858,742.128L79.125,747.993Z" fill="#F24822"/>
</svg>
