<svg width="34" height="34" viewBox="0 0 34 34" fill="none" xmlns="http://www.w3.org/2000/svg" xmlns:xlink="http://www.w3.org/1999/xlink">
<path d="M31.46,4.798C32.373,3.884 32.373,2.402 31.46,1.489C30.546,0.575 29.065,0.575 28.151,1.489L31.46,4.798ZM0.074,29.565C-0.84,30.479 -0.84,31.96 0.074,32.874C0.988,33.788 2.469,33.788 3.383,32.874L0.074,29.565ZM28.151,1.489L0.074,29.565L3.383,32.874L31.46,4.798L28.151,1.489Z" fill="#E4E4E3"/>
<path d="M3.383,1.489C2.469,0.575 0.988,0.575 0.074,1.489C-0.84,2.402 -0.84,3.884 0.074,4.798L3.383,1.489ZM28.151,32.874C29.065,33.788 30.546,33.788 31.46,32.874C32.373,31.96 32.373,30.479 31.46,29.565L28.151,32.874ZM0.074,4.798L28.151,32.874L31.46,29.565L3.383,1.489L0.074,4.798Z" fill="#E4E4E3"/>
</svg>
