<svg width="128" height="34" viewBox="0 0 128 34" fill="none" xmlns="http://www.w3.org/2000/svg" xmlns:xlink="http://www.w3.org/1999/xlink">
<line x1="0.213" y1="-3.273" x2="70.713" y2="-3.273" stroke="#FFCD29" stroke-width="3" stroke-miterlimit="3.999327" stroke-linecap="round" stroke-linejoin="round"/>
<path d="M39.736,2.855C39.531,4.499 40.697,5.999 42.341,6.204C43.985,6.41 45.484,5.244 45.69,3.6L39.736,2.855ZM46.602,14.616L49.244,13.196L46.602,14.616ZM62.185,26.311L61.148,29.126L62.185,26.311ZM77.018,29.477L77.251,26.486L77.018,29.477ZM107.074,30.7L107.14,33.699L107.074,30.7ZM124.895,30.485C126.417,29.832 127.123,28.069 126.47,26.546C125.818,25.023 124.054,24.317 122.531,24.97L124.895,30.485ZM45.69,3.6C45.713,3.411 45.724,3.411 45.695,3.51C45.681,3.558 45.628,3.733 45.504,3.958C45.405,4.136 45.082,4.679 44.385,5.061C43.495,5.548 42.505,5.502 41.74,5.143C41.142,4.861 40.817,4.458 40.718,4.329C40.502,4.049 40.434,3.835 40.474,3.935C40.61,4.278 40.847,5.219 41.209,6.781C41.539,8.204 41.934,9.956 42.366,11.565C42.779,13.104 43.302,14.814 43.959,16.037L49.244,13.196C48.952,12.652 48.576,11.557 48.16,10.008C47.763,8.528 47.397,6.908 47.054,5.427C46.744,4.086 46.396,2.594 46.053,1.727C45.973,1.525 45.792,1.084 45.47,0.666C45.317,0.468 44.941,0.018 44.293,-0.287C43.479,-0.67 42.441,-0.715 41.505,-0.203C40.761,0.204 40.395,0.798 40.254,1.053C40.087,1.354 39.993,1.632 39.941,1.811C39.834,2.173 39.775,2.547 39.736,2.855L45.69,3.6ZM43.959,16.037C48.012,23.577 53.936,26.469 61.148,29.126L63.222,23.496C56.373,20.972 52.222,18.737 49.244,13.196L43.959,16.037ZM61.148,29.126C66.342,31.039 71.312,32.042 76.786,32.468L77.251,26.486C72.265,26.098 67.843,25.198 63.222,23.496L61.148,29.126ZM76.786,32.468C86.767,33.245 96.969,33.922 107.14,33.699L107.008,27.7C97.16,27.917 87.216,27.262 77.251,26.486L76.786,32.468ZM107.14,33.699C112.836,33.574 119.208,32.922 124.895,30.485L122.531,24.97C117.902,26.954 112.444,27.581 107.008,27.7L107.14,33.699Z" fill="#FFCD29"/>
</svg>
