<svg width="52" height="54" viewBox="0 0 52 54" fill="none" xmlns="http://www.w3.org/2000/svg" xmlns:xlink="http://www.w3.org/1999/xlink">
<path d="M1.155,7.684C2.471,6.368 4.256,5.629 6.117,5.629L22.491,5.629C23.783,5.629 24.83,6.676 24.83,7.968C24.83,9.26 23.783,10.307 22.491,10.307L6.117,10.307C5.497,10.307 4.902,10.554 4.463,10.992C4.024,11.431 3.778,12.026 3.778,12.646L3.778,45.394C3.778,46.014 4.024,46.609 4.463,47.048C4.902,47.487 5.497,47.733 6.117,47.733L38.865,47.733C39.485,47.733 40.08,47.487 40.519,47.048C40.957,46.609 41.204,46.014 41.204,45.394L41.204,29.02C41.204,27.728 42.251,26.681 43.543,26.681C44.835,26.681 45.882,27.728 45.882,29.02L45.882,45.394C45.882,47.255 45.143,49.04 43.827,50.356C42.511,51.672 40.726,52.411 38.865,52.411L6.117,52.411C4.256,52.411 2.471,51.672 1.155,50.356C-0.161,49.04 -0.9,47.255 -0.9,45.394L-0.9,12.646C-0.9,10.785 -0.161,9 1.155,7.684Z" clip-rule="evenodd" fill-rule="evenodd" fill="#E4E4E3"/>
<path d="M43.541,5.346C42.846,5.346 42.179,5.623 41.687,6.114L19.923,27.878L18.687,32.824L23.633,31.587L45.396,9.824C45.888,9.332 46.164,8.665 46.164,7.969C46.164,7.273 45.888,6.606 45.396,6.114C44.904,5.623 44.237,5.346 43.541,5.346ZM38.379,2.806C39.748,1.437 41.605,0.668 43.541,0.668C45.478,0.668 47.335,1.437 48.704,2.806C50.073,4.176 50.843,6.033 50.843,7.969C50.843,9.906 50.073,11.763 48.704,13.132L26.482,35.353C26.183,35.653 25.807,35.866 25.396,35.969L16.039,38.308C15.242,38.507 14.399,38.274 13.818,37.693C13.237,37.112 13.003,36.268 13.203,35.471L15.542,26.115C15.645,25.704 15.857,25.328 16.157,25.028L38.379,2.806Z" clip-rule="evenodd" fill-rule="evenodd" fill="#E4E4E3"/>
</svg>
