<svg width="34" height="32" viewBox="0 0 34 32" fill="none" xmlns="http://www.w3.org/2000/svg" xmlns:xlink="http://www.w3.org/1999/xlink">
<path d="M28.027,17.719L28.027,15.269C28.027,10.064 24.568,5.653 19.827,4.212L19.827,2.597C19.827,0.747 18.323,-0.758 16.473,-0.758C14.623,-0.758 13.119,0.747 13.119,2.597L13.119,4.212C8.378,5.653 4.919,10.064 4.919,15.269L4.919,17.719C4.919,22.291 3.176,26.626 0.012,29.926C-0.298,30.249 -0.385,30.726 -0.21,31.138C-0.034,31.55 0.371,31.818 0.819,31.818L32.127,31.818C32.575,31.818 32.98,31.55 33.156,31.138C33.331,30.726 33.244,30.249 32.934,29.926C29.77,26.626 28.027,22.29 28.027,17.719ZM17.591,3.769C17.223,3.734 16.85,3.715 16.473,3.715C16.096,3.715 15.723,3.734 15.355,3.769L15.355,2.597C15.355,1.98 15.856,1.478 16.473,1.478C17.09,1.478 17.591,1.98 17.591,2.597L17.591,3.769Z" fill="#E4E4E3"/>
<path d="M31.009,15.265C31.009,15.883 31.51,16.384 32.127,16.384C32.745,16.384 33.246,15.883 33.246,15.265C33.246,10.785 31.501,6.573 28.333,3.406C27.897,2.969 27.188,2.969 26.752,3.406C26.315,3.842 26.315,4.55 26.752,4.987C29.497,7.732 31.009,11.383 31.009,15.265Z" fill="#E4E4E3"/>
<path d="M0.819,16.384C1.436,16.384 1.937,15.883 1.937,15.265C1.937,11.383 3.449,7.732 6.194,4.987C6.631,4.55 6.631,3.842 6.194,3.406C5.758,2.969 5.05,2.969 4.613,3.406C1.445,6.574 -0.299,10.785 -0.299,15.265C-0.299,15.883 0.201,16.384 0.819,16.384Z" fill="#E4E4E3"/>
</svg>
