<svg width="34" height="34" viewBox="0 0 34 34" fill="none" xmlns="http://www.w3.org/2000/svg" xmlns:xlink="http://www.w3.org/1999/xlink">
<path d="M28.026,18.953L28.026,16.504C28.026,11.299 24.566,6.887 19.826,5.447L19.826,3.831C19.826,1.982 18.321,0.477 16.472,0.477C14.622,0.477 13.117,1.982 13.117,3.831L13.117,5.447C8.377,6.887 4.917,11.299 4.917,16.504L4.917,18.953C4.917,23.525 3.175,27.86 0.01,31.16C-0.3,31.484 -0.387,31.961 -0.211,32.373C-0.035,32.785 0.369,33.052 0.817,33.052L32.126,33.052C32.574,33.052 32.978,32.785 33.154,32.373C33.33,31.961 33.243,31.484 32.933,31.16C29.768,27.86 28.026,23.525 28.026,18.953ZM17.59,5.004C17.222,4.968 16.849,4.949 16.472,4.949C16.094,4.949 15.721,4.968 15.353,5.004L15.353,3.831C15.353,3.215 15.855,2.713 16.472,2.713C17.088,2.713 17.59,3.215 17.59,3.831L17.59,5.004Z" fill="#E4E4E3"/>
<path d="M31.007,16.503C31.007,17.121 31.507,17.621 32.125,17.621C32.743,17.621 33.243,17.121 33.243,16.503C33.243,12.023 31.499,7.811 28.331,4.643C27.894,4.207 27.186,4.207 26.749,4.643C26.313,5.08 26.313,5.788 26.749,6.225C29.495,8.97 31.007,12.62 31.007,16.503Z" fill="#E4E4E3"/>
<path d="M0.817,17.621C1.435,17.621 1.936,17.121 1.936,16.503C1.936,12.62 3.448,8.97 6.193,6.225C6.63,5.788 6.63,5.08 6.193,4.643C5.756,4.207 5.048,4.207 4.612,4.643C1.444,7.811 -0.301,12.023 -0.301,16.503C-0.301,17.121 0.2,17.621 0.817,17.621Z" fill="#E4E4E3"/>
</svg>
