<svg width="26" height="26" viewBox="0 0 26 26" fill="none" xmlns="http://www.w3.org/2000/svg" xmlns:xlink="http://www.w3.org/1999/xlink">
<path d="M21.268,14.378L21.268,12.54C21.268,8.633 18.671,5.322 15.113,4.241L15.113,3.028C15.113,1.64 13.984,0.511 12.595,0.511C11.207,0.511 10.078,1.64 10.078,3.028L10.078,4.241C6.52,5.322 3.923,8.633 3.923,12.54L3.923,14.378C3.923,17.81 2.615,21.064 0.24,23.541C0.008,23.783 -0.058,24.141 0.074,24.451C0.206,24.76 0.51,24.961 0.846,24.961L24.345,24.961C24.681,24.961 24.985,24.76 25.117,24.451C25.249,24.141 25.183,23.783 24.951,23.541C22.576,21.064 21.268,17.81 21.268,14.378ZM13.435,3.908C13.159,3.882 12.879,3.868 12.595,3.868C12.312,3.868 12.032,3.882 11.756,3.908L11.756,3.028C11.756,2.566 12.133,2.189 12.595,2.189C13.058,2.189 13.435,2.566 13.435,3.028L13.435,3.908Z" fill="#E4E4E3"/>
<path d="M23.506,12.54C23.506,13.003 23.882,13.379 24.345,13.379C24.808,13.379 25.184,13.003 25.184,12.54C25.184,9.177 23.875,6.016 21.497,3.638C21.169,3.311 20.638,3.311 20.31,3.638C19.983,3.966 19.983,4.497 20.31,4.825C22.371,6.886 23.506,9.626 23.506,12.54Z" fill="#E4E4E3"/>
<path d="M0.846,13.379C1.31,13.379 1.685,13.003 1.685,12.54C1.685,9.626 2.82,6.886 4.881,4.825C5.209,4.497 5.209,3.966 4.881,3.638C4.553,3.311 4.022,3.311 3.694,3.638C1.316,6.016 0.007,9.177 0.007,12.54C0.007,13.003 0.383,13.379 0.846,13.379Z" fill="#E4E4E3"/>
</svg>
