<svg width="34" height="34" viewBox="0 0 34 34" fill="none" xmlns="http://www.w3.org/2000/svg" xmlns:xlink="http://www.w3.org/1999/xlink">
<path d="M32.583,3.883C33.498,2.969 33.498,1.486 32.583,0.572C31.669,-0.342 30.187,-0.342 29.272,0.572L32.583,3.883ZM1.179,28.666C0.264,29.58 0.264,31.063 1.179,31.977C2.093,32.891 3.575,32.891 4.489,31.977L1.179,28.666ZM29.272,0.572L1.179,28.666L4.489,31.977L32.583,3.883L29.272,0.572Z" fill="#E4E4E3"/>
<path d="M4.489,0.572C3.575,-0.342 2.093,-0.342 1.179,0.572C0.264,1.486 0.264,2.969 1.179,3.883L4.489,0.572ZM29.272,31.977C30.187,32.891 31.669,32.891 32.583,31.977C33.498,31.063 33.498,29.58 32.583,28.666L29.272,31.977ZM1.179,3.883L29.272,31.977L32.583,28.666L4.489,0.572L1.179,3.883Z" fill="#E4E4E3"/>
</svg>
