<svg width="36" height="34" viewBox="0 0 36 34" fill="none" xmlns="http://www.w3.org/2000/svg" xmlns:xlink="http://www.w3.org/1999/xlink">
<path d="M29.027,18.945L29.027,16.496C29.027,11.291 25.567,6.879 20.827,5.439L20.827,3.823C20.827,1.974 19.322,0.469 17.473,0.469C15.623,0.469 14.118,1.974 14.118,3.823L14.118,5.439C9.378,6.879 5.918,11.291 5.918,16.496L5.918,18.945C5.918,23.517 4.176,27.852 1.011,31.152C0.701,31.476 0.614,31.953 0.79,32.365C0.966,32.777 1.37,33.044 1.818,33.044L33.127,33.044C33.575,33.044 33.979,32.777 34.155,32.365C34.331,31.953 34.244,31.476 33.934,31.152C30.769,27.852 29.027,23.517 29.027,18.945ZM18.591,4.996C18.223,4.96 17.85,4.941 17.473,4.941C17.095,4.941 16.722,4.96 16.354,4.996L16.354,3.823C16.354,3.207 16.856,2.705 17.473,2.705C18.089,2.705 18.591,3.207 18.591,3.823L18.591,4.996Z" fill="#E4E4E3"/>
<path d="M32.009,16.492C32.009,17.11 32.51,17.61 33.127,17.61C33.745,17.61 34.245,17.11 34.245,16.492C34.245,12.012 32.501,7.8 29.333,4.632C28.896,4.196 28.188,4.195 27.752,4.632C27.315,5.069 27.315,5.777 27.752,6.213C30.497,8.959 32.009,12.609 32.009,16.492Z" fill="#E4E4E3"/>
<path d="M1.818,17.61C2.436,17.61 2.936,17.109 2.936,16.492C2.936,12.609 4.449,8.959 7.194,6.213C7.631,5.777 7.631,5.069 7.194,4.632C6.757,4.196 6.049,4.196 5.613,4.632C2.445,7.8 0.7,12.012 0.7,16.492C0.7,17.109 1.201,17.61 1.818,17.61Z" fill="#E4E4E3"/>
</svg>
