<svg width="20" height="20" viewBox="0 0 20 20" fill="none" xmlns="http://www.w3.org/2000/svg" xmlns:xlink="http://www.w3.org/1999/xlink">
<path d="M17.718,2.874C18.248,2.345 18.248,1.487 17.718,0.958C17.189,0.428 16.331,0.428 15.802,0.958L17.718,2.874ZM-0.462,17.222C-0.992,17.751 -0.992,18.609 -0.462,19.138C0.067,19.668 0.925,19.668 1.454,19.138L-0.462,17.222ZM15.802,0.958L-0.462,17.222L1.454,19.138L17.718,2.874L15.802,0.958Z" fill="#E4E4E3"/>
<path d="M1.454,0.958C0.925,0.428 0.067,0.428 -0.462,0.958C-0.992,1.487 -0.992,2.345 -0.462,2.874L1.454,0.958ZM15.802,19.138C16.331,19.668 17.189,19.668 17.718,19.138C18.248,18.609 18.248,17.751 17.718,17.222L15.802,19.138ZM-0.462,2.874L15.802,19.138L17.718,17.222L1.454,0.958L-0.462,2.874Z" fill="#E4E4E3"/>
</svg>
