<svg width="26" height="24" viewBox="0 0 26 24" fill="none" xmlns="http://www.w3.org/2000/svg" xmlns:xlink="http://www.w3.org/1999/xlink">
<path d="M21.377,13.265L21.377,11.427C21.377,7.52 18.781,4.209 15.223,3.128L15.223,1.915C15.223,0.527 14.094,-0.603 12.705,-0.603C11.317,-0.603 10.188,0.527 10.188,1.915L10.188,3.128C6.63,4.209 4.033,7.52 4.033,11.427L4.033,13.265C4.033,16.697 2.725,19.95 0.35,22.427C0.117,22.67 0.052,23.028 0.184,23.337C0.316,23.647 0.62,23.847 0.956,23.847L24.455,23.847C24.791,23.847 25.095,23.647 25.227,23.337C25.358,23.028 25.293,22.67 25.06,22.427C22.685,19.95 21.377,16.697 21.377,13.265ZM13.545,2.795C13.268,2.769 12.988,2.754 12.705,2.754C12.422,2.754 12.142,2.769 11.866,2.795L11.866,1.915C11.866,1.452 12.243,1.076 12.705,1.076C13.168,1.076 13.545,1.452 13.545,1.915L13.545,2.795Z" fill="#E4E4E3"/>
<path d="M23.616,11.427C23.616,11.89 23.991,12.266 24.455,12.266C24.918,12.266 25.294,11.89 25.294,11.427C25.294,8.064 23.985,4.903 21.607,2.525C21.279,2.197 20.748,2.197 20.42,2.525C20.092,2.853 20.092,3.384 20.42,3.712C22.481,5.773 23.616,8.512 23.616,11.427Z" fill="#E4E4E3"/>
<path d="M0.956,12.266C1.419,12.266 1.795,11.89 1.795,11.427C1.795,8.512 2.93,5.773 4.991,3.712C5.318,3.384 5.318,2.853 4.991,2.525C4.663,2.197 4.132,2.197 3.804,2.525C1.426,4.903 0.117,8.064 0.117,11.427C0.117,11.89 0.492,12.266 0.956,12.266Z" fill="#E4E4E3"/>
</svg>
