<svg width="36" height="34" viewBox="0 0 36 34" fill="none" xmlns="http://www.w3.org/2000/svg" xmlns:xlink="http://www.w3.org/1999/xlink">
<path d="M29.026,18.185L29.026,15.736C29.026,10.531 25.566,6.12 20.826,4.679L20.826,3.063C20.826,1.214 19.321,-0.291 17.472,-0.291C15.622,-0.291 14.117,1.214 14.117,3.063L14.117,4.679C9.377,6.12 5.917,10.531 5.917,15.736L5.917,18.185C5.917,22.757 4.175,27.092 1.01,30.392C0.7,30.716 0.613,31.193 0.789,31.605C0.965,32.017 1.369,32.284 1.817,32.284L33.126,32.284C33.574,32.284 33.978,32.017 34.154,31.605C34.33,31.193 34.243,30.716 33.933,30.392C30.768,27.092 29.026,22.757 29.026,18.185ZM18.59,4.236C18.222,4.2 17.849,4.182 17.472,4.182C17.094,4.182 16.721,4.2 16.353,4.236L16.353,3.063C16.353,2.447 16.855,1.945 17.472,1.945C18.088,1.945 18.59,2.447 18.59,3.063L18.59,4.236Z" fill="#E4E4E3"/>
<path d="M32.007,15.735C32.007,16.353 32.507,16.853 33.125,16.853C33.743,16.853 34.243,16.353 34.243,15.735C34.243,11.255 32.499,7.043 29.331,3.875C28.894,3.439 28.186,3.439 27.749,3.875C27.313,4.312 27.313,5.02 27.749,5.457C30.495,8.202 32.007,11.852 32.007,15.735Z" fill="#E4E4E3"/>
<path d="M1.817,16.853C2.435,16.853 2.936,16.353 2.936,15.735C2.936,11.852 4.448,8.202 7.193,5.457C7.63,5.02 7.63,4.312 7.193,3.875C6.756,3.439 6.048,3.439 5.612,3.875C2.444,7.043 0.699,11.255 0.699,15.735C0.699,16.353 1.2,16.853 1.817,16.853Z" fill="#E4E4E3"/>
</svg>
