<svg width="26" height="26" viewBox="0 0 26 26" fill="none" xmlns="http://www.w3.org/2000/svg" xmlns:xlink="http://www.w3.org/1999/xlink">
<path d="M20.486,14.25L20.486,12.411C20.486,8.505 17.89,5.194 14.332,4.112L14.332,2.9C14.332,1.512 13.203,0.382 11.814,0.382C10.426,0.382 9.297,1.512 9.297,2.9L9.297,4.112C5.739,5.194 3.142,8.505 3.142,12.411L3.142,14.25C3.142,17.682 1.834,20.935 -0.541,23.412C-0.774,23.655 -0.839,24.013 -0.707,24.322C-0.575,24.632 -0.271,24.832 0.065,24.832L23.564,24.832C23.9,24.832 24.204,24.632 24.336,24.322C24.467,24.013 24.402,23.655 24.169,23.412C21.794,20.935 20.486,17.681 20.486,14.25ZM12.653,3.78C12.377,3.753 12.097,3.739 11.814,3.739C11.531,3.739 11.251,3.753 10.975,3.78L10.975,2.9C10.975,2.437 11.351,2.061 11.814,2.061C12.277,2.061 12.653,2.437 12.653,2.9L12.653,3.78Z" fill="#E4E4E3"/>
<path d="M22.725,12.411C22.725,12.875 23.1,13.251 23.564,13.251C24.027,13.251 24.403,12.875 24.403,12.411C24.403,9.049 23.094,5.888 20.716,3.51C20.388,3.182 19.857,3.182 19.529,3.51C19.201,3.838 19.201,4.369 19.529,4.697C21.59,6.757 22.725,9.497 22.725,12.411Z" fill="#E4E4E3"/>
<path d="M0.065,13.251C0.528,13.251 0.904,12.875 0.904,12.411C0.904,9.497 2.039,6.757 4.1,4.697C4.427,4.369 4.427,3.838 4.1,3.51C3.772,3.182 3.24,3.182 2.913,3.51C0.535,5.888 -0.774,9.049 -0.774,12.411C-0.774,12.875 -0.399,13.251 0.065,13.251Z" fill="#E4E4E3"/>
</svg>
