<svg width="46" height="44" viewBox="0 0 46 44" fill="none" xmlns="http://www.w3.org/2000/svg" xmlns:xlink="http://www.w3.org/1999/xlink">
<path d="M1.757,5.152C2.883,4.027 4.409,3.395 6,3.395L20,3.395C21.105,3.395 22,4.29 22,5.395C22,6.499 21.105,7.395 20,7.395L6,7.395C5.47,7.395 4.961,7.605 4.586,7.98C4.211,8.355 4,8.864 4,9.395L4,37.395C4,37.925 4.211,38.434 4.586,38.809C4.961,39.184 5.47,39.395 6,39.395L34,39.395C34.53,39.395 35.039,39.184 35.414,38.809C35.789,38.434 36,37.925 36,37.395L36,23.395C36,22.29 36.895,21.395 38,21.395C39.105,21.395 40,22.29 40,23.395L40,37.395C40,38.986 39.368,40.512 38.243,41.637C37.117,42.762 35.591,43.395 34,43.395L6,43.395C4.409,43.395 2.883,42.762 1.757,41.637C0.632,40.512 0,38.986 0,37.395L0,9.395C0,7.803 0.632,6.277 1.757,5.152Z" clip-rule="evenodd" fill-rule="evenodd" fill="#E4E4E3"/>
<path d="M38,3.152C37.405,3.152 36.835,3.389 36.414,3.809L17.806,22.418L16.749,26.646L20.978,25.589L39.586,6.981C40.006,6.56 40.243,5.99 40.243,5.395C40.243,4.8 40.006,4.23 39.586,3.809C39.165,3.389 38.595,3.152 38,3.152ZM33.586,0.981C34.757,-0.19 36.344,-0.848 38,-0.848C39.656,-0.848 41.244,-0.19 42.414,0.981C43.585,2.151 44.243,3.739 44.243,5.395C44.243,7.051 43.585,8.638 42.414,9.809L23.414,28.809C23.158,29.066 22.837,29.247 22.485,29.335L14.485,31.335C13.804,31.506 13.083,31.306 12.586,30.809C12.089,30.312 11.889,29.592 12.06,28.91L14.06,20.91C14.148,20.558 14.33,20.237 14.586,19.981L33.586,0.981Z" clip-rule="evenodd" fill-rule="evenodd" fill="#E4E4E3"/>
</svg>
