<svg width="26" height="26" viewBox="0 0 26 26" fill="none" xmlns="http://www.w3.org/2000/svg" xmlns:xlink="http://www.w3.org/1999/xlink">
<path d="M21.269,14.378L21.269,12.54C21.269,8.633 18.672,5.322 15.114,4.241L15.114,3.028C15.114,1.64 13.985,0.511 12.596,0.511C11.208,0.511 10.079,1.64 10.079,3.028L10.079,4.241C6.521,5.322 3.924,8.633 3.924,12.54L3.924,14.378C3.924,17.81 2.616,21.064 0.241,23.541C0.009,23.783 -0.057,24.141 0.075,24.451C0.207,24.76 0.511,24.961 0.847,24.961L24.346,24.961C24.682,24.961 24.986,24.76 25.118,24.451C25.25,24.141 25.184,23.783 24.952,23.541C22.577,21.064 21.269,17.81 21.269,14.378ZM13.436,3.908C13.159,3.882 12.88,3.868 12.596,3.868C12.313,3.868 12.033,3.882 11.757,3.908L11.757,3.028C11.757,2.566 12.134,2.189 12.596,2.189C13.059,2.189 13.436,2.566 13.436,3.028L13.436,3.908Z" fill="#E4E4E3"/>
<path d="M23.507,12.54C23.507,13.003 23.882,13.379 24.346,13.379C24.809,13.379 25.185,13.003 25.185,12.54C25.185,9.177 23.876,6.016 21.498,3.638C21.17,3.311 20.639,3.311 20.311,3.638C19.983,3.966 19.983,4.497 20.311,4.825C22.372,6.886 23.507,9.626 23.507,12.54Z" fill="#E4E4E3"/>
<path d="M0.847,13.379C1.311,13.379 1.686,13.003 1.686,12.54C1.686,9.626 2.821,6.886 4.882,4.825C5.21,4.497 5.21,3.966 4.882,3.638C4.554,3.311 4.023,3.311 3.695,3.638C1.317,6.016 0.008,9.177 0.008,12.54C0.008,13.003 0.384,13.379 0.847,13.379Z" fill="#E4E4E3"/>
</svg>
