<svg width="36" height="34" viewBox="0 0 36 34" fill="none" xmlns="http://www.w3.org/2000/svg" xmlns:xlink="http://www.w3.org/1999/xlink">
<path d="M29.027,18.492L29.027,16.042C29.027,10.838 25.568,6.426 20.827,4.985L20.827,3.37C20.827,1.52 19.323,0.016 17.473,0.016C15.623,0.016 14.119,1.52 14.119,3.37L14.119,4.985C9.378,6.426 5.919,10.838 5.919,16.042L5.919,18.492C5.919,23.064 4.176,27.399 1.012,30.699C0.702,31.022 0.615,31.5 0.79,31.912C0.966,32.324 1.371,32.591 1.819,32.591L33.127,32.591C33.575,32.591 33.98,32.324 34.156,31.912C34.331,31.5 34.244,31.022 33.934,30.699C30.77,27.399 29.027,23.064 29.027,18.492ZM18.591,4.542C18.223,4.507 17.85,4.488 17.473,4.488C17.096,4.488 16.723,4.507 16.355,4.542L16.355,3.37C16.355,2.754 16.856,2.252 17.473,2.252C18.09,2.252 18.591,2.754 18.591,3.37L18.591,4.542Z" fill="#E4E4E3"/>
<path d="M32.009,16.042C32.009,16.659 32.51,17.16 33.127,17.16C33.745,17.16 34.246,16.659 34.246,16.042C34.246,11.562 32.501,7.35 29.333,4.182C28.897,3.745 28.188,3.745 27.752,4.182C27.315,4.619 27.315,5.327 27.752,5.763C30.497,8.509 32.009,12.159 32.009,16.042Z" fill="#E4E4E3"/>
<path d="M1.819,17.16C2.436,17.16 2.937,16.659 2.937,16.042C2.937,12.159 4.449,8.509 7.194,5.763C7.631,5.327 7.631,4.619 7.194,4.182C6.758,3.745 6.05,3.745 5.613,4.182C2.445,7.35 0.701,11.562 0.701,16.042C0.701,16.659 1.201,17.16 1.819,17.16Z" fill="#E4E4E3"/>
</svg>
