<svg width="26" height="24" viewBox="0 0 26 24" fill="none" xmlns="http://www.w3.org/2000/svg" xmlns:xlink="http://www.w3.org/1999/xlink">
<path d="M21.271,13.265L21.271,11.427C21.271,7.52 18.674,4.209 15.116,3.128L15.116,1.915C15.116,0.527 13.987,-0.603 12.598,-0.603C11.21,-0.603 10.081,0.527 10.081,1.915L10.081,3.128C6.523,4.209 3.926,7.52 3.926,11.427L3.926,13.265C3.926,16.697 2.618,19.95 0.243,22.427C0.011,22.67 -0.055,23.028 0.077,23.337C0.209,23.647 0.513,23.847 0.849,23.847L24.348,23.847C24.684,23.847 24.988,23.647 25.12,23.337C25.252,23.028 25.186,22.67 24.954,22.427C22.579,19.95 21.271,16.697 21.271,13.265ZM13.438,2.795C13.161,2.769 12.882,2.754 12.598,2.754C12.315,2.754 12.035,2.769 11.759,2.795L11.759,1.915C11.759,1.452 12.136,1.076 12.598,1.076C13.061,1.076 13.438,1.452 13.438,1.915L13.438,2.795Z" fill="#E4E4E3"/>
<path d="M23.508,11.427C23.508,11.89 23.883,12.266 24.347,12.266C24.81,12.266 25.186,11.89 25.186,11.427C25.186,8.064 23.877,4.903 21.499,2.525C21.171,2.197 20.64,2.197 20.312,2.525C19.984,2.853 19.984,3.384 20.312,3.712C22.373,5.773 23.508,8.512 23.508,11.427Z" fill="#E4E4E3"/>
<path d="M0.849,12.266C1.312,12.266 1.688,11.89 1.688,11.427C1.688,8.512 2.823,5.773 4.884,3.712C5.211,3.384 5.211,2.853 4.884,2.525C4.556,2.197 4.025,2.197 3.697,2.525C1.319,4.903 0.01,8.064 0.01,11.427C0.01,11.89 0.386,12.266 0.849,12.266Z" fill="#E4E4E3"/>
</svg>
