<svg width="22" height="38" viewBox="0 0 22 38" fill="none" xmlns="http://www.w3.org/2000/svg" xmlns:xlink="http://www.w3.org/1999/xlink">
<path d="M16.064,11.497C16.064,13.351 16.076,15.209 16.064,17.063C16.035,21.007 13.713,24.006 10.683,24.027C7.659,24.049 5.279,21.046 5.257,17.124C5.235,13.376 5.23,9.624 5.257,5.876C5.281,2.018 7.632,-0.948 10.63,-0.973C13.652,-0.997 16.022,2.009 16.059,5.931C16.076,7.785 16.061,9.642 16.061,11.497L16.064,11.497Z" fill="#FFFFFF"/>
<path d="M12.065,30.95L12.065,33.619C12.893,33.619 13.703,33.609 14.513,33.619C15.653,33.636 16.272,34.299 16.277,35.477C16.279,36.659 15.658,37.346 14.526,37.352C11.93,37.366 9.33,37.366 6.734,37.352C5.608,37.346 4.986,36.649 4.996,35.464C5.006,34.285 5.625,33.639 6.769,33.616C7.498,33.602 8.227,33.602 8.956,33.589C9.012,33.589 9.068,33.535 9.18,33.475L9.18,30.974C8.806,30.853 8.416,30.729 8.026,30.605C3.742,29.239 0.483,24.093 0.261,18.303C0.21,16.974 0.216,15.638 0.244,14.305C0.266,13.174 0.819,12.417 1.561,12.38C2.325,12.343 2.929,13.144 2.965,14.322C3.003,15.571 2.932,16.83 3.024,18.069C3.462,23.909 6.721,27.582 11.208,27.361C15.151,27.167 18.226,22.75 18.29,17.182C18.303,16.14 18.272,15.096 18.318,14.058C18.364,13.023 18.889,12.44 19.62,12.407C20.354,12.373 20.93,12.919 20.996,13.944C21.34,19.234 20.683,24.086 17.406,27.769C15.872,29.49 14.093,30.465 12.06,30.947L12.065,30.95Z" fill="#FFFFFF"/>
</svg>
