<svg width="22" height="44" viewBox="0 0 22 44" fill="none" xmlns="http://www.w3.org/2000/svg" xmlns:xlink="http://www.w3.org/1999/xlink">
<path d="M3.265,1.967C3.265,0.35 2.329,-0.971 1.184,-0.971C0.038,-0.971 -0.887,0.35 -0.887,1.967L-0.887,19.738C0.204,18.168 1.657,17.111 3.265,16.784L3.265,1.967Z" fill="#E4E4E3"/>
<path d="M19.895,-0.971C18.749,-0.971 17.813,0.35 17.813,1.967L17.813,22.506C17.813,25.74 15.952,28.367 13.661,28.367L10.115,28.367C12.263,30.793 13.661,34.462 13.661,38.629C13.661,39.437 13.199,40.09 12.626,40.09C12.054,40.09 11.591,39.437 11.591,38.629C11.591,32.969 8.331,28.367 4.322,28.367C3.75,28.367 3.287,27.714 3.287,26.906C3.287,26.097 3.75,25.444 4.322,25.444L13.672,25.444C14.818,25.444 15.754,24.123 15.754,22.506C15.754,20.889 14.818,19.567 13.672,19.567L4.311,19.567C1.448,19.567 -0.887,22.848 -0.887,26.89L-0.887,29.829C-0.887,37.105 3.309,43.029 8.463,43.029L12.615,43.029C17.769,43.029 21.965,37.105 21.965,29.829L21.965,1.967C21.965,0.35 21.04,-0.971 19.895,-0.971Z" fill="#E4E4E3"/>
</svg>
