<svg width="34" height="34" viewBox="0 0 34 34" fill="none" xmlns="http://www.w3.org/2000/svg" xmlns:xlink="http://www.w3.org/1999/xlink">
<path d="M28.029,18.184L28.029,15.735C28.029,10.53 24.569,6.119 19.829,4.678L19.829,3.062C19.829,1.213 18.324,-0.292 16.474,-0.292C14.625,-0.292 13.12,1.213 13.12,3.062L13.12,4.678C8.38,6.119 4.92,10.53 4.92,15.735L4.92,18.184C4.92,22.756 3.177,27.091 0.013,30.391C-0.297,30.715 -0.384,31.192 -0.208,31.604C-0.033,32.016 0.372,32.283 0.82,32.283L32.128,32.283C32.576,32.283 32.981,32.016 33.157,31.604C33.333,31.192 33.246,30.715 32.936,30.391C29.771,27.091 28.029,22.756 28.029,18.184ZM17.592,4.235C17.224,4.199 16.851,4.181 16.474,4.181C16.097,4.181 15.724,4.199 15.356,4.235L15.356,3.062C15.356,2.446 15.858,1.944 16.474,1.944C17.091,1.944 17.592,2.446 17.592,3.062L17.592,4.235Z" fill="#E4E4E3"/>
<path d="M31.011,15.734C31.011,16.352 31.511,16.852 32.129,16.852C32.746,16.852 33.247,16.352 33.247,15.734C33.247,11.254 31.502,7.042 28.335,3.874C27.898,3.438 27.19,3.438 26.753,3.874C26.317,4.311 26.317,5.019 26.753,5.456C29.499,8.201 31.011,11.851 31.011,15.734Z" fill="#E4E4E3"/>
<path d="M0.82,16.852C1.438,16.852 1.938,16.352 1.938,15.734C1.938,11.851 3.45,8.201 6.196,5.456C6.632,5.019 6.632,4.311 6.196,3.874C5.759,3.438 5.051,3.438 4.614,3.874C1.447,7.042 -0.298,11.254 -0.298,15.734C-0.298,16.352 0.203,16.852 0.82,16.852Z" fill="#E4E4E3"/>
</svg>
