<svg width="28" height="28" viewBox="0 0 28 28" fill="none" xmlns="http://www.w3.org/2000/svg" xmlns:xlink="http://www.w3.org/1999/xlink">
<path d="M27.414,2.807C28.195,2.026 28.195,0.759 27.414,-0.022C26.633,-0.803 25.367,-0.803 24.586,-0.022L27.414,2.807ZM0.586,23.978C-0.195,24.759 -0.195,26.026 0.586,26.807C1.367,27.588 2.633,27.588 3.414,26.807L0.586,23.978ZM24.586,-0.022L0.586,23.978L3.414,26.807L27.414,2.807L24.586,-0.022Z" fill="#E4E4E3"/>
<path d="M3.414,-0.022C2.633,-0.803 1.367,-0.803 0.586,-0.022C-0.195,0.759 -0.195,2.026 0.586,2.807L3.414,-0.022ZM24.586,26.807C25.367,27.588 26.633,27.588 27.414,26.807C28.195,26.026 28.195,24.759 27.414,23.978L24.586,26.807ZM0.586,2.807L24.586,26.807L27.414,23.978L3.414,-0.022L0.586,2.807Z" fill="#E4E4E3"/>
</svg>
