<svg width="26" height="24" viewBox="0 0 26 24" fill="none" xmlns="http://www.w3.org/2000/svg" xmlns:xlink="http://www.w3.org/1999/xlink">
<path d="M21.269,13.2L21.269,11.362C21.269,7.455 18.672,4.144 15.115,3.063L15.115,1.85C15.115,0.462 13.985,-0.667 12.597,-0.667C11.209,-0.667 10.079,0.462 10.079,1.85L10.079,3.063C6.521,4.144 3.925,7.455 3.925,11.362L3.925,13.2C3.925,16.632 2.617,19.886 0.242,22.362C0.009,22.605 -0.056,22.963 0.076,23.272C0.208,23.582 0.511,23.782 0.848,23.782L24.346,23.782C24.683,23.782 24.986,23.582 25.118,23.272C25.25,22.963 25.185,22.605 24.952,22.362C22.577,19.886 21.269,16.632 21.269,13.2ZM13.436,2.73C13.16,2.704 12.88,2.689 12.597,2.689C12.314,2.689 12.034,2.704 11.758,2.73L11.758,1.85C11.758,1.387 12.134,1.011 12.597,1.011C13.06,1.011 13.436,1.387 13.436,1.85L13.436,2.73Z" fill="#E4E4E3"/>
<path d="M23.507,11.362C23.507,11.825 23.883,12.201 24.346,12.201C24.81,12.201 25.185,11.825 25.185,11.362C25.185,7.999 23.876,4.838 21.498,2.46C21.171,2.132 20.639,2.132 20.311,2.46C19.984,2.788 19.984,3.319 20.311,3.647C22.372,5.708 23.507,8.447 23.507,11.362Z" fill="#E4E4E3"/>
<path d="M0.848,12.201C1.311,12.201 1.687,11.825 1.687,11.362C1.687,8.447 2.822,5.708 4.882,3.647C5.21,3.319 5.21,2.788 4.882,2.46C4.555,2.132 4.023,2.132 3.695,2.46C1.318,4.838 0.008,7.999 0.008,11.362C0.008,11.825 0.384,12.201 0.848,12.201Z" fill="#E4E4E3"/>
</svg>
