<svg width="48" height="28" viewBox="0 0 48 28" fill="none" xmlns="http://www.w3.org/2000/svg" xmlns:xlink="http://www.w3.org/1999/xlink">
<path d="M18.663,7.438L16.583,11.653L11.932,12.329L15.297,15.61L14.503,20.242L18.663,18.055L22.824,20.242L22.029,15.61L25.395,12.329L20.744,11.653L18.663,7.438Z" fill="#E4E4E3"/>
<path d="M48,23.019L48,4.23C45.903,3.119 44.198,1.415 43.085,-0.681L5.032,-0.681C3.897,1.457 2.151,3.183 0,4.291L0,23.081C2.097,24.192 3.802,25.896 4.915,27.992L42.968,27.992C44.103,25.853 45.849,24.128 48,23.019ZM26.235,23.495L24.716,24.414L18.663,21.232L12.611,24.414L11.092,23.496L12.276,16.591L7.409,11.847L7.733,10.097L14.716,9.082L17.78,2.874L19.547,2.874L22.611,9.082L29.596,10.097L29.917,11.848L25.051,16.591L26.235,23.495ZM40.529,24.485L37.62,24.485L37.62,21.673L40.529,21.673L40.529,24.485ZM40.529,18.165L37.62,18.165L37.62,15.353L40.529,15.353L40.529,18.165ZM40.529,11.844L37.62,11.844L37.62,9.032L40.529,9.032L40.529,11.844ZM40.529,5.524L37.62,5.524L37.62,2.712L40.529,2.712L40.529,5.524Z" fill="#E4E4E3"/>
</svg>
