<svg width="26" height="26" viewBox="0 0 26 26" fill="none" xmlns="http://www.w3.org/2000/svg" xmlns:xlink="http://www.w3.org/1999/xlink">
<path d="M21.377,14.519L21.377,12.68C21.377,8.774 18.781,5.463 15.223,4.382L15.223,3.169C15.223,1.781 14.094,0.651 12.705,0.651C11.317,0.651 10.188,1.781 10.188,3.169L10.188,4.382C6.63,5.463 4.033,8.774 4.033,12.68L4.033,14.519C4.033,17.951 2.725,21.204 0.35,23.681C0.117,23.924 0.052,24.282 0.184,24.591C0.316,24.901 0.62,25.101 0.956,25.101L24.455,25.101C24.791,25.101 25.095,24.901 25.227,24.591C25.358,24.282 25.293,23.924 25.06,23.681C22.685,21.204 21.377,17.95 21.377,14.519ZM13.545,4.049C13.268,4.022 12.988,4.008 12.705,4.008C12.422,4.008 12.142,4.022 11.866,4.049L11.866,3.169C11.866,2.706 12.243,2.33 12.705,2.33C13.168,2.33 13.545,2.706 13.545,3.169L13.545,4.049Z" fill="#E4E4E3"/>
<path d="M23.615,12.681C23.615,13.144 23.991,13.52 24.455,13.52C24.918,13.52 25.294,13.144 25.294,12.681C25.294,9.318 23.984,6.157 21.607,3.779C21.279,3.451 20.748,3.451 20.42,3.779C20.092,4.107 20.092,4.638 20.42,4.966C22.481,7.027 23.615,9.766 23.615,12.681Z" fill="#E4E4E3"/>
<path d="M0.956,13.52C1.419,13.52 1.795,13.144 1.795,12.68C1.795,9.766 2.93,7.027 4.991,4.966C5.318,4.638 5.318,4.107 4.991,3.779C4.663,3.451 4.132,3.451 3.804,3.779C1.426,6.157 0.117,9.318 0.117,12.68C0.117,13.144 0.492,13.52 0.956,13.52Z" fill="#E4E4E3"/>
</svg>
