<svg width="48" height="40" viewBox="0 0 48 40" fill="none" xmlns="http://www.w3.org/2000/svg" xmlns:xlink="http://www.w3.org/1999/xlink">
<path d="M16.336,0.891C16.707,0.334 17.331,0 18,0L30,0C30.669,0 31.293,0.334 31.664,0.891L35.07,6L42,6C43.591,6 45.117,6.632 46.243,7.757C47.368,8.883 48,10.409 48,12L48,34C48,35.591 47.368,37.117 46.243,38.243C45.117,39.368 43.591,40 42,40L6,40C4.409,40 2.883,39.368 1.757,38.243C0.632,37.117 0,35.591 0,34L0,12C0,10.409 0.632,8.883 1.757,7.757C2.883,6.632 4.409,6 6,6L12.93,6L16.336,0.891ZM19.07,4L15.664,9.109C15.293,9.666 14.669,10 14,10L6,10C5.47,10 4.961,10.211 4.586,10.586C4.211,10.961 4,11.47 4,12L4,34C4,34.53 4.211,35.039 4.586,35.414C4.961,35.789 5.47,36 6,36L42,36C42.53,36 43.039,35.789 43.414,35.414C43.789,35.039 44,34.53 44,34L44,12C44,11.47 43.789,10.961 43.414,10.586C43.039,10.211 42.53,10 42,10L34,10C33.331,10 32.707,9.666 32.336,9.109L28.93,4L19.07,4Z" clip-rule="evenodd" fill-rule="evenodd" fill="#E4E4E3"/>
<path d="M24,16C20.686,16 18,18.686 18,22C18,25.314 20.686,28 24,28C27.314,28 30,25.314 30,22C30,18.686 27.314,16 24,16ZM14,22C14,16.477 18.477,12 24,12C29.523,12 34,16.477 34,22C34,27.523 29.523,32 24,32C18.477,32 14,27.523 14,22Z" clip-rule="evenodd" fill-rule="evenodd" fill="#E4E4E3"/>
</svg>
