<svg width="46" height="44" viewBox="0 0 46 44" fill="none" xmlns="http://www.w3.org/2000/svg" xmlns:xlink="http://www.w3.org/1999/xlink">
<path d="M1.757,5.757C2.883,4.632 4.409,4 6,4L20,4C21.105,4 22,4.895 22,6C22,7.105 21.105,8 20,8L6,8C5.47,8 4.961,8.211 4.586,8.586C4.211,8.961 4,9.47 4,10L4,38C4,38.53 4.211,39.039 4.586,39.414C4.961,39.789 5.47,40 6,40L34,40C34.53,40 35.039,39.789 35.414,39.414C35.789,39.039 36,38.53 36,38L36,24C36,22.895 36.895,22 38,22C39.105,22 40,22.895 40,24L40,38C40,39.591 39.368,41.117 38.243,42.243C37.117,43.368 35.591,44 34,44L6,44C4.409,44 2.883,43.368 1.757,42.243C0.632,41.117 0,39.591 0,38L0,10C0,8.409 0.632,6.883 1.757,5.757Z" clip-rule="evenodd" fill-rule="evenodd" fill="#E4E4E3"/>
<path d="M38,3.757C37.405,3.757 36.835,3.994 36.414,4.414L17.806,23.023L16.749,27.251L20.978,26.194L39.586,7.586C40.006,7.165 40.243,6.595 40.243,6C40.243,5.405 40.006,4.835 39.586,4.414C39.165,3.994 38.595,3.757 38,3.757ZM33.586,1.586C34.757,0.415 36.344,-0.243 38,-0.243C39.656,-0.243 41.244,0.415 42.414,1.586C43.585,2.757 44.243,4.344 44.243,6C44.243,7.656 43.585,9.244 42.414,10.414L23.414,29.414C23.158,29.671 22.837,29.852 22.485,29.94L14.485,31.94C13.804,32.111 13.083,31.911 12.586,31.414C12.089,30.917 11.889,30.197 12.06,29.515L14.06,21.515C14.148,21.163 14.33,20.842 14.586,20.586L33.586,1.586Z" clip-rule="evenodd" fill-rule="evenodd" fill="#E4E4E3"/>
</svg>
