<svg width="26" height="26" viewBox="0 0 26 26" fill="none" xmlns="http://www.w3.org/2000/svg" xmlns:xlink="http://www.w3.org/1999/xlink">
<path d="M21.269,13.719L21.269,11.881C21.269,7.974 18.672,4.663 15.114,3.582L15.114,2.369C15.114,0.981 13.985,-0.148 12.596,-0.148C11.208,-0.148 10.079,0.981 10.079,2.369L10.079,3.582C6.521,4.663 3.924,7.974 3.924,11.881L3.924,13.719C3.924,17.151 2.616,20.405 0.241,22.881C0.009,23.124 -0.057,23.482 0.075,23.791C0.207,24.101 0.511,24.301 0.847,24.301L24.346,24.301C24.682,24.301 24.986,24.101 25.118,23.791C25.25,23.482 25.184,23.124 24.952,22.881C22.577,20.405 21.269,17.151 21.269,13.719ZM13.436,3.249C13.159,3.223 12.88,3.209 12.596,3.209C12.313,3.209 12.033,3.223 11.757,3.249L11.757,2.369C11.757,1.907 12.134,1.53 12.596,1.53C13.059,1.53 13.436,1.907 13.436,2.369L13.436,3.249Z" fill="#E4E4E3"/>
<path d="M23.507,11.881C23.507,12.344 23.882,12.72 24.346,12.72C24.809,12.72 25.185,12.344 25.185,11.881C25.185,8.518 23.876,5.357 21.498,2.979C21.17,2.651 20.639,2.651 20.311,2.979C19.983,3.307 19.983,3.838 20.311,4.166C22.372,6.227 23.507,8.966 23.507,11.881Z" fill="#E4E4E3"/>
<path d="M0.847,12.72C1.311,12.72 1.686,12.344 1.686,11.881C1.686,8.967 2.821,6.227 4.882,4.166C5.21,3.838 5.21,3.307 4.882,2.979C4.554,2.651 4.023,2.651 3.695,2.979C1.317,5.357 0.008,8.518 0.008,11.881C0.008,12.344 0.384,12.72 0.847,12.72Z" fill="#E4E4E3"/>
</svg>
