<svg width="22" height="38" viewBox="0 0 22 38" fill="none" xmlns="http://www.w3.org/2000/svg" xmlns:xlink="http://www.w3.org/1999/xlink">
<path d="M15.162,11.501C15.162,13.355 15.174,15.213 15.162,17.067C15.132,21.01 12.81,24.01 9.781,24.031C6.757,24.052 4.376,21.05 4.354,17.128C4.332,13.38 4.327,9.628 4.354,5.88C4.379,2.022 6.73,-0.944 9.727,-0.969C12.749,-0.993 15.12,2.012 15.157,5.934C15.174,7.789 15.159,9.646 15.159,11.501L15.162,11.501Z" fill="#FFFFFF"/>
<path d="M11.162,30.954L11.162,33.623C11.99,33.623 12.801,33.613 13.611,33.623C14.75,33.639 15.369,34.302 15.374,35.481C15.377,36.663 14.755,37.349 13.624,37.356C11.027,37.37 8.428,37.37 5.831,37.356C4.705,37.349 4.083,36.653 4.094,35.468C4.104,34.289 4.723,33.643 5.867,33.619C6.596,33.606 7.325,33.606 8.054,33.593C8.11,33.593 8.166,33.539 8.278,33.479L8.278,30.978C7.903,30.857 7.513,30.733 7.123,30.609C2.84,29.243 -0.419,24.097 -0.641,18.307C-0.692,16.978 -0.687,15.642 -0.659,14.309C-0.636,13.178 -0.083,12.421 0.659,12.384C1.423,12.347 2.027,13.147 2.063,14.326C2.101,15.575 2.03,16.834 2.121,18.073C2.56,23.912 5.819,27.586 10.306,27.365C14.248,27.17 17.324,22.754 17.388,17.186C17.4,16.144 17.37,15.1 17.416,14.062C17.461,13.027 17.986,12.444 18.718,12.411C19.452,12.377 20.028,12.923 20.094,13.948C20.438,19.238 19.78,24.09 16.503,27.773C14.969,29.494 13.191,30.469 11.157,30.951L11.162,30.954Z" fill="#FFFFFF"/>
</svg>
