<svg width="52" height="54" viewBox="0 0 52 54" fill="none" xmlns="http://www.w3.org/2000/svg" xmlns:xlink="http://www.w3.org/1999/xlink">
<path d="M1.229,7.338C2.546,6.021 4.333,5.281 6.195,5.281L22.583,5.281C23.876,5.281 24.924,6.329 24.924,7.622C24.924,8.915 23.876,9.964 22.583,9.964L6.195,9.964C5.574,9.964 4.979,10.21 4.54,10.649C4.101,11.088 3.854,11.684 3.854,12.305L3.854,45.081C3.854,45.702 4.101,46.297 4.54,46.736C4.979,47.175 5.574,47.422 6.195,47.422L38.971,47.422C39.592,47.422 40.188,47.175 40.627,46.736C41.066,46.297 41.312,45.702 41.312,45.081L41.312,28.693C41.312,27.4 42.361,26.352 43.654,26.352C44.947,26.352 45.995,27.4 45.995,28.693L45.995,45.081C45.995,46.943 45.255,48.73 43.938,50.047C42.621,51.364 40.834,52.104 38.971,52.104L6.195,52.104C4.333,52.104 2.546,51.364 1.229,50.047C-0.088,48.73 -0.828,46.943 -0.828,45.081L-0.828,12.305C-0.828,10.442 -0.088,8.656 1.229,7.338Z" clip-rule="evenodd" fill-rule="evenodd" fill="#E4E4E3"/>
<path d="M43.654,4.997C42.958,4.997 42.29,5.274 41.797,5.766L20.015,27.549L18.778,32.499L23.728,31.261L45.51,9.479C46.002,8.986 46.279,8.319 46.279,7.622C46.279,6.926 46.002,6.258 45.51,5.766C45.018,5.274 44.35,4.997 43.654,4.997ZM38.487,2.455C39.857,1.085 41.716,0.315 43.654,0.315C45.592,0.315 47.451,1.085 48.821,2.455C50.191,3.826 50.961,5.684 50.961,7.622C50.961,9.56 50.191,11.419 48.821,12.79L26.58,35.031C26.28,35.331 25.904,35.543 25.492,35.646L16.128,37.988C15.33,38.187 14.486,37.953 13.905,37.372C13.323,36.79 13.089,35.946 13.289,35.148L15.63,25.784C15.733,25.372 15.946,24.996 16.246,24.696L38.487,2.455Z" clip-rule="evenodd" fill-rule="evenodd" fill="#E4E4E3"/>
</svg>
