<svg width="22" height="46" viewBox="0 0 22 46" fill="none" xmlns="http://www.w3.org/2000/svg" xmlns:xlink="http://www.w3.org/1999/xlink">
<path d="M3.265,3.917C3.265,2.3 2.329,0.979 1.184,0.979C0.038,0.979 -0.887,2.3 -0.887,3.917L-0.887,21.688C0.204,20.118 1.657,19.06 3.265,18.734L3.265,3.917Z" fill="#E4E4E3"/>
<path d="M19.895,0.979C18.749,0.979 17.813,2.3 17.813,3.917L17.813,24.456C17.813,27.69 15.952,30.317 13.661,30.317L10.115,30.317C12.263,32.743 13.661,36.412 13.661,40.579C13.661,41.387 13.199,42.04 12.626,42.04C12.054,42.04 11.591,41.387 11.591,40.579C11.591,34.919 8.331,30.317 4.322,30.317C3.75,30.317 3.287,29.664 3.287,28.856C3.287,28.047 3.75,27.394 4.322,27.394L13.672,27.394C14.818,27.394 15.754,26.073 15.754,24.456C15.754,22.839 14.818,21.517 13.672,21.517L4.311,21.517C1.448,21.517 -0.887,24.798 -0.887,28.84L-0.887,31.779C-0.887,39.055 3.309,44.979 8.463,44.979L12.615,44.979C17.769,44.979 21.965,39.055 21.965,31.779L21.965,3.917C21.965,2.3 21.04,0.979 19.895,0.979Z" fill="#E4E4E3"/>
</svg>
