<svg width="26" height="24" viewBox="0 0 26 24" fill="none" xmlns="http://www.w3.org/2000/svg" xmlns:xlink="http://www.w3.org/1999/xlink">
<path d="M21.269,13.265L21.269,11.427C21.269,7.52 18.672,4.209 15.114,3.128L15.114,1.915C15.114,0.527 13.985,-0.603 12.596,-0.603C11.208,-0.603 10.079,0.527 10.079,1.915L10.079,3.128C6.521,4.209 3.924,7.52 3.924,11.427L3.924,13.265C3.924,16.697 2.616,19.95 0.241,22.427C0.009,22.67 -0.057,23.028 0.075,23.337C0.207,23.647 0.511,23.847 0.847,23.847L24.346,23.847C24.682,23.847 24.986,23.647 25.118,23.337C25.25,23.028 25.184,22.67 24.952,22.427C22.577,19.95 21.269,16.697 21.269,13.265ZM13.436,2.795C13.159,2.769 12.88,2.754 12.596,2.754C12.313,2.754 12.033,2.769 11.757,2.795L11.757,1.915C11.757,1.452 12.134,1.076 12.596,1.076C13.059,1.076 13.436,1.452 13.436,1.915L13.436,2.795Z" fill="#E4E4E3"/>
<path d="M23.507,11.427C23.507,11.89 23.882,12.266 24.346,12.266C24.809,12.266 25.185,11.89 25.185,11.427C25.185,8.064 23.876,4.903 21.498,2.525C21.17,2.197 20.639,2.197 20.311,2.525C19.983,2.853 19.983,3.384 20.311,3.712C22.372,5.773 23.507,8.512 23.507,11.427Z" fill="#E4E4E3"/>
<path d="M0.847,12.266C1.311,12.266 1.686,11.89 1.686,11.427C1.686,8.512 2.821,5.773 4.882,3.712C5.21,3.384 5.21,2.853 4.882,2.525C4.554,2.197 4.023,2.197 3.695,2.525C1.317,4.903 0.008,8.064 0.008,11.427C0.008,11.89 0.384,12.266 0.847,12.266Z" fill="#E4E4E3"/>
</svg>
