<svg width="34" height="34" viewBox="0 0 34 34" fill="none" xmlns="http://www.w3.org/2000/svg" xmlns:xlink="http://www.w3.org/1999/xlink">
<path d="M31.69,3.92C32.604,3.006 32.604,1.525 31.69,0.612C30.777,-0.302 29.296,-0.302 28.382,0.612L31.69,3.92ZM0.313,28.681C-0.601,29.595 -0.601,31.076 0.313,31.989C1.226,32.903 2.707,32.903 3.621,31.989L0.313,28.681ZM28.382,0.612L0.313,28.681L3.621,31.989L31.69,3.92L28.382,0.612Z" fill="#E4E4E3"/>
<path d="M3.621,0.612C2.707,-0.302 1.226,-0.302 0.313,0.612C-0.601,1.525 -0.601,3.006 0.313,3.92L3.621,0.612ZM28.382,31.989C29.296,32.903 30.777,32.903 31.69,31.989C32.604,31.076 32.604,29.595 31.69,28.681L28.382,31.989ZM0.313,3.92L28.382,31.989L31.69,28.681L3.621,0.612L0.313,3.92Z" fill="#E4E4E3"/>
</svg>
