<svg width="26" height="26" viewBox="0 0 26 26" fill="none" xmlns="http://www.w3.org/2000/svg" xmlns:xlink="http://www.w3.org/1999/xlink">
<path d="M21.38,14.151L21.38,12.312C21.38,8.406 18.783,5.095 15.226,4.013L15.226,2.801C15.226,1.413 14.096,0.283 12.708,0.283C11.32,0.283 10.19,1.413 10.19,2.801L10.19,4.013C6.632,5.095 4.036,8.406 4.036,12.312L4.036,14.151C4.036,17.582 2.728,20.836 0.353,23.313C0.12,23.556 0.055,23.914 0.186,24.223C0.318,24.532 0.622,24.733 0.958,24.733L24.457,24.733C24.793,24.733 25.097,24.532 25.229,24.223C25.361,23.914 25.296,23.556 25.063,23.313C22.688,20.836 21.38,17.582 21.38,14.151ZM13.547,3.681C13.271,3.654 12.991,3.64 12.708,3.64C12.425,3.64 12.145,3.654 11.869,3.681L11.869,2.801C11.869,2.338 12.245,1.962 12.708,1.962C13.171,1.962 13.547,2.338 13.547,2.801L13.547,3.681Z" fill="#E4E4E3"/>
<path d="M23.617,12.312C23.617,12.776 23.993,13.152 24.456,13.152C24.92,13.152 25.296,12.776 25.296,12.312C25.296,8.95 23.986,5.788 21.608,3.411C21.281,3.083 20.749,3.083 20.422,3.411C20.094,3.739 20.094,4.27 20.422,4.598C22.482,6.658 23.617,9.398 23.617,12.312Z" fill="#E4E4E3"/>
<path d="M0.958,13.152C1.422,13.152 1.798,12.776 1.798,12.312C1.798,9.398 2.933,6.658 4.993,4.598C5.321,4.27 5.321,3.739 4.993,3.411C4.665,3.083 4.134,3.083 3.806,3.411C1.429,5.789 0.119,8.95 0.119,12.312C0.119,12.776 0.495,13.152 0.958,13.152Z" fill="#E4E4E3"/>
</svg>
