<svg width="20" height="16" viewBox="0 0 20 16" fill="none" xmlns="http://www.w3.org/2000/svg" xmlns:xlink="http://www.w3.org/1999/xlink">
<path d="M3.6,8.8C2.937,7.916 1.684,7.737 0.8,8.4C-0.084,9.063 -0.263,10.316 0.4,11.2L3.6,8.8ZM19.6,11.2C20.263,10.316 20.084,9.063 19.2,8.4C18.316,7.737 17.063,7.916 16.4,8.8L19.6,11.2ZM2,10C0.4,11.2 0.4,11.201 0.401,11.201C0.401,11.202 0.402,11.202 0.402,11.203C0.403,11.204 0.404,11.205 0.404,11.206C0.406,11.208 0.408,11.21 0.41,11.213C0.414,11.218 0.419,11.225 0.424,11.232C0.435,11.246 0.45,11.265 0.467,11.286C0.501,11.33 0.548,11.388 0.607,11.458C0.724,11.597 0.89,11.787 1.103,12.009C1.527,12.451 2.147,13.034 2.949,13.617C4.545,14.778 6.949,16 10,16L10,12C8.051,12 6.455,11.222 5.301,10.383C4.728,9.966 4.285,9.549 3.991,9.241C3.844,9.088 3.737,8.965 3.671,8.886C3.638,8.847 3.615,8.819 3.603,8.804C3.597,8.796 3.594,8.792 3.593,8.791C3.593,8.791 3.593,8.791 3.595,8.793C3.595,8.794 3.596,8.795 3.597,8.796C3.597,8.796 3.598,8.797 3.598,8.798C3.599,8.798 3.599,8.799 3.599,8.799C3.6,8.799 3.6,8.8 2,10ZM10,16C13.051,16 15.455,14.778 17.051,13.617C17.853,13.034 18.473,12.451 18.897,12.009C19.11,11.787 19.276,11.597 19.393,11.458C19.452,11.388 19.499,11.33 19.533,11.286C19.55,11.265 19.565,11.246 19.576,11.232C19.581,11.225 19.586,11.218 19.59,11.213C19.592,11.21 19.594,11.208 19.596,11.206C19.597,11.205 19.597,11.204 19.598,11.203C19.598,11.202 19.599,11.202 19.599,11.201C19.6,11.201 19.6,11.2 18,10C16.4,8.8 16.4,8.799 16.401,8.799C16.401,8.799 16.401,8.798 16.402,8.798C16.402,8.797 16.403,8.796 16.403,8.796C16.404,8.795 16.405,8.794 16.405,8.793C16.407,8.791 16.407,8.791 16.407,8.791C16.406,8.792 16.403,8.796 16.397,8.804C16.385,8.819 16.362,8.847 16.329,8.886C16.263,8.965 16.156,9.088 16.009,9.241C15.715,9.549 15.272,9.966 14.699,10.383C13.545,11.222 11.949,12 10,12L10,16Z" fill="#E4E4E3"/>
<line x1="4" y1="-2" x2="4.02" y2="-2" stroke="#E4E4E3" stroke-width="2" stroke-miterlimit="3.999327" stroke-linecap="round" stroke-linejoin="round"/>
<line x1="16" y1="-2" x2="16.02" y2="-2" stroke="#E4E4E3" stroke-width="2" stroke-miterlimit="3.999327" stroke-linecap="round" stroke-linejoin="round"/>
</svg>
