<svg width="36" height="34" viewBox="0 0 36 34" fill="none" xmlns="http://www.w3.org/2000/svg" xmlns:xlink="http://www.w3.org/1999/xlink">
<path d="M29.027,18.954L29.027,16.504C29.027,11.3 25.568,6.888 20.827,5.447L20.827,3.832C20.827,1.982 19.323,0.478 17.473,0.478C15.623,0.478 14.119,1.982 14.119,3.832L14.119,5.447C9.378,6.888 5.919,11.3 5.919,16.504L5.919,18.954C5.919,23.526 4.176,27.861 1.012,31.161C0.702,31.484 0.615,31.962 0.79,32.374C0.966,32.786 1.371,33.053 1.819,33.053L33.127,33.053C33.575,33.053 33.98,32.786 34.156,32.374C34.331,31.962 34.244,31.484 33.934,31.161C30.77,27.861 29.027,23.526 29.027,18.954ZM18.591,5.004C18.223,4.969 17.85,4.95 17.473,4.95C17.096,4.95 16.723,4.969 16.355,5.004L16.355,3.832C16.355,3.215 16.856,2.714 17.473,2.714C18.09,2.714 18.591,3.215 18.591,3.832L18.591,5.004Z" fill="#E4E4E3"/>
<path d="M32.009,16.504C32.009,17.121 32.51,17.622 33.127,17.622C33.745,17.622 34.246,17.121 34.246,16.504C34.246,12.024 32.501,7.812 29.333,4.644C28.897,4.207 28.188,4.207 27.752,4.644C27.315,5.081 27.315,5.788 27.752,6.225C30.497,8.971 32.009,12.621 32.009,16.504Z" fill="#E4E4E3"/>
<path d="M1.819,17.622C2.436,17.622 2.937,17.121 2.937,16.504C2.937,12.621 4.449,8.971 7.194,6.225C7.631,5.789 7.631,5.081 7.194,4.644C6.758,4.207 6.05,4.207 5.613,4.644C2.445,7.812 0.701,12.024 0.701,16.504C0.701,17.121 1.201,17.622 1.819,17.622Z" fill="#E4E4E3"/>
</svg>
