<svg width="22" height="44" viewBox="0 0 22 44" fill="none" xmlns="http://www.w3.org/2000/svg" xmlns:xlink="http://www.w3.org/1999/xlink">
<path d="M3.265,1.939C3.265,0.322 2.329,-1 1.184,-1C0.038,-1 -0.887,0.322 -0.887,1.939L-0.887,19.71C0.204,18.139 1.657,17.082 3.265,16.755L3.265,1.939Z" fill="#E4E4E3"/>
<path d="M19.895,-1C18.749,-1 17.813,0.322 17.813,1.939L17.813,22.477C17.813,25.711 15.952,28.339 13.661,28.339L10.115,28.339C12.263,30.764 13.661,34.433 13.661,38.6C13.661,39.408 13.199,40.061 12.626,40.061C12.054,40.061 11.591,39.408 11.591,38.6C11.591,32.941 8.331,28.339 4.322,28.339C3.75,28.339 3.287,27.686 3.287,26.877C3.287,26.069 3.75,25.416 4.322,25.416L13.672,25.416C14.818,25.416 15.754,24.094 15.754,22.477C15.754,20.86 14.818,19.539 13.672,19.539L4.311,19.539C1.448,19.539 -0.887,22.819 -0.887,26.861L-0.887,29.8C-0.887,37.076 3.309,43 8.463,43L12.615,43C17.769,43 21.965,37.076 21.965,29.8L21.965,1.939C21.965,0.322 21.04,-1 19.895,-1Z" fill="#E4E4E3"/>
</svg>
