<svg width="52" height="52" viewBox="0 0 52 52" fill="none" xmlns="http://www.w3.org/2000/svg" xmlns:xlink="http://www.w3.org/1999/xlink">
<path d="M1.177,7.133C2.493,5.816 4.279,5.077 6.14,5.077L22.518,5.077C23.81,5.077 24.858,6.124 24.858,7.416C24.858,8.709 23.81,9.756 22.518,9.756L6.14,9.756C5.52,9.756 4.925,10.003 4.486,10.441C4.047,10.88 3.801,11.475 3.801,12.096L3.801,44.852C3.801,45.472 4.047,46.068 4.486,46.506C4.925,46.945 5.52,47.192 6.14,47.192L38.896,47.192C39.517,47.192 40.112,46.945 40.551,46.506C40.99,46.068 41.236,45.472 41.236,44.852L41.236,28.474C41.236,27.182 42.284,26.134 43.576,26.134C44.868,26.134 45.916,27.182 45.916,28.474L45.916,44.852C45.916,46.714 45.176,48.499 43.86,49.815C42.543,51.132 40.758,51.871 38.896,51.871L6.14,51.871C4.279,51.871 2.493,51.132 1.177,49.815C-0.139,48.499 -0.879,46.714 -0.879,44.852L-0.879,12.096C-0.879,10.234 -0.139,8.449 1.177,7.133Z" clip-rule="evenodd" fill-rule="evenodd" fill="#E4E4E3"/>
<path d="M43.577,4.793C42.881,4.793 42.214,5.069 41.722,5.561L19.952,27.33L18.716,32.277L23.663,31.041L45.432,9.271C45.924,8.779 46.2,8.112 46.2,7.416C46.2,6.721 45.924,6.053 45.432,5.561C44.94,5.069 44.273,4.793 43.577,4.793ZM38.413,2.252C39.782,0.883 41.64,0.113 43.577,0.113C45.514,0.113 47.371,0.883 48.741,2.252C50.11,3.622 50.88,5.479 50.88,7.416C50.88,9.353 50.11,11.211 48.741,12.58L26.513,34.808C26.213,35.108 25.838,35.32 25.426,35.423L16.067,37.763C15.27,37.962 14.427,37.729 13.845,37.147C13.264,36.566 13.031,35.723 13.23,34.925L15.57,25.567C15.673,25.155 15.885,24.779 16.185,24.48L38.413,2.252Z" clip-rule="evenodd" fill-rule="evenodd" fill="#E4E4E3"/>
</svg>
