<svg width="26" height="24" viewBox="0 0 26 24" fill="none" xmlns="http://www.w3.org/2000/svg" xmlns:xlink="http://www.w3.org/1999/xlink">
<path d="M21.377,13.059L21.377,11.221C21.377,7.314 18.78,4.003 15.223,2.922L15.223,1.709C15.223,0.321 14.093,-0.809 12.705,-0.809C11.317,-0.809 10.187,0.321 10.187,1.709L10.187,2.922C6.629,4.003 4.033,7.314 4.033,11.221L4.033,13.059C4.033,16.491 2.725,19.744 0.35,22.221C0.117,22.464 0.052,22.822 0.184,23.131C0.315,23.441 0.619,23.641 0.956,23.641L24.454,23.641C24.79,23.641 25.094,23.441 25.226,23.131C25.358,22.822 25.293,22.464 25.06,22.221C22.685,19.744 21.377,16.491 21.377,13.059ZM13.544,2.589C13.268,2.562 12.988,2.548 12.705,2.548C12.422,2.548 12.142,2.562 11.866,2.589L11.866,1.709C11.866,1.246 12.242,0.87 12.705,0.87C13.168,0.87 13.544,1.246 13.544,1.709L13.544,2.589Z" fill="#E4E4E3"/>
<path d="M23.615,11.221C23.615,11.684 23.991,12.06 24.454,12.06C24.918,12.06 25.294,11.684 25.294,11.221C25.294,7.858 23.984,4.697 21.606,2.319C21.279,1.991 20.747,1.991 20.42,2.319C20.092,2.647 20.092,3.178 20.42,3.506C22.48,5.567 23.615,8.306 23.615,11.221Z" fill="#E4E4E3"/>
<path d="M0.955,12.06C1.419,12.06 1.795,11.684 1.795,11.221C1.795,8.306 2.93,5.567 4.99,3.506C5.318,3.178 5.318,2.647 4.99,2.319C4.662,1.991 4.131,1.991 3.803,2.319C1.426,4.697 0.116,7.858 0.116,11.221C0.116,11.684 0.492,12.06 0.955,12.06Z" fill="#E4E4E3"/>
</svg>
