<svg width="48" height="48" viewBox="0 0 48 48" fill="none" xmlns="http://www.w3.org/2000/svg" xmlns:xlink="http://www.w3.org/1999/xlink">
<path d="M21.774,24.519C20.993,23.738 19.727,23.737 18.945,24.518C18.164,25.298 18.163,26.565 18.944,27.346L21.774,24.519ZM27.179,31.133L26.19,32.871C26.973,33.316 27.956,33.183 28.593,32.547L27.179,31.133ZM29.719,28.593L28.313,27.171L28.305,27.179L29.719,28.593ZM33.939,27.693L33.235,29.565L33.24,29.567L33.939,27.693ZM39.559,29.093L39.839,27.112L39.82,27.11L39.559,29.093ZM42.999,33.093L40.999,33.073L40.999,33.093L42.999,33.093ZM42.999,39.093L40.999,39.093L40.999,39.101L42.999,39.093ZM38.639,43.093L38.423,45.081C38.435,45.082 38.447,45.084 38.459,45.084L38.639,43.093ZM21.379,36.953L22.467,35.274L22.451,35.264L21.379,36.953ZM16.134,30.199C15.353,29.418 14.087,29.417 13.305,30.198C12.524,30.978 12.523,32.245 13.304,33.026L16.134,30.199ZM7.701,26.021C8.302,26.948 9.54,27.212 10.467,26.611C11.394,26.01 11.658,24.771 11.057,23.844L7.701,26.021ZM3.239,7.673L1.247,7.853C1.248,7.865 1.249,7.877 1.251,7.889L3.239,7.673ZM7.219,3.313L7.219,1.313L7.217,1.313L7.219,3.313ZM13.219,3.313L13.219,5.313L13.239,5.313L13.219,3.313ZM17.219,6.753L19.202,6.491L19.199,6.473L17.219,6.753ZM18.619,12.373L16.745,13.072L16.747,13.076L18.619,12.373ZM17.719,16.593L19.133,18.007L19.141,17.999L17.719,16.593ZM13.765,17.718C12.984,18.5 12.984,19.766 13.765,20.547C14.546,21.328 15.812,21.328 16.593,20.547L13.765,17.718ZM18.944,27.346C21.101,29.505 23.538,31.363 26.19,32.871L28.167,29.394C25.827,28.063 23.677,26.424 21.774,24.519L18.944,27.346ZM28.593,32.547L31.133,30.007L28.305,27.179L25.765,29.719L28.593,32.547ZM31.125,30.015C31.397,29.746 31.74,29.561 32.114,29.481L31.28,25.569C30.158,25.808 29.128,26.364 28.313,27.171L31.125,30.015ZM32.114,29.481C32.488,29.401 32.877,29.43 33.235,29.565L34.643,25.821C33.569,25.417 32.402,25.33 31.28,25.569L32.114,29.481ZM33.24,29.567C35.195,30.296 37.228,30.802 39.297,31.075L39.82,27.11C38.05,26.876 36.311,26.443 34.638,25.819L33.24,29.567ZM39.279,31.073C39.759,31.141 40.199,31.381 40.515,31.749L43.548,29.141C42.599,28.037 41.28,27.316 39.839,27.112L39.279,31.073ZM40.515,31.749C40.832,32.117 41.004,32.588 40.999,33.073L44.999,33.112C45.013,31.656 44.498,30.245 43.548,29.141L40.515,31.749ZM40.999,33.093L40.999,39.093L44.999,39.093L44.999,33.093L40.999,33.093ZM40.999,39.101C41,39.379 40.943,39.655 40.831,39.91L44.496,41.513C44.831,40.747 45.002,39.92 44.999,39.084L40.999,39.101ZM40.831,39.91C40.72,40.165 40.556,40.394 40.351,40.583L43.055,43.53C43.671,42.965 44.162,42.278 44.496,41.513L40.831,39.91ZM40.351,40.583C40.146,40.771 39.903,40.914 39.64,41.003L40.921,44.793C41.713,44.525 42.439,44.095 43.055,43.53L40.351,40.583ZM39.64,41.003C39.376,41.093 39.096,41.126 38.819,41.101L38.459,45.084C39.291,45.16 40.13,45.06 40.921,44.793L39.64,41.003ZM38.855,41.104C33.012,40.469 27.399,38.473 22.467,35.275L20.291,38.631C25.747,42.169 31.957,44.378 38.423,45.081L38.855,41.104ZM22.451,35.264C20.166,33.813 18.047,32.115 16.134,30.199L13.304,33.026C15.425,35.149 17.773,37.033 20.307,38.641L22.451,35.264ZM11.057,23.844C7.859,18.913 5.862,13.3 5.227,7.457L1.251,7.889C1.953,14.354 4.162,20.564 7.701,26.021L11.057,23.844ZM5.231,7.493C5.206,7.216 5.239,6.937 5.327,6.674L1.537,5.398C1.271,6.187 1.172,7.023 1.247,7.853L5.231,7.493ZM5.327,6.674C5.416,6.411 5.558,6.169 5.746,5.964L2.791,3.268C2.23,3.883 1.802,4.608 1.537,5.398L5.327,6.674ZM5.746,5.964C5.933,5.759 6.161,5.595 6.415,5.483L4.798,1.824C4.036,2.161 3.353,2.652 2.791,3.268L5.746,5.964ZM6.415,5.483C6.669,5.371 6.943,5.313 7.221,5.313L7.217,1.313C6.384,1.313 5.56,1.488 4.798,1.824L6.415,5.483ZM7.219,5.313L13.219,5.313L13.219,1.313L7.219,1.313L7.219,5.313ZM13.239,5.313C13.724,5.308 14.194,5.48 14.562,5.796L17.17,2.763C16.067,1.814 14.655,1.298 13.199,1.313L13.239,5.313ZM14.562,5.796C14.93,6.113 15.171,6.552 15.239,7.033L19.199,6.473C18.995,5.031 18.274,3.713 17.17,2.763L14.562,5.796ZM15.236,7.014C15.509,9.084 16.015,11.116 16.745,13.072L20.493,11.673C19.868,10 19.435,8.262 19.202,6.491L15.236,7.014ZM16.747,13.076C16.881,13.434 16.91,13.823 16.831,14.197L20.743,15.032C20.982,13.91 20.895,12.743 20.491,11.669L16.747,13.076ZM16.831,14.197C16.751,14.571 16.566,14.915 16.297,15.186L19.141,17.999C19.948,17.183 20.503,16.154 20.743,15.032L16.831,14.197ZM16.305,15.178L13.765,17.718L16.593,20.547L19.133,18.007L16.305,15.178Z" fill="#FFE3E7"/>
<path d="M46.414,2.727C47.195,1.946 47.195,0.679 46.414,-0.102C45.633,-0.883 44.367,-0.883 43.586,-0.102L46.414,2.727ZM-0.414,43.898C-1.195,44.679 -1.195,45.946 -0.414,46.727C0.367,47.508 1.633,47.508 2.414,46.727L-0.414,43.898ZM43.586,-0.102L-0.414,43.898L2.414,46.727L46.414,2.727L43.586,-0.102Z" fill="#FFE3E7"/>
</svg>
