<svg width="36" height="34" viewBox="0 0 36 34" fill="none" xmlns="http://www.w3.org/2000/svg" xmlns:xlink="http://www.w3.org/1999/xlink">
<path d="M29.027,18.028L29.027,15.579C29.027,10.374 25.568,5.962 20.827,4.522L20.827,2.906C20.827,1.057 19.323,-0.448 17.473,-0.448C15.623,-0.448 14.119,1.057 14.119,2.906L14.119,4.522C9.378,5.962 5.919,10.374 5.919,15.579L5.919,18.028C5.919,22.6 4.176,26.935 1.012,30.235C0.702,30.559 0.615,31.036 0.79,31.448C0.966,31.86 1.371,32.127 1.819,32.127L33.127,32.127C33.575,32.127 33.98,31.86 34.156,31.448C34.331,31.036 34.244,30.559 33.934,30.235C30.77,26.935 29.027,22.6 29.027,18.028ZM18.591,4.079C18.223,4.043 17.85,4.024 17.473,4.024C17.096,4.024 16.723,4.043 16.355,4.079L16.355,2.906C16.355,2.29 16.856,1.788 17.473,1.788C18.09,1.788 18.591,2.29 18.591,2.906L18.591,4.079Z" fill="#E4E4E3"/>
<path d="M32.009,15.578C32.009,16.195 32.51,16.696 33.127,16.696C33.745,16.696 34.246,16.195 34.246,15.578C34.246,11.098 32.501,6.886 29.333,3.718C28.897,3.282 28.188,3.281 27.752,3.718C27.315,4.155 27.315,4.863 27.752,5.299C30.497,8.045 32.009,11.695 32.009,15.578Z" fill="#E4E4E3"/>
<path d="M1.819,16.696C2.436,16.696 2.937,16.195 2.937,15.578C2.937,11.695 4.449,8.045 7.194,5.299C7.631,4.863 7.631,4.155 7.194,3.718C6.758,3.281 6.05,3.281 5.613,3.718C2.445,6.886 0.701,11.098 0.701,15.578C0.701,16.195 1.201,16.696 1.819,16.696Z" fill="#E4E4E3"/>
</svg>
