<svg width="28" height="28" viewBox="0 0 28 28" fill="none" xmlns="http://www.w3.org/2000/svg" xmlns:xlink="http://www.w3.org/1999/xlink">
<path d="M27.414,2.809C28.195,2.028 28.195,0.761 27.414,-0.02C26.633,-0.801 25.367,-0.801 24.586,-0.02L27.414,2.809ZM0.586,23.98C-0.195,24.761 -0.195,26.028 0.586,26.809C1.367,27.59 2.633,27.59 3.414,26.809L0.586,23.98ZM24.586,-0.02L0.586,23.98L3.414,26.809L27.414,2.809L24.586,-0.02Z" fill="#E4E4E3"/>
<path d="M3.414,-0.02C2.633,-0.801 1.367,-0.801 0.586,-0.02C-0.195,0.761 -0.195,2.028 0.586,2.809L3.414,-0.02ZM24.586,26.809C25.367,27.59 26.633,27.59 27.414,26.809C28.195,26.028 28.195,24.761 27.414,23.98L24.586,26.809ZM0.586,2.809L24.586,26.809L27.414,23.98L3.414,-0.02L0.586,2.809Z" fill="#E4E4E3"/>
</svg>
