<svg width="34" height="34" viewBox="0 0 34 34" fill="none" xmlns="http://www.w3.org/2000/svg" xmlns:xlink="http://www.w3.org/1999/xlink">
<path d="M31.69,3.921C32.604,3.007 32.604,1.526 31.69,0.613C30.777,-0.301 29.296,-0.301 28.382,0.613L31.69,3.921ZM0.313,28.682C-0.601,29.596 -0.601,31.077 0.313,31.99C1.226,32.904 2.707,32.904 3.621,31.99L0.313,28.682ZM28.382,0.613L0.313,28.682L3.621,31.99L31.69,3.921L28.382,0.613Z" fill="#E4E4E3"/>
<path d="M3.621,0.613C2.707,-0.301 1.226,-0.301 0.313,0.613C-0.601,1.526 -0.601,3.007 0.313,3.921L3.621,0.613ZM28.382,31.99C29.296,32.904 30.777,32.904 31.69,31.99C32.604,31.077 32.604,29.596 31.69,28.682L28.382,31.99ZM0.313,3.921L28.382,31.99L31.69,28.682L3.621,0.613L0.313,3.921Z" fill="#E4E4E3"/>
</svg>
