<svg width="52" height="54" viewBox="0 0 52 54" fill="none" xmlns="http://www.w3.org/2000/svg" xmlns:xlink="http://www.w3.org/1999/xlink">
<path d="M1.155,7.405C2.471,6.089 4.256,5.35 6.117,5.35L22.491,5.35C23.783,5.35 24.83,6.397 24.83,7.689C24.83,8.981 23.783,10.028 22.491,10.028L6.117,10.028C5.497,10.028 4.902,10.274 4.463,10.713C4.024,11.152 3.778,11.747 3.778,12.367L3.778,45.115C3.778,45.735 4.024,46.33 4.463,46.769C4.902,47.207 5.497,47.454 6.117,47.454L38.865,47.454C39.485,47.454 40.08,47.207 40.519,46.769C40.957,46.33 41.204,45.735 41.204,45.115L41.204,28.741C41.204,27.449 42.251,26.402 43.543,26.402C44.835,26.402 45.882,27.449 45.882,28.741L45.882,45.115C45.882,46.976 45.143,48.761 43.827,50.077C42.511,51.393 40.726,52.132 38.865,52.132L6.117,52.132C4.256,52.132 2.471,51.393 1.155,50.077C-0.161,48.761 -0.9,46.976 -0.9,45.115L-0.9,12.367C-0.9,10.506 -0.161,8.721 1.155,7.405Z" clip-rule="evenodd" fill-rule="evenodd" fill="#E4E4E3"/>
<path d="M43.541,5.066C42.846,5.066 42.179,5.342 41.687,5.834L19.923,27.598L18.687,32.543L23.633,31.307L45.396,9.544C45.888,9.052 46.164,8.384 46.164,7.689C46.164,6.993 45.888,6.326 45.396,5.834C44.904,5.342 44.237,5.066 43.541,5.066ZM38.379,2.526C39.748,1.157 41.605,0.388 43.541,0.388C45.478,0.388 47.335,1.157 48.704,2.526C50.073,3.895 50.843,5.752 50.843,7.689C50.843,9.625 50.073,11.482 48.704,12.852L26.482,35.073C26.183,35.373 25.807,35.586 25.396,35.688L16.039,38.027C15.242,38.227 14.399,37.993 13.818,37.412C13.237,36.831 13.003,35.988 13.203,35.191L15.542,25.834C15.645,25.423 15.857,25.047 16.157,24.748L38.379,2.526Z" clip-rule="evenodd" fill-rule="evenodd" fill="#E4E4E3"/>
</svg>
