<svg width="530" height="144" viewBox="0 0 530 144" fill="none" xmlns="http://www.w3.org/2000/svg" xmlns:xlink="http://www.w3.org/1999/xlink">
<path d="M0.879,137.774C-0.274,138.964 -0.244,140.863 0.945,142.016C2.135,143.169 4.034,143.14 5.187,141.95L0.879,137.774ZM128.967,78.103L128.004,75.261L128.967,78.103ZM214.043,49.009L213.191,46.132L213.191,46.132L214.043,49.009ZM274.489,39.136L274.911,42.106L274.489,39.136ZM464.597,32.151L464.411,35.146L464.597,32.151ZM517.271,39.825C518.927,39.825 520.271,38.482 520.271,36.825C520.271,35.169 518.927,33.825 517.271,33.825L517.271,39.825ZM5.187,141.95C21.465,125.156 41.596,113.618 63.239,104.415C84.941,95.186 107.871,88.414 129.929,80.944L128.004,75.261C106.248,82.629 82.871,89.546 60.891,98.893C38.851,108.265 17.923,120.189 0.879,137.774L5.187,141.95ZM129.929,80.944C158.428,71.294 186.299,60.347 214.893,51.886L213.191,46.132C184.488,54.626 156.104,65.746 128.004,75.261L129.929,80.944ZM214.893,51.886C233.799,46.291 255.027,44.934 274.911,42.106L274.067,36.166C254.839,38.9 232.659,40.372 213.191,46.132L214.893,51.886ZM274.911,42.106C337.603,33.192 401.195,31.235 464.411,35.146L464.781,29.157C401.197,25.224 337.195,27.189 274.067,36.166L274.911,42.106ZM464.411,35.146C473.121,35.684 481.739,36.837 490.553,37.877C499.317,38.911 508.225,39.825 517.271,39.825L517.271,33.825C508.601,33.825 499.989,32.948 491.255,31.918C482.569,30.894 473.709,29.709 464.781,29.157L464.411,35.146Z" fill="#F24822"/>
<path d="M504.965,2.715C504.399,1.158 502.677,0.355 501.12,0.921C499.563,1.487 498.76,3.208 499.326,4.766L504.965,2.715ZM508.342,10.882L505.881,12.597L505.881,12.597L508.342,10.882ZM515.432,20.913L517.928,19.249L515.432,20.913ZM524.885,34.882L527.694,33.829L524.885,34.882ZM514.539,47.276L516.32,49.69L514.539,47.276ZM477.253,68.02L475.668,65.473L477.253,68.02ZM460.705,78.022C459.964,79.504 460.565,81.306 462.047,82.047C463.529,82.788 465.331,82.187 466.072,80.705L460.705,78.022ZM499.326,4.766C500.096,6.884 501.74,8.498 502.931,9.617C504.34,10.94 505.272,11.723 505.881,12.597L510.804,9.168C509.726,7.621 508.059,6.202 507.039,5.244C505.802,4.082 505.191,3.336 504.965,2.715L499.326,4.766ZM505.881,12.597C508.332,16.117 510.678,19.19 512.936,22.577L517.928,19.249C515.677,15.872 513.014,12.342 510.804,9.168L505.881,12.597ZM512.936,22.577C514.485,24.901 516.562,27.386 518.186,29.522C519.916,31.799 521.308,33.887 522.076,35.936L527.694,33.829C526.601,30.914 524.751,28.245 522.963,25.892C521.068,23.398 519.349,21.381 517.928,19.249L512.936,22.577ZM522.076,35.936C522.174,36.198 522.213,36.558 521.857,37.243C521.467,37.994 520.718,38.88 519.621,39.861C517.306,41.933 514.738,43.401 512.758,44.862L516.32,49.69C517.532,48.796 521.087,46.602 523.622,44.332C524.951,43.143 526.308,41.689 527.181,40.009C528.089,38.262 528.546,36.101 527.694,33.829L522.076,35.936ZM512.758,44.862C507.16,48.993 501.077,52.192 494.746,55.351C488.478,58.478 481.896,61.597 475.668,65.473L478.838,70.567C484.76,66.882 490.999,63.925 497.425,60.719C503.788,57.545 510.273,54.152 516.32,49.69L512.758,44.862ZM475.668,65.473C473.51,66.815 470.434,68.537 467.765,70.451C465.071,72.385 462.296,74.84 460.705,78.022L466.072,80.705C467.006,78.837 468.826,77.075 471.263,75.326C473.727,73.559 476.32,72.134 478.838,70.567L475.668,65.473Z" fill="#F24822"/>
</svg>
