<svg width="36" height="34" viewBox="0 0 36 34" fill="none" xmlns="http://www.w3.org/2000/svg" xmlns:xlink="http://www.w3.org/1999/xlink">
<path d="M29.03,18.183L29.03,15.734C29.03,10.529 25.57,6.118 20.83,4.677L20.83,3.061C20.83,1.212 19.325,-0.293 17.475,-0.293C15.626,-0.293 14.121,1.212 14.121,3.061L14.121,4.677C9.381,6.118 5.921,10.529 5.921,15.734L5.921,18.183C5.921,22.755 4.179,27.09 1.014,30.39C0.704,30.714 0.617,31.191 0.793,31.603C0.969,32.015 1.373,32.282 1.821,32.282L33.13,32.282C33.578,32.282 33.982,32.015 34.158,31.603C34.334,31.191 34.247,30.714 33.937,30.39C30.772,27.09 29.03,22.755 29.03,18.183ZM18.594,4.234C18.226,4.198 17.853,4.18 17.475,4.18C17.098,4.18 16.725,4.198 16.357,4.234L16.357,3.061C16.357,2.445 16.859,1.943 17.475,1.943C18.092,1.943 18.594,2.445 18.594,3.061L18.594,4.234Z" fill="#E4E4E3"/>
<path d="M32.015,15.734C32.015,16.352 32.515,16.852 33.133,16.852C33.75,16.852 34.251,16.352 34.251,15.734C34.251,11.254 32.506,7.042 29.338,3.874C28.902,3.438 28.194,3.438 27.757,3.874C27.321,4.311 27.321,5.019 27.757,5.456C30.503,8.201 32.015,11.851 32.015,15.734Z" fill="#E4E4E3"/>
<path d="M1.821,16.852C2.439,16.852 2.939,16.352 2.939,15.734C2.939,11.851 4.451,8.201 7.197,5.456C7.634,5.019 7.634,4.311 7.197,3.874C6.76,3.438 6.052,3.438 5.616,3.874C2.448,7.042 0.703,11.254 0.703,15.734C0.703,16.352 1.204,16.852 1.821,16.852Z" fill="#E4E4E3"/>
</svg>
