<svg width="36" height="36" viewBox="0 0 36 36" fill="none" xmlns="http://www.w3.org/2000/svg" xmlns:xlink="http://www.w3.org/1999/xlink">
<path d="M17.869,34.791C16.465,34.791 15.056,34.808 13.652,34.786C12.802,34.769 12.161,34.104 12.108,33.276C12.079,32.809 12.091,32.336 12.108,31.863C12.132,31.024 11.928,30.246 11.555,29.497C11.159,28.709 10.612,28.022 10.047,27.34C9.144,26.248 8.194,25.189 7.344,24.063C6.4,22.818 5.853,21.393 5.486,19.895C5.212,18.791 5.16,17.671 5.224,16.55C5.311,15.018 5.678,13.542 6.365,12.146C6.907,11.042 7.554,10 8.398,9.093C9.301,8.119 10.32,7.269 11.503,6.615C12.405,6.12 13.326,5.669 14.333,5.416C15.027,5.247 15.725,5.106 16.43,4.993C16.92,4.914 17.42,4.886 17.916,4.881C19.174,4.864 20.403,5.072 21.608,5.41C23.088,5.821 24.439,6.474 25.668,7.37C26.571,8.029 27.363,8.789 28.062,9.656C28.889,10.676 29.547,11.78 29.99,12.991C30.269,13.751 30.473,14.545 30.613,15.345C30.741,16.049 30.793,16.775 30.782,17.49C30.759,18.583 30.595,19.664 30.275,20.723C29.879,22.024 29.279,23.229 28.469,24.327C28.062,24.879 27.584,25.386 27.147,25.921C26.518,26.687 25.883,27.447 25.272,28.225C24.695,28.957 24.212,29.751 23.956,30.646C23.903,30.838 23.857,31.035 23.851,31.232C23.839,31.812 23.868,32.387 23.839,32.967C23.816,33.468 23.734,33.963 23.303,34.335C22.925,34.667 22.494,34.797 21.999,34.797C20.618,34.797 19.244,34.797 17.863,34.797L17.863,34.786L17.869,34.791ZM17.95,31.711C18.766,31.705 19.587,31.699 20.403,31.711C20.601,31.711 20.653,31.643 20.653,31.457C20.653,31.221 20.682,30.984 20.705,30.753C20.799,29.768 21.171,28.867 21.672,28.022C22.098,27.312 22.563,26.62 23.07,25.961C23.688,25.155 24.381,24.401 25.016,23.606C25.511,22.987 26.029,22.379 26.431,21.703C27.241,20.368 27.584,18.898 27.578,17.361C27.578,16.741 27.508,16.122 27.415,15.508C27.281,14.612 26.955,13.762 26.512,12.968C25.883,11.842 25.08,10.845 24.025,10.039C23.204,9.414 22.325,8.924 21.358,8.564C20.472,8.237 19.558,8.04 18.609,8.035C17.985,8.029 17.351,7.984 16.733,8.046C15.947,8.125 15.178,8.333 14.438,8.615C13.384,9.009 12.44,9.583 11.602,10.304C10.513,11.245 9.68,12.377 9.109,13.694C8.748,14.528 8.468,15.395 8.422,16.291C8.369,17.248 8.322,18.222 8.561,19.186C8.806,20.154 9.115,21.095 9.685,21.928C10.151,22.61 10.687,23.246 11.206,23.894C11.841,24.682 12.51,25.454 13.139,26.248C14.357,27.791 15.248,29.464 15.236,31.469C15.236,31.649 15.306,31.728 15.516,31.728C16.325,31.716 17.135,31.728 17.945,31.728Z" fill="#E4E4E3"/>
<path d="M35.43,32.578C35.436,33.496 34.661,34.138 33.799,34.144C33.42,34.144 33.083,33.975 32.809,33.721C31.685,32.651 30.572,31.576 29.46,30.5C29.209,30.258 28.953,30.021 28.714,29.768C27.846,28.867 28.388,27.65 29.378,27.301C29.949,27.098 30.537,27.228 30.98,27.65C32.355,28.957 33.718,30.275 35.075,31.598C35.348,31.863 35.43,32.212 35.43,32.578Z" fill="#E4E4E3"/>
<path d="M5.964,7.285C5.655,7.325 5.346,7.167 5.078,6.914C3.913,5.799 2.754,4.678 1.595,3.557C1.316,3.287 1.007,3.022 0.797,2.707C0.355,2.048 0.512,1.192 1.182,0.702C1.793,0.251 2.655,0.279 3.261,0.848C4.082,1.609 4.874,2.403 5.678,3.18C6.185,3.67 6.697,4.154 7.198,4.65C7.67,5.117 7.862,5.81 7.519,6.418C7.204,6.97 6.732,7.308 5.964,7.285Z" fill="#E4E4E3"/>
<path d="M2.172,34.099C1.403,34.132 0.943,33.778 0.687,33.169C0.436,32.572 0.523,31.998 1.007,31.53C2.3,30.269 3.605,29.019 4.898,27.757C5.23,27.43 5.614,27.222 6.092,27.216C6.68,27.205 7.297,27.616 7.536,28.112C7.868,28.816 7.606,29.464 7.216,29.841C5.911,31.102 4.612,32.37 3.296,33.62C2.981,33.918 2.603,34.149 2.172,34.093Z" fill="#E4E4E3"/>
<path d="M29.821,7.28C29.151,7.325 28.487,6.745 28.318,6.013C28.207,5.534 28.359,5.1 28.685,4.774C30.048,3.422 31.434,2.082 32.832,0.758C33.263,0.353 33.811,0.296 34.381,0.494C34.923,0.685 35.244,1.04 35.377,1.586C35.529,2.211 35.29,2.684 34.853,3.107C33.589,4.334 32.325,5.557 31.056,6.784C30.718,7.111 30.31,7.291 29.821,7.269Z" fill="#E4E4E3"/>
</svg>
