<svg width="14" height="18" viewBox="0 0 14 18" fill="none" xmlns="http://www.w3.org/2000/svg" xmlns:xlink="http://www.w3.org/1999/xlink">
<path d="M10.246,5.143C10.246,6.003 10.254,6.864 10.246,7.723C10.227,9.551 8.737,10.941 6.792,10.951C4.851,10.961 3.323,9.569 3.309,7.752C3.295,6.014 3.291,4.275 3.309,2.538C3.324,0.749 4.834,-0.625 6.758,-0.637C8.698,-0.648 10.22,0.745 10.243,2.563C10.254,3.423 10.245,4.284 10.245,5.143L10.246,5.143Z" fill="#E4E4E3"/>
<path d="M7.68,14.159L7.68,15.396C8.212,15.396 8.732,15.391 9.252,15.396C9.983,15.404 10.381,15.711 10.384,16.257C10.385,16.805 9.986,17.123 9.26,17.126C7.593,17.133 5.925,17.133 4.258,17.126C3.535,17.123 3.136,16.801 3.142,16.251C3.149,15.705 3.546,15.405 4.281,15.394C4.749,15.388 5.216,15.388 5.684,15.382C5.72,15.382 5.756,15.357 5.828,15.329L5.828,14.17C5.588,14.114 5.337,14.057 5.087,13.999C2.337,13.366 0.245,10.98 0.103,8.297C0.07,7.681 0.074,7.061 0.092,6.444C0.106,5.919 0.461,5.568 0.937,5.551C1.428,5.534 1.816,5.905 1.839,6.452C1.863,7.03 1.817,7.614 1.876,8.188C2.158,10.895 4.25,12.598 7.13,12.495C9.661,12.405 11.635,10.358 11.676,7.777C11.684,7.294 11.665,6.81 11.694,6.329C11.724,5.849 12.06,5.579 12.53,5.564C13.001,5.548 13.371,5.801 13.413,6.276C13.634,8.728 13.212,10.977 11.108,12.685C10.124,13.482 8.982,13.934 7.677,14.157L7.68,14.159Z" fill="#E4E4E3"/>
</svg>
