<svg width="204" height="692" viewBox="0 0 204 692" fill="none" xmlns="http://www.w3.org/2000/svg" xmlns:xlink="http://www.w3.org/1999/xlink">
<path d="M200.985,6.543C202.614,6.241 203.689,4.676 203.388,3.047C203.087,1.418 201.521,0.341 199.892,0.643L200.985,6.543ZM36.53,123.147L33.789,121.927L36.53,123.147ZM7.155,254.157L10.125,254.581L7.155,254.157ZM6.127,392.803L9.125,392.675L6.127,392.803ZM28.746,609.733L31.735,609.487L28.746,609.733ZM40.789,668.335L43.683,667.545L40.789,668.335ZM48.407,690.993C49.889,691.733 51.691,691.133 52.432,689.651C53.172,688.169 52.572,686.367 51.09,685.625L48.407,690.993ZM199.892,0.643C133.125,13.008 62.131,58.255 33.789,121.927L39.271,124.367C66.616,62.933 135.645,18.643 200.985,6.543L199.892,0.643ZM33.789,121.927C15.88,162.161 10.296,210.957 4.186,253.731L10.125,254.581C16.29,211.429 21.784,163.651 39.271,124.367L33.789,121.927ZM4.186,253.731C-2.276,298.965 1.208,347.951 3.13,392.931L9.125,392.675C7.189,347.391 3.763,299.117 10.125,254.581L4.186,253.731ZM3.13,392.931C4.692,429.483 8.873,465.723 13.396,501.809C17.923,537.929 22.787,573.863 25.756,609.979L31.735,609.487C28.754,573.207 23.866,537.097 19.349,501.063C14.828,464.993 10.675,428.963 9.125,392.675L3.13,392.931ZM25.756,609.979C27.339,629.245 32.881,650.741 37.895,669.123L43.683,667.545C38.659,649.123 33.268,628.127 31.735,609.487L25.756,609.979ZM37.895,669.123C38.567,671.589 39.709,676.193 41.26,680.417C42.037,682.535 42.958,684.675 44.04,686.483C45.074,688.211 46.484,690.031 48.407,690.993L51.09,685.625C50.724,685.443 50.044,684.833 49.188,683.401C48.379,682.049 47.608,680.299 46.892,678.349C45.456,674.437 44.407,670.199 43.683,667.545L37.895,669.123Z" fill="#F24822"/>
<path d="M15.38,685.309C13.723,685.309 12.38,686.652 12.38,688.309C12.38,689.966 13.723,691.309 15.38,691.309L15.38,685.309ZM53.86,688.309L53.946,685.31L53.86,688.309ZM62.085,674.503L59.182,673.746L62.085,674.503ZM71.254,646.01C71.254,644.353 69.91,643.01 68.254,643.01C66.597,643.01 65.254,644.353 65.254,646.01L71.254,646.01ZM15.38,691.309C28.313,691.309 41.02,690.943 53.775,691.308L53.946,685.31C41.091,684.943 28.071,685.309 15.38,685.309L15.38,691.309ZM53.775,691.308C56.257,691.379 58.414,691.326 60.042,690.728C60.97,690.388 61.838,689.837 62.505,688.972C63.147,688.141 63.436,687.235 63.589,686.468C63.738,685.724 63.79,684.927 63.825,684.214C63.865,683.425 63.884,682.717 63.942,681.805C64.053,680.078 64.289,677.939 64.988,675.26L59.182,673.746C58.362,676.889 58.082,679.424 57.955,681.422C57.894,682.373 57.864,683.291 57.833,683.916C57.798,684.617 57.759,685.024 57.705,685.295C57.655,685.544 57.631,685.468 57.756,685.305C57.908,685.109 58.057,685.065 57.974,685.096C57.582,685.24 56.548,685.385 53.946,685.31L53.775,691.308ZM64.988,675.26C65.619,672.841 66.313,670.512 67.014,668.177C67.709,665.858 68.415,663.521 69.039,661.165C70.293,656.434 71.254,651.512 71.254,646.01L65.254,646.01C65.254,650.796 64.423,655.163 63.239,659.628C62.645,661.871 61.97,664.108 61.267,666.453C60.568,668.783 59.844,671.208 59.182,673.746L64.988,675.26Z" fill="#F24822"/>
</svg>
