<svg width="34" height="34" viewBox="0 0 34 34" fill="none" xmlns="http://www.w3.org/2000/svg" xmlns:xlink="http://www.w3.org/1999/xlink">
<path d="M31.69,3.641C32.604,2.728 32.604,1.247 31.69,0.333C30.777,-0.58 29.296,-0.58 28.382,0.333L31.69,3.641ZM0.313,28.403C-0.601,29.316 -0.601,30.797 0.313,31.711C1.226,32.624 2.707,32.624 3.621,31.711L0.313,28.403ZM28.382,0.333L0.313,28.403L3.621,31.711L31.69,3.641L28.382,0.333Z" fill="#E4E4E3"/>
<path d="M3.621,0.333C2.707,-0.58 1.226,-0.58 0.313,0.333C-0.601,1.247 -0.601,2.728 0.313,3.641L3.621,0.333ZM28.382,31.711C29.296,32.624 30.777,32.624 31.69,31.711C32.604,30.797 32.604,29.316 31.69,28.403L28.382,31.711ZM0.313,3.641L28.382,31.711L31.69,28.403L3.621,0.333L0.313,3.641Z" fill="#E4E4E3"/>
</svg>
