<svg width="28" height="28" viewBox="0 0 28 28" fill="none" xmlns="http://www.w3.org/2000/svg" xmlns:xlink="http://www.w3.org/1999/xlink">
<path d="M27.414,2.805C28.195,2.024 28.195,0.757 27.414,-0.024C26.633,-0.805 25.367,-0.805 24.586,-0.024L27.414,2.805ZM0.586,23.976C-0.195,24.757 -0.195,26.024 0.586,26.805C1.367,27.586 2.633,27.586 3.414,26.805L0.586,23.976ZM24.586,-0.024L0.586,23.976L3.414,26.805L27.414,2.805L24.586,-0.024Z" fill="#E4E4E3"/>
<path d="M3.414,-0.024C2.633,-0.805 1.367,-0.805 0.586,-0.024C-0.195,0.757 -0.195,2.024 0.586,2.805L3.414,-0.024ZM24.586,26.805C25.367,27.586 26.633,27.586 27.414,26.805C28.195,26.024 28.195,24.757 27.414,23.976L24.586,26.805ZM0.586,2.805L24.586,26.805L27.414,23.976L3.414,-0.024L0.586,2.805Z" fill="#E4E4E3"/>
</svg>
