<svg width="52" height="52" viewBox="0 0 52 52" fill="none" xmlns="http://www.w3.org/2000/svg" xmlns:xlink="http://www.w3.org/1999/xlink">
<path d="M1.225,6.285C2.542,4.968 4.329,4.228 6.191,4.228L22.579,4.228C23.872,4.228 24.921,5.276 24.921,6.569C24.921,7.862 23.872,8.91 22.579,8.91L6.191,8.91C5.571,8.91 4.975,9.157 4.536,9.596C4.097,10.035 3.85,10.631 3.85,11.251L3.85,44.028C3.85,44.648 4.097,45.244 4.536,45.683C4.975,46.122 5.571,46.369 6.191,46.369L38.968,46.369C39.588,46.369 40.184,46.122 40.623,45.683C41.062,45.244 41.309,44.648 41.309,44.028L41.309,27.639C41.309,26.347 42.357,25.298 43.65,25.298C44.943,25.298 45.991,26.347 45.991,27.639L45.991,44.028C45.991,45.89 45.251,47.677 43.934,48.994C42.617,50.311 40.83,51.051 38.968,51.051L6.191,51.051C4.329,51.051 2.542,50.311 1.225,48.994C-0.092,47.677 -0.832,45.89 -0.832,44.028L-0.832,11.251C-0.832,9.389 -0.092,7.602 1.225,6.285Z" clip-rule="evenodd" fill-rule="evenodd" fill="#E4E4E3"/>
<path d="M43.65,3.944C42.954,3.944 42.286,4.221 41.793,4.713L20.011,26.495L18.774,31.445L23.724,30.208L45.506,8.425C45.998,7.933 46.275,7.265 46.275,6.569C46.275,5.873 45.998,5.205 45.506,4.713C45.014,4.221 44.346,3.944 43.65,3.944ZM38.483,1.402C39.853,0.032 41.712,-0.738 43.65,-0.738C45.588,-0.738 47.447,0.032 48.817,1.402C50.187,2.772 50.957,4.631 50.957,6.569C50.957,8.507 50.187,10.366 48.817,11.736L26.576,33.977C26.276,34.277 25.9,34.49 25.488,34.593L16.124,36.934C15.326,37.134 14.482,36.9 13.901,36.319C13.319,35.737 13.085,34.893 13.285,34.095L15.626,24.731C15.729,24.319 15.942,23.943 16.242,23.643L38.483,1.402Z" clip-rule="evenodd" fill-rule="evenodd" fill="#E4E4E3"/>
</svg>
