<svg width="26" height="26" viewBox="0 0 26 26" fill="none" xmlns="http://www.w3.org/2000/svg" xmlns:xlink="http://www.w3.org/1999/xlink">
<path d="M20.486,14.477L20.486,12.639C20.486,8.732 17.89,5.421 14.332,4.34L14.332,3.127C14.332,1.739 13.203,0.61 11.814,0.61C10.426,0.61 9.297,1.739 9.297,3.127L9.297,4.34C5.739,5.421 3.142,8.732 3.142,12.639L3.142,14.477C3.142,17.909 1.834,21.163 -0.541,23.639C-0.774,23.882 -0.839,24.24 -0.707,24.549C-0.575,24.859 -0.271,25.059 0.065,25.059L23.564,25.059C23.9,25.059 24.204,24.859 24.336,24.549C24.467,24.24 24.402,23.882 24.169,23.639C21.794,21.163 20.486,17.909 20.486,14.477ZM12.653,4.007C12.377,3.981 12.097,3.967 11.814,3.967C11.531,3.967 11.251,3.981 10.975,4.007L10.975,3.127C10.975,2.665 11.351,2.288 11.814,2.288C12.277,2.288 12.653,2.665 12.653,3.127L12.653,4.007Z" fill="#E4E4E3"/>
<path d="M22.725,12.639C22.725,13.102 23.1,13.478 23.564,13.478C24.027,13.478 24.403,13.102 24.403,12.639C24.403,9.276 23.094,6.115 20.716,3.737C20.388,3.41 19.857,3.409 19.529,3.737C19.201,4.065 19.201,4.596 19.529,4.924C21.59,6.985 22.725,9.725 22.725,12.639Z" fill="#E4E4E3"/>
<path d="M0.065,13.478C0.528,13.478 0.904,13.102 0.904,12.639C0.904,9.725 2.039,6.985 4.1,4.924C4.427,4.596 4.427,4.065 4.1,3.737C3.772,3.41 3.24,3.41 2.913,3.737C0.535,6.115 -0.774,9.276 -0.774,12.639C-0.774,13.102 -0.399,13.478 0.065,13.478Z" fill="#E4E4E3"/>
</svg>
