<svg width="36" height="34" viewBox="0 0 36 34" fill="none" xmlns="http://www.w3.org/2000/svg" xmlns:xlink="http://www.w3.org/1999/xlink">
<path d="M29.026,18.492L29.026,16.042C29.026,10.838 25.566,6.426 20.826,4.985L20.826,3.37C20.826,1.52 19.321,0.016 17.472,0.016C15.622,0.016 14.117,1.52 14.117,3.37L14.117,4.985C9.377,6.426 5.917,10.838 5.917,16.042L5.917,18.492C5.917,23.064 4.175,27.399 1.01,30.699C0.7,31.022 0.613,31.5 0.789,31.912C0.965,32.324 1.369,32.591 1.817,32.591L33.126,32.591C33.574,32.591 33.978,32.324 34.154,31.912C34.33,31.5 34.243,31.022 33.933,30.699C30.768,27.399 29.026,23.064 29.026,18.492ZM18.59,4.542C18.222,4.507 17.849,4.488 17.472,4.488C17.094,4.488 16.721,4.507 16.353,4.542L16.353,3.37C16.353,2.754 16.855,2.252 17.472,2.252C18.088,2.252 18.59,2.754 18.59,3.37L18.59,4.542Z" fill="#E4E4E3"/>
<path d="M32.007,16.042C32.007,16.659 32.507,17.16 33.125,17.16C33.743,17.16 34.243,16.659 34.243,16.042C34.243,11.562 32.499,7.35 29.331,4.182C28.894,3.745 28.186,3.745 27.749,4.182C27.313,4.619 27.313,5.327 27.749,5.763C30.495,8.509 32.007,12.159 32.007,16.042Z" fill="#E4E4E3"/>
<path d="M1.817,17.16C2.435,17.16 2.936,16.659 2.936,16.042C2.936,12.159 4.448,8.509 7.193,5.763C7.63,5.327 7.63,4.619 7.193,4.182C6.756,3.745 6.048,3.745 5.612,4.182C2.444,7.35 0.699,11.562 0.699,16.042C0.699,16.659 1.2,17.16 1.817,17.16Z" fill="#E4E4E3"/>
</svg>
