<svg width="26" height="26" viewBox="0 0 26 26" fill="none" xmlns="http://www.w3.org/2000/svg" xmlns:xlink="http://www.w3.org/1999/xlink">
<path d="M21.269,14.4L21.269,12.561C21.269,8.655 18.672,5.344 15.114,4.262L15.114,3.05C15.114,1.662 13.985,0.532 12.596,0.532C11.208,0.532 10.079,1.662 10.079,3.05L10.079,4.262C6.521,5.344 3.924,8.655 3.924,12.561L3.924,14.4C3.924,17.831 2.616,21.085 0.241,23.562C0.009,23.805 -0.057,24.163 0.075,24.472C0.207,24.781 0.511,24.982 0.847,24.982L24.346,24.982C24.682,24.982 24.986,24.781 25.118,24.472C25.25,24.163 25.184,23.805 24.952,23.562C22.577,21.085 21.269,17.831 21.269,14.4ZM13.436,3.93C13.159,3.903 12.88,3.889 12.596,3.889C12.313,3.889 12.033,3.903 11.757,3.93L11.757,3.05C11.757,2.587 12.134,2.211 12.596,2.211C13.059,2.211 13.436,2.587 13.436,3.05L13.436,3.93Z" fill="#E4E4E3"/>
<path d="M23.507,12.561C23.507,13.025 23.882,13.401 24.346,13.401C24.809,13.401 25.185,13.025 25.185,12.561C25.185,9.199 23.876,6.038 21.498,3.66C21.17,3.332 20.639,3.332 20.311,3.66C19.983,3.988 19.983,4.519 20.311,4.847C22.372,6.907 23.507,9.647 23.507,12.561Z" fill="#E4E4E3"/>
<path d="M0.847,13.401C1.311,13.401 1.686,13.025 1.686,12.561C1.686,9.647 2.821,6.907 4.882,4.847C5.21,4.519 5.21,3.988 4.882,3.66C4.554,3.332 4.023,3.332 3.695,3.66C1.317,6.038 0.008,9.199 0.008,12.561C0.008,13.025 0.384,13.401 0.847,13.401Z" fill="#E4E4E3"/>
</svg>
