<svg width="34" height="34" viewBox="0 0 34 34" fill="none" xmlns="http://www.w3.org/2000/svg" xmlns:xlink="http://www.w3.org/1999/xlink">
<path d="M31.69,4.201C32.604,3.287 32.604,1.806 31.69,0.893C30.777,-0.021 29.296,-0.021 28.382,0.893L31.69,4.201ZM0.313,28.962C-0.601,29.876 -0.601,31.357 0.313,32.27C1.226,33.184 2.707,33.184 3.621,32.27L0.313,28.962ZM28.382,0.893L0.313,28.962L3.621,32.27L31.69,4.201L28.382,0.893Z" fill="#E4E4E3"/>
<path d="M3.621,0.893C2.707,-0.021 1.226,-0.021 0.313,0.893C-0.601,1.806 -0.601,3.287 0.313,4.201L3.621,0.893ZM28.382,32.27C29.296,33.184 30.777,33.184 31.69,32.27C32.604,31.357 32.604,29.876 31.69,28.962L28.382,32.27ZM0.313,4.201L28.382,32.27L31.69,28.962L3.621,0.893L0.313,4.201Z" fill="#E4E4E3"/>
</svg>
