<svg width="34" height="34" viewBox="0 0 34 34" fill="none" xmlns="http://www.w3.org/2000/svg" xmlns:xlink="http://www.w3.org/1999/xlink">
<path d="M31.69,3.34C32.604,2.426 32.604,0.945 31.69,0.032C30.777,-0.882 29.296,-0.882 28.382,0.032L31.69,3.34ZM0.313,28.101C-0.601,29.015 -0.601,30.496 0.313,31.409C1.226,32.323 2.707,32.323 3.621,31.409L0.313,28.101ZM28.382,0.032L0.313,28.101L3.621,31.409L31.69,3.34L28.382,0.032Z" fill="#E4E4E3"/>
<path d="M3.621,0.032C2.707,-0.882 1.226,-0.882 0.313,0.032C-0.601,0.945 -0.601,2.426 0.313,3.34L3.621,0.032ZM28.382,31.409C29.296,32.323 30.777,32.323 31.69,31.409C32.604,30.496 32.604,29.015 31.69,28.101L28.382,31.409ZM0.313,3.34L28.382,31.409L31.69,28.101L3.621,0.032L0.313,3.34Z" fill="#E4E4E3"/>
</svg>
