<svg width="26" height="24" viewBox="0 0 26 24" fill="none" xmlns="http://www.w3.org/2000/svg" xmlns:xlink="http://www.w3.org/1999/xlink">
<path d="M21.378,13.179L21.378,11.341C21.378,7.434 18.781,4.123 15.223,3.042L15.223,1.829C15.223,0.441 14.094,-0.689 12.705,-0.689C11.317,-0.689 10.188,0.441 10.188,1.829L10.188,3.042C6.63,4.123 4.033,7.434 4.033,11.341L4.033,13.179C4.033,16.611 2.725,19.864 0.35,22.341C0.118,22.584 0.052,22.942 0.184,23.251C0.316,23.561 0.62,23.761 0.956,23.761L24.455,23.761C24.791,23.761 25.095,23.561 25.227,23.251C25.359,22.942 25.293,22.584 25.061,22.341C22.686,19.864 21.378,16.611 21.378,13.179ZM13.545,2.709C13.268,2.682 12.989,2.668 12.705,2.668C12.422,2.668 12.142,2.682 11.866,2.709L11.866,1.829C11.866,1.366 12.243,0.99 12.705,0.99C13.168,0.99 13.545,1.366 13.545,1.829L13.545,2.709Z" fill="#E4E4E3"/>
<path d="M23.616,11.34C23.616,11.804 23.991,12.18 24.455,12.18C24.918,12.18 25.294,11.804 25.294,11.34C25.294,7.978 23.985,4.817 21.607,2.439C21.279,2.111 20.748,2.111 20.42,2.439C20.092,2.767 20.092,3.298 20.42,3.626C22.481,5.686 23.616,8.426 23.616,11.34Z" fill="#E4E4E3"/>
<path d="M0.956,12.18C1.42,12.18 1.795,11.804 1.795,11.34C1.795,8.426 2.93,5.687 4.991,3.626C5.319,3.298 5.319,2.767 4.991,2.439C4.663,2.111 4.132,2.111 3.804,2.439C1.426,4.817 0.117,7.978 0.117,11.34C0.117,11.804 0.493,12.18 0.956,12.18Z" fill="#E4E4E3"/>
</svg>
