<svg width="36" height="34" viewBox="0 0 36 34" fill="none" xmlns="http://www.w3.org/2000/svg" xmlns:xlink="http://www.w3.org/1999/xlink">
<path d="M29.026,18.953L29.026,16.504C29.026,11.299 25.566,6.887 20.826,5.447L20.826,3.831C20.826,1.982 19.321,0.477 17.472,0.477C15.622,0.477 14.117,1.982 14.117,3.831L14.117,5.447C9.377,6.887 5.917,11.299 5.917,16.504L5.917,18.953C5.917,23.525 4.175,27.86 1.01,31.16C0.7,31.484 0.613,31.961 0.789,32.373C0.965,32.785 1.369,33.052 1.817,33.052L33.126,33.052C33.574,33.052 33.978,32.785 34.154,32.373C34.33,31.961 34.243,31.484 33.933,31.16C30.768,27.86 29.026,23.525 29.026,18.953ZM18.59,5.004C18.222,4.968 17.849,4.949 17.472,4.949C17.094,4.949 16.721,4.968 16.353,5.004L16.353,3.831C16.353,3.215 16.855,2.713 17.472,2.713C18.088,2.713 18.59,3.215 18.59,3.831L18.59,5.004Z" fill="#E4E4E3"/>
<path d="M32.007,16.503C32.007,17.121 32.507,17.621 33.125,17.621C33.743,17.621 34.243,17.121 34.243,16.503C34.243,12.023 32.499,7.811 29.331,4.643C28.894,4.207 28.186,4.207 27.749,4.643C27.313,5.08 27.313,5.788 27.749,6.225C30.495,8.97 32.007,12.62 32.007,16.503Z" fill="#E4E4E3"/>
<path d="M1.817,17.621C2.435,17.621 2.936,17.121 2.936,16.503C2.936,12.62 4.448,8.97 7.193,6.225C7.63,5.788 7.63,5.08 7.193,4.643C6.756,4.207 6.048,4.207 5.612,4.643C2.444,7.811 0.699,12.023 0.699,16.503C0.699,17.121 1.2,17.621 1.817,17.621Z" fill="#E4E4E3"/>
</svg>
