<svg width="22" height="46" viewBox="0 0 22 46" fill="none" xmlns="http://www.w3.org/2000/svg" xmlns:xlink="http://www.w3.org/1999/xlink">
<path d="M3.267,3.817C3.267,2.2 2.331,0.879 1.186,0.879C0.04,0.879 -0.885,2.2 -0.885,3.817L-0.885,21.589C0.206,20.018 1.659,18.961 3.267,18.634L3.267,3.817Z" fill="#E4E4E3"/>
<path d="M19.897,0.879C18.751,0.879 17.815,2.2 17.815,3.817L17.815,24.356C17.815,27.59 15.954,30.218 13.663,30.218L10.117,30.218C12.265,32.643 13.663,36.312 13.663,40.479C13.663,41.287 13.201,41.94 12.628,41.94C12.055,41.94 11.593,41.287 11.593,40.479C11.593,34.82 8.333,30.218 4.324,30.218C3.752,30.218 3.289,29.565 3.289,28.756C3.289,27.948 3.752,27.295 4.324,27.295L13.674,27.295C14.82,27.295 15.756,25.973 15.756,24.356C15.756,22.739 14.82,21.418 13.674,21.418L4.313,21.418C1.45,21.418 -0.885,24.698 -0.885,28.74L-0.885,31.679C-0.885,38.955 3.311,44.879 8.465,44.879L12.617,44.879C17.771,44.879 21.967,38.955 21.967,31.679L21.967,3.817C21.967,2.2 21.042,0.879 19.897,0.879Z" fill="#E4E4E3"/>
</svg>
