<svg width="34" height="32" viewBox="0 0 34 32" fill="none" xmlns="http://www.w3.org/2000/svg" xmlns:xlink="http://www.w3.org/1999/xlink">
<path d="M28.026,17.722L28.026,15.272C28.026,10.067 24.566,5.656 19.826,4.215L19.826,2.6C19.826,0.75 18.321,-0.755 16.472,-0.755C14.622,-0.755 13.117,0.75 13.117,2.6L13.117,4.215C8.377,5.656 4.917,10.067 4.917,15.272L4.917,17.722C4.917,22.294 3.175,26.629 0.01,29.929C-0.3,30.252 -0.387,30.729 -0.211,31.141C-0.035,31.553 0.369,31.821 0.817,31.821L32.126,31.821C32.574,31.821 32.978,31.553 33.154,31.141C33.33,30.729 33.243,30.252 32.933,29.929C29.768,26.629 28.026,22.294 28.026,17.722ZM17.59,3.772C17.222,3.737 16.849,3.718 16.472,3.718C16.094,3.718 15.721,3.737 15.353,3.772L15.353,2.6C15.353,1.983 15.855,1.482 16.472,1.482C17.088,1.482 17.59,1.983 17.59,2.6L17.59,3.772Z" fill="#E4E4E3"/>
<path d="M31.007,15.272C31.007,15.889 31.507,16.39 32.125,16.39C32.743,16.39 33.243,15.889 33.243,15.272C33.243,10.792 31.499,6.58 28.331,3.412C27.894,2.975 27.186,2.975 26.749,3.412C26.313,3.849 26.313,4.556 26.749,4.993C29.495,7.739 31.007,11.389 31.007,15.272Z" fill="#E4E4E3"/>
<path d="M0.817,16.39C1.435,16.39 1.936,15.889 1.936,15.272C1.936,11.389 3.448,7.739 6.193,4.993C6.63,4.556 6.63,3.849 6.193,3.412C5.756,2.975 5.048,2.975 4.612,3.412C1.444,6.58 -0.301,10.792 -0.301,15.272C-0.301,15.889 0.2,16.39 0.817,16.39Z" fill="#E4E4E3"/>
</svg>
