<svg width="34" height="32" viewBox="0 0 34 32" fill="none" xmlns="http://www.w3.org/2000/svg" xmlns:xlink="http://www.w3.org/1999/xlink">
<path d="M31.69,3.06C32.604,2.147 32.604,0.666 31.69,-0.248C30.777,-1.161 29.296,-1.161 28.382,-0.248L31.69,3.06ZM0.313,27.822C-0.601,28.735 -0.601,30.216 0.313,31.13C1.226,32.043 2.707,32.043 3.621,31.13L0.313,27.822ZM28.382,-0.248L0.313,27.822L3.621,31.13L31.69,3.06L28.382,-0.248Z" fill="#E4E4E3"/>
<path d="M3.621,-0.248C2.707,-1.161 1.226,-1.161 0.313,-0.248C-0.601,0.666 -0.601,2.147 0.313,3.06L3.621,-0.248ZM28.382,31.13C29.296,32.043 30.777,32.043 31.69,31.13C32.604,30.216 32.604,28.735 31.69,27.822L28.382,31.13ZM0.313,3.06L28.382,31.13L31.69,27.822L3.621,-0.248L0.313,3.06Z" fill="#E4E4E3"/>
</svg>
