<svg width="26" height="24" viewBox="0 0 26 24" fill="none" xmlns="http://www.w3.org/2000/svg" xmlns:xlink="http://www.w3.org/1999/xlink">
<path d="M21.38,13.265L21.38,11.427C21.38,7.52 18.783,4.209 15.226,3.128L15.226,1.915C15.226,0.527 14.096,-0.603 12.708,-0.603C11.32,-0.603 10.19,0.527 10.19,1.915L10.19,3.128C6.632,4.209 4.036,7.52 4.036,11.427L4.036,13.265C4.036,16.697 2.728,19.95 0.353,22.427C0.12,22.67 0.055,23.028 0.186,23.337C0.318,23.647 0.622,23.847 0.958,23.847L24.457,23.847C24.793,23.847 25.097,23.647 25.229,23.337C25.361,23.028 25.296,22.67 25.063,22.427C22.688,19.95 21.38,16.697 21.38,13.265ZM13.547,2.795C13.271,2.769 12.991,2.754 12.708,2.754C12.425,2.754 12.145,2.769 11.869,2.795L11.869,1.915C11.869,1.452 12.245,1.076 12.708,1.076C13.171,1.076 13.547,1.452 13.547,1.915L13.547,2.795Z" fill="#E4E4E3"/>
<path d="M23.617,11.427C23.617,11.89 23.993,12.266 24.456,12.266C24.92,12.266 25.296,11.89 25.296,11.427C25.296,8.064 23.986,4.903 21.608,2.525C21.281,2.197 20.749,2.197 20.422,2.525C20.094,2.853 20.094,3.384 20.422,3.712C22.482,5.773 23.617,8.512 23.617,11.427Z" fill="#E4E4E3"/>
<path d="M0.958,12.266C1.422,12.266 1.798,11.89 1.798,11.427C1.798,8.512 2.933,5.773 4.993,3.712C5.321,3.384 5.321,2.853 4.993,2.525C4.665,2.197 4.134,2.197 3.806,2.525C1.429,4.903 0.119,8.064 0.119,11.427C0.119,11.89 0.495,12.266 0.958,12.266Z" fill="#E4E4E3"/>
</svg>
