<svg width="24" height="44" viewBox="0 0 24 44" fill="none" xmlns="http://www.w3.org/2000/svg" xmlns:xlink="http://www.w3.org/1999/xlink">
<path d="M4.265,1.989C4.265,0.372 3.329,-0.95 2.184,-0.95C1.038,-0.95 0.113,0.372 0.113,1.989L0.113,19.76C1.204,18.19 2.657,17.132 4.265,16.806L4.265,1.989Z" fill="#E4E4E3"/>
<path d="M20.895,-0.95C19.749,-0.95 18.813,0.372 18.813,1.989L18.813,22.527C18.813,25.761 16.952,28.389 14.661,28.389L11.115,28.389C13.263,30.814 14.661,34.483 14.661,38.65C14.661,39.459 14.199,40.112 13.626,40.112C13.054,40.112 12.591,39.459 12.591,38.65C12.591,32.991 9.331,28.389 5.322,28.389C4.75,28.389 4.287,27.736 4.287,26.927C4.287,26.119 4.75,25.466 5.322,25.466L14.672,25.466C15.818,25.466 16.754,24.144 16.754,22.527C16.754,20.91 15.818,19.589 14.672,19.589L5.311,19.589C2.448,19.589 0.113,22.869 0.113,26.912L0.113,29.85C0.113,37.127 4.309,43.05 9.463,43.05L13.615,43.05C18.769,43.05 22.965,37.127 22.965,29.85L22.965,1.989C22.965,0.372 22.04,-0.95 20.895,-0.95Z" fill="#E4E4E3"/>
</svg>
