<svg width="16" height="18" viewBox="0 0 16 18" fill="none" xmlns="http://www.w3.org/2000/svg" xmlns:xlink="http://www.w3.org/1999/xlink">
<path d="M11.067,5.017C11.067,5.879 11.075,6.743 11.067,7.605C11.048,9.438 9.553,10.833 7.602,10.843C5.655,10.853 4.122,9.457 4.108,7.633C4.094,5.89 4.091,4.146 4.108,2.403C4.123,0.609 5.638,-0.77 7.568,-0.781C9.514,-0.793 11.04,0.605 11.064,2.428C11.075,3.291 11.065,4.154 11.065,5.017L11.067,5.017Z" fill="#E4E4E3"/>
<path d="M8.493,14.061L8.493,15.302C9.026,15.302 9.548,15.297 10.07,15.302C10.803,15.309 11.202,15.618 11.205,16.166C11.207,16.715 10.807,17.034 10.078,17.037C8.406,17.044 6.732,17.044 5.06,17.037C4.335,17.034 3.935,16.711 3.941,16.159C3.948,15.611 4.346,15.311 5.083,15.3C5.552,15.294 6.022,15.294 6.491,15.288C6.527,15.288 6.563,15.263 6.635,15.235L6.635,14.072C6.394,14.016 6.143,13.958 5.892,13.9C3.134,13.265 1.035,10.872 0.892,8.18C0.86,7.562 0.863,6.941 0.881,6.322C0.896,5.795 1.252,5.443 1.729,5.426C2.222,5.409 2.61,5.781 2.633,6.329C2.658,6.91 2.612,7.495 2.671,8.071C2.953,10.787 5.052,12.495 7.942,12.392C10.48,12.301 12.461,10.248 12.502,7.659C12.51,7.175 12.49,6.689 12.52,6.206C12.549,5.725 12.887,5.454 13.358,5.439C13.831,5.423 14.201,5.677 14.244,6.153C14.466,8.613 14.042,10.869 11.932,12.582C10.944,13.382 9.799,13.835 8.49,14.059L8.493,14.061Z" fill="#E4E4E3"/>
</svg>
