<svg width="36" height="34" viewBox="0 0 36 34" fill="none" xmlns="http://www.w3.org/2000/svg" xmlns:xlink="http://www.w3.org/1999/xlink">
<path d="M29.026,18.954L29.026,16.504C29.026,11.3 25.566,6.888 20.826,5.447L20.826,3.832C20.826,1.982 19.321,0.478 17.472,0.478C15.622,0.478 14.117,1.982 14.117,3.832L14.117,5.447C9.377,6.888 5.917,11.3 5.917,16.504L5.917,18.954C5.917,23.526 4.175,27.861 1.01,31.161C0.7,31.484 0.613,31.962 0.789,32.374C0.965,32.786 1.369,33.053 1.817,33.053L33.126,33.053C33.574,33.053 33.978,32.786 34.154,32.374C34.33,31.962 34.243,31.484 33.933,31.161C30.768,27.861 29.026,23.526 29.026,18.954ZM18.59,5.004C18.222,4.969 17.849,4.95 17.472,4.95C17.094,4.95 16.721,4.969 16.353,5.004L16.353,3.832C16.353,3.215 16.855,2.714 17.472,2.714C18.088,2.714 18.59,3.215 18.59,3.832L18.59,5.004Z" fill="#E4E4E3"/>
<path d="M32.007,16.504C32.007,17.121 32.507,17.622 33.125,17.622C33.743,17.622 34.243,17.121 34.243,16.504C34.243,12.024 32.499,7.812 29.331,4.644C28.894,4.207 28.186,4.207 27.749,4.644C27.313,5.081 27.313,5.788 27.749,6.225C30.495,8.971 32.007,12.621 32.007,16.504Z" fill="#E4E4E3"/>
<path d="M1.817,17.622C2.435,17.622 2.936,17.121 2.936,16.504C2.936,12.621 4.448,8.971 7.193,6.225C7.63,5.789 7.63,5.081 7.193,4.644C6.756,4.207 6.048,4.207 5.612,4.644C2.444,7.812 0.699,12.024 0.699,16.504C0.699,17.121 1.2,17.622 1.817,17.622Z" fill="#E4E4E3"/>
</svg>
