<svg width="52" height="54" viewBox="0 0 52 54" fill="none" xmlns="http://www.w3.org/2000/svg" xmlns:xlink="http://www.w3.org/1999/xlink">
<path d="M1.177,7.412C2.493,6.096 4.279,5.356 6.14,5.356L22.518,5.356C23.81,5.356 24.858,6.404 24.858,7.696C24.858,8.988 23.81,10.036 22.518,10.036L6.14,10.036C5.52,10.036 4.925,10.282 4.486,10.721C4.047,11.16 3.801,11.755 3.801,12.376L3.801,45.132C3.801,45.752 4.047,46.347 4.486,46.786C4.925,47.225 5.52,47.471 6.14,47.471L38.896,47.471C39.517,47.471 40.112,47.225 40.551,46.786C40.99,46.347 41.236,45.752 41.236,45.132L41.236,28.754C41.236,27.461 42.284,26.414 43.576,26.414C44.868,26.414 45.916,27.461 45.916,28.754L45.916,45.132C45.916,46.993 45.176,48.779 43.86,50.095C42.543,51.411 40.758,52.151 38.896,52.151L6.14,52.151C4.279,52.151 2.493,51.411 1.177,50.095C-0.139,48.779 -0.879,46.993 -0.879,45.132L-0.879,12.376C-0.879,10.514 -0.139,8.729 1.177,7.412Z" clip-rule="evenodd" fill-rule="evenodd" fill="#E4E4E3"/>
<path d="M43.577,5.073C42.881,5.073 42.214,5.349 41.722,5.841L19.952,27.611L18.716,32.558L23.663,31.321L45.432,9.552C45.924,9.06 46.2,8.392 46.2,7.697C46.2,7.001 45.924,6.333 45.432,5.841C44.94,5.349 44.273,5.073 43.577,5.073ZM38.413,2.533C39.782,1.163 41.64,0.394 43.577,0.394C45.514,0.394 47.371,1.163 48.741,2.533C50.11,3.902 50.88,5.76 50.88,7.697C50.88,9.633 50.11,11.491 48.741,12.861L26.513,35.088C26.213,35.388 25.838,35.601 25.426,35.703L16.067,38.043C15.27,38.243 14.427,38.009 13.845,37.428C13.264,36.847 13.031,36.003 13.23,35.206L15.57,25.847C15.673,25.436 15.885,25.06 16.185,24.76L38.413,2.533Z" clip-rule="evenodd" fill-rule="evenodd" fill="#E4E4E3"/>
</svg>
