<svg width="34" height="34" viewBox="0 0 34 34" fill="none" xmlns="http://www.w3.org/2000/svg" xmlns:xlink="http://www.w3.org/1999/xlink">
<path d="M28.027,18.945L28.027,16.496C28.027,11.291 24.567,6.879 19.827,5.439L19.827,3.823C19.827,1.974 18.322,0.469 16.473,0.469C14.623,0.469 13.118,1.974 13.118,3.823L13.118,5.439C8.378,6.879 4.918,11.291 4.918,16.496L4.918,18.945C4.918,23.517 3.176,27.852 0.011,31.152C-0.299,31.476 -0.386,31.953 -0.21,32.365C-0.034,32.777 0.37,33.044 0.818,33.044L32.127,33.044C32.575,33.044 32.979,32.777 33.155,32.365C33.331,31.953 33.244,31.476 32.934,31.152C29.769,27.852 28.027,23.517 28.027,18.945ZM17.591,4.996C17.223,4.96 16.85,4.941 16.473,4.941C16.095,4.941 15.722,4.96 15.354,4.996L15.354,3.823C15.354,3.207 15.856,2.705 16.473,2.705C17.089,2.705 17.591,3.207 17.591,3.823L17.591,4.996Z" fill="#E4E4E3"/>
<path d="M31.009,16.492C31.009,17.11 31.51,17.61 32.127,17.61C32.745,17.61 33.245,17.11 33.245,16.492C33.245,12.012 31.501,7.8 28.333,4.632C27.896,4.196 27.188,4.195 26.752,4.632C26.315,5.069 26.315,5.777 26.752,6.213C29.497,8.959 31.009,12.609 31.009,16.492Z" fill="#E4E4E3"/>
<path d="M0.818,17.61C1.436,17.61 1.936,17.109 1.936,16.492C1.936,12.609 3.449,8.959 6.194,6.213C6.631,5.777 6.631,5.069 6.194,4.632C5.757,4.196 5.049,4.196 4.613,4.632C1.445,7.8 -0.3,12.012 -0.3,16.492C-0.3,17.109 0.201,17.61 0.818,17.61Z" fill="#E4E4E3"/>
</svg>
