<svg width="46" height="44" viewBox="0 0 46 44" fill="none" xmlns="http://www.w3.org/2000/svg" xmlns:xlink="http://www.w3.org/1999/xlink">
<path d="M1.757,5.148C2.883,4.023 4.409,3.391 6,3.391L20,3.391C21.105,3.391 22,4.286 22,5.391C22,6.495 21.105,7.391 20,7.391L6,7.391C5.47,7.391 4.961,7.601 4.586,7.976C4.211,8.351 4,8.86 4,9.391L4,37.391C4,37.921 4.211,38.43 4.586,38.805C4.961,39.18 5.47,39.391 6,39.391L34,39.391C34.53,39.391 35.039,39.18 35.414,38.805C35.789,38.43 36,37.921 36,37.391L36,23.391C36,22.286 36.895,21.391 38,21.391C39.105,21.391 40,22.286 40,23.391L40,37.391C40,38.982 39.368,40.508 38.243,41.633C37.117,42.758 35.591,43.391 34,43.391L6,43.391C4.409,43.391 2.883,42.758 1.757,41.633C0.632,40.508 0,38.982 0,37.391L0,9.391C0,7.799 0.632,6.273 1.757,5.148Z" clip-rule="evenodd" fill-rule="evenodd" fill="#E4E4E3"/>
<path d="M38,3.148C37.405,3.148 36.835,3.385 36.414,3.805L17.806,22.414L16.749,26.642L20.978,25.585L39.586,6.977C40.006,6.556 40.243,5.986 40.243,5.391C40.243,4.796 40.006,4.226 39.586,3.805C39.165,3.385 38.595,3.148 38,3.148ZM33.586,0.977C34.757,-0.194 36.344,-0.852 38,-0.852C39.656,-0.852 41.244,-0.194 42.414,0.977C43.585,2.148 44.243,3.735 44.243,5.391C44.243,7.047 43.585,8.635 42.414,9.805L23.414,28.805C23.158,29.062 22.837,29.243 22.485,29.331L14.485,31.331C13.804,31.502 13.083,31.302 12.586,30.805C12.089,30.308 11.889,29.588 12.06,28.906L14.06,20.906C14.148,20.554 14.33,20.233 14.586,19.977L33.586,0.977Z" clip-rule="evenodd" fill-rule="evenodd" fill="#E4E4E3"/>
</svg>
