<svg width="52" height="52" viewBox="0 0 52 52" fill="none" xmlns="http://www.w3.org/2000/svg" xmlns:xlink="http://www.w3.org/1999/xlink">
<path d="M1.155,7.126C2.471,5.81 4.256,5.07 6.117,5.07L22.491,5.07C23.783,5.07 24.83,6.118 24.83,7.409C24.83,8.701 23.783,9.749 22.491,9.749L6.117,9.749C5.497,9.749 4.902,9.995 4.463,10.434C4.024,10.872 3.778,11.467 3.778,12.088L3.778,44.835C3.778,45.456 4.024,46.051 4.463,46.489C4.902,46.928 5.497,47.175 6.117,47.175L38.865,47.175C39.485,47.175 40.08,46.928 40.519,46.489C40.957,46.051 41.204,45.456 41.204,44.835L41.204,28.462C41.204,27.17 42.251,26.122 43.543,26.122C44.835,26.122 45.882,27.17 45.882,28.462L45.882,44.835C45.882,46.697 45.143,48.481 43.827,49.797C42.511,51.114 40.726,51.853 38.865,51.853L6.117,51.853C4.256,51.853 2.471,51.114 1.155,49.797C-0.161,48.481 -0.9,46.697 -0.9,44.835L-0.9,12.088C-0.9,10.227 -0.161,8.442 1.155,7.126Z" clip-rule="evenodd" fill-rule="evenodd" fill="#E4E4E3"/>
<path d="M43.541,4.787C42.846,4.787 42.179,5.063 41.687,5.555L19.923,27.318L18.687,32.264L23.633,31.028L45.396,9.264C45.888,8.772 46.164,8.105 46.164,7.41C46.164,6.714 45.888,6.047 45.396,5.555C44.904,5.063 44.237,4.787 43.541,4.787ZM38.379,2.247C39.748,0.878 41.605,0.108 43.541,0.108C45.478,0.108 47.335,0.878 48.704,2.247C50.073,3.616 50.843,5.473 50.843,7.41C50.843,9.346 50.073,11.203 48.704,12.572L26.482,34.794C26.183,35.094 25.807,35.306 25.396,35.409L16.039,37.748C15.242,37.948 14.399,37.714 13.818,37.133C13.237,36.552 13.003,35.709 13.203,34.912L15.542,25.555C15.645,25.144 15.857,24.768 16.157,24.469L38.379,2.247Z" clip-rule="evenodd" fill-rule="evenodd" fill="#E4E4E3"/>
</svg>
