<svg width="26" height="26" viewBox="0 0 26 26" fill="none" xmlns="http://www.w3.org/2000/svg" xmlns:xlink="http://www.w3.org/1999/xlink">
<path d="M20.377,14.25L20.377,12.411C20.377,8.505 17.781,5.194 14.223,4.112L14.223,2.9C14.223,1.512 13.094,0.382 11.705,0.382C10.317,0.382 9.188,1.512 9.188,2.9L9.188,4.112C5.63,5.194 3.033,8.505 3.033,12.411L3.033,14.25C3.033,17.682 1.725,20.935 -0.65,23.412C-0.883,23.655 -0.948,24.013 -0.816,24.322C-0.684,24.632 -0.38,24.832 -0.044,24.832L23.455,24.832C23.791,24.832 24.095,24.632 24.227,24.322C24.358,24.013 24.293,23.655 24.06,23.412C21.685,20.935 20.377,17.681 20.377,14.25ZM12.545,3.78C12.268,3.753 11.988,3.739 11.705,3.739C11.422,3.739 11.142,3.753 10.866,3.78L10.866,2.9C10.866,2.437 11.243,2.061 11.705,2.061C12.168,2.061 12.545,2.437 12.545,2.9L12.545,3.78Z" fill="#E4E4E3"/>
<path d="M22.616,12.411C22.616,12.875 22.991,13.251 23.455,13.251C23.918,13.251 24.294,12.875 24.294,12.411C24.294,9.049 22.985,5.888 20.607,3.51C20.279,3.182 19.748,3.182 19.42,3.51C19.092,3.838 19.092,4.369 19.42,4.697C21.481,6.757 22.616,9.497 22.616,12.411Z" fill="#E4E4E3"/>
<path d="M-0.044,13.251C0.419,13.251 0.795,12.875 0.795,12.411C0.795,9.497 1.93,6.757 3.991,4.697C4.318,4.369 4.318,3.838 3.991,3.51C3.663,3.182 3.132,3.182 2.804,3.51C0.426,5.888 -0.883,9.049 -0.883,12.411C-0.883,12.875 -0.508,13.251 -0.044,13.251Z" fill="#E4E4E3"/>
</svg>
