<svg width="24" height="44" viewBox="0 0 24 44" fill="none" xmlns="http://www.w3.org/2000/svg" xmlns:xlink="http://www.w3.org/1999/xlink">
<path d="M4.269,1.967C4.269,0.35 3.333,-0.971 2.188,-0.971C1.042,-0.971 0.117,0.35 0.117,1.967L0.117,19.738C1.207,18.168 2.661,17.111 4.269,16.784L4.269,1.967Z" fill="#E4E4E3"/>
<path d="M20.899,-0.971C19.753,-0.971 18.817,0.35 18.817,1.967L18.817,22.506C18.817,25.74 16.956,28.367 14.665,28.367L11.119,28.367C13.267,30.793 14.665,34.462 14.665,38.629C14.665,39.437 14.203,40.09 13.63,40.09C13.057,40.09 12.595,39.437 12.595,38.629C12.595,32.969 9.335,28.367 5.326,28.367C4.754,28.367 4.291,27.714 4.291,26.906C4.291,26.097 4.754,25.444 5.326,25.444L14.676,25.444C15.822,25.444 16.758,24.123 16.758,22.506C16.758,20.889 15.822,19.567 14.676,19.567L5.315,19.567C2.452,19.567 0.117,22.848 0.117,26.89L0.117,29.829C0.117,37.105 4.313,43.029 9.467,43.029L13.619,43.029C18.773,43.029 22.969,37.105 22.969,29.829L22.969,1.967C22.969,0.35 22.044,-0.971 20.899,-0.971Z" fill="#E4E4E3"/>
</svg>
