<svg width="28" height="24" viewBox="0 0 28 24" fill="none" xmlns="http://www.w3.org/2000/svg" xmlns:xlink="http://www.w3.org/1999/xlink">
<path d="M7.935,-0.765C6.282,-0.887 4.843,0.353 4.721,2.006C4.599,3.658 5.839,5.097 7.491,5.219L7.935,-0.765ZM12.685,7.088L10.099,8.609L12.685,7.088ZM15.824,11.061L13.267,12.63L13.267,12.63L15.824,11.061ZM21.455,21.703C22.546,22.95 24.441,23.076 25.688,21.985C26.935,20.894 27.062,18.999 25.971,17.752L21.455,21.703ZM7.491,5.219C7.808,5.242 7.957,5.312 8.033,5.356C8.121,5.407 8.251,5.507 8.437,5.743C8.636,5.997 8.847,6.339 9.13,6.851C9.371,7.289 9.741,8.001 10.099,8.609L15.271,5.567C14.963,5.043 14.744,4.608 14.385,3.956C14.067,3.378 13.666,2.687 13.155,2.036C12.022,0.595 10.385,-0.583 7.935,-0.765L7.491,5.219ZM10.099,8.609C10.706,9.641 11.472,10.483 12.012,11.083C12.616,11.754 12.989,12.176 13.267,12.63L18.381,9.491C17.764,8.486 16.998,7.654 16.471,7.069C15.881,6.413 15.524,5.998 15.271,5.567L10.099,8.609ZM13.267,12.63C14.479,14.605 16.025,16.248 17.462,17.674C18.98,19.18 20.272,20.351 21.455,21.703L25.971,17.752C24.603,16.188 22.968,14.684 21.688,13.414C20.326,12.063 19.203,10.831 18.381,9.491L13.267,12.63Z" fill="#F24822"/>
<path d="M24.152,5.195C25.791,4.952 26.923,3.426 26.68,1.788C26.438,0.149 24.912,-0.983 23.273,-0.74L24.152,5.195ZM17.157,6.894L19.004,9.258L19.004,9.258L17.157,6.894ZM3.213,16.727C1.556,16.727 0.213,18.07 0.213,19.727C0.213,21.384 1.556,22.727 3.213,22.727L3.213,16.727ZM23.273,-0.74C21.118,-0.421 19.414,0.863 18.254,1.861C17.649,2.383 17.063,2.946 16.584,3.398C16.071,3.881 15.671,4.248 15.311,4.529L19.004,9.258C19.612,8.783 20.199,8.236 20.702,7.761C21.238,7.255 21.696,6.816 22.17,6.407C23.172,5.544 23.778,5.25 24.152,5.195L23.273,-0.74ZM15.311,4.529C12.29,6.888 9.645,9.552 7.119,12.078L11.362,16.321C13.941,13.742 16.325,11.351 19.004,9.258L15.311,4.529ZM7.119,12.078C6.606,12.592 6.069,13.267 5.631,13.82C5.146,14.432 4.696,15.006 4.232,15.534C3.761,16.07 3.38,16.435 3.088,16.649C2.76,16.888 2.832,16.727 3.213,16.727L3.213,22.727C4.674,22.727 5.855,22.059 6.63,21.492C7.441,20.899 8.156,20.157 8.738,19.495C9.327,18.825 9.888,18.109 10.333,17.547C10.826,16.925 11.14,16.542 11.362,16.321L7.119,12.078Z" fill="#F24822"/>
</svg>
