<svg width="52" height="52" viewBox="0 0 52 52" fill="none" xmlns="http://www.w3.org/2000/svg" xmlns:xlink="http://www.w3.org/1999/xlink">
<path d="M1.177,6.273C2.493,4.956 4.279,4.217 6.14,4.217L22.518,4.217C23.81,4.217 24.858,5.264 24.858,6.557C24.858,7.849 23.81,8.896 22.518,8.896L6.14,8.896C5.52,8.896 4.925,9.143 4.486,9.582C4.047,10.02 3.801,10.615 3.801,11.236L3.801,43.992C3.801,44.613 4.047,45.208 4.486,45.647C4.925,46.085 5.52,46.332 6.14,46.332L38.896,46.332C39.517,46.332 40.112,46.085 40.551,45.647C40.99,45.208 41.236,44.613 41.236,43.992L41.236,27.614C41.236,26.322 42.284,25.274 43.576,25.274C44.868,25.274 45.916,26.322 45.916,27.614L45.916,43.992C45.916,45.854 45.176,47.639 43.86,48.955C42.543,50.272 40.758,51.011 38.896,51.011L6.14,51.011C4.279,51.011 2.493,50.272 1.177,48.955C-0.139,47.639 -0.879,45.854 -0.879,43.992L-0.879,11.236C-0.879,9.374 -0.139,7.589 1.177,6.273Z" clip-rule="evenodd" fill-rule="evenodd" fill="#E4E4E3"/>
<path d="M43.577,3.933C42.881,3.933 42.214,4.209 41.722,4.701L19.952,26.47L18.716,31.418L23.663,30.181L45.432,8.412C45.924,7.92 46.2,7.252 46.2,6.556C46.2,5.861 45.924,5.193 45.432,4.701C44.94,4.209 44.273,3.933 43.577,3.933ZM38.413,1.392C39.782,0.023 41.64,-0.747 43.577,-0.747C45.514,-0.747 47.371,0.023 48.741,1.392C50.11,2.762 50.88,4.62 50.88,6.556C50.88,8.493 50.11,10.351 48.741,11.72L26.513,33.948C26.213,34.248 25.838,34.46 25.426,34.563L16.067,36.903C15.27,37.102 14.427,36.869 13.845,36.288C13.264,35.706 13.031,34.863 13.23,34.066L15.57,24.707C15.673,24.295 15.885,23.92 16.185,23.62L38.413,1.392Z" clip-rule="evenodd" fill-rule="evenodd" fill="#E4E4E3"/>
</svg>
