<svg width="34" height="34" viewBox="0 0 34 34" fill="none" xmlns="http://www.w3.org/2000/svg" xmlns:xlink="http://www.w3.org/1999/xlink">
<path d="M28.028,18.185L28.028,15.736C28.028,10.531 24.568,6.12 19.828,4.679L19.828,3.063C19.828,1.214 18.323,-0.291 16.474,-0.291C14.624,-0.291 13.119,1.214 13.119,3.063L13.119,4.679C8.379,6.12 4.919,10.531 4.919,15.736L4.919,18.185C4.919,22.757 3.177,27.092 0.012,30.392C-0.298,30.716 -0.385,31.193 -0.209,31.605C-0.033,32.017 0.371,32.284 0.819,32.284L32.128,32.284C32.576,32.284 32.98,32.017 33.156,31.605C33.332,31.193 33.245,30.716 32.935,30.392C29.77,27.092 28.028,22.757 28.028,18.185ZM17.592,4.236C17.224,4.2 16.851,4.182 16.474,4.182C16.096,4.182 15.723,4.2 15.355,4.236L15.355,3.063C15.355,2.447 15.857,1.945 16.474,1.945C17.09,1.945 17.592,2.447 17.592,3.063L17.592,4.236Z" fill="#E4E4E3"/>
<path d="M31.011,15.735C31.011,16.353 31.511,16.853 32.129,16.853C32.746,16.853 33.247,16.353 33.247,15.735C33.247,11.255 31.502,7.043 28.335,3.875C27.898,3.439 27.19,3.439 26.753,3.875C26.317,4.312 26.317,5.02 26.753,5.457C29.499,8.202 31.011,11.852 31.011,15.735Z" fill="#E4E4E3"/>
<path d="M0.819,16.853C1.437,16.853 1.937,16.353 1.937,15.735C1.937,11.852 3.45,8.202 6.195,5.457C6.632,5.02 6.632,4.312 6.195,3.875C5.758,3.439 5.05,3.439 4.614,3.875C1.446,7.043 -0.299,11.255 -0.299,15.735C-0.299,16.353 0.202,16.853 0.819,16.853Z" fill="#E4E4E3"/>
</svg>
