<svg width="20" height="20" viewBox="0 0 20 20" fill="none" xmlns="http://www.w3.org/2000/svg" xmlns:xlink="http://www.w3.org/1999/xlink">
<path d="M9.212,10.213C8.91,9.91 8.419,9.91 8.116,10.212C7.813,10.515 7.813,11.006 8.116,11.308L9.212,10.213ZM11.306,12.776L10.923,13.449C11.227,13.622 11.608,13.57 11.854,13.323L11.306,12.776ZM12.291,11.791L11.746,11.24L11.743,11.243L12.291,11.791ZM13.926,11.443L13.653,12.168L13.655,12.169L13.926,11.443ZM16.103,11.985L16.212,11.218L16.205,11.217L16.103,11.985ZM17.436,13.535L16.661,13.527L16.661,13.535L17.436,13.535ZM17.436,15.86L16.661,15.86L16.661,15.863L17.436,15.86ZM15.747,17.41L15.663,18.18L15.677,18.181L15.747,17.41ZM9.059,15.031L9.481,14.38L9.474,14.376L9.059,15.031ZM7.027,12.414C6.724,12.111 6.234,12.111 5.931,12.413C5.628,12.716 5.628,13.206 5.93,13.509L7.027,12.414ZM3.759,10.795C3.992,11.154 4.472,11.256 4.831,11.023C5.19,10.791 5.293,10.311 5.06,9.952L3.759,10.795ZM2.03,3.686L1.259,3.755L1.26,3.769L2.03,3.686ZM3.573,1.996L3.573,1.221L3.572,1.221L3.573,1.996ZM5.897,1.996L5.897,2.771L5.905,2.771L5.897,1.996ZM7.447,3.329L8.216,3.228L8.215,3.221L7.447,3.329ZM7.99,5.507L7.264,5.778L7.264,5.779L7.99,5.507ZM7.641,7.142L8.189,7.69L8.192,7.687L7.641,7.142ZM6.109,7.578C5.806,7.881 5.806,8.371 6.109,8.674C6.411,8.977 6.902,8.977 7.205,8.674L6.109,7.578ZM8.116,11.308C8.951,12.145 9.896,12.865 10.923,13.449L11.689,12.102C10.783,11.586 9.949,10.951 9.212,10.213L8.116,11.308ZM11.854,13.323L12.839,12.339L11.743,11.243L10.758,12.228L11.854,13.323ZM12.835,12.342C12.941,12.238 13.074,12.166 13.219,12.136L12.895,10.62C12.461,10.712 12.062,10.928 11.746,11.24L12.835,12.342ZM13.219,12.136C13.364,12.105 13.514,12.116 13.653,12.168L14.198,10.717C13.782,10.561 13.33,10.527 12.895,10.62L13.219,12.136ZM13.655,12.169C14.413,12.451 15.2,12.648 16.002,12.753L16.205,11.217C15.519,11.126 14.845,10.959 14.197,10.717L13.655,12.169ZM15.995,12.752C16.181,12.779 16.351,12.872 16.474,13.014L17.649,12.004C17.281,11.576 16.77,11.297 16.212,11.218L15.995,12.752ZM16.474,13.014C16.597,13.157 16.663,13.339 16.661,13.527L18.211,13.543C18.217,12.978 18.017,12.432 17.649,12.004L16.474,13.014ZM16.661,13.535L16.661,15.86L18.211,15.86L18.211,13.535L16.661,13.535ZM16.661,15.863C16.662,15.971 16.64,16.078 16.596,16.177L18.016,16.797C18.146,16.501 18.212,16.18 18.211,15.857L16.661,15.863ZM16.596,16.177C16.553,16.275 16.49,16.364 16.41,16.437L17.458,17.579C17.697,17.36 17.887,17.094 18.016,16.797L16.596,16.177ZM16.41,16.437C16.331,16.51 16.237,16.566 16.135,16.6L16.631,18.068C16.938,17.965 17.219,17.798 17.458,17.579L16.41,16.437ZM16.135,16.6C16.032,16.635 15.924,16.648 15.817,16.638L15.677,18.181C15.999,18.211 16.324,18.172 16.631,18.068L16.135,16.6ZM15.831,16.639C13.566,16.393 11.392,15.62 9.481,14.38L8.637,15.681C10.752,17.052 13.158,17.908 15.663,18.18L15.831,16.639ZM9.474,14.376C8.589,13.814 7.768,13.156 7.027,12.414L5.93,13.509C6.752,14.332 7.662,15.061 8.644,15.685L9.474,14.376ZM5.06,9.952C3.821,8.041 3.047,5.866 2.801,3.602L1.26,3.769C1.532,6.274 2.388,8.681 3.759,10.795L5.06,9.952ZM2.802,3.616C2.793,3.509 2.805,3.401 2.84,3.299L1.371,2.804C1.268,3.11 1.23,3.434 1.259,3.755L2.802,3.616ZM2.84,3.299C2.874,3.197 2.929,3.103 3.002,3.024L1.857,1.979C1.639,2.217 1.474,2.498 1.371,2.804L2.84,3.299ZM3.002,3.024C3.074,2.944 3.163,2.881 3.261,2.837L2.635,1.419C2.339,1.55 2.075,1.74 1.857,1.979L3.002,3.024ZM3.261,2.837C3.359,2.794 3.466,2.771 3.573,2.771L3.572,1.221C3.249,1.222 2.93,1.289 2.635,1.419L3.261,2.837ZM3.573,2.771L5.897,2.771L5.897,1.221L3.573,1.221L3.573,2.771ZM5.905,2.771C6.093,2.769 6.275,2.836 6.418,2.958L7.428,1.783C7.001,1.415 6.454,1.216 5.89,1.221L5.905,2.771ZM6.418,2.958C6.56,3.081 6.654,3.251 6.68,3.438L8.215,3.221C8.136,2.662 7.856,2.151 7.428,1.783L6.418,2.958ZM6.679,3.43C6.785,4.232 6.981,5.02 7.264,5.778L8.716,5.236C8.474,4.587 8.306,3.914 8.216,3.228L6.679,3.43ZM7.264,5.779C7.316,5.918 7.328,6.069 7.297,6.214L8.813,6.537C8.905,6.102 8.871,5.65 8.715,5.234L7.264,5.779ZM7.297,6.214C7.266,6.359 7.194,6.492 7.09,6.597L8.192,7.687C8.505,7.371 8.72,6.972 8.813,6.537L7.297,6.214ZM7.093,6.594L6.109,7.578L7.205,8.674L8.189,7.69L7.093,6.594Z" fill="#FFE3E7"/>
<path d="M18.759,1.769C19.062,1.466 19.062,0.975 18.759,0.673C18.456,0.37 17.966,0.37 17.663,0.673L18.759,1.769ZM0.615,17.721C0.312,18.024 0.312,18.515 0.615,18.817C0.917,19.12 1.408,19.12 1.71,18.817L0.615,17.721ZM17.663,0.673L0.615,17.721L1.71,18.817L18.759,1.769L17.663,0.673Z" fill="#FFE3E7"/>
</svg>
