<svg width="52" height="54" viewBox="0 0 52 54" fill="none" xmlns="http://www.w3.org/2000/svg" xmlns:xlink="http://www.w3.org/1999/xlink">
<path d="M1.155,7.685C2.471,6.369 4.256,5.63 6.117,5.63L22.491,5.63C23.783,5.63 24.83,6.677 24.83,7.969C24.83,9.261 23.783,10.308 22.491,10.308L6.117,10.308C5.497,10.308 4.902,10.555 4.463,10.993C4.024,11.432 3.778,12.027 3.778,12.647L3.778,45.395C3.778,46.015 4.024,46.61 4.463,47.049C4.902,47.488 5.497,47.734 6.117,47.734L38.865,47.734C39.485,47.734 40.08,47.488 40.519,47.049C40.957,46.61 41.204,46.015 41.204,45.395L41.204,29.021C41.204,27.729 42.251,26.682 43.543,26.682C44.835,26.682 45.882,27.729 45.882,29.021L45.882,45.395C45.882,47.256 45.143,49.041 43.827,50.357C42.511,51.673 40.726,52.412 38.865,52.412L6.117,52.412C4.256,52.412 2.471,51.673 1.155,50.357C-0.161,49.041 -0.9,47.256 -0.9,45.395L-0.9,12.647C-0.9,10.786 -0.161,9.001 1.155,7.685Z" clip-rule="evenodd" fill-rule="evenodd" fill="#E4E4E3"/>
<path d="M43.541,5.346C42.846,5.346 42.179,5.623 41.687,6.114L19.923,27.878L18.687,32.824L23.633,31.587L45.396,9.824C45.888,9.332 46.164,8.665 46.164,7.969C46.164,7.273 45.888,6.606 45.396,6.114C44.904,5.623 44.237,5.346 43.541,5.346ZM38.379,2.806C39.748,1.437 41.605,0.668 43.541,0.668C45.478,0.668 47.335,1.437 48.704,2.806C50.073,4.176 50.843,6.033 50.843,7.969C50.843,9.906 50.073,11.763 48.704,13.132L26.482,35.353C26.183,35.653 25.807,35.866 25.396,35.969L16.039,38.308C15.242,38.507 14.399,38.274 13.818,37.693C13.237,37.112 13.003,36.268 13.203,35.471L15.542,26.115C15.645,25.704 15.857,25.328 16.157,25.028L38.379,2.806Z" clip-rule="evenodd" fill-rule="evenodd" fill="#E4E4E3"/>
</svg>
