<svg width="50" height="48" viewBox="0 0 50 48" fill="none" xmlns="http://www.w3.org/2000/svg" xmlns:xlink="http://www.w3.org/1999/xlink">
<path d="M32.996,24.216C32.996,27.809 33.008,31.401 32.992,34.994C32.976,38.64 30.738,41.041 27.275,41.054C20.426,41.081 13.576,41.081 6.727,41.054C3.264,41.04 1.017,38.64 1.01,34.994C0.997,27.714 0.997,20.434 1.01,13.154C1.018,9.509 3.264,7.108 6.727,7.094C13.576,7.068 20.426,7.068 27.275,7.094C30.738,7.108 32.977,9.508 32.992,13.154C33.006,16.842 32.996,20.529 32.996,24.216Z" fill="#1ED760"/>
<path d="M48.988,24.055C48.988,27.874 48.968,31.693 49,35.51C49.011,36.872 48.672,37.991 47.514,38.699C46.312,39.435 45.271,38.985 44.227,38.233C41.526,36.285 38.806,34.364 36.071,32.469C35.336,31.959 34.986,31.402 35,30.403C35.062,26.133 34.99,21.861 35.067,17.592C35.079,16.976 35.487,16.152 35.959,15.798C38.744,13.715 41.605,11.745 44.436,9.731C45.463,9.001 46.534,8.816 47.63,9.501C48.676,10.156 49.002,11.204 48.996,12.45C48.975,16.319 48.988,20.188 48.988,24.056L48.988,24.055Z" fill="#1ED760"/>
</svg>
