<svg width="48" height="48" viewBox="0 0 48 48" fill="none" xmlns="http://www.w3.org/2000/svg" xmlns:xlink="http://www.w3.org/1999/xlink">
<path d="M31.996,25.142C31.996,28.735 32.008,32.327 31.992,35.92C31.976,39.566 29.738,41.967 26.275,41.98C19.426,42.007 12.576,42.007 5.727,41.98C2.264,41.966 0.017,39.566 0.01,35.92C-0.003,28.64 -0.003,21.36 0.01,14.08C0.018,10.435 2.264,8.034 5.727,8.02C12.576,7.993 19.426,7.993 26.275,8.02C29.738,8.034 31.977,10.434 31.992,14.08C32.006,17.767 31.996,21.455 31.996,25.142Z" fill="#042F16"/>
<path d="M47.988,24.981C47.988,28.8 47.968,32.618 48,36.436C48.011,37.797 47.672,38.917 46.514,39.625C45.312,40.361 44.271,39.911 43.227,39.159C40.526,37.211 37.806,35.29 35.071,33.395C34.336,32.885 33.986,32.327 34,31.329C34.062,27.059 33.99,22.787 34.067,18.518C34.079,17.902 34.487,17.078 34.959,16.724C37.744,14.641 40.605,12.671 43.436,10.657C44.463,9.927 45.534,9.742 46.63,10.427C47.676,11.081 48.002,12.13 47.996,13.376C47.975,17.245 47.988,21.114 47.988,24.982L47.988,24.981Z" fill="#1D1D1B"/>
</svg>
