<svg width="50" height="48" viewBox="0 0 50 48" fill="none" xmlns="http://www.w3.org/2000/svg" xmlns:xlink="http://www.w3.org/1999/xlink">
<path d="M32.996,25.142C32.996,28.735 33.008,32.327 32.992,35.92C32.976,39.566 30.738,41.967 27.275,41.98C20.426,42.007 13.576,42.007 6.727,41.98C3.264,41.966 1.017,39.566 1.01,35.92C0.997,28.64 0.997,21.36 1.01,14.08C1.018,10.435 3.264,8.034 6.727,8.02C13.576,7.993 20.426,7.993 27.275,8.02C30.738,8.034 32.977,10.434 32.992,14.08C33.006,17.767 32.996,21.455 32.996,25.142Z" fill="#1D1D1B"/>
<path d="M48.988,24.981C48.988,28.8 48.968,32.618 49,36.436C49.011,37.797 48.672,38.917 47.514,39.625C46.312,40.361 45.271,39.911 44.227,39.159C41.526,37.211 38.806,35.29 36.071,33.395C35.336,32.885 34.986,32.327 35,31.329C35.062,27.059 34.99,22.787 35.067,18.518C35.079,17.902 35.487,17.078 35.959,16.724C38.744,14.641 41.605,12.671 44.436,10.657C45.463,9.927 46.534,9.742 47.63,10.427C48.676,11.081 49.002,12.13 48.996,13.376C48.975,17.245 48.988,21.114 48.988,24.982L48.988,24.981Z" fill="#1D1D1B"/>
</svg>
