<svg width="168" height="168" viewBox="0 0 168 168" fill="none" xmlns="http://www.w3.org/2000/svg" xmlns:xlink="http://www.w3.org/1999/xlink">
<path d="M55.02,14L55.02,9C53.694,9 52.422,9.527 51.484,10.464L55.02,14ZM112.98,14L116.516,10.464C115.578,9.527 114.306,9 112.98,9L112.98,14ZM154,55.02L159,55.02C159,53.694 158.473,52.422 157.536,51.484L154,55.02ZM154,112.98L157.536,116.516C158.473,115.578 159,114.306 159,112.98L154,112.98ZM112.98,154L112.98,159C114.306,159 115.578,158.473 116.516,157.536L112.98,154ZM55.02,154L51.484,157.536C52.422,158.473 53.694,159 55.02,159L55.02,154ZM14,112.98L9,112.98C9,114.306 9.527,115.578 10.464,116.516L14,112.98ZM14,55.02L10.464,51.484C9.527,52.422 9,53.694 9,55.02L14,55.02ZM55.02,19L112.98,19L112.98,9L55.02,9L55.02,19ZM109.444,17.536L150.464,58.556L157.536,51.484L116.516,10.464L109.444,17.536ZM149,55.02L149,112.98L159,112.98L159,55.02L149,55.02ZM150.464,109.444L109.444,150.464L116.516,157.536L157.536,116.516L150.464,109.444ZM112.98,149L55.02,149L55.02,159L112.98,159L112.98,149ZM58.556,150.464L17.536,109.444L10.464,116.516L51.484,157.536L58.556,150.464ZM19,112.98L19,55.02L9,55.02L9,112.98L19,112.98ZM17.536,58.556L58.556,17.536L51.484,10.464L10.464,51.484L17.536,58.556Z" fill="#8A113C"/>
<line x1="79" y1="56" x2="79" y2="84" stroke="#E72458" stroke-width="5" stroke-miterlimit="3.999327" stroke-linecap="round" stroke-linejoin="round"/>
<line x1="84" y1="107" x2="84.07" y2="107" stroke="#E72458" stroke-width="5" stroke-miterlimit="3.999327" stroke-linecap="round" stroke-linejoin="round"/>
</svg>
