<svg width="48" height="50" viewBox="0 0 48 50" fill="none" xmlns="http://www.w3.org/2000/svg" xmlns:xlink="http://www.w3.org/1999/xlink">
<path d="M10,10.172L38,10.172L38,6.172L10,6.172L10,10.172ZM38,10.172C39.105,10.172 40,11.067 40,12.172L44,12.172C44,8.858 41.314,6.172 38,6.172L38,10.172ZM40,12.172L40,40.172L44,40.172L44,12.172L40,12.172ZM40,40.172C40,41.276 39.105,42.172 38,42.172L38,46.172C41.314,46.172 44,43.486 44,40.172L40,40.172ZM38,42.172L10,42.172L10,46.172L38,46.172L38,42.172ZM10,42.172C8.895,42.172 8,41.276 8,40.172L4,40.172C4,43.486 6.686,46.172 10,46.172L10,42.172ZM8,40.172L8,12.172L4,12.172L4,40.172L8,40.172ZM8,12.172C8,11.067 8.895,10.172 10,10.172L10,6.172C6.686,6.172 4,8.858 4,12.172L8,12.172Z" fill="#E4E4E3"/>
<line x1="30" y1="4.172" x2="30" y2="12.172" stroke="#E4E4E3" stroke-width="2" stroke-miterlimit="3.999327" stroke-linecap="round" stroke-linejoin="round"/>
<line x1="14" y1="4.172" x2="14" y2="12.172" stroke="#E4E4E3" stroke-width="2" stroke-miterlimit="3.999327" stroke-linecap="round" stroke-linejoin="round"/>
<line x1="6" y1="18.172" x2="42" y2="18.172" stroke="#E4E4E3" stroke-width="2" stroke-miterlimit="3.999327" stroke-linecap="round" stroke-linejoin="round"/>
</svg>
