<svg width="44" height="44" viewBox="0 0 44 44" fill="none" xmlns="http://www.w3.org/2000/svg" xmlns:xlink="http://www.w3.org/1999/xlink">
<path d="M8.167,8.333L33.833,8.333L33.833,4.333L8.167,4.333L8.167,8.333ZM33.833,8.333C34.754,8.333 35.5,9.08 35.5,10L39.5,10C39.5,6.871 36.963,4.333 33.833,4.333L33.833,8.333ZM35.5,10L35.5,35.667L39.5,35.667L39.5,10L35.5,10ZM35.5,35.667C35.5,36.587 34.754,37.333 33.833,37.333L33.833,41.333C36.963,41.333 39.5,38.796 39.5,35.667L35.5,35.667ZM33.833,37.333L8.167,37.333L8.167,41.333L33.833,41.333L33.833,37.333ZM8.167,37.333C7.246,37.333 6.5,36.587 6.5,35.667L2.5,35.667C2.5,38.796 5.037,41.333 8.167,41.333L8.167,37.333ZM6.5,35.667L6.5,10L2.5,10L2.5,35.667L6.5,35.667ZM6.5,10C6.5,9.08 7.246,8.333 8.167,8.333L8.167,4.333C5.037,4.333 2.5,6.871 2.5,10L6.5,10Z" fill="#FFFFFF"/>
<line x1="26.332" y1="2.667" x2="26.332" y2="10" stroke="#FFFFFF" stroke-width="2" stroke-miterlimit="3.999327" stroke-linecap="round" stroke-linejoin="round"/>
<line x1="11.668" y1="2.667" x2="11.668" y2="10" stroke="#FFFFFF" stroke-width="2" stroke-miterlimit="3.999327" stroke-linecap="round" stroke-linejoin="round"/>
<line x1="4.5" y1="15.333" x2="37.5" y2="15.333" stroke="#FFFFFF" stroke-width="2" stroke-miterlimit="3.999327" stroke-linecap="round" stroke-linejoin="round"/>
</svg>
