<svg width="34" height="34" viewBox="0 0 34 34" fill="none" xmlns="http://www.w3.org/2000/svg" xmlns:xlink="http://www.w3.org/1999/xlink">
<path d="M2.232,6.1C2.994,5.337 4.029,4.909 5.107,4.909L14.594,4.909C15.343,4.909 15.95,5.515 15.95,6.264C15.95,7.013 15.343,7.619 14.594,7.619L5.107,7.619C4.748,7.619 4.403,7.762 4.149,8.016C3.894,8.27 3.752,8.615 3.752,8.975L3.752,27.949C3.752,28.309 3.894,28.653 4.149,28.907C4.403,29.162 4.748,29.304 5.107,29.304L24.081,29.304C24.441,29.304 24.786,29.162 25.04,28.907C25.294,28.653 25.437,28.309 25.437,27.949L25.437,18.462C25.437,17.713 26.044,17.107 26.792,17.107C27.541,17.107 28.147,17.713 28.147,18.462L28.147,27.949C28.147,29.027 27.719,30.062 26.957,30.824C26.194,31.587 25.16,32.015 24.081,32.015L5.107,32.015C4.029,32.015 2.994,31.587 2.232,30.824C1.469,30.062 1.041,29.027 1.041,27.949L1.041,8.975C1.041,7.896 1.469,6.862 2.232,6.1Z" clip-rule="evenodd" fill-rule="evenodd" fill="#E4E4E3"/>
<path d="M26.791,4.744C26.388,4.744 26.001,4.904 25.716,5.189L13.106,17.8L12.39,20.665L15.256,19.949L27.866,7.339C28.151,7.054 28.311,6.667 28.311,6.264C28.311,5.861 28.151,5.474 27.866,5.189C27.581,4.904 27.194,4.744 26.791,4.744ZM23.8,3.273C24.593,2.479 25.669,2.034 26.791,2.034C27.913,2.034 28.989,2.479 29.782,3.273C30.576,4.066 31.021,5.142 31.021,6.264C31.021,7.386 30.576,8.462 29.782,9.255L16.907,22.131C16.733,22.305 16.516,22.428 16.277,22.487L10.856,23.843C10.394,23.958 9.906,23.823 9.569,23.486C9.232,23.15 9.097,22.661 9.212,22.199L10.568,16.778C10.627,16.54 10.75,16.322 10.924,16.148L23.8,3.273Z" clip-rule="evenodd" fill-rule="evenodd" fill="#E4E4E3"/>
</svg>
