<svg width="48" height="48" viewBox="0 0 48 48" fill="none" xmlns="http://www.w3.org/2000/svg" xmlns:xlink="http://www.w3.org/1999/xlink">
<mask id="mask_0_i_6368_37677;5882_15843;3314_9402" style="mask-type:alpha" maskUnits="userSpaceOnUse" x="0" y="2" width="24" height="24">
<rect  x="0" y="2" width="48" height="48" fill="#D9D9D9"/>
</mask>
<g mask="url(#mask_0_i_6368_37677;5882_15843;3314_9402)">
<path d="M10,43.999C8.9,43.999 7.958,43.608 7.175,42.824C6.392,42.041 6,41.099 6,39.999L6,11.999C6,10.899 6.392,9.958 7.175,9.174C7.958,8.391 8.9,7.999 10,7.999L27.85,7.999L23.85,11.999L10,11.999L10,39.999L38,39.999L38,26.099L42,22.099L42,39.999C42,41.099 41.608,42.041 40.825,42.824C40.042,43.608 39.1,43.999 38,43.999L10,43.999ZM18,31.999L18,23.499L36.35,5.149C36.75,4.749 37.2,4.449 37.7,4.249C38.2,4.049 38.7,3.949 39.2,3.949C39.733,3.949 40.242,4.049 40.725,4.249C41.208,4.449 41.65,4.749 42.05,5.149L44.85,7.999C45.217,8.399 45.5,8.841 45.7,9.324C45.9,9.808 46,10.299 46,10.799C46,11.299 45.908,11.791 45.725,12.274C45.542,12.758 45.25,13.199 44.85,13.599L26.5,31.999L18,31.999ZM22,27.999L24.8,27.999L36.4,16.399L35,14.999L33.55,13.599L22,25.149L22,27.999Z" fill="#1D1D1B"/>
</g>
</svg>
