<svg width="48" height="48" viewBox="0 0 48 48" fill="none" xmlns="http://www.w3.org/2000/svg" xmlns:xlink="http://www.w3.org/1999/xlink">
<path d="M3.757,6.832C4.883,5.706 6.409,5.074 8,5.074L22,5.074C23.105,5.074 24,5.97 24,7.074C24,8.179 23.105,9.074 22,9.074L8,9.074C7.47,9.074 6.961,9.285 6.586,9.66C6.211,10.035 6,10.544 6,11.074L6,39.074C6,39.605 6.211,40.113 6.586,40.488C6.961,40.863 7.47,41.074 8,41.074L36,41.074C36.53,41.074 37.039,40.863 37.414,40.488C37.789,40.113 38,39.605 38,39.074L38,25.074C38,23.97 38.895,23.074 40,23.074C41.105,23.074 42,23.97 42,25.074L42,39.074C42,40.666 41.368,42.192 40.243,43.317C39.117,44.442 37.591,45.074 36,45.074L8,45.074C6.409,45.074 4.883,44.442 3.757,43.317C2.632,42.192 2,40.666 2,39.074L2,11.074C2,9.483 2.632,7.957 3.757,6.832Z" clip-rule="evenodd" fill-rule="evenodd" fill="#E4E4E3"/>
<path d="M40,4.832C39.405,4.832 38.835,5.068 38.414,5.489L19.806,24.097L18.749,28.326L22.978,27.269L41.586,8.66C42.006,8.24 42.243,7.669 42.243,7.075C42.243,6.48 42.006,5.909 41.586,5.489C41.165,5.068 40.595,4.832 40,4.832ZM35.586,2.66C36.757,1.49 38.344,0.832 40,0.832C41.656,0.832 43.244,1.49 44.414,2.66C45.585,3.831 46.243,5.419 46.243,7.075C46.243,8.73 45.585,10.318 44.414,11.489L25.414,30.489C25.158,30.745 24.837,30.927 24.485,31.015L16.485,33.015C15.804,33.185 15.083,32.986 14.586,32.489C14.089,31.992 13.889,31.271 14.06,30.59L16.06,22.59C16.148,22.238 16.33,21.917 16.586,21.66L35.586,2.66Z" clip-rule="evenodd" fill-rule="evenodd" fill="#E4E4E3"/>
</svg>
