<svg width="48" height="48" viewBox="0 0 48 48" fill="none" xmlns="http://www.w3.org/2000/svg" xmlns:xlink="http://www.w3.org/1999/xlink">
<path d="M3.858,8.252C4.932,7.178 6.39,6.574 7.909,6.574L21.279,6.574C22.334,6.574 23.189,7.429 23.189,8.484C23.189,9.539 22.334,10.394 21.279,10.394L7.909,10.394C7.403,10.394 6.917,10.595 6.559,10.953C6.201,11.312 6,11.797 6,12.304L6,39.043C6,39.55 6.201,40.035 6.559,40.394C6.917,40.752 7.403,40.953 7.909,40.953L34.648,40.953C35.155,40.953 35.641,40.752 35.999,40.394C36.357,40.035 36.558,39.55 36.558,39.043L36.558,25.674C36.558,24.619 37.414,23.764 38.468,23.764C39.523,23.764 40.378,24.619 40.378,25.674L40.378,39.043C40.378,40.563 39.775,42.02 38.7,43.095C37.626,44.169 36.168,44.773 34.648,44.773L7.909,44.773C6.39,44.773 4.932,44.169 3.858,43.095C2.783,42.02 2.18,40.563 2.18,39.043L2.18,12.304C2.18,10.784 2.783,9.327 3.858,8.252Z" clip-rule="evenodd" fill-rule="evenodd" fill="#E4E4E3"/>
<path d="M38.47,6.343C37.902,6.343 37.357,6.569 36.955,6.971L19.185,24.741L18.176,28.779L22.214,27.77L39.984,9.999C40.386,9.598 40.611,9.053 40.611,8.485C40.611,7.917 40.386,7.372 39.984,6.971C39.583,6.569 39.038,6.343 38.47,6.343ZM34.254,4.27C35.372,3.152 36.889,2.523 38.47,2.523C40.051,2.523 41.567,3.152 42.685,4.27C43.803,5.388 44.431,6.904 44.431,8.485C44.431,10.066 43.803,11.582 42.685,12.7L24.541,30.845C24.296,31.089 23.989,31.263 23.654,31.347L16.014,33.257C15.363,33.42 14.674,33.229 14.2,32.755C13.726,32.28 13.535,31.592 13.698,30.941L15.608,23.301C15.692,22.965 15.865,22.659 16.11,22.414L34.254,4.27Z" clip-rule="evenodd" fill-rule="evenodd" fill="#E4E4E3"/>
</svg>
