<svg width="34" height="32" viewBox="0 0 34 32" fill="none" xmlns="http://www.w3.org/2000/svg" xmlns:xlink="http://www.w3.org/1999/xlink">
<path d="M2.394,4.364C3.157,3.601 4.191,3.173 5.269,3.173L14.756,3.173C15.505,3.173 16.112,3.78 16.112,4.528C16.112,5.277 15.505,5.883 14.756,5.883L5.269,5.883C4.91,5.883 4.565,6.026 4.311,6.28C4.057,6.535 3.914,6.879 3.914,7.239L3.914,26.213C3.914,26.573 4.057,26.917 4.311,27.172C4.565,27.426 4.91,27.569 5.269,27.569L24.244,27.569C24.603,27.569 24.948,27.426 25.202,27.172C25.456,26.917 25.599,26.573 25.599,26.213L25.599,16.726C25.599,15.978 26.206,15.371 26.954,15.371C27.703,15.371 28.31,15.978 28.31,16.726L28.31,26.213C28.31,27.292 27.881,28.326 27.119,29.088C26.356,29.851 25.322,30.279 24.244,30.279L5.269,30.279C4.191,30.279 3.157,29.851 2.394,29.088C1.632,28.326 1.203,27.292 1.203,26.213L1.203,7.239C1.203,6.16 1.632,5.126 2.394,4.364Z" clip-rule="evenodd" fill-rule="evenodd" fill="#E4E4E3"/>
<path d="M26.953,3.008C26.55,3.008 26.164,3.169 25.879,3.454L13.268,16.064L12.552,18.929L15.418,18.213L28.028,5.603C28.313,5.318 28.473,4.931 28.473,4.528C28.473,4.125 28.313,3.739 28.028,3.454C27.743,3.169 27.356,3.008 26.953,3.008ZM23.962,1.537C24.755,0.744 25.831,0.298 26.953,0.298C28.075,0.298 29.151,0.744 29.945,1.537C30.738,2.33 31.184,3.406 31.184,4.528C31.184,5.65 30.738,6.726 29.945,7.52L17.069,20.395C16.895,20.569 16.678,20.692 16.439,20.752L11.018,22.107C10.556,22.222 10.068,22.087 9.731,21.75C9.394,21.414 9.259,20.925 9.374,20.463L10.73,15.042C10.789,14.804 10.913,14.586 11.086,14.412L23.962,1.537Z" clip-rule="evenodd" fill-rule="evenodd" fill="#E4E4E3"/>
</svg>
