<svg width="48" height="48" viewBox="0 0 48 48" fill="none" xmlns="http://www.w3.org/2000/svg" xmlns:xlink="http://www.w3.org/1999/xlink">
<path d="M3.757,7.757C4.883,6.632 6.409,6 8,6L22,6C23.105,6 24,6.895 24,8C24,9.105 23.105,10 22,10L8,10C7.47,10 6.961,10.211 6.586,10.586C6.211,10.961 6,11.47 6,12L6,40C6,40.53 6.211,41.039 6.586,41.414C6.961,41.789 7.47,42 8,42L36,42C36.53,42 37.039,41.789 37.414,41.414C37.789,41.039 38,40.53 38,40L38,26C38,24.895 38.895,24 40,24C41.105,24 42,24.895 42,26L42,40C42,41.591 41.368,43.117 40.243,44.243C39.117,45.368 37.591,46 36,46L8,46C6.409,46 4.883,45.368 3.757,44.243C2.632,43.117 2,41.591 2,40L2,12C2,10.409 2.632,8.883 3.757,7.757Z" clip-rule="evenodd" fill-rule="evenodd" fill="#E4E4E3"/>
<path d="M40,5.757C39.405,5.757 38.835,5.994 38.414,6.414L19.806,25.023L18.749,29.251L22.978,28.194L41.586,9.586C42.006,9.165 42.243,8.595 42.243,8C42.243,7.405 42.006,6.835 41.586,6.414C41.165,5.994 40.595,5.757 40,5.757ZM35.586,3.586C36.757,2.415 38.344,1.757 40,1.757C41.656,1.757 43.244,2.415 44.414,3.586C45.585,4.756 46.243,6.344 46.243,8C46.243,9.656 45.585,11.243 44.414,12.414L25.414,31.414C25.158,31.671 24.837,31.852 24.485,31.94L16.485,33.94C15.804,34.111 15.083,33.911 14.586,33.414C14.089,32.917 13.889,32.197 14.06,31.515L16.06,23.515C16.148,23.163 16.33,22.842 16.586,22.586L35.586,3.586Z" clip-rule="evenodd" fill-rule="evenodd" fill="#E4E4E3"/>
</svg>
