<svg width="34" height="34" viewBox="0 0 34 34" fill="none" xmlns="http://www.w3.org/2000/svg" xmlns:xlink="http://www.w3.org/1999/xlink">
<path d="M2.394,4.777C3.157,4.014 4.191,3.586 5.269,3.586L14.756,3.586C15.505,3.586 16.112,4.193 16.112,4.941C16.112,5.69 15.505,6.297 14.756,6.297L5.269,6.297C4.91,6.297 4.565,6.439 4.311,6.694C4.057,6.948 3.914,7.292 3.914,7.652L3.914,26.626C3.914,26.986 4.057,27.331 4.311,27.585C4.565,27.839 4.91,27.982 5.269,27.982L24.244,27.982C24.603,27.982 24.948,27.839 25.202,27.585C25.456,27.331 25.599,26.986 25.599,26.626L25.599,17.139C25.599,16.391 26.206,15.784 26.954,15.784C27.703,15.784 28.31,16.391 28.31,17.139L28.31,26.626C28.31,27.705 27.881,28.739 27.119,29.502C26.356,30.264 25.322,30.692 24.244,30.692L5.269,30.692C4.191,30.692 3.157,30.264 2.394,29.502C1.632,28.739 1.203,27.705 1.203,26.626L1.203,7.652C1.203,6.574 1.632,5.539 2.394,4.777Z" clip-rule="evenodd" fill-rule="evenodd" fill="#E4E4E3"/>
<path d="M26.953,3.423C26.55,3.423 26.164,3.583 25.879,3.868L13.268,16.478L12.552,19.343L15.418,18.627L28.028,6.017C28.313,5.732 28.473,5.345 28.473,4.942C28.473,4.539 28.313,4.153 28.028,3.868C27.743,3.583 27.356,3.423 26.953,3.423ZM23.962,1.951C24.755,1.158 25.831,0.712 26.953,0.712C28.075,0.712 29.151,1.158 29.945,1.951C30.738,2.744 31.184,3.82 31.184,4.942C31.184,6.064 30.738,7.14 29.945,7.934L17.069,20.809C16.895,20.983 16.678,21.106 16.439,21.166L11.018,22.521C10.556,22.637 10.068,22.501 9.731,22.165C9.394,21.828 9.259,21.339 9.374,20.878L10.73,15.456C10.789,15.218 10.913,15 11.086,14.827L23.962,1.951Z" clip-rule="evenodd" fill-rule="evenodd" fill="#E4E4E3"/>
</svg>
