<svg width="48" height="48" viewBox="0 0 48 48" fill="none" xmlns="http://www.w3.org/2000/svg" xmlns:xlink="http://www.w3.org/1999/xlink">
<path d="M3.757,6.757C4.883,5.632 6.409,5 8,5L22,5C23.105,5 24,5.895 24,7C24,8.105 23.105,9 22,9L8,9C7.47,9 6.961,9.211 6.586,9.586C6.211,9.961 6,10.47 6,11L6,39C6,39.53 6.211,40.039 6.586,40.414C6.961,40.789 7.47,41 8,41L36,41C36.53,41 37.039,40.789 37.414,40.414C37.789,40.039 38,39.53 38,39L38,25C38,23.895 38.895,23 40,23C41.105,23 42,23.895 42,25L42,39C42,40.591 41.368,42.117 40.243,43.243C39.117,44.368 37.591,45 36,45L8,45C6.409,45 4.883,44.368 3.757,43.243C2.632,42.117 2,40.591 2,39L2,11C2,9.409 2.632,7.883 3.757,6.757Z" clip-rule="evenodd" fill-rule="evenodd" fill="#E4E4E3"/>
<path d="M40,4.758C39.405,4.758 38.835,4.994 38.414,5.415L19.806,24.023L18.749,28.252L22.978,27.195L41.586,8.586C42.006,8.166 42.243,7.595 42.243,7C42.243,6.406 42.006,5.835 41.586,5.415C41.165,4.994 40.595,4.758 40,4.758ZM35.586,2.586C36.757,1.416 38.344,0.758 40,0.758C41.656,0.758 43.244,1.416 44.414,2.586C45.585,3.757 46.243,5.345 46.243,7C46.243,8.656 45.585,10.244 44.414,11.415L25.414,30.415C25.158,30.671 24.837,30.853 24.485,30.941L16.485,32.941C15.804,33.111 15.083,32.911 14.586,32.415C14.089,31.918 13.889,31.197 14.06,30.515L16.06,22.515C16.148,22.164 16.33,21.843 16.586,21.586L35.586,2.586Z" clip-rule="evenodd" fill-rule="evenodd" fill="#E4E4E3"/>
</svg>
