<svg width="34" height="32" viewBox="0 0 34 32" fill="none" xmlns="http://www.w3.org/2000/svg" xmlns:xlink="http://www.w3.org/1999/xlink">
<path d="M2.394,4.363C3.157,3.6 4.191,3.172 5.269,3.172L14.756,3.172C15.505,3.172 16.112,3.779 16.112,4.527C16.112,5.276 15.505,5.883 14.756,5.883L5.269,5.883C4.91,5.883 4.565,6.025 4.311,6.279C4.057,6.534 3.914,6.878 3.914,7.238L3.914,26.212C3.914,26.572 4.057,26.916 4.311,27.171C4.565,27.425 4.91,27.568 5.269,27.568L24.244,27.568C24.603,27.568 24.948,27.425 25.202,27.171C25.456,26.916 25.599,26.572 25.599,26.212L25.599,16.725C25.599,15.977 26.206,15.37 26.954,15.37C27.703,15.37 28.31,15.977 28.31,16.725L28.31,26.212C28.31,27.291 27.881,28.325 27.119,29.087C26.356,29.85 25.322,30.278 24.244,30.278L5.269,30.278C4.191,30.278 3.157,29.85 2.394,29.087C1.632,28.325 1.203,27.291 1.203,26.212L1.203,7.238C1.203,6.159 1.632,5.125 2.394,4.363Z" clip-rule="evenodd" fill-rule="evenodd" fill="#E4E4E3"/>
<path d="M26.953,3.008C26.55,3.008 26.164,3.169 25.879,3.454L13.268,16.064L12.552,18.929L15.418,18.213L28.028,5.603C28.313,5.318 28.473,4.931 28.473,4.528C28.473,4.125 28.313,3.739 28.028,3.454C27.743,3.169 27.356,3.008 26.953,3.008ZM23.962,1.537C24.755,0.744 25.831,0.298 26.953,0.298C28.075,0.298 29.151,0.744 29.945,1.537C30.738,2.33 31.184,3.406 31.184,4.528C31.184,5.65 30.738,6.726 29.945,7.52L17.069,20.395C16.895,20.569 16.678,20.692 16.439,20.752L11.018,22.107C10.556,22.222 10.068,22.087 9.731,21.75C9.394,21.414 9.259,20.925 9.374,20.463L10.73,15.042C10.789,14.804 10.913,14.586 11.086,14.412L23.962,1.537Z" clip-rule="evenodd" fill-rule="evenodd" fill="#E4E4E3"/>
</svg>
