<svg width="32" height="30" viewBox="0 0 32 30" fill="none" xmlns="http://www.w3.org/2000/svg" xmlns:xlink="http://www.w3.org/1999/xlink">
<path d="M18.875,28.328L30.098,17.105C30.681,16.519 31.008,15.725 31.008,14.898C31.008,14.071 30.681,13.278 30.098,12.691L16.652,-0.754L1,-0.754L1,14.898L14.445,28.328C14.736,28.619 15.081,28.85 15.461,29.007C15.841,29.165 16.249,29.246 16.66,29.246C17.071,29.246 17.479,29.165 17.859,29.007C18.239,28.85 18.584,28.619 18.875,28.328ZM8.826,4.985C7.674,4.985 6.739,5.92 6.739,7.072C6.739,8.225 7.674,9.159 8.826,9.159L8.841,9.159C9.994,9.159 10.928,8.225 10.928,7.072C10.928,5.92 9.994,4.985 8.841,4.985L8.826,4.985Z" clip-rule="evenodd" fill-rule="evenodd" fill="#E4E4E3"/>
</svg>
