<svg width="48" height="48" viewBox="0 0 48 48" fill="none" xmlns="http://www.w3.org/2000/svg" xmlns:xlink="http://www.w3.org/1999/xlink">
<path d="M24,48C37.255,48 48,37.255 48,24C48,10.745 37.255,0 24,0C10.745,0 0,10.745 0,24C0,37.255 10.745,48 24,48ZM33.41,13.403C30.749,10.751 27.208,9.29 23.44,9.288C19.68,9.288 16.134,10.748 13.455,13.399C10.771,16.055 9.292,19.584 9.288,23.323L9.288,23.327L9.288,23.33C9.289,25.593 9.883,27.876 11.012,29.961L9.327,37.62L17.075,35.858C19.037,36.847 21.226,37.368 23.435,37.369L23.44,37.369C27.199,37.369 30.745,35.909 33.425,33.258C36.111,30.6 37.591,27.076 37.593,23.334C37.594,19.618 36.109,16.091 33.41,13.403ZM23.44,35.158L23.435,35.158C21.452,35.157 19.488,34.659 17.754,33.718L17.387,33.519L12.236,34.69L13.355,29.605L13.139,29.233C12.066,27.383 11.5,25.341 11.5,23.328C11.504,16.809 16.86,11.5 23.439,11.5C26.618,11.501 29.605,12.733 31.85,14.969C34.128,17.24 35.382,20.21 35.381,23.333C35.379,29.853 30.022,35.158 23.44,35.158ZM18.969,17.138L19.589,17.138C19.82,17.148 20.075,17.166 20.318,17.703L20.317,17.703C20.485,18.074 20.764,18.768 20.985,19.316C21.145,19.711 21.274,20.031 21.308,20.098C21.388,20.26 21.442,20.448 21.335,20.663C21.312,20.708 21.293,20.749 21.274,20.787C21.203,20.936 21.147,21.052 21.019,21.202C20.857,21.39 20.66,21.588 20.515,21.732C20.353,21.893 20.184,22.068 20.373,22.39C20.562,22.713 21.23,23.804 22.192,24.659C23.232,25.583 24.127,25.975 24.578,26.173C24.663,26.211 24.733,26.241 24.784,26.267C25.108,26.428 25.297,26.401 25.486,26.186C25.675,25.97 26.31,25.224 26.526,24.902C26.742,24.579 26.958,24.632 27.255,24.74C27.537,24.843 28.988,25.566 29.406,25.775C29.428,25.786 29.446,25.795 29.462,25.803C29.525,25.834 29.584,25.863 29.639,25.889C29.865,25.998 30.017,26.071 30.083,26.179C30.163,26.314 30.163,26.96 29.894,27.713C29.624,28.467 28.302,29.193 27.709,29.247C27.652,29.252 27.595,29.259 27.536,29.266C26.988,29.33 26.296,29.411 23.824,28.44C20.783,27.244 18.778,24.282 18.364,23.67C18.33,23.62 18.307,23.586 18.294,23.57L18.291,23.565C18.116,23.331 16.973,21.809 16.973,20.233C16.973,18.747 17.705,17.968 18.042,17.61C18.066,17.585 18.087,17.563 18.106,17.542C18.402,17.219 18.753,17.138 18.969,17.138Z" clip-rule="evenodd" fill-rule="evenodd" fill="#454440"/>
</svg>
