<svg width="42" height="40" viewBox="0 0 42 40" fill="none" xmlns="http://www.w3.org/2000/svg" xmlns:xlink="http://www.w3.org/1999/xlink">
<path d="M23.833,38.776L38.797,23.812C39.574,23.03 40.01,21.972 40.01,20.87C40.01,19.767 39.574,18.709 38.797,17.927L20.87,0L0,0L0,20.87L17.927,38.776C18.315,39.164 18.775,39.472 19.282,39.682C19.788,39.892 20.332,40 20.88,40C21.429,40 21.972,39.892 22.478,39.682C22.985,39.472 23.446,39.164 23.833,38.776ZM10.435,7.652C8.898,7.652 7.652,8.898 7.652,10.435C7.652,11.972 8.898,13.217 10.435,13.217L10.455,13.217C11.992,13.217 13.237,11.972 13.237,10.435C13.237,8.898 11.992,7.652 10.455,7.652L10.435,7.652Z" clip-rule="evenodd" fill-rule="evenodd" fill="#84837D"/>
</svg>
