<svg width="48" height="48" viewBox="0 0 48 48" fill="none" xmlns="http://www.w3.org/2000/svg" xmlns:xlink="http://www.w3.org/1999/xlink">
<path d="M48,24C48,37.255 37.255,48 24,48C10.745,48 0,37.255 0,24C0,10.745 10.745,0 24,0C37.255,0 48,10.745 48,24ZM40,24C40,25.843 39.686,27.615 39.109,29.264C39.095,29.313 39.079,29.362 39.059,29.408C36.836,35.577 30.925,40 24,40C17.075,40 11.164,35.577 8.941,29.408C8.921,29.362 8.905,29.313 8.891,29.264C8.314,27.615 8,25.843 8,24C8,22.157 8.314,20.385 8.891,18.736C8.904,18.687 8.921,18.639 8.941,18.592C11.164,12.423 17.075,8 24,8C30.925,8 36.836,12.423 39.059,18.592C39.079,18.638 39.095,18.687 39.109,18.736C39.686,20.385 40,22.157 40,24ZM21.587,34.14C22.408,36.604 23.391,37.707 24,37.707C24.609,37.707 25.592,36.604 26.413,34.14C26.809,32.951 27.126,31.585 27.358,30.098L20.642,30.098C20.874,31.585 21.191,32.951 21.587,34.14ZM20.196,24C20.196,25.306 20.254,26.581 20.364,27.804L27.636,27.804C27.746,26.581 27.804,25.306 27.804,24C27.804,22.694 27.746,21.419 27.636,20.196L20.364,20.196C20.254,21.419 20.196,22.694 20.196,24ZM10.831,20.196C10.481,21.404 10.293,22.681 10.293,24C10.293,25.32 10.481,26.596 10.831,27.805L18.064,27.805C17.956,26.556 17.902,25.277 17.902,24C17.902,22.723 17.956,21.444 18.064,20.196L10.831,20.196ZM26.413,13.86C25.592,11.396 24.609,10.294 24,10.294C23.391,10.294 22.408,11.396 21.587,13.86C21.191,15.049 20.873,16.415 20.642,17.902L27.358,17.902C27.127,16.415 26.809,15.049 26.413,13.86ZM37.169,20.196L29.936,20.196C30.043,21.444 30.098,22.723 30.098,24C30.098,25.277 30.043,26.556 29.936,27.805L37.169,27.805C37.518,26.596 37.706,25.32 37.706,24C37.706,22.681 37.518,21.404 37.169,20.196ZM29.673,17.902L36.273,17.902C34.544,14.437 31.39,11.802 27.584,10.77C28.565,12.565 29.265,15.089 29.673,17.902ZM18.327,17.902C18.735,15.089 19.435,12.565 20.416,10.77C16.61,11.802 13.456,14.437 11.727,17.902L18.327,17.902ZM18.327,30.098L11.727,30.098C13.456,33.564 16.61,36.198 20.416,37.23C19.435,35.435 18.735,32.911 18.327,30.098ZM29.673,30.098C29.265,32.911 28.565,35.435 27.584,37.23C31.39,36.198 34.544,33.564 36.273,30.098L29.673,30.098Z" clip-rule="evenodd" fill-rule="evenodd" fill="#454440"/>
</svg>
