<svg width="50" height="48" viewBox="0 0 50 48" fill="none" xmlns="http://www.w3.org/2000/svg" xmlns:xlink="http://www.w3.org/1999/xlink">
<path d="M24.666,4C13.666,4 4.666,13 4.666,24C4.666,35 13.666,44 24.666,44C35.666,44 44.666,35 44.666,24C44.666,13 35.666,4 24.666,4Z" fill="url(#pf_0_i_7369_116418;7361_108743)"/>
<path d="M32.666,16C32.066,15.4 31.266,15.2 30.666,15.6L23.466,18C21.066,18.8 19.466,20.4 18.666,22.8L16.266,30C16.066,30.8 16.266,31.4 16.666,32C17.066,32.4 17.466,32.6 18.066,32.6C18.266,32.6 18.466,32.6 18.666,32.4L25.866,30C28.066,29.2 29.866,27.4 30.666,25.2L33.066,18C33.266,17.4 33.066,16.6 32.666,16Z" fill="#FFFFFF"/>
<defs>
<linearGradient id="pf_0_i_7369_116418;7361_108743" x1="24.666" y1="4" x2="24.666" y2="44" gradientUnits="userSpaceOnUse">
<stop stop-color="#FFE455"/>
<stop offset="1" stop-color="#EFCA04"/>
</linearGradient>
</defs>
</svg>
