<svg width="124" height="124" viewBox="0 0 124 124" fill="none" xmlns="http://www.w3.org/2000/svg" xmlns:xlink="http://www.w3.org/1999/xlink">
<path d="M42.361,13.032C43.311,11.606 44.911,10.75 46.625,10.75L77.375,10.75C79.089,10.75 80.689,11.606 81.639,13.032L90.368,26.125L108.125,26.125C112.203,26.125 116.113,27.745 118.997,30.628C121.88,33.512 123.5,37.422 123.5,41.5L123.5,97.875C123.5,101.953 121.88,105.863 118.997,108.747C116.113,111.63 112.203,113.25 108.125,113.25L15.875,113.25C11.797,113.25 7.887,111.63 5.003,108.747C2.12,105.863 0.5,101.953 0.5,97.875L0.5,41.5C0.5,37.422 2.12,33.512 5.003,30.628C7.887,27.745 11.797,26.125 15.875,26.125L33.632,26.125L42.361,13.032ZM49.368,21L40.639,34.093C39.689,35.519 38.089,36.375 36.375,36.375L15.875,36.375C14.516,36.375 13.212,36.915 12.251,37.876C11.29,38.837 10.75,40.141 10.75,41.5L10.75,97.875C10.75,99.234 11.29,100.538 12.251,101.499C13.212,102.46 14.516,103 15.875,103L108.125,103C109.484,103 110.788,102.46 111.749,101.499C112.71,100.538 113.25,99.234 113.25,97.875L113.25,41.5C113.25,40.141 112.71,38.837 111.749,37.876C110.788,36.915 109.484,36.375 108.125,36.375L87.625,36.375C85.911,36.375 84.311,35.519 83.361,34.093L74.632,21L49.368,21Z" clip-rule="evenodd" fill-rule="evenodd" fill="#84837D" stroke="#292927" stroke-width="3" stroke-miterlimit="3.999327" stroke-linecap="round" stroke-linejoin="round"/>
<path d="M62,51.75C53.509,51.75 46.625,58.634 46.625,67.125C46.625,75.616 53.509,82.5 62,82.5C70.491,82.5 77.375,75.616 77.375,67.125C77.375,58.634 70.491,51.75 62,51.75ZM36.375,67.125C36.375,52.973 47.848,41.5 62,41.5C76.152,41.5 87.625,52.973 87.625,67.125C87.625,81.277 76.152,92.75 62,92.75C47.848,92.75 36.375,81.277 36.375,67.125Z" clip-rule="evenodd" fill-rule="evenodd" fill="#84837D" stroke="#292927" stroke-width="3" stroke-miterlimit="3.999327" stroke-linecap="round" stroke-linejoin="round"/>
<line x1="60.409" y1="56.891" x2="60.409" y2="76.617" stroke="#E4E4E3" stroke-width="1.409" stroke-miterlimit="3.999327" stroke-linecap="round" stroke-linejoin="round"/>
<line x1="51.955" y1="65.345" x2="71.682" y2="65.345" stroke="#E4E4E3" stroke-width="1.409" stroke-miterlimit="3.999327" stroke-linecap="round" stroke-linejoin="round"/>
</svg>
