<svg width="124" height="124" viewBox="0 0 124 124" fill="none" xmlns="http://www.w3.org/2000/svg" xmlns:xlink="http://www.w3.org/1999/xlink">
<path d="M119.72,31.818C121.427,32.696 122.5,34.455 122.5,36.375L122.5,87.625C122.5,89.545 121.427,91.304 119.72,92.182C118.013,93.06 115.958,92.911 114.396,91.795L78.521,66.17C77.174,65.208 76.375,63.655 76.375,62C76.375,60.345 77.174,58.792 78.521,57.83L114.396,32.205C115.958,31.089 118.013,30.94 119.72,31.818ZM90.317,62L112.25,77.666L112.25,46.334L90.317,62Z" clip-rule="evenodd" fill-rule="evenodd" fill="#84837D" stroke="#292927" stroke-width="3" stroke-miterlimit="3.999327" stroke-linecap="round" stroke-linejoin="round"/>
<path d="M14.875,31.25C12.045,31.25 9.75,33.545 9.75,36.375L9.75,87.625C9.75,90.455 12.045,92.75 14.875,92.75L71.25,92.75C74.08,92.75 76.375,90.455 76.375,87.625L76.375,36.375C76.375,33.545 74.08,31.25 71.25,31.25L14.875,31.25ZM-0.5,36.375C-0.5,27.884 6.384,21 14.875,21L71.25,21C79.741,21 86.625,27.884 86.625,36.375L86.625,87.625C86.625,96.116 79.741,103 71.25,103L14.875,103C6.384,103 -0.5,96.116 -0.5,87.625L-0.5,36.375Z" clip-rule="evenodd" fill-rule="evenodd" fill="#84837D" stroke="#292927" stroke-width="3" stroke-miterlimit="3.999327" stroke-linecap="round" stroke-linejoin="round"/>
<line x1="43.499" y1="51.045" x2="43.499" y2="70.772" stroke="#E4E4E3" stroke-width="1.409" stroke-miterlimit="3.999327" stroke-linecap="round" stroke-linejoin="round"/>
<line x1="35.045" y1="59.499" x2="54.772" y2="59.499" stroke="#E4E4E3" stroke-width="1.409" stroke-miterlimit="3.999327" stroke-linecap="round" stroke-linejoin="round"/>
</svg>
