<svg width="124" height="124" viewBox="0 0 124 124" fill="none" xmlns="http://www.w3.org/2000/svg" xmlns:xlink="http://www.w3.org/1999/xlink">
<path d="M41.361,13.032C42.311,11.606 43.911,10.75 45.625,10.75L76.375,10.75C78.089,10.75 79.689,11.606 80.639,13.032L89.368,26.125L107.125,26.125C111.203,26.125 115.113,27.745 117.997,30.628C120.88,33.512 122.5,37.422 122.5,41.5L122.5,97.875C122.5,101.953 120.88,105.863 117.997,108.747C115.113,111.63 111.203,113.25 107.125,113.25L14.875,113.25C10.797,113.25 6.887,111.63 4.003,108.747C1.12,105.863 -0.5,101.953 -0.5,97.875L-0.5,41.5C-0.5,37.422 1.12,33.512 4.003,30.628C6.887,27.745 10.797,26.125 14.875,26.125L32.632,26.125L41.361,13.032ZM48.368,21L39.639,34.093C38.689,35.519 37.089,36.375 35.375,36.375L14.875,36.375C13.516,36.375 12.212,36.915 11.251,37.876C10.29,38.837 9.75,40.141 9.75,41.5L9.75,97.875C9.75,99.234 10.29,100.538 11.251,101.499C12.212,102.46 13.516,103 14.875,103L107.125,103C108.484,103 109.788,102.46 110.749,101.499C111.71,100.538 112.25,99.234 112.25,97.875L112.25,41.5C112.25,40.141 111.71,38.837 110.749,37.876C109.788,36.915 108.484,36.375 107.125,36.375L86.625,36.375C84.911,36.375 83.311,35.519 82.361,34.093L73.632,21L48.368,21Z" clip-rule="evenodd" fill-rule="evenodd" fill="#84837D" stroke="#292927" stroke-width="3" stroke-miterlimit="3.999327" stroke-linecap="round" stroke-linejoin="round"/>
<path d="M61,51.75C52.509,51.75 45.625,58.634 45.625,67.125C45.625,75.616 52.509,82.5 61,82.5C69.491,82.5 76.375,75.616 76.375,67.125C76.375,58.634 69.491,51.75 61,51.75ZM35.375,67.125C35.375,52.973 46.848,41.5 61,41.5C75.152,41.5 86.625,52.973 86.625,67.125C86.625,81.277 75.152,92.75 61,92.75C46.848,92.75 35.375,81.277 35.375,67.125Z" clip-rule="evenodd" fill-rule="evenodd" fill="#84837D" stroke="#292927" stroke-width="3" stroke-miterlimit="3.999327" stroke-linecap="round" stroke-linejoin="round"/>
<line x1="59.409" y1="56.891" x2="59.409" y2="76.617" stroke="#E4E4E3" stroke-width="1.409" stroke-miterlimit="3.999327" stroke-linecap="round" stroke-linejoin="round"/>
<line x1="50.955" y1="65.345" x2="70.682" y2="65.345" stroke="#E4E4E3" stroke-width="1.409" stroke-miterlimit="3.999327" stroke-linecap="round" stroke-linejoin="round"/>
</svg>
