<svg width="48" height="48" viewBox="0 0 48 48" fill="none" xmlns="http://www.w3.org/2000/svg" xmlns:xlink="http://www.w3.org/1999/xlink">
<path d="M44.688,35.94C46.843,32.228 47.979,28.11 47.979,23.989C47.979,10.779 37.198,0 23.989,0C10.779,0 0,10.781 0,23.989C0,37.2 10.781,47.979 23.989,47.979C28.314,47.979 32.598,46.744 36.422,44.401L48,47.969L44.688,35.94ZM36.004,41.331C32.35,43.703 28.601,45.168 23.989,45.168C12.312,45.168 2.811,35.667 2.811,23.989C2.811,12.312 12.312,2.811 23.989,2.811C35.667,2.811 45.168,12.312 45.168,23.989C45.168,28.427 43.787,32.047 41.656,35.519L43.929,43.773L36.004,41.331Z" fill="#E4E4E3"/>
<path d="M24.113,8.531C24.072,8.529 24.031,8.528 23.989,8.528C23.975,8.528 23.961,8.528 23.947,8.529C23.917,8.528 23.888,8.528 23.858,8.528C15.332,8.528 8.396,15.464 8.396,23.989C8.396,32.515 15.332,39.452 23.858,39.452C23.888,39.452 23.917,39.451 23.947,39.45C23.961,39.451 23.975,39.452 23.989,39.452C24.031,39.452 24.072,39.45 24.113,39.448C32.521,39.312 39.32,32.43 39.32,23.989C39.32,15.549 32.521,8.667 24.113,8.531ZM35.188,18.367L30.571,18.367C30.275,16.585 29.836,14.943 29.271,13.528C29.098,13.096 28.914,12.691 28.721,12.311C31.534,13.487 33.835,15.651 35.188,18.367ZM36.509,23.989C36.509,24.955 36.399,25.896 36.193,26.801L30.909,26.801C30.981,25.883 31.018,24.943 31.018,23.989C31.018,23.037 30.981,22.096 30.909,21.178L36.193,21.178C36.399,22.083 36.509,23.024 36.509,23.989ZM24.039,36.638C24.013,36.638 23.987,36.639 23.962,36.639C23.13,36.611 22.096,35.349 21.319,33.407C20.874,32.294 20.518,30.991 20.261,29.594L27.718,29.594C27.461,30.991 27.105,32.294 26.66,33.407C25.89,35.333 24.867,36.59 24.039,36.638ZM19.89,26.801C19.813,25.888 19.772,24.948 19.772,23.989C19.772,23.031 19.813,22.091 19.89,21.178L28.089,21.178C28.166,22.091 28.206,23.031 28.206,23.989C28.206,24.948 28.166,25.888 28.089,26.801L19.89,26.801ZM11.207,23.989C11.207,23.024 11.316,22.064 11.522,21.16L17.07,21.16C16.999,22.078 16.961,23.037 16.961,23.989C16.961,24.943 16.999,25.883 17.07,26.801L11.522,26.801C11.316,25.896 11.207,24.955 11.207,23.989ZM23.962,11.34C23.987,11.34 24.013,11.341 24.039,11.341C24.867,11.389 25.89,12.646 26.66,14.572C27.105,15.685 27.461,16.969 27.718,18.367L20.261,18.367C20.518,16.969 20.874,15.685 21.319,14.572C22.096,12.63 23.13,11.368 23.962,11.34ZM19.327,12.178C19.109,12.595 18.902,13.045 18.709,13.528C18.143,14.943 17.705,16.585 17.409,18.367L12.528,18.367C13.934,15.545 16.363,13.319 19.327,12.178ZM12.527,29.612L17.409,29.612C17.704,31.394 18.143,33.036 18.709,34.451C18.902,34.934 19.109,35.384 19.327,35.801C16.363,34.66 13.934,32.434 12.527,29.612ZM28.721,35.668C28.914,35.288 29.098,34.883 29.271,34.451C29.836,33.036 30.274,31.375 30.571,29.594L35.188,29.594C33.835,32.309 31.534,34.492 28.721,35.668Z" fill="#E4E4E3"/>
</svg>
