<svg width="258" height="258" viewBox="0 0 258 258" fill="none" xmlns="http://www.w3.org/2000/svg" xmlns:xlink="http://www.w3.org/1999/xlink">
<path d="M88.125,26.405C90.103,23.438 93.434,21.655 97,21.655L161,21.655C164.566,21.655 167.897,23.438 169.875,26.405L188.042,53.655L225,53.655C233.486,53.655 241.626,57.027 247.628,63.028C253.628,69.029 257,77.168 257,85.655L257,202.989C257,211.475 253.628,219.615 247.628,225.615C241.626,231.617 233.486,234.989 225,234.989L33,234.989C24.513,234.989 16.374,231.617 10.373,225.615C4.371,219.615 1,211.475 1,202.989L1,85.655C1,77.168 4.371,69.029 10.373,63.028C16.374,57.027 24.513,53.655 33,53.655L69.958,53.655L88.125,26.405ZM102.709,42.989L84.542,70.239C82.564,73.206 79.233,74.989 75.667,74.989L33,74.989C30.171,74.989 27.458,76.112 25.458,78.113C23.457,80.113 22.333,82.826 22.333,85.655L22.333,202.989C22.333,205.818 23.457,208.531 25.458,210.531C27.458,212.531 30.171,213.655 33,213.655L225,213.655C227.828,213.655 230.542,212.531 232.542,210.531C234.542,208.531 235.666,205.817 235.666,202.989L235.666,85.655C235.666,82.826 234.542,80.113 232.542,78.113C230.542,76.112 227.828,74.989 225,74.989L182.333,74.989C178.767,74.989 175.436,73.206 173.458,70.239L155.291,42.989L102.709,42.989Z" clip-rule="evenodd" fill-rule="evenodd" fill="#84837D" stroke="#292927" stroke-width="6" stroke-miterlimit="3.999327" stroke-linecap="round" stroke-linejoin="round"/>
<path d="M128.999,106.989C111.326,106.989 96.999,121.315 96.999,138.989C96.999,156.662 111.326,170.989 128.999,170.989C146.672,170.989 160.999,156.662 160.999,138.989C160.999,121.315 146.672,106.989 128.999,106.989ZM75.666,138.989C75.666,109.533 99.544,85.655 128.999,85.655C158.455,85.655 182.333,109.533 182.333,138.989C182.333,168.444 158.455,192.322 128.999,192.322C99.544,192.322 75.666,168.444 75.666,138.989Z" clip-rule="evenodd" fill-rule="evenodd" fill="#84837D" stroke="#292927" stroke-width="6" stroke-miterlimit="3.999327" stroke-linecap="round" stroke-linejoin="round"/>
<line x1="125.688" y1="117.68" x2="125.688" y2="158.737" stroke="#E4E4E3" stroke-width="2.933" stroke-miterlimit="3.999327" stroke-linecap="round" stroke-linejoin="round"/>
<line x1="108.094" y1="135.276" x2="149.151" y2="135.276" stroke="#E4E4E3" stroke-width="2.933" stroke-miterlimit="3.999327" stroke-linecap="round" stroke-linejoin="round"/>
</svg>
