<svg width="124" height="124" viewBox="0 0 124 124" fill="none" xmlns="http://www.w3.org/2000/svg" xmlns:xlink="http://www.w3.org/1999/xlink">
<path d="M42.411,12.892C43.361,11.466 44.961,10.609 46.675,10.609L77.425,10.609C79.138,10.609 80.739,11.466 81.689,12.892L90.418,25.984L108.175,25.984C112.253,25.984 116.163,27.604 119.047,30.488C121.93,33.371 123.55,37.282 123.55,41.359L123.55,97.734C123.55,101.812 121.93,105.723 119.047,108.606C116.163,111.49 112.253,113.109 108.175,113.109L15.925,113.109C11.847,113.109 7.936,111.49 5.053,108.606C2.17,105.723 0.55,101.812 0.55,97.734L0.55,41.359C0.55,37.282 2.17,33.371 5.053,30.488C7.936,27.604 11.847,25.984 15.925,25.984L33.682,25.984L42.411,12.892ZM49.418,20.859L40.689,33.952C39.739,35.378 38.138,36.234 36.425,36.234L15.925,36.234C14.566,36.234 13.262,36.774 12.301,37.735C11.34,38.697 10.8,40 10.8,41.359L10.8,97.734C10.8,99.094 11.34,100.397 12.301,101.358C13.262,102.319 14.566,102.859 15.925,102.859L108.175,102.859C109.534,102.859 110.838,102.319 111.799,101.358C112.76,100.397 113.3,99.094 113.3,97.734L113.3,41.359C113.3,40 112.76,38.697 111.799,37.735C110.838,36.774 109.534,36.234 108.175,36.234L87.675,36.234C85.961,36.234 84.361,35.378 83.411,33.952L74.682,20.859L49.418,20.859Z" clip-rule="evenodd" fill-rule="evenodd" fill="#84837D" stroke="#292927" stroke-width="3" stroke-miterlimit="3.999327" stroke-linecap="round" stroke-linejoin="round"/>
<path d="M62.05,51.609C53.558,51.609 46.675,58.493 46.675,66.984C46.675,75.476 53.558,82.359 62.05,82.359C70.541,82.359 77.425,75.476 77.425,66.984C77.425,58.493 70.541,51.609 62.05,51.609ZM36.425,66.984C36.425,52.832 47.898,41.359 62.05,41.359C76.202,41.359 87.675,52.832 87.675,66.984C87.675,81.137 76.202,92.609 62.05,92.609C47.898,92.609 36.425,81.137 36.425,66.984Z" clip-rule="evenodd" fill-rule="evenodd" fill="#84837D" stroke="#292927" stroke-width="3" stroke-miterlimit="3.999327" stroke-linecap="round" stroke-linejoin="round"/>
<line x1="60.459" y1="56.75" x2="60.459" y2="76.477" stroke="#E4E4E3" stroke-width="1.409" stroke-miterlimit="3.999327" stroke-linecap="round" stroke-linejoin="round"/>
<line x1="52.005" y1="65.204" x2="71.732" y2="65.204" stroke="#E4E4E3" stroke-width="1.409" stroke-miterlimit="3.999327" stroke-linecap="round" stroke-linejoin="round"/>
</svg>
