<svg width="258" height="258" viewBox="0 0 258 258" fill="none" xmlns="http://www.w3.org/2000/svg" xmlns:xlink="http://www.w3.org/1999/xlink">
<path d="M88.125,26.402C90.103,23.435 93.434,21.652 97,21.652L161,21.652C164.566,21.652 167.897,23.435 169.875,26.402L188.042,53.652L225,53.652C233.486,53.652 241.626,57.024 247.628,63.025C253.628,69.026 257,77.165 257,85.652L257,202.986C257,211.473 253.628,219.612 247.628,225.612C241.626,231.614 233.486,234.986 225,234.986L33,234.986C24.513,234.986 16.374,231.614 10.373,225.612C4.371,219.612 1,211.473 1,202.986L1,85.652C1,77.165 4.371,69.026 10.373,63.025C16.374,57.024 24.513,53.652 33,53.652L69.958,53.652L88.125,26.402ZM102.709,42.986L84.542,70.236C82.564,73.203 79.233,74.986 75.667,74.986L33,74.986C30.171,74.986 27.458,76.11 25.458,78.11C23.457,80.11 22.333,82.823 22.333,85.652L22.333,202.986C22.333,205.815 23.457,208.528 25.458,210.528C27.458,212.529 30.171,213.652 33,213.652L225,213.652C227.828,213.652 230.542,212.529 232.542,210.528C234.542,208.528 235.666,205.815 235.666,202.986L235.666,85.652C235.666,82.823 234.542,80.11 232.542,78.11C230.542,76.11 227.828,74.986 225,74.986L182.333,74.986C178.767,74.986 175.436,73.203 173.458,70.236L155.291,42.986L102.709,42.986Z" clip-rule="evenodd" fill-rule="evenodd" fill="#84837D" stroke="#292927" stroke-width="6" stroke-miterlimit="3.999327" stroke-linecap="round" stroke-linejoin="round"/>
<path d="M129,106.986C111.327,106.986 97,121.313 97,138.986C97,156.659 111.327,170.986 129,170.986C146.673,170.986 161,156.659 161,138.986C161,121.313 146.673,106.986 129,106.986ZM75.667,138.986C75.667,109.531 99.545,85.652 129,85.652C158.455,85.652 182.333,109.531 182.333,138.986C182.333,168.441 158.455,192.319 129,192.319C99.545,192.319 75.667,168.441 75.667,138.986Z" clip-rule="evenodd" fill-rule="evenodd" fill="#84837D" stroke="#292927" stroke-width="6" stroke-miterlimit="3.999327" stroke-linecap="round" stroke-linejoin="round"/>
<line x1="125.689" y1="117.68" x2="125.689" y2="158.737" stroke="#E4E4E3" stroke-width="2.933" stroke-miterlimit="3.999327" stroke-linecap="round" stroke-linejoin="round"/>
<line x1="108.093" y1="135.274" x2="149.15" y2="135.274" stroke="#E4E4E3" stroke-width="2.933" stroke-miterlimit="3.999327" stroke-linecap="round" stroke-linejoin="round"/>
</svg>
