<svg width="100" height="100" viewBox="0 0 100 100" fill="none" xmlns="http://www.w3.org/2000/svg" xmlns:xlink="http://www.w3.org/1999/xlink">
<path d="M33.033,10.187C33.806,9.028 35.107,8.332 36.5,8.332L61.5,8.332C62.893,8.332 64.194,9.028 64.967,10.187L72.063,20.832L86.5,20.832C89.815,20.832 92.995,22.149 95.339,24.493C97.683,26.837 99,30.017 99,33.332L99,79.165C99,82.481 97.683,85.66 95.339,88.004C92.995,90.348 89.815,91.665 86.5,91.665L11.5,91.665C8.185,91.665 5.005,90.348 2.661,88.004C0.317,85.66 -1,82.481 -1,79.165L-1,33.332C-1,30.017 0.317,26.837 2.661,24.493C5.005,22.149 8.185,20.832 11.5,20.832L25.937,20.832L33.033,10.187ZM38.73,16.665L31.634,27.31C30.861,28.469 29.56,29.165 28.167,29.165L11.5,29.165C10.395,29.165 9.335,29.604 8.554,30.386C7.772,31.167 7.333,32.227 7.333,33.332L7.333,79.165C7.333,80.27 7.772,81.33 8.554,82.112C9.335,82.893 10.395,83.332 11.5,83.332L86.5,83.332C87.605,83.332 88.665,82.893 89.446,82.112C90.228,81.33 90.667,80.27 90.667,79.165L90.667,33.332C90.667,32.227 90.228,31.167 89.446,30.386C88.665,29.604 87.605,29.165 86.5,29.165L69.833,29.165C68.44,29.165 67.139,28.469 66.366,27.31L59.27,16.665L38.73,16.665Z" clip-rule="evenodd" fill-rule="evenodd" fill="#84837D" stroke="#292927" stroke-width="2" stroke-miterlimit="3.999327" stroke-linecap="round" stroke-linejoin="round"/>
<path d="M48.999,41.665C42.096,41.665 36.499,47.262 36.499,54.165C36.499,61.069 42.096,66.665 48.999,66.665C55.903,66.665 61.499,61.069 61.499,54.165C61.499,47.262 55.903,41.665 48.999,41.665ZM28.166,54.165C28.166,42.659 37.493,33.332 48.999,33.332C60.505,33.332 69.833,42.659 69.833,54.165C69.833,65.671 60.505,74.999 48.999,74.999C37.493,74.999 28.166,65.671 28.166,54.165Z" clip-rule="evenodd" fill-rule="evenodd" fill="#84837D" stroke="#292927" stroke-width="2" stroke-miterlimit="3.999327" stroke-linecap="round" stroke-linejoin="round"/>
<line x1="47.706" y1="45.844" x2="47.706" y2="61.882" stroke="#E4E4E3" stroke-width="1.146" stroke-miterlimit="3.999327" stroke-linecap="round" stroke-linejoin="round"/>
<line x1="40.834" y1="52.718" x2="56.872" y2="52.718" stroke="#E4E4E3" stroke-width="1.146" stroke-miterlimit="3.999327" stroke-linecap="round" stroke-linejoin="round"/>
</svg>
