<svg width="100" height="100" viewBox="0 0 100 100" fill="none" xmlns="http://www.w3.org/2000/svg" xmlns:xlink="http://www.w3.org/1999/xlink">
<path d="M33.033,10.189C33.806,9.03 35.107,8.334 36.5,8.334L61.5,8.334C62.893,8.334 64.194,9.03 64.967,10.189L72.063,20.834L86.5,20.834C89.815,20.834 92.995,22.151 95.339,24.495C97.683,26.839 99,30.019 99,33.334L99,79.167C99,82.483 97.683,85.662 95.339,88.006C92.995,90.35 89.815,91.667 86.5,91.667L11.5,91.667C8.185,91.667 5.005,90.35 2.661,88.006C0.317,85.662 -1,82.483 -1,79.167L-1,33.334C-1,30.019 0.317,26.839 2.661,24.495C5.005,22.151 8.185,20.834 11.5,20.834L25.937,20.834L33.033,10.189ZM38.73,16.667L31.634,27.312C30.861,28.471 29.56,29.167 28.167,29.167L11.5,29.167C10.395,29.167 9.335,29.606 8.554,30.388C7.772,31.169 7.333,32.229 7.333,33.334L7.333,79.167C7.333,80.272 7.772,81.332 8.554,82.114C9.335,82.895 10.395,83.334 11.5,83.334L86.5,83.334C87.605,83.334 88.665,82.895 89.446,82.114C90.228,81.332 90.667,80.272 90.667,79.167L90.667,33.334C90.667,32.229 90.228,31.169 89.446,30.388C88.665,29.606 87.605,29.167 86.5,29.167L69.833,29.167C68.44,29.167 67.139,28.471 66.366,27.312L59.27,16.667L38.73,16.667Z" clip-rule="evenodd" fill-rule="evenodd" fill="#84837D" stroke="#292927" stroke-width="2" stroke-miterlimit="3.999327" stroke-linecap="round" stroke-linejoin="round"/>
<path d="M49,41.667C42.096,41.667 36.5,47.264 36.5,54.167C36.5,61.071 42.096,66.667 49,66.667C55.903,66.667 61.5,61.071 61.5,54.167C61.5,47.264 55.903,41.667 49,41.667ZM28.167,54.167C28.167,42.661 37.494,33.334 49,33.334C60.506,33.334 69.833,42.661 69.833,54.167C69.833,65.673 60.506,75.001 49,75.001C37.494,75.001 28.167,65.673 28.167,54.167Z" clip-rule="evenodd" fill-rule="evenodd" fill="#84837D" stroke="#292927" stroke-width="2" stroke-miterlimit="3.999327" stroke-linecap="round" stroke-linejoin="round"/>
<line x1="47.707" y1="45.846" x2="47.707" y2="61.884" stroke="#E4E4E3" stroke-width="1.146" stroke-miterlimit="3.999327" stroke-linecap="round" stroke-linejoin="round"/>
<line x1="40.834" y1="52.718" x2="56.872" y2="52.718" stroke="#E4E4E3" stroke-width="1.146" stroke-miterlimit="3.999327" stroke-linecap="round" stroke-linejoin="round"/>
</svg>
