<svg width="102" height="100" viewBox="0 0 102 100" fill="none" xmlns="http://www.w3.org/2000/svg" xmlns:xlink="http://www.w3.org/1999/xlink">
<path d="M35.033,10.189C35.806,9.03 37.107,8.334 38.5,8.334L63.5,8.334C64.893,8.334 66.194,9.03 66.967,10.189L74.063,20.834L88.5,20.834C91.815,20.834 94.995,22.151 97.339,24.495C99.683,26.839 101,30.019 101,33.334L101,79.167C101,82.483 99.683,85.662 97.339,88.006C94.995,90.35 91.815,91.667 88.5,91.667L13.5,91.667C10.185,91.667 7.005,90.35 4.661,88.006C2.317,85.662 1,82.483 1,79.167L1,33.334C1,30.019 2.317,26.839 4.661,24.495C7.005,22.151 10.185,20.834 13.5,20.834L27.937,20.834L35.033,10.189ZM40.73,16.667L33.634,27.312C32.861,28.471 31.56,29.167 30.167,29.167L13.5,29.167C12.395,29.167 11.335,29.606 10.554,30.388C9.772,31.169 9.333,32.229 9.333,33.334L9.333,79.167C9.333,80.272 9.772,81.332 10.554,82.114C11.335,82.895 12.395,83.334 13.5,83.334L88.5,83.334C89.605,83.334 90.665,82.895 91.446,82.114C92.228,81.332 92.667,80.272 92.667,79.167L92.667,33.334C92.667,32.229 92.228,31.169 91.446,30.388C90.665,29.606 89.605,29.167 88.5,29.167L71.833,29.167C70.44,29.167 69.139,28.471 68.366,27.312L61.27,16.667L40.73,16.667Z" clip-rule="evenodd" fill-rule="evenodd" fill="#84837D" stroke="#292927" stroke-width="2" stroke-miterlimit="3.999327" stroke-linecap="round" stroke-linejoin="round"/>
<path d="M51,41.667C44.097,41.667 38.5,47.264 38.5,54.167C38.5,61.071 44.097,66.667 51,66.667C57.904,66.667 63.5,61.071 63.5,54.167C63.5,47.264 57.904,41.667 51,41.667ZM30.167,54.167C30.167,42.661 39.494,33.334 51,33.334C62.506,33.334 71.834,42.661 71.834,54.167C71.834,65.673 62.506,75.001 51,75.001C39.494,75.001 30.167,65.673 30.167,54.167Z" clip-rule="evenodd" fill-rule="evenodd" fill="#84837D" stroke="#292927" stroke-width="2" stroke-miterlimit="3.999327" stroke-linecap="round" stroke-linejoin="round"/>
<line x1="49.707" y1="45.846" x2="49.707" y2="61.884" stroke="#E4E4E3" stroke-width="1.146" stroke-miterlimit="3.999327" stroke-linecap="round" stroke-linejoin="round"/>
<line x1="42.833" y1="52.718" x2="58.871" y2="52.718" stroke="#E4E4E3" stroke-width="1.146" stroke-miterlimit="3.999327" stroke-linecap="round" stroke-linejoin="round"/>
</svg>
