<svg width="100" height="100" viewBox="0 0 100 100" fill="none" xmlns="http://www.w3.org/2000/svg" xmlns:xlink="http://www.w3.org/1999/xlink">
<path d="M34.033,10.187C34.806,9.028 36.107,8.332 37.5,8.332L62.5,8.332C63.893,8.332 65.194,9.028 65.967,10.187L73.063,20.832L87.5,20.832C90.815,20.832 93.995,22.149 96.339,24.493C98.683,26.837 100,30.017 100,33.332L100,79.165C100,82.481 98.683,85.66 96.339,88.004C93.995,90.348 90.815,91.665 87.5,91.665L12.5,91.665C9.185,91.665 6.005,90.348 3.661,88.004C1.317,85.66 0,82.481 0,79.165L0,33.332C0,30.017 1.317,26.837 3.661,24.493C6.005,22.149 9.185,20.832 12.5,20.832L26.937,20.832L34.033,10.187ZM39.73,16.665L32.634,27.31C31.861,28.469 30.56,29.165 29.167,29.165L12.5,29.165C11.395,29.165 10.335,29.604 9.554,30.386C8.772,31.167 8.333,32.227 8.333,33.332L8.333,79.165C8.333,80.27 8.772,81.33 9.554,82.112C10.335,82.893 11.395,83.332 12.5,83.332L87.5,83.332C88.605,83.332 89.665,82.893 90.446,82.112C91.228,81.33 91.667,80.27 91.667,79.165L91.667,33.332C91.667,32.227 91.228,31.167 90.446,30.386C89.665,29.604 88.605,29.165 87.5,29.165L70.833,29.165C69.44,29.165 68.139,28.469 67.366,27.31L60.27,16.665L39.73,16.665Z" clip-rule="evenodd" fill-rule="evenodd" fill="#84837D" stroke="#292927" stroke-width="2" stroke-miterlimit="3.999327" stroke-linecap="round" stroke-linejoin="round"/>
<path d="M50,41.665C43.096,41.665 37.5,47.262 37.5,54.165C37.5,61.069 43.096,66.665 50,66.665C56.903,66.665 62.5,61.069 62.5,54.165C62.5,47.262 56.903,41.665 50,41.665ZM29.167,54.165C29.167,42.659 38.494,33.332 50,33.332C61.506,33.332 70.833,42.659 70.833,54.165C70.833,65.671 61.506,74.999 50,74.999C38.494,74.999 29.167,65.671 29.167,54.165Z" clip-rule="evenodd" fill-rule="evenodd" fill="#84837D" stroke="#292927" stroke-width="2" stroke-miterlimit="3.999327" stroke-linecap="round" stroke-linejoin="round"/>
<line x1="48.707" y1="45.844" x2="48.707" y2="61.882" stroke="#E4E4E3" stroke-width="1.146" stroke-miterlimit="3.999327" stroke-linecap="round" stroke-linejoin="round"/>
<line x1="41.834" y1="52.718" x2="57.872" y2="52.718" stroke="#E4E4E3" stroke-width="1.146" stroke-miterlimit="3.999327" stroke-linecap="round" stroke-linejoin="round"/>
</svg>
