<svg width="256" height="258" viewBox="0 0 256 258" fill="none" xmlns="http://www.w3.org/2000/svg" xmlns:xlink="http://www.w3.org/1999/xlink">
<path d="M86.125,26.406C88.103,23.439 91.434,21.656 95,21.656L159,21.656C162.566,21.656 165.897,23.439 167.875,26.406L186.042,53.656L223,53.656C231.486,53.656 239.626,57.028 245.628,63.029C251.628,69.03 255,77.169 255,85.656L255,202.99C255,211.476 251.628,219.616 245.628,225.616C239.626,231.618 231.486,234.99 223,234.99L31,234.99C22.513,234.99 14.374,231.618 8.373,225.616C2.371,219.616 -1,211.476 -1,202.99L-1,85.656C-1,77.169 2.371,69.03 8.373,63.029C14.374,57.028 22.513,53.656 31,53.656L67.958,53.656L86.125,26.406ZM100.709,42.99L82.542,70.24C80.564,73.207 77.233,74.99 73.667,74.99L31,74.99C28.171,74.99 25.458,76.113 23.458,78.114C21.457,80.114 20.333,82.827 20.333,85.656L20.333,202.99C20.333,205.819 21.457,208.532 23.458,210.532C25.458,212.532 28.171,213.656 31,213.656L223,213.656C225.828,213.656 228.542,212.532 230.542,210.532C232.542,208.532 233.666,205.818 233.666,202.99L233.666,85.656C233.666,82.827 232.542,80.114 230.542,78.114C228.542,76.113 225.828,74.99 223,74.99L180.333,74.99C176.767,74.99 173.436,73.207 171.458,70.24L153.291,42.99L100.709,42.99Z" clip-rule="evenodd" fill-rule="evenodd" fill="#E4E4E3"/>
<path d="M126.997,106.99C109.324,106.99 94.997,121.316 94.997,138.99C94.997,156.663 109.324,170.99 126.997,170.99C144.67,170.99 158.997,156.663 158.997,138.99C158.997,121.316 144.67,106.99 126.997,106.99ZM73.664,138.99C73.664,109.534 97.542,85.656 126.997,85.656C156.453,85.656 180.331,109.534 180.331,138.99C180.331,168.445 156.453,192.323 126.997,192.323C97.542,192.323 73.664,168.445 73.664,138.99Z" clip-rule="evenodd" fill-rule="evenodd" fill="#E4E4E3"/>
<line x1="123.7" y1="117.682" x2="123.7" y2="158.739" stroke="#3B3937" stroke-width="2.933" stroke-miterlimit="3.999327" stroke-linecap="round" stroke-linejoin="round"/>
<line x1="106.102" y1="135.276" x2="147.159" y2="135.276" stroke="#3B3937" stroke-width="2.933" stroke-miterlimit="3.999327" stroke-linecap="round" stroke-linejoin="round"/>
</svg>
