<svg width="100" height="100" viewBox="0 0 100 100" fill="none" xmlns="http://www.w3.org/2000/svg" xmlns:xlink="http://www.w3.org/1999/xlink">
<path d="M33.033,10.188C33.806,9.029 35.107,8.333 36.5,8.333L61.5,8.333C62.893,8.333 64.194,9.029 64.967,10.188L72.063,20.833L86.5,20.833C89.815,20.833 92.995,22.15 95.339,24.494C97.683,26.838 99,30.018 99,33.333L99,79.166C99,82.482 97.683,85.661 95.339,88.005C92.995,90.349 89.815,91.666 86.5,91.666L11.5,91.666C8.185,91.666 5.005,90.349 2.661,88.005C0.317,85.661 -1,82.482 -1,79.166L-1,33.333C-1,30.018 0.317,26.838 2.661,24.494C5.005,22.15 8.185,20.833 11.5,20.833L25.937,20.833L33.033,10.188ZM38.73,16.666L31.634,27.311C30.861,28.47 29.56,29.166 28.167,29.166L11.5,29.166C10.395,29.166 9.335,29.605 8.554,30.387C7.772,31.168 7.333,32.228 7.333,33.333L7.333,79.166C7.333,80.271 7.772,81.331 8.554,82.113C9.335,82.894 10.395,83.333 11.5,83.333L86.5,83.333C87.605,83.333 88.665,82.894 89.446,82.113C90.228,81.331 90.667,80.271 90.667,79.166L90.667,33.333C90.667,32.228 90.228,31.168 89.446,30.387C88.665,29.605 87.605,29.166 86.5,29.166L69.833,29.166C68.44,29.166 67.139,28.47 66.366,27.311L59.27,16.666L38.73,16.666Z" clip-rule="evenodd" fill-rule="evenodd" fill="#84837D" stroke="#292927" stroke-width="2" stroke-miterlimit="3.999327" stroke-linecap="round" stroke-linejoin="round"/>
<path d="M48.999,41.666C42.096,41.666 36.499,47.263 36.499,54.166C36.499,61.07 42.096,66.666 48.999,66.666C55.903,66.666 61.499,61.07 61.499,54.166C61.499,47.263 55.903,41.666 48.999,41.666ZM28.166,54.166C28.166,42.66 37.493,33.333 48.999,33.333C60.505,33.333 69.833,42.66 69.833,54.166C69.833,65.672 60.505,75 48.999,75C37.493,75 28.166,65.672 28.166,54.166Z" clip-rule="evenodd" fill-rule="evenodd" fill="#84837D" stroke="#292927" stroke-width="2" stroke-miterlimit="3.999327" stroke-linecap="round" stroke-linejoin="round"/>
<line x1="47.706" y1="45.845" x2="47.706" y2="61.883" stroke="#E4E4E3" stroke-width="1.146" stroke-miterlimit="3.999327" stroke-linecap="round" stroke-linejoin="round"/>
<line x1="40.834" y1="52.719" x2="56.872" y2="52.719" stroke="#E4E4E3" stroke-width="1.146" stroke-miterlimit="3.999327" stroke-linecap="round" stroke-linejoin="round"/>
</svg>
