<svg width="256" height="258" viewBox="0 0 256 258" fill="none" xmlns="http://www.w3.org/2000/svg" xmlns:xlink="http://www.w3.org/1999/xlink">
<path d="M87.125,26.404C89.103,23.437 92.434,21.654 96,21.654L160,21.654C163.566,21.654 166.897,23.437 168.875,26.404L187.042,53.654L224,53.654C232.486,53.654 240.626,57.026 246.628,63.027C252.628,69.028 256,77.167 256,85.654L256,202.988C256,211.474 252.628,219.614 246.628,225.614C240.626,231.616 232.486,234.988 224,234.988L32,234.988C23.513,234.988 15.374,231.616 9.373,225.614C3.371,219.614 0,211.474 0,202.988L0,85.654C0,77.167 3.371,69.028 9.373,63.027C15.374,57.026 23.513,53.654 32,53.654L68.958,53.654L87.125,26.404ZM101.709,42.988L83.542,70.238C81.564,73.205 78.233,74.988 74.667,74.988L32,74.988C29.171,74.988 26.458,76.111 24.458,78.112C22.457,80.112 21.333,82.825 21.333,85.654L21.333,202.988C21.333,205.817 22.457,208.53 24.458,210.53C26.458,212.53 29.171,213.654 32,213.654L224,213.654C226.828,213.654 229.542,212.53 231.542,210.53C233.542,208.53 234.666,205.816 234.666,202.988L234.666,85.654C234.666,82.825 233.542,80.112 231.542,78.112C229.542,76.111 226.828,74.988 224,74.988L181.333,74.988C177.767,74.988 174.436,73.205 172.458,70.238L154.291,42.988L101.709,42.988Z" clip-rule="evenodd" fill-rule="evenodd" fill="#84837D" stroke="#292927" stroke-width="6" stroke-miterlimit="3.999327" stroke-linecap="round" stroke-linejoin="round"/>
<path d="M127.999,106.988C110.326,106.988 95.999,121.314 95.999,138.988C95.999,156.661 110.326,170.988 127.999,170.988C145.672,170.988 159.999,156.661 159.999,138.988C159.999,121.314 145.672,106.988 127.999,106.988ZM74.666,138.988C74.666,109.532 98.544,85.654 127.999,85.654C157.455,85.654 181.333,109.532 181.333,138.988C181.333,168.443 157.455,192.321 127.999,192.321C98.544,192.321 74.666,168.443 74.666,138.988Z" clip-rule="evenodd" fill-rule="evenodd" fill="#84837D" stroke="#292927" stroke-width="6" stroke-miterlimit="3.999327" stroke-linecap="round" stroke-linejoin="round"/>
<line x1="124.688" y1="117.68" x2="124.688" y2="158.737" stroke="#E4E4E3" stroke-width="2.933" stroke-miterlimit="3.999327" stroke-linecap="round" stroke-linejoin="round"/>
<line x1="107.094" y1="135.275" x2="148.151" y2="135.275" stroke="#E4E4E3" stroke-width="2.933" stroke-miterlimit="3.999327" stroke-linecap="round" stroke-linejoin="round"/>
</svg>
