<svg width="256" height="258" viewBox="0 0 256 258" fill="none" xmlns="http://www.w3.org/2000/svg" xmlns:xlink="http://www.w3.org/1999/xlink">
<path d="M86.125,26.402C88.103,23.435 91.434,21.652 95,21.652L159,21.652C162.566,21.652 165.897,23.435 167.875,26.402L186.042,53.652L223,53.652C231.486,53.652 239.626,57.024 245.628,63.025C251.628,69.026 255,77.165 255,85.652L255,202.986C255,211.473 251.628,219.612 245.628,225.612C239.626,231.614 231.486,234.986 223,234.986L31,234.986C22.513,234.986 14.374,231.614 8.373,225.612C2.371,219.612 -1,211.473 -1,202.986L-1,85.652C-1,77.165 2.371,69.026 8.373,63.025C14.374,57.024 22.513,53.652 31,53.652L67.958,53.652L86.125,26.402ZM100.709,42.986L82.542,70.236C80.564,73.203 77.233,74.986 73.667,74.986L31,74.986C28.171,74.986 25.458,76.11 23.458,78.11C21.457,80.11 20.333,82.823 20.333,85.652L20.333,202.986C20.333,205.815 21.457,208.528 23.458,210.528C25.458,212.529 28.171,213.652 31,213.652L223,213.652C225.828,213.652 228.542,212.529 230.542,210.528C232.542,208.528 233.666,205.815 233.666,202.986L233.666,85.652C233.666,82.823 232.542,80.11 230.542,78.11C228.542,76.11 225.828,74.986 223,74.986L180.333,74.986C176.767,74.986 173.436,73.203 171.458,70.236L153.291,42.986L100.709,42.986Z" clip-rule="evenodd" fill-rule="evenodd" fill="#84837D" stroke="#292927" stroke-width="6" stroke-miterlimit="3.999327" stroke-linecap="round" stroke-linejoin="round"/>
<path d="M126.999,106.986C109.326,106.986 94.999,121.313 94.999,138.986C94.999,156.659 109.326,170.986 126.999,170.986C144.672,170.986 158.999,156.659 158.999,138.986C158.999,121.313 144.672,106.986 126.999,106.986ZM73.666,138.986C73.666,109.531 97.544,85.652 126.999,85.652C156.455,85.652 180.333,109.531 180.333,138.986C180.333,168.441 156.455,192.319 126.999,192.319C97.544,192.319 73.666,168.441 73.666,138.986Z" clip-rule="evenodd" fill-rule="evenodd" fill="#84837D" stroke="#292927" stroke-width="6" stroke-miterlimit="3.999327" stroke-linecap="round" stroke-linejoin="round"/>
<line x1="123.688" y1="117.68" x2="123.688" y2="158.737" stroke="#E4E4E3" stroke-width="2.933" stroke-miterlimit="3.999327" stroke-linecap="round" stroke-linejoin="round"/>
<line x1="106.094" y1="135.274" x2="147.151" y2="135.274" stroke="#E4E4E3" stroke-width="2.933" stroke-miterlimit="3.999327" stroke-linecap="round" stroke-linejoin="round"/>
</svg>
