<svg width="32" height="44" viewBox="0 0 32 44" fill="none" xmlns="http://www.w3.org/2000/svg" xmlns:xlink="http://www.w3.org/1999/xlink">
<path d="M9.603,42.387C10.968,43.207 12.662,43.207 14.041,42.387C15.42,41.568 16.267,40.311 16.267,38.672L7.391,38.672C7.391,40.311 8.237,41.568 9.616,42.387L9.603,42.387Z" fill="#FFFFFF"/>
<path d="M9.561,12.887C9.492,13.141 9.383,13.325 9.151,13.395C5.286,14.596 2.815,17.422 2.815,21.095L2.815,27.268C2.815,30.094 1.695,30.673 0.289,31.747C-1.746,33.315 -1.282,36.564 1.053,36.564L22.574,36.564C24.91,36.564 25.374,33.315 23.339,31.747C21.933,30.659 20.813,30.094 20.813,27.268L20.813,21.759C15.542,21.533 11.104,17.874 9.561,12.887Z" fill="#FFFFFF"/>
<path d="M31,8.988C31,3.478 26.672,-1 21.346,-1C16.02,-1 11.691,3.478 11.691,8.988C11.691,9.327 11.705,9.666 11.746,10.005C11.773,10.005 11.787,10.005 11.814,10.005C13.03,10.005 13.999,10.782 13.999,11.969C13.999,12.718 14.027,13.269 14.477,13.41C17.522,14.357 19.694,16.334 20.472,18.92C20.759,18.948 21.046,18.962 21.346,18.962C26.672,18.962 31,14.484 31,8.974L31,8.988Z" fill="#55B25B"/>
</svg>
