<svg width="96" height="114" viewBox="0 0 96 114" fill="none" xmlns="http://www.w3.org/2000/svg" xmlns:xlink="http://www.w3.org/1999/xlink">
<path d="M40.375,92.26C22.199,92.26 7.412,77.473 7.412,59.297L0.85,59.297C0.85,77.684 13.47,93.179 30.504,97.574L30.504,105.44L17.324,105.44L17.324,112.003L63.425,112.003L63.425,105.44L50.246,105.44L50.246,97.574C67.279,93.179 79.9,77.684 79.9,59.297L73.337,59.297C73.338,77.473 58.551,92.26 40.375,92.26Z" fill="#FFFFFF"/>
<path d="M76.028,0C66.036,0 57.906,8.129 57.906,18.122C57.906,28.114 66.036,36.244 76.028,36.244C86.02,36.244 94.15,28.114 94.15,18.122C94.15,8.129 86.02,0 76.028,0ZM84.938,21.403L79.309,21.403L79.309,27.032L72.747,27.032L72.747,21.403L67.118,21.403L67.118,14.841L72.747,14.841L72.747,9.211L79.309,9.211L79.309,14.84L84.938,14.84L84.938,21.403Z" fill="#FFFFFF"/>
<path d="M33.785,59.308L33.785,65.871L14.86,65.871C17.789,77.226 28.118,85.639 40.375,85.639C52.632,85.639 62.961,77.226 65.889,65.871L46.965,65.871L46.965,59.308L66.72,59.308C66.72,59.303 66.72,59.299 66.72,59.294L66.72,52.691L46.965,52.691L46.965,46.128L66.72,46.128L66.72,40.983C65.682,40.559 64.678,40.067 63.716,39.511L46.965,39.511L46.965,32.948L56.305,32.948C54.803,30.955 53.596,28.727 52.749,26.331L46.965,26.331L46.965,19.768L51.4,19.768C51.049,14.468 52.434,9.129 55.338,4.676C51.085,1.73 45.929,0 40.375,0C28.118,0 17.789,8.413 14.861,19.768L33.785,19.768L33.785,26.331L14.03,26.331C14.03,26.336 14.029,26.341 14.029,26.345L14.029,32.948L33.785,32.948L33.785,39.511L14.029,39.511L14.029,46.128L33.785,46.128L33.785,52.691L14.029,52.691L14.029,59.294C14.029,59.299 14.03,59.304 14.03,59.308L33.785,59.308Z" fill="#FFFFFF"/>
</svg>
