<svg width="48" height="48" viewBox="0 0 48 48" fill="none" xmlns="http://www.w3.org/2000/svg" xmlns:xlink="http://www.w3.org/1999/xlink">
<path d="M24.564,19.687C25.082,19.687 25.501,19.267 25.501,18.749C25.501,18.231 25.082,17.812 24.564,17.812L24.563,17.812C24.045,17.812 23.626,18.231 23.626,18.749C23.626,19.267 24.046,19.687 24.564,19.687Z" fill="#E4E4E3"/>
<path d="M29.251,19.687C29.769,19.687 30.189,19.267 30.189,18.749C30.189,18.231 29.769,17.812 29.251,17.812L29.25,17.812C28.733,17.812 28.313,18.231 28.313,18.749C28.313,19.267 28.733,19.687 29.251,19.687Z" fill="#E4E4E3"/>
<path d="M33.938,19.687C34.456,19.687 34.876,19.267 34.876,18.749C34.876,18.231 34.456,17.812 33.938,17.812L33.938,17.812C33.42,17.812 33.001,18.231 33.001,18.749C33.001,19.267 33.421,19.687 33.938,19.687Z" fill="#E4E4E3"/>
<path d="M45.752,29.546C45.645,29.169 45.48,28.817 45.269,28.497C47.058,25.564 48,22.208 48,18.749C48,8.411 39.589,0 29.251,0C24.321,0 19.83,1.912 16.48,5.034C15.774,4.359 14.824,3.965 13.826,3.965C13.711,3.965 13.597,3.97 13.483,3.98C12.463,2.677 10.877,1.889 9.205,1.889C6.525,1.889 4.294,3.841 3.858,6.398C2.28,6.585 1.053,7.93 1.053,9.557C1.053,11.311 2.473,12.738 4.219,12.738L11.49,12.738C10.849,14.626 10.502,16.648 10.502,18.749C10.502,22.578 11.655,26.143 13.634,29.114L1.207,41.022C1.203,41.027 1.198,41.032 1.193,41.036C-0.398,42.627 -0.398,45.216 1.193,46.807C1.989,47.602 3.033,48 4.078,48C5.123,48 6.168,47.602 6.964,46.807C6.968,46.802 6.973,46.797 6.978,46.793L18.886,34.366C21.857,36.344 25.421,37.498 29.251,37.498C32.192,37.498 35.005,36.837 37.615,35.534L44.953,35.534C46.633,35.534 48,34.167 48,32.487C48,31.083 47.046,29.898 45.752,29.546ZM4.219,10.863C3.519,10.863 2.928,10.265 2.928,9.557C2.928,8.837 3.514,8.251 4.234,8.251L4.718,8.251C5.236,8.251 5.655,7.831 5.655,7.313C5.655,5.356 7.247,3.764 9.205,3.764C10.463,3.764 11.601,4.409 12.25,5.489C12.467,5.85 12.897,6.022 13.303,5.91C13.472,5.864 13.648,5.84 13.826,5.84C14.332,5.84 14.814,6.038 15.174,6.378C13.995,7.718 13.004,9.226 12.242,10.863L4.219,10.863ZM5.631,45.488C4.771,46.341 3.377,46.339 2.519,45.481C1.661,44.623 1.659,43.229 2.513,42.368L11.006,34.229L13.771,36.993L5.631,45.488ZM15.069,35.639L12.36,32.931L14.759,30.632C15.541,31.585 16.415,32.458 17.367,33.241L15.069,35.639ZM12.377,18.749C12.377,9.445 19.946,1.875 29.251,1.875C38.555,1.875 46.125,9.445 46.125,18.749C46.125,21.74 45.343,24.645 43.854,27.209C43.318,26.923 42.707,26.761 42.064,26.761C42.02,26.761 41.976,26.762 41.932,26.763C43.451,24.367 44.25,21.613 44.25,18.749C44.25,10.479 37.521,3.75 29.251,3.75C26.82,3.75 24.405,4.346 22.266,5.474C21.808,5.715 21.632,6.282 21.874,6.74C22.115,7.198 22.682,7.374 23.14,7.132C25.011,6.146 27.124,5.625 29.251,5.625C36.488,5.625 42.375,11.512 42.375,18.749C42.375,21.191 41.712,23.541 40.448,25.599C39.569,25.014 38.524,24.685 37.443,24.685C34.764,24.685 32.532,26.637 32.096,29.194C30.676,29.362 29.54,30.468 29.327,31.874C29.303,31.874 29.277,31.874 29.251,31.874C22.014,31.874 16.126,25.986 16.126,18.749C16.126,16.622 16.647,14.509 17.633,12.639C17.875,12.181 17.699,11.614 17.241,11.373C16.783,11.131 16.216,11.307 15.975,11.765C14.847,13.903 14.251,16.318 14.251,18.749C14.251,27.02 20.98,33.749 29.251,33.749C29.389,33.749 29.504,33.748 29.612,33.746C30.022,34.589 30.792,35.223 31.72,35.446C30.91,35.564 30.086,35.623 29.251,35.623C19.946,35.623 12.377,28.054 12.377,18.749ZM44.953,33.659L32.457,33.659C31.757,33.659 31.166,33.061 31.166,32.353C31.166,31.633 31.752,31.047 32.472,31.047L32.956,31.047C33.474,31.047 33.893,30.627 33.893,30.109C33.893,28.152 35.485,26.56 37.443,26.56C38.701,26.56 39.839,27.205 40.488,28.285C40.705,28.646 41.135,28.818 41.541,28.706C41.71,28.66 41.886,28.636 42.064,28.636C43.084,28.636 43.943,29.432 44.018,30.447C44.055,30.937 44.463,31.315 44.953,31.315C45.599,31.315 46.125,31.841 46.125,32.487C46.125,33.133 45.599,33.659 44.953,33.659Z" fill="#E4E4E3"/>
<path d="M19.308,9.743C19.825,9.743 20.245,9.324 20.245,8.806C20.245,8.288 19.825,7.868 19.308,7.868L19.307,7.868C18.789,7.868 18.37,8.288 18.37,8.806C18.37,9.324 18.79,9.743 19.308,9.743Z" fill="#E4E4E3"/>
</svg>
