<svg width="44" height="44" viewBox="0 0 44 44" fill="none" xmlns="http://www.w3.org/2000/svg" xmlns:xlink="http://www.w3.org/1999/xlink">
<path d="M21.154,13.07L2.747,13.07C1.229,13.07 0,14.332 0,15.891L0,35.249C0,36.807 1.229,38.069 2.747,38.069L4.67,38.069C4.844,38.069 5.003,38.203 5.046,38.381L5.639,40.845C5.885,41.84 6.622,42.612 7.577,42.879C7.823,42.953 8.083,42.983 8.329,42.998C9.052,42.998 9.746,42.701 10.266,42.166L14.127,38.203C14.127,38.203 14.3,38.099 14.402,38.084L31.044,38.084C32.563,38.084 33.792,36.822 33.792,35.263L33.792,22.957C27.777,22.957 22.701,18.771 21.169,13.085L21.154,13.07ZM7.533,28.242C6.102,28.242 4.931,27.054 4.931,25.57C4.931,24.085 6.087,22.898 7.533,22.898C8.979,22.898 10.136,24.1 10.136,25.57C10.136,27.039 8.979,28.242 7.533,28.242ZM16.889,28.242C15.457,28.242 14.286,27.054 14.286,25.57C14.286,24.085 15.443,22.898 16.889,22.898C18.335,22.898 19.491,24.1 19.491,25.57C19.491,27.039 18.335,28.242 16.889,28.242ZM26.244,28.242C24.812,28.242 23.641,27.054 23.641,25.57C23.641,24.085 24.798,22.898 26.244,22.898C27.69,22.898 28.847,24.1 28.847,25.57C28.847,27.039 27.69,28.242 26.244,28.242Z" fill="#FFFFFF"/>
<path d="M44,9.495C44,3.706 39.417,-1 33.778,-1C28.138,-1 23.555,3.706 23.555,9.495C23.555,10.757 23.786,11.96 24.176,13.073L31.016,13.073C32.534,13.073 33.763,14.335 33.763,15.893L33.763,19.976C39.402,19.976 43.986,15.27 43.986,9.48L44,9.495Z" fill="#62C4E0"/>
</svg>
