<svg width="840" height="160" viewBox="0 0 840 160" fill="none" xmlns="http://www.w3.org/2000/svg" xmlns:xlink="http://www.w3.org/1999/xlink">
<path d="M58.146,128.798L52.934,128.798C49.546,124.28 46.662,119.344 44.384,114.062C43.636,112.342 42.96,110.57 42.352,108.762C41.222,105.548 40.318,102.212 39.642,98.77C39.398,97.554 39.19,96.302 39.016,95.052C38.442,91.194 38.148,87.198 38.148,83.114C38.148,81.794 38.182,80.472 38.252,79.17C38.408,75.608 38.826,72.116 39.434,68.726L44.646,68.726C43.812,73.348 43.36,78.144 43.36,83.114C43.36,92.236 44.82,100.838 47.548,108.762C48.156,110.57 48.834,112.342 49.582,114.062C51.874,119.344 54.74,124.28 58.146,128.798Z" fill="url(#pf_0_7336_59343)"/>
<path d="M75.52,128.8L70.313,128.8C72.675,131.942 75.286,134.89 78.139,137.618L83.358,137.618C80.506,134.89 77.887,131.944 75.52,128.8Z" fill="url(#pf_0_7336_59344)"/>
<path d="M95.843,17.658C77.893,27.336 65.017,43.254 59.821,63.046L54.609,63.046C59.787,43.254 72.645,27.354 90.561,17.658L95.843,17.658Z" fill="url(#pf_0_7336_59345)"/>
<path d="M43.5,137.618C58.058,151.542 78.706,159.822 102.684,159.822C103.558,159.822 104.418,159.788 105.282,159.766C82.426,159.186 62.748,151.022 48.72,137.618L43.5,137.618Z" fill="url(#pf_0_7336_59346)"/>
<path d="M122.55,7.312C121.686,7.29 120.826,7.258 119.952,7.258C103.704,7.258 88.984,10.982 76.648,17.656L81.94,17.656C93.596,11.366 107.366,7.69 122.55,7.312Z" fill="url(#pf_0_7336_59347)"/>
<path d="M143.152,48.486C142.02,48.35 140.872,48.268 139.704,48.268C138.82,48.268 137.946,48.332 137.078,48.408C138.244,48.512 139.394,48.67 140.518,48.91C141.386,48.728 142.264,48.592 143.152,48.486Z" fill="url(#pf_0_7336_59348)"/>
<path d="M123.188,118.668C124.054,118.748 124.922,118.812 125.8,118.812C126.974,118.812 128.127,118.724 129.266,118.584C128.381,118.476 127.505,118.336 126.642,118.148C125.514,118.398 124.357,118.56 123.188,118.668Z" fill="url(#pf_0_7336_59349)"/>
<path d="M355.686,62.28C355.86,62.524 356.016,62.784 356.172,63.044L350.976,63.044C349.742,60.976 348.318,59.1 346.702,57.432C345.572,56.216 344.338,55.104 343.018,54.112C339.682,51.576 335.876,49.802 331.758,48.916C332.626,48.726 333.514,48.586 334.4,48.482C334.974,48.552 335.53,48.638 336.086,48.742C336.642,48.828 337.198,48.95 337.736,49.09C338.188,49.194 338.622,49.316 339.056,49.438C339.578,49.594 340.082,49.752 340.586,49.942C340.846,50.03 341.108,50.134 341.35,50.238C341.732,50.378 342.114,50.534 342.48,50.708C342.896,50.882 343.296,51.072 343.696,51.282C343.852,51.352 344.026,51.438 344.182,51.526C344.616,51.752 345.034,51.996 345.45,52.238C346.024,52.568 346.58,52.932 347.136,53.332C347.5,53.576 347.866,53.836 348.214,54.096C348.596,54.392 348.978,54.686 349.344,55C349.744,55.33 350.126,55.678 350.508,56.042C351.186,56.65 351.828,57.31 352.454,58.022C352.766,58.352 353.044,58.682 353.322,59.03C353.53,59.274 353.722,59.516 353.93,59.778C354.122,60.022 354.33,60.282 354.504,60.56C354.678,60.786 354.852,61.03 355.026,61.272C355.252,61.604 355.478,61.934 355.686,62.28Z" fill="url(#pf_0_7336_59350)"/>
<path d="M347.639,83.324C347.639,102.316 335.857,116.686 320.515,118.58C319.629,118.476 318.759,118.336 317.891,118.146C328.681,115.766 337.369,107.078 340.811,95.052C341.437,92.914 341.889,90.656 342.149,88.31C342.339,86.676 342.427,85.026 342.427,83.322C342.427,78.004 341.489,73.104 339.821,68.726L345.017,68.726C346.683,73.106 347.639,78.006 347.639,83.324Z" fill="url(#pf_0_7336_59351)"/>
<path d="M287.086,17.658C269.154,27.336 256.26,43.254 251.064,63.046L245.852,63.046C251.03,43.254 263.888,27.354 281.804,17.658L287.086,17.658Z" fill="url(#pf_0_7336_59352)"/>
<path d="M233.008,137.618C247.566,151.542 268.214,159.822 292.192,159.822C293.066,159.822 293.926,159.788 294.79,159.766C271.934,159.186 252.256,151.022 238.228,137.618L233.008,137.618Z" fill="url(#pf_0_7336_59353)"/>
<path d="M266.77,128.8L261.563,128.8C263.927,131.942 266.536,134.89 269.388,137.618L274.61,137.618C271.756,134.89 269.137,131.944 266.77,128.8Z" fill="url(#pf_0_7336_59354)"/>
<path d="M313.798,7.312C312.934,7.29 312.074,7.258 311.2,7.258C294.952,7.258 280.232,10.982 267.898,17.656L273.19,17.656C284.844,11.366 298.614,7.69 313.798,7.312Z" fill="url(#pf_0_7336_59355)"/>
<path d="M235.897,68.726L230.687,68.726C229.847,73.35 229.391,78.148 229.391,83.116C229.391,100.652 234.775,116.284 244.187,128.8L249.395,128.8C239.981,116.288 234.603,100.652 234.603,83.116C234.603,78.148 235.057,73.348 235.897,68.726Z" fill="url(#pf_0_7336_59356)"/>
<path d="M320.519,118.58C319.374,118.72 318.225,118.806 317.043,118.806C316.175,118.806 315.305,118.754 314.438,118.666C315.602,118.562 316.765,118.388 317.895,118.144C318.765,118.338 319.633,118.476 320.519,118.58Z" fill="url(#pf_0_7336_59357)"/>
<path d="M334.402,48.484C333.516,48.588 332.63,48.728 331.76,48.918C330.648,48.674 329.484,48.518 328.32,48.414C329.188,48.328 330.076,48.276 330.944,48.276C332.126,48.276 333.272,48.346 334.402,48.484Z" fill="url(#pf_0_7336_59358)"/>
<rect  x="428.078" y="68.728" width="5.212" height="60.07" fill="url(#pf_0_7336_59359)"/>
<rect  x="428.07" y="8.744" width="5.212" height="8.91" fill="url(#pf_0_7336_59360)"/>
<rect  x="445.453" y="128.8" width="5.212" height="8.818" fill="url(#pf_0_7336_59361)"/>
<rect  x="441.977" y="17.658" width="5.212" height="45.388" fill="url(#pf_0_7336_59362)"/>
<rect  x="409.063" y="137.618" width="5.212" height="20.08" fill="url(#pf_0_7336_59363)"/>
<path d="M100.88,83.328C100.88,78.014 101.896,73.104 103.672,68.726L96.734,68.726C94.954,73.104 93.93,78.01 93.93,83.328C93.93,102.672 107.31,117.216 123.19,118.67C124.36,118.562 125.516,118.4 126.644,118.15C112.344,115.042 100.88,101.236 100.88,83.328Z" fill="#E72458"/>
<path d="M140.515,48.91C139.391,48.67 138.241,48.512 137.075,48.408C125.437,49.428 115.327,57.178 110.633,68.728L117.571,68.728C121.785,58.344 130.373,51.03 140.515,48.91Z" fill="#E72458"/>
<path d="M216.431,128.8L209.499,128.8C207.127,131.946 204.487,134.886 201.625,137.618L208.593,137.618C211.447,134.89 214.063,131.94 216.431,128.8Z" fill="#E72458"/>
<path d="M175.319,17.654C163.005,10.988 148.317,7.256 132.113,7.256C130.941,7.256 129.783,7.29 128.625,7.328C143.439,7.822 156.887,11.482 168.307,17.652L175.319,17.652L175.319,17.654Z" fill="#E72458"/>
<path d="M219.571,68.726L226.517,68.726C222.431,46.374 208.853,28.28 189.223,17.654L182.211,17.654C201.869,28.272 215.481,46.358 219.571,68.726Z" fill="#E72458"/>
<path d="M109.625,159.748C110.781,159.788 111.939,159.822 113.111,159.822C137.043,159.822 157.659,151.52 172.213,137.618L165.245,137.618C151.399,150.834 132.073,158.986 109.625,159.748Z" fill="#E72458"/>
<path d="M212.617,68.726L205.669,68.726C206.515,73.352 206.971,78.152 206.971,83.116C206.971,100.606 201.577,116.264 192.125,128.8L199.057,128.8C208.511,116.26 213.921,100.61 213.921,83.116C213.923,78.152 213.463,73.352 212.617,68.726Z" fill="#E72458"/>
<path d="M366.569,17.654C354.255,10.988 339.569,7.256 323.363,7.256C322.191,7.256 321.033,7.29 319.875,7.328C334.689,7.822 348.137,11.482 359.557,17.652L366.569,17.652L366.569,17.654Z" fill="#E72458"/>
<path d="M403.865,68.726L396.917,68.726C397.763,73.352 398.221,78.152 398.221,83.116C398.221,100.606 392.827,116.264 383.375,128.8L390.307,128.8C399.763,116.26 405.171,100.61 405.171,83.116C405.171,78.152 404.711,73.352 403.865,68.726Z" fill="#E72458"/>
<path d="M410.813,68.726L417.759,68.726C413.673,46.374 400.095,28.28 380.465,17.654L373.453,17.654C393.111,28.272 406.723,46.358 410.813,68.726Z" fill="#E72458"/>
<path d="M407.681,128.8L400.749,128.8C398.377,131.946 395.737,134.886 392.875,137.618L399.843,137.618C402.699,134.89 405.313,131.94 407.681,128.8Z" fill="#E72458"/>
<path d="M300.867,159.748C302.023,159.788 303.181,159.822 304.353,159.822C328.285,159.822 348.901,151.52 363.455,137.618L356.487,137.618C342.641,150.834 323.315,158.986 300.867,159.748Z" fill="#E72458"/>
<rect  x="463.578" y="137.618" width="6.95" height="20.08" fill="#E72458"/>
<rect  x="499.961" y="128.8" width="6.95" height="8.818" fill="#E72458"/>
<rect  x="482.586" y="119.026" width="6.95" height="9.774" fill="#E72458"/>
<path d="M548.169,17.654C538.335,11.818 525.541,8.744 510.145,8.744L503.195,8.744C518.591,8.744 531.385,11.818 541.219,17.654L548.169,17.654Z" fill="#E72458"/>
<path d="M503.195,119.026L510.145,119.026C546.381,119.026 568.251,100.744 570.863,68.726L563.913,68.726C561.301,100.744 539.431,119.026 503.195,119.026Z" fill="#E72458"/>
<path d="M578.077,62.08C578.077,64.358 577.987,66.572 577.811,68.726L584.761,68.726C584.937,66.572 585.027,64.356 585.027,62.08C585.027,41.618 576.933,26.476 562.067,17.656L555.117,17.656C569.985,26.476 578.077,41.618 578.077,62.08Z" fill="#E72458"/>
<rect  x="496.484" y="46.142" width="6.95" height="22.584" fill="#E72458"/>
<rect  x="482.586" y="68.726" width="6.95" height="12.902" fill="#E72458"/>
<path d="M743.618,24.258L727.156,58.748C729.098,59.718 730.968,60.692 732.72,61.654L750.57,24.256C746.774,21.854 742.57,19.648 738.09,17.654L731.15,17.654C735.626,19.646 739.822,21.856 743.618,24.258Z" fill="#E72458"/>
<path d="M724.184,17.654C708.852,10.83 690.106,6.62 671.854,6.62C670.606,6.62 669.374,6.642 668.156,6.68C685.372,7.144 702.82,11.24 717.244,17.654L724.184,17.654Z" fill="#E72458"/>
<path d="M821.463,137.512C821.463,137.548 821.459,137.582 821.459,137.618L828.409,137.618C828.409,137.582 828.413,137.548 828.413,137.512C828.413,134.346 827.861,131.416 826.833,128.8L819.859,128.8C820.891,131.418 821.463,134.34 821.463,137.512Z" fill="#E72458"/>
<path d="M766.695,159.146C767.813,159.298 768.955,159.4 770.143,159.4C783.069,159.4 791.975,150.524 792.025,137.62L785.075,137.62C785.031,149.316 777.695,157.68 766.695,159.146Z" fill="#E72458"/>
<path d="M802.485,128.8L809.459,128.8C806.353,120.882 798.895,115.838 789.151,115.838C787.963,115.838 786.821,115.94 785.703,116.092C793.709,117.156 799.759,121.878 802.485,128.8Z" fill="#E72458"/>
<rect  x="806" y="8.744" width="6.95" height="8.91" fill="#E72458"/>
<path d="M819.906,47.842L816.68,68.726L823.63,68.726L826.856,47.842L826.856,17.654L819.906,17.654L819.906,47.842Z" fill="#E72458"/>
<path d="M809.734,68.728L804.452,102.872L797.5,102.872L802.784,68.728L809.734,68.728Z" fill="#E72458"/>
<path d="M143.152,48.486C142.02,48.35 140.872,48.268 139.704,48.268C138.82,48.268 137.946,48.332 137.078,48.408C138.244,48.512 139.394,48.67 140.518,48.91C141.386,48.728 142.264,48.592 143.152,48.486Z" fill="#E72458"/>
<path d="M123.188,118.668C124.054,118.748 124.922,118.812 125.8,118.812C126.974,118.812 128.127,118.724 129.266,118.584C128.381,118.476 127.505,118.336 126.642,118.148C125.514,118.398 124.357,118.56 123.188,118.668Z" fill="#E72458"/>
<path d="M320.519,118.58C319.374,118.72 318.225,118.806 317.043,118.806C316.175,118.806 315.305,118.754 314.438,118.666C315.602,118.562 316.765,118.388 317.895,118.144C318.765,118.338 319.633,118.476 320.519,118.58Z" fill="#E72458"/>
<path d="M334.402,48.484C333.516,48.588 332.63,48.728 331.76,48.918C330.648,48.674 329.484,48.518 328.32,48.414C329.188,48.328 330.076,48.276 330.944,48.276C332.126,48.276 333.272,48.346 334.402,48.484Z" fill="#E72458"/>
<path d="M663.727,121.468C664.645,121.532 665.543,121.576 666.393,121.576C667.571,121.576 668.671,121.508 669.705,121.38C668.703,121.288 667.671,121.164 666.605,121.002C665.717,121.216 664.761,121.376 663.727,121.468Z" fill="#E72458"/>
<path d="M650.672,159.118C651.754,159.148 652.838,159.186 653.912,159.186C676.75,159.186 697.514,152.392 708.462,137.618L701.506,137.618C691.15,151.582 672.03,158.416 650.672,159.118Z" fill="#E72458"/>
<path d="M735.601,111.37C735.601,117.886 734.455,123.69 732.403,128.798L725.435,128.798C727.503,123.69 728.649,117.886 728.649,111.37C728.649,100.406 725.469,92.152 720.395,85.81C719.197,84.316 717.911,82.926 716.521,81.622C710.091,75.644 701.785,71.7 693.289,68.728L700.239,68.728C708.737,71.7 717.043,75.644 723.471,81.622C724.861,82.926 726.147,84.316 727.345,85.81C732.421,92.15 735.601,100.404 735.601,111.37Z" fill="#E72458"/>
<path d="M737.891,137.618L744.847,137.618C746.829,134.944 748.487,132.006 749.779,128.8L742.825,128.8C741.533,132.006 739.875,134.944 737.891,137.618Z" fill="#E72458"/>
<path d="M694.354,63.046L687.404,63.046C674.998,59.796 665.422,56.982 665.422,50.396C665.422,46.608 668.028,44.836 672.182,44.366C672.93,44.278 673.71,44.226 674.562,44.226C675.744,44.226 677.046,44.33 678.384,44.47C677.672,44.592 677.028,44.73 676.438,44.94C673.884,45.808 672.372,47.512 672.372,50.396C672.374,56.982 681.948,59.796 694.354,63.046Z" fill="#E72458"/>
<rect  x="819.906" y="17.654" width="17.434" height="3.926" fill="#E72458"/>
<rect  x="738.086" y="17.654" width="12.48" height="1.964" fill="#E72458"/>
<rect  x="570.867" y="27.62" width="31.08" height="3.526" fill="#E72458"/>
<rect  x="410.82" y="63.046" width="19.858" height="5.682" fill="#E72458"/>
<rect  x="730.859" y="106.988" width="13.47" height="6.62" fill="#E72458"/>
<rect  x="806" y="81.628" width="10.52" height="8.436" fill="#E72458"/>
<rect  x="826.852" y="104.14" width="6.59" height="6.59" fill="#E72458"/>
<rect  x="834.797" y="34.672" width="4.006" height="4.006" fill="#E72458"/>
<rect  x="503.438" y="63.046" width="9.204" height="5.68" fill="#E72458"/>
<rect  x="400.273" y="104.14" width="8.79" height="4.628" fill="#E72458"/>
<rect  x="95.844" y="83.974" width="41.236" height="7.708" fill="#E72458"/>
<rect  x="99.602" y="96.156" width="19.374" height="4.302" fill="#E72458"/>
<rect  x="189.219" y="17.654" width="24.7" height="3.366" fill="#E72458"/>
<path d="M609.852,55.068C609.852,60.226 610.612,64.742 611.966,68.726L617.178,68.726C615.824,64.742 615.064,60.226 615.064,55.068C615.064,38.938 622.446,26.066 635.362,17.656L630.146,17.656C617.234,26.068 609.852,38.938 609.852,55.068Z" fill="url(#pf_0_7336_59414)"/>
<path d="M662.054,6.664C661.266,6.648 660.478,6.62 659.692,6.62C641.986,6.62 627.144,10.55 616.242,17.654L621.458,17.654C631.77,10.938 645.606,7.064 662.054,6.664Z" fill="url(#pf_0_7336_59415)"/>
<path d="M673.079,113.926C673.079,117.748 670.651,120.022 666.603,121.002C667.668,121.164 668.7,121.288 669.702,121.38C675.009,120.728 678.293,118.372 678.293,113.926C678.293,96.498 615.639,105.126 603.275,68.726L598.063,68.726C610.425,105.128 673.079,96.498 673.079,113.926Z" fill="url(#pf_0_7336_59416)"/>
<path d="M608.761,135.388L612.017,128.8L606.803,128.8L603.547,135.388C604.547,136.152 605.587,136.888 606.633,137.618L611.841,137.618C610.797,136.888 609.761,136.152 608.761,135.388Z" fill="url(#pf_0_7336_59417)"/>
<path d="M570.25,137.618C589.86,151.322 617.136,159.186 641.748,159.186C642.798,159.186 643.842,159.172 644.882,159.142C620.82,158.718 594.52,150.938 575.458,137.618L570.25,137.618Z" fill="url(#pf_0_7336_59418)"/>
<path d="M604.448,98.414L589.43,128.8L594.644,128.8L608.22,101.33C606.91,100.374 605.636,99.404 604.448,98.414Z" fill="url(#pf_0_7336_59419)"/>
<path d="M663.727,121.468C664.645,121.532 665.543,121.576 666.393,121.576C667.571,121.576 668.671,121.508 669.705,121.38C668.703,121.288 667.671,121.164 666.605,121.002C665.717,121.216 664.761,121.376 663.727,121.468Z" fill="url(#pf_0_7336_59420)"/>
<path d="M769.033,102.872L763.821,102.872L759.529,75.174L758.539,68.728L763.751,68.728L769.033,102.872Z" fill="url(#pf_0_7336_59421)"/>
<rect  x="755.313" y="8.744" width="5.212" height="8.91" fill="url(#pf_0_7336_59422)"/>
<path d="M776.771,63.046L771.557,63.046L769.211,47.842L769.211,17.658L774.423,17.658L774.423,47.842L776.771,63.046Z" fill="url(#pf_0_7336_59423)"/>
<path d="M779.617,115.974C778.761,115.89 777.887,115.838 776.989,115.838C767.407,115.838 759.987,120.882 756.891,128.8L762.123,128.8C764.937,121.62 771.299,116.8 779.617,115.974Z" fill="url(#pf_0_7336_59424)"/>
<path d="M741.524,137.618L736.313,137.618C736.363,150.522 745.268,159.398 757.98,159.398C758.878,159.398 759.751,159.346 760.607,159.262C749.289,158.138 741.57,149.626 741.524,137.618Z" fill="url(#pf_0_7336_59425)"/>
<path d="M772.701,137.618L777.913,137.618C777.913,137.582 777.909,137.548 777.909,137.512C777.909,134.342 778.477,131.418 779.503,128.8L774.271,128.8C773.247,131.416 772.695,134.346 772.695,137.512C772.697,137.548 772.701,137.582 772.701,137.618Z" fill="url(#pf_0_7336_59426)"/>
<rect  x="-1" y="68.728" width="40.436" height="10.444" fill="url(#pf_0_7336_59427)"/>
<rect  x="46.984" y="36.292" width="5.618" height="5.618" fill="url(#pf_0_7336_59428)"/>
<path d="M229.391,12.456L282.315,12.456L267.897,17.654L229.391,17.654L229.391,12.456Z" fill="url(#pf_0_7336_59429)"/>
<rect  x="388.266" y="12.456" width="39.81" height="5.198" fill="url(#pf_0_7336_59430)"/>
<rect  x="589.43" y="64.432" width="22.59" height="4.294" fill="url(#pf_0_7336_59431)"/>
<rect  x="324.688" y="88.31" width="20.66" height="6.742" fill="url(#pf_0_7336_59432)"/>
<rect  x="430.68" y="43.19" width="13.902" height="8.342" fill="url(#pf_0_7336_59433)"/>
<rect  x="14.211" y="15.056" width="56.104" height="2.6" fill="url(#pf_0_7336_59434)"/>
<rect  x="36.281" y="128.8" width="26.486" height="4.41" fill="url(#pf_0_7336_59435)"/>
<rect  x="27.086" y="128.8" width="2.204" height="2.204" fill="url(#pf_0_7336_59436)"/>
<rect  x="243.484" y="33.57" width="2.204" height="2.204" fill="url(#pf_0_7336_59437)"/>
<rect  x="422.477" y="93.95" width="2.204" height="2.204" fill="url(#pf_0_7336_59438)"/>
<rect  x="574.359" y="128.8" width="2.204" height="2.204" fill="url(#pf_0_7336_59439)"/>
<rect  x="728.648" y="67.624" width="2.204" height="2.204" fill="url(#pf_0_7336_59440)"/>
<rect  x="743.617" y="68.728" width="20.14" height="6.446" fill="url(#pf_0_7336_59441)"/>
<rect  x="765.641" y="27.62" width="7.05" height="7.05" fill="url(#pf_0_7336_59442)"/>
<rect  x="738.859" y="8.744" width="16.458" height="1.956" fill="url(#pf_0_7336_59443)"/>
<rect  x="714.445" y="144.598" width="27.084" height="3.802" fill="url(#pf_0_7336_59444)"/>
<rect  x="419.219" y="123.912" width="8.85" height="4.888" fill="url(#pf_0_7336_59445)"/>
<rect  x="223.891" y="111.492" width="14.336" height="5.15" fill="url(#pf_0_7336_59446)"/>
<rect  x="313.789" y="100.456" width="3.684" height="3.684" fill="url(#pf_0_7336_59447)"/>
<rect  x="324.688" y="54.114" width="22.954" height="3.32" fill="url(#pf_0_7336_59448)"/>
<rect  x="25.617" y="95.052" width="16.648" height="3.71" fill="url(#pf_0_7336_59449)"/>
<path d="M46.984,137.618C61.01,151.022 80.69,159.186 103.546,159.766C104.416,159.788 105.282,159.822 106.162,159.822C107.326,159.822 108.476,159.786 109.626,159.748C132.074,158.986 151.4,150.834 165.248,137.618L46.984,137.618Z" fill="#E4E4E3"/>
<path d="M83.363,137.618L201.625,137.618C204.489,134.886 207.127,131.946 209.499,128.8L75.523,128.8C77.889,131.944 80.509,134.89 83.363,137.618Z" fill="#E4E4E3"/>
<path d="M206.977,83.116C206.977,100.614 201.573,116.27 192.121,128.798L58.147,128.798C54.741,124.28 51.875,119.344 49.581,114.062C48.833,112.342 48.157,110.57 47.547,108.762C44.819,100.838 43.359,92.238 43.359,83.114C43.359,78.144 43.811,73.348 44.645,68.726L96.723,68.726C94.951,73.104 93.925,78.004 93.925,83.322C93.925,102.662 107.305,117.206 123.187,118.666C124.055,118.752 124.925,118.806 125.793,118.806C126.975,118.806 128.121,118.72 129.269,118.58C144.613,116.686 156.393,102.316 156.393,83.324C156.393,78.006 155.437,73.106 153.769,68.728L205.673,68.728C206.507,73.35 206.977,78.146 206.977,83.116Z" fill="#E4E4E3"/>
<path d="M168.307,17.654C156.886,11.484 143.44,7.822 128.625,7.33C127.478,7.292 126.327,7.258 125.161,7.258C124.282,7.258 123.415,7.29 122.546,7.312C107.361,7.69 93.591,11.366 81.938,17.654L168.307,17.654Z" fill="#E4E4E3"/>
<path d="M219.578,68.728L167.674,68.728C163.382,57.468 154.208,49.804 143.156,48.484C142.026,48.346 140.88,48.276 139.698,48.276C138.812,48.276 137.942,48.328 137.074,48.414C125.432,49.422 115.336,57.172 110.628,68.728L65.884,68.728L65.884,63.046L59.82,63.046C65.016,43.254 77.892,27.338 95.842,17.658L182.22,17.658C183.124,18.144 184.01,18.648 184.878,19.17C185.868,19.744 186.842,20.334 187.78,20.96C188.11,21.168 188.424,21.394 188.754,21.602C189.502,22.124 190.248,22.628 190.978,23.166C191.03,23.2 191.082,23.236 191.134,23.288C192.054,23.966 192.976,24.678 193.88,25.408C194.748,26.104 195.6,26.816 196.434,27.562C197.234,28.258 198.016,28.97 198.78,29.7C198.814,29.752 198.866,29.786 198.902,29.822C200.936,31.804 202.864,33.888 204.636,36.094C205.14,36.702 205.644,37.328 206.112,37.954C206.164,38.04 206.234,38.11 206.268,38.18C206.738,38.788 207.188,39.396 207.606,40.022C207.71,40.16 207.798,40.282 207.902,40.422C208.388,41.134 208.874,41.864 209.362,42.594C209.362,42.612 209.362,42.628 209.38,42.628C209.866,43.392 210.336,44.174 210.804,44.974C211.274,45.774 211.726,46.572 212.16,47.39C212.594,48.206 213.012,49.024 213.412,49.858C213.43,49.876 213.446,49.892 213.446,49.928C214.61,52.326 215.654,54.794 216.556,57.348C216.626,57.54 216.694,57.748 216.764,57.956C217.024,58.738 217.286,59.538 217.528,60.336C217.562,60.406 217.58,60.476 217.598,60.544C217.842,61.378 218.084,62.212 218.292,63.046C218.326,63.098 218.326,63.132 218.344,63.186C218.5,63.812 218.656,64.454 218.814,65.08C218.936,65.566 219.04,66.054 219.144,66.54C219.302,67.268 219.44,67.998 219.578,68.728Z" fill="#E4E4E3"/>
<path d="M359.557,17.654C348.138,11.484 334.69,7.822 319.875,7.33C318.728,7.292 317.577,7.258 316.411,7.258C315.532,7.258 314.665,7.29 313.796,7.312C298.611,7.69 284.841,11.366 273.188,17.654L359.557,17.654Z" fill="#E4E4E3"/>
<path d="M274.613,137.618L392.875,137.618C395.739,134.886 398.377,131.946 400.749,128.8L266.773,128.8C269.137,131.944 271.757,134.89 274.613,137.618Z" fill="#E4E4E3"/>
<path d="M238.227,137.618C252.253,151.022 271.933,159.186 294.789,159.766C295.659,159.788 296.525,159.822 297.405,159.822C298.569,159.822 299.719,159.786 300.869,159.748C323.319,158.986 342.643,150.834 356.491,137.618L238.227,137.618Z" fill="#E4E4E3"/>
<path d="M398.225,83.116C398.225,100.614 392.821,116.27 383.369,128.798L249.397,128.798C239.979,116.286 234.609,100.648 234.609,83.116C234.609,78.146 235.061,73.35 235.895,68.728L287.989,68.728C286.199,73.106 285.173,78.006 285.173,83.324C285.173,102.664 298.553,117.208 314.435,118.668C315.303,118.754 316.173,118.808 317.041,118.808C318.223,118.808 319.369,118.722 320.517,118.582C335.861,116.688 347.641,102.318 347.641,83.326C347.641,78.008 346.685,73.108 345.017,68.73L396.921,68.73C397.755,73.35 398.225,78.146 398.225,83.116Z" fill="#E4E4E3"/>
<path d="M410.822,68.728L382.551,68.728L382.551,63.046L356.173,63.046C356.017,62.786 355.86,62.524 355.686,62.282C355.479,61.934 355.252,61.604 355.026,61.274C354.853,61.03 354.679,60.788 354.504,60.562C354.313,60.284 354.123,60.04 353.93,59.78C353.722,59.52 353.531,59.276 353.322,59.032C353.045,58.684 352.749,58.338 352.454,58.024C351.828,57.312 351.186,56.652 350.508,56.044C350.126,55.68 349.745,55.332 349.344,55.002C348.981,54.69 348.596,54.394 348.214,54.098C347.867,53.838 347.502,53.576 347.137,53.334C346.581,52.934 346.024,52.57 345.45,52.24C345.035,51.996 344.617,51.754 344.182,51.528C344.026,51.442 343.853,51.354 343.696,51.284C343.297,51.076 342.896,50.884 342.481,50.71C342.117,50.536 341.732,50.38 341.351,50.24C341.09,50.136 340.846,50.032 340.587,49.944C340.083,49.754 339.578,49.596 339.056,49.44C338.623,49.318 338.189,49.198 337.736,49.092C337.198,48.952 336.643,48.832 336.087,48.744C335.531,48.64 334.975,48.552 334.4,48.484C333.27,48.346 332.125,48.276 330.943,48.276C330.074,48.276 329.186,48.328 328.319,48.414C316.677,49.422 306.581,57.172 301.889,68.728L287.518,68.728L287.518,63.046L251.063,63.046C256.258,43.254 269.15,27.338 287.085,17.658L373.463,17.658C393.117,28.276 406.722,46.364 410.822,68.728Z" fill="#E4E4E3"/>
<path d="M541.219,17.654C531.385,11.818 518.591,8.744 503.195,8.744L497.983,8.744L440.239,8.744L433.289,8.744L433.289,17.654L541.219,17.654Z" fill="#E4E4E3"/>
<path d="M414.281,137.618L414.281,157.698L421.231,157.698L458.365,157.698L463.577,157.698L463.577,137.618L414.281,137.618Z" fill="#E4E4E3"/>
<path d="M563.907,68.728C561.301,100.752 539.423,119.032 503.193,119.032L482.585,119.032L482.585,128.798L433.289,128.798L433.289,68.728L482.585,68.728L482.585,81.622L500.639,81.622C504.427,81.622 507.625,80.788 510.197,79.172C511.865,78.164 513.255,76.826 514.367,75.176C515.583,73.386 516.453,71.214 516.939,68.73L563.907,68.728Z" fill="#E4E4E3"/>
<rect  x="450.664" y="128.8" width="49.298" height="8.818" fill="#E4E4E3"/>
<path d="M578.084,62.072C578.084,64.348 577.98,66.572 577.805,68.728L530.838,68.728C531.149,67.13 531.323,65.426 531.323,63.568C531.323,52.516 525.172,46.14 514.537,46.14L496.483,46.14L496.483,68.73L475.302,68.73L475.302,63.048L447.188,63.048L447.188,17.66L555.111,17.66C569.987,26.468 578.084,41.62 578.084,62.072Z" fill="#E4E4E3"/>
<path d="M608.766,135.388C609.766,136.152 610.802,136.888 611.848,137.618L737.894,137.618C739.878,134.944 741.536,132.006 742.828,128.8L612.024,128.8L608.766,135.388Z" fill="#E4E4E3"/>
<path d="M728.654,111.37C728.654,117.886 727.508,123.69 725.44,128.798L594.648,128.798L608.218,101.326L609.66,98.406C611.224,99.726 612.944,100.996 614.716,102.246C629.294,112.498 650.024,120.508 663.718,121.464C664.64,121.534 665.542,121.568 666.394,121.568C667.576,121.568 668.67,121.498 669.696,121.376C675.014,120.732 678.298,118.37 678.298,113.922C678.298,96.494 615.638,105.13 603.266,68.726L693.294,68.726C701.792,71.698 710.096,75.642 716.526,81.62C717.916,82.924 719.202,84.314 720.4,85.808C725.474,92.15 728.654,100.404 728.654,111.37Z" fill="#E4E4E3"/>
<path d="M717.249,17.654C702.825,11.238 685.377,7.142 668.161,6.68C667.075,6.65 665.991,6.62 664.909,6.62C663.947,6.62 663.001,6.64 662.057,6.664C645.611,7.064 631.773,10.94 621.461,17.656L717.249,17.654Z" fill="#E4E4E3"/>
<path d="M701.507,137.618L575.461,137.618C594.523,150.938 620.823,158.718 644.885,159.142C645.577,159.154 646.275,159.186 646.963,159.186C648.207,159.186 649.443,159.16 650.673,159.118C672.033,158.416 691.153,151.582 701.507,137.618Z" fill="#E4E4E3"/>
<path d="M743.611,24.262L727.154,58.754L725.764,61.656C724.444,60.926 723.037,60.196 721.594,59.466C708.162,52.602 690.421,45.774 678.38,44.47C677.043,44.332 675.738,44.226 674.558,44.226C673.707,44.226 672.925,44.278 672.179,44.366C668.027,44.836 665.418,46.608 665.418,50.396C665.418,56.982 674.993,59.796 687.401,63.046L669.658,63.046L669.658,68.728L617.164,68.728C615.826,64.748 615.063,60.23 615.063,55.07C615.063,38.944 622.447,26.068 635.358,17.658L731.137,17.658C735.618,19.64 739.823,21.864 743.611,24.262Z" fill="#E4E4E3"/>
<path d="M806.003,17.654L806.003,8.744L800.791,8.744L767.481,8.744L760.531,8.744L760.531,17.654L806.003,17.654Z" fill="#E4E4E3"/>
<path d="M819.898,17.658L819.898,47.842L816.682,68.728L802.99,68.728L802.99,63.046L776.77,63.046L774.422,47.842L774.422,17.658L819.898,17.658Z" fill="#E4E4E3"/>
<path d="M802.786,68.728L797.502,102.872L769.04,102.872L763.758,68.728L802.786,68.728Z" fill="#E4E4E3"/>
<path d="M762.125,128.8L802.487,128.8C799.761,121.878 793.711,117.156 785.705,116.092C784.571,115.942 783.411,115.838 782.203,115.838C781.321,115.838 780.461,115.89 779.617,115.974C771.301,116.8 764.939,121.62 762.125,128.8Z" fill="#E4E4E3"/>
<path d="M821.464,137.512C821.464,134.34 820.892,131.418 819.862,128.8L779.5,128.8C778.474,131.418 777.906,134.342 777.906,137.512C777.906,137.548 777.91,137.582 777.91,137.618L821.46,137.618C821.46,137.582 821.464,137.548 821.464,137.512Z" fill="#E4E4E3"/>
<path d="M785.075,137.618L741.523,137.618C741.569,149.626 749.289,158.138 760.607,159.262C761.451,159.346 762.311,159.398 763.193,159.398C764.401,159.398 765.561,159.296 766.695,159.144C777.695,157.68 785.031,149.316 785.075,137.618Z" fill="#E4E4E3"/>
<rect  x="172.211" y="25.414" width="67.182" height="4.414" fill="url(#pf_0_7336_59476)"/>
<rect  x="14.211" y="108.768" width="72.1" height="5.298" fill="url(#pf_0_7336_59477)"/>
<rect  x="498.602" y="75.178" width="32.452" height="3.994" fill="url(#pf_0_7336_59478)"/>
<rect  x="688.125" y="81.628" width="49.764" height="4.174" fill="url(#pf_0_7336_59479)"/>
<g opacity="0.8">
<rect  x="503.934" y="91.682" width="85.834" height="17.086" fill="#EEE421"/>
</g>
<g opacity="0.8">
<rect  x="594.355" y="41.912" width="39.762" height="5.45" fill="#EEE421"/>
</g>
<g opacity="0.8">
<rect  x="110.637" y="35.774" width="32.516" height="21.66" fill="#EEE421"/>
</g>
<g opacity="0.8">
<rect  x="314.121" y="128.798" width="56.236" height="19.922" fill="#EEE421"/>
</g>
<g opacity="0.8">
<rect  x="189.223" y="87.828" width="33.868" height="10.478" fill="#EEE421"/>
</g>
<g opacity="0.8">
<rect  x="25.617" y="55.764" width="40.266" height="7.28" fill="#EEE421"/>
</g>
<g opacity="0.8">
<rect  x="466.09" y="0" width="38.944" height="17.654" fill="#EEE421"/>
</g>
<g opacity="0.8">
<rect  x="809.461" y="46.822" width="29.342" height="12.584" fill="#EEE421"/>
</g>
<g opacity="0.8">
<rect  x="769.039" y="148.72" width="47.486" height="8.978" fill="#EEE421"/>
</g>
<defs>
<linearGradient id="pf_0_7336_59343" x1="18.961" y1="80.637" x2="77.326" y2="116.882" gradientUnits="userSpaceOnUse">
<stop stop-color="#22CBEE"/>
<stop offset="0.58" stop-color="#6BE3F9"/>
<stop offset="1" stop-color="#A5F0FC"/>
</linearGradient>
<linearGradient id="pf_0_7336_59344" x1="57.795" y1="130.548" x2="95.871" y2="135.869" gradientUnits="userSpaceOnUse">
<stop stop-color="#22CBEE"/>
<stop offset="0.58" stop-color="#6BE3F9"/>
<stop offset="1" stop-color="#A5F0FC"/>
</linearGradient>
<linearGradient id="pf_0_7336_59345" x1="15.047" y1="26.657" x2="135.39" y2="54.043" gradientUnits="userSpaceOnUse">
<stop stop-color="#22CBEE"/>
<stop offset="0.58" stop-color="#6BE3F9"/>
<stop offset="1" stop-color="#A5F0FC"/>
</linearGradient>
<linearGradient id="pf_0_7336_59346" x1="-15.754" y1="142.021" x2="164.56" y2="155.418" gradientUnits="userSpaceOnUse">
<stop stop-color="#07A856"/>
<stop offset="0.5" stop-color="#5ED36A"/>
<stop offset="1" stop-color="#8EE5FF"/>
</linearGradient>
<linearGradient id="pf_0_7336_59347" x1="32.607" y1="9.32" x2="166.574" y2="15.594" gradientUnits="userSpaceOnUse">
<stop stop-color="#22CBEE"/>
<stop offset="0.58" stop-color="#6BE3F9"/>
<stop offset="1" stop-color="#A5F0FC"/>
</linearGradient>
<linearGradient id="pf_0_7336_59348" x1="131.25" y1="48.395" x2="148.978" y2="48.783" gradientUnits="userSpaceOnUse">
<stop stop-color="#22CBEE"/>
<stop offset="0.58" stop-color="#6BE3F9"/>
<stop offset="1" stop-color="#A5F0FC"/>
</linearGradient>
<linearGradient id="pf_0_7336_59349" x1="117.358" y1="118.28" x2="135.097" y2="118.68" gradientUnits="userSpaceOnUse">
<stop stop-color="#07A856"/>
<stop offset="0.5" stop-color="#5ED36A"/>
<stop offset="1" stop-color="#8EE5FF"/>
</linearGradient>
<linearGradient id="pf_0_7336_59350" x1="308.333" y1="51.369" x2="379.587" y2="60.155" gradientUnits="userSpaceOnUse">
<stop stop-color="#22CBEE"/>
<stop offset="0.58" stop-color="#6BE3F9"/>
<stop offset="1" stop-color="#A5F0FC"/>
</linearGradient>
<linearGradient id="pf_0_7336_59351" x1="289.348" y1="78.611" x2="376.169" y2="108.691" gradientUnits="userSpaceOnUse">
<stop stop-color="#22CBEE"/>
<stop offset="0.58" stop-color="#6BE3F9"/>
<stop offset="1" stop-color="#A5F0FC"/>
</linearGradient>
<linearGradient id="pf_0_7336_59352" x1="206.305" y1="26.657" x2="326.648" y2="54.043" gradientUnits="userSpaceOnUse">
<stop stop-color="#07A856"/>
<stop offset="0.5" stop-color="#5ED36A"/>
<stop offset="1" stop-color="#8EE5FF"/>
</linearGradient>
<linearGradient id="pf_0_7336_59353" x1="173.73" y1="142.021" x2="354.044" y2="155.418" gradientUnits="userSpaceOnUse">
<stop stop-color="#22CBEE"/>
<stop offset="0.58" stop-color="#6BE3F9"/>
<stop offset="1" stop-color="#A5F0FC"/>
</linearGradient>
<linearGradient id="pf_0_7336_59354" x1="249.043" y1="130.548" x2="287.125" y2="135.869" gradientUnits="userSpaceOnUse">
<stop stop-color="#22CBEE"/>
<stop offset="0.58" stop-color="#6BE3F9"/>
<stop offset="1" stop-color="#A5F0FC"/>
</linearGradient>
<linearGradient id="pf_0_7336_59355" x1="223.877" y1="9.32" x2="357.838" y2="15.594" gradientUnits="userSpaceOnUse">
<stop stop-color="#07A856"/>
<stop offset="0.5" stop-color="#5ED36A"/>
<stop offset="1" stop-color="#8EE5FF"/>
</linearGradient>
<linearGradient id="pf_0_7336_59356" x1="210.197" y1="80.637" x2="268.58" y2="116.884" gradientUnits="userSpaceOnUse">
<stop stop-color="#22CBEE"/>
<stop offset="0.58" stop-color="#6BE3F9"/>
<stop offset="1" stop-color="#A5F0FC"/>
</linearGradient>
<linearGradient id="pf_0_7336_59357" x1="308.604" y1="118.275" x2="326.355" y2="118.675" gradientUnits="userSpaceOnUse">
<stop stop-color="#07A856"/>
<stop offset="0.5" stop-color="#5ED36A"/>
<stop offset="1" stop-color="#8EE5FF"/>
</linearGradient>
<linearGradient id="pf_0_7336_59358" x1="322.485" y1="48.403" x2="340.235" y2="48.791" gradientUnits="userSpaceOnUse">
<stop stop-color="#22CBEE"/>
<stop offset="0.58" stop-color="#6BE3F9"/>
<stop offset="1" stop-color="#A5F0FC"/>
</linearGradient>
<linearGradient id="pf_0_7336_59359" x1="423.077" y1="80.638" x2="438.289" y2="116.883" gradientUnits="userSpaceOnUse">
<stop stop-color="#22CBEE"/>
<stop offset="0.58" stop-color="#6BE3F9"/>
<stop offset="1" stop-color="#A5F0FC"/>
</linearGradient>
<linearGradient id="pf_0_7336_59360" x1="423.07" y1="10.511" x2="438.281" y2="15.887" gradientUnits="userSpaceOnUse">
<stop stop-color="#22CBEE"/>
<stop offset="0.58" stop-color="#6BE3F9"/>
<stop offset="1" stop-color="#A5F0FC"/>
</linearGradient>
<linearGradient id="pf_0_7336_59361" x1="440.452" y1="130.548" x2="455.664" y2="135.869" gradientUnits="userSpaceOnUse">
<stop stop-color="#22CBEE"/>
<stop offset="0.58" stop-color="#6BE3F9"/>
<stop offset="1" stop-color="#A5F0FC"/>
</linearGradient>
<linearGradient id="pf_0_7336_59362" x1="436.976" y1="26.657" x2="452.187" y2="54.043" gradientUnits="userSpaceOnUse">
<stop stop-color="#22CBEE"/>
<stop offset="0.58" stop-color="#6BE3F9"/>
<stop offset="1" stop-color="#A5F0FC"/>
</linearGradient>
<linearGradient id="pf_0_7336_59363" x1="404.064" y1="141.6" x2="419.275" y2="153.715" gradientUnits="userSpaceOnUse">
<stop stop-color="#07A856"/>
<stop offset="0.5" stop-color="#5ED36A"/>
<stop offset="1" stop-color="#8EE5FF"/>
</linearGradient>
<linearGradient id="pf_0_7336_59414" x1="585.385" y1="27.782" x2="659.838" y2="58.596" gradientUnits="userSpaceOnUse">
<stop stop-color="#07A856"/>
<stop offset="0.5" stop-color="#5ED36A"/>
<stop offset="1" stop-color="#8EE5FF"/>
</linearGradient>
<linearGradient id="pf_0_7336_59415" x1="572.305" y1="8.808" x2="706.009" y2="15.465" gradientUnits="userSpaceOnUse">
<stop stop-color="#07A856"/>
<stop offset="0.5" stop-color="#5ED36A"/>
<stop offset="1" stop-color="#8EE5FF"/>
</linearGradient>
<linearGradient id="pf_0_7336_59416" x1="521.084" y1="79.166" x2="755.24" y2="110.936" gradientUnits="userSpaceOnUse">
<stop stop-color="#22CBEE"/>
<stop offset="0.58" stop-color="#6BE3F9"/>
<stop offset="1" stop-color="#A5F0FC"/>
</linearGradient>
<linearGradient id="pf_0_7336_59417" x1="595.423" y1="130.548" x2="620.144" y2="135.869" gradientUnits="userSpaceOnUse">
<stop stop-color="#07A856"/>
<stop offset="0.5" stop-color="#5ED36A"/>
<stop offset="1" stop-color="#8EE5FF"/>
</linearGradient>
<linearGradient id="pf_0_7336_59418" x1="498.672" y1="141.895" x2="716.489" y2="154.908" gradientUnits="userSpaceOnUse">
<stop stop-color="#07A856"/>
<stop offset="0.5" stop-color="#5ED36A"/>
<stop offset="1" stop-color="#8EE5FF"/>
</linearGradient>
<linearGradient id="pf_0_7336_59419" x1="571.401" y1="104.439" x2="626.241" y2="122.773" gradientUnits="userSpaceOnUse">
<stop stop-color="#22CBEE"/>
<stop offset="0.58" stop-color="#6BE3F9"/>
<stop offset="1" stop-color="#A5F0FC"/>
</linearGradient>
<linearGradient id="pf_0_7336_59420" x1="657.993" y1="121.116" x2="675.44" y2="121.462" gradientUnits="userSpaceOnUse">
<stop stop-color="#07A856"/>
<stop offset="0.5" stop-color="#5ED36A"/>
<stop offset="1" stop-color="#8EE5FF"/>
</linearGradient>
<linearGradient id="pf_0_7336_59421" x1="748.475" y1="75.498" x2="779.102" y2="96.099" gradientUnits="userSpaceOnUse">
<stop stop-color="#07A856"/>
<stop offset="0.5" stop-color="#5ED36A"/>
<stop offset="1" stop-color="#8EE5FF"/>
</linearGradient>
<linearGradient id="pf_0_7336_59422" x1="750.314" y1="10.511" x2="765.525" y2="15.887" gradientUnits="userSpaceOnUse">
<stop stop-color="#07A856"/>
<stop offset="0.5" stop-color="#5ED36A"/>
<stop offset="1" stop-color="#8EE5FF"/>
</linearGradient>
<linearGradient id="pf_0_7336_59423" x1="761.96" y1="26.657" x2="784.025" y2="54.043" gradientUnits="userSpaceOnUse">
<stop stop-color="#07A856"/>
<stop offset="0.5" stop-color="#5ED36A"/>
<stop offset="1" stop-color="#8EE5FF"/>
</linearGradient>
<linearGradient id="pf_0_7336_59424" x1="735.095" y1="118.408" x2="801.422" y2="126.229" gradientUnits="userSpaceOnUse">
<stop stop-color="#07A856"/>
<stop offset="0.5" stop-color="#5ED36A"/>
<stop offset="1" stop-color="#8EE5FF"/>
</linearGradient>
<linearGradient id="pf_0_7336_59425" x1="713.013" y1="141.937" x2="783.916" y2="155.078" gradientUnits="userSpaceOnUse">
<stop stop-color="#07A856"/>
<stop offset="0.5" stop-color="#5ED36A"/>
<stop offset="1" stop-color="#8EE5FF"/>
</linearGradient>
<linearGradient id="pf_0_7336_59426" x1="766.166" y1="130.548" x2="786.035" y2="135.869" gradientUnits="userSpaceOnUse">
<stop stop-color="#07A856"/>
<stop offset="0.5" stop-color="#5ED36A"/>
<stop offset="1" stop-color="#8EE5FF"/>
</linearGradient>
<linearGradient id="pf_0_7336_59427" x1="-39.781" y1="70.799" x2="78.233" y2="77.1" gradientUnits="userSpaceOnUse">
<stop stop-color="#07A856"/>
<stop offset="0.5" stop-color="#5ED36A"/>
<stop offset="1" stop-color="#8EE5FF"/>
</linearGradient>
<linearGradient id="pf_0_7336_59428" x1="41.596" y1="37.406" x2="57.993" y2="40.796" gradientUnits="userSpaceOnUse">
<stop stop-color="#07A856"/>
<stop offset="0.5" stop-color="#5ED36A"/>
<stop offset="1" stop-color="#8EE5FF"/>
</linearGradient>
<linearGradient id="pf_0_7336_59429" x1="178.632" y1="13.487" x2="333.094" y2="16.623" gradientUnits="userSpaceOnUse">
<stop stop-color="#07A856"/>
<stop offset="0.5" stop-color="#5ED36A"/>
<stop offset="1" stop-color="#8EE5FF"/>
</linearGradient>
<linearGradient id="pf_0_7336_59430" x1="350.085" y1="13.487" x2="466.272" y2="16.623" gradientUnits="userSpaceOnUse">
<stop stop-color="#07A856"/>
<stop offset="0.5" stop-color="#5ED36A"/>
<stop offset="1" stop-color="#8EE5FF"/>
</linearGradient>
<linearGradient id="pf_0_7336_59431" x1="567.764" y1="65.284" x2="633.694" y2="67.874" gradientUnits="userSpaceOnUse">
<stop stop-color="#07A856"/>
<stop offset="0.5" stop-color="#5ED36A"/>
<stop offset="1" stop-color="#8EE5FF"/>
</linearGradient>
<linearGradient id="pf_0_7336_59432" x1="304.873" y1="89.647" x2="365.17" y2="93.715" gradientUnits="userSpaceOnUse">
<stop stop-color="#07A856"/>
<stop offset="0.5" stop-color="#5ED36A"/>
<stop offset="1" stop-color="#8EE5FF"/>
</linearGradient>
<linearGradient id="pf_0_7336_59433" x1="417.347" y1="44.844" x2="457.92" y2="49.877" gradientUnits="userSpaceOnUse">
<stop stop-color="#07A856"/>
<stop offset="0.5" stop-color="#5ED36A"/>
<stop offset="1" stop-color="#8EE5FF"/>
</linearGradient>
<linearGradient id="pf_0_7336_59434" x1="-39.597" y1="15.572" x2="124.145" y2="17.14" gradientUnits="userSpaceOnUse">
<stop stop-color="#07A856"/>
<stop offset="0.5" stop-color="#5ED36A"/>
<stop offset="1" stop-color="#8EE5FF"/>
</linearGradient>
<linearGradient id="pf_0_7336_59435" x1="10.879" y1="129.674" x2="88.18" y2="132.335" gradientUnits="userSpaceOnUse">
<stop stop-color="#07A856"/>
<stop offset="0.5" stop-color="#5ED36A"/>
<stop offset="1" stop-color="#8EE5FF"/>
</linearGradient>
<linearGradient id="pf_0_7336_59436" x1="24.972" y1="129.237" x2="31.405" y2="130.567" gradientUnits="userSpaceOnUse">
<stop stop-color="#07A856"/>
<stop offset="0.5" stop-color="#5ED36A"/>
<stop offset="1" stop-color="#8EE5FF"/>
</linearGradient>
<linearGradient id="pf_0_7336_59437" x1="241.371" y1="34.007" x2="247.803" y2="35.337" gradientUnits="userSpaceOnUse">
<stop stop-color="#07A856"/>
<stop offset="0.5" stop-color="#5ED36A"/>
<stop offset="1" stop-color="#8EE5FF"/>
</linearGradient>
<linearGradient id="pf_0_7336_59438" x1="420.363" y1="94.387" x2="426.795" y2="95.717" gradientUnits="userSpaceOnUse">
<stop stop-color="#07A856"/>
<stop offset="0.5" stop-color="#5ED36A"/>
<stop offset="1" stop-color="#8EE5FF"/>
</linearGradient>
<linearGradient id="pf_0_7336_59439" x1="572.246" y1="129.237" x2="578.678" y2="130.567" gradientUnits="userSpaceOnUse">
<stop stop-color="#07A856"/>
<stop offset="0.5" stop-color="#5ED36A"/>
<stop offset="1" stop-color="#8EE5FF"/>
</linearGradient>
<linearGradient id="pf_0_7336_59440" x1="726.535" y1="68.061" x2="732.967" y2="69.391" gradientUnits="userSpaceOnUse">
<stop stop-color="#07A856"/>
<stop offset="0.5" stop-color="#5ED36A"/>
<stop offset="1" stop-color="#8EE5FF"/>
</linearGradient>
<linearGradient id="pf_0_7336_59441" x1="724.301" y1="70.006" x2="783.081" y2="73.895" gradientUnits="userSpaceOnUse">
<stop stop-color="#07A856"/>
<stop offset="0.5" stop-color="#5ED36A"/>
<stop offset="1" stop-color="#8EE5FF"/>
</linearGradient>
<linearGradient id="pf_0_7336_59442" x1="758.879" y1="29.018" x2="779.455" y2="33.272" gradientUnits="userSpaceOnUse">
<stop stop-color="#07A856"/>
<stop offset="0.5" stop-color="#5ED36A"/>
<stop offset="1" stop-color="#8EE5FF"/>
</linearGradient>
<linearGradient id="pf_0_7336_59443" x1="723.075" y1="9.132" x2="771.108" y2="10.312" gradientUnits="userSpaceOnUse">
<stop stop-color="#07A856"/>
<stop offset="0.5" stop-color="#5ED36A"/>
<stop offset="1" stop-color="#8EE5FF"/>
</linearGradient>
<linearGradient id="pf_0_7336_59444" x1="688.47" y1="145.352" x2="767.516" y2="147.646" gradientUnits="userSpaceOnUse">
<stop stop-color="#07A856"/>
<stop offset="0.5" stop-color="#5ED36A"/>
<stop offset="1" stop-color="#8EE5FF"/>
</linearGradient>
<linearGradient id="pf_0_7336_59445" x1="410.731" y1="124.881" x2="436.56" y2="127.831" gradientUnits="userSpaceOnUse">
<stop stop-color="#07A856"/>
<stop offset="0.5" stop-color="#5ED36A"/>
<stop offset="1" stop-color="#8EE5FF"/>
</linearGradient>
<linearGradient id="pf_0_7336_59446" x1="210.136" y1="112.513" x2="251.976" y2="115.62" gradientUnits="userSpaceOnUse">
<stop stop-color="#22CBEE"/>
<stop offset="0.58" stop-color="#6BE3F9"/>
<stop offset="1" stop-color="#A5F0FC"/>
</linearGradient>
<linearGradient id="pf_0_7336_59447" x1="310.256" y1="101.187" x2="321.008" y2="103.409" gradientUnits="userSpaceOnUse">
<stop stop-color="#07A856"/>
<stop offset="0.5" stop-color="#5ED36A"/>
<stop offset="1" stop-color="#8EE5FF"/>
</linearGradient>
<linearGradient id="pf_0_7336_59448" x1="302.673" y1="54.772" x2="369.665" y2="56.775" gradientUnits="userSpaceOnUse">
<stop stop-color="#07A856"/>
<stop offset="0.5" stop-color="#5ED36A"/>
<stop offset="1" stop-color="#8EE5FF"/>
</linearGradient>
<linearGradient id="pf_0_7336_59449" x1="9.65" y1="95.788" x2="58.238" y2="98.026" gradientUnits="userSpaceOnUse">
<stop stop-color="#07A856"/>
<stop offset="0.5" stop-color="#5ED36A"/>
<stop offset="1" stop-color="#8EE5FF"/>
</linearGradient>
<linearGradient id="pf_0_7336_59476" x1="107.778" y1="26.289" x2="303.852" y2="28.953" gradientUnits="userSpaceOnUse">
<stop stop-color="#07A856"/>
<stop offset="0.5" stop-color="#5ED36A"/>
<stop offset="1" stop-color="#8EE5FF"/>
</linearGradient>
<linearGradient id="pf_0_7336_59477" x1="-54.939" y1="109.819" x2="155.489" y2="113.015" gradientUnits="userSpaceOnUse">
<stop stop-color="#07A856"/>
<stop offset="0.5" stop-color="#5ED36A"/>
<stop offset="1" stop-color="#8EE5FF"/>
</linearGradient>
<linearGradient id="pf_0_7336_59478" x1="467.477" y1="75.97" x2="562.19" y2="78.38" gradientUnits="userSpaceOnUse">
<stop stop-color="#07A856"/>
<stop offset="0.5" stop-color="#5ED36A"/>
<stop offset="1" stop-color="#8EE5FF"/>
</linearGradient>
<linearGradient id="pf_0_7336_59479" x1="640.397" y1="82.456" x2="785.636" y2="84.974" gradientUnits="userSpaceOnUse">
<stop stop-color="#07A856"/>
<stop offset="0.5" stop-color="#5ED36A"/>
<stop offset="1" stop-color="#8EE5FF"/>
</linearGradient>
</defs>
</svg>
