<svg width="26" height="36" viewBox="0 0 26 36" fill="none" xmlns="http://www.w3.org/2000/svg" xmlns:xlink="http://www.w3.org/1999/xlink">
<path d="M19.493,10.969C19.493,12.638 19.508,14.309 19.493,15.978C19.457,19.527 16.563,22.227 12.787,22.246C9.017,22.265 6.05,19.563 6.023,16.033C5.995,12.66 5.989,9.283 6.023,5.91C6.053,2.437 8.984,-0.232 12.72,-0.254C16.487,-0.276 19.442,2.429 19.487,5.959C19.508,7.628 19.49,9.3 19.49,10.969L19.493,10.969Z" fill="#E4E4E3"/>
<path d="M14.51,28.475L14.51,30.877C15.542,30.877 16.552,30.868 17.562,30.877C18.982,30.892 19.754,31.488 19.76,32.549C19.763,33.613 18.988,34.231 17.578,34.237C14.342,34.249 11.102,34.249 7.866,34.237C6.462,34.231 5.687,33.604 5.7,32.537C5.712,31.476 6.484,30.895 7.91,30.874C8.818,30.862 9.727,30.862 10.635,30.85C10.705,30.85 10.775,30.801 10.915,30.747L10.915,28.496C10.448,28.388 9.962,28.276 9.476,28.165C4.137,26.935 0.075,22.303 -0.202,17.093C-0.265,15.896 -0.259,14.694 -0.224,13.495C-0.195,12.476 0.494,11.795 1.418,11.762C2.371,11.729 3.124,12.449 3.168,13.51C3.216,14.634 3.127,15.767 3.241,16.882C3.787,22.137 7.85,25.443 13.443,25.244C18.356,25.07 22.19,21.095 22.269,16.083C22.285,15.146 22.247,14.206 22.304,13.272C22.361,12.34 23.016,11.816 23.927,11.786C24.842,11.756 25.56,12.247 25.642,13.169C26.071,17.931 25.252,22.297 21.167,25.612C19.255,27.161 17.038,28.038 14.504,28.472L14.51,28.475Z" fill="#E4E4E3"/>
</svg>
