<svg width="96" height="114" viewBox="0 0 96 114" fill="none" xmlns="http://www.w3.org/2000/svg" xmlns:xlink="http://www.w3.org/1999/xlink">
<path d="M39.763,92.26C21.588,92.26 6.801,77.473 6.801,59.297L0.238,59.297C0.238,77.684 12.859,93.179 29.892,97.574L29.892,105.44L16.713,105.44L16.713,112.003L62.814,112.003L62.814,105.44L49.634,105.44L49.634,97.574C66.668,93.179 79.288,77.684 79.288,59.297L72.726,59.297C72.726,77.473 57.939,92.26 39.763,92.26ZM43.072,105.44L36.455,105.44L36.455,98.682C37.546,98.773 38.649,98.822 39.763,98.822C40.878,98.822 41.981,98.773 43.072,98.682L43.072,105.44Z" fill="#FFFFFF"/>
<path d="M72.713,0C66.581,0 61.001,2.408 56.867,6.326C52.262,2.385 46.286,0 39.764,0C25.237,0 13.418,11.819 13.418,26.346L13.418,59.294C13.418,73.821 25.237,85.64 39.764,85.64C54.291,85.64 66.109,73.821 66.109,59.294L66.109,45.136C68.202,45.763 70.419,46.102 72.713,46.102C85.423,46.102 95.763,35.761 95.763,23.051C95.763,10.341 85.423,0 72.713,0ZM59.547,46.128L46.353,46.128L46.353,52.691L59.547,52.691L59.547,59.294C59.547,59.299 59.546,59.304 59.546,59.308L46.353,59.308L46.353,65.871L58.421,65.871C55.704,73.555 48.367,79.077 39.763,79.077C31.16,79.077 23.823,73.555 21.106,65.871L33.174,65.871L33.174,59.308L19.98,59.308C19.98,59.303 19.98,59.299 19.98,59.294L19.98,52.691L33.173,52.691L33.173,46.128L19.98,46.128L19.98,39.511L33.173,39.511L33.173,32.948L19.98,32.948L19.98,26.345C19.98,26.34 19.98,26.336 19.98,26.331L33.174,26.331L33.174,19.768L21.106,19.768C23.823,12.084 31.16,6.562 39.764,6.562C44.748,6.562 49.307,8.417 52.789,11.471C51.327,13.976 50.325,16.781 49.897,19.768L46.354,19.768L46.354,26.331L49.896,26.331C50.231,28.667 50.916,30.891 51.898,32.948L46.353,32.948L46.353,39.511L56.593,39.511C57.507,40.406 58.495,41.226 59.547,41.96L59.547,46.128ZM72.713,39.539C63.621,39.539 56.224,32.143 56.224,23.051C56.224,13.959 63.621,6.563 72.713,6.563C81.804,6.563 89.201,13.959 89.201,23.051C89.201,32.143 81.804,39.539 72.713,39.539Z" fill="#FFFFFF"/>
<path d="M75.994,14.82L69.432,14.82L69.432,19.77L64.482,19.77L64.482,26.332L69.432,26.332L69.432,31.281L75.994,31.281L75.994,26.332L80.943,26.332L80.943,19.77L75.994,19.77L75.994,14.82Z" fill="#FFFFFF"/>
</svg>
