<svg width="70" height="68" viewBox="0 0 70 68" fill="none" xmlns="http://www.w3.org/2000/svg" xmlns:xlink="http://www.w3.org/1999/xlink">
<path d="M59.243,8.934C52.817,2.532 44.268,-0.996 35.17,-1C26.091,-1 17.529,2.525 11.06,8.926C4.58,15.337 1.008,23.858 1,32.887L1,32.898L1,32.904C1.001,38.369 2.437,43.882 5.162,48.914L1.093,67.408L19.8,63.153C24.538,65.541 29.825,66.8 35.157,66.802L35.17,66.802C44.247,66.802 52.809,63.276 59.279,56.875C65.765,50.458 69.338,41.948 69.342,32.913C69.345,23.942 65.759,15.426 59.243,8.934ZM35.17,61.463L35.158,61.463C30.37,61.46 25.626,60.259 21.44,57.986L20.556,57.505L8.116,60.335L10.818,48.055L10.297,47.157C7.708,42.691 6.339,37.761 6.339,32.898C6.349,17.159 19.281,4.339 35.169,4.339C42.844,4.342 50.056,7.318 55.475,12.716C60.977,18.199 64.005,25.371 64.003,32.912C63.996,48.655 51.062,61.463 35.17,61.463Z" fill="#E4E4E3"/>
<path d="M25.871,17.954L24.374,17.954C23.852,17.954 23.006,18.149 22.29,18.929C21.573,19.708 19.554,21.593 19.554,25.426C19.554,29.259 22.355,32.962 22.745,33.483C23.136,34.002 28.152,42.119 36.097,45.242C42.7,47.837 44.044,47.321 45.476,47.191C46.909,47.061 50.101,45.307 50.752,43.488C51.404,41.669 51.404,40.109 51.208,39.784C51.013,39.459 50.491,39.264 49.71,38.875C48.928,38.485 45.097,36.569 44.381,36.308C43.664,36.049 43.143,35.919 42.622,36.699C42.1,37.478 40.566,39.28 40.109,39.799C39.654,40.32 39.197,40.385 38.416,39.995C37.634,39.604 35.142,38.767 32.156,36.114C29.832,34.048 28.22,31.415 27.763,30.635C27.308,29.856 27.715,29.434 28.107,29.045C28.458,28.697 28.932,28.22 29.323,27.765C29.714,27.31 29.825,26.985 30.086,26.465C30.346,25.946 30.216,25.491 30.021,25.101C29.825,24.711 28.325,20.859 27.63,19.318L27.63,19.318C27.045,18.021 26.428,17.977 25.871,17.954Z" fill="#E4E4E3"/>
</svg>
