<svg width="26" height="34" viewBox="0 0 26 34" fill="none" xmlns="http://www.w3.org/2000/svg" xmlns:xlink="http://www.w3.org/1999/xlink">
<path d="M19.493,10.723C19.493,12.392 19.508,14.063 19.493,15.732C19.457,19.281 16.563,21.981 12.787,22C9.017,22.019 6.05,19.317 6.023,15.787C5.995,12.414 5.989,9.037 6.023,5.664C6.053,2.191 8.984,-0.478 12.72,-0.5C16.487,-0.522 19.442,2.183 19.487,5.713C19.508,7.382 19.49,9.054 19.49,10.723L19.493,10.723Z" fill="#E4E4E3"/>
<path d="M14.511,28.229L14.511,30.631C15.543,30.631 16.553,30.622 17.563,30.631C18.983,30.646 19.755,31.242 19.761,32.303C19.764,33.367 18.989,33.985 17.579,33.991C14.343,34.003 11.103,34.003 7.867,33.991C6.463,33.985 5.688,33.358 5.7,32.291C5.713,31.23 6.485,30.649 7.911,30.628C8.819,30.616 9.728,30.616 10.636,30.604C10.706,30.604 10.776,30.555 10.916,30.501L10.916,28.25C10.449,28.142 9.963,28.03 9.477,27.919C4.138,26.689 0.076,22.057 -0.201,16.847C-0.264,15.65 -0.258,14.448 -0.223,13.249C-0.194,12.23 0.495,11.549 1.419,11.516C2.372,11.483 3.125,12.203 3.169,13.264C3.217,14.388 3.128,15.521 3.242,16.636C3.788,21.891 7.851,25.197 13.444,24.998C18.357,24.824 22.191,20.849 22.27,15.837C22.286,14.9 22.248,13.96 22.305,13.026C22.362,12.094 23.017,11.57 23.928,11.54C24.843,11.51 25.561,12.001 25.643,12.923C26.072,17.685 25.253,22.051 21.168,25.366C19.256,26.915 17.039,27.792 14.505,28.226L14.511,28.229Z" fill="#E4E4E3"/>
</svg>
