<svg width="44" height="46" viewBox="0 0 44 46" fill="none" xmlns="http://www.w3.org/2000/svg" xmlns:xlink="http://www.w3.org/1999/xlink">
<path d="M20.154,15.073L1.747,15.073C0.229,15.073 -1,16.335 -1,17.893L-1,37.251C-1,38.81 0.229,40.071 1.747,40.071L3.67,40.071C3.844,40.071 4.003,40.205 4.046,40.383L4.639,42.847C4.885,43.842 5.622,44.614 6.577,44.881C6.823,44.955 7.083,44.985 7.329,45C8.052,45 8.746,44.703 9.266,44.169L13.127,40.205C13.127,40.205 13.3,40.101 13.402,40.086L30.044,40.086C31.563,40.086 32.792,38.825 32.792,37.266L32.792,24.959C26.777,24.959 21.701,20.773 20.169,15.088L20.154,15.073ZM6.533,30.244C5.102,30.244 3.931,29.057 3.931,27.572C3.931,26.088 5.087,24.9 6.533,24.9C7.979,24.9 9.136,26.103 9.136,27.572C9.136,29.042 7.979,30.244 6.533,30.244ZM15.889,30.244C14.457,30.244 13.286,29.057 13.286,27.572C13.286,26.088 14.443,24.9 15.889,24.9C17.335,24.9 18.491,26.103 18.491,27.572C18.491,29.042 17.335,30.244 15.889,30.244ZM25.244,30.244C23.812,30.244 22.641,29.057 22.641,27.572C22.641,26.088 23.798,24.9 25.244,24.9C26.69,24.9 27.847,26.103 27.847,27.572C27.847,29.042 26.69,30.244 25.244,30.244Z" fill="#FFFFFF"/>
<path d="M43,11.495C43,5.706 38.417,1 32.778,1C27.138,1 22.555,5.706 22.555,11.495C22.555,12.757 22.786,13.96 23.176,15.073L30.016,15.073C31.534,15.073 32.763,16.335 32.763,17.893L32.763,21.976C38.402,21.976 42.986,17.27 42.986,11.48L43,11.495Z" fill="#62C4E0"/>
</svg>
