<svg width="44" height="44" viewBox="0 0 44 44" fill="none" xmlns="http://www.w3.org/2000/svg" xmlns:xlink="http://www.w3.org/1999/xlink">
<path d="M20.154,13.073L1.747,13.073C0.229,13.073 -1,14.335 -1,15.894L-1,35.251C-1,36.81 0.229,38.072 1.747,38.072L3.67,38.072C3.844,38.072 4.003,38.205 4.046,38.384L4.639,40.848C4.885,41.842 5.622,42.614 6.577,42.882C6.823,42.956 7.083,42.986 7.329,43C8.052,43 8.746,42.703 9.266,42.169L13.127,38.205C13.127,38.205 13.3,38.102 13.402,38.087L30.044,38.087C31.563,38.087 32.792,36.825 32.792,35.266L32.792,22.96C26.777,22.96 21.701,18.774 20.169,13.088L20.154,13.073ZM6.533,28.245C5.102,28.245 3.931,27.057 3.931,25.573C3.931,24.088 5.087,22.901 6.533,22.901C7.979,22.901 9.136,24.103 9.136,25.573C9.136,27.042 7.979,28.245 6.533,28.245ZM15.889,28.245C14.457,28.245 13.286,27.057 13.286,25.573C13.286,24.088 14.443,22.901 15.889,22.901C17.335,22.901 18.491,24.103 18.491,25.573C18.491,27.042 17.335,28.245 15.889,28.245ZM25.244,28.245C23.812,28.245 22.641,27.057 22.641,25.573C22.641,24.088 23.798,22.901 25.244,22.901C26.69,22.901 27.847,24.103 27.847,25.573C27.847,27.042 26.69,28.245 25.244,28.245Z" fill="#FFFFFF"/>
<path d="M43,9.495C43,3.706 38.417,-1 32.778,-1C27.138,-1 22.555,3.706 22.555,9.495C22.555,10.757 22.786,11.96 23.176,13.073L30.016,13.073C31.534,13.073 32.763,14.335 32.763,15.893L32.763,19.976C38.402,19.976 42.986,15.27 42.986,9.48L43,9.495Z" fill="#62C4E0"/>
</svg>
