<svg width="112" height="112" viewBox="0 0 112 112" fill="none" xmlns="http://www.w3.org/2000/svg" xmlns:xlink="http://www.w3.org/1999/xlink">
<path d="M20,102.25L12.125,102.25C9.713,102.25 7.75,100.287 7.75,97.875L7.75,71.625C7.75,69.209 5.791,67.25 3.375,67.25C0.959,67.25 -1,69.209 -1,71.625L-1,97.875C-1,105.112 4.888,111 12.125,111L20,111C22.416,111 24.375,109.041 24.375,106.625C24.375,104.209 22.416,102.25 20,102.25Z" fill="#292927"/>
<path d="M37.5,67.25C35.084,67.25 33.125,69.209 33.125,71.625L33.125,106.625C33.125,109.041 35.084,111 37.5,111C39.916,111 41.875,109.041 41.875,106.625L41.875,71.625C41.875,69.209 39.916,67.25 37.5,67.25Z" fill="#292927"/>
<path d="M78.412,67.528C76.15,66.679 73.628,67.826 72.78,70.088L63.751,94.164L54.723,70.088C53.874,67.826 51.352,66.68 49.09,67.528C46.828,68.376 45.681,70.898 46.53,73.161L59.655,108.161C60.295,109.868 61.927,110.999 63.751,110.999C65.575,110.999 67.207,109.868 67.848,108.16L80.973,73.16C81.821,70.898 80.675,68.376 78.412,67.528Z" fill="#292927"/>
<path d="M106.625,93.5C109.041,93.5 111,91.541 111,89.125C111,86.709 109.041,84.75 106.625,84.75L94.375,84.75L94.375,80.375C94.375,77.963 96.338,76 98.75,76L106.625,76C109.041,76 111,74.041 111,71.625C111,69.209 109.041,67.25 106.625,67.25L98.75,67.25C91.513,67.25 85.625,73.138 85.625,80.375L85.625,97.875C85.625,105.112 91.513,111 98.75,111L106.625,111C109.041,111 111,109.041 111,106.625C111,104.209 109.041,102.25 106.625,102.25L98.75,102.25C96.338,102.25 94.375,100.287 94.375,97.875L94.375,93.5L106.625,93.5Z" fill="#292927"/>
<path d="M12.125,58.5L54.125,58.5C61.362,58.5 67.25,52.612 67.25,45.375L67.25,12.125C67.25,4.888 61.362,-1 54.125,-1L12.125,-1C4.888,-1 -1,4.888 -1,12.125L-1,45.375C-1,52.612 4.888,58.5 12.125,58.5ZM7.75,12.125C7.75,9.713 9.713,7.75 12.125,7.75L54.125,7.75C56.537,7.75 58.5,9.713 58.5,12.125L58.5,45.375C58.5,47.787 56.537,49.75 54.125,49.75L12.125,49.75C9.713,49.75 7.75,47.787 7.75,45.375L7.75,12.125Z" fill="#292927"/>
<circle cx="20.875" cy="20.875" r="4.375" fill="#292927"/>
</svg>
