<svg width="44" height="44" viewBox="0 0 44 44" fill="none" xmlns="http://www.w3.org/2000/svg" xmlns:xlink="http://www.w3.org/1999/xlink">
<path d="M20.154,13.073L1.747,13.073C0.229,13.073 -1,14.335 -1,15.893L-1,35.251C-1,36.81 0.229,38.071 1.747,38.071L3.67,38.071C3.844,38.071 4.003,38.205 4.046,38.383L4.639,40.847C4.885,41.842 5.622,42.614 6.577,42.881C6.823,42.955 7.083,42.985 7.329,43C8.052,43 8.746,42.703 9.266,42.169L13.127,38.205C13.127,38.205 13.3,38.101 13.402,38.086L30.044,38.086C31.563,38.086 32.792,36.825 32.792,35.266L32.792,22.959C26.777,22.959 21.701,18.773 20.169,13.088L20.154,13.073ZM6.533,28.244C5.102,28.244 3.931,27.057 3.931,25.572C3.931,24.088 5.087,22.9 6.533,22.9C7.979,22.9 9.136,24.102 9.136,25.572C9.136,27.042 7.979,28.244 6.533,28.244ZM15.889,28.244C14.457,28.244 13.286,27.057 13.286,25.572C13.286,24.088 14.443,22.9 15.889,22.9C17.335,22.9 18.491,24.102 18.491,25.572C18.491,27.042 17.335,28.244 15.889,28.244ZM25.244,28.244C23.812,28.244 22.641,27.057 22.641,25.572C22.641,24.088 23.798,22.9 25.244,22.9C26.69,22.9 27.847,24.102 27.847,25.572C27.847,27.042 26.69,28.244 25.244,28.244Z" fill="#FFFFFF"/>
<path d="M43,9.495C43,3.706 38.417,-1 32.778,-1C27.138,-1 22.555,3.706 22.555,9.495C22.555,10.757 22.786,11.96 23.176,13.073L30.016,13.073C31.534,13.073 32.763,14.335 32.763,15.893L32.763,19.976C38.402,19.976 42.986,15.27 42.986,9.48L43,9.495Z" fill="#62C4E0"/>
</svg>
