<svg width="70" height="84" viewBox="0 0 70 84" fill="none" xmlns="http://www.w3.org/2000/svg" xmlns:xlink="http://www.w3.org/1999/xlink">
<g filter="url(#filterI9507_76245;7401_7882)">
<path d="M52.538,0L6.529,0C2.923,0 0,2.923 0,6.529L0,75.782C0,79.388 2.923,82.311 6.529,82.311L63.329,82.311C66.935,82.311 69.858,79.388 69.858,75.782L69.858,17.037L52.538,0Z" clip-rule="evenodd" fill-rule="evenodd" transform="rotate(0 34.929 41.156)" fill="#FFFFFF"/>
</g>
<path d="M69.998,17.173L52.555,0.016L52.555,15.214C52.555,16.296 53.432,17.173 54.513,17.173L69.998,17.173Z" clip-rule="evenodd" fill-rule="evenodd" transform="rotate(0 61.277 8.594)" fill="#C9C9C6"/>
<path d="M23.075,41.013C26.261,41.013 28.845,38.429 28.845,35.243C28.845,32.056 26.261,29.473 23.075,29.473C19.888,29.473 17.305,32.056 17.305,35.243C17.305,38.429 19.888,41.013 23.075,41.013Z" transform="rotate(0 23.075 35.243)" fill="#1D1D1B"/>
<path d="M47.114,41.017C50.301,41.017 52.884,38.433 52.884,35.247C52.884,32.06 50.301,29.477 47.114,29.477C43.927,29.477 41.344,32.06 41.344,35.247C41.344,38.433 43.927,41.017 47.114,41.017Z" transform="rotate(0 47.114 35.247)" fill="#1D1D1B"/>
<path d="M35.093,62.21C41.854,62.21 47.335,56.729 47.335,49.968C47.335,43.207 41.854,37.727 35.093,37.727C28.332,37.727 22.852,43.207 22.852,49.968C22.852,56.729 28.332,62.21 35.093,62.21Z" transform="rotate(0 35.093 49.968)" fill="#1D1D1B"/>
<rect  x="15.992" y="37.723" width="40.805" height="10.446" transform="rotate(0 15.992 37.723)" fill="#FFFFFF"/>
<defs>
<filter id="filterI9507_76245;7401_7882" x="-6.125001" y="-6.125001" width="47.17911" height="53.405622" filterUnits="userSpaceOnUse" color-interpolation-filters="sRGB">
<feFlood flood-opacity="0" result="BackgroundImageFix"/>
<feColorMatrix in="SourceAlpha" type="matrix" values="0 0 0 0 0 0 0 0 0 0 0 0 0 0 0 0 0 0 127 0" result="hardAlpha"/>
<feMorphology radius="0" operator="dilate" in="SourceAlpha" result="0dropshadow"/>
<feOffset dx="0" dy="3.5"/>
<feGaussianBlur stdDeviation="3.0625"/>
<feComposite in2="hardAlpha" operator="out"/>
<feColorMatrix type="matrix" values="0 0 0 0 0 0 0 0 0 0 0 0 0 0 0 0 0 0 0.16 0"/>
<feBlend mode="normal" in2="BackgroundImageFix" result="0dropshadow"/>
<feBlend mode="normal" in="SourceGraphic" in2="0dropshadow" result="shape"/>
</filter>
</defs>
</svg>
