<svg width="180" height="180" viewBox="0 0 180 180" fill="none" xmlns="http://www.w3.org/2000/svg" xmlns:xlink="http://www.w3.org/1999/xlink">
<path d="M92.111,73.824C94.052,73.824 95.626,72.25 95.626,70.309C95.626,68.367 94.052,66.793 92.111,66.793L92.108,66.793C90.167,66.793 88.594,68.367 88.594,70.309C88.594,72.25 90.169,73.824 92.111,73.824Z" fill="#696963"/>
<path d="M109.689,73.824C111.631,73.824 113.205,72.25 113.205,70.309C113.205,68.367 111.631,66.793 109.689,66.793L109.686,66.793C107.745,66.793 106.172,68.367 106.172,70.309C106.172,72.25 107.747,73.824 109.689,73.824Z" fill="#696963"/>
<path d="M127.267,73.824C129.209,73.824 130.783,72.25 130.783,70.309C130.783,68.367 129.209,66.793 127.267,66.793L127.265,66.793C125.323,66.793 123.75,68.367 123.75,70.309C123.75,72.25 125.325,73.824 127.267,73.824Z" fill="#696963"/>
<path d="M171.571,110.799C171.167,109.386 170.551,108.062 169.76,106.864C176.466,95.867 180,83.28 180,70.31C180,31.541 148.459,0 109.69,0C91.205,0 74.363,7.171 61.8,18.876C59.153,16.346 55.589,14.869 51.846,14.869C51.417,14.869 50.988,14.888 50.562,14.926C46.736,10.037 40.789,7.084 34.517,7.084C24.47,7.084 16.102,14.405 14.466,23.992C8.551,24.693 3.949,29.738 3.949,35.838C3.949,42.415 9.275,47.766 15.822,47.766L43.087,47.766C40.684,54.845 39.381,62.428 39.381,70.31C39.381,84.669 43.707,98.037 51.126,109.177L4.528,153.834C4.51,153.851 4.492,153.868 4.474,153.886C-1.491,159.852 -1.491,169.559 4.474,175.525C7.457,178.508 11.376,180 15.294,180C19.212,180 23.131,178.508 26.114,175.525C26.131,175.508 26.149,175.49 26.166,175.472L70.821,128.873C81.962,136.291 95.33,140.619 109.69,140.619C120.72,140.619 131.268,138.14 141.055,133.251L168.575,133.251C174.874,133.251 180,128.125 180,121.825C180,116.562 176.422,112.119 171.571,110.799ZM15.822,40.734C13.198,40.734 10.98,38.492 10.98,35.837C10.98,33.137 13.177,30.94 15.878,30.94L17.692,30.94C19.633,30.94 21.207,29.366 21.207,27.425C21.207,20.086 27.178,14.115 34.517,14.115C39.235,14.115 43.504,16.533 45.937,20.585C46.75,21.938 48.364,22.583 49.886,22.163C50.521,21.988 51.18,21.899 51.846,21.899C53.743,21.899 55.551,22.643 56.901,23.917C52.48,28.941 48.764,34.599 45.907,40.735L15.822,40.734ZM21.118,170.578C17.892,173.779 12.663,173.771 9.446,170.554C6.23,167.338 6.222,162.109 9.422,158.882L41.274,128.357L51.642,138.725L21.118,170.578ZM56.507,133.647L46.351,123.491L55.345,114.871C58.278,118.442 61.556,121.719 65.126,124.653L56.507,133.647ZM46.412,70.309C46.412,35.417 74.799,7.031 109.691,7.031C144.582,7.031 172.969,35.417 172.969,70.309C172.969,81.525 170.035,92.421 164.454,102.033C162.441,100.96 160.151,100.354 157.739,100.354C157.574,100.354 157.41,100.356 157.246,100.362C162.942,91.376 165.938,81.048 165.938,70.31C165.938,39.295 140.706,14.062 109.691,14.062C100.576,14.062 91.518,16.297 83.497,20.526C81.779,21.431 81.121,23.558 82.026,25.275C82.931,26.993 85.058,27.651 86.776,26.746C93.79,23.047 101.714,21.093 109.69,21.093C136.828,21.093 158.907,43.171 158.907,70.309C158.907,79.466 156.418,88.28 151.681,95.997C148.383,93.804 144.465,92.57 140.41,92.57C130.363,92.57 121.994,99.89 120.359,109.478C115.036,110.108 110.777,114.256 109.977,119.526C109.886,119.526 109.79,119.526 109.691,119.526C82.552,119.526 60.474,97.447 60.474,70.309C60.474,62.332 62.428,54.408 66.125,47.396C67.031,45.678 66.373,43.552 64.655,42.647C62.938,41.741 60.811,42.4 59.906,44.117C55.678,52.136 53.443,61.194 53.443,70.309C53.443,101.324 78.675,126.557 109.69,126.557C110.209,126.557 110.639,126.556 111.044,126.549C112.583,129.708 115.471,132.087 118.95,132.924C115.913,133.366 112.823,133.588 109.691,133.588C74.798,133.588 46.412,105.201 46.412,70.309ZM168.575,126.22L121.715,126.22C119.09,126.22 116.873,123.977 116.873,121.323C116.873,118.623 119.07,116.426 121.77,116.426L123.584,116.426C125.526,116.426 127.1,114.852 127.1,112.91C127.1,105.571 133.071,99.601 140.41,99.601C145.128,99.601 149.397,102.019 151.83,106.07C152.642,107.423 154.257,108.069 155.778,107.649C156.414,107.473 157.073,107.385 157.739,107.385C161.565,107.385 164.784,110.368 165.069,114.177C165.206,116.012 166.735,117.431 168.575,117.431C170.998,117.431 172.969,119.402 172.969,121.825C172.969,124.249 170.998,126.22 168.575,126.22Z" fill="#696963"/>
<path d="M72.407,36.537C74.349,36.537 75.923,34.963 75.923,33.021C75.923,31.08 74.349,29.506 72.407,29.506L72.405,29.506C70.463,29.506 68.891,31.08 68.891,33.021C68.891,34.963 70.466,36.537 72.407,36.537Z" fill="#696963"/>
</svg>
