<svg width="48" height="48" viewBox="0 0 48 48" fill="none" xmlns="http://www.w3.org/2000/svg" xmlns:xlink="http://www.w3.org/1999/xlink">
<path d="M20.052,8.809C32.308,8.635 41.701,20.728 38.623,32.548C39.008,32.35 39.385,32.138 39.753,31.912C41.596,32.407 43.44,32.901 45.283,33.395C46.267,33.673 47.21,32.773 46.94,31.761C46.444,29.91 45.948,28.062 45.452,26.213C52.485,15.006 44.097,-0.128 30.765,0.009C24.087,0.009 18.297,3.81 15.441,9.368C16.918,9.002 18.462,8.809 20.052,8.809Z" clip-rule="evenodd" fill-rule="evenodd" fill="#A4FBC4"/>
<path d="M27.176,19.611L9.211,26.143C8.873,26.266 8.636,26.57 8.599,26.928C8.562,27.285 8.732,27.631 9.037,27.821L15.905,32.084L20.168,38.952C20.357,39.257 20.708,39.428 21.061,39.39C21.418,39.353 21.723,39.115 21.846,38.778L28.378,20.812C28.502,20.47 28.417,20.087 28.16,19.829C27.902,19.572 27.519,19.487 27.176,19.611ZM20.743,36.323L17.774,31.541L19.948,29.367C20.314,29.001 20.314,28.407 19.948,28.041C19.581,27.675 18.988,27.675 18.622,28.041L16.448,30.215L11.665,27.246L25.929,22.059L20.743,36.323Z" fill="#020288"/>
<path d="M34.243,13.745C26.773,5.96 13.332,5.96 5.863,13.745C-0.548,19.963 -1.866,30.424 2.725,38.061C2.208,39.988 1.691,41.914 1.174,43.844C0.947,44.696 1.187,45.574 1.815,46.193C2.434,46.803 3.336,47.038 4.169,46.805C6.088,46.291 8.006,45.776 9.925,45.262C17.564,49.853 28.023,48.536 34.243,42.124C42.027,34.655 42.028,21.214 34.243,13.745ZM20.053,46.127C16.691,46.127 13.407,45.203 10.556,43.454C10.336,43.319 10.07,43.281 9.823,43.348L9.463,43.444C7.535,43.962 5.607,44.479 3.678,44.996C3.674,44.997 3.67,44.998 3.666,44.999C3.391,45.076 3.2,44.926 3.131,44.857C3.046,44.774 2.915,44.594 2.986,44.328C3.537,42.272 4.088,40.218 4.639,38.164C4.706,37.915 4.667,37.65 4.533,37.43C-2.925,25.601 6.05,9.563 20.053,9.742C44.153,10.656 44.149,45.216 20.053,46.127Z" fill="#020288"/>
</svg>
