<svg width="90" height="112" viewBox="0 0 90 112" fill="none" xmlns="http://www.w3.org/2000/svg" xmlns:xlink="http://www.w3.org/1999/xlink">
<path d="M62.712,43.577C61.807,19.788 27.706,19.806 26.81,43.577L26.81,56.492L13.684,56.492L13.684,66.363C13.684,80.026 22.547,91.659 34.827,95.812L34.827,105.438L26.789,105.438L26.789,112.001L62.732,112.001L62.732,105.438L54.515,105.438L54.515,95.872C66.888,91.772 75.838,80.093 75.838,66.363L75.838,56.492L62.712,56.492L62.712,43.577L62.712,43.577ZM69.275,63.055L69.275,66.363C68.039,98.848 21.47,98.824 20.246,66.363L20.246,63.055L26.809,63.055L26.809,66.361C27.715,90.149 61.815,90.131 62.712,66.361L62.712,63.055L69.275,63.055Z" fill="#FFFFFF"/>
<path d="M41.402,6.563L41.402,0C18.726,0 0.277,18.449 0.277,41.125L6.84,41.125C6.84,22.067 22.345,6.563 41.402,6.563Z" fill="#FFFFFF"/>
<path d="M41.402,19.539L41.402,12.977C25.882,12.977 13.256,25.603 13.256,41.123L19.818,41.123C19.818,29.221 29.501,19.539 41.402,19.539Z" fill="#FFFFFF"/>
<path d="M48.098,0L48.098,6.563C67.155,6.563 82.66,22.067 82.66,41.125L89.223,41.125C89.223,18.449 70.774,0 48.098,0Z" fill="#FFFFFF"/>
<path d="M48.098,12.977L48.098,19.539C59.999,19.539 69.681,29.221 69.681,41.123L76.244,41.123C76.244,25.603 63.617,12.977 48.098,12.977Z" fill="#FFFFFF"/>
</svg>
