<svg width="70" height="100" viewBox="0 0 70 100" fill="none" xmlns="http://www.w3.org/2000/svg" xmlns:xlink="http://www.w3.org/1999/xlink">
<path d="M26.355,98.382L41.869,98.382C44.011,98.382 45.747,96.645 45.747,94.503C45.747,92.361 44.011,90.625 41.869,90.625L26.355,90.625C24.213,90.625 22.477,92.361 22.477,94.503C22.477,96.645 24.213,98.382 26.355,98.382Z" fill="#1D1D1B"/>
<path d="M34.109,-0.906C31.967,-0.906 30.231,0.83 30.231,2.972L30.231,7.129C17.091,9.017 6.96,20.346 6.96,34L6.96,57.843C6.96,59.21 6.344,60.454 5.428,60.938C1.588,62.965 -0.797,66.91 -0.797,71.232C-0.797,77.648 4.423,82.868 10.838,82.868L57.38,82.868C63.795,82.868 69.015,77.648 69.015,71.232C69.015,66.91 66.63,62.965 62.79,60.938C61.873,60.454 61.258,59.21 61.258,57.843L61.258,34C61.258,20.346 51.127,9.017 37.987,7.129L37.987,2.972C37.987,0.83 36.251,-0.906 34.109,-0.906ZM53.501,34L53.501,57.843C53.501,62.137 55.672,65.951 59.168,67.797C60.457,68.477 61.258,69.794 61.258,71.232C61.258,73.371 59.518,75.111 57.38,75.111L10.838,75.111C8.7,75.111 6.96,73.371 6.96,71.232C6.96,69.794 7.761,68.477 9.05,67.797C12.545,65.951 14.717,62.137 14.717,57.843L14.717,34C14.717,23.307 23.416,14.607 34.109,14.607C44.802,14.607 53.501,23.307 53.501,34Z" fill="#1D1D1B"/>
</svg>
