<svg width="44" height="44" viewBox="0 0 44 44" fill="none" xmlns="http://www.w3.org/2000/svg" xmlns:xlink="http://www.w3.org/1999/xlink">
<path d="M20.154,13.074L1.747,13.074C0.229,13.074 -1,14.336 -1,15.895L-1,35.252C-1,36.811 0.229,38.073 1.747,38.073L3.67,38.073C3.844,38.073 4.003,38.206 4.046,38.385L4.639,40.849C4.885,41.843 5.622,42.615 6.577,42.883C6.823,42.957 7.083,42.987 7.329,43.001C8.052,43.001 8.746,42.704 9.266,42.17L13.127,38.206C13.127,38.206 13.3,38.103 13.402,38.088L30.044,38.088C31.563,38.088 32.792,36.826 32.792,35.267L32.792,22.961C26.777,22.961 21.701,18.775 20.169,13.089L20.154,13.074ZM6.533,28.246C5.102,28.246 3.931,27.058 3.931,25.574C3.931,24.089 5.087,22.901 6.533,22.901C7.979,22.901 9.136,24.104 9.136,25.574C9.136,27.043 7.979,28.246 6.533,28.246ZM15.889,28.246C14.457,28.246 13.286,27.058 13.286,25.574C13.286,24.089 14.443,22.901 15.889,22.901C17.335,22.901 18.491,24.104 18.491,25.574C18.491,27.043 17.335,28.246 15.889,28.246ZM25.244,28.246C23.812,28.246 22.641,27.058 22.641,25.574C22.641,24.089 23.798,22.901 25.244,22.901C26.69,22.901 27.847,24.104 27.847,25.574C27.847,27.043 26.69,28.246 25.244,28.246Z" fill="#FFFFFF"/>
<path d="M43,9.495C43,3.706 38.417,-1 32.778,-1C27.138,-1 22.555,3.706 22.555,9.495C22.555,10.757 22.786,11.96 23.176,13.073L30.016,13.073C31.534,13.073 32.763,14.335 32.763,15.893L32.763,19.976C38.402,19.976 42.986,15.27 42.986,9.48L43,9.495Z" fill="#62C4E0"/>
</svg>
