<svg width="114" height="112" viewBox="0 0 114 112" fill="none" xmlns="http://www.w3.org/2000/svg" xmlns:xlink="http://www.w3.org/1999/xlink">
<path d="M22,102.25L14.125,102.25C11.712,102.25 9.75,100.287 9.75,97.875L9.75,71.625C9.75,69.209 7.791,67.25 5.375,67.25C2.959,67.25 1,69.209 1,71.625L1,97.875C1,105.112 6.888,111 14.125,111L22,111C24.416,111 26.375,109.041 26.375,106.625C26.375,104.209 24.416,102.25 22,102.25Z" fill="#292927"/>
<path d="M39.5,67.25C37.084,67.25 35.125,69.209 35.125,71.625L35.125,106.625C35.125,109.041 37.084,111 39.5,111C41.916,111 43.875,109.041 43.875,106.625L43.875,71.625C43.875,69.209 41.916,67.25 39.5,67.25Z" fill="#292927"/>
<path d="M80.411,67.528C78.149,66.679 75.627,67.826 74.779,70.088L65.75,94.164L56.722,70.088C55.873,67.826 53.351,66.68 51.089,67.528C48.827,68.376 47.68,70.898 48.529,73.161L61.654,108.161C62.294,109.868 63.926,110.999 65.75,110.999C67.574,110.999 69.206,109.868 69.847,108.16L82.972,73.16C83.82,70.898 82.674,68.376 80.411,67.528Z" fill="#292927"/>
<path d="M108.625,93.5C111.041,93.5 113,91.541 113,89.125C113,86.709 111.041,84.75 108.625,84.75L96.375,84.75L96.375,80.375C96.375,77.963 98.337,76 100.75,76L108.625,76C111.041,76 113,74.041 113,71.625C113,69.209 111.041,67.25 108.625,67.25L100.75,67.25C93.513,67.25 87.625,73.138 87.625,80.375L87.625,97.875C87.625,105.112 93.513,111 100.75,111L108.625,111C111.041,111 113,109.041 113,106.625C113,104.209 111.041,102.25 108.625,102.25L100.75,102.25C98.337,102.25 96.375,100.287 96.375,97.875L96.375,93.5L108.625,93.5Z" fill="#292927"/>
<path d="M14.125,58.5L56.125,58.5C63.362,58.5 69.25,52.612 69.25,45.375L69.25,12.125C69.25,4.888 63.362,-1 56.125,-1L14.125,-1C6.888,-1 1,4.888 1,12.125L1,45.375C1,52.612 6.888,58.5 14.125,58.5ZM9.75,12.125C9.75,9.713 11.712,7.75 14.125,7.75L56.125,7.75C58.537,7.75 60.5,9.713 60.5,12.125L60.5,45.375C60.5,47.787 58.537,49.75 56.125,49.75L14.125,49.75C11.712,49.75 9.75,47.787 9.75,45.375L9.75,12.125Z" fill="#292927"/>
<circle cx="22.875" cy="20.875" r="4.375" fill="#292927"/>
</svg>
