<svg width="26" height="34" viewBox="0 0 26 34" fill="none" xmlns="http://www.w3.org/2000/svg" xmlns:xlink="http://www.w3.org/1999/xlink">
<path d="M19.493,10.723C19.493,12.392 19.508,14.063 19.493,15.732C19.457,19.281 16.563,21.981 12.787,22C9.017,22.019 6.05,19.317 6.023,15.787C5.995,12.414 5.989,9.037 6.023,5.664C6.053,2.191 8.984,-0.478 12.72,-0.5C16.487,-0.522 19.442,2.183 19.487,5.713C19.508,7.382 19.49,9.054 19.49,10.723L19.493,10.723Z" fill="#E4E4E3"/>
<path d="M14.51,28.229L14.51,30.631C15.542,30.631 16.552,30.622 17.562,30.631C18.982,30.646 19.754,31.242 19.76,32.303C19.763,33.367 18.988,33.985 17.578,33.991C14.342,34.003 11.102,34.003 7.866,33.991C6.462,33.985 5.687,33.358 5.7,32.291C5.712,31.23 6.484,30.649 7.91,30.628C8.818,30.616 9.727,30.616 10.635,30.604C10.705,30.604 10.775,30.555 10.915,30.501L10.915,28.25C10.448,28.142 9.962,28.03 9.476,27.919C4.137,26.689 0.075,22.057 -0.202,16.847C-0.265,15.65 -0.259,14.448 -0.224,13.249C-0.195,12.23 0.494,11.549 1.418,11.516C2.371,11.483 3.124,12.203 3.168,13.264C3.216,14.388 3.127,15.521 3.241,16.636C3.787,21.891 7.85,25.197 13.443,24.998C18.356,24.824 22.19,20.849 22.269,15.837C22.285,14.9 22.247,13.96 22.304,13.026C22.361,12.094 23.016,11.57 23.927,11.54C24.842,11.51 25.56,12.001 25.642,12.923C26.071,17.685 25.252,22.051 21.167,25.366C19.255,26.915 17.038,27.792 14.504,28.226L14.51,28.229Z" fill="#E4E4E3"/>
</svg>
