<svg width="98" height="112" viewBox="0 0 98 112" fill="none" xmlns="http://www.w3.org/2000/svg" xmlns:xlink="http://www.w3.org/1999/xlink">
<path d="M38.381,87.277C36.571,86.334 34.546,85.75 32.367,85.75C25.129,85.75 19.242,91.636 19.242,98.875C19.242,106.114 25.129,112 32.367,112C39.606,112 45.492,106.114 45.492,98.875C45.492,96.226 44.69,93.767 43.336,91.702L48.768,83.104L54.209,91.708C52.856,93.771 52.055,96.228 52.055,98.875C52.055,106.114 57.941,112 65.18,112C72.418,112 78.305,106.114 78.305,98.875C78.305,91.636 72.418,85.75 65.18,85.75C63.002,85.75 60.977,86.334 59.167,87.276L52.648,76.964L59.536,66.062L51.792,66.062L48.774,70.837L45.756,66.062L51.792,66.062L63.277,47.665L68.789,51.209L59.536,66.062L78.305,66.06L78.305,0L19.242,0L19.242,66.062L37.993,66.062L44.893,76.976L38.381,87.277ZM32.367,105.438C28.75,105.438 25.805,102.493 25.805,98.875C25.805,95.257 28.75,92.312 32.367,92.312C35.985,92.312 38.93,95.257 38.93,98.875C38.93,102.493 35.985,105.438 32.367,105.438ZM71.742,98.875C71.742,102.493 68.797,105.438 65.18,105.438C61.562,105.438 58.617,102.493 58.617,98.875C58.617,95.257 61.562,92.312 65.18,92.312C68.797,92.312 71.742,95.257 71.742,98.875ZM35.648,17.872L65.967,33.031L35.648,48.191L35.648,17.872Z" fill="#FFFFFF"/>
<rect  x="84.867" y="24.281" width="13.125" height="17.5" fill="#FFFFFF"/>
<rect  x="84.867" y="0" width="13.125" height="17.719" fill="#FFFFFF"/>
<path d="M42.211,28.5L42.211,37.568L51.279,33.034L42.211,28.5Z" fill="#FFFFFF"/>
<rect  x="-0.445" y="24.281" width="13.125" height="17.5" fill="#FFFFFF"/>
<rect  x="-0.445" y="0" width="13.125" height="17.719" fill="#FFFFFF"/>
<rect  x="-0.445" y="48.344" width="13.125" height="17.719" fill="#FFFFFF"/>
<rect  x="84.867" y="48.344" width="13.125" height="17.719" fill="#FFFFFF"/>
</svg>
