<svg width="48" height="48" viewBox="0 0 48 48" fill="none" xmlns="http://www.w3.org/2000/svg" xmlns:xlink="http://www.w3.org/1999/xlink">
<path d="M15.724,32.934L17.222,32.934L16.473,30.463L15.724,32.934Z" fill="#E4E4E3"/>
<path d="M18.084,26.086L20.959,35.564C21.184,36.307 20.764,37.093 20.021,37.318C19.885,37.359 19.748,37.379 19.612,37.379C19.009,37.379 18.451,36.987 18.267,36.38L18.075,35.747L14.871,35.747L14.678,36.38C14.453,37.124 13.668,37.544 12.925,37.318C12.181,37.093 11.762,36.307 11.987,35.564L14.95,25.793C13.385,25.175 12.274,23.649 12.274,21.867L12.274,18.218L1.439,18.218C0.662,18.218 0.033,18.848 0.033,19.625L0.033,40.9C0.033,41.677 0.662,42.306 1.439,42.306L4.97,42.306L9.009,47.461C9.276,47.801 9.684,48 10.116,48C10.548,48 10.956,47.801 11.223,47.461L15.262,42.306L31.507,42.306C32.284,42.306 32.913,41.677 32.913,40.9L32.913,27.98L31.396,26.086L18.084,26.086Z" fill="#E4E4E3"/>
<path d="M46.561,0L16.493,0C15.717,0 15.087,0.63 15.087,1.406L15.087,21.867C15.087,22.644 15.717,23.274 16.493,23.274L32.747,23.274L36.786,28.317C37.053,28.65 37.457,28.844 37.884,28.844C38.311,28.844 38.715,28.65 38.982,28.317L43.021,23.274L46.561,23.274C47.338,23.274 47.967,22.644 47.967,21.867L47.967,1.406C47.967,0.63 47.338,0 46.561,0ZM36.905,10.192C37.682,10.192 38.311,10.822 38.311,11.598C38.311,12.375 37.682,13.004 36.905,13.004L34.368,13.004L37.396,16.358C37.916,16.934 37.871,17.824 37.295,18.344C37.026,18.587 36.688,18.707 36.353,18.707C35.969,18.707 35.586,18.55 35.308,18.243L32.125,14.716C31.928,15.063 31.692,15.396 31.412,15.713C30.468,16.788 29.09,17.658 27.2,18.374C27.036,18.436 26.868,18.466 26.702,18.466C26.135,18.466 25.6,18.12 25.387,17.558C25.112,16.832 25.477,16.02 26.204,15.744C28.628,14.825 29.518,13.795 29.837,13.004L26.149,13.004C25.373,13.004 24.743,12.375 24.743,11.598C24.743,10.821 25.373,10.192 26.149,10.192L30.121,10.192L30.121,7.379L26.149,7.379C25.373,7.379 24.743,6.75 24.743,5.973C24.743,5.196 25.373,4.567 26.149,4.567L36.905,4.567C37.682,4.567 38.311,5.196 38.311,5.973C38.311,6.75 37.682,7.379 36.905,7.379L32.933,7.379L32.933,10.192L36.905,10.192Z" fill="#E4E4E3"/>
</svg>
