<svg width="112" height="98" viewBox="0 0 112 98" fill="none" xmlns="http://www.w3.org/2000/svg" xmlns:xlink="http://www.w3.org/1999/xlink">
<path d="M91.516,3.281L69.641,3.281C66.016,3.281 63.078,6.219 63.078,9.844C63.078,13.468 66.016,16.406 69.641,16.406L91.516,16.406C95.14,16.406 98.078,13.468 98.078,9.844C98.078,6.219 95.14,3.281 91.516,3.281Z" fill="#FFFFFF"/>
<path d="M41.203,13.125L44.484,13.125L44.484,17.281L51.047,17.281L51.047,13.125L56.931,13.125C56.66,12.076 56.516,10.976 56.516,9.844C56.516,8.711 56.66,7.612 56.931,6.563L51.047,6.563L51.047,3.281C51.047,1.469 49.578,0 47.766,0C45.953,0 44.484,1.469 44.484,3.281L44.484,6.563L41.203,6.563C39.391,6.563 37.922,8.032 37.922,9.844C37.922,11.656 39.391,13.125 41.203,13.125Z" fill="#FFFFFF"/>
<path d="M6.313,38.281C6.313,36.469 4.843,35 3.031,35C1.219,35 -0.25,36.469 -0.25,38.281L-0.25,68.906C-0.25,70.718 1.219,72.188 3.031,72.188C4.843,72.188 6.313,70.718 6.313,68.906L6.313,67.812L10.031,67.812L10.031,39.375L6.313,39.375L6.313,38.281Z" fill="#FFFFFF"/>
<rect  x="85.5" y="39.375" width="6.563" height="28.438" fill="#FFFFFF"/>
<path d="M110.059,31.81C109.017,31.232 107.741,31.265 106.73,31.897L98.625,36.963L98.625,70.226L106.73,75.292C107.26,75.624 107.864,75.79 108.469,75.79C109.016,75.79 109.564,75.654 110.059,75.379C111.102,74.801 111.75,73.701 111.75,72.509L111.75,34.68C111.75,33.487 111.102,32.388 110.059,31.81Z" fill="#FFFFFF"/>
<path d="M34.641,92.969C34.641,94.781 36.11,96.25 37.922,96.25L57.609,96.25C59.421,96.25 60.891,94.781 60.891,92.969L60.891,89.688L34.641,89.688L34.641,92.969Z" fill="#FFFFFF"/>
<path d="M66.906,24.063L28.625,24.063C21.991,24.063 16.594,29.46 16.594,36.094L16.594,71.094C16.594,77.728 21.991,83.125 28.625,83.125L66.906,83.125C73.54,83.125 78.938,77.728 78.938,71.094L78.938,36.094C78.938,29.46 73.54,24.063 66.906,24.063ZM45.578,70L39.016,70C37.204,70 35.734,68.531 35.734,66.719C35.734,64.907 37.204,63.438 39.016,63.438L45.578,63.438C47.39,63.438 48.859,64.907 48.859,66.719C48.859,68.531 47.39,70 45.578,70ZM65.266,70L58.703,70C56.891,70 55.422,68.531 55.422,66.719C55.422,64.907 56.891,63.438 58.703,63.438L65.266,63.438C67.078,63.438 68.547,64.907 68.547,66.719C68.547,68.531 67.078,70 65.266,70ZM68.547,53.594C68.547,55.406 67.078,56.875 65.266,56.875L30.266,56.875C28.453,56.875 26.984,55.406 26.984,53.594L26.984,40.469C26.984,38.657 28.453,37.188 30.266,37.188L65.266,37.188C67.078,37.188 68.547,38.657 68.547,40.469L68.547,53.594Z" fill="#FFFFFF"/>
<rect  x="33.547" y="43.75" width="28.438" height="6.563" fill="#FFFFFF"/>
</svg>
