<svg width="32" height="44" viewBox="0 0 32 44" fill="none" xmlns="http://www.w3.org/2000/svg" xmlns:xlink="http://www.w3.org/1999/xlink">
<path d="M9.603,42.387C10.968,43.207 12.662,43.207 14.041,42.387C15.42,41.568 16.267,40.311 16.267,38.672L7.391,38.672C7.391,40.311 8.237,41.568 9.616,42.387L9.603,42.387Z" fill="#FFFFFF"/>
<path d="M9.561,12.887C9.492,13.141 9.383,13.325 9.151,13.395C5.286,14.596 2.815,17.422 2.815,21.095L2.815,27.268C2.815,30.094 1.695,30.673 0.289,31.747C-1.746,33.315 -1.282,36.564 1.053,36.564L22.574,36.564C24.91,36.564 25.374,33.315 23.339,31.747C21.933,30.659 20.813,30.094 20.813,27.268L20.813,21.759C15.542,21.533 11.104,17.874 9.561,12.887Z" fill="#FFFFFF"/>
<path d="M30.997,8.988C30.997,3.478 26.668,-1 21.342,-1C16.016,-1 11.688,3.478 11.688,8.988C11.688,9.327 11.701,9.666 11.742,10.005C11.769,10.005 11.783,10.005 11.81,10.005C13.026,10.005 13.995,10.782 13.995,11.969C13.995,12.718 14.023,13.269 14.473,13.41C17.518,14.357 19.69,16.334 20.468,18.92C20.755,18.948 21.042,18.962 21.342,18.962C26.668,18.962 30.997,14.484 30.997,8.974L30.997,8.988Z" fill="#55B25B"/>
</svg>
