<svg width="48" height="42" viewBox="0 0 48 42" fill="none" xmlns="http://www.w3.org/2000/svg" xmlns:xlink="http://www.w3.org/1999/xlink">
<path d="M12.533,8.373C12.198,8.373 11.886,8.54 11.701,8.818L5.784,17.692C5.536,18.065 5.565,18.558 5.857,18.898L23.241,39.179C23.64,39.645 24.36,39.645 24.759,39.179L42.143,18.898C42.435,18.558 42.464,18.065 42.216,17.692L36.299,8.818C36.114,8.54 35.802,8.373 35.467,8.373L12.533,8.373ZM17.381,15.01C18.15,15.587 17.742,16.81 16.781,16.81L11.621,16.81C10.822,16.81 10.346,15.92 10.789,15.256L12.509,12.676C12.828,12.198 13.482,12.086 13.941,12.43L17.381,15.01ZM19.369,12.985C18.6,12.409 19.008,11.185 19.969,11.185L28.031,11.185C28.992,11.185 29.4,12.409 28.631,12.985L24.6,16.009C24.244,16.275 23.756,16.275 23.4,16.009L19.369,12.985ZM21.594,19.623C22.146,19.623 22.594,20.07 22.594,20.623L22.594,31.399C22.594,32.328 21.439,32.755 20.835,32.05L11.598,21.274C11.042,20.625 11.502,19.623 12.357,19.623L21.594,19.623ZM25.406,20.623C25.406,20.07 25.854,19.623 26.406,19.623L35.643,19.623C36.498,19.623 36.958,20.625 36.402,21.274L27.166,32.05C26.561,32.755 25.406,32.328 25.406,31.399L25.406,20.623ZM31.219,16.81C30.258,16.81 29.85,15.587 30.619,15.01L34.059,12.43C34.518,12.086 35.172,12.198 35.491,12.676L37.211,15.256C37.654,15.92 37.178,16.81 36.379,16.81L31.219,16.81Z" fill="#E4E4E3"/>
<path d="M46.188,2.748C45.635,2.748 45.188,2.3 45.188,1.748L45.188,0.935C45.188,0.383 44.74,-0.065 44.188,-0.065L43.375,-0.065C42.823,-0.065 42.375,0.383 42.375,0.935L42.375,1.748C42.375,2.3 41.927,2.748 41.375,2.748L40.563,2.748C40.01,2.748 39.563,3.195 39.563,3.748L39.563,4.56C39.563,5.113 40.01,5.56 40.563,5.56L41.375,5.56C41.927,5.56 42.375,6.008 42.375,6.56L42.375,7.373C42.375,7.925 42.823,8.373 43.375,8.373L44.188,8.373C44.74,8.373 45.188,7.925 45.188,7.373L45.188,6.56C45.188,6.008 45.635,5.56 46.188,5.56L47,5.56C47.552,5.56 48,5.113 48,4.56L48,3.748C48,3.195 47.552,2.748 47,2.748L46.188,2.748Z" fill="#E4E4E3"/>
<path d="M5.625,31.873C5.625,31.32 5.177,30.873 4.625,30.873L3.813,30.873C3.26,30.873 2.813,31.32 2.813,31.873L2.813,32.685C2.813,33.238 2.365,33.685 1.813,33.685L1,33.685C0.448,33.685 0,34.133 0,34.685L0,35.498C0,36.05 0.448,36.498 1,36.498L1.813,36.498C2.365,36.498 2.813,36.945 2.813,37.498L2.813,38.31C2.813,38.863 3.26,39.31 3.813,39.31L4.625,39.31C5.177,39.31 5.625,38.863 5.625,38.31L5.625,37.498C5.625,36.945 6.073,36.498 6.625,36.498L7.438,36.498C7.99,36.498 8.438,36.05 8.438,35.498L8.438,34.685C8.438,34.133 7.99,33.685 7.438,33.685L6.625,33.685C6.073,33.685 5.625,33.238 5.625,32.685L5.625,31.873Z" fill="#E4E4E3"/>
<path d="M0,23.435C0,22.883 0.448,22.435 1,22.435L1.813,22.435C2.365,22.435 2.813,22.883 2.813,23.435L2.813,24.248C2.813,24.8 2.365,25.248 1.813,25.248L1,25.248C0.448,25.248 0,24.8 0,24.248L0,23.435Z" fill="#E4E4E3"/>
<path d="M45.188,14.998C45.188,14.445 45.635,13.998 46.188,13.998L47,13.998C47.552,13.998 48,14.445 48,14.998L48,15.81C48,16.363 47.552,16.81 47,16.81L46.188,16.81C45.635,16.81 45.188,16.363 45.188,15.81L45.188,14.998Z" fill="#E4E4E3"/>
</svg>
