<svg width="26" height="34" viewBox="0 0 26 34" fill="none" xmlns="http://www.w3.org/2000/svg" xmlns:xlink="http://www.w3.org/1999/xlink">
<path d="M19.493,10.723C19.493,12.392 19.508,14.063 19.493,15.732C19.457,19.281 16.563,21.981 12.787,22C9.017,22.019 6.05,19.317 6.023,15.787C5.995,12.414 5.989,9.037 6.023,5.664C6.053,2.191 8.984,-0.478 12.72,-0.5C16.487,-0.522 19.442,2.183 19.487,5.713C19.508,7.382 19.49,9.054 19.49,10.723L19.493,10.723Z" fill="#E4E4E3"/>
<path d="M14.51,28.23L14.51,30.632C15.542,30.632 16.552,30.623 17.562,30.632C18.982,30.647 19.754,31.243 19.76,32.304C19.763,33.368 18.988,33.986 17.578,33.992C14.342,34.004 11.102,34.004 7.866,33.992C6.462,33.986 5.687,33.359 5.7,32.292C5.712,31.231 6.484,30.65 7.91,30.629C8.818,30.617 9.727,30.617 10.635,30.604C10.705,30.604 10.775,30.556 10.915,30.502L10.915,28.251C10.448,28.142 9.962,28.031 9.476,27.919C4.137,26.69 0.075,22.058 -0.202,16.848C-0.265,15.651 -0.259,14.449 -0.224,13.25C-0.195,12.231 0.494,11.55 1.418,11.517C2.371,11.484 3.124,12.204 3.168,13.265C3.216,14.389 3.127,15.522 3.241,16.637C3.787,21.892 7.85,25.198 13.443,24.999C18.356,24.824 22.19,20.85 22.269,15.838C22.285,14.901 22.247,13.961 22.304,13.027C22.361,12.095 23.016,11.571 23.927,11.541C24.842,11.511 25.56,12.002 25.642,12.924C26.071,17.685 25.252,22.052 21.167,25.367C19.255,26.916 17.038,27.793 14.504,28.227L14.51,28.23Z" fill="#E4E4E3"/>
</svg>
