<svg width="36" height="40" viewBox="0 0 36 40" fill="none" xmlns="http://www.w3.org/2000/svg" xmlns:xlink="http://www.w3.org/1999/xlink">
<path d="M18.001,40C20.398,40 22.463,38.552 23.369,36.484L12.632,36.484C13.538,38.552 15.603,40 18.001,40Z" fill="#EEE421"/>
<path d="M30.109,19.364L30.109,16.797C30.109,11.342 26.484,6.719 21.516,5.209L21.516,3.516C21.516,1.577 19.939,0 18,0C16.062,0 14.484,1.577 14.484,3.516L14.484,5.209C9.516,6.719 5.891,11.342 5.891,16.797L5.891,19.364C5.891,24.156 4.064,28.699 0.748,32.158C0.423,32.497 0.332,32.997 0.516,33.429C0.7,33.86 1.124,34.141 1.594,34.141L34.406,34.141C34.876,34.141 35.3,33.86 35.484,33.429C35.668,32.997 35.577,32.497 35.252,32.158C31.936,28.699 30.109,24.156 30.109,19.364ZM19.172,4.744C18.786,4.707 18.395,4.688 18,4.688C17.605,4.688 17.214,4.707 16.828,4.744L16.828,3.516C16.828,2.869 17.354,2.344 18,2.344C18.646,2.344 19.172,2.869 19.172,3.516L19.172,4.744Z" fill="#EEE421"/>
<path d="M33.234,16.797C33.234,17.444 33.759,17.969 34.406,17.969C35.053,17.969 35.578,17.444 35.578,16.797C35.578,12.102 33.749,7.688 30.429,4.368C29.972,3.91 29.23,3.91 28.772,4.368C28.314,4.825 28.314,5.567 28.772,6.025C31.649,8.902 33.234,12.728 33.234,16.797Z" fill="#EEE421"/>
<path d="M1.594,17.969C2.241,17.969 2.766,17.444 2.766,16.797C2.766,12.728 4.35,8.902 7.228,6.025C7.685,5.567 7.685,4.825 7.228,4.368C6.77,3.91 6.028,3.91 5.57,4.368C2.25,7.688 0.422,12.102 0.422,16.797C0.422,17.444 0.947,17.969 1.594,17.969Z" fill="#EEE421"/>
</svg>
