<svg width="70" height="84" viewBox="0 0 70 84" fill="none" xmlns="http://www.w3.org/2000/svg" xmlns:xlink="http://www.w3.org/1999/xlink">
<g filter="url(#filterI7354_43476;7401_7882)">
<path d="M52.537,0L6.529,0C2.923,0 0,2.923 0,6.529L0,75.782C0,79.388 2.923,82.311 6.529,82.311L63.329,82.311C66.935,82.311 69.858,79.388 69.858,75.782L69.858,17.037L52.537,0Z" clip-rule="evenodd" fill-rule="evenodd" transform="rotate(0 34.929 41.156)" fill="#DBFDE7"/>
</g>
<path d="M70,17.171L52.556,0.013L52.556,15.212C52.556,16.294 53.433,17.171 54.515,17.171L70,17.171Z" clip-rule="evenodd" fill-rule="evenodd" transform="rotate(0 61.278 8.592)" fill="#292927"/>
<path d="M23.072,41.013C26.258,41.013 28.842,38.43 28.842,35.243C28.842,32.056 26.258,29.473 23.072,29.473C19.885,29.473 17.302,32.056 17.302,35.243C17.302,38.43 19.885,41.013 23.072,41.013Z" transform="rotate(0 23.072 35.243)" fill="#292927"/>
<path d="M47.114,41.015C50.3,41.015 52.884,38.432 52.884,35.245C52.884,32.058 50.3,29.475 47.114,29.475C43.927,29.475 41.344,32.058 41.344,35.245C41.344,38.432 43.927,41.015 47.114,41.015Z" transform="rotate(0 47.114 35.245)" fill="#292927"/>
<path d="M35.094,62.211C41.855,62.211 47.335,56.73 47.335,49.969C47.335,43.208 41.855,37.728 35.094,37.728C28.333,37.728 22.852,43.208 22.852,49.969C22.852,56.73 28.333,62.211 35.094,62.211Z" transform="rotate(0 35.094 49.969)" fill="#292927"/>
<rect  x="15.994" y="37.726" width="40.805" height="10.446" transform="rotate(0 15.994 37.726)" fill="#DBFDE7"/>
<defs>
<filter id="filterI7354_43476;7401_7882" x="-6.125123" y="-6.125001" width="47.17911" height="53.405622" filterUnits="userSpaceOnUse" color-interpolation-filters="sRGB">
<feFlood flood-opacity="0" result="BackgroundImageFix"/>
<feColorMatrix in="SourceAlpha" type="matrix" values="0 0 0 0 0 0 0 0 0 0 0 0 0 0 0 0 0 0 127 0" result="hardAlpha"/>
<feMorphology radius="0" operator="dilate" in="SourceAlpha" result="0dropshadow"/>
<feOffset dx="0" dy="3.5"/>
<feGaussianBlur stdDeviation="3.0625"/>
<feComposite in2="hardAlpha" operator="out"/>
<feColorMatrix type="matrix" values="0 0 0 0 0 0 0 0 0 0 0 0 0 0 0 0 0 0 0.16 0"/>
<feBlend mode="normal" in2="BackgroundImageFix" result="0dropshadow"/>
<feBlend mode="normal" in="SourceGraphic" in2="0dropshadow" result="shape"/>
</filter>
</defs>
</svg>
