<svg width="112" height="112" viewBox="0 0 112 112" fill="none" xmlns="http://www.w3.org/2000/svg" xmlns:xlink="http://www.w3.org/1999/xlink">
<path d="M43.147,72.105L41.429,82.311C41.194,83.707 41.767,85.113 42.909,85.945C44.053,86.776 45.573,86.888 46.823,86.233L55.999,81.443L65.175,86.234C65.718,86.515 66.313,86.657 66.901,86.657C67.672,86.657 68.441,86.416 69.09,85.946C70.233,85.114 70.808,83.708 70.572,82.312L68.855,72.106L76.244,64.858C77.254,63.868 77.614,62.391 77.181,61.047C76.745,59.704 75.581,58.72 74.182,58.514L63.944,56.995L59.332,47.727C58.707,46.461 57.411,45.66 55.998,45.66C54.587,45.66 53.292,46.461 52.662,47.727L48.055,56.995L37.816,58.513C36.415,58.719 35.256,59.703 34.82,61.046C34.384,62.39 34.742,63.869 35.755,64.857L43.147,72.105Z" fill="#292927"/>
<path d="M100.002,11.907L88.278,11.907L88.278,5.404C88.278,2.419 85.859,0 82.874,0L82.017,0C79.032,0 76.614,2.419 76.614,5.404L76.614,11.907L35.249,11.907L35.249,5.404C35.249,2.419 32.83,0 29.846,0L28.988,0C26.004,0 23.585,2.419 23.585,5.404L23.585,11.907L11.998,11.907C5.867,11.907 0.876,16.895 0.876,23.028L0.876,100.879C0.876,107.009 5.867,112.001 11.998,112.001L100.003,112.001C106.134,112.001 111.125,107.01 111.125,100.879L111.125,23.028C111.124,16.895 106.133,11.907 100.002,11.907ZM98.551,99.428L13.449,99.428L13.449,38.826L98.551,38.826L98.551,99.428Z" fill="#292927"/>
</svg>
