<svg width="114" height="112" viewBox="0 0 114 112" fill="none" xmlns="http://www.w3.org/2000/svg" xmlns:xlink="http://www.w3.org/1999/xlink">
<path d="M46.941,90.284L46.941,21.696L55.117,12.621C55.48,12.218 55.68,11.698 55.68,11.156L55.68,2.188C55.68,0.981 54.698,0 53.492,0L33.805,0C32.598,0 31.617,0.981 31.617,2.188L31.617,11.156C31.617,11.697 31.816,12.217 32.178,12.619L40.378,21.74L40.378,90.28L32.179,99.38C31.817,99.782 31.617,100.302 31.617,100.844L31.617,109.812C31.617,111.019 32.598,112 33.805,112L53.492,112C54.698,112 55.68,111.019 55.68,109.812L55.68,100.844C55.68,100.303 55.481,99.783 55.119,99.381L46.941,90.284Z" fill="#FFFFFF"/>
<rect  x="53.504" y="45.938" width="59.27" height="19.895" fill="#FFFFFF"/>
<path d="M109.492,26.469L97.352,26.469L97.352,39.375L112.773,39.375L112.773,29.75C112.773,27.938 111.304,26.469 109.492,26.469Z" fill="#FFFFFF"/>
<rect  x="75.477" y="26.469" width="15.203" height="12.906" fill="#FFFFFF"/>
<rect  x="75.477" y="72.398" width="15.203" height="13.136" fill="#FFFFFF"/>
<path d="M97.352,85.534L109.492,85.534C111.304,85.534 112.773,84.065 112.773,82.253L112.773,72.398L97.352,72.398L97.352,85.534Z" fill="#FFFFFF"/>
<rect  x="53.504" y="72.398" width="15.411" height="13.136" fill="#FFFFFF"/>
<rect  x="53.504" y="26.469" width="15.411" height="12.906" fill="#FFFFFF"/>
<rect  x="20.691" y="26.469" width="13.125" height="13.125" fill="#FFFFFF"/>
<rect  x="0.773" y="46.156" width="33.042" height="19.677" fill="#FFFFFF"/>
<path d="M0.773,82.253C0.773,84.065 2.243,85.534 4.055,85.534L14.128,85.534L14.128,72.398L0.773,72.398L0.773,82.253Z" fill="#FFFFFF"/>
<rect  x="20.691" y="72.398" width="13.125" height="13.136" fill="#FFFFFF"/>
<path d="M14.128,26.469L4.055,26.469C2.243,26.469 0.773,27.938 0.773,29.75L0.773,39.594L14.128,39.594L14.128,26.469Z" fill="#FFFFFF"/>
</svg>
