<svg width="48" height="48" viewBox="0 0 48 48" fill="none" xmlns="http://www.w3.org/2000/svg" xmlns:xlink="http://www.w3.org/1999/xlink">
<path d="M36.35,7.766L37.728,5.379C38.544,3.965 38.06,2.158 36.646,1.342C35.233,0.526 33.426,1.01 32.61,2.423L31.056,5.114C24.346,3.349 16.998,6.652 13.698,13.339C13.539,13.661 8.956,23.42 5.205,26.882L5.148,26.854C4,26.288 2.611,26.759 2.045,27.907L2.007,27.982C1.441,29.13 1.912,30.52 3.06,31.086L18.795,38.851C18.137,39.709 17.746,40.781 17.746,41.946C17.746,44.762 20.029,47.045 22.846,47.045C25.201,47.045 27.182,45.448 27.768,43.279L32.627,45.676C33.774,46.243 35.164,45.771 35.73,44.624L35.767,44.548C36.3,43.469 35.915,42.176 34.913,41.555C35.372,36.404 40.166,26.587 40.24,26.437C43.512,19.808 41.723,12.043 36.35,7.766Z" fill="#F6E06E"/>
<path d="M24.333,41.283C23.89,42.632 22.621,43.606 21.124,43.606C19.524,43.606 18.185,42.493 17.836,41C17.778,41.308 17.746,41.625 17.746,41.95C17.746,44.766 20.029,47.049 22.846,47.049C25.12,47.049 27.047,45.559 27.703,43.502C26.584,42.757 25.46,42.017 24.333,41.283Z" fill="#DDA86A"/>
<path d="M33.762,6.127C32.966,5.734 32.149,5.422 31.322,5.188C35.249,8.309 36.557,13.981 34.168,18.823C34.133,18.894 32.633,21.964 31.5,25.135C30.37,28.298 26.75,29.783 23.738,28.297L9.45,21.246C8.136,23.396 6.678,25.485 5.32,26.778C7.176,27.782 31.659,39.877 34.787,41.624C34.942,36.644 40.165,26.595 40.242,26.439C43.993,18.838 41.092,9.744 33.762,6.127Z" fill="#DDA86A"/>
<path d="M4.32,9.436L5.101,11.632C5.135,11.726 5.201,11.8 5.285,11.838L7.236,12.717C7.511,12.841 7.511,13.28 7.236,13.404L5.285,14.283C5.201,14.321 5.135,14.395 5.101,14.489L4.32,16.685C4.21,16.996 3.82,16.996 3.71,16.685L2.929,14.489C2.895,14.395 2.829,14.321 2.746,14.283L0.795,13.404C0.519,13.28 0.519,12.841 0.795,12.717L2.746,11.838C2.829,11.8 2.895,11.726 2.929,11.632L3.71,9.436C3.82,9.126 4.21,9.126 4.32,9.436Z" fill="#FAF1A9"/>
<path d="M14.017,0.243L14.596,1.872C14.621,1.941 14.67,1.997 14.732,2.025L16.179,2.677C16.384,2.769 16.384,3.095 16.179,3.187L14.732,3.839C14.67,3.867 14.621,3.922 14.596,3.992L14.017,5.621C13.935,5.851 13.646,5.851 13.564,5.621L12.984,3.992C12.96,3.922 12.911,3.867 12.849,3.839L11.401,3.187C11.197,3.095 11.197,2.769 11.401,2.677L12.849,2.025C12.911,1.997 12.96,1.941 12.984,1.872L13.564,0.243C13.646,0.013 13.935,0.013 14.017,0.243Z" fill="#FAF1A9"/>
<path d="M45.729,9.356C46.671,9.356 47.434,8.593 47.434,7.65C47.434,6.708 46.671,5.945 45.729,5.945C44.787,5.945 44.023,6.708 44.023,7.65C44.023,8.593 44.787,9.356 45.729,9.356Z" transform="rotate(-153.178 45.729 7.65)" fill="#F6E06E"/>
<circle cx="5.765" cy="4.759" r="0.736" fill="#F6E06E"/>
<path d="M42.062,14.502C41.188,11.761 39.639,9.384 37.573,7.554L38.552,5.858C39.074,4.955 39.212,3.902 38.942,2.894C38.672,1.886 38.026,1.044 37.123,0.523C35.257,-0.554 32.864,0.087 31.787,1.952L30.589,4.026C27.796,3.43 24.867,3.628 22.066,4.635C18.044,6.081 14.77,9.024 12.846,12.922C12.838,12.938 12.821,12.974 12.795,13.029C12.035,14.613 10.488,17.717 8.663,20.71C7.082,23.303 5.873,24.855 4.977,25.782C3.5,25.382 1.895,26.067 1.193,27.49L1.156,27.566C0.769,28.348 0.711,29.235 0.991,30.061C1.272,30.888 1.857,31.556 2.64,31.942L17.437,39.245C17.028,40.059 16.796,40.978 16.796,41.95C16.796,45.286 19.51,48 22.846,48C25.233,48 27.3,46.61 28.284,44.597L32.207,46.533C32.67,46.762 33.162,46.87 33.648,46.87C34.853,46.87 36.015,46.201 36.583,45.049L36.621,44.973C37.274,43.65 36.945,42.094 35.918,41.136C36.106,39.768 36.628,37.659 37.843,34.424C39.333,30.455 41.076,26.897 41.094,26.862C43.017,22.964 43.361,18.574 42.062,14.502ZM33.434,2.903C33.701,2.439 34.134,2.107 34.651,1.969C34.823,1.923 34.999,1.9 35.173,1.9C35.52,1.9 35.863,1.991 36.172,2.169C36.636,2.437 36.967,2.869 37.106,3.386C37.244,3.903 37.173,4.444 36.906,4.907L36.059,6.373C35.465,5.968 34.839,5.6 34.182,5.276C33.625,5.001 33.055,4.763 32.477,4.559L33.434,2.903ZM22.846,46.099C20.559,46.099 18.698,44.237 18.698,41.95C18.698,41.28 18.858,40.646 19.141,40.086L26.578,43.756C25.906,45.141 24.487,46.099 22.846,46.099ZM34.916,44.131L34.878,44.207C34.545,44.883 33.724,45.161 33.048,44.828L3.481,30.237C3.154,30.076 2.909,29.797 2.792,29.451C2.675,29.105 2.699,28.734 2.861,28.407L2.898,28.332C3.231,27.656 4.052,27.377 4.728,27.711L34.295,42.301C34.97,42.635 35.249,43.456 34.916,44.131ZM39.388,26.02C39.371,26.056 37.586,29.698 36.063,33.754C35.023,36.524 34.442,38.575 34.155,40.112L6.799,26.612C7.763,25.524 8.912,23.955 10.287,21.7C12.155,18.636 13.734,15.467 14.509,13.851C14.531,13.806 14.545,13.777 14.551,13.764C16.256,10.309 19.153,7.703 22.71,6.424C26.254,5.149 30.03,5.347 33.341,6.981C36.652,8.615 39.106,11.491 40.251,15.08C41.399,18.681 41.093,22.566 39.388,26.02Z" fill="#3C122C"/>
<path d="M19.058,13.887C18.848,13.887 18.636,13.818 18.46,13.676C18.052,13.345 17.989,12.747 18.319,12.339C19.209,11.238 20.261,10.287 21.446,9.514C21.885,9.227 22.474,9.351 22.761,9.79C23.048,10.23 22.925,10.819 22.485,11.106C21.467,11.771 20.563,12.588 19.797,13.534C19.609,13.767 19.335,13.887 19.058,13.887Z" fill="#FFFFFF"/>
<path d="M24.861,9.868C24.461,9.868 24.089,9.614 23.958,9.213C23.794,8.714 24.066,8.177 24.565,8.014C24.926,7.895 25.298,7.791 25.669,7.705C26.18,7.585 26.692,7.903 26.811,8.415C26.93,8.926 26.612,9.437 26.101,9.556C25.783,9.63 25.466,9.719 25.157,9.82C25.059,9.853 24.959,9.868 24.861,9.868Z" fill="#FFFFFF"/>
</svg>
