<svg width="26" height="34" viewBox="0 0 26 34" fill="none" xmlns="http://www.w3.org/2000/svg" xmlns:xlink="http://www.w3.org/1999/xlink">
<path d="M19.493,10.723C19.493,12.392 19.508,14.063 19.493,15.732C19.457,19.281 16.563,21.981 12.787,22C9.017,22.019 6.05,19.317 6.023,15.787C5.995,12.414 5.989,9.037 6.023,5.664C6.053,2.191 8.984,-0.478 12.72,-0.5C16.487,-0.522 19.442,2.183 19.487,5.713C19.508,7.382 19.49,9.054 19.49,10.723L19.493,10.723Z" fill="#FFFFFF"/>
<path d="M14.511,28.23L14.511,30.632C15.543,30.632 16.553,30.623 17.563,30.632C18.983,30.647 19.755,31.243 19.761,32.304C19.764,33.368 18.989,33.986 17.579,33.992C14.343,34.004 11.103,34.004 7.867,33.992C6.463,33.986 5.688,33.359 5.7,32.292C5.713,31.231 6.485,30.65 7.911,30.629C8.819,30.617 9.728,30.617 10.636,30.604C10.706,30.604 10.776,30.556 10.916,30.502L10.916,28.251C10.449,28.142 9.963,28.031 9.477,27.919C4.138,26.69 0.076,22.058 -0.201,16.848C-0.264,15.651 -0.258,14.449 -0.223,13.25C-0.194,12.231 0.495,11.55 1.419,11.517C2.372,11.484 3.125,12.204 3.169,13.265C3.217,14.389 3.128,15.522 3.242,16.637C3.788,21.892 7.851,25.198 13.444,24.999C18.357,24.824 22.191,20.85 22.27,15.838C22.286,14.901 22.248,13.961 22.305,13.027C22.362,12.095 23.017,11.571 23.928,11.541C24.843,11.511 25.561,12.002 25.643,12.924C26.072,17.685 25.253,22.052 21.168,25.367C19.256,26.916 17.039,27.793 14.505,28.227L14.511,28.23Z" fill="#FFFFFF"/>
</svg>
