<svg width="112" height="112" viewBox="0 0 112 112" fill="none" xmlns="http://www.w3.org/2000/svg" xmlns:xlink="http://www.w3.org/1999/xlink">
<path d="M12.73,0L2.887,0C1.075,0 -0.395,1.469 -0.395,3.281L-0.395,13.125L12.73,13.125L12.73,0Z" fill="#292927"/>
<rect  x="19.293" y="0" width="13.125" height="13.125" fill="#292927"/>
<path d="M52.105,3.281C52.105,1.469 50.636,0 48.824,0L38.98,0L38.98,13.125L52.105,13.125L52.105,3.281Z" fill="#292927"/>
<path d="M-0.395,108.719C-0.395,110.531 1.075,112 2.887,112L12.73,112L12.73,98.875L-0.395,98.875L-0.395,108.719Z" fill="#292927"/>
<rect  x="19.293" y="98.875" width="13.125" height="13.125" fill="#292927"/>
<path d="M38.98,112L48.824,112C50.636,112 52.105,110.531 52.105,108.719L52.105,98.875L38.98,98.875L38.98,112Z" fill="#292927"/>
<path d="M103.136,56.602C103.088,56.571 103.042,56.54 102.993,56.511L88.904,48.34L102.993,40.169C103.042,40.14 103.089,40.108 103.136,40.077C107.941,37.213 111.169,31.966 111.169,25.977C111.169,16.93 103.809,9.57 94.762,9.57C85.716,9.57 78.356,16.93 78.356,25.977C78.356,30.157 79.929,33.974 82.512,36.874L75.823,40.753L58.668,30.805L58.668,45.977L62.742,48.34L28.286,68.323C27.138,68.989 26.504,70.281 26.679,71.597C26.855,72.912 27.806,73.992 29.089,74.333C35.719,76.096 42.64,75.171 48.576,71.729L75.823,55.926L82.512,59.805C79.929,62.706 78.356,66.523 78.356,70.703C78.356,79.749 85.716,87.109 94.762,87.109C103.808,87.109 111.168,79.749 111.168,70.703C111.168,64.714 107.941,59.467 103.136,56.602ZM94.762,16.133C100.19,16.133 104.606,20.549 104.606,25.977C104.606,31.404 100.19,35.82 94.762,35.82C89.334,35.82 84.918,31.404 84.918,25.977C84.918,20.549 89.334,16.133 94.762,16.133ZM94.762,80.547C89.334,80.547 84.918,76.131 84.918,70.703C84.918,65.275 89.334,60.859 94.762,60.859C100.19,60.859 104.606,65.275 104.606,70.703C104.606,76.131 100.19,80.547 94.762,80.547Z" fill="#292927"/>
<path d="M35.644,81.773C35.643,81.773 35.643,81.773 35.643,81.773C32.846,81.773 30.044,81.404 27.315,80.679C23.455,79.652 20.618,76.431 20.087,72.472C19.558,68.509 21.449,64.655 24.905,62.65L52.105,46.875L52.105,19.688L-0.395,19.688L-0.395,92.313L52.105,92.313L52.105,77.221L51.78,77.409C46.859,80.264 41.278,81.773 35.644,81.773Z" fill="#292927"/>
</svg>
