<svg width="32" height="44" viewBox="0 0 32 44" fill="none" xmlns="http://www.w3.org/2000/svg" xmlns:xlink="http://www.w3.org/1999/xlink">
<path d="M10.603,42.387C11.968,43.207 13.662,43.207 15.041,42.387C16.42,41.568 17.267,40.311 17.267,38.672L8.391,38.672C8.391,40.311 9.237,41.568 10.616,42.387L10.603,42.387Z" fill="#FFFFFF"/>
<path d="M10.561,12.891C10.492,13.145 10.383,13.329 10.151,13.399C6.286,14.6 3.815,17.426 3.815,21.099L3.815,27.272C3.815,30.098 2.695,30.677 1.289,31.751C-0.746,33.319 -0.282,36.568 2.053,36.568L23.574,36.568C25.91,36.568 26.374,33.319 24.339,31.751C22.933,30.663 21.813,30.098 21.813,27.272L21.813,21.763C16.542,21.537 12.104,17.878 10.561,12.891Z" fill="#FFFFFF"/>
<path d="M32,8.988C32,3.478 27.672,-1 22.346,-1C17.02,-1 12.691,3.478 12.691,8.988C12.691,9.327 12.705,9.666 12.746,10.005C12.773,10.005 12.787,10.005 12.814,10.005C14.03,10.005 14.999,10.782 14.999,11.969C14.999,12.718 15.027,13.269 15.477,13.41C18.522,14.357 20.694,16.334 21.472,18.92C21.759,18.948 22.046,18.962 22.346,18.962C27.672,18.962 32,14.484 32,8.974L32,8.988Z" fill="#55B25B"/>
</svg>
