<svg width="48" height="48" viewBox="0 0 48 48" fill="none" xmlns="http://www.w3.org/2000/svg" xmlns:xlink="http://www.w3.org/1999/xlink">
<path d="M8.438,10.313L29.062,10.313C29.578,10.313 30,9.891 30,9.375L30,5.625C30,5.11 29.578,4.688 29.062,4.688L22.5,4.688C22.5,2.616 20.821,0.938 18.75,0.938C16.679,0.938 15,2.616 15,4.688L8.438,4.688C7.922,4.688 7.5,5.109 7.5,5.625L7.5,9.375C7.5,9.891 7.922,10.313 8.438,10.313Z" clip-rule="evenodd" fill-rule="evenodd" fill="#6D91AC"/>
<path d="M7.5,9.375L7.5,5.625L2.812,5.625C1.781,5.625 0.938,6.469 0.938,7.5L0.938,45.187C0.938,46.219 1.781,47.062 2.812,47.062L34.687,47.062C35.719,47.062 36.562,46.219 36.562,45.187L36.562,7.5C36.562,6.469 35.719,5.625 34.687,5.625L30,5.625L30,9.375L32.812,9.375L32.812,43.312L4.687,43.312L4.687,9.375L7.5,9.375Z" clip-rule="evenodd" fill-rule="evenodd" fill="#60A4FF"/>
<path d="M8.437,10.312C7.922,10.312 7.5,9.891 7.5,9.375L4.688,9.375L4.688,43.312L32.812,43.312L32.812,9.375L30,9.375C30,9.891 29.578,10.312 29.063,10.312L8.437,10.312Z" clip-rule="evenodd" fill-rule="evenodd" fill="#FFFFFF"/>
<path d="M34.687,4.687L30.686,4.687C30.361,4.128 29.755,3.75 29.062,3.75L23.343,3.75C22.908,1.613 21.014,0 18.75,0C16.486,0 14.592,1.613 14.157,3.75L8.437,3.75C7.745,3.75 7.139,4.128 6.814,4.687L2.812,4.687C1.262,4.687 0,5.949 0,7.5L0,45.188C0,46.738 1.262,48 2.812,48L34.687,48C36.238,48 37.5,46.738 37.5,45.188L37.5,7.5C37.5,5.949 36.238,4.687 34.687,4.687ZM15,5.625C15.518,5.625 15.937,5.205 15.937,4.688C15.937,3.137 17.199,1.875 18.75,1.875C20.301,1.875 21.563,3.137 21.563,4.688C21.563,5.205 21.982,5.625 22.5,5.625L29.062,5.625L29.062,9.375L8.437,9.375L8.437,5.625L15,5.625ZM35.625,45.188C35.625,45.704 35.204,46.125 34.687,46.125L2.812,46.125C2.296,46.125 1.875,45.704 1.875,45.188L1.875,7.5C1.875,6.983 2.296,6.562 2.812,6.562L6.562,6.562L6.562,8.437L4.688,8.437C4.17,8.437 3.75,8.857 3.75,9.375L3.75,43.312C3.75,43.83 4.17,44.25 4.688,44.25L14.531,44.25C15.049,44.25 15.468,43.83 15.468,43.312C15.468,42.795 15.049,42.375 14.531,42.375L5.625,42.375L5.625,10.312L6.814,10.312C7.139,10.873 7.745,11.25 8.437,11.25L29.062,11.25C29.755,11.25 30.361,10.873 30.686,10.312L31.875,10.312L31.875,42.375L22.968,42.375C22.451,42.375 22.031,42.795 22.031,43.312C22.031,43.83 22.451,44.25 22.968,44.25L32.812,44.25C33.33,44.25 33.75,43.83 33.75,43.312L33.75,9.375C33.75,8.857 33.33,8.437 32.812,8.437L30.937,8.437L30.937,6.562L34.687,6.562C35.204,6.562 35.625,6.983 35.625,7.5L35.625,45.188Z" fill="#000000"/>
<path d="M18.75,5.625C19.268,5.625 19.688,5.205 19.688,4.688C19.688,4.17 19.268,3.75 18.75,3.75L18.75,3.75C18.232,3.75 17.813,4.17 17.813,4.688C17.813,5.205 18.233,5.625 18.75,5.625Z" fill="#000000"/>
<path d="M44.057,10.206C43.898,9.888 43.574,9.688 43.219,9.688L40.406,9.688C39.889,9.688 39.469,10.107 39.469,10.625C39.469,11.143 39.889,11.563 40.406,11.563L41.344,11.563L39.656,13.813C39.443,14.097 39.409,14.477 39.568,14.794C39.727,15.112 40.051,15.313 40.406,15.313L43.219,15.313C43.736,15.313 44.156,14.893 44.156,14.375C44.156,13.857 43.736,13.438 43.219,13.438L42.281,13.438L43.969,11.188C44.182,10.903 44.216,10.523 44.057,10.206Z" fill="#000000"/>
<path d="M47.063,5L45.188,5L47.813,1.5C48.026,1.216 48.06,0.836 47.901,0.518C47.742,0.201 47.418,0 47.063,0L43.313,0C42.795,0 42.375,0.42 42.375,0.938C42.375,1.455 42.795,1.875 43.313,1.875L45.188,1.875L42.563,5.375C42.35,5.659 42.315,6.039 42.474,6.357C42.633,6.674 42.957,6.875 43.313,6.875L47.063,6.875C47.58,6.875 48,6.455 48,5.937C48,5.42 47.58,5 47.063,5Z" fill="#000000"/>
<path d="M25.99,22.526C25.639,22.877 25.172,23.07 24.675,23.07C24.179,23.07 23.713,22.877 23.361,22.526C22.995,22.16 22.402,22.16 22.036,22.526C21.669,22.892 21.669,23.486 22.036,23.852C22.741,24.557 23.678,24.945 24.675,24.945C25.673,24.945 26.61,24.557 27.315,23.852C27.681,23.486 27.681,22.892 27.315,22.526C26.949,22.16 26.356,22.16 25.99,22.526Z" transform="rotate(360 24.675 23.598)" fill="#000000"/>
<path d="M20.229,28.274C19.878,28.625 19.411,28.819 18.914,28.819C18.418,28.819 17.952,28.626 17.6,28.274C17.234,27.909 16.641,27.909 16.275,28.274C15.908,28.641 15.908,29.234 16.275,29.6C16.98,30.306 17.917,30.694 18.914,30.694C19.912,30.694 20.849,30.306 21.554,29.6C21.92,29.234 21.92,28.641 21.554,28.274C21.188,27.909 20.595,27.909 20.229,28.274Z" fill="#000000"/>
<path d="M12.826,24.945C13.823,24.945 14.76,24.557 15.466,23.852C15.832,23.486 15.832,22.892 15.466,22.526C15.099,22.16 14.506,22.16 14.14,22.526C13.789,22.877 13.322,23.07 12.826,23.07C12.329,23.07 11.863,22.877 11.512,22.526C11.145,22.16 10.552,22.16 10.186,22.526C9.82,22.892 9.82,23.486 10.186,23.852C10.891,24.557 11.829,24.945 12.826,24.945Z" transform="rotate(360 12.826 23.598)" fill="#000000"/>
<path d="M18.75,42.375L18.75,42.375C18.232,42.375 17.813,42.795 17.813,43.313C17.813,43.83 18.233,44.25 18.75,44.25C19.268,44.25 19.688,43.83 19.688,43.313C19.688,42.795 19.268,42.375 18.75,42.375Z" fill="#000000"/>
</svg>
