<svg width="36" height="48" viewBox="0 0 36 48" fill="none" xmlns="http://www.w3.org/2000/svg" xmlns:xlink="http://www.w3.org/1999/xlink">
<path d="M25.991,14.963C25.991,17.189 26.011,19.418 25.991,21.643C25.942,26.375 22.084,29.974 17.049,30C12.023,30.025 8.067,26.423 8.03,21.716C7.994,17.218 7.986,12.716 8.03,8.218C8.071,3.588 11.978,0.029 16.96,0C21.982,-0.029 25.922,3.577 25.983,8.284C26.011,10.509 25.987,12.738 25.987,14.963L25.991,14.963Z" fill="#E4E4E3"/>
<path d="M19.348,38.309L19.348,41.511C20.724,41.511 22.071,41.499 23.418,41.511C25.311,41.531 26.34,42.327 26.348,43.741C26.353,45.16 25.319,45.983 23.439,45.991C19.124,46.008 14.804,46.008 10.489,45.991C8.617,45.983 7.584,45.148 7.601,43.725C7.618,42.311 8.647,41.535 10.548,41.507C11.759,41.491 12.97,41.491 14.182,41.475C14.275,41.475 14.368,41.411 14.554,41.339L14.554,38.337C13.932,38.192 13.284,38.044 12.636,37.895C5.517,36.256 0.101,30.08 -0.268,23.133C-0.352,21.538 -0.344,19.934 -0.297,18.335C-0.259,16.977 0.66,16.069 1.892,16.025C3.163,15.981 4.166,16.941 4.226,18.355C4.289,19.854 4.17,21.365 4.323,22.852C5.051,29.859 10.468,34.267 17.925,34.002C24.477,33.769 29.588,28.469 29.694,21.787C29.715,20.537 29.664,19.284 29.74,18.038C29.817,16.796 30.689,16.097 31.904,16.057C33.124,16.017 34.081,16.672 34.191,17.901C34.763,24.25 33.67,30.072 28.224,34.492C25.675,36.557 22.719,37.726 19.34,38.305L19.348,38.309Z" fill="#E4E4E3"/>
</svg>
