<svg width="36" height="46" viewBox="0 0 36 46" fill="none" xmlns="http://www.w3.org/2000/svg" xmlns:xlink="http://www.w3.org/1999/xlink">
<path d="M25.991,14.963C25.991,17.189 26.011,19.418 25.991,21.643C25.942,26.375 22.084,29.974 17.049,30C12.023,30.025 8.067,26.423 8.03,21.716C7.994,17.218 7.986,12.716 8.03,8.218C8.071,3.588 11.978,0.029 16.96,0C21.982,-0.029 25.922,3.577 25.983,8.284C26.011,10.509 25.987,12.738 25.987,14.963L25.991,14.963Z" fill="#E4E4E3"/>
<path d="M19.348,38.305L19.348,41.508C20.724,41.508 22.071,41.495 23.418,41.508C25.311,41.528 26.34,42.323 26.348,43.738C26.353,45.156 25.319,45.98 23.439,45.988C19.124,46.004 14.804,46.004 10.489,45.988C8.617,45.98 7.584,45.144 7.601,43.721C7.618,42.307 8.647,41.532 10.548,41.504C11.759,41.487 12.97,41.487 14.182,41.471C14.275,41.471 14.368,41.407 14.554,41.335L14.554,38.333C13.932,38.189 13.284,38.04 12.636,37.891C5.517,36.252 0.101,30.076 -0.268,23.129C-0.352,21.534 -0.344,19.931 -0.297,18.331C-0.259,16.973 0.66,16.065 1.892,16.021C3.163,15.977 4.166,16.937 4.226,18.351C4.289,19.85 4.17,21.361 4.323,22.848C5.051,29.855 10.468,34.263 17.925,33.998C24.477,33.765 29.588,28.465 29.694,21.783C29.715,20.533 29.664,19.28 29.74,18.034C29.817,16.792 30.689,16.093 31.904,16.053C33.124,16.013 34.081,16.668 34.191,17.897C34.763,24.246 33.67,30.068 28.224,34.488C25.675,36.553 22.719,37.723 19.34,38.301L19.348,38.305Z" fill="#E4E4E3"/>
</svg>
