<svg width="112" height="112" viewBox="0 0 112 112" fill="none" xmlns="http://www.w3.org/2000/svg" xmlns:xlink="http://www.w3.org/1999/xlink">
<path d="M46.167,90.284L46.167,21.696L54.344,12.621C54.707,12.218 54.906,11.698 54.906,11.156L54.906,2.188C54.906,0.981 53.925,0 52.719,0L33.031,0C31.825,0 30.844,0.981 30.844,2.188L30.844,11.156C30.844,11.697 31.043,12.217 31.404,12.619L39.604,21.74L39.604,90.28L31.406,99.38C31.043,99.782 30.844,100.302 30.844,100.844L30.844,109.812C30.844,111.019 31.825,112 33.031,112L52.719,112C53.925,112 54.906,111.019 54.906,109.812L54.906,100.844C54.906,100.303 54.707,99.783 54.346,99.381L46.167,90.284Z" fill="#292927"/>
<rect  x="52.729" y="45.938" width="59.27" height="19.895" fill="#292927"/>
<path d="M108.719,26.469L96.578,26.469L96.578,39.375L112,39.375L112,29.75C112,27.938 110.531,26.469 108.719,26.469Z" fill="#292927"/>
<rect  x="74.703" y="26.469" width="15.203" height="12.906" fill="#292927"/>
<rect  x="74.703" y="72.396" width="15.203" height="13.136" fill="#292927"/>
<path d="M96.578,85.532L108.719,85.532C110.531,85.532 112,84.063 112,82.251L112,72.396L96.578,72.396L96.578,85.532Z" fill="#292927"/>
<rect  x="52.729" y="72.396" width="15.411" height="13.136" fill="#292927"/>
<rect  x="52.729" y="26.469" width="15.411" height="12.906" fill="#292927"/>
<rect  x="19.917" y="26.469" width="13.125" height="13.125" fill="#292927"/>
<rect  x="0" y="46.156" width="33.042" height="19.677" fill="#292927"/>
<path d="M0,82.251C0,84.063 1.469,85.532 3.281,85.532L13.355,85.532L13.355,72.396L0,72.396L0,82.251Z" fill="#292927"/>
<rect  x="19.917" y="72.396" width="13.125" height="13.136" fill="#292927"/>
<path d="M13.355,26.469L3.281,26.469C1.469,26.469 0,27.938 0,29.75L0,39.594L13.355,39.594L13.355,26.469Z" fill="#292927"/>
</svg>
