<svg width="114" height="112" viewBox="0 0 114 112" fill="none" xmlns="http://www.w3.org/2000/svg" xmlns:xlink="http://www.w3.org/1999/xlink">
<path d="M14.117,0L4.273,0C2.461,0 0.992,1.469 0.992,3.281L0.992,13.125L14.117,13.125L14.117,0Z" fill="#FFFFFF"/>
<rect  x="20.68" y="0" width="13.125" height="13.125" fill="#FFFFFF"/>
<path d="M53.492,3.281C53.492,1.469 52.023,0 50.211,0L40.367,0L40.367,13.125L53.492,13.125L53.492,3.281Z" fill="#FFFFFF"/>
<path d="M0.992,108.719C0.992,110.531 2.461,112 4.273,112L14.117,112L14.117,98.875L0.992,98.875L0.992,108.719Z" fill="#FFFFFF"/>
<rect  x="20.68" y="98.875" width="13.125" height="13.125" fill="#FFFFFF"/>
<path d="M40.367,112L50.211,112C52.023,112 53.492,110.531 53.492,108.719L53.492,98.875L40.367,98.875L40.367,112Z" fill="#FFFFFF"/>
<path d="M104.523,56.602C104.475,56.571 104.429,56.54 104.38,56.511L90.291,48.34L104.38,40.169C104.429,40.14 104.475,40.108 104.523,40.077C109.328,37.213 112.555,31.966 112.555,25.977C112.555,16.93 105.195,9.57 96.149,9.57C87.103,9.57 79.743,16.93 79.743,25.977C79.743,30.157 81.316,33.974 83.899,36.874L77.21,40.753L60.055,30.805L60.055,45.977L64.129,48.34L29.672,68.323C28.524,68.989 27.89,70.281 28.066,71.597C28.242,72.912 29.193,73.992 30.475,74.333C37.106,76.096 44.027,75.171 49.962,71.729L77.21,55.926L83.899,59.805C81.316,62.706 79.743,66.523 79.743,70.703C79.743,79.749 87.102,87.109 96.149,87.109C105.195,87.109 112.555,79.749 112.555,70.703C112.555,64.714 109.328,59.467 104.523,56.602ZM96.149,16.133C101.577,16.133 105.993,20.549 105.993,25.977C105.993,31.404 101.577,35.82 96.149,35.82C90.721,35.82 86.305,31.404 86.305,25.977C86.305,20.549 90.721,16.133 96.149,16.133ZM96.149,80.547C90.721,80.547 86.305,76.131 86.305,70.703C86.305,65.275 90.721,60.859 96.149,60.859C101.577,60.859 105.993,65.275 105.993,70.703C105.993,76.131 101.577,80.547 96.149,80.547Z" fill="#FFFFFF"/>
<path d="M37.03,81.773C37.03,81.773 37.03,81.773 37.03,81.773C34.233,81.773 31.431,81.404 28.702,80.679C24.842,79.652 22.005,76.431 21.474,72.472C20.945,68.509 22.836,64.655 26.292,62.65L53.492,46.875L53.492,19.688L0.992,19.688L0.992,92.313L53.492,92.313L53.492,77.221L53.167,77.409C48.245,80.264 42.665,81.773 37.03,81.773Z" fill="#FFFFFF"/>
</svg>
