<svg width="32" height="44" viewBox="0 0 32 44" fill="none" xmlns="http://www.w3.org/2000/svg" xmlns:xlink="http://www.w3.org/1999/xlink">
<path d="M9.603,42.385C10.968,43.205 12.662,43.205 14.041,42.385C15.42,41.566 16.267,40.309 16.267,38.67L7.391,38.67C7.391,40.309 8.237,41.566 9.616,42.385L9.603,42.385Z" fill="#FFFFFF"/>
<path d="M9.561,12.887C9.492,13.142 9.383,13.325 9.151,13.396C5.286,14.597 2.815,17.422 2.815,21.096L2.815,27.269C2.815,30.095 1.695,30.674 0.289,31.748C-1.746,33.316 -1.282,36.565 1.053,36.565L22.574,36.565C24.91,36.565 25.374,33.316 23.339,31.748C21.933,30.66 20.813,30.095 20.813,27.269L20.813,21.76C15.542,21.533 11.104,17.874 9.561,12.887Z" fill="#FFFFFF"/>
<path d="M30.997,8.988C30.997,3.478 26.668,-1 21.342,-1C16.016,-1 11.688,3.478 11.688,8.988C11.688,9.327 11.701,9.666 11.742,10.005C11.769,10.005 11.783,10.005 11.81,10.005C13.026,10.005 13.995,10.782 13.995,11.969C13.995,12.718 14.023,13.269 14.473,13.41C17.518,14.357 19.69,16.334 20.468,18.92C20.755,18.948 21.042,18.962 21.342,18.962C26.668,18.962 30.997,14.484 30.997,8.974L30.997,8.988Z" fill="#55B25B"/>
</svg>
