<svg width="182" height="180" viewBox="0 0 182 180" fill="none" xmlns="http://www.w3.org/2000/svg" xmlns:xlink="http://www.w3.org/1999/xlink">
<path d="M93.115,73.825C95.056,73.825 96.63,72.251 96.63,70.31C96.63,68.368 95.056,66.794 93.115,66.794L93.112,66.794C91.171,66.794 89.598,68.368 89.598,70.31C89.598,72.251 91.173,73.825 93.115,73.825Z" fill="#696963"/>
<path d="M110.693,73.825C112.635,73.825 114.208,72.251 114.208,70.31C114.208,68.368 112.635,66.794 110.693,66.794L110.69,66.794C108.749,66.794 107.176,68.368 107.176,70.31C107.176,72.251 108.751,73.825 110.693,73.825Z" fill="#696963"/>
<path d="M128.269,73.825C130.211,73.825 131.785,72.251 131.785,70.31C131.785,68.368 130.211,66.794 128.269,66.794L128.267,66.794C126.325,66.794 124.752,68.368 124.752,70.31C124.752,72.251 126.327,73.825 128.269,73.825Z" fill="#696963"/>
<path d="M172.571,110.799C172.167,109.386 171.551,108.062 170.76,106.864C177.466,95.867 181,83.28 181,70.31C181,31.541 149.459,0 110.69,0C92.205,0 75.363,7.171 62.8,18.876C60.153,16.346 56.589,14.869 52.846,14.869C52.417,14.869 51.988,14.888 51.562,14.926C47.736,10.037 41.789,7.084 35.517,7.084C25.47,7.084 17.102,14.405 15.466,23.992C9.551,24.693 4.949,29.738 4.949,35.838C4.949,42.415 10.275,47.766 16.822,47.766L44.087,47.766C41.684,54.845 40.381,62.428 40.381,70.31C40.381,84.669 44.707,98.037 52.126,109.177L5.528,153.834C5.51,153.851 5.492,153.868 5.474,153.886C-0.491,159.852 -0.491,169.559 5.474,175.525C8.457,178.508 12.376,180 16.294,180C20.212,180 24.131,178.508 27.114,175.525C27.131,175.508 27.149,175.49 27.166,175.472L71.821,128.873C82.962,136.291 96.33,140.619 110.69,140.619C121.72,140.619 132.268,138.14 142.055,133.251L169.575,133.251C175.874,133.251 181,128.125 181,121.825C181,116.562 177.422,112.119 172.571,110.799ZM16.822,40.734C14.198,40.734 11.98,38.492 11.98,35.837C11.98,33.137 14.177,30.94 16.877,30.94L18.692,30.94C20.633,30.94 22.207,29.366 22.207,27.425C22.207,20.086 28.178,14.115 35.517,14.115C40.235,14.115 44.504,16.533 46.937,20.585C47.75,21.938 49.364,22.583 50.886,22.163C51.521,21.988 52.18,21.899 52.846,21.899C54.743,21.899 56.551,22.643 57.901,23.917C53.48,28.941 49.764,34.599 46.907,40.735L16.822,40.734ZM22.118,170.578C18.892,173.779 13.663,173.771 10.446,170.554C7.23,167.338 7.222,162.109 10.422,158.882L42.274,128.357L52.642,138.725L22.118,170.578ZM57.507,133.647L47.351,123.491L56.345,114.871C59.278,118.442 62.556,121.719 66.126,124.653L57.507,133.647ZM47.412,70.309C47.412,35.417 75.799,7.031 110.691,7.031C145.582,7.031 173.969,35.417 173.969,70.309C173.969,81.525 171.035,92.421 165.454,102.033C163.441,100.96 161.151,100.354 158.739,100.354C158.574,100.354 158.41,100.356 158.246,100.362C163.942,91.376 166.938,81.048 166.938,70.31C166.938,39.295 141.706,14.062 110.691,14.062C101.576,14.062 92.518,16.297 84.497,20.526C82.779,21.431 82.121,23.558 83.026,25.275C83.931,26.993 86.058,27.651 87.776,26.746C94.79,23.047 102.714,21.093 110.69,21.093C137.828,21.093 159.907,43.171 159.907,70.309C159.907,79.466 157.418,88.28 152.681,95.997C149.383,93.804 145.465,92.57 141.41,92.57C131.363,92.57 122.994,99.89 121.359,109.478C116.036,110.108 111.777,114.256 110.977,119.526C110.886,119.526 110.79,119.526 110.691,119.526C83.552,119.526 61.474,97.447 61.474,70.309C61.474,62.332 63.428,54.408 67.125,47.396C68.031,45.678 67.373,43.552 65.655,42.647C63.938,41.741 61.811,42.4 60.906,44.117C56.678,52.136 54.443,61.194 54.443,70.309C54.443,101.324 79.675,126.557 110.69,126.557C111.209,126.557 111.639,126.556 112.044,126.549C113.583,129.708 116.471,132.087 119.95,132.924C116.913,133.366 113.823,133.588 110.691,133.588C75.798,133.588 47.412,105.201 47.412,70.309ZM169.575,126.22L122.715,126.22C120.09,126.22 117.873,123.977 117.873,121.323C117.873,118.623 120.07,116.426 122.77,116.426L124.584,116.426C126.526,116.426 128.1,114.852 128.1,112.91C128.1,105.571 134.071,99.601 141.41,99.601C146.128,99.601 150.397,102.019 152.83,106.07C153.642,107.423 155.257,108.069 156.778,107.649C157.414,107.473 158.073,107.385 158.739,107.385C162.565,107.385 165.784,110.368 166.069,114.177C166.206,116.012 167.735,117.431 169.575,117.431C171.998,117.431 173.969,119.402 173.969,121.825C173.969,124.249 171.998,126.22 169.575,126.22Z" fill="#696963"/>
<path d="M73.403,36.538C75.345,36.538 76.919,34.964 76.919,33.022C76.919,31.081 75.345,29.507 73.403,29.507L73.4,29.507C71.459,29.507 69.886,31.081 69.886,33.022C69.886,34.964 71.461,36.538 73.403,36.538Z" fill="#696963"/>
</svg>
