<svg width="32" height="46" viewBox="0 0 32 46" fill="none" xmlns="http://www.w3.org/2000/svg" xmlns:xlink="http://www.w3.org/1999/xlink">
<path d="M9.603,44.385C10.968,45.205 12.662,45.205 14.041,44.385C15.42,43.566 16.267,42.309 16.267,40.67L7.391,40.67C7.391,42.309 8.237,43.566 9.616,44.385L9.603,44.385Z" fill="#FFFFFF"/>
<path d="M9.561,14.887C9.492,15.142 9.383,15.325 9.151,15.396C5.286,16.597 2.815,19.422 2.815,23.096L2.815,29.269C2.815,32.095 1.695,32.674 0.289,33.748C-1.746,35.316 -1.282,38.565 1.053,38.565L22.574,38.565C24.91,38.565 25.374,35.316 23.339,33.748C21.933,32.66 20.813,32.095 20.813,29.269L20.813,23.76C15.542,23.533 11.104,19.874 9.561,14.887Z" fill="#FFFFFF"/>
<path d="M31,10.988C31,5.478 26.672,1 21.346,1C16.02,1 11.691,5.478 11.691,10.988C11.691,11.327 11.705,11.666 11.746,12.005C11.773,12.005 11.787,12.005 11.814,12.005C13.03,12.005 13.999,12.782 13.999,13.969C13.999,14.718 14.027,15.269 14.477,15.41C17.522,16.357 19.694,18.334 20.472,20.92C20.759,20.948 21.046,20.962 21.346,20.962C26.672,20.962 31,16.484 31,10.974L31,10.988Z" fill="#55B25B"/>
</svg>
