<svg width="106" height="112" viewBox="0 0 106 112" fill="none" xmlns="http://www.w3.org/2000/svg" xmlns:xlink="http://www.w3.org/1999/xlink">
<path d="M2.715,109.645C2.715,110.945 3.769,111.999 5.068,111.999L103.609,111.999C104.908,111.999 105.962,110.945 105.962,109.645L105.962,61.063L2.715,61.063L2.715,109.645ZM24.277,73.065L84.4,73.065C86.348,73.065 87.93,74.647 87.93,76.595C87.93,78.547 86.348,80.126 84.4,80.126L24.277,80.126C22.329,80.126 20.747,78.547 20.747,76.595C20.747,74.647 22.329,73.065 24.277,73.065ZM24.277,92.933L84.4,92.933C86.348,92.933 87.93,94.515 87.93,96.463C87.93,98.414 86.348,99.994 84.4,99.994L24.277,99.994C22.329,99.994 20.747,98.414 20.747,96.463C20.747,94.515 22.329,92.933 24.277,92.933Z" fill="#FFFFFF"/>
<path d="M2.713,54.008L26.481,54.008L35.111,39.023C34.082,39.023 4.96,39.023 2.713,39.023L2.713,54.008Z" fill="#FFFFFF"/>
<path d="M34.629,54L65.415,54L74.045,39.016L43.257,39.016L34.629,54Z" fill="#FFFFFF"/>
<path d="M103.607,39.016L82.19,39.016L73.563,54L105.961,54L105.961,41.369C105.961,40.069 104.907,39.016 103.607,39.016Z" fill="#FFFFFF"/>
<path d="M25.778,33.268L30.524,16.641L1.373,23.908C0.112,24.223 -0.656,25.5 -0.342,26.761L2.713,39.018L25.778,33.268Z" fill="#FFFFFF"/>
<path d="M68.303,7.219L38.431,14.665L33.684,31.293L63.554,23.846L68.303,7.219Z" fill="#FFFFFF"/>
<path d="M102.327,11.757L99.84,1.784C99.525,0.523 98.248,-0.244 96.987,0.071L76.208,5.251L71.459,21.878L100.613,14.61C101.874,14.296 102.642,13.019 102.327,11.757Z" fill="#FFFFFF"/>
</svg>
