<svg width="138" height="136" viewBox="0 0 138 136" fill="none" xmlns="http://www.w3.org/2000/svg" xmlns:xlink="http://www.w3.org/1999/xlink">
<path d="M12.334,102C12.334,104.761 14.573,107 17.334,107C20.095,107 22.334,104.761 22.334,102L12.334,102ZM17.334,68L12.334,68L12.334,68L17.334,68ZM68.334,17L68.334,22L68.334,17ZM119.334,68L124.334,68L124.334,68L119.334,68ZM114.334,102C114.334,104.761 116.573,107 119.334,107C122.095,107 124.334,104.761 124.334,102L114.334,102ZM22.334,102L22.334,68L12.334,68L12.334,102L22.334,102ZM22.334,68C22.334,55.8 27.18,44.1 35.807,35.473L28.736,28.402C18.234,38.904 12.334,53.148 12.334,68L22.334,68ZM35.807,35.473C44.434,26.846 56.134,22 68.334,22L68.334,12C53.482,12 39.238,17.9 28.736,28.402L35.807,35.473ZM68.334,22C80.534,22 92.234,26.846 100.861,35.473L107.932,28.402C97.43,17.9 83.186,12 68.334,12L68.334,22ZM100.861,35.473C109.488,44.1 114.334,55.8 114.334,68L124.334,68C124.334,53.148 118.434,38.904 107.932,28.402L100.861,35.473ZM114.334,68L114.334,102L124.334,102L124.334,68L114.334,68Z" fill="#E4E4E3"/>
<path d="M91.001,107.666L96.001,107.666L91.001,107.666ZM91.001,90.666L96.001,90.666L91.001,90.666ZM102.334,79.333L102.334,84.333L102.334,79.333ZM119.334,79.333L124.334,79.333C124.334,76.572 122.095,74.333 119.334,74.333L119.334,79.333ZM17.334,107.666L12.334,107.666L17.334,107.666ZM45.667,107.666L50.667,107.666L45.667,107.666ZM45.667,90.666L50.667,90.666L45.667,90.666ZM17.334,79.333L17.334,74.333C14.573,74.333 12.334,76.572 12.334,79.333L17.334,79.333ZM114.334,107.666C114.334,109.346 113.667,110.957 112.479,112.145L119.55,119.216C122.613,116.153 124.334,111.998 124.334,107.666L114.334,107.666ZM112.479,112.145C111.291,113.332 109.68,114 108.001,114L108.001,124C112.333,124 116.487,122.279 119.55,119.216L112.479,112.145ZM108.001,114L102.334,114L102.334,124L108.001,124L108.001,114ZM102.334,114C100.654,114 99.043,113.332 97.856,112.145L90.785,119.216C93.848,122.279 98.002,124 102.334,124L102.334,114ZM97.856,112.145C96.668,110.957 96.001,109.346 96.001,107.666L86.001,107.666C86.001,111.998 87.721,116.153 90.785,119.216L97.856,112.145ZM96.001,107.666L96.001,90.666L86.001,90.666L86.001,107.666L96.001,107.666ZM96.001,90.666C96.001,88.987 96.668,87.376 97.856,86.188L90.785,79.117C87.721,82.18 86.001,86.334 86.001,90.666L96.001,90.666ZM97.856,86.188C99.043,85 100.654,84.333 102.334,84.333L102.334,74.333C98.002,74.333 93.848,76.054 90.785,79.117L97.856,86.188ZM102.334,84.333L119.334,84.333L119.334,74.333L102.334,74.333L102.334,84.333ZM114.334,79.333L114.334,107.666L124.334,107.666L124.334,79.333L114.334,79.333ZM12.334,107.666C12.334,111.998 14.055,116.153 17.118,119.216L24.189,112.145C23.001,110.957 22.334,109.346 22.334,107.666L12.334,107.666ZM17.118,119.216C20.181,122.279 24.335,124 28.667,124L28.667,114C26.988,114 25.377,113.332 24.189,112.145L17.118,119.216ZM28.667,124L34.334,124L34.334,114L28.667,114L28.667,124ZM34.334,124C38.666,124 42.82,122.279 45.883,119.216L38.812,112.145C37.625,113.332 36.014,114 34.334,114L34.334,124ZM45.883,119.216C48.947,116.153 50.667,111.998 50.667,107.666L40.667,107.666C40.667,109.346 40,110.957 38.812,112.145L45.883,119.216ZM50.667,107.666L50.667,90.666L40.667,90.666L40.667,107.666L50.667,107.666ZM50.667,90.666C50.667,86.334 48.947,82.18 45.883,79.117L38.812,86.188C40,87.376 40.667,88.987 40.667,90.666L50.667,90.666ZM45.883,79.117C42.82,76.054 38.666,74.333 34.334,74.333L34.334,84.333C36.014,84.333 37.625,85 38.812,86.188L45.883,79.117ZM34.334,74.333L17.334,74.333L17.334,84.333L34.334,84.333L34.334,74.333ZM12.334,79.333L12.334,107.666L22.334,107.666L22.334,79.333L12.334,79.333Z" fill="#E4E4E3"/>
</svg>
