<svg width="136" height="136" viewBox="0 0 136 136" fill="none" xmlns="http://www.w3.org/2000/svg" xmlns:xlink="http://www.w3.org/1999/xlink">
<path d="M11,102C11,104.761 13.239,107 16,107C18.761,107 21,104.761 21,102L11,102ZM16,68L11,68L11,68L16,68ZM67,17L67,22L67,17ZM118,68L123,68L123,68L118,68ZM113,102C113,104.761 115.239,107 118,107C120.761,107 123,104.761 123,102L113,102ZM21,102L21,68L11,68L11,102L21,102ZM21,68C21,55.8 25.846,44.1 34.473,35.473L27.402,28.402C16.9,38.904 11,53.148 11,68L21,68ZM34.473,35.473C43.1,26.846 54.8,22 67,22L67,12C52.148,12 37.904,17.9 27.402,28.402L34.473,35.473ZM67,22C79.2,22 90.9,26.846 99.527,35.473L106.598,28.402C96.096,17.9 81.852,12 67,12L67,22ZM99.527,35.473C108.154,44.1 113,55.8 113,68L123,68C123,53.148 117.1,38.904 106.598,28.402L99.527,35.473ZM113,68L113,102L123,102L123,68L113,68Z" fill="#454440"/>
<path d="M89.667,107.666L94.667,107.666L89.667,107.666ZM89.667,90.666L94.667,90.666L89.667,90.666ZM101,79.333L101,84.333L101,79.333ZM118,79.333L123,79.333C123,76.572 120.761,74.333 118,74.333L118,79.333ZM16,107.666L11,107.666L16,107.666ZM44.333,107.666L49.333,107.666L44.333,107.666ZM44.333,90.666L49.333,90.666L44.333,90.666ZM16,79.333L16,74.333C13.239,74.333 11,76.572 11,79.333L16,79.333ZM113,107.666C113,109.346 112.333,110.957 111.145,112.145L118.216,119.216C121.279,116.153 123,111.998 123,107.666L113,107.666ZM111.145,112.145C109.957,113.332 108.346,114 106.667,114L106.667,124C110.999,124 115.153,122.279 118.216,119.216L111.145,112.145ZM106.667,114L101,114L101,124L106.667,124L106.667,114ZM101,114C99.32,114 97.709,113.332 96.522,112.145L89.451,119.216C92.514,122.279 96.668,124 101,124L101,114ZM96.522,112.145C95.334,110.957 94.667,109.346 94.667,107.666L84.667,107.666C84.667,111.998 86.387,116.153 89.451,119.216L96.522,112.145ZM94.667,107.666L94.667,90.666L84.667,90.666L84.667,107.666L94.667,107.666ZM94.667,90.666C94.667,88.987 95.334,87.376 96.522,86.188L89.451,79.117C86.387,82.18 84.667,86.334 84.667,90.666L94.667,90.666ZM96.522,86.188C97.709,85 99.32,84.333 101,84.333L101,74.333C96.668,74.333 92.514,76.054 89.451,79.117L96.522,86.188ZM101,84.333L118,84.333L118,74.333L101,74.333L101,84.333ZM113,79.333L113,107.666L123,107.666L123,79.333L113,79.333ZM11,107.666C11,111.998 12.721,116.153 15.784,119.216L22.855,112.145C21.667,110.957 21,109.346 21,107.666L11,107.666ZM15.784,119.216C18.847,122.279 23.001,124 27.333,124L27.333,114C25.654,114 24.043,113.332 22.855,112.145L15.784,119.216ZM27.333,124L33,124L33,114L27.333,114L27.333,124ZM33,124C37.332,124 41.486,122.279 44.549,119.216L37.478,112.145C36.291,113.332 34.68,114 33,114L33,124ZM44.549,119.216C47.613,116.153 49.333,111.998 49.333,107.666L39.333,107.666C39.333,109.346 38.666,110.957 37.478,112.145L44.549,119.216ZM49.333,107.666L49.333,90.666L39.333,90.666L39.333,107.666L49.333,107.666ZM49.333,90.666C49.333,86.334 47.613,82.18 44.549,79.117L37.478,86.188C38.666,87.376 39.333,88.987 39.333,90.666L49.333,90.666ZM44.549,79.117C41.486,76.054 37.332,74.333 33,74.333L33,84.333C34.68,84.333 36.291,85 37.478,86.188L44.549,79.117ZM33,74.333L16,74.333L16,84.333L33,84.333L33,74.333ZM11,79.333L11,107.666L21,107.666L21,79.333L11,79.333Z" fill="#454440"/>
</svg>
