<svg width="136" height="136" viewBox="0 0 136 136" fill="none" xmlns="http://www.w3.org/2000/svg" xmlns:xlink="http://www.w3.org/1999/xlink">
<path d="M12,102C12,104.761 14.239,107 17,107C19.761,107 22,104.761 22,102L12,102ZM17,68L12,68L12,68L17,68ZM68,17L68,22L68,17ZM119,68L124,68L124,68L119,68ZM114,102C114,104.761 116.239,107 119,107C121.761,107 124,104.761 124,102L114,102ZM22,102L22,68L12,68L12,102L22,102ZM22,68C22,55.8 26.846,44.1 35.473,35.473L28.402,28.402C17.9,38.904 12,53.148 12,68L22,68ZM35.473,35.473C44.1,26.846 55.8,22 68,22L68,12C53.148,12 38.904,17.9 28.402,28.402L35.473,35.473ZM68,22C80.2,22 91.9,26.846 100.527,35.473L107.598,28.402C97.096,17.9 82.852,12 68,12L68,22ZM100.527,35.473C109.154,44.1 114,55.8 114,68L124,68C124,53.148 118.1,38.904 107.598,28.402L100.527,35.473ZM114,68L114,102L124,102L124,68L114,68Z" fill="#454440"/>
<path d="M90.667,107.665L95.667,107.665L90.667,107.665ZM90.667,90.665L95.667,90.665L90.667,90.665ZM102,79.332L102,84.332L102,79.332ZM119,79.332L124,79.332C124,76.571 121.761,74.332 119,74.332L119,79.332ZM17,107.665L12,107.665L17,107.665ZM45.333,107.665L50.333,107.665L45.333,107.665ZM45.333,90.665L50.333,90.665L45.333,90.665ZM17,79.332L17,74.332C14.239,74.332 12,76.571 12,79.332L17,79.332ZM114,107.665C114,109.345 113.333,110.956 112.145,112.144L119.216,119.215C122.279,116.152 124,111.997 124,107.665L114,107.665ZM112.145,112.144C110.957,113.331 109.346,113.999 107.667,113.999L107.667,123.999C111.999,123.999 116.153,122.278 119.216,119.215L112.145,112.144ZM107.667,113.999L102,113.999L102,123.999L107.667,123.999L107.667,113.999ZM102,113.999C100.32,113.999 98.709,113.331 97.522,112.144L90.451,119.215C93.514,122.278 97.668,123.999 102,123.999L102,113.999ZM97.522,112.144C96.334,110.956 95.667,109.345 95.667,107.665L85.667,107.665C85.667,111.997 87.387,116.152 90.451,119.215L97.522,112.144ZM95.667,107.665L95.667,90.665L85.667,90.665L85.667,107.665L95.667,107.665ZM95.667,90.665C95.667,88.986 96.334,87.375 97.522,86.187L90.451,79.116C87.387,82.179 85.667,86.333 85.667,90.665L95.667,90.665ZM97.522,86.187C98.709,84.999 100.32,84.332 102,84.332L102,74.332C97.668,74.332 93.514,76.053 90.451,79.116L97.522,86.187ZM102,84.332L119,84.332L119,74.332L102,74.332L102,84.332ZM114,79.332L114,107.665L124,107.665L124,79.332L114,79.332ZM12,107.665C12,111.997 13.721,116.152 16.784,119.215L23.855,112.144C22.667,110.956 22,109.345 22,107.665L12,107.665ZM16.784,119.215C19.847,122.278 24.001,123.999 28.333,123.999L28.333,113.999C26.654,113.999 25.043,113.331 23.855,112.144L16.784,119.215ZM28.333,123.999L34,123.999L34,113.999L28.333,113.999L28.333,123.999ZM34,123.999C38.332,123.999 42.486,122.278 45.549,119.215L38.478,112.144C37.291,113.331 35.68,113.999 34,113.999L34,123.999ZM45.549,119.215C48.613,116.152 50.333,111.997 50.333,107.665L40.333,107.665C40.333,109.345 39.666,110.956 38.478,112.144L45.549,119.215ZM50.333,107.665L50.333,90.665L40.333,90.665L40.333,107.665L50.333,107.665ZM50.333,90.665C50.333,86.334 48.613,82.179 45.549,79.116L38.478,86.187C39.666,87.375 40.333,88.986 40.333,90.665L50.333,90.665ZM45.549,79.116C42.486,76.053 38.332,74.332 34,74.332L34,84.332C35.68,84.332 37.291,84.999 38.478,86.187L45.549,79.116ZM34,74.332L17,74.332L17,84.332L34,84.332L34,74.332ZM12,79.332L12,107.665L22,107.665L22,79.332L12,79.332Z" fill="#454440"/>
</svg>
