<svg width="136" height="136" viewBox="0 0 136 136" fill="none" xmlns="http://www.w3.org/2000/svg" xmlns:xlink="http://www.w3.org/1999/xlink">
<path d="M11.781,102C11.781,104.761 14.02,107 16.781,107C19.543,107 21.781,104.761 21.781,102L11.781,102ZM16.781,68L11.781,68L11.781,68L16.781,68ZM67.781,17L67.781,22L67.781,17ZM118.781,68L123.781,68L123.781,68L118.781,68ZM113.781,102C113.781,104.761 116.02,107 118.781,107C121.543,107 123.781,104.761 123.781,102L113.781,102ZM21.781,102L21.781,68L11.781,68L11.781,102L21.781,102ZM21.781,68C21.781,55.8 26.628,44.1 35.254,35.473L28.183,28.402C17.681,38.904 11.781,53.148 11.781,68L21.781,68ZM35.254,35.473C43.881,26.846 55.581,22 67.781,22L67.781,12C52.929,12 38.685,17.9 28.183,28.402L35.254,35.473ZM67.781,22C79.981,22 91.681,26.846 100.308,35.473L107.379,28.402C96.877,17.9 82.633,12 67.781,12L67.781,22ZM100.308,35.473C108.935,44.1 113.781,55.8 113.781,68L123.781,68C123.781,53.148 117.881,38.904 107.379,28.402L100.308,35.473ZM113.781,68L113.781,102L123.781,102L123.781,68L113.781,68Z" fill="#CDCDCD"/>
<path d="M90.448,107.667L95.448,107.667L90.448,107.667ZM90.448,90.667L95.448,90.667L90.448,90.667ZM101.781,79.334L101.781,84.334L101.781,79.334ZM118.781,79.334L123.781,79.334C123.781,76.573 121.543,74.334 118.781,74.334L118.781,79.334ZM16.781,107.667L11.781,107.667L16.781,107.667ZM45.115,107.667L50.115,107.667L45.115,107.667ZM45.115,90.667L50.115,90.667L45.115,90.667ZM16.781,79.334L16.781,74.334C14.02,74.334 11.781,76.573 11.781,79.334L16.781,79.334ZM113.781,107.667C113.781,109.347 113.114,110.958 111.926,112.146L118.997,119.217C122.06,116.154 123.781,111.999 123.781,107.667L113.781,107.667ZM111.926,112.146C110.738,113.333 109.128,114.001 107.448,114.001L107.448,124.001C111.78,124.001 115.934,122.28 118.997,119.217L111.926,112.146ZM107.448,114.001L101.781,114.001L101.781,124.001L107.448,124.001L107.448,114.001ZM101.781,114.001C100.101,114.001 98.491,113.333 97.303,112.146L90.232,119.217C93.295,122.28 97.449,124.001 101.781,124.001L101.781,114.001ZM97.303,112.146C96.115,110.958 95.448,109.347 95.448,107.667L85.448,107.667C85.448,111.999 87.169,116.154 90.232,119.217L97.303,112.146ZM95.448,107.667L95.448,90.667L85.448,90.667L85.448,107.667L95.448,107.667ZM95.448,90.667C95.448,88.988 96.115,87.377 97.303,86.189L90.232,79.118C87.169,82.181 85.448,86.335 85.448,90.667L95.448,90.667ZM97.303,86.189C98.491,85.001 100.101,84.334 101.781,84.334L101.781,74.334C97.449,74.334 93.295,76.055 90.232,79.118L97.303,86.189ZM101.781,84.334L118.781,84.334L118.781,74.334L101.781,74.334L101.781,84.334ZM113.781,79.334L113.781,107.667L123.781,107.667L123.781,79.334L113.781,79.334ZM11.781,107.667C11.781,111.999 13.502,116.154 16.565,119.217L23.636,112.146C22.449,110.958 21.781,109.347 21.781,107.667L11.781,107.667ZM16.565,119.217C19.628,122.28 23.783,124.001 28.115,124.001L28.115,114.001C26.435,114.001 24.824,113.333 23.636,112.146L16.565,119.217ZM28.115,124.001L33.781,124.001L33.781,114.001L28.115,114.001L28.115,124.001ZM33.781,124.001C38.113,124.001 42.268,122.28 45.331,119.217L38.26,112.146C37.072,113.333 35.461,114.001 33.781,114.001L33.781,124.001ZM45.331,119.217C48.394,116.154 50.115,111.999 50.115,107.667L40.115,107.667C40.115,109.347 39.447,110.958 38.26,112.146L45.331,119.217ZM50.115,107.667L50.115,90.667L40.115,90.667L40.115,107.667L50.115,107.667ZM50.115,90.667C50.115,86.335 48.394,82.181 45.331,79.118L38.26,86.189C39.447,87.377 40.115,88.988 40.115,90.667L50.115,90.667ZM45.331,79.118C42.268,76.055 38.113,74.334 33.781,74.334L33.781,84.334C35.461,84.334 37.072,85.001 38.26,86.189L45.331,79.118ZM33.781,74.334L16.781,74.334L16.781,84.334L33.781,84.334L33.781,74.334ZM11.781,79.334L11.781,107.667L21.781,107.667L21.781,79.334L11.781,79.334Z" fill="#CDCDCD"/>
</svg>
