<svg width="136" height="136" viewBox="0 0 136 136" fill="none" xmlns="http://www.w3.org/2000/svg" xmlns:xlink="http://www.w3.org/1999/xlink">
<path d="M11,102C11,104.761 13.239,107 16,107C18.761,107 21,104.761 21,102L11,102ZM16,68L11,68L11,68L16,68ZM67,17L67,22L67,17ZM118,68L123,68L123,68L118,68ZM113,102C113,104.761 115.239,107 118,107C120.761,107 123,104.761 123,102L113,102ZM21,102L21,68L11,68L11,102L21,102ZM21,68C21,55.8 25.846,44.1 34.473,35.473L27.402,28.402C16.9,38.904 11,53.148 11,68L21,68ZM34.473,35.473C43.1,26.846 54.8,22 67,22L67,12C52.148,12 37.904,17.9 27.402,28.402L34.473,35.473ZM67,22C79.2,22 90.9,26.846 99.527,35.473L106.598,28.402C96.096,17.9 81.852,12 67,12L67,22ZM99.527,35.473C108.154,44.1 113,55.8 113,68L123,68C123,53.148 117.1,38.904 106.598,28.402L99.527,35.473ZM113,68L113,102L123,102L123,68L113,68Z" fill="#454440"/>
<path d="M89.667,107.665L94.667,107.665L89.667,107.665ZM89.667,90.665L94.667,90.665L89.667,90.665ZM101,79.332L101,84.332L101,79.332ZM118,79.332L123,79.332C123,76.571 120.761,74.332 118,74.332L118,79.332ZM16,107.665L11,107.665L16,107.665ZM44.333,107.665L49.333,107.665L44.333,107.665ZM44.333,90.665L49.333,90.665L44.333,90.665ZM16,79.332L16,74.332C13.239,74.332 11,76.571 11,79.332L16,79.332ZM113,107.665C113,109.345 112.333,110.956 111.145,112.144L118.216,119.215C121.279,116.152 123,111.997 123,107.665L113,107.665ZM111.145,112.144C109.957,113.331 108.346,113.999 106.667,113.999L106.667,123.999C110.999,123.999 115.153,122.278 118.216,119.215L111.145,112.144ZM106.667,113.999L101,113.999L101,123.999L106.667,123.999L106.667,113.999ZM101,113.999C99.32,113.999 97.709,113.331 96.522,112.144L89.451,119.215C92.514,122.278 96.668,123.999 101,123.999L101,113.999ZM96.522,112.144C95.334,110.956 94.667,109.345 94.667,107.665L84.667,107.665C84.667,111.997 86.387,116.152 89.451,119.215L96.522,112.144ZM94.667,107.665L94.667,90.665L84.667,90.665L84.667,107.665L94.667,107.665ZM94.667,90.665C94.667,88.986 95.334,87.375 96.522,86.187L89.451,79.116C86.387,82.179 84.667,86.333 84.667,90.665L94.667,90.665ZM96.522,86.187C97.709,84.999 99.32,84.332 101,84.332L101,74.332C96.668,74.332 92.514,76.053 89.451,79.116L96.522,86.187ZM101,84.332L118,84.332L118,74.332L101,74.332L101,84.332ZM113,79.332L113,107.665L123,107.665L123,79.332L113,79.332ZM11,107.665C11,111.997 12.721,116.152 15.784,119.215L22.855,112.144C21.667,110.956 21,109.345 21,107.665L11,107.665ZM15.784,119.215C18.847,122.278 23.001,123.999 27.333,123.999L27.333,113.999C25.654,113.999 24.043,113.331 22.855,112.144L15.784,119.215ZM27.333,123.999L33,123.999L33,113.999L27.333,113.999L27.333,123.999ZM33,123.999C37.332,123.999 41.486,122.278 44.549,119.215L37.478,112.144C36.291,113.331 34.68,113.999 33,113.999L33,123.999ZM44.549,119.215C47.613,116.152 49.333,111.997 49.333,107.665L39.333,107.665C39.333,109.345 38.666,110.956 37.478,112.144L44.549,119.215ZM49.333,107.665L49.333,90.665L39.333,90.665L39.333,107.665L49.333,107.665ZM49.333,90.665C49.333,86.334 47.613,82.179 44.549,79.116L37.478,86.187C38.666,87.375 39.333,88.986 39.333,90.665L49.333,90.665ZM44.549,79.116C41.486,76.053 37.332,74.332 33,74.332L33,84.332C34.68,84.332 36.291,84.999 37.478,86.187L44.549,79.116ZM33,74.332L16,74.332L16,84.332L33,84.332L33,74.332ZM11,79.332L11,107.665L21,107.665L21,79.332L11,79.332Z" fill="#454440"/>
</svg>
