<svg width="136" height="136" viewBox="0 0 136 136" fill="none" xmlns="http://www.w3.org/2000/svg" xmlns:xlink="http://www.w3.org/1999/xlink">
<path d="M11.668,102C11.668,104.761 13.907,107 16.668,107C19.429,107 21.668,104.761 21.668,102L11.668,102ZM16.668,68L11.668,68L11.668,68L16.668,68ZM67.668,17L67.668,22L67.668,17ZM118.668,68L123.668,68L123.668,68L118.668,68ZM113.668,102C113.668,104.761 115.907,107 118.668,107C121.429,107 123.668,104.761 123.668,102L113.668,102ZM21.668,102L21.668,68L11.668,68L11.668,102L21.668,102ZM21.668,68C21.668,55.8 26.514,44.1 35.141,35.473L28.07,28.402C17.568,38.904 11.668,53.148 11.668,68L21.668,68ZM35.141,35.473C43.768,26.846 55.468,22 67.668,22L67.668,12C52.816,12 38.572,17.9 28.07,28.402L35.141,35.473ZM67.668,22C79.868,22 91.568,26.846 100.195,35.473L107.266,28.402C96.764,17.9 82.52,12 67.668,12L67.668,22ZM100.195,35.473C108.822,44.1 113.668,55.8 113.668,68L123.668,68C123.668,53.148 117.768,38.904 107.266,28.402L100.195,35.473ZM113.668,68L113.668,102L123.668,102L123.668,68L113.668,68Z" fill="url(#ps_0_5699_24900)"/>
<path d="M90.335,107.666L95.335,107.666L90.335,107.666ZM90.335,90.666L95.335,90.666L90.335,90.666ZM101.668,79.333L101.668,84.333L101.668,79.333ZM118.668,79.333L123.668,79.333C123.668,76.572 121.429,74.333 118.668,74.333L118.668,79.333ZM16.668,107.666L11.668,107.666L16.668,107.666ZM45.001,107.666L50.001,107.666L45.001,107.666ZM45.001,90.666L50.001,90.666L45.001,90.666ZM16.668,79.333L16.668,74.333C13.907,74.333 11.668,76.572 11.668,79.333L16.668,79.333ZM113.668,107.666C113.668,109.346 113.001,110.957 111.813,112.145L118.884,119.216C121.947,116.153 123.668,111.998 123.668,107.666L113.668,107.666ZM111.813,112.145C110.625,113.332 109.014,114 107.335,114L107.335,124C111.667,124 115.821,122.279 118.884,119.216L111.813,112.145ZM107.335,114L101.668,114L101.668,124L107.335,124L107.335,114ZM101.668,114C99.988,114 98.377,113.332 97.19,112.145L90.119,119.216C93.182,122.279 97.336,124 101.668,124L101.668,114ZM97.19,112.145C96.002,110.957 95.335,109.346 95.335,107.666L85.335,107.666C85.335,111.998 87.055,116.153 90.119,119.216L97.19,112.145ZM95.335,107.666L95.335,90.666L85.335,90.666L85.335,107.666L95.335,107.666ZM95.335,90.666C95.335,88.987 96.002,87.376 97.19,86.188L90.119,79.117C87.055,82.18 85.335,86.334 85.335,90.666L95.335,90.666ZM97.19,86.188C98.377,85 99.988,84.333 101.668,84.333L101.668,74.333C97.336,74.333 93.182,76.054 90.119,79.117L97.19,86.188ZM101.668,84.333L118.668,84.333L118.668,74.333L101.668,74.333L101.668,84.333ZM113.668,79.333L113.668,107.666L123.668,107.666L123.668,79.333L113.668,79.333ZM11.668,107.666C11.668,111.998 13.389,116.153 16.452,119.216L23.523,112.145C22.335,110.957 21.668,109.346 21.668,107.666L11.668,107.666ZM16.452,119.216C19.515,122.279 23.669,124 28.001,124L28.001,114C26.322,114 24.711,113.332 23.523,112.145L16.452,119.216ZM28.001,124L33.668,124L33.668,114L28.001,114L28.001,124ZM33.668,124C38,124 42.154,122.279 45.217,119.216L38.146,112.145C36.959,113.332 35.348,114 33.668,114L33.668,124ZM45.217,119.216C48.281,116.153 50.001,111.998 50.001,107.666L40.001,107.666C40.001,109.346 39.334,110.957 38.146,112.145L45.217,119.216ZM50.001,107.666L50.001,90.666L40.001,90.666L40.001,107.666L50.001,107.666ZM50.001,90.666C50.001,86.334 48.281,82.18 45.217,79.117L38.146,86.188C39.334,87.376 40.001,88.987 40.001,90.666L50.001,90.666ZM45.217,79.117C42.154,76.054 38,74.333 33.668,74.333L33.668,84.333C35.348,84.333 36.959,85 38.146,86.188L45.217,79.117ZM33.668,74.333L16.668,74.333L16.668,84.333L33.668,84.333L33.668,74.333ZM11.668,79.333L11.668,107.666L21.668,107.666L21.668,79.333L11.668,79.333Z" fill="url(#ps_0_5699_24901)"/>
<defs>
<linearGradient id="ps_0_5699_24900" x1="-81.158" y1="33.853" x2="216.534" y2="85.14" gradientUnits="userSpaceOnUse">
<stop stop-color="#07A856"/>
<stop offset="0.5" stop-color="#5ED36A"/>
<stop offset="1" stop-color="#8EE5FF"/>
</linearGradient>
<linearGradient id="ps_0_5699_24901" x1="-81.158" y1="87.198" x2="216.534" y2="111.132" gradientUnits="userSpaceOnUse">
<stop stop-color="#07A856"/>
<stop offset="0.5" stop-color="#5ED36A"/>
<stop offset="1" stop-color="#8EE5FF"/>
</linearGradient>
</defs>
</svg>
