<svg width="138" height="136" viewBox="0 0 138 136" fill="none" xmlns="http://www.w3.org/2000/svg" xmlns:xlink="http://www.w3.org/1999/xlink">
<path d="M13,102C13,104.761 15.239,107 18,107C20.761,107 23,104.761 23,102L13,102ZM18,68L13,68L13,68L18,68ZM69,17L69,22L69,17ZM120,68L125,68L125,68L120,68ZM115,102C115,104.761 117.239,107 120,107C122.761,107 125,104.761 125,102L115,102ZM23,102L23,68L13,68L13,102L23,102ZM23,68C23,55.8 27.846,44.1 36.473,35.473L29.402,28.402C18.9,38.904 13,53.148 13,68L23,68ZM36.473,35.473C45.1,26.846 56.8,22 69,22L69,12C54.148,12 39.904,17.9 29.402,28.402L36.473,35.473ZM69,22C81.2,22 92.9,26.846 101.527,35.473L108.598,28.402C98.096,17.9 83.852,12 69,12L69,22ZM101.527,35.473C110.154,44.1 115,55.8 115,68L125,68C125,53.148 119.1,38.904 108.598,28.402L101.527,35.473ZM115,68L115,102L125,102L125,68L115,68Z" fill="#454440"/>
<path d="M91.667,107.665L96.667,107.665L91.667,107.665ZM91.667,90.665L96.667,90.665L91.667,90.665ZM103,79.332L103,84.332L103,79.332ZM120,79.332L125,79.332C125,76.571 122.761,74.332 120,74.332L120,79.332ZM18,107.665L13,107.665L18,107.665ZM46.333,107.665L51.333,107.665L46.333,107.665ZM46.333,90.665L51.333,90.665L46.333,90.665ZM18,79.332L18,74.332C15.239,74.332 13,76.571 13,79.332L18,79.332ZM115,107.665C115,109.345 114.333,110.956 113.145,112.144L120.216,119.215C123.279,116.152 125,111.997 125,107.665L115,107.665ZM113.145,112.144C111.957,113.331 110.346,113.999 108.667,113.999L108.667,123.999C112.999,123.999 117.153,122.278 120.216,119.215L113.145,112.144ZM108.667,113.999L103,113.999L103,123.999L108.667,123.999L108.667,113.999ZM103,113.999C101.32,113.999 99.709,113.331 98.522,112.144L91.451,119.215C94.514,122.278 98.668,123.999 103,123.999L103,113.999ZM98.522,112.144C97.334,110.956 96.667,109.345 96.667,107.665L86.667,107.665C86.667,111.997 88.387,116.152 91.451,119.215L98.522,112.144ZM96.667,107.665L96.667,90.665L86.667,90.665L86.667,107.665L96.667,107.665ZM96.667,90.665C96.667,88.986 97.334,87.375 98.522,86.187L91.451,79.116C88.387,82.179 86.667,86.333 86.667,90.665L96.667,90.665ZM98.522,86.187C99.709,84.999 101.32,84.332 103,84.332L103,74.332C98.668,74.332 94.514,76.053 91.451,79.116L98.522,86.187ZM103,84.332L120,84.332L120,74.332L103,74.332L103,84.332ZM115,79.332L115,107.665L125,107.665L125,79.332L115,79.332ZM13,107.665C13,111.997 14.721,116.152 17.784,119.215L24.855,112.144C23.667,110.956 23,109.345 23,107.665L13,107.665ZM17.784,119.215C20.847,122.278 25.001,123.999 29.333,123.999L29.333,113.999C27.654,113.999 26.043,113.331 24.855,112.144L17.784,119.215ZM29.333,123.999L35,123.999L35,113.999L29.333,113.999L29.333,123.999ZM35,123.999C39.332,123.999 43.486,122.278 46.549,119.215L39.478,112.144C38.291,113.331 36.68,113.999 35,113.999L35,123.999ZM46.549,119.215C49.613,116.152 51.333,111.997 51.333,107.665L41.333,107.665C41.333,109.345 40.666,110.956 39.478,112.144L46.549,119.215ZM51.333,107.665L51.333,90.665L41.333,90.665L41.333,107.665L51.333,107.665ZM51.333,90.665C51.333,86.334 49.613,82.179 46.549,79.116L39.478,86.187C40.666,87.375 41.333,88.986 41.333,90.665L51.333,90.665ZM46.549,79.116C43.486,76.053 39.332,74.332 35,74.332L35,84.332C36.68,84.332 38.291,84.999 39.478,86.187L46.549,79.116ZM35,74.332L18,74.332L18,84.332L35,84.332L35,74.332ZM13,79.332L13,107.665L23,107.665L23,79.332L13,79.332Z" fill="#454440"/>
</svg>
