<svg width="138" height="136" viewBox="0 0 138 136" fill="none" xmlns="http://www.w3.org/2000/svg" xmlns:xlink="http://www.w3.org/1999/xlink">
<path d="M12.508,102C12.508,104.761 14.746,107 17.508,107C20.269,107 22.508,104.761 22.508,102L12.508,102ZM17.508,68L12.508,68L12.508,68L17.508,68ZM68.508,17L68.508,22L68.508,17ZM119.508,68L124.508,68L124.508,68L119.508,68ZM114.508,102C114.508,104.761 116.746,107 119.508,107C122.269,107 124.508,104.761 124.508,102L114.508,102ZM22.508,102L22.508,68L12.508,68L12.508,102L22.508,102ZM22.508,68C22.508,55.8 27.354,44.1 35.981,35.473L28.91,28.402C18.408,38.904 12.508,53.148 12.508,68L22.508,68ZM35.981,35.473C44.608,26.846 56.308,22 68.508,22L68.508,12C53.656,12 39.412,17.9 28.91,28.402L35.981,35.473ZM68.508,22C80.708,22 92.408,26.846 101.035,35.473L108.106,28.402C97.604,17.9 83.36,12 68.508,12L68.508,22ZM101.035,35.473C109.661,44.1 114.508,55.8 114.508,68L124.508,68C124.508,53.148 118.608,38.904 108.106,28.402L101.035,35.473ZM114.508,68L114.508,102L124.508,102L124.508,68L114.508,68Z" fill="#CDCDCD"/>
<path d="M91.174,107.667L96.174,107.667L91.174,107.667ZM91.174,90.667L96.174,90.667L91.174,90.667ZM102.508,79.334L102.508,84.334L102.508,79.334ZM119.508,79.334L124.508,79.334C124.508,76.573 122.269,74.334 119.508,74.334L119.508,79.334ZM17.508,107.667L12.508,107.667L17.508,107.667ZM45.841,107.667L50.841,107.667L45.841,107.667ZM45.841,90.667L50.841,90.667L45.841,90.667ZM17.508,79.334L17.508,74.334C14.746,74.334 12.508,76.573 12.508,79.334L17.508,79.334ZM114.508,107.667C114.508,109.347 113.841,110.958 112.653,112.146L119.724,119.217C122.787,116.154 124.508,111.999 124.508,107.667L114.508,107.667ZM112.653,112.146C111.465,113.333 109.854,114.001 108.174,114.001L108.174,124.001C112.506,124.001 116.661,122.28 119.724,119.217L112.653,112.146ZM108.174,114.001L102.508,114.001L102.508,124.001L108.174,124.001L108.174,114.001ZM102.508,114.001C100.828,114.001 99.217,113.333 98.029,112.146L90.958,119.217C94.021,122.28 98.176,124.001 102.508,124.001L102.508,114.001ZM98.029,112.146C96.842,110.958 96.174,109.347 96.174,107.667L86.174,107.667C86.174,111.999 87.895,116.154 90.958,119.217L98.029,112.146ZM96.174,107.667L96.174,90.667L86.174,90.667L86.174,107.667L96.174,107.667ZM96.174,90.667C96.174,88.988 96.842,87.377 98.029,86.189L90.958,79.118C87.895,82.181 86.174,86.335 86.174,90.667L96.174,90.667ZM98.029,86.189C99.217,85.001 100.828,84.334 102.508,84.334L102.508,74.334C98.176,74.334 94.021,76.055 90.958,79.118L98.029,86.189ZM102.508,84.334L119.508,84.334L119.508,74.334L102.508,74.334L102.508,84.334ZM114.508,79.334L114.508,107.667L124.508,107.667L124.508,79.334L114.508,79.334ZM12.508,107.667C12.508,111.999 14.229,116.154 17.292,119.217L24.363,112.146C23.175,110.958 22.508,109.347 22.508,107.667L12.508,107.667ZM17.292,119.217C20.355,122.28 24.509,124.001 28.841,124.001L28.841,114.001C27.161,114.001 25.551,113.333 24.363,112.146L17.292,119.217ZM28.841,124.001L34.508,124.001L34.508,114.001L28.841,114.001L28.841,124.001ZM34.508,124.001C38.84,124.001 42.994,122.28 46.057,119.217L38.986,112.146C37.798,113.333 36.188,114.001 34.508,114.001L34.508,124.001ZM46.057,119.217C49.12,116.154 50.841,111.999 50.841,107.667L40.841,107.667C40.841,109.347 40.174,110.958 38.986,112.146L46.057,119.217ZM50.841,107.667L50.841,90.667L40.841,90.667L40.841,107.667L50.841,107.667ZM50.841,90.667C50.841,86.335 49.12,82.181 46.057,79.118L38.986,86.189C40.174,87.377 40.841,88.988 40.841,90.667L50.841,90.667ZM46.057,79.118C42.994,76.055 38.84,74.334 34.508,74.334L34.508,84.334C36.188,84.334 37.798,85.001 38.986,86.189L46.057,79.118ZM34.508,74.334L17.508,74.334L17.508,84.334L34.508,84.334L34.508,74.334ZM12.508,79.334L12.508,107.667L22.508,107.667L22.508,79.334L12.508,79.334Z" fill="#CDCDCD"/>
</svg>
