<svg width="56" height="48" viewBox="0 0 56 48" fill="none" xmlns="http://www.w3.org/2000/svg" xmlns:xlink="http://www.w3.org/1999/xlink">
<path d="M2.566,46.483L52.275,46.483C54.058,46.483 55.497,45.041 55.497,43.284L55.497,2.888C55.51,1.131 54.058,-0.312 52.275,-0.312L2.566,-0.312C0.796,-0.312 -0.656,1.131 -0.656,2.888L-0.656,43.271C-0.656,45.028 0.796,46.47 2.566,46.47M43.598,6.034C46.675,6.034 49.171,8.512 49.171,11.567C49.171,14.622 46.675,17.1 43.598,17.1C40.521,17.1 38.025,14.622 38.025,11.567C38.025,8.512 40.521,6.034 43.598,6.034ZM5.339,37.475L19.668,17.795C20.712,16.366 22.415,16.366 23.445,17.795L31.911,29.425C32.954,30.854 34.658,30.854 35.688,29.425L37.986,26.252C39.029,24.823 40.732,24.823 41.763,26.252L49.924,37.462C50.967,38.891 50.36,40.058 48.59,40.058L6.673,40.058C4.904,40.058 4.296,38.891 5.339,37.462Z" fill="#E4E4E3"/>
</svg>
