<svg width="6" height="10" viewBox="0 0 6 10" fill="none" xmlns="http://www.w3.org/2000/svg" xmlns:xlink="http://www.w3.org/1999/xlink">
<path d="M-0.014,6.586L3.167,3.729C3.329,3.582 3.491,3.417 3.653,3.232C3.815,3.046 3.896,2.831 3.896,2.584C3.896,2.306 3.795,2.09 3.595,1.936C3.394,1.774 3.159,1.693 2.889,1.693C2.565,1.693 2.311,1.793 2.126,1.994C1.948,2.194 1.848,2.441 1.825,2.734L0.09,2.607C0.113,2.183 0.202,1.817 0.356,1.508C0.51,1.192 0.715,0.93 0.969,0.722C1.224,0.513 1.52,0.359 1.86,0.259C2.207,0.151 2.581,0.097 2.982,0.097C3.352,0.097 3.699,0.151 4.023,0.259C4.347,0.359 4.628,0.513 4.867,0.722C5.106,0.922 5.291,1.176 5.422,1.485C5.561,1.793 5.631,2.152 5.631,2.561C5.631,2.823 5.604,3.062 5.55,3.278C5.496,3.486 5.419,3.679 5.318,3.856C5.226,4.026 5.114,4.184 4.983,4.33C4.852,4.477 4.709,4.62 4.555,4.758L2.068,6.898L5.7,6.898L5.7,8.425L-0.014,8.425L-0.014,6.586Z" fill="#E4E4E3"/>
</svg>
