<svg width="56" height="48" viewBox="0 0 56 48" fill="none" xmlns="http://www.w3.org/2000/svg" xmlns:xlink="http://www.w3.org/1999/xlink">
<path d="M2.554,46.355L52.249,46.355C54.032,46.355 55.471,44.913 55.471,43.156L55.471,2.771C55.484,1.014 54.032,-0.428 52.249,-0.428L2.554,-0.428C0.784,-0.428 -0.668,1.014 -0.668,2.771L-0.668,43.143C-0.668,44.9 0.784,46.342 2.554,46.342M43.575,5.917C46.651,5.917 49.147,8.394 49.147,11.448C49.147,14.502 46.651,16.98 43.575,16.98C40.499,16.98 38.003,14.502 38.003,11.448C38.003,8.394 40.499,5.917 43.575,5.917ZM5.326,37.349L19.651,17.674C20.694,16.246 22.398,16.246 23.427,17.674L31.89,29.301C32.933,30.73 34.637,30.73 35.666,29.301L37.964,26.129C39.007,24.7 40.71,24.7 41.74,26.129L49.899,37.336C50.942,38.765 50.335,39.932 48.566,39.932L6.66,39.932C4.89,39.932 4.283,38.765 5.326,37.336Z" fill="#E4E4E3"/>
</svg>
