<svg width="56" height="48" viewBox="0 0 56 48" fill="none" xmlns="http://www.w3.org/2000/svg" xmlns:xlink="http://www.w3.org/1999/xlink">
<path d="M2.554,46.454L52.249,46.454C54.032,46.454 55.471,45.012 55.471,43.256L55.471,2.87C55.484,1.114 54.032,-0.328 52.249,-0.328L2.554,-0.328C0.784,-0.328 -0.668,1.114 -0.668,2.87L-0.668,43.243C-0.668,44.999 0.784,46.441 2.554,46.441M43.575,6.016C46.651,6.016 49.147,8.494 49.147,11.548C49.147,14.602 46.651,17.079 43.575,17.079C40.499,17.079 38.003,14.602 38.003,11.548C38.003,8.494 40.499,6.016 43.575,6.016ZM5.326,37.449L19.651,17.774C20.694,16.345 22.398,16.345 23.427,17.774L31.89,29.401C32.933,30.83 34.637,30.83 35.666,29.401L37.964,26.229C39.007,24.8 40.71,24.8 41.74,26.229L49.899,37.436C50.942,38.865 50.335,40.031 48.566,40.031L6.66,40.031C4.89,40.031 4.283,38.865 5.326,37.436Z" fill="#E4E4E3"/>
</svg>
