<svg width="56" height="48" viewBox="0 0 56 48" fill="none" xmlns="http://www.w3.org/2000/svg" xmlns:xlink="http://www.w3.org/1999/xlink">
<path d="M2.556,46.176L52.251,46.176C54.034,46.176 55.473,44.734 55.473,42.978L55.473,2.592C55.486,0.835 54.034,-0.606 52.251,-0.606L2.556,-0.606C0.786,-0.606 -0.666,0.835 -0.666,2.592L-0.666,42.965C-0.666,44.721 0.786,46.163 2.556,46.163M43.577,5.738C46.653,5.738 49.149,8.215 49.149,11.269C49.149,14.324 46.653,16.801 43.577,16.801C40.501,16.801 38.005,14.324 38.005,11.269C38.005,8.215 40.501,5.738 43.577,5.738ZM5.328,37.171L19.653,17.496C20.696,16.067 22.4,16.067 23.429,17.496L31.892,29.123C32.935,30.551 34.639,30.551 35.668,29.123L37.966,25.95C39.009,24.522 40.712,24.522 41.742,25.95L49.901,37.158C50.944,38.587 50.337,39.753 48.568,39.753L6.662,39.753C4.892,39.753 4.285,38.587 5.328,37.158Z" fill="#E4E4E3"/>
</svg>
