<svg width="36" height="30" viewBox="0 0 36 30" fill="none" xmlns="http://www.w3.org/2000/svg" xmlns:xlink="http://www.w3.org/1999/xlink">
<path d="M2.066,29L33.934,29C35.077,29 36,28.075 36,26.949L36,1.051C36.008,-0.075 35.077,-1 33.934,-1L2.066,-1C0.931,-1 0,-0.075 0,1.051L0,26.941C0,28.067 0.931,28.992 2.066,28.992M28.372,3.068C30.344,3.068 31.944,4.657 31.944,6.616C31.944,8.574 30.344,10.163 28.372,10.163C26.399,10.163 24.799,8.574 24.799,6.616C24.799,4.657 26.399,3.068 28.372,3.068ZM3.844,23.225L13.03,10.608C13.699,9.692 14.791,9.692 15.452,10.608L20.879,18.064C21.547,18.98 22.64,18.98 23.3,18.064L24.773,16.03C25.442,15.114 26.534,15.114 27.195,16.03L32.427,23.217C33.096,24.133 32.706,24.881 31.572,24.881L4.699,24.881C3.564,24.881 3.175,24.133 3.844,23.217Z" fill="#E4E4E3"/>
</svg>
