<svg width="48" height="42" viewBox="0 0 48 42" fill="none" xmlns="http://www.w3.org/2000/svg" xmlns:xlink="http://www.w3.org/1999/xlink">
<path d="M2.754,40.393L45.245,40.393C46.769,40.393 48,39.16 48,37.658L48,3.127C48.011,1.625 46.769,0.393 45.245,0.393L2.754,0.393C1.242,0.393 0,1.625 0,3.127L0,37.647C0,39.149 1.242,40.381 2.754,40.381M37.829,5.817C40.459,5.817 42.593,7.935 42.593,10.547C42.593,13.158 40.459,15.276 37.829,15.276C35.198,15.276 33.065,13.158 33.065,10.547C33.065,7.935 35.198,5.817 37.829,5.817ZM5.125,32.693L17.373,15.87C18.265,14.649 19.722,14.649 20.602,15.87L27.838,25.811C28.73,27.033 30.186,27.033 31.067,25.811L33.031,23.099C33.923,21.878 35.379,21.878 36.26,23.099L43.236,32.682C44.128,33.903 43.609,34.901 42.096,34.901L6.265,34.901C4.753,34.901 4.233,33.903 5.125,32.682Z" fill="#E4E4E3"/>
</svg>
