<svg width="36" height="32" viewBox="0 0 36 32" fill="none" xmlns="http://www.w3.org/2000/svg" xmlns:xlink="http://www.w3.org/1999/xlink">
<path d="M2.066,31L33.934,31C35.077,31 36,30.075 36,28.949L36,3.051C36.008,1.925 35.077,1 33.934,1L2.066,1C0.931,1 0,1.925 0,3.051L0,28.941C0,30.067 0.931,30.992 2.066,30.992M28.372,5.068C30.344,5.068 31.944,6.657 31.944,8.616C31.944,10.574 30.344,12.163 28.372,12.163C26.399,12.163 24.799,10.574 24.799,8.616C24.799,6.657 26.399,5.068 28.372,5.068ZM3.844,25.225L13.03,12.608C13.699,11.692 14.791,11.692 15.452,12.608L20.879,20.064C21.547,20.98 22.64,20.98 23.3,20.064L24.773,18.03C25.442,17.114 26.534,17.114 27.195,18.03L32.427,25.217C33.096,26.133 32.706,26.881 31.572,26.881L4.699,26.881C3.564,26.881 3.175,26.133 3.844,25.217Z" fill="#E4E4E3"/>
</svg>
