<svg width="56" height="48" viewBox="0 0 56 48" fill="none" xmlns="http://www.w3.org/2000/svg" xmlns:xlink="http://www.w3.org/1999/xlink">
<path d="M2.554,46.176L52.249,46.176C54.032,46.176 55.471,44.734 55.471,42.978L55.471,2.592C55.484,0.835 54.032,-0.606 52.249,-0.606L2.554,-0.606C0.784,-0.606 -0.668,0.835 -0.668,2.592L-0.668,42.965C-0.668,44.721 0.784,46.163 2.554,46.163M43.575,5.738C46.651,5.738 49.147,8.215 49.147,11.269C49.147,14.324 46.651,16.801 43.575,16.801C40.499,16.801 38.003,14.324 38.003,11.269C38.003,8.215 40.499,5.738 43.575,5.738ZM5.326,37.171L19.651,17.496C20.694,16.067 22.398,16.067 23.427,17.496L31.89,29.123C32.933,30.551 34.637,30.551 35.666,29.123L37.964,25.95C39.007,24.522 40.71,24.522 41.74,25.95L49.899,37.158C50.942,38.587 50.335,39.753 48.566,39.753L6.66,39.753C4.89,39.753 4.283,38.587 5.326,37.158Z" fill="#E4E4E3"/>
</svg>
