<svg width="36" height="30" viewBox="0 0 36 30" fill="none" xmlns="http://www.w3.org/2000/svg" xmlns:xlink="http://www.w3.org/1999/xlink">
<path d="M2.066,29.246L33.934,29.246C35.077,29.246 36,28.321 36,27.195L36,1.297C36.008,0.171 35.077,-0.754 33.934,-0.754L2.066,-0.754C0.931,-0.754 0,0.171 0,1.297L0,27.187C0,28.313 0.931,29.238 2.066,29.238M28.372,3.314C30.344,3.314 31.944,4.903 31.944,6.862C31.944,8.82 30.344,10.409 28.372,10.409C26.399,10.409 24.799,8.82 24.799,6.862C24.799,4.903 26.399,3.314 28.372,3.314ZM3.844,23.471L13.03,10.854C13.699,9.938 14.791,9.938 15.452,10.854L20.879,18.31C21.547,19.226 22.64,19.226 23.3,18.31L24.773,16.276C25.442,15.36 26.534,15.36 27.195,16.276L32.427,23.463C33.096,24.379 32.706,25.127 31.572,25.127L4.699,25.127C3.564,25.127 3.175,24.379 3.844,23.463Z" fill="#E4E4E3"/>
</svg>
