<svg width="48" height="40" viewBox="0 0 48 40" fill="none" xmlns="http://www.w3.org/2000/svg" xmlns:xlink="http://www.w3.org/1999/xlink">
<path d="M2.754,39.607L45.245,39.607C46.769,39.607 48,38.375 48,36.873L48,2.342C48.011,0.84 46.769,-0.393 45.245,-0.393L2.754,-0.393C1.242,-0.393 0,0.84 0,2.342L0,36.862C0,38.363 1.242,39.596 2.754,39.596M37.829,5.032C40.459,5.032 42.593,7.15 42.593,9.762C42.593,12.373 40.459,14.491 37.829,14.491C35.198,14.491 33.065,12.373 33.065,9.762C33.065,7.15 35.198,5.032 37.829,5.032ZM5.125,31.908L17.373,15.085C18.265,13.864 19.722,13.864 20.602,15.085L27.838,25.026C28.73,26.248 30.186,26.248 31.067,25.026L33.031,22.314C33.923,21.092 35.379,21.092 36.26,22.314L43.236,31.897C44.128,33.118 43.609,34.116 42.096,34.116L6.265,34.116C4.753,34.116 4.233,33.118 5.125,31.897Z" fill="#E4E4E3"/>
</svg>
