<svg width="50" height="40" viewBox="0 0 50 40" fill="none" xmlns="http://www.w3.org/2000/svg" xmlns:xlink="http://www.w3.org/1999/xlink">
<path d="M3.421,40L45.912,40C47.436,40 48.667,38.767 48.667,37.265L48.667,2.735C48.678,1.233 47.436,0 45.912,0L3.421,0C1.908,0 0.667,1.233 0.667,2.735L0.667,37.254C0.667,38.756 1.908,39.989 3.421,39.989M38.495,5.424C41.126,5.424 43.259,7.543 43.259,10.154C43.259,12.765 41.126,14.884 38.495,14.884C35.865,14.884 33.731,12.765 33.731,10.154C33.731,7.543 35.865,5.424 38.495,5.424ZM5.792,32.3L18.04,15.478C18.932,14.256 20.388,14.256 21.269,15.478L28.505,25.419C29.397,26.641 30.853,26.641 31.733,25.419L33.698,22.707C34.589,21.485 36.046,21.485 36.926,22.707L43.903,32.289C44.794,33.511 44.275,34.508 42.762,34.508L6.932,34.508C5.419,34.508 4.9,33.511 5.792,32.289Z" transform="rotate(360 24.667 20)" fill="#84837D"/>
</svg>
