<svg width="48" height="40" viewBox="0 0 48 40" fill="none" xmlns="http://www.w3.org/2000/svg" xmlns:xlink="http://www.w3.org/1999/xlink">
<path d="M2.754,40L45.245,40C46.769,40 48,38.767 48,37.265L48,2.735C48.011,1.233 46.769,0 45.245,0L2.754,0C1.242,0 0,1.233 0,2.735L0,37.254C0,38.756 1.242,39.989 2.754,39.989M37.829,5.424C40.459,5.424 42.593,7.543 42.593,10.154C42.593,12.765 40.459,14.884 37.829,14.884C35.198,14.884 33.065,12.765 33.065,10.154C33.065,7.543 35.198,5.424 37.829,5.424ZM5.125,32.3L17.373,15.478C18.265,14.256 19.722,14.256 20.602,15.478L27.838,25.419C28.73,26.641 30.186,26.641 31.067,25.419L33.031,22.707C33.923,21.485 35.379,21.485 36.26,22.707L43.236,32.289C44.128,33.511 43.609,34.508 42.096,34.508L6.265,34.508C4.753,34.508 4.233,33.511 5.125,32.289Z" fill="#1ED760"/>
</svg>
