<svg width="48" height="40" viewBox="0 0 48 40" fill="none" xmlns="http://www.w3.org/2000/svg" xmlns:xlink="http://www.w3.org/1999/xlink">
<path d="M2.754,39.7L45.245,39.7C46.769,39.7 48,38.467 48,36.966L48,2.435C48.011,0.933 46.769,-0.3 45.245,-0.3L2.754,-0.3C1.242,-0.3 0,0.933 0,2.435L0,36.954C0,38.456 1.242,39.689 2.754,39.689M37.829,5.125C40.459,5.125 42.593,7.243 42.593,9.854C42.593,12.466 40.459,14.584 37.829,14.584C35.198,14.584 33.065,12.466 33.065,9.854C33.065,7.243 35.198,5.125 37.829,5.125ZM5.125,32.001L17.373,15.178C18.265,13.956 19.722,13.956 20.602,15.178L27.838,25.119C28.73,26.341 30.186,26.341 31.067,25.119L33.031,22.407C33.923,21.185 35.379,21.185 36.26,22.407L43.236,31.989C44.128,33.211 43.609,34.208 42.096,34.208L6.265,34.208C4.753,34.208 4.233,33.211 5.125,31.989Z" fill="#1ED760"/>
</svg>
