<svg width="6" height="8" viewBox="0 0 6 8" fill="none" xmlns="http://www.w3.org/2000/svg" xmlns:xlink="http://www.w3.org/1999/xlink">
<path d="M1.916,2.813L2.483,2.813C2.645,2.813 2.803,2.802 2.957,2.779C3.111,2.755 3.25,2.713 3.373,2.651C3.505,2.582 3.609,2.489 3.686,2.374C3.763,2.25 3.801,2.092 3.801,1.899C3.801,1.653 3.701,1.448 3.501,1.286C3.308,1.124 3.069,1.043 2.784,1.043C2.514,1.043 2.29,1.117 2.113,1.263C1.935,1.41 1.82,1.591 1.766,1.807L-0.143,1.414C-0.05,1.059 0.088,0.758 0.274,0.511C0.459,0.257 0.678,0.053 0.933,-0.102C1.187,-0.256 1.469,-0.368 1.777,-0.437C2.093,-0.514 2.425,-0.553 2.772,-0.553C3.134,-0.553 3.481,-0.506 3.813,-0.414C4.152,-0.329 4.449,-0.19 4.704,0.002C4.958,0.188 5.159,0.423 5.305,0.708C5.459,0.993 5.536,1.333 5.536,1.726C5.536,2.181 5.417,2.57 5.178,2.894C4.939,3.218 4.592,3.426 4.137,3.519L4.137,3.554C4.384,3.584 4.6,3.658 4.785,3.773C4.977,3.889 5.139,4.032 5.27,4.201C5.402,4.371 5.502,4.564 5.571,4.78C5.641,4.996 5.675,5.223 5.675,5.462C5.675,5.871 5.594,6.229 5.432,6.538C5.278,6.846 5.066,7.105 4.796,7.313C4.534,7.513 4.222,7.664 3.859,7.764C3.505,7.864 3.127,7.914 2.726,7.914C1.993,7.914 1.361,7.745 0.829,7.405C0.304,7.066 -0.043,6.53 -0.212,5.797L1.615,5.37C1.677,5.663 1.8,5.894 1.985,6.064C2.178,6.233 2.46,6.318 2.83,6.318C3.208,6.318 3.485,6.222 3.663,6.029C3.848,5.828 3.94,5.574 3.94,5.265C3.94,5.034 3.89,4.857 3.79,4.733C3.697,4.602 3.574,4.506 3.42,4.444C3.265,4.382 3.092,4.348 2.899,4.34C2.706,4.325 2.514,4.317 2.321,4.317L1.916,4.317L1.916,2.813Z" fill="#E4E4E3"/>
</svg>
