<svg width="56" height="48" viewBox="0 0 56 48" fill="none" xmlns="http://www.w3.org/2000/svg" xmlns:xlink="http://www.w3.org/1999/xlink">
<path d="M2.556,46.356L52.251,46.356C54.034,46.356 55.473,44.914 55.473,43.157L55.473,2.772C55.486,1.015 54.034,-0.427 52.251,-0.427L2.556,-0.427C0.786,-0.427 -0.666,1.015 -0.666,2.772L-0.666,43.144C-0.666,44.901 0.786,46.343 2.556,46.343M43.577,5.918C46.653,5.918 49.149,8.395 49.149,11.449C49.149,14.503 46.653,16.981 43.577,16.981C40.501,16.981 38.005,14.503 38.005,11.449C38.005,8.395 40.501,5.918 43.577,5.918ZM5.328,37.35L19.653,17.675C20.696,16.247 22.4,16.247 23.429,17.675L31.892,29.302C32.935,30.731 34.639,30.731 35.668,29.302L37.966,26.13C39.009,24.701 40.712,24.701 41.742,26.13L49.901,37.337C50.944,38.766 50.337,39.933 48.568,39.933L6.662,39.933C4.892,39.933 4.285,38.766 5.328,37.337Z" fill="#E4E4E3"/>
</svg>
