<svg width="56" height="48" viewBox="0 0 56 48" fill="none" xmlns="http://www.w3.org/2000/svg" xmlns:xlink="http://www.w3.org/1999/xlink">
<path d="M2.554,46.175L52.249,46.175C54.032,46.175 55.471,44.733 55.471,42.977L55.471,2.591C55.484,0.834 54.032,-0.607 52.249,-0.607L2.554,-0.607C0.784,-0.607 -0.668,0.834 -0.668,2.591L-0.668,42.964C-0.668,44.72 0.784,46.162 2.554,46.162M43.575,5.737C46.651,5.737 49.147,8.214 49.147,11.268C49.147,14.323 46.651,16.8 43.575,16.8C40.499,16.8 38.003,14.323 38.003,11.268C38.003,8.214 40.499,5.737 43.575,5.737ZM5.326,37.17L19.651,17.495C20.694,16.066 22.398,16.066 23.427,17.495L31.89,29.122C32.933,30.55 34.637,30.55 35.666,29.122L37.964,25.949C39.007,24.521 40.71,24.521 41.74,25.949L49.899,37.157C50.942,38.586 50.335,39.752 48.566,39.752L6.66,39.752C4.89,39.752 4.283,38.586 5.326,37.157Z" fill="#E4E4E3"/>
</svg>
