<svg width="36" height="36" viewBox="0 0 36 36" fill="none" xmlns="http://www.w3.org/2000/svg" xmlns:xlink="http://www.w3.org/1999/xlink">
<path d="M18.002,0C13.113,0 12.5,0.021 10.58,0.109C8.663,0.197 7.355,0.5 6.211,0.945C5.027,1.405 4.023,2.02 3.022,3.021C2.021,4.021 1.406,5.025 0.945,6.209C0.498,7.354 0.195,8.662 0.108,10.578C0.022,12.498 0,13.112 0,18C0,22.889 0.022,23.5 0.109,25.42C0.197,27.337 0.5,28.645 0.945,29.789C1.405,30.973 2.02,31.977 3.021,32.978C4.021,33.979 5.025,34.596 6.209,35.055C7.354,35.5 8.662,35.804 10.578,35.892C12.498,35.979 13.111,36 17.999,36C22.888,36 23.5,35.979 25.42,35.892C27.336,35.804 28.646,35.5 29.791,35.055C30.975,34.596 31.977,33.979 32.977,32.978C33.979,31.977 34.594,30.973 35.055,29.79C35.497,28.645 35.801,27.336 35.891,25.421C35.978,23.501 36,22.889 36,18C36,13.112 35.978,12.498 35.891,10.578C35.801,8.662 35.497,7.354 35.055,6.209C34.594,5.025 33.979,4.021 32.977,3.021C31.976,2.019 30.975,1.404 29.79,0.945C28.642,0.5 27.334,0.197 25.417,0.109C23.497,0.021 22.886,0 17.996,0L18.002,0ZM16.387,3.244C16.866,3.243 17.401,3.244 18.002,3.244C22.808,3.244 23.377,3.261 25.275,3.347C27.03,3.428 27.983,3.721 28.617,3.967C29.457,4.293 30.056,4.683 30.686,5.313C31.316,5.943 31.706,6.543 32.033,7.383C32.279,8.017 32.573,8.97 32.653,10.725C32.739,12.622 32.758,13.192 32.758,17.996C32.758,22.8 32.739,23.37 32.653,25.267C32.572,27.022 32.279,27.975 32.033,28.609C31.707,29.449 31.316,30.047 30.686,30.676C30.056,31.306 29.458,31.696 28.617,32.023C27.984,32.27 27.03,32.563 25.275,32.643C23.378,32.729 22.808,32.748 18.002,32.748C13.195,32.748 12.626,32.729 10.728,32.643C8.973,32.562 8.021,32.269 7.386,32.022C6.546,31.696 5.946,31.306 5.316,30.676C4.686,30.046 4.296,29.448 3.969,28.607C3.722,27.973 3.429,27.021 3.349,25.266C3.263,23.368 3.245,22.798 3.245,17.992C3.245,13.185 3.263,12.618 3.349,10.72C3.429,8.965 3.722,8.013 3.969,7.378C4.295,6.538 4.686,5.938 5.316,5.308C5.946,4.678 6.546,4.288 7.386,3.961C8.02,3.714 8.973,3.421 10.728,3.341C12.389,3.266 13.032,3.243 16.387,3.239L16.387,3.244ZM27.61,6.233C26.418,6.233 25.45,7.199 25.45,8.392C25.45,9.584 26.418,10.552 27.61,10.552C28.803,10.552 29.77,9.584 29.77,8.392C29.77,7.199 28.803,6.232 27.61,6.232L27.61,6.233ZM18.002,8.756C12.897,8.756 8.758,12.895 8.758,18C8.758,23.105 12.897,27.242 18.002,27.242C23.107,27.242 27.244,23.105 27.244,18C27.244,12.895 23.106,8.756 18.001,8.756L18.002,8.756ZM18.002,12C21.315,12 24.002,14.686 24.002,18C24.002,21.314 21.315,24 18.002,24C14.688,24 12.002,21.314 12.002,18C12.002,14.686 14.688,12 18.002,12L18.002,12Z" fill="#E4E4E3"/>
</svg>
