<svg width="34" height="42" viewBox="0 0 34 42" fill="none" xmlns="http://www.w3.org/2000/svg" xmlns:xlink="http://www.w3.org/1999/xlink">
<path d="M32,37.442C32,37.802 32,38.142 31.96,38.502C27.7,40.402 22,41.562 15.74,41.562C9.48,41.562 3.78,40.402 -0.46,38.502C-0.48,38.142 -0.5,37.802 -0.5,37.442C-0.5,28.122 6.78,20.582 15.76,20.582C24.74,20.582 32.02,28.142 32.02,37.442Z" fill="#FFFFFF"/>
<path d="M24.44,9.121C24.44,13.921 20.56,17.801 15.76,17.801C10.96,17.801 7.08,13.921 7.08,9.121C7.08,4.321 10.96,0.441 15.76,0.441C20.56,0.441 24.44,4.321 24.44,9.121Z" fill="#FFFFFF"/>
</svg>
