<svg width="34" height="42" viewBox="0 0 34 42" fill="none" xmlns="http://www.w3.org/2000/svg" xmlns:xlink="http://www.w3.org/1999/xlink">
<path d="M32,36.641C32,37.001 32,37.341 31.96,37.701C27.7,39.601 22,40.761 15.74,40.761C9.48,40.761 3.78,39.601 -0.46,37.701C-0.48,37.341 -0.5,37.001 -0.5,36.641C-0.5,27.321 6.78,19.781 15.76,19.781C24.74,19.781 32.02,27.341 32.02,36.641Z" fill="#FFFFFF"/>
<path d="M24.44,8.321C24.44,13.121 20.56,17.001 15.76,17.001C10.96,17.001 7.08,13.121 7.08,8.321C7.08,3.521 10.96,-0.359 15.76,-0.359C20.56,-0.359 24.44,3.521 24.44,8.321Z" fill="#FFFFFF"/>
</svg>
