<svg width="48" height="48" viewBox="0 0 48 48" fill="none" xmlns="http://www.w3.org/2000/svg" xmlns:xlink="http://www.w3.org/1999/xlink">
<path d="M10.638,29.007L8.967,35.244L2.86,35.374C1.035,31.989 0,28.116 0,24C0,20.02 0.968,16.267 2.684,12.963L2.685,12.963L8.122,13.959L10.503,19.364C10.005,20.817 9.733,22.377 9.733,24C9.733,25.762 10.052,27.45 10.638,29.007Z" fill="#FBBB00"/>
<path d="M47.581,19.516C47.856,20.968 48,22.468 48,24C48,25.718 47.819,27.394 47.475,29.011C46.307,34.513 43.254,39.316 39.025,42.716L39.024,42.715L32.176,42.365L31.207,36.315C34.013,34.669 36.206,32.094 37.361,29.011L24.528,29.011L24.528,19.516L37.548,19.516L47.581,19.516Z" fill="#518EF8"/>
<path d="M39.024,42.715L39.025,42.716C34.912,46.022 29.687,48 24,48C14.86,48 6.914,42.891 2.86,35.374L10.638,29.007C12.665,34.416 17.883,38.267 24,38.267C26.629,38.267 29.093,37.556 31.207,36.315L39.024,42.715Z" fill="#28B446"/>
<path d="M39.319,5.525L31.544,11.89C29.356,10.523 26.77,9.733 24,9.733C17.744,9.733 12.429,13.76 10.503,19.364L2.685,12.963L2.683,12.963C6.678,5.262 14.724,0 24,0C29.823,0 35.163,2.074 39.319,5.525Z" fill="#F14336"/>
</svg>
