<svg width="50" height="30" viewBox="0 0 50 30" fill="none" xmlns="http://www.w3.org/2000/svg" xmlns:xlink="http://www.w3.org/1999/xlink">
<path d="M23.636,26.982C23.751,27.08 23.875,27.179 23.994,27.278C21.641,28.844 18.818,29.759 15.781,29.759C7.588,29.759 0.945,23.116 0.945,14.924C0.945,6.731 7.588,0.088 15.781,0.088C18.818,0.088 21.641,1.003 23.994,2.569C23.875,2.668 23.751,2.762 23.636,2.865C20.141,5.907 18.134,10.304 18.134,14.924C18.134,19.543 20.137,23.94 23.636,26.982Z" fill="#FFFFFF"/>
<path d="M34.112,0.088C31.074,0.088 28.252,1.003 25.898,2.569C26.018,2.668 26.142,2.762 26.257,2.865C29.752,5.907 31.759,10.3 31.759,14.924C31.759,19.547 29.756,23.94 26.261,26.982C26.146,27.08 26.022,27.179 25.903,27.278C28.256,28.844 31.079,29.759 34.116,29.759C42.308,29.759 48.951,23.116 48.951,14.924C48.951,6.731 42.304,0.088 34.112,0.088Z" fill="#FFFFFF"/>
<path d="M24.948,3.266C24.758,3.414 24.569,3.571 24.387,3.731C21.259,6.451 19.281,10.457 19.281,14.924C19.281,19.391 21.259,23.397 24.387,26.117C24.569,26.277 24.758,26.43 24.948,26.582C25.137,26.43 25.327,26.277 25.508,26.117C28.636,23.397 30.614,19.391 30.614,14.924C30.614,10.457 28.636,6.451 25.508,3.731C25.327,3.571 25.137,3.418 24.948,3.266Z" fill="#FFFFFF"/>
</svg>
