<svg width="50" height="30" viewBox="0 0 50 30" fill="none" xmlns="http://www.w3.org/2000/svg" xmlns:xlink="http://www.w3.org/1999/xlink">
<path d="M23.518,26.982C23.634,27.08 23.758,27.179 23.877,27.278C21.524,28.844 18.701,29.759 15.664,29.759C7.471,29.759 0.828,23.116 0.828,14.924C0.828,6.731 7.471,0.088 15.664,0.088C18.701,0.088 21.524,1.003 23.877,2.569C23.758,2.668 23.634,2.762 23.518,2.865C20.024,5.907 18.017,10.304 18.017,14.924C18.017,19.543 20.02,23.94 23.518,26.982Z" fill="#FFFFFF"/>
<path d="M34.002,0.088C30.965,0.088 28.142,1.003 25.789,2.569C25.909,2.668 26.032,2.762 26.148,2.865C29.642,5.907 31.649,10.3 31.649,14.924C31.649,19.547 29.646,23.94 26.152,26.982C26.036,27.08 25.913,27.179 25.793,27.278C28.146,28.844 30.969,29.759 34.006,29.759C42.199,29.759 48.842,23.116 48.842,14.924C48.842,6.731 42.195,0.088 34.002,0.088Z" fill="#FFFFFF"/>
<path d="M24.83,3.266C24.641,3.414 24.451,3.571 24.27,3.731C21.142,6.451 19.164,10.457 19.164,14.924C19.164,19.391 21.142,23.397 24.27,26.117C24.451,26.277 24.641,26.43 24.83,26.582C25.02,26.43 25.21,26.277 25.391,26.117C28.519,23.397 30.497,19.391 30.497,14.924C30.497,10.457 28.519,6.451 25.391,3.731C25.21,3.571 25.02,3.418 24.83,3.266Z" fill="#FFFFFF"/>
</svg>
