<svg width="56" height="36" viewBox="0 0 56 36" fill="none" xmlns="http://www.w3.org/2000/svg" xmlns:xlink="http://www.w3.org/1999/xlink">
<path d="M25.917,31.334C26.052,31.449 26.196,31.565 26.336,31.68C23.59,33.507 20.297,34.575 16.754,34.575C7.196,34.575 -0.555,26.824 -0.555,17.266C-0.555,7.708 7.196,-0.042 16.754,-0.042C20.297,-0.042 23.59,1.025 26.336,2.852C26.196,2.968 26.052,3.078 25.917,3.198C21.84,6.747 19.499,11.877 19.499,17.266C19.499,22.656 21.836,27.786 25.917,31.334Z" fill="#FFFFFF"/>
<path d="M38.145,-0.042C34.601,-0.042 31.308,1.025 28.563,2.852C28.702,2.968 28.846,3.078 28.981,3.198C33.058,6.747 35.399,11.872 35.399,17.266C35.399,22.661 33.063,27.786 28.986,31.334C28.851,31.449 28.707,31.565 28.567,31.68C31.313,33.507 34.606,34.575 38.149,34.575C47.707,34.575 55.458,26.824 55.458,17.266C55.458,7.708 47.703,-0.042 38.145,-0.042Z" fill="#FFFFFF"/>
<path d="M27.447,3.666C27.226,3.839 27.004,4.022 26.793,4.209C23.144,7.382 20.836,12.056 20.836,17.267C20.836,22.479 23.144,27.152 26.793,30.326C27.004,30.513 27.226,30.691 27.447,30.869C27.668,30.691 27.889,30.513 28.101,30.326C31.75,27.152 34.058,22.479 34.058,17.267C34.058,12.056 31.75,7.382 28.101,4.209C27.889,4.022 27.668,3.844 27.447,3.666Z" fill="#FFFFFF"/>
</svg>
