<svg width="56" height="36" viewBox="0 0 56 36" fill="none" xmlns="http://www.w3.org/2000/svg" xmlns:xlink="http://www.w3.org/1999/xlink">
<path d="M26.105,31.334C26.239,31.449 26.384,31.565 26.523,31.68C23.778,33.507 20.484,34.575 16.941,34.575C7.383,34.575 -0.367,26.824 -0.367,17.266C-0.367,7.708 7.383,-0.042 16.941,-0.042C20.484,-0.042 23.778,1.025 26.523,2.852C26.384,2.968 26.239,3.078 26.105,3.198C22.028,6.747 19.686,11.877 19.686,17.266C19.686,22.656 22.023,27.786 26.105,31.334Z" fill="#FFFFFF"/>
<path d="M38.332,-0.042C34.789,-0.042 31.495,1.025 28.75,2.852C28.889,2.968 29.034,3.078 29.168,3.198C33.245,6.747 35.587,11.872 35.587,17.266C35.587,22.661 33.25,27.786 29.173,31.334C29.038,31.449 28.894,31.565 28.755,31.68C31.5,33.507 34.793,34.575 38.337,34.575C47.895,34.575 55.645,26.824 55.645,17.266C55.645,7.708 47.89,-0.042 38.332,-0.042Z" fill="#FFFFFF"/>
<path d="M27.634,3.666C27.413,3.839 27.192,4.022 26.98,4.209C23.331,7.382 21.023,12.056 21.023,17.267C21.023,22.479 23.331,27.152 26.98,30.326C27.192,30.513 27.413,30.691 27.634,30.869C27.855,30.691 28.077,30.513 28.288,30.326C31.937,27.152 34.245,22.479 34.245,17.267C34.245,12.056 31.937,7.382 28.288,4.209C28.077,4.022 27.855,3.844 27.634,3.666Z" fill="#FFFFFF"/>
</svg>
