<svg width="74" height="46" viewBox="0 0 74 46" fill="none" xmlns="http://www.w3.org/2000/svg" xmlns:xlink="http://www.w3.org/1999/xlink">
<path d="M34.471,40.097C34.642,40.244 34.826,40.391 35.003,40.538C31.508,42.864 27.316,44.222 22.805,44.222C10.636,44.222 0.77,34.356 0.77,22.187C0.77,10.019 10.636,0.152 22.805,0.152C27.316,0.152 31.508,1.511 35.003,3.837C34.826,3.984 34.642,4.125 34.471,4.278C29.28,8.795 26.3,15.326 26.3,22.187C26.3,29.049 29.274,35.58 34.471,40.097Z" fill="#FFFFFF"/>
<path d="M50.043,0.152C45.532,0.152 41.339,1.511 37.844,3.837C38.021,3.984 38.205,4.125 38.376,4.278C43.567,8.795 46.548,15.32 46.548,22.187C46.548,29.055 43.573,35.58 38.382,40.097C38.211,40.244 38.027,40.391 37.85,40.538C41.345,42.864 45.538,44.222 50.049,44.222C62.217,44.222 72.084,34.356 72.084,22.187C72.084,10.019 62.211,0.152 50.043,0.152Z" fill="#FFFFFF"/>
<path d="M36.424,4.871C36.142,5.091 35.861,5.324 35.592,5.563C30.946,9.602 28.008,15.552 28.008,22.187C28.008,28.822 30.946,34.771 35.592,38.811C35.861,39.05 36.142,39.276 36.424,39.503C36.706,39.276 36.987,39.05 37.256,38.811C41.902,34.771 44.84,28.822 44.84,22.187C44.84,15.552 41.902,9.602 37.256,5.563C36.987,5.324 36.706,5.098 36.424,4.871Z" fill="#FFFFFF"/>
</svg>
