<svg width="48" height="48" viewBox="0 0 48 48" fill="none" xmlns="http://www.w3.org/2000/svg" xmlns:xlink="http://www.w3.org/1999/xlink">
<circle cx="24.005" cy="25.473" r="7.629" fill="#E4E4E3"/>
<path d="M47.993,14.93C47.992,12.494 46.01,10.513 43.575,10.513L38.798,10.513C38.369,10.513 37.965,10.346 37.662,10.043L33.469,5.85C32.635,5.015 31.525,4.556 30.345,4.556L17.655,4.556C16.475,4.556 15.365,5.015 14.531,5.85L10.338,10.043C10.035,10.346 9.631,10.513 9.202,10.513L4.425,10.513C1.99,10.513 0.008,12.494 0.007,14.93L0,39.026C0,41.462 1.982,43.444 4.418,43.444L43.582,43.444C46.018,43.444 48,41.462 48,39.026L47.993,14.93ZM24.005,35.915C18.247,35.915 13.563,31.23 13.563,25.473C13.563,19.715 18.247,15.031 24.005,15.031C29.762,15.031 34.447,19.715 34.447,25.473C34.447,31.23 29.762,35.915 24.005,35.915Z" fill="#E4E4E3"/>
<path d="M4.427,7.368L7.439,7.368C8.216,7.368 8.846,6.739 8.846,5.962C8.846,5.185 8.216,4.556 7.439,4.556L4.427,4.556C3.651,4.556 3.021,5.185 3.021,5.962C3.021,6.739 3.651,7.368 4.427,7.368Z" fill="#E4E4E3"/>
</svg>
