<svg width="62" height="40" viewBox="0 0 62 40" fill="none" xmlns="http://www.w3.org/2000/svg" xmlns:xlink="http://www.w3.org/1999/xlink">
<path d="M28.021,34.88C28.168,35.007 28.326,35.133 28.479,35.26C25.47,37.262 21.859,38.433 17.975,38.433C7.496,38.433 -1,29.936 -1,19.458C-1,8.98 7.496,0.483 17.975,0.483C21.859,0.483 25.47,1.653 28.479,3.656C28.326,3.783 28.168,3.904 28.021,4.036C23.551,7.926 20.984,13.549 20.984,19.458C20.984,25.366 23.546,30.99 28.021,34.88Z" fill="#FFFFFF"/>
<path d="M41.426,0.483C37.542,0.483 33.931,1.653 30.922,3.656C31.075,3.783 31.233,3.904 31.38,4.036C35.85,7.926 38.417,13.544 38.417,19.458C38.417,25.372 35.855,30.99 31.386,34.88C31.238,35.007 31.08,35.133 30.927,35.26C33.937,37.262 37.547,38.433 41.432,38.433C51.91,38.433 60.406,29.936 60.406,19.458C60.406,8.98 51.905,0.483 41.426,0.483Z" fill="#FFFFFF"/>
<path d="M29.7,4.548C29.458,4.738 29.215,4.938 28.984,5.143C24.983,8.622 22.453,13.745 22.453,19.459C22.453,25.172 24.983,30.295 28.984,33.774C29.215,33.979 29.458,34.174 29.7,34.37C29.943,34.174 30.185,33.979 30.417,33.774C34.418,30.295 36.948,25.172 36.948,19.459C36.948,13.745 34.418,8.622 30.417,5.143C30.185,4.938 29.943,4.743 29.7,4.548Z" fill="#FFFFFF"/>
</svg>
