<svg width="48" height="48" viewBox="0 0 48 48" fill="none" xmlns="http://www.w3.org/2000/svg" xmlns:xlink="http://www.w3.org/1999/xlink">
<path d="M10.638,29.007L8.967,35.244L2.86,35.374C1.035,31.989 0,28.116 0,24C0,20.02 0.968,16.267 2.683,12.963L2.685,12.963L8.122,13.959L10.503,19.364C10.005,20.817 9.733,22.377 9.733,24C9.733,25.762 10.052,27.45 10.638,29.007Z" fill="#FBBB00"/>
<path d="M47.58,19.517C47.856,20.968 48,22.468 48,24C48,25.718 47.819,27.394 47.475,29.011C46.307,34.513 43.254,39.317 39.025,42.716L39.024,42.715L32.176,42.365L31.206,36.315C34.013,34.67 36.206,32.094 37.361,29.011L24.527,29.011L24.527,19.517L37.548,19.517L47.58,19.517Z" fill="#518EF8"/>
<path d="M39.023,42.715L39.024,42.716C34.911,46.022 29.687,48 23.999,48C14.859,48 6.913,42.891 2.859,35.374L10.637,29.007C12.664,34.416 17.882,38.267 23.999,38.267C26.629,38.267 29.092,37.556 31.206,36.315L39.023,42.715Z" fill="#28B446"/>
<path d="M39.319,5.525L31.544,11.89C29.357,10.523 26.771,9.733 24,9.733C17.744,9.733 12.429,13.76 10.503,19.363L2.685,12.963L2.684,12.963C6.678,5.262 14.724,0 24,0C29.823,0 35.163,2.074 39.319,5.525Z" fill="#F14336"/>
</svg>
