<svg width="62" height="40" viewBox="0 0 62 40" fill="none" xmlns="http://www.w3.org/2000/svg" xmlns:xlink="http://www.w3.org/1999/xlink">
<path d="M28.021,34.475C28.168,34.601 28.326,34.728 28.479,34.854C25.47,36.857 21.859,38.027 17.975,38.027C7.496,38.027 -1,29.531 -1,19.053C-1,8.575 7.496,0.078 17.975,0.078C21.859,0.078 25.47,1.248 28.479,3.251C28.326,3.378 28.168,3.499 28.021,3.631C23.551,7.52 20.984,13.144 20.984,19.053C20.984,24.961 23.546,30.585 28.021,34.475Z" fill="#FFFFFF"/>
<path d="M41.43,0.078C37.546,0.078 33.935,1.248 30.926,3.251C31.079,3.378 31.237,3.499 31.384,3.631C35.854,7.52 38.421,13.139 38.421,19.053C38.421,24.967 35.859,30.585 31.39,34.475C31.242,34.601 31.084,34.728 30.931,34.854C33.941,36.857 37.551,38.027 41.436,38.027C51.914,38.027 60.41,29.531 60.41,19.053C60.41,8.575 51.909,0.078 41.43,0.078Z" fill="#FFFFFF"/>
<path d="M29.702,4.143C29.46,4.332 29.217,4.533 28.985,4.738C24.985,8.217 22.455,13.34 22.455,19.053C22.455,24.767 24.985,29.89 28.985,33.369C29.217,33.574 29.46,33.769 29.702,33.964C29.945,33.769 30.187,33.574 30.419,33.369C34.42,29.89 36.95,24.767 36.95,19.053C36.95,13.34 34.42,8.217 30.419,4.738C30.187,4.533 29.945,4.338 29.702,4.143Z" fill="#FFFFFF"/>
</svg>
