<svg width="72" height="70" viewBox="0 0 72 70" fill="none" xmlns="http://www.w3.org/2000/svg" xmlns:xlink="http://www.w3.org/1999/xlink">
<path d="M44.75,16.5C43.14,16.5 41.834,17.806 41.834,19.417C41.834,21.028 43.14,22.334 44.75,22.334L44.75,16.5ZM53.5,19.417L53.5,16.5L53.5,19.417ZM53.5,48.584L53.5,45.667L53.5,48.584ZM44.75,45.667C43.14,45.667 41.834,46.973 41.834,48.584C41.834,50.194 43.14,51.5 44.75,51.5L44.75,45.667ZM27.25,51.5C28.861,51.5 30.167,50.194 30.167,48.584C30.167,46.973 28.861,45.667 27.25,45.667L27.25,51.5ZM18.5,48.584L18.5,45.667L18.5,48.584ZM3.917,34L1,34L3.917,34ZM18.5,19.417L18.5,16.5L18.5,19.417ZM27.25,22.334C28.861,22.334 30.167,21.028 30.167,19.417C30.167,17.806 28.861,16.5 27.25,16.5L27.25,22.334ZM44.75,22.334L53.5,22.334L53.5,16.5L44.75,16.5L44.75,22.334ZM53.5,22.334C55.032,22.334 56.55,22.635 57.965,23.222L60.197,17.832C58.074,16.953 55.798,16.5 53.5,16.5L53.5,22.334ZM57.965,23.222C59.38,23.808 60.667,24.667 61.75,25.751L65.875,21.626C64.25,20.001 62.32,18.712 60.197,17.832L57.965,23.222ZM61.75,25.751C62.833,26.834 63.693,28.12 64.279,29.536L69.668,27.303C68.789,25.18 67.5,23.251 65.875,21.626L61.75,25.751ZM64.279,29.536C64.865,30.951 65.167,32.468 65.167,34L71,34C71,31.702 70.548,29.427 69.668,27.303L64.279,29.536ZM65.167,34C65.167,35.532 64.865,37.049 64.279,38.465L69.668,40.697C70.548,38.574 71,36.298 71,34L65.167,34ZM64.279,38.465C63.693,39.88 62.833,41.167 61.75,42.25L65.875,46.375C67.5,44.75 68.789,42.82 69.668,40.697L64.279,38.465ZM61.75,42.25C60.667,43.333 59.38,44.193 57.965,44.779L60.197,50.168C62.32,49.289 64.25,48 65.875,46.375L61.75,42.25ZM57.965,44.779C56.55,45.365 55.032,45.667 53.5,45.667L53.5,51.5C55.798,51.5 58.074,51.048 60.197,50.168L57.965,44.779ZM53.5,45.667L44.75,45.667L44.75,51.5L53.5,51.5L53.5,45.667ZM27.25,45.667L18.5,45.667L18.5,51.5L27.25,51.5L27.25,45.667ZM18.5,45.667C16.968,45.667 15.451,45.365 14.036,44.779L11.803,50.168C13.927,51.048 16.202,51.5 18.5,51.5L18.5,45.667ZM14.036,44.779C12.62,44.193 11.334,43.333 10.251,42.25L6.126,46.375C7.751,48 9.68,49.289 11.803,50.168L14.036,44.779ZM10.251,42.25C8.063,40.062 6.834,37.095 6.834,34L1,34C1,38.642 2.844,43.093 6.126,46.375L10.251,42.25ZM6.834,34C6.834,30.906 8.063,27.939 10.251,25.751L6.126,21.626C2.844,24.908 1,29.359 1,34L6.834,34ZM10.251,25.751C12.439,23.563 15.406,22.334 18.5,22.334L18.5,16.5C13.859,16.5 9.408,18.344 6.126,21.626L10.251,25.751ZM18.5,22.334L27.25,22.334L27.25,16.5L18.5,16.5L18.5,22.334Z" fill="#042F16"/>
<line x1="24.333" y1="31.083" x2="47.666" y2="31.083" stroke="#042F16" stroke-width="2.917" stroke-miterlimit="3.999327" stroke-linecap="round" stroke-linejoin="round"/>
</svg>
