<svg width="72" height="70" viewBox="0 0 72 70" fill="none" xmlns="http://www.w3.org/2000/svg" xmlns:xlink="http://www.w3.org/1999/xlink">
<path d="M44.75,16.5C43.139,16.5 41.833,17.806 41.833,19.417C41.833,21.027 43.139,22.333 44.75,22.333L44.75,16.5ZM53.5,19.417L53.5,16.5L53.5,19.417ZM53.5,48.583L53.5,45.667L53.5,48.583ZM44.75,45.667C43.139,45.667 41.833,46.972 41.833,48.583C41.833,50.194 43.139,51.5 44.75,51.5L44.75,45.667ZM27.25,51.5C28.861,51.5 30.167,50.194 30.167,48.583C30.167,46.972 28.861,45.667 27.25,45.667L27.25,51.5ZM18.5,48.583L18.5,45.667L18.5,48.583ZM3.917,34L1,34L3.917,34ZM18.5,19.417L18.5,16.5L18.5,19.417ZM27.25,22.333C28.861,22.333 30.167,21.027 30.167,19.417C30.167,17.806 28.861,16.5 27.25,16.5L27.25,22.333ZM44.75,22.333L53.5,22.333L53.5,16.5L44.75,16.5L44.75,22.333ZM53.5,22.333C55.032,22.333 56.549,22.635 57.965,23.221L60.197,17.832C58.074,16.952 55.798,16.5 53.5,16.5L53.5,22.333ZM57.965,23.221C59.38,23.808 60.666,24.667 61.75,25.75L65.874,21.625C64.249,20 62.32,18.711 60.197,17.832L57.965,23.221ZM61.75,25.75C62.833,26.834 63.692,28.12 64.279,29.535L69.668,27.303C68.788,25.18 67.499,23.25 65.874,21.625L61.75,25.75ZM64.279,29.535C64.865,30.951 65.167,32.468 65.167,34L71,34C71,31.702 70.547,29.426 69.668,27.303L64.279,29.535ZM65.167,34C65.167,35.532 64.865,37.049 64.279,38.464L69.668,40.697C70.547,38.574 71,36.298 71,34L65.167,34ZM64.279,38.464C63.692,39.88 62.833,41.166 61.75,42.25L65.874,46.374C67.499,44.749 68.788,42.82 69.668,40.697L64.279,38.464ZM61.75,42.25C60.666,43.333 59.38,44.192 57.965,44.779L60.197,50.168C62.32,49.288 64.249,47.999 65.874,46.374L61.75,42.25ZM57.965,44.779C56.549,45.365 55.032,45.667 53.5,45.667L53.5,51.5C55.798,51.5 58.074,51.047 60.197,50.168L57.965,44.779ZM53.5,45.667L44.75,45.667L44.75,51.5L53.5,51.5L53.5,45.667ZM27.25,45.667L18.5,45.667L18.5,51.5L27.25,51.5L27.25,45.667ZM18.5,45.667C16.968,45.667 15.451,45.365 14.035,44.779L11.803,50.168C13.926,51.047 16.202,51.5 18.5,51.5L18.5,45.667ZM14.035,44.779C12.62,44.192 11.334,43.333 10.25,42.25L6.125,46.374C7.75,47.999 9.68,49.288 11.803,50.168L14.035,44.779ZM10.25,42.25C8.062,40.062 6.833,37.094 6.833,34L1,34C1,38.641 2.844,43.092 6.125,46.374L10.25,42.25ZM6.833,34C6.833,30.906 8.062,27.938 10.25,25.75L6.125,21.625C2.844,24.907 1,29.359 1,34L6.833,34ZM10.25,25.75C12.438,23.562 15.406,22.333 18.5,22.333L18.5,16.5C13.859,16.5 9.407,18.344 6.125,21.625L10.25,25.75ZM18.5,22.333L27.25,22.333L27.25,16.5L18.5,16.5L18.5,22.333Z" fill="#042F16"/>
<line x1="24.333" y1="31.083" x2="47.667" y2="31.083" stroke="#042F16" stroke-width="2.917" stroke-miterlimit="3.999327" stroke-linecap="round" stroke-linejoin="round"/>
</svg>
