<svg width="44" height="46" viewBox="0 0 44 46" fill="none" xmlns="http://www.w3.org/2000/svg" xmlns:xlink="http://www.w3.org/1999/xlink">
<path d="M38.5,19.333L40.5,19.333L38.5,19.333ZM22,43.166L20.891,44.83C21.562,45.278 22.438,45.278 23.109,44.83L22,43.166ZM5.5,19.333L3.5,19.333L5.5,19.333ZM22,2.833L22,4.833L22,2.833ZM36.5,19.333C36.5,24.946 32.844,30.417 28.798,34.687C26.816,36.779 24.828,38.492 23.332,39.683C22.586,40.277 21.967,40.738 21.538,41.047C21.324,41.202 21.157,41.319 21.047,41.396C20.991,41.434 20.95,41.462 20.924,41.48C20.91,41.489 20.901,41.495 20.895,41.499C20.893,41.501 20.891,41.502 20.89,41.503C20.89,41.503 20.89,41.503 20.89,41.503C20.89,41.503 20.89,41.503 20.89,41.503C20.89,41.502 20.891,41.502 22,43.166C23.109,44.83 23.11,44.83 23.11,44.83C23.111,44.83 23.111,44.829 23.112,44.829C23.113,44.828 23.114,44.827 23.116,44.826C23.119,44.824 23.123,44.821 23.128,44.818C23.139,44.811 23.153,44.801 23.171,44.789C23.207,44.764 23.258,44.729 23.324,44.684C23.455,44.593 23.643,44.461 23.88,44.29C24.353,43.948 25.023,43.449 25.824,42.812C27.422,41.539 29.559,39.7 31.702,37.438C35.906,33 40.5,26.554 40.5,19.333L36.5,19.333ZM22,43.166C23.109,41.502 23.11,41.502 23.11,41.503C23.11,41.503 23.11,41.503 23.11,41.503C23.11,41.503 23.11,41.503 23.11,41.503C23.109,41.502 23.107,41.501 23.105,41.499C23.099,41.495 23.09,41.489 23.076,41.48C23.05,41.462 23.009,41.434 22.953,41.396C22.843,41.319 22.676,41.202 22.462,41.047C22.033,40.738 21.414,40.277 20.668,39.683C19.172,38.492 17.184,36.779 15.202,34.687C11.156,30.417 7.5,24.946 7.5,19.333L3.5,19.333C3.5,26.554 8.094,33 12.298,37.438C14.441,39.7 16.578,41.539 18.176,42.812C18.977,43.449 19.647,43.948 20.12,44.29C20.357,44.461 20.545,44.593 20.676,44.684C20.742,44.729 20.793,44.764 20.829,44.789C20.847,44.801 20.861,44.811 20.872,44.818C20.877,44.821 20.881,44.824 20.884,44.826C20.886,44.827 20.887,44.828 20.888,44.829C20.889,44.829 20.889,44.83 20.89,44.83C20.89,44.83 20.891,44.83 22,43.166ZM7.5,19.333C7.5,15.487 9.028,11.799 11.747,9.08L8.919,6.252C5.449,9.721 3.5,14.427 3.5,19.333L7.5,19.333ZM11.747,9.08C14.466,6.361 18.154,4.833 22,4.833L22,0.833C17.094,0.833 12.388,2.782 8.919,6.252L11.747,9.08ZM22,4.833C25.846,4.833 29.534,6.361 32.253,9.08L35.081,6.252C31.612,2.782 26.907,0.833 22,0.833L22,4.833ZM32.253,9.08C34.972,11.799 36.5,15.487 36.5,19.333L40.5,19.333C40.5,14.427 38.551,9.721 35.081,6.252L32.253,9.08Z" fill="#FFFFFF"/>
<path d="M25.5,19.333C25.5,21.266 23.933,22.833 22,22.833L22,26.833C26.142,26.833 29.5,23.475 29.5,19.333L25.5,19.333ZM22,22.833C20.067,22.833 18.5,21.266 18.5,19.333L14.5,19.333C14.5,23.475 17.858,26.833 22,26.833L22,22.833ZM18.5,19.333C18.5,17.4 20.067,15.833 22,15.833L22,11.833C17.858,11.833 14.5,15.191 14.5,19.333L18.5,19.333ZM22,15.833C23.933,15.833 25.5,17.4 25.5,19.333L29.5,19.333C29.5,15.191 26.142,11.833 22,11.833L22,15.833Z" fill="#FFFFFF"/>
</svg>
