<svg width="48" height="48" viewBox="0 0 48 48" fill="none" xmlns="http://www.w3.org/2000/svg" xmlns:xlink="http://www.w3.org/1999/xlink">
<path d="M30,4C28.895,4 28,4.895 28,6C28,7.105 28.895,8 30,8L30,4ZM38,6L38,4L38,6ZM30,40C28.895,40 28,40.895 28,42C28,43.105 28.895,44 30,44L30,40ZM30,8L38,8L38,4L30,4L30,8ZM38,8C38.53,8 39.039,8.211 39.414,8.586L42.243,5.757C41.117,4.632 39.591,4 38,4L38,8ZM39.414,8.586C39.789,8.961 40,9.47 40,10L44,10C44,8.409 43.368,6.883 42.243,5.757L39.414,8.586ZM40,10L40,38L44,38L44,10L40,10ZM40,38C40,38.53 39.789,39.039 39.414,39.414L42.243,42.243C43.368,41.117 44,39.591 44,38L40,38ZM39.414,39.414C39.039,39.789 38.53,40 38,40L38,44C39.591,44 41.117,43.368 42.243,42.243L39.414,39.414ZM38,40L30,40L30,44L38,44L38,40Z" fill="#E4E4E3"/>
<path d="M18.586,32.586C17.805,33.367 17.805,34.633 18.586,35.414C19.367,36.195 20.633,36.195 21.414,35.414L18.586,32.586ZM30,24L31.414,25.414C32.195,24.633 32.195,23.367 31.414,22.586L30,24ZM21.414,12.586C20.633,11.805 19.367,11.805 18.586,12.586C17.805,13.367 17.805,14.633 18.586,15.414L21.414,12.586ZM21.414,35.414L31.414,25.414L28.586,22.586L18.586,32.586L21.414,35.414ZM31.414,22.586L21.414,12.586L18.586,15.414L28.586,25.414L31.414,22.586Z" fill="#E4E4E3"/>
<line x1="6" y1="22" x2="30" y2="22" stroke="#E4E4E3" stroke-width="2" stroke-miterlimit="3.999327" stroke-linecap="round" stroke-linejoin="round"/>
</svg>
