<svg width="34" height="34" viewBox="0 0 34 34" fill="none" xmlns="http://www.w3.org/2000/svg" xmlns:xlink="http://www.w3.org/1999/xlink">
<path d="M17.001,15.682L30.579,6.987C30.033,6.579 29.37,6.356 28.688,6.352L5.313,6.352C4.631,6.356 3.968,6.579 3.422,6.987L17.001,15.682Z" fill="#FFFFFF"/>
<path d="M17.574,17.837L17.393,17.922L17.308,17.922C17.21,17.966 17.106,17.994 17,18.007C16.912,18.018 16.823,18.018 16.734,18.007L16.649,18.007L16.469,17.922L2.231,8.75C2.163,9.006 2.128,9.269 2.125,9.534L2.125,24.361C2.125,25.204 2.461,26.012 3.059,26.608C3.656,27.204 4.467,27.539 5.313,27.539L28.687,27.539C29.533,27.539 30.344,27.204 30.941,26.608C31.539,26.012 31.875,25.204 31.875,24.361L31.875,9.534C31.872,9.269 31.837,9.006 31.769,8.75L17.574,17.837Z" fill="#FFFFFF"/>
</svg>
