<svg width="36" height="48" viewBox="0 0 36 48" fill="none" xmlns="http://www.w3.org/2000/svg" xmlns:xlink="http://www.w3.org/1999/xlink">
<path d="M16.118,12.805C16.118,11.041 14.725,9.6 13.021,9.6C11.317,9.6 9.924,11.041 9.924,12.805L9.924,19.2L16.101,19.2L16.101,12.805L16.118,12.805Z" fill="#E4E4E3"/>
<path d="M25.391,20.082L25.391,12.789C25.391,11.025 23.998,9.583 22.294,9.583C20.59,9.583 19.197,11.025 19.197,12.789L19.197,19.183L22.294,19.183C23.425,19.183 24.473,19.522 25.391,20.065Z" fill="#E4E4E3"/>
<path d="M6.843,3.206C6.843,1.442 5.451,0 3.746,0C2.042,0 0.666,1.442 0.666,3.206L0.666,22.592C2.288,20.879 4.451,19.726 6.843,19.37L6.843,3.206Z" fill="#E4E4E3"/>
<path d="M31.586,0C29.881,0 28.489,1.442 28.489,3.206L28.489,25.611C28.489,29.139 25.719,32.006 22.311,32.006L17.035,32.006C20.23,34.652 22.311,38.654 22.311,43.2C22.311,44.082 21.623,44.794 20.771,44.794C19.919,44.794 19.231,44.082 19.231,43.2C19.231,37.026 14.381,32.006 8.416,32.006C7.564,32.006 6.876,31.293 6.876,30.411C6.876,29.529 7.564,28.817 8.416,28.817L22.328,28.817C24.032,28.817 25.425,27.375 25.425,25.611C25.425,23.847 24.032,22.406 22.328,22.406L8.4,22.406C4.14,22.406 0.666,25.984 0.666,30.394L0.666,33.6C0.666,41.538 6.909,48 14.577,48L20.755,48C28.423,48 34.666,41.538 34.666,33.6L34.666,3.206C34.666,1.442 33.29,0 31.586,0Z" fill="#E4E4E3"/>
</svg>
