<svg width="36" height="48" viewBox="0 0 36 48" fill="none" xmlns="http://www.w3.org/2000/svg" xmlns:xlink="http://www.w3.org/1999/xlink">
<path d="M16.119,12.805C16.119,11.041 14.726,9.6 13.022,9.6C11.318,9.6 9.925,11.041 9.925,12.805L9.925,19.2L16.102,19.2L16.102,12.805L16.119,12.805Z" fill="#E4E4E3"/>
<path d="M25.393,20.082L25.393,12.789C25.393,11.025 24,9.583 22.296,9.583C20.592,9.583 19.199,11.025 19.199,12.789L19.199,19.183L22.296,19.183C23.427,19.183 24.475,19.522 25.393,20.065Z" fill="#E4E4E3"/>
<path d="M6.844,3.206C6.844,1.442 5.452,0 3.747,0C2.043,0 0.667,1.442 0.667,3.206L0.667,22.592C2.289,20.879 4.452,19.726 6.844,19.37L6.844,3.206Z" fill="#E4E4E3"/>
<path d="M31.587,0C29.882,0 28.49,1.442 28.49,3.206L28.49,25.611C28.49,29.139 25.72,32.006 22.312,32.006L17.036,32.006C20.231,34.652 22.312,38.654 22.312,43.2C22.312,44.082 21.624,44.794 20.772,44.794C19.92,44.794 19.232,44.082 19.232,43.2C19.232,37.026 14.382,32.006 8.417,32.006C7.565,32.006 6.877,31.293 6.877,30.411C6.877,29.529 7.565,28.817 8.417,28.817L22.329,28.817C24.033,28.817 25.426,27.375 25.426,25.611C25.426,23.847 24.033,22.406 22.329,22.406L8.401,22.406C4.141,22.406 0.667,25.984 0.667,30.394L0.667,33.6C0.667,41.538 6.91,48 14.578,48L20.756,48C28.424,48 34.667,41.538 34.667,33.6L34.667,3.206C34.667,1.442 33.291,0 31.587,0Z" fill="#E4E4E3"/>
</svg>
