<svg width="34" height="48" viewBox="0 0 34 48" fill="none" xmlns="http://www.w3.org/2000/svg" xmlns:xlink="http://www.w3.org/1999/xlink">
<path d="M15.452,12.805C15.452,11.041 14.059,9.6 12.355,9.6C10.651,9.6 9.258,11.041 9.258,12.805L9.258,19.2L15.435,19.2L15.435,12.805L15.452,12.805Z" fill="#1ED760"/>
<path d="M24.726,20.082L24.726,12.789C24.726,11.025 23.333,9.583 21.629,9.583C19.925,9.583 18.532,11.025 18.532,12.789L18.532,19.183L21.629,19.183C22.76,19.183 23.808,19.522 24.726,20.065Z" fill="#1ED760"/>
<path d="M6.177,3.206C6.177,1.442 4.785,0 3.08,0C1.376,0 0,1.442 0,3.206L0,22.592C1.622,20.879 3.785,19.726 6.177,19.37L6.177,3.206Z" fill="#1ED760"/>
<path d="M30.92,0C29.215,0 27.823,1.442 27.823,3.206L27.823,25.611C27.823,29.139 25.053,32.006 21.645,32.006L16.369,32.006C19.564,34.652 21.645,38.654 21.645,43.2C21.645,44.082 20.957,44.794 20.105,44.794C19.253,44.794 18.565,44.082 18.565,43.2C18.565,37.026 13.715,32.006 7.75,32.006C6.898,32.006 6.21,31.293 6.21,30.411C6.21,29.529 6.898,28.817 7.75,28.817L21.662,28.817C23.366,28.817 24.759,27.375 24.759,25.611C24.759,23.847 23.366,22.406 21.662,22.406L7.734,22.406C3.474,22.406 0,25.984 0,30.394L0,33.6C0,41.538 6.243,48 13.911,48L20.089,48C27.757,48 34,41.538 34,33.6L34,3.206C34,1.442 32.624,0 30.92,0Z" fill="#1ED760"/>
</svg>
