<svg width="34" height="48" viewBox="0 0 34 48" fill="none" xmlns="http://www.w3.org/2000/svg" xmlns:xlink="http://www.w3.org/1999/xlink">
<path d="M14.452,12.805C14.452,11.041 13.059,9.6 11.355,9.6C9.651,9.6 8.258,11.041 8.258,12.805L8.258,19.2L14.435,19.2L14.435,12.805L14.452,12.805Z" fill="#E4E4E3"/>
<path d="M23.725,20.082L23.725,12.789C23.725,11.025 22.332,9.583 20.628,9.583C18.924,9.583 17.531,11.025 17.531,12.789L17.531,19.183L20.628,19.183C21.759,19.183 22.807,19.522 23.725,20.065Z" fill="#E4E4E3"/>
<path d="M5.177,3.206C5.177,1.442 3.785,0 2.08,0C0.376,0 -1,1.442 -1,3.206L-1,22.592C0.622,20.879 2.785,19.726 5.177,19.37L5.177,3.206Z" fill="#E4E4E3"/>
<path d="M29.92,0C28.215,0 26.823,1.442 26.823,3.206L26.823,25.611C26.823,29.139 24.053,32.006 20.645,32.006L15.369,32.006C18.564,34.652 20.645,38.654 20.645,43.2C20.645,44.082 19.957,44.794 19.105,44.794C18.253,44.794 17.565,44.082 17.565,43.2C17.565,37.026 12.715,32.006 6.75,32.006C5.898,32.006 5.21,31.293 5.21,30.411C5.21,29.529 5.898,28.817 6.75,28.817L20.662,28.817C22.366,28.817 23.759,27.375 23.759,25.611C23.759,23.847 22.366,22.406 20.662,22.406L6.734,22.406C2.474,22.406 -1,25.984 -1,30.394L-1,33.6C-1,41.538 5.243,48 12.911,48L19.089,48C26.757,48 33,41.538 33,33.6L33,3.206C33,1.442 31.624,0 29.92,0Z" fill="#E4E4E3"/>
</svg>
