<svg width="34" height="48" viewBox="0 0 34 48" fill="none" xmlns="http://www.w3.org/2000/svg" xmlns:xlink="http://www.w3.org/1999/xlink">
<path d="M14.785,12.441C14.785,10.677 13.392,9.235 11.688,9.235C9.984,9.235 8.591,10.677 8.591,12.441L8.591,18.835L14.768,18.835L14.768,12.441L14.785,12.441Z" fill="#E4E4E3"/>
<path d="M24.059,19.718L24.059,12.424C24.059,10.66 22.666,9.219 20.962,9.219C19.258,9.219 17.865,10.66 17.865,12.424L17.865,18.819L20.962,18.819C22.093,18.819 23.141,19.158 24.059,19.701Z" fill="#E4E4E3"/>
<path d="M5.51,2.841C5.51,1.077 4.118,-0.364 2.413,-0.364C0.709,-0.364 -0.667,1.077 -0.667,2.841L-0.667,22.228C0.955,20.515 3.118,19.362 5.51,19.005L5.51,2.841Z" fill="#E4E4E3"/>
<path d="M30.253,-0.364C28.548,-0.364 27.156,1.077 27.156,2.841L27.156,25.247C27.156,28.775 24.386,31.641 20.978,31.641L15.702,31.641C18.897,34.287 20.978,38.29 20.978,42.836C20.978,43.718 20.29,44.43 19.438,44.43C18.586,44.43 17.898,43.718 17.898,42.836C17.898,36.662 13.048,31.641 7.083,31.641C6.231,31.641 5.543,30.929 5.543,30.047C5.543,29.165 6.231,28.453 7.083,28.453L20.995,28.453C22.699,28.453 24.092,27.011 24.092,25.247C24.092,23.483 22.699,22.041 20.995,22.041L7.067,22.041C2.807,22.041 -0.667,25.62 -0.667,30.03L-0.667,33.236C-0.667,41.174 5.576,47.636 13.244,47.636L19.422,47.636C27.09,47.636 33.333,41.174 33.333,33.236L33.333,2.841C33.333,1.077 31.957,-0.364 30.253,-0.364Z" fill="#E4E4E3"/>
</svg>
