<svg width="34" height="50" viewBox="0 0 34 50" fill="none" xmlns="http://www.w3.org/2000/svg" xmlns:xlink="http://www.w3.org/1999/xlink">
<path d="M15.452,12.978C15.452,11.214 14.059,9.772 12.355,9.772C10.651,9.772 9.258,11.214 9.258,12.978L9.258,19.372L15.435,19.372L15.435,12.978L15.452,12.978Z" fill="#E4E4E3"/>
<path d="M24.726,20.254L24.726,12.961C24.726,11.197 23.333,9.755 21.629,9.755C19.925,9.755 18.532,11.197 18.532,12.961L18.532,19.355L21.629,19.355C22.76,19.355 23.808,19.694 24.726,20.237Z" fill="#E4E4E3"/>
<path d="M6.177,3.378C6.177,1.614 4.785,0.172 3.08,0.172C1.376,0.172 0,1.614 0,3.378L0,22.764C1.622,21.051 3.785,19.898 6.177,19.541L6.177,3.378Z" fill="#E4E4E3"/>
<path d="M30.92,0.172C29.215,0.172 27.823,1.614 27.823,3.378L27.823,25.783C27.823,29.311 25.053,32.177 21.645,32.177L16.369,32.177C19.564,34.823 21.645,38.826 21.645,43.372C21.645,44.254 20.957,44.966 20.105,44.966C19.253,44.966 18.565,44.254 18.565,43.372C18.565,37.198 13.715,32.177 7.75,32.177C6.898,32.177 6.21,31.465 6.21,30.583C6.21,29.701 6.898,28.989 7.75,28.989L21.662,28.989C23.366,28.989 24.759,27.547 24.759,25.783C24.759,24.019 23.366,22.577 21.662,22.577L7.734,22.577C3.474,22.577 0,26.156 0,30.566L0,33.772C0,41.71 6.243,48.172 13.911,48.172L20.089,48.172C27.757,48.172 34,41.71 34,33.772L34,3.378C34,1.614 32.624,0.172 30.92,0.172Z" fill="#E4E4E3"/>
</svg>
