<svg width="34" height="48" viewBox="0 0 34 48" fill="none" xmlns="http://www.w3.org/2000/svg" xmlns:xlink="http://www.w3.org/1999/xlink">
<path d="M14.785,12.805C14.785,11.041 13.392,9.6 11.688,9.6C9.984,9.6 8.591,11.041 8.591,12.805L8.591,19.2L14.769,19.2L14.769,12.805L14.785,12.805Z" fill="#E4E4E3"/>
<path d="M24.059,20.082L24.059,12.789C24.059,11.025 22.666,9.583 20.962,9.583C19.258,9.583 17.865,11.025 17.865,12.789L17.865,19.183L20.962,19.183C22.093,19.183 23.142,19.522 24.059,20.065Z" fill="#E4E4E3"/>
<path d="M5.511,3.206C5.511,1.442 4.118,0 2.414,0C0.71,0 -0.667,1.442 -0.667,3.206L-0.667,22.592C0.955,20.879 3.118,19.726 5.511,19.37L5.511,3.206Z" fill="#E4E4E3"/>
<path d="M30.253,0C28.549,0 27.156,1.442 27.156,3.206L27.156,25.611C27.156,29.139 24.387,32.006 20.979,32.006L15.702,32.006C18.898,34.652 20.979,38.654 20.979,43.2C20.979,44.082 20.291,44.794 19.438,44.794C18.586,44.794 17.898,44.082 17.898,43.2C17.898,37.026 13.048,32.006 7.084,32.006C6.232,32.006 5.543,31.293 5.543,30.411C5.543,29.529 6.232,28.817 7.084,28.817L20.995,28.817C22.699,28.817 24.092,27.375 24.092,25.611C24.092,23.847 22.699,22.406 20.995,22.406L7.067,22.406C2.807,22.406 -0.667,25.984 -0.667,30.394L-0.667,33.6C-0.667,41.538 5.576,48 13.245,48L19.422,48C27.091,48 33.333,41.538 33.333,33.6L33.333,3.206C33.333,1.442 31.957,0 30.253,0Z" fill="#E4E4E3"/>
</svg>
