<svg width="36" height="48" viewBox="0 0 36 48" fill="none" xmlns="http://www.w3.org/2000/svg" xmlns:xlink="http://www.w3.org/1999/xlink">
<path d="M15.973,12.806C15.973,11.042 14.58,9.6 12.876,9.6C11.172,9.6 9.779,11.042 9.779,12.806L9.779,19.2L15.957,19.2L15.957,12.806L15.973,12.806Z" fill="#E4E4E3"/>
<path d="M25.247,20.082L25.247,12.789C25.247,11.025 23.855,9.583 22.151,9.583C20.446,9.583 19.054,11.025 19.054,12.789L19.054,19.183L22.151,19.183C23.281,19.183 24.33,19.522 25.247,20.065Z" fill="#E4E4E3"/>
<path d="M6.699,3.206C6.699,1.442 5.306,0 3.602,0C1.898,0 0.521,1.442 0.521,3.206L0.521,22.592C2.144,20.879 4.307,19.726 6.699,19.37L6.699,3.206Z" fill="#E4E4E3"/>
<path d="M31.441,0C29.737,0 28.344,1.442 28.344,3.206L28.344,25.611C28.344,29.139 25.575,32.006 22.167,32.006L16.891,32.006C20.086,34.652 22.167,38.654 22.167,43.2C22.167,44.082 21.479,44.794 20.626,44.794C19.775,44.794 19.086,44.082 19.086,43.2C19.086,37.026 14.236,32.006 8.272,32.006C7.42,32.006 6.732,31.293 6.732,30.411C6.732,29.529 7.42,28.817 8.272,28.817L22.183,28.817C23.887,28.817 25.28,27.375 25.28,25.611C25.28,23.847 23.887,22.406 22.183,22.406L8.255,22.406C3.995,22.406 0.521,25.984 0.521,30.394L0.521,33.6C0.521,41.538 6.764,48 14.433,48L20.61,48C28.279,48 34.521,41.538 34.521,33.6L34.521,3.206C34.521,1.442 33.145,0 31.441,0Z" fill="#E4E4E3"/>
</svg>
