<svg width="34" height="50" viewBox="0 0 34 50" fill="none" xmlns="http://www.w3.org/2000/svg" xmlns:xlink="http://www.w3.org/1999/xlink">
<path d="M15.452,13.224C15.452,11.46 14.059,10.019 12.355,10.019C10.651,10.019 9.258,11.46 9.258,13.224L9.258,19.619L15.435,19.619L15.435,13.224L15.452,13.224Z" fill="#E4E4E3"/>
<path d="M24.726,20.5L24.726,13.207C24.726,11.443 23.333,10.001 21.629,10.001C19.925,10.001 18.532,11.443 18.532,13.207L18.532,19.601L21.629,19.601C22.76,19.601 23.808,19.941 24.726,20.483Z" fill="#E4E4E3"/>
<path d="M6.177,3.624C6.177,1.86 4.785,0.418 3.08,0.418C1.376,0.418 0,1.86 0,3.624L0,23.011C1.622,21.298 3.785,20.144 6.177,19.788L6.177,3.624Z" fill="#E4E4E3"/>
<path d="M30.92,0.418C29.215,0.418 27.823,1.86 27.823,3.624L27.823,26.03C27.823,29.558 25.053,32.424 21.645,32.424L16.369,32.424C19.564,35.07 21.645,39.073 21.645,43.618C21.645,44.5 20.957,45.213 20.105,45.213C19.253,45.213 18.565,44.5 18.565,43.618C18.565,37.445 13.715,32.424 7.75,32.424C6.898,32.424 6.21,31.712 6.21,30.83C6.21,29.948 6.898,29.235 7.75,29.235L21.662,29.235C23.366,29.235 24.759,27.794 24.759,26.03C24.759,24.266 23.366,22.824 21.662,22.824L7.734,22.824C3.474,22.824 0,26.403 0,30.813L0,34.018C0,41.956 6.243,48.418 13.911,48.418L20.089,48.418C27.757,48.418 34,41.956 34,34.018L34,3.624C34,1.86 32.624,0.418 30.92,0.418Z" fill="#E4E4E3"/>
</svg>
