<svg width="34" height="50" viewBox="0 0 34 50" fill="none" xmlns="http://www.w3.org/2000/svg" xmlns:xlink="http://www.w3.org/1999/xlink">
<path d="M15.452,13.014C15.452,11.25 14.059,9.809 12.355,9.809C10.651,9.809 9.258,11.25 9.258,13.014L9.258,19.409L15.435,19.409L15.435,13.014L15.452,13.014Z" fill="#E4E4E3"/>
<path d="M24.726,20.292L24.726,12.999C24.726,11.235 23.333,9.793 21.629,9.793C19.925,9.793 18.532,11.235 18.532,12.999L18.532,19.393L21.629,19.393C22.76,19.393 23.808,19.732 24.726,20.275Z" fill="#E4E4E3"/>
<path d="M6.177,3.415C6.177,1.651 4.785,0.209 3.08,0.209C1.376,0.209 0,1.651 0,3.415L0,22.801C1.622,21.088 3.785,19.935 6.177,19.579L6.177,3.415Z" fill="#E4E4E3"/>
<path d="M30.92,0.209C29.215,0.209 27.823,1.651 27.823,3.415L27.823,25.82C27.823,29.348 25.053,32.215 21.645,32.215L16.369,32.215C19.564,34.861 21.645,38.863 21.645,43.409C21.645,44.291 20.957,45.003 20.105,45.003C19.253,45.003 18.565,44.291 18.565,43.409C18.565,37.235 13.715,32.215 7.75,32.215C6.898,32.215 6.21,31.502 6.21,30.62C6.21,29.738 6.898,29.026 7.75,29.026L21.662,29.026C23.366,29.026 24.759,27.584 24.759,25.82C24.759,24.056 23.366,22.615 21.662,22.615L7.734,22.615C3.474,22.615 0,26.193 0,30.603L0,33.809C0,41.747 6.243,48.209 13.911,48.209L20.089,48.209C27.757,48.209 34,41.747 34,33.809L34,3.415C34,1.651 32.624,0.209 30.92,0.209Z" fill="#E4E4E3"/>
</svg>
