<svg width="34" height="48" viewBox="0 0 34 48" fill="none" xmlns="http://www.w3.org/2000/svg" xmlns:xlink="http://www.w3.org/1999/xlink">
<path d="M15.12,12.805C15.12,11.041 13.727,9.6 12.023,9.6C10.319,9.6 8.926,11.041 8.926,12.805L8.926,19.2L15.103,19.2L15.103,12.805L15.12,12.805Z" fill="#E4E4E3"/>
<path d="M24.393,20.082L24.393,12.789C24.393,11.025 23,9.583 21.296,9.583C19.592,9.583 18.199,11.025 18.199,12.789L18.199,19.183L21.296,19.183C22.427,19.183 23.475,19.522 24.393,20.065Z" fill="#E4E4E3"/>
<path d="M5.845,3.206C5.845,1.442 4.453,0 2.748,0C1.044,0 -0.332,1.442 -0.332,3.206L-0.332,22.592C1.29,20.879 3.453,19.726 5.845,19.37L5.845,3.206Z" fill="#E4E4E3"/>
<path d="M30.588,0C28.883,0 27.491,1.442 27.491,3.206L27.491,25.611C27.491,29.139 24.721,32.006 21.313,32.006L16.037,32.006C19.232,34.652 21.313,38.654 21.313,43.2C21.313,44.082 20.625,44.794 19.773,44.794C18.921,44.794 18.233,44.082 18.233,43.2C18.233,37.026 13.383,32.006 7.418,32.006C6.566,32.006 5.878,31.293 5.878,30.411C5.878,29.529 6.566,28.817 7.418,28.817L21.33,28.817C23.034,28.817 24.427,27.375 24.427,25.611C24.427,23.847 23.034,22.406 21.33,22.406L7.402,22.406C3.142,22.406 -0.332,25.984 -0.332,30.394L-0.332,33.6C-0.332,41.538 5.911,48 13.579,48L19.757,48C27.425,48 33.668,41.538 33.668,33.6L33.668,3.206C33.668,1.442 32.292,0 30.588,0Z" fill="#E4E4E3"/>
</svg>
