<svg width="34" height="50" viewBox="0 0 34 50" fill="none" xmlns="http://www.w3.org/2000/svg" xmlns:xlink="http://www.w3.org/1999/xlink">
<path d="M15.152,13.643C15.152,11.879 13.759,10.437 12.055,10.437C10.351,10.437 8.958,11.879 8.958,13.643L8.958,20.037L15.135,20.037L15.135,13.643L15.152,13.643Z" fill="#E4E4E3"/>
<path d="M24.426,20.919L24.426,13.626C24.426,11.862 23.033,10.42 21.329,10.42C19.625,10.42 18.232,11.862 18.232,13.626L18.232,20.02L21.329,20.02C22.46,20.02 23.508,20.359 24.426,20.902Z" fill="#E4E4E3"/>
<path d="M5.877,4.043C5.877,2.279 4.485,0.837 2.781,0.837C1.076,0.837 -0.3,2.279 -0.3,4.043L-0.3,23.429C1.322,21.716 3.485,20.563 5.877,20.207L5.877,4.043Z" fill="#E4E4E3"/>
<path d="M30.62,0.837C28.915,0.837 27.523,2.279 27.523,4.043L27.523,26.448C27.523,29.976 24.753,32.843 21.345,32.843L16.069,32.843C19.264,35.489 21.345,39.491 21.345,44.037C21.345,44.919 20.657,45.631 19.805,45.631C18.953,45.631 18.265,44.919 18.265,44.037C18.265,37.863 13.415,32.843 7.45,32.843C6.598,32.843 5.91,32.13 5.91,31.248C5.91,30.366 6.598,29.654 7.45,29.654L21.362,29.654C23.066,29.654 24.459,28.212 24.459,26.448C24.459,24.684 23.066,23.243 21.362,23.243L7.434,23.243C3.174,23.243 -0.3,26.821 -0.3,31.231L-0.3,34.437C-0.3,42.375 5.943,48.837 13.611,48.837L19.789,48.837C27.457,48.837 33.7,42.375 33.7,34.437L33.7,4.043C33.7,2.279 32.324,0.837 30.62,0.837Z" fill="#E4E4E3"/>
</svg>
