<svg width="36" height="50" viewBox="0 0 36 50" fill="none" xmlns="http://www.w3.org/2000/svg" xmlns:xlink="http://www.w3.org/1999/xlink">
<path d="M15.785,12.872C15.785,11.108 14.392,9.667 12.688,9.667C10.984,9.667 9.591,11.108 9.591,12.872L9.591,19.267L15.768,19.267L15.768,12.872L15.785,12.872Z" fill="#E4E4E3"/>
<path d="M25.059,20.149L25.059,12.855C25.059,11.091 23.666,9.65 21.962,9.65C20.258,9.65 18.865,11.091 18.865,12.855L18.865,19.25L21.962,19.25C23.093,19.25 24.141,19.589 25.059,20.132Z" fill="#E4E4E3"/>
<path d="M6.51,3.272C6.51,1.508 5.118,0.067 3.413,0.067C1.709,0.067 0.333,1.508 0.333,3.272L0.333,22.659C1.955,20.946 4.118,19.792 6.51,19.436L6.51,3.272Z" fill="#E4E4E3"/>
<path d="M31.253,0.067C29.548,0.067 28.156,1.508 28.156,3.272L28.156,25.678C28.156,29.206 25.386,32.072 21.978,32.072L16.702,32.072C19.897,34.718 21.978,38.721 21.978,43.267C21.978,44.149 21.29,44.861 20.438,44.861C19.586,44.861 18.898,44.149 18.898,43.267C18.898,37.093 14.048,32.072 8.083,32.072C7.231,32.072 6.543,31.36 6.543,30.478C6.543,29.596 7.231,28.884 8.083,28.884L21.995,28.884C23.699,28.884 25.092,27.442 25.092,25.678C25.092,23.914 23.699,22.472 21.995,22.472L8.067,22.472C3.807,22.472 0.333,26.051 0.333,30.461L0.333,33.667C0.333,41.604 6.576,48.067 14.244,48.067L20.422,48.067C28.09,48.067 34.333,41.604 34.333,33.667L34.333,3.272C34.333,1.508 32.957,0.067 31.253,0.067Z" fill="#E4E4E3"/>
</svg>
