<svg width="34" height="48" viewBox="0 0 34 48" fill="none" xmlns="http://www.w3.org/2000/svg" xmlns:xlink="http://www.w3.org/1999/xlink">
<path d="M15.351,12.06C15.351,10.296 13.959,8.854 12.255,8.854C10.55,8.854 9.158,10.296 9.158,12.06L9.158,18.454L15.335,18.454L15.335,12.06L15.351,12.06Z" fill="#E4E4E3"/>
<path d="M24.626,19.337L24.626,12.044C24.626,10.28 23.233,8.838 21.529,8.838C19.825,8.838 18.432,10.28 18.432,12.044L18.432,18.438L21.529,18.438C22.659,18.438 23.708,18.777 24.626,19.32Z" fill="#E4E4E3"/>
<path d="M6.077,2.461C6.077,0.697 4.684,-0.745 2.98,-0.745C1.276,-0.745 -0.1,0.697 -0.1,2.461L-0.1,21.847C1.522,20.134 3.685,18.981 6.077,18.625L6.077,2.461Z" fill="#E4E4E3"/>
<path d="M30.82,-0.745C29.115,-0.745 27.723,0.697 27.723,2.461L27.723,24.866C27.723,28.394 24.953,31.26 21.545,31.26L16.269,31.26C19.464,33.906 21.545,37.909 21.545,42.455C21.545,43.337 20.857,44.049 20.005,44.049C19.153,44.049 18.465,43.337 18.465,42.455C18.465,36.281 13.615,31.26 7.65,31.26C6.798,31.26 6.11,30.548 6.11,29.666C6.11,28.784 6.798,28.072 7.65,28.072L21.562,28.072C23.266,28.072 24.659,26.63 24.659,24.866C24.659,23.102 23.266,21.66 21.562,21.66L7.634,21.66C3.374,21.66 -0.1,25.239 -0.1,29.649L-0.1,32.855C-0.1,40.793 6.143,47.255 13.811,47.255L19.989,47.255C27.657,47.255 33.9,40.793 33.9,32.855L33.9,2.461C33.9,0.697 32.524,-0.745 30.82,-0.745Z" fill="#E4E4E3"/>
</svg>
