<svg width="36" height="50" viewBox="0 0 36 50" fill="none" xmlns="http://www.w3.org/2000/svg" xmlns:xlink="http://www.w3.org/1999/xlink">
<path d="M15.785,13.163C15.785,11.399 14.392,9.957 12.688,9.957C10.984,9.957 9.591,11.399 9.591,13.163L9.591,19.557L15.768,19.557L15.768,13.163L15.785,13.163Z" fill="#E4E4E3"/>
<path d="M25.059,20.439L25.059,13.146C25.059,11.382 23.666,9.94 21.962,9.94C20.258,9.94 18.865,11.382 18.865,13.146L18.865,19.54L21.962,19.54C23.093,19.54 24.141,19.879 25.059,20.422Z" fill="#E4E4E3"/>
<path d="M6.51,3.563C6.51,1.799 5.118,0.357 3.413,0.357C1.709,0.357 0.333,1.799 0.333,3.563L0.333,22.949C1.955,21.236 4.118,20.083 6.51,19.727L6.51,3.563Z" fill="#E4E4E3"/>
<path d="M31.253,0.357C29.548,0.357 28.156,1.799 28.156,3.563L28.156,25.968C28.156,29.496 25.386,32.363 21.978,32.363L16.702,32.363C19.897,35.009 21.978,39.011 21.978,43.557C21.978,44.439 21.29,45.151 20.438,45.151C19.586,45.151 18.898,44.439 18.898,43.557C18.898,37.383 14.048,32.363 8.083,32.363C7.231,32.363 6.543,31.65 6.543,30.768C6.543,29.886 7.231,29.174 8.083,29.174L21.995,29.174C23.699,29.174 25.092,27.732 25.092,25.968C25.092,24.204 23.699,22.763 21.995,22.763L8.067,22.763C3.807,22.763 0.333,26.341 0.333,30.751L0.333,33.957C0.333,41.895 6.576,48.357 14.244,48.357L20.422,48.357C28.09,48.357 34.333,41.895 34.333,33.957L34.333,3.563C34.333,1.799 32.957,0.357 31.253,0.357Z" fill="#E4E4E3"/>
</svg>
