<svg width="36" height="48" viewBox="0 0 36 48" fill="none" xmlns="http://www.w3.org/2000/svg" xmlns:xlink="http://www.w3.org/1999/xlink">
<path d="M15.952,12.005C15.952,10.242 14.559,8.8 12.855,8.8C11.151,8.8 9.758,10.242 9.758,12.005L9.758,18.4L15.935,18.4L15.935,12.005L15.952,12.005Z" fill="#E4E4E3"/>
<path d="M25.226,19.282L25.226,11.989C25.226,10.225 23.833,8.783 22.129,8.783C20.425,8.783 19.032,10.225 19.032,11.989L19.032,18.383L22.129,18.383C23.26,18.383 24.308,18.722 25.226,19.265Z" fill="#E4E4E3"/>
<path d="M6.677,2.406C6.677,0.642 5.285,-0.8 3.58,-0.8C1.876,-0.8 0.5,0.642 0.5,2.406L0.5,21.792C2.122,20.079 4.285,18.926 6.677,18.57L6.677,2.406Z" fill="#E4E4E3"/>
<path d="M31.42,-0.8C29.715,-0.8 28.323,0.642 28.323,2.406L28.323,24.812C28.323,28.339 25.553,31.206 22.145,31.206L16.869,31.206C20.064,33.852 22.145,37.855 22.145,42.4C22.145,43.282 21.457,43.995 20.605,43.995C19.753,43.995 19.065,43.282 19.065,42.4C19.065,36.226 14.215,31.206 8.25,31.206C7.398,31.206 6.71,30.493 6.71,29.612C6.71,28.73 7.398,28.017 8.25,28.017L22.162,28.017C23.866,28.017 25.259,26.575 25.259,24.812C25.259,23.048 23.866,21.606 22.162,21.606L8.234,21.606C3.974,21.606 0.5,25.185 0.5,29.595L0.5,32.8C0.5,40.738 6.743,47.2 14.411,47.2L20.589,47.2C28.257,47.2 34.5,40.738 34.5,32.8L34.5,2.406C34.5,0.642 33.124,-0.8 31.42,-0.8Z" fill="#E4E4E3"/>
</svg>
