<svg width="34" height="50" viewBox="0 0 34 50" fill="none" xmlns="http://www.w3.org/2000/svg" xmlns:xlink="http://www.w3.org/1999/xlink">
<path d="M14.452,13.187C14.452,11.423 13.059,9.981 11.355,9.981C9.651,9.981 8.258,11.423 8.258,13.187L8.258,19.581L14.435,19.581L14.435,13.187L14.452,13.187Z" fill="#E4E4E3"/>
<path d="M23.726,20.463L23.726,13.17C23.726,11.406 22.333,9.964 20.629,9.964C18.925,9.964 17.532,11.406 17.532,13.17L17.532,19.564L20.629,19.564C21.76,19.564 22.808,19.903 23.726,20.446Z" fill="#E4E4E3"/>
<path d="M5.177,3.587C5.177,1.823 3.785,0.381 2.08,0.381C0.376,0.381 -1,1.823 -1,3.587L-1,22.973C0.622,21.26 2.785,20.107 5.177,19.751L5.177,3.587Z" fill="#E4E4E3"/>
<path d="M29.92,0.381C28.215,0.381 26.823,1.823 26.823,3.587L26.823,25.993C26.823,29.52 24.053,32.387 20.645,32.387L15.369,32.387C18.564,35.033 20.645,39.036 20.645,43.581C20.645,44.463 19.957,45.176 19.105,45.176C18.253,45.176 17.565,44.463 17.565,43.581C17.565,37.407 12.715,32.387 6.75,32.387C5.898,32.387 5.21,31.674 5.21,30.793C5.21,29.911 5.898,29.198 6.75,29.198L20.662,29.198C22.366,29.198 23.759,27.756 23.759,25.993C23.759,24.229 22.366,22.787 20.662,22.787L6.734,22.787C2.474,22.787 -1,26.366 -1,30.776L-1,33.981C-1,41.919 5.243,48.381 12.911,48.381L19.089,48.381C26.757,48.381 33,41.919 33,33.981L33,3.587C33,1.823 31.624,0.381 29.92,0.381Z" fill="#E4E4E3"/>
</svg>
