<svg width="34" height="50" viewBox="0 0 34 50" fill="none" xmlns="http://www.w3.org/2000/svg" xmlns:xlink="http://www.w3.org/1999/xlink">
<path d="M14.785,12.951C14.785,11.187 13.392,9.745 11.688,9.745C9.984,9.745 8.591,11.187 8.591,12.951L8.591,19.345L14.768,19.345L14.768,12.951L14.785,12.951Z" fill="#E4E4E3"/>
<path d="M24.059,20.227L24.059,12.934C24.059,11.17 22.666,9.729 20.962,9.729C19.258,9.729 17.865,11.17 17.865,12.934L17.865,19.329L20.962,19.329C22.093,19.329 23.142,19.668 24.059,20.21Z" fill="#E4E4E3"/>
<path d="M5.511,3.351C5.511,1.587 4.118,0.146 2.414,0.146C0.71,0.146 -0.667,1.587 -0.667,3.351L-0.667,22.738C0.955,21.025 3.118,19.871 5.511,19.515L5.511,3.351Z" fill="#E4E4E3"/>
<path d="M30.253,0.146C28.549,0.146 27.156,1.587 27.156,3.351L27.156,25.757C27.156,29.285 24.387,32.151 20.979,32.151L15.702,32.151C18.898,34.797 20.979,38.8 20.979,43.346C20.979,44.228 20.291,44.94 19.438,44.94C18.586,44.94 17.898,44.228 17.898,43.346C17.898,37.172 13.048,32.151 7.084,32.151C6.232,32.151 5.543,31.439 5.543,30.557C5.543,29.675 6.232,28.963 7.084,28.963L20.995,28.963C22.699,28.963 24.092,27.521 24.092,25.757C24.092,23.993 22.699,22.551 20.995,22.551L7.067,22.551C2.807,22.551 -0.667,26.13 -0.667,30.54L-0.667,33.746C-0.667,41.683 5.576,48.146 13.245,48.146L19.422,48.146C27.091,48.146 33.333,41.683 33.333,33.746L33.333,3.351C33.333,1.587 31.957,0.146 30.253,0.146Z" fill="#E4E4E3"/>
</svg>
