<svg width="34" height="48" viewBox="0 0 34 48" fill="none" xmlns="http://www.w3.org/2000/svg" xmlns:xlink="http://www.w3.org/1999/xlink">
<path d="M15.452,12.245C15.452,10.481 14.059,9.039 12.355,9.039C10.651,9.039 9.258,10.481 9.258,12.245L9.258,18.639L15.435,18.639L15.435,12.245L15.452,12.245Z" fill="#E4E4E3"/>
<path d="M24.725,19.518L24.725,12.225C24.725,10.461 23.332,9.02 21.628,9.02C19.924,9.02 18.531,10.461 18.531,12.225L18.531,18.62L21.628,18.62C22.759,18.62 23.807,18.959 24.725,19.502Z" fill="#E4E4E3"/>
<path d="M6.177,2.643C6.177,0.879 4.785,-0.563 3.08,-0.563C1.376,-0.563 0,0.879 0,2.643L0,22.03C1.622,20.317 3.785,19.163 6.177,18.807L6.177,2.643Z" fill="#E4E4E3"/>
<path d="M30.92,-0.563C29.215,-0.563 27.823,0.879 27.823,2.643L27.823,25.049C27.823,28.577 25.053,31.443 21.645,31.443L16.369,31.443C19.564,34.089 21.645,38.092 21.645,42.637C21.645,43.52 20.957,44.232 20.105,44.232C19.253,44.232 18.565,43.52 18.565,42.637C18.565,36.464 13.715,31.443 7.75,31.443C6.898,31.443 6.21,30.731 6.21,29.849C6.21,28.967 6.898,28.255 7.75,28.255L21.662,28.255C23.366,28.255 24.759,26.813 24.759,25.049C24.759,23.285 23.366,21.843 21.662,21.843L7.734,21.843C3.474,21.843 0,25.422 0,29.832L0,33.037C0,40.975 6.243,47.438 13.911,47.438L20.089,47.438C27.757,47.438 34,40.975 34,33.037L34,2.643C34,0.879 32.624,-0.563 30.92,-0.563Z" fill="#E4E4E3"/>
</svg>
