<svg width="48" height="48" viewBox="0 0 48 48" fill="none" xmlns="http://www.w3.org/2000/svg" xmlns:xlink="http://www.w3.org/1999/xlink">
<path d="M10.899,26.72L12.184,27.494L12.188,27.488L10.899,26.72ZM8.599,30.54L7.314,29.766L7.314,29.766L8.599,30.54ZM10.759,36.4L10.278,37.821L10.284,37.822L10.759,36.4ZM37.299,36.4L36.828,34.976L36.824,34.977L37.299,36.4ZM39.459,30.54L40.745,29.768L40.744,29.766L39.459,30.54ZM37.159,26.72L35.86,27.47L35.874,27.494L37.159,26.72ZM24.039,3.32C16.591,3.32 10.539,9.371 10.539,16.82L13.539,16.82C13.539,11.028 18.248,6.32 24.039,6.32L24.039,3.32ZM10.539,16.82L10.539,22.6L13.539,22.6L13.539,16.82L10.539,16.82ZM10.539,22.6C10.539,23.029 10.442,23.657 10.256,24.326C10.071,24.995 9.83,25.584 9.611,25.952L12.188,27.488C12.588,26.816 12.918,25.955 13.147,25.129C13.376,24.303 13.539,23.391 13.539,22.6L10.539,22.6ZM9.614,25.946L7.314,29.766L9.884,31.314L12.184,27.494L9.614,25.946ZM7.314,29.766C6.392,31.299 6.199,33.018 6.765,34.546C7.33,36.071 8.593,37.25 10.278,37.821L11.24,34.979C10.325,34.669 9.798,34.098 9.578,33.504C9.359,32.911 9.387,32.141 9.884,31.313L7.314,29.766ZM10.284,37.822C19.212,40.806 28.846,40.806 37.774,37.822L36.824,34.977C28.512,37.754 19.546,37.754 11.235,34.977L10.284,37.822ZM37.77,37.824C41.108,36.72 42.557,32.787 40.745,29.768L38.173,31.312C39.001,32.692 38.33,34.479 36.828,34.976L37.77,37.824ZM40.744,29.766L38.444,25.946L35.874,27.494L38.174,31.314L40.744,29.766ZM38.458,25.97C38.243,25.596 38.005,25.001 37.821,24.331C37.636,23.659 37.539,23.03 37.539,22.6L34.539,22.6C34.539,23.39 34.702,24.301 34.928,25.124C35.154,25.949 35.476,26.803 35.86,27.469L38.458,25.97ZM37.539,22.6L37.539,16.82L34.539,16.82L34.539,22.6L37.539,22.6ZM37.539,16.82C37.539,9.391 31.468,3.32 24.039,3.32L24.039,6.32C29.811,6.32 34.539,11.048 34.539,16.82L37.539,16.82Z" fill="#F7F7F6"/>
<path d="M27.74,5.4L27.322,6.84C27.871,7 28.462,6.833 28.848,6.411C29.233,5.989 29.345,5.385 29.136,4.853L27.74,5.4ZM25.82,5L25.634,6.488L25.639,6.489L25.82,5ZM20.34,5.4L18.943,4.853C18.735,5.385 18.847,5.989 19.232,6.411C19.618,6.834 20.21,7 20.759,6.84L20.34,5.4ZM28.158,3.959C27.473,3.76 26.753,3.602 26,3.511L25.639,6.489C26.207,6.558 26.767,6.679 27.322,6.84L28.158,3.959ZM26.006,3.511C23.895,3.248 21.848,3.399 19.921,3.96L20.759,6.84C22.271,6.4 23.905,6.272 25.634,6.488L26.006,3.511ZM21.736,5.947C22.098,5.026 22.994,4.38 24.04,4.38L24.04,1.38C21.726,1.38 19.742,2.814 18.943,4.853L21.736,5.947ZM24.04,4.38C25.086,4.38 25.982,5.026 26.343,5.947L29.136,4.853C28.338,2.814 26.354,1.38 24.04,1.38L24.04,4.38Z" fill="#F7F7F6"/>
<path d="M28.539,37.12C28.539,39.592 26.511,41.62 24.039,41.62L24.039,44.62C28.167,44.62 31.539,41.249 31.539,37.12L28.539,37.12ZM24.039,41.62C22.814,41.62 21.671,41.111 20.86,40.299L18.738,42.421C20.087,43.77 21.984,44.62 24.039,44.62L24.039,41.62ZM20.86,40.299C20.049,39.488 19.539,38.345 19.539,37.12L16.539,37.12C16.539,39.175 17.389,41.072 18.738,42.421L20.86,40.299Z" fill="#F7F7F6"/>
</svg>
