<svg width="48" height="48" viewBox="0 0 48 48" fill="none" xmlns="http://www.w3.org/2000/svg" xmlns:xlink="http://www.w3.org/1999/xlink">
<path d="M21.183,47.287L28.716,47.287C29.757,47.287 30.6,46.444 30.6,45.404C30.6,44.364 29.757,43.521 28.716,43.521L21.183,43.521C20.143,43.521 19.3,44.364 19.3,45.404C19.3,46.444 20.143,47.287 21.183,47.287Z" fill="#E4E4E3"/>
<path d="M24.95,-0.926C23.91,-0.926 23.067,-0.083 23.067,0.958L23.067,2.976C16.686,3.893 11.767,9.394 11.767,16.024L11.767,27.603C11.767,28.266 11.468,28.87 11.023,29.105C9.158,30.09 8,32.005 8,34.104C8,37.22 10.535,39.754 13.65,39.754L36.25,39.754C39.365,39.754 41.9,37.22 41.9,34.104C41.9,32.005 40.742,30.09 38.877,29.105C38.432,28.87 38.133,28.266 38.133,27.603L38.133,16.024C38.133,9.394 33.214,3.893 26.833,2.976L26.833,0.958C26.833,-0.083 25.99,-0.926 24.95,-0.926ZM34.367,16.024L34.367,27.603C34.367,29.688 35.421,31.54 37.118,32.436C37.744,32.766 38.133,33.406 38.133,34.104C38.133,35.143 37.288,35.988 36.25,35.988L13.65,35.988C12.612,35.988 11.767,35.143 11.767,34.104C11.767,33.406 12.156,32.766 12.782,32.436C14.479,31.54 15.533,29.688 15.533,27.603L15.533,16.024C15.533,10.832 19.758,6.608 24.95,6.608C30.142,6.608 34.367,10.832 34.367,16.024Z" fill="#E4E4E3"/>
</svg>
