<svg width="48" height="50" viewBox="0 0 48 50" fill="none" xmlns="http://www.w3.org/2000/svg" xmlns:xlink="http://www.w3.org/1999/xlink">
<path d="M21.184,48.213L28.717,48.213C29.758,48.213 30.601,47.37 30.601,46.33C30.601,45.289 29.758,44.446 28.717,44.446L21.184,44.446C20.144,44.446 19.301,45.289 19.301,46.33C19.301,47.37 20.144,48.213 21.184,48.213Z" fill="#E4E4E3"/>
<path d="M24.95,0C23.91,0 23.067,0.843 23.067,1.883L23.067,3.902C16.686,4.818 11.767,10.32 11.767,16.95L11.767,28.528C11.767,29.192 11.468,29.796 11.023,30.031C9.158,31.015 8,32.931 8,35.03C8,38.145 10.535,40.68 13.65,40.68L36.25,40.68C39.365,40.68 41.9,38.145 41.9,35.03C41.9,32.931 40.742,31.015 38.877,30.031C38.432,29.796 38.133,29.192 38.133,28.528L38.133,16.95C38.133,10.32 33.214,4.818 26.833,3.902L26.833,1.883C26.833,0.843 25.99,0 24.95,0ZM34.367,16.95L34.367,28.528C34.367,30.613 35.421,32.465 37.118,33.362C37.744,33.692 38.133,34.331 38.133,35.03C38.133,36.068 37.288,36.913 36.25,36.913L13.65,36.913C12.612,36.913 11.767,36.068 11.767,35.03C11.767,34.331 12.156,33.692 12.782,33.362C14.479,32.465 15.533,30.613 15.533,28.528L15.533,16.95C15.533,11.758 19.758,7.533 24.95,7.533C30.142,7.533 34.367,11.758 34.367,16.95Z" fill="#E4E4E3"/>
</svg>
