<svg width="68" height="84" viewBox="0 0 68 84" fill="none" xmlns="http://www.w3.org/2000/svg" xmlns:xlink="http://www.w3.org/1999/xlink">
<path d="M0.219,69.696L0.219,61.422L8.493,61.422L8.493,32.463C8.493,26.74 10.216,21.655 13.664,17.208C17.111,12.761 21.593,9.848 27.109,8.469L27.109,5.573C27.109,3.849 27.713,2.384 28.919,1.177C30.126,-0.03 31.591,-0.633 33.315,-0.633C35.038,-0.633 36.504,-0.03 37.71,1.177C38.917,2.384 39.52,3.849 39.52,5.573L39.52,8.469C45.036,9.848 49.518,12.761 52.965,17.208C56.413,21.655 58.137,26.74 58.137,32.463L58.137,61.422L66.411,61.422L66.411,69.696L0.219,69.696ZM33.315,82.107C31.039,82.107 29.092,81.297 27.471,79.676C25.851,78.056 25.041,76.108 25.041,73.833L41.589,73.833C41.589,76.108 40.779,78.056 39.158,79.676C37.538,81.297 35.59,82.107 33.315,82.107Z" fill="#1D1D1B"/>
</svg>
