<svg width="40" height="42" viewBox="0 0 40 42" fill="none" xmlns="http://www.w3.org/2000/svg" xmlns:xlink="http://www.w3.org/1999/xlink">
<path d="M17.653,40.178L23.931,40.178C24.798,40.178 25.501,39.475 25.501,38.609C25.501,37.742 24.798,37.039 23.931,37.039L17.653,37.039C16.787,37.039 16.084,37.742 16.084,38.609C16.084,39.475 16.787,40.178 17.653,40.178Z" fill="#E4E4E3"/>
<path d="M20.791,0C19.924,0 19.222,0.703 19.222,1.569L19.222,3.251C13.905,4.015 9.805,8.6 9.805,14.125L9.805,23.774C9.805,24.327 9.556,24.83 9.185,25.026C7.631,25.846 6.666,27.442 6.666,29.192C6.666,31.788 8.778,33.9 11.374,33.9L30.208,33.9C32.804,33.9 34.916,31.788 34.916,29.192C34.916,27.442 33.951,25.846 32.397,25.026C32.026,24.83 31.777,24.327 31.777,23.774L31.777,14.125C31.777,8.6 27.677,4.015 22.36,3.251L22.36,1.569C22.36,0.703 21.658,0 20.791,0ZM28.638,14.125L28.638,23.774C28.638,25.511 29.517,27.054 30.931,27.801C31.453,28.077 31.777,28.61 31.777,29.192C31.777,30.057 31.073,30.761 30.208,30.761L11.374,30.761C10.509,30.761 9.805,30.057 9.805,29.192C9.805,28.61 10.129,28.077 10.651,27.801C12.065,27.054 12.944,25.511 12.944,23.774L12.944,14.125C12.944,9.798 16.464,6.278 20.791,6.278C25.118,6.278 28.638,9.798 28.638,14.125Z" fill="#E4E4E3"/>
</svg>
