<svg width="48" height="50" viewBox="0 0 48 50" fill="none" xmlns="http://www.w3.org/2000/svg" xmlns:xlink="http://www.w3.org/1999/xlink">
<mask id="mask_0_i_5560_16478;5893_11255" style="mask-type:alpha" maskUnits="userSpaceOnUse" x="0" y="1" width="24" height="24">
<rect  x="0" y="1" width="48" height="48" transform="rotate(0 0 1)" fill="#D9D9D9"/>
</mask>
<g mask="url(#mask_0_i_5560_16478;5893_11255)">
<path d="M12,29C10.9,29 9.958,28.608 9.175,27.825C8.392,27.042 8,26.1 8,25C8,23.9 8.392,22.958 9.175,22.175C9.958,21.392 10.9,21 12,21C13.1,21 14.042,21.392 14.825,22.175C15.608,22.958 16,23.9 16,25C16,26.1 15.608,27.042 14.825,27.825C14.042,28.608 13.1,29 12,29ZM24,29C22.9,29 21.958,28.608 21.175,27.825C20.392,27.042 20,26.1 20,25C20,23.9 20.392,22.958 21.175,22.175C21.958,21.392 22.9,21 24,21C25.1,21 26.042,21.392 26.825,22.175C27.608,22.958 28,23.9 28,25C28,26.1 27.608,27.042 26.825,27.825C26.042,28.608 25.1,29 24,29ZM36,29C34.9,29 33.958,28.608 33.175,27.825C32.392,27.042 32,26.1 32,25C32,23.9 32.392,22.958 33.175,22.175C33.958,21.392 34.9,21 36,21C37.1,21 38.042,21.392 38.825,22.175C39.608,22.958 40,23.9 40,25C40,26.1 39.608,27.042 38.825,27.825C38.042,28.608 37.1,29 36,29Z" transform="rotate(0 24 25)" fill="#FFFFFF"/>
</g>
</svg>
