<svg width="46" height="46" viewBox="0 0 46 46" fill="none" xmlns="http://www.w3.org/2000/svg" xmlns:xlink="http://www.w3.org/1999/xlink">
<mask id="mask_0_i_5602_54875;474_28457" style="mask-type:alpha" maskUnits="userSpaceOnUse" x="0" y="0" width="23" height="23">
<rect  x="0" y="0" width="46" height="46" fill="#D9D9D9"/>
</mask>
<g mask="url(#mask_0_i_5602_54875;474_28457)">
<path d="M21.865,32.103L24.273,32.103L24.273,24.294L32.101,24.294L32.101,21.886L24.273,21.886L24.273,13.895L21.865,13.895L21.865,21.886L13.893,21.886L13.893,24.294L21.865,24.294L21.865,32.103ZM23.009,41.208C20.488,41.208 18.124,40.73 15.917,39.774C13.711,38.818 11.782,37.516 10.132,35.867C8.483,34.217 7.18,32.289 6.223,30.082C5.267,27.874 4.789,25.509 4.789,22.987C4.789,20.472 5.267,18.109 6.223,15.896C7.179,13.683 8.481,11.758 10.13,10.118C11.779,8.479 13.707,7.181 15.915,6.225C18.122,5.269 20.487,4.791 23.01,4.791C25.525,4.791 27.888,5.269 30.101,6.225C32.313,7.18 34.239,8.478 35.878,10.116C37.517,11.754 38.815,13.681 39.771,15.896C40.727,18.111 41.206,20.475 41.206,22.988C41.206,25.508 40.728,27.872 39.772,30.079C38.816,32.286 37.519,34.212 35.881,35.858C34.242,37.504 32.315,38.807 30.1,39.767C27.886,40.728 25.522,41.208 23.009,41.208ZM23.013,38.8C27.404,38.8 31.133,37.263 34.199,34.191C37.265,31.119 38.798,27.383 38.798,22.983C38.798,18.592 37.267,14.864 34.205,11.798C31.143,8.732 27.407,7.199 22.997,7.199C18.609,7.199 14.878,8.73 11.806,11.792C8.733,14.854 7.197,18.59 7.197,22.999C7.197,27.388 8.733,31.119 11.806,34.191C14.878,37.263 18.614,38.8 23.013,38.8Z" fill="#4B36CC"/>
</g>
</svg>
