<svg width="80" height="80" viewBox="0 0 80 80" fill="none" xmlns="http://www.w3.org/2000/svg" xmlns:xlink="http://www.w3.org/1999/xlink">
<path d="M71.334,40C71.334,57.305 57.305,71.334 40,71.334L40,75.334C59.514,75.334 75.334,59.514 75.334,40L71.334,40ZM40,71.334C22.695,71.334 8.667,57.305 8.667,40L4.667,40C4.667,59.514 20.486,75.334 40,75.334L40,71.334ZM8.667,40C8.667,22.695 22.695,8.667 40,8.667L40,4.667C20.486,4.667 4.667,20.486 4.667,40L8.667,40ZM40,8.667C57.305,8.667 71.334,22.695 71.334,40L75.334,40C75.334,20.486 59.514,4.667 40,4.667L40,8.667Z" fill="#FFFFFF"/>
<path d="M33.333,26.667L34.442,25.003C33.829,24.594 33.04,24.556 32.389,24.904C31.739,25.252 31.333,25.929 31.333,26.667L33.333,26.667ZM53.333,40L54.442,41.664C54.999,41.293 55.333,40.669 55.333,40C55.333,39.332 54.999,38.707 54.442,38.336L53.333,40ZM33.333,53.334L31.333,53.334C31.333,54.071 31.739,54.749 32.389,55.097C33.04,55.445 33.829,55.407 34.442,54.998L33.333,53.334ZM32.224,28.331L52.224,41.664L54.442,38.336L34.442,25.003L32.224,28.331ZM52.224,38.336L32.224,51.67L34.442,54.998L54.442,41.664L52.224,38.336ZM35.333,53.334L35.333,26.667L31.333,26.667L31.333,53.334L35.333,53.334Z" fill="#FFFFFF"/>
</svg>
