<svg width="70" height="72" viewBox="0 0 70 72" fill="none" xmlns="http://www.w3.org/2000/svg" xmlns:xlink="http://www.w3.org/1999/xlink">
<path d="M52.75,33.083C52.75,44.497 43.497,53.75 32.083,53.75L32.083,59.083C46.443,59.083 58.083,47.443 58.083,33.083L52.75,33.083ZM32.083,53.75C20.669,53.75 11.417,44.497 11.417,33.083L6.083,33.083C6.083,47.443 17.724,59.083 32.083,59.083L32.083,53.75ZM11.417,33.083C11.417,21.669 20.669,12.417 32.083,12.417L32.083,7.083C17.724,7.083 6.083,18.724 6.083,33.083L11.417,33.083ZM32.083,12.417C43.497,12.417 52.75,21.669 52.75,33.083L58.083,33.083C58.083,18.724 46.443,7.083 32.083,7.083L32.083,12.417Z" fill="#84837D"/>
<path d="M59.364,64.136C60.406,65.177 62.094,65.177 63.136,64.136C64.177,63.094 64.177,61.406 63.136,60.364L59.364,64.136ZM50.448,47.677C49.407,46.635 47.718,46.635 46.677,47.677C45.635,48.718 45.635,50.407 46.677,51.448L50.448,47.677ZM63.136,60.364L50.448,47.677L46.677,51.448L59.364,64.136L63.136,60.364Z" fill="#84837D"/>
</svg>
