<svg width="50" height="48" viewBox="0 0 50 48" fill="none" xmlns="http://www.w3.org/2000/svg" xmlns:xlink="http://www.w3.org/1999/xlink">
<path d="M37,22C37,29.732 30.732,36 23,36L23,40C32.941,40 41,31.941 41,22L37,22ZM23,36C15.268,36 9,29.732 9,22L5,22C5,31.941 13.059,40 23,40L23,36ZM9,22C9,14.268 15.268,8 23,8L23,4C13.059,4 5,12.059 5,22L9,22ZM23,8C30.732,8 37,14.268 37,22L41,22C41,12.059 32.941,4 23,4L23,8Z" fill="#A7A6A1"/>
<path d="M41.586,43.415C42.367,44.196 43.633,44.196 44.414,43.415C45.195,42.634 45.195,41.368 44.414,40.587L41.586,43.415ZM35.714,31.887C34.933,31.106 33.667,31.106 32.886,31.887C32.105,32.668 32.105,33.934 32.886,34.715L35.714,31.887ZM44.414,40.587L35.714,31.887L32.886,34.715L41.586,43.415L44.414,40.587Z" fill="#A7A6A1"/>
</svg>
