<svg width="48" height="48" viewBox="0 0 48 48" fill="none" xmlns="http://www.w3.org/2000/svg" xmlns:xlink="http://www.w3.org/1999/xlink">
<path d="M35,22C35,29.732 28.732,36 21,36L21,40C30.941,40 39,31.941 39,22L35,22ZM21,36C13.268,36 7,29.732 7,22L3,22C3,31.941 11.059,40 21,40L21,36ZM7,22C7,14.268 13.268,8 21,8L21,4C11.059,4 3,12.059 3,22L7,22ZM21,8C28.732,8 35,14.268 35,22L39,22C39,12.059 30.941,4 21,4L21,8Z" fill="#A7A6A1"/>
<path d="M39.587,43.411C40.368,44.192 41.634,44.192 42.415,43.411C43.196,42.63 43.196,41.364 42.415,40.583L39.587,43.411ZM33.715,31.883C32.934,31.102 31.668,31.102 30.887,31.883C30.106,32.664 30.106,33.93 30.887,34.711L33.715,31.883ZM42.415,40.583L33.715,31.883L30.887,34.711L39.587,43.411L42.415,40.583Z" fill="#A7A6A1"/>
</svg>
