<svg width="38" height="38" viewBox="0 0 38 38" fill="none" xmlns="http://www.w3.org/2000/svg" xmlns:xlink="http://www.w3.org/1999/xlink">
<path d="M28.083,17.417C28.083,23.308 23.308,28.083 17.417,28.083L17.417,32.083C25.517,32.083 32.083,25.517 32.083,17.417L28.083,17.417ZM17.417,28.083C11.526,28.083 6.75,23.308 6.75,17.417L2.75,17.417C2.75,25.517 9.317,32.083 17.417,32.083L17.417,28.083ZM6.75,17.417C6.75,11.526 11.526,6.75 17.417,6.75L17.417,2.75C9.317,2.75 2.75,9.317 2.75,17.417L6.75,17.417ZM17.417,6.75C23.308,6.75 28.083,11.526 28.083,17.417L32.083,17.417C32.083,9.317 25.517,2.75 17.417,2.75L17.417,6.75Z" fill="#808189"/>
<path d="M31.833,34.665C32.614,35.446 33.88,35.446 34.661,34.665C35.442,33.884 35.442,32.618 34.661,31.837L31.833,34.665ZM27.774,24.949C26.993,24.168 25.726,24.168 24.945,24.949C24.164,25.73 24.164,26.996 24.945,27.777L27.774,24.949ZM34.661,31.837L27.774,24.949L24.945,27.777L31.833,34.665L34.661,31.837Z" fill="#808189"/>
</svg>
