<svg width="48" height="48" viewBox="0 0 48 48" fill="none" xmlns="http://www.w3.org/2000/svg" xmlns:xlink="http://www.w3.org/1999/xlink">
<path d="M35,21.074C35,28.806 28.732,35.074 21,35.074L21,39.074C30.941,39.074 39,31.015 39,21.074L35,21.074ZM21,35.074C13.268,35.074 7,28.806 7,21.074L3,21.074C3,31.015 11.059,39.074 21,39.074L21,35.074ZM7,21.074C7,13.342 13.268,7.074 21,7.074L21,3.074C11.059,3.074 3,11.133 3,21.074L7,21.074ZM21,7.074C28.732,7.074 35,13.342 35,21.074L39,21.074C39,11.133 30.941,3.074 21,3.074L21,7.074Z" fill="#A7A6A1"/>
<path d="M39.586,42.488C40.367,43.269 41.633,43.269 42.414,42.488C43.195,41.707 43.195,40.441 42.414,39.66L39.586,42.488ZM33.714,30.96C32.933,30.179 31.667,30.179 30.886,30.96C30.105,31.741 30.105,33.007 30.886,33.788L33.714,30.96ZM42.414,39.66L33.714,30.96L30.886,33.788L39.586,42.488L42.414,39.66Z" fill="#A7A6A1"/>
</svg>
