<svg width="40" height="40" viewBox="0 0 40 40" fill="none" xmlns="http://www.w3.org/2000/svg" xmlns:xlink="http://www.w3.org/1999/xlink">
<path d="M31.834,18.333C31.834,25.789 25.79,31.833 18.334,31.833L18.334,34.833C27.447,34.833 34.834,27.446 34.834,18.333L31.834,18.333ZM18.334,31.833C10.878,31.833 4.834,25.789 4.834,18.333L1.834,18.333C1.834,27.446 9.221,34.833 18.334,34.833L18.334,31.833ZM4.834,18.333C4.834,10.878 10.878,4.833 18.334,4.833L18.334,1.833C9.221,1.833 1.834,9.221 1.834,18.333L4.834,18.333ZM18.334,4.833C25.79,4.833 31.834,10.878 31.834,18.333L34.834,18.333C34.834,9.221 27.447,1.833 18.334,1.833L18.334,4.833Z" fill="#696963"/>
<path d="M31.55,34.483L30.126,34.954L30.126,34.955L31.55,34.483ZM36,35.083L37.249,35.913L37.25,35.913L36,35.083ZM33.917,31.2L33.904,32.7L33.917,32.7L33.917,31.2ZM30.126,34.955C30.642,36.511 31.676,37.924 33.326,38.145C34.975,38.366 36.344,37.276 37.249,35.913L34.751,34.253C34.447,34.709 34.175,34.956 33.983,35.075C33.891,35.132 33.824,35.156 33.786,35.165C33.75,35.174 33.731,35.172 33.724,35.171C33.717,35.171 33.699,35.167 33.666,35.149C33.632,35.13 33.574,35.09 33.499,35.01C33.345,34.844 33.147,34.534 32.974,34.012L30.126,34.955ZM37.25,35.913C38.115,34.609 38.518,33.022 37.774,31.633C37.03,30.244 35.485,29.7 33.917,29.7L33.917,32.7C34.915,32.7 35.12,33.031 35.13,33.05C35.14,33.069 35.301,33.424 34.75,34.253L37.25,35.913ZM33.93,29.7C32.578,29.688 31.339,30.222 30.579,31.277C29.82,32.33 29.703,33.673 30.126,34.954L32.974,34.013C32.797,33.476 32.913,33.17 33.013,33.031C33.111,32.894 33.355,32.695 33.904,32.7L33.93,29.7Z" fill="#696963"/>
</svg>
