<svg width="38" height="38" viewBox="0 0 38 38" fill="none" xmlns="http://www.w3.org/2000/svg" xmlns:xlink="http://www.w3.org/1999/xlink">
<path d="M28.083,17.417C28.083,23.308 23.308,28.083 17.417,28.083L17.417,32.083C25.517,32.083 32.083,25.517 32.083,17.417L28.083,17.417ZM17.417,28.083C11.526,28.083 6.75,23.308 6.75,17.417L2.75,17.417C2.75,25.517 9.317,32.083 17.417,32.083L17.417,28.083ZM6.75,17.417C6.75,11.526 11.526,6.75 17.417,6.75L17.417,2.75C9.317,2.75 2.75,9.317 2.75,17.417L6.75,17.417ZM17.417,6.75C23.308,6.75 28.083,11.526 28.083,17.417L32.083,17.417C32.083,9.317 25.517,2.75 17.417,2.75L17.417,6.75Z" fill="#808189"/>
<path d="M31.837,34.664C32.618,35.445 33.884,35.445 34.665,34.664C35.446,33.883 35.446,32.617 34.665,31.836L31.837,34.664ZM27.777,24.948C26.996,24.167 25.73,24.167 24.949,24.948C24.168,25.729 24.168,26.996 24.949,27.777L27.777,24.948ZM34.665,31.836L27.777,24.948L24.949,27.777L31.837,34.664L34.665,31.836Z" fill="#808189"/>
</svg>
