<svg width="70" height="70" viewBox="0 0 70 70" fill="none" xmlns="http://www.w3.org/2000/svg" xmlns:xlink="http://www.w3.org/1999/xlink">
<path d="M52.75,31.083C52.75,42.497 43.497,51.75 32.083,51.75L32.083,57.083C46.443,57.083 58.083,45.443 58.083,31.083L52.75,31.083ZM32.083,51.75C20.669,51.75 11.417,42.497 11.417,31.083L6.083,31.083C6.083,45.443 17.724,57.083 32.083,57.083L32.083,51.75ZM11.417,31.083C11.417,19.669 20.669,10.417 32.083,10.417L32.083,5.083C17.724,5.083 6.083,16.724 6.083,31.083L11.417,31.083ZM32.083,10.417C43.497,10.417 52.75,19.669 52.75,31.083L58.083,31.083C58.083,16.724 46.443,5.083 32.083,5.083L32.083,10.417Z" fill="#84837D"/>
<path d="M59.364,62.136C60.406,63.177 62.094,63.177 63.136,62.136C64.177,61.094 64.177,59.406 63.136,58.364L59.364,62.136ZM50.448,45.677C49.407,44.635 47.718,44.635 46.677,45.677C45.635,46.718 45.635,48.407 46.677,49.448L50.448,45.677ZM63.136,58.364L50.448,45.677L46.677,49.448L59.364,62.136L63.136,58.364Z" fill="#84837D"/>
</svg>
