<svg width="48" height="48" viewBox="0 0 48 48" fill="none" xmlns="http://www.w3.org/2000/svg" xmlns:xlink="http://www.w3.org/1999/xlink">
<path d="M35,22C35,29.732 28.732,36 21,36L21,40C30.941,40 39,31.941 39,22L35,22ZM21,36C13.268,36 7,29.732 7,22L3,22C3,31.941 11.059,40 21,40L21,36ZM7,22C7,14.268 13.268,8 21,8L21,4C11.059,4 3,12.059 3,22L7,22ZM21,8C28.732,8 35,14.268 35,22L39,22C39,12.059 30.941,4 21,4L21,8Z" fill="#A7A6A1"/>
<path d="M39.586,43.414C40.367,44.195 41.633,44.195 42.414,43.414C43.195,42.633 43.195,41.367 42.414,40.586L39.586,43.414ZM33.714,31.886C32.933,31.105 31.667,31.105 30.886,31.886C30.105,32.667 30.105,33.933 30.886,34.714L33.714,31.886ZM42.414,40.586L33.714,31.886L30.886,34.714L39.586,43.414L42.414,40.586Z" fill="#A7A6A1"/>
</svg>
