<svg width="48" height="48" viewBox="0 0 48 48" fill="none" xmlns="http://www.w3.org/2000/svg" xmlns:xlink="http://www.w3.org/1999/xlink">
<path d="M42,23.227C42,33.168 33.941,41.227 24,41.227L24,45.227C36.15,45.227 46,35.377 46,23.227L42,23.227ZM24,41.227C14.059,41.227 6,33.168 6,23.227L2,23.227C2,35.377 11.85,45.227 24,45.227L24,41.227ZM6,23.227C6,13.285 14.059,5.227 24,5.227L24,1.227C11.85,1.227 2,11.076 2,23.227L6,23.227ZM24,5.227C33.941,5.227 42,13.285 42,23.227L46,23.227C46,11.076 36.15,1.227 24,1.227L24,5.227Z" fill="#84837D"/>
<path d="M17.6,26.027C16.937,25.143 15.684,24.964 14.8,25.627C13.916,26.289 13.737,27.543 14.4,28.427L17.6,26.027ZM33.6,28.427C34.263,27.543 34.084,26.289 33.2,25.627C32.316,24.964 31.063,25.143 30.4,26.027L33.6,28.427ZM16,27.227C14.4,28.427 14.4,28.427 14.401,28.428C14.401,28.428 14.402,28.429 14.402,28.429C14.403,28.43 14.404,28.431 14.404,28.432C14.406,28.434 14.408,28.437 14.41,28.44C14.414,28.445 14.419,28.451 14.424,28.458C14.435,28.473 14.45,28.491 14.467,28.513C14.501,28.556 14.548,28.614 14.607,28.684C14.724,28.824 14.89,29.013 15.103,29.235C15.527,29.678 16.147,30.261 16.949,30.844C18.545,32.005 20.949,33.227 24,33.227L24,29.227C22.051,29.227 20.455,28.448 19.301,27.609C18.728,27.192 18.285,26.775 17.991,26.468C17.844,26.315 17.737,26.192 17.671,26.113C17.638,26.073 17.615,26.045 17.603,26.03C17.597,26.023 17.594,26.018 17.593,26.018C17.593,26.017 17.593,26.018 17.595,26.019C17.595,26.02 17.596,26.021 17.597,26.022C17.597,26.023 17.598,26.024 17.598,26.024C17.599,26.025 17.599,26.025 17.599,26.025C17.6,26.026 17.6,26.027 16,27.227ZM24,33.227C27.051,33.227 29.455,32.005 31.051,30.844C31.853,30.261 32.473,29.678 32.897,29.235C33.11,29.013 33.276,28.824 33.393,28.684C33.452,28.614 33.499,28.556 33.533,28.513C33.55,28.491 33.565,28.473 33.576,28.458C33.581,28.451 33.586,28.445 33.59,28.44C33.592,28.437 33.594,28.434 33.596,28.432C33.596,28.431 33.597,28.43 33.598,28.429C33.598,28.429 33.599,28.428 33.599,28.428C33.6,28.427 33.6,28.427 32,27.227C30.4,26.027 30.4,26.026 30.401,26.025C30.401,26.025 30.401,26.025 30.402,26.024C30.402,26.024 30.403,26.023 30.403,26.022C30.404,26.021 30.405,26.02 30.405,26.019C30.407,26.018 30.407,26.017 30.407,26.018C30.406,26.018 30.403,26.023 30.397,26.03C30.385,26.045 30.362,26.073 30.329,26.113C30.263,26.192 30.156,26.315 30.009,26.468C29.715,26.775 29.272,27.192 28.699,27.609C27.545,28.448 25.949,29.227 24,29.227L24,33.227Z" fill="#84837D"/>
<line x1="18" y1="15.227" x2="18.02" y2="15.227" stroke="#84837D" stroke-width="2" stroke-miterlimit="3.999327" stroke-linecap="round" stroke-linejoin="round"/>
<line x1="30" y1="15.227" x2="30.02" y2="15.227" stroke="#84837D" stroke-width="2" stroke-miterlimit="3.999327" stroke-linecap="round" stroke-linejoin="round"/>
</svg>
