<svg width="56" height="56" viewBox="0 0 56 56" fill="none" xmlns="http://www.w3.org/2000/svg" xmlns:xlink="http://www.w3.org/1999/xlink">
<path d="M49,28.001C49,39.599 39.598,49.001 28,49.001L28,53.668C42.176,53.668 53.667,42.177 53.667,28.001L49,28.001ZM28,49.001C16.402,49.001 7,39.599 7,28.001L2.334,28.001C2.334,42.177 13.825,53.668 28,53.668L28,49.001ZM7,28.001C7,16.403 16.402,7.001 28,7.001L28,2.335C13.825,2.335 2.334,13.826 2.334,28.001L7,28.001ZM28,7.001C39.598,7.001 49,16.403 49,28.001L53.667,28.001C53.667,13.826 42.176,2.335 28,2.335L28,7.001Z" fill="#A6A4A6"/>
<path d="M20.534,31.268C19.76,30.237 18.298,30.028 17.267,30.801C16.236,31.575 16.027,33.037 16.8,34.068L20.534,31.268ZM39.2,34.068C39.974,33.037 39.765,31.575 38.734,30.801C37.703,30.028 36.24,30.237 35.467,31.268L39.2,34.068ZM18.667,32.668C16.8,34.068 16.801,34.069 16.801,34.069C16.802,34.07 16.802,34.071 16.803,34.071C16.804,34.072 16.804,34.073 16.805,34.075C16.807,34.077 16.809,34.08 16.812,34.083C16.816,34.089 16.822,34.097 16.829,34.105C16.842,34.122 16.858,34.143 16.878,34.169C16.919,34.22 16.973,34.287 17.042,34.369C17.178,34.532 17.372,34.752 17.62,35.012C18.115,35.528 18.838,36.208 19.774,36.888C21.636,38.242 24.441,39.668 28,39.668L28,35.001C25.727,35.001 23.865,34.094 22.519,33.114C21.85,32.628 21.333,32.141 20.99,31.783C20.819,31.604 20.693,31.461 20.616,31.368C20.577,31.322 20.551,31.29 20.537,31.272C20.53,31.263 20.526,31.258 20.526,31.258C20.526,31.257 20.526,31.258 20.527,31.26C20.528,31.26 20.529,31.262 20.53,31.263C20.53,31.264 20.531,31.264 20.532,31.265C20.532,31.266 20.532,31.266 20.533,31.267C20.533,31.267 20.534,31.268 18.667,32.668ZM28,39.668C31.56,39.668 34.365,38.242 36.227,36.888C37.162,36.208 37.885,35.528 38.38,35.012C38.629,34.752 38.822,34.532 38.959,34.369C39.028,34.287 39.082,34.22 39.122,34.169C39.143,34.143 39.159,34.122 39.172,34.105C39.179,34.097 39.184,34.089 39.189,34.083C39.191,34.08 39.193,34.077 39.195,34.075C39.196,34.073 39.197,34.072 39.198,34.071C39.198,34.071 39.199,34.07 39.199,34.069C39.2,34.069 39.2,34.068 37.334,32.668C35.467,31.268 35.468,31.267 35.468,31.267C35.468,31.266 35.469,31.266 35.469,31.265C35.47,31.264 35.47,31.264 35.471,31.263C35.472,31.262 35.473,31.26 35.473,31.26C35.475,31.258 35.475,31.257 35.475,31.258C35.474,31.258 35.47,31.263 35.463,31.272C35.45,31.29 35.423,31.322 35.385,31.368C35.307,31.461 35.182,31.604 35.011,31.783C34.667,32.141 34.151,32.628 33.482,33.114C32.136,34.094 30.274,35.001 28,35.001L28,39.668Z" fill="#A6A4A6"/>
<line x1="21" y1="18.667" x2="21.023" y2="18.667" stroke="#A6A4A6" stroke-width="2.333" stroke-miterlimit="3.999327" stroke-linecap="round" stroke-linejoin="round"/>
<line x1="35" y1="18.667" x2="35.023" y2="18.667" stroke="#A6A4A6" stroke-width="2.333" stroke-miterlimit="3.999327" stroke-linecap="round" stroke-linejoin="round"/>
</svg>
