<svg width="44" height="44" viewBox="0 0 44 44" fill="none" xmlns="http://www.w3.org/2000/svg" xmlns:xlink="http://www.w3.org/1999/xlink">
<path d="M38.331,21C38.331,30.021 31.018,37.333 21.997,37.333L21.997,41.333C33.227,41.333 42.331,32.23 42.331,21L38.331,21ZM21.997,37.333C12.977,37.333 5.664,30.021 5.664,21L1.664,21C1.664,32.23 10.768,41.333 21.997,41.333L21.997,37.333ZM5.664,21C5.664,11.979 12.977,4.667 21.997,4.667L21.997,0.667C10.768,0.667 1.664,9.77 1.664,21L5.664,21ZM21.997,4.667C31.018,4.667 38.331,11.979 38.331,21L42.331,21C42.331,9.77 33.227,0.667 21.997,0.667L21.997,4.667Z" fill="#FFFFFF"/>
<path d="M16.264,23.467C15.601,22.583 14.348,22.404 13.464,23.067C12.58,23.729 12.401,24.983 13.064,25.867L16.264,23.467ZM30.931,25.867C31.593,24.983 31.414,23.729 30.531,23.067C29.647,22.404 28.393,22.583 27.731,23.467L30.931,25.867ZM14.664,24.667C13.064,25.867 13.065,25.867 13.065,25.868C13.065,25.868 13.066,25.869 13.066,25.869C13.067,25.87 13.068,25.871 13.068,25.872C13.07,25.875 13.072,25.877 13.074,25.879C13.078,25.885 13.082,25.891 13.088,25.898C13.098,25.911 13.112,25.929 13.128,25.949C13.161,25.99 13.204,26.045 13.259,26.11C13.369,26.241 13.523,26.417 13.721,26.623C14.116,27.035 14.691,27.576 15.436,28.118C16.917,29.195 19.155,30.333 21.997,30.333L21.997,26.333C20.257,26.333 18.828,25.639 17.788,24.883C17.272,24.507 16.874,24.132 16.609,23.856C16.478,23.719 16.382,23.608 16.323,23.539C16.294,23.504 16.274,23.479 16.264,23.467C16.259,23.46 16.257,23.457 16.257,23.457C16.257,23.457 16.257,23.458 16.258,23.459C16.259,23.46 16.26,23.461 16.261,23.462C16.261,23.463 16.262,23.464 16.262,23.464C16.263,23.465 16.263,23.465 16.263,23.466C16.264,23.466 16.264,23.467 14.664,24.667ZM21.997,30.333C24.84,30.333 27.078,29.195 28.559,28.118C29.304,27.576 29.879,27.035 30.273,26.623C30.471,26.417 30.626,26.241 30.736,26.11C30.79,26.045 30.834,25.99 30.867,25.949C30.883,25.929 30.897,25.911 30.907,25.898C30.913,25.891 30.917,25.885 30.921,25.879C30.923,25.877 30.925,25.875 30.926,25.872C30.927,25.871 30.928,25.87 30.929,25.869C30.929,25.869 30.93,25.868 30.93,25.868C30.93,25.867 30.931,25.867 29.331,24.667C27.731,23.467 27.731,23.466 27.732,23.466C27.732,23.465 27.732,23.465 27.732,23.464C27.733,23.464 27.734,23.463 27.734,23.462C27.735,23.461 27.736,23.46 27.736,23.459C27.738,23.458 27.738,23.457 27.738,23.457C27.738,23.457 27.736,23.46 27.731,23.467C27.721,23.479 27.701,23.504 27.672,23.539C27.613,23.608 27.517,23.719 27.385,23.856C27.121,24.132 26.722,24.507 26.206,24.883C25.167,25.639 23.738,26.333 21.997,26.333L21.997,30.333Z" fill="#FFFFFF"/>
<line x1="16.5" y1="13.5" x2="16.518" y2="13.5" stroke="#FFFFFF" stroke-width="2" stroke-miterlimit="3.999327" stroke-linecap="round" stroke-linejoin="round"/>
<line x1="27.5" y1="13.5" x2="27.518" y2="13.5" stroke="#FFFFFF" stroke-width="2" stroke-miterlimit="3.999327" stroke-linecap="round" stroke-linejoin="round"/>
</svg>
