<svg width="56" height="56" viewBox="0 0 56 56" fill="none" xmlns="http://www.w3.org/2000/svg" xmlns:xlink="http://www.w3.org/1999/xlink">
<path d="M49.001,27.997C49.001,39.595 39.599,48.997 28.001,48.997L28.001,53.664C42.177,53.664 53.668,42.173 53.668,27.997L49.001,27.997ZM28.001,48.997C16.403,48.997 7.001,39.595 7.001,27.997L2.335,27.997C2.335,42.173 13.826,53.664 28.001,53.664L28.001,48.997ZM7.001,27.997C7.001,16.399 16.403,6.997 28.001,6.997L28.001,2.331C13.826,2.331 2.335,13.822 2.335,27.997L7.001,27.997ZM28.001,6.997C39.599,6.997 49.001,16.399 49.001,27.997L53.668,27.997C53.668,13.822 42.177,2.331 28.001,2.331L28.001,6.997Z" fill="#A6A4A6"/>
<path d="M20.535,31.264C19.761,30.233 18.299,30.024 17.268,30.797C16.237,31.571 16.028,33.033 16.801,34.064L20.535,31.264ZM39.201,34.064C39.975,33.033 39.766,31.571 38.735,30.797C37.704,30.024 36.241,30.233 35.468,31.264L39.201,34.064ZM18.668,32.664C16.801,34.064 16.802,34.065 16.802,34.066C16.803,34.066 16.803,34.067 16.804,34.067C16.804,34.068 16.805,34.07 16.806,34.071C16.808,34.073 16.81,34.076 16.813,34.079C16.817,34.085 16.823,34.093 16.83,34.101C16.843,34.118 16.859,34.139 16.879,34.165C16.919,34.216 16.974,34.283 17.042,34.365C17.179,34.528 17.373,34.749 17.621,35.008C18.116,35.524 18.839,36.204 19.775,36.884C21.637,38.239 24.442,39.664 28.001,39.664L28.001,34.997C25.728,34.997 23.866,34.09 22.52,33.11C21.851,32.624 21.334,32.137 20.991,31.779C20.82,31.6 20.694,31.457 20.617,31.365C20.578,31.319 20.552,31.286 20.538,31.268C20.531,31.259 20.527,31.254 20.527,31.254C20.527,31.253 20.527,31.254 20.528,31.256C20.529,31.257 20.53,31.258 20.531,31.259C20.531,31.26 20.532,31.261 20.533,31.261C20.533,31.262 20.533,31.262 20.534,31.263C20.534,31.263 20.535,31.264 18.668,32.664ZM28.001,39.664C31.561,39.664 34.366,38.239 36.228,36.884C37.163,36.204 37.886,35.524 38.381,35.008C38.63,34.749 38.823,34.528 38.96,34.365C39.029,34.283 39.083,34.216 39.123,34.165C39.144,34.139 39.16,34.118 39.173,34.101C39.18,34.093 39.185,34.085 39.19,34.079C39.192,34.076 39.194,34.073 39.196,34.071C39.197,34.07 39.198,34.068 39.199,34.067C39.199,34.067 39.2,34.066 39.2,34.066C39.201,34.065 39.201,34.064 37.335,32.664C35.468,31.264 35.469,31.263 35.469,31.263C35.469,31.262 35.47,31.262 35.47,31.261C35.471,31.261 35.471,31.26 35.472,31.259C35.473,31.258 35.474,31.257 35.474,31.256C35.476,31.254 35.476,31.253 35.476,31.254C35.475,31.254 35.471,31.259 35.464,31.268C35.451,31.286 35.424,31.319 35.386,31.365C35.308,31.457 35.183,31.6 35.012,31.779C34.668,32.137 34.152,32.624 33.483,33.11C32.137,34.09 30.275,34.997 28.001,34.997L28.001,39.664Z" fill="#A6A4A6"/>
<line x1="21" y1="18.667" x2="21.023" y2="18.667" stroke="#A6A4A6" stroke-width="2.333" stroke-miterlimit="3.999327" stroke-linecap="round" stroke-linejoin="round"/>
<line x1="35" y1="18.667" x2="35.023" y2="18.667" stroke="#A6A4A6" stroke-width="2.333" stroke-miterlimit="3.999327" stroke-linecap="round" stroke-linejoin="round"/>
</svg>
