<svg width="48" height="50" viewBox="0 0 48 50" fill="none" xmlns="http://www.w3.org/2000/svg" xmlns:xlink="http://www.w3.org/1999/xlink">
<path d="M42,24.121C42,34.062 33.941,42.121 24,42.121L24,46.121C36.15,46.121 46,36.271 46,24.121L42,24.121ZM24,42.121C14.059,42.121 6,34.062 6,24.121L2,24.121C2,36.271 11.85,46.121 24,46.121L24,42.121ZM6,24.121C6,14.18 14.059,6.121 24,6.121L24,2.121C11.85,2.121 2,11.971 2,24.121L6,24.121ZM24,6.121C33.941,6.121 42,14.18 42,24.121L46,24.121C46,11.971 36.15,2.121 24,2.121L24,6.121Z" fill="#84837D"/>
<path d="M17.6,26.921C16.937,26.037 15.684,25.858 14.8,26.521C13.916,27.184 13.737,28.437 14.4,29.321L17.6,26.921ZM33.6,29.321C34.263,28.437 34.084,27.184 33.2,26.521C32.316,25.858 31.063,26.037 30.4,26.921L33.6,29.321ZM16,28.121C14.4,29.321 14.4,29.322 14.401,29.322C14.401,29.323 14.402,29.323 14.402,29.324C14.403,29.325 14.404,29.326 14.404,29.327C14.406,29.329 14.408,29.331 14.41,29.334C14.414,29.339 14.419,29.346 14.424,29.353C14.435,29.367 14.45,29.386 14.467,29.407C14.501,29.451 14.548,29.509 14.607,29.579C14.724,29.718 14.89,29.908 15.103,30.13C15.527,30.572 16.147,31.155 16.949,31.739C18.545,32.899 20.949,34.121 24,34.121L24,30.121C22.051,30.121 20.455,29.343 19.301,28.504C18.728,28.087 18.285,27.67 17.991,27.362C17.844,27.209 17.737,27.086 17.671,27.007C17.638,26.968 17.615,26.94 17.603,26.925C17.597,26.917 17.594,26.913 17.593,26.912C17.593,26.912 17.593,26.912 17.595,26.914C17.595,26.915 17.596,26.916 17.597,26.917C17.597,26.917 17.598,26.918 17.598,26.919C17.599,26.919 17.599,26.92 17.599,26.92C17.6,26.92 17.6,26.921 16,28.121ZM24,34.121C27.051,34.121 29.455,32.899 31.051,31.739C31.853,31.155 32.473,30.572 32.897,30.13C33.11,29.908 33.276,29.718 33.393,29.579C33.452,29.509 33.499,29.451 33.533,29.407C33.55,29.386 33.565,29.367 33.576,29.353C33.581,29.346 33.586,29.339 33.59,29.334C33.592,29.331 33.594,29.329 33.596,29.327C33.597,29.326 33.597,29.325 33.598,29.324C33.598,29.323 33.599,29.323 33.599,29.322C33.6,29.322 33.6,29.321 32,28.121C30.4,26.921 30.4,26.92 30.401,26.92C30.401,26.92 30.401,26.919 30.402,26.919C30.402,26.918 30.403,26.917 30.403,26.917C30.404,26.916 30.405,26.915 30.405,26.914C30.407,26.912 30.407,26.912 30.407,26.912C30.406,26.913 30.403,26.917 30.397,26.925C30.385,26.94 30.362,26.968 30.329,27.007C30.263,27.086 30.156,27.209 30.009,27.362C29.715,27.67 29.272,28.087 28.699,28.504C27.545,29.343 25.949,30.121 24,30.121L24,34.121Z" fill="#84837D"/>
<line x1="18" y1="16.121" x2="18.02" y2="16.121" stroke="#84837D" stroke-width="2" stroke-miterlimit="3.999327" stroke-linecap="round" stroke-linejoin="round"/>
<line x1="30" y1="16.121" x2="30.02" y2="16.121" stroke="#84837D" stroke-width="2" stroke-miterlimit="3.999327" stroke-linecap="round" stroke-linejoin="round"/>
</svg>
