<svg width="44" height="46" viewBox="0 0 44 46" fill="none" xmlns="http://www.w3.org/2000/svg" xmlns:xlink="http://www.w3.org/1999/xlink">
<path d="M37.684,21.999C37.684,31.156 30.261,38.578 21.105,38.578L21.105,42.262C32.296,42.262 41.368,33.19 41.368,21.999L37.684,21.999ZM21.105,38.578C11.948,38.578 4.526,31.156 4.526,21.999L0.841,21.999C0.841,33.19 9.914,42.262 21.105,42.262L21.105,38.578ZM4.526,21.999C4.526,12.843 11.948,5.42 21.105,5.42L21.105,1.736C9.914,1.736 0.841,10.808 0.841,21.999L4.526,21.999ZM21.105,5.42C30.261,5.42 37.684,12.843 37.684,21.999L41.368,21.999C41.368,10.808 32.296,1.736 21.105,1.736L21.105,5.42Z" fill="#A6A4A6"/>
<path d="M15.21,24.578C14.6,23.764 13.445,23.599 12.631,24.21C11.817,24.82 11.652,25.975 12.263,26.789L15.21,24.578ZM29.947,26.789C30.557,25.975 30.392,24.82 29.578,24.21C28.765,23.599 27.61,23.764 26.999,24.578L29.947,26.789ZM13.736,25.684C12.263,26.789 12.263,26.789 12.264,26.79C12.264,26.79 12.264,26.791 12.265,26.791C12.265,26.792 12.266,26.793 12.267,26.794C12.268,26.796 12.27,26.798 12.272,26.801C12.275,26.806 12.28,26.812 12.285,26.818C12.295,26.831 12.308,26.848 12.324,26.868C12.356,26.908 12.399,26.962 12.453,27.026C12.561,27.155 12.714,27.329 12.91,27.534C13.301,27.941 13.872,28.478 14.61,29.015C16.08,30.084 18.295,31.21 21.105,31.21L21.105,27.526C19.31,27.526 17.84,26.809 16.777,26.036C16.249,25.652 15.841,25.268 15.57,24.985C15.435,24.844 15.336,24.73 15.275,24.658C15.245,24.621 15.224,24.595 15.213,24.582C15.207,24.575 15.204,24.571 15.204,24.57C15.204,24.57 15.204,24.57 15.205,24.572C15.206,24.572 15.206,24.573 15.207,24.574C15.207,24.575 15.208,24.576 15.208,24.576C15.209,24.577 15.209,24.577 15.209,24.577C15.21,24.578 15.21,24.578 13.736,25.684ZM21.105,31.21C23.915,31.21 26.13,30.084 27.599,29.015C28.338,28.478 28.909,27.941 29.299,27.534C29.496,27.329 29.648,27.155 29.756,27.026C29.811,26.962 29.854,26.908 29.885,26.868C29.901,26.848 29.914,26.831 29.925,26.818C29.93,26.812 29.934,26.806 29.938,26.801C29.94,26.798 29.941,26.796 29.943,26.794C29.944,26.793 29.944,26.792 29.945,26.791C29.945,26.791 29.946,26.79 29.946,26.79C29.946,26.789 29.947,26.789 28.473,25.684C26.999,24.578 27,24.578 27,24.577C27,24.577 27.001,24.577 27.001,24.576C27.002,24.576 27.002,24.575 27.002,24.574C27.003,24.573 27.004,24.572 27.004,24.572C27.006,24.57 27.006,24.57 27.006,24.57C27.005,24.571 27.002,24.575 26.997,24.582C26.986,24.595 26.965,24.621 26.934,24.658C26.873,24.73 26.774,24.844 26.639,24.985C26.368,25.268 25.96,25.652 25.432,26.036C24.369,26.809 22.9,27.526 21.105,27.526L21.105,31.21Z" fill="#A6A4A6"/>
<line x1="15.578" y1="14.631" x2="15.598" y2="14.631" stroke="#A6A4A6" stroke-width="1.842" stroke-miterlimit="3.999327" stroke-linecap="round" stroke-linejoin="round"/>
<line x1="26.631" y1="14.631" x2="26.651" y2="14.631" stroke="#A6A4A6" stroke-width="1.842" stroke-miterlimit="3.999327" stroke-linecap="round" stroke-linejoin="round"/>
</svg>
