<svg width="44" height="46" viewBox="0 0 44 46" fill="none" xmlns="http://www.w3.org/2000/svg" xmlns:xlink="http://www.w3.org/1999/xlink">
<path d="M37.684,22.878C37.684,32.034 30.261,39.457 21.105,39.457L21.105,43.141C32.296,43.141 41.368,34.069 41.368,22.878L37.684,22.878ZM21.105,39.457C11.948,39.457 4.526,32.034 4.526,22.878L0.841,22.878C0.841,34.069 9.914,43.141 21.105,43.141L21.105,39.457ZM4.526,22.878C4.526,13.722 11.948,6.299 21.105,6.299L21.105,2.615C9.914,2.615 0.841,11.687 0.841,22.878L4.526,22.878ZM21.105,6.299C30.261,6.299 37.684,13.722 37.684,22.878L41.368,22.878C41.368,11.687 32.296,2.615 21.105,2.615L21.105,6.299Z" fill="#A6A4A6"/>
<path d="M15.21,25.457C14.6,24.643 13.445,24.478 12.631,25.089C11.817,25.699 11.652,26.854 12.263,27.668L15.21,25.457ZM29.947,27.668C30.557,26.854 30.392,25.699 29.578,25.089C28.765,24.478 27.61,24.643 26.999,25.457L29.947,27.668ZM13.736,26.563C12.263,27.668 12.263,27.668 12.264,27.669C12.264,27.669 12.264,27.67 12.265,27.67C12.265,27.671 12.266,27.672 12.267,27.673C12.268,27.675 12.27,27.677 12.272,27.68C12.275,27.685 12.28,27.69 12.285,27.697C12.295,27.71 12.308,27.727 12.324,27.747C12.356,27.787 12.399,27.841 12.453,27.905C12.561,28.034 12.714,28.208 12.91,28.413C13.301,28.82 13.872,29.357 14.61,29.894C16.08,30.963 18.295,32.089 21.105,32.089L21.105,28.405C19.31,28.405 17.84,27.688 16.777,26.915C16.249,26.531 15.841,26.147 15.57,25.864C15.435,25.723 15.336,25.609 15.275,25.537C15.245,25.5 15.224,25.474 15.213,25.46C15.207,25.454 15.204,25.45 15.204,25.449C15.204,25.449 15.204,25.449 15.205,25.451C15.206,25.451 15.206,25.452 15.207,25.453C15.207,25.454 15.208,25.454 15.208,25.455C15.209,25.455 15.209,25.456 15.209,25.456C15.21,25.457 15.21,25.457 13.736,26.563ZM21.105,32.089C23.915,32.089 26.13,30.963 27.599,29.894C28.338,29.357 28.909,28.82 29.299,28.413C29.496,28.208 29.648,28.034 29.756,27.905C29.811,27.841 29.854,27.787 29.885,27.747C29.901,27.727 29.914,27.71 29.925,27.697C29.93,27.69 29.934,27.685 29.938,27.68C29.94,27.677 29.941,27.675 29.943,27.673C29.944,27.672 29.944,27.671 29.945,27.67C29.945,27.67 29.946,27.669 29.946,27.669C29.946,27.668 29.947,27.668 28.473,26.563C26.999,25.457 27,25.457 27,25.456C27,25.456 27.001,25.455 27.001,25.455C27.002,25.454 27.002,25.454 27.002,25.453C27.003,25.452 27.004,25.451 27.004,25.451C27.006,25.449 27.006,25.449 27.006,25.449C27.005,25.45 27.002,25.454 26.997,25.46C26.986,25.474 26.965,25.5 26.934,25.537C26.873,25.609 26.774,25.723 26.639,25.864C26.368,26.147 25.96,26.531 25.432,26.915C24.369,27.688 22.9,28.405 21.105,28.405L21.105,32.089Z" fill="#A6A4A6"/>
<line x1="15.578" y1="15.509" x2="15.598" y2="15.509" stroke="#A6A4A6" stroke-width="1.842" stroke-miterlimit="3.999327" stroke-linecap="round" stroke-linejoin="round"/>
<line x1="26.631" y1="15.509" x2="26.651" y2="15.509" stroke="#A6A4A6" stroke-width="1.842" stroke-miterlimit="3.999327" stroke-linecap="round" stroke-linejoin="round"/>
</svg>
