<svg width="48" height="50" viewBox="0 0 48 50" fill="none" xmlns="http://www.w3.org/2000/svg" xmlns:xlink="http://www.w3.org/1999/xlink">
<path d="M42,24.246C42,34.187 33.941,42.246 24,42.246L24,46.246C36.15,46.246 46,36.396 46,24.246L42,24.246ZM24,42.246C14.059,42.246 6,34.187 6,24.246L2,24.246C2,36.396 11.85,46.246 24,46.246L24,42.246ZM6,24.246C6,14.305 14.059,6.246 24,6.246L24,2.246C11.85,2.246 2,12.096 2,24.246L6,24.246ZM24,6.246C33.941,6.246 42,14.305 42,24.246L46,24.246C46,12.096 36.15,2.246 24,2.246L24,6.246Z" fill="#E4E4E3"/>
<path d="M17.6,27.046C16.937,26.162 15.684,25.983 14.8,26.646C13.916,27.309 13.737,28.562 14.4,29.446L17.6,27.046ZM33.6,29.446C34.263,28.562 34.084,27.309 33.2,26.646C32.316,25.983 31.063,26.162 30.4,27.046L33.6,29.446ZM16,28.246C14.4,29.446 14.4,29.447 14.401,29.447C14.401,29.448 14.402,29.448 14.402,29.449C14.403,29.45 14.404,29.451 14.404,29.452C14.406,29.454 14.408,29.456 14.41,29.459C14.414,29.464 14.419,29.471 14.424,29.478C14.435,29.492 14.45,29.511 14.467,29.532C14.501,29.576 14.548,29.634 14.607,29.704C14.724,29.843 14.89,30.033 15.103,30.255C15.527,30.697 16.147,31.28 16.949,31.864C18.545,33.024 20.949,34.246 24,34.246L24,30.246C22.051,30.246 20.455,29.468 19.301,28.629C18.728,28.212 18.285,27.795 17.991,27.487C17.844,27.334 17.737,27.211 17.671,27.132C17.638,27.093 17.615,27.065 17.603,27.05C17.597,27.042 17.594,27.038 17.593,27.037C17.593,27.037 17.593,27.037 17.595,27.039C17.595,27.04 17.596,27.041 17.597,27.042C17.597,27.042 17.598,27.043 17.598,27.044C17.599,27.044 17.599,27.045 17.599,27.045C17.6,27.045 17.6,27.046 16,28.246ZM24,34.246C27.051,34.246 29.455,33.024 31.051,31.864C31.853,31.28 32.473,30.697 32.897,30.255C33.11,30.033 33.276,29.843 33.393,29.704C33.452,29.634 33.499,29.576 33.533,29.532C33.55,29.511 33.565,29.492 33.576,29.478C33.581,29.471 33.586,29.464 33.59,29.459C33.592,29.456 33.594,29.454 33.596,29.452C33.596,29.451 33.597,29.45 33.598,29.449C33.598,29.448 33.599,29.448 33.599,29.447C33.6,29.447 33.6,29.446 32,28.246C30.4,27.046 30.4,27.045 30.401,27.045C30.401,27.045 30.401,27.044 30.402,27.044C30.402,27.043 30.403,27.042 30.403,27.042C30.404,27.041 30.405,27.04 30.405,27.039C30.407,27.037 30.407,27.037 30.407,27.037C30.406,27.038 30.403,27.042 30.397,27.05C30.385,27.065 30.362,27.093 30.329,27.132C30.263,27.211 30.156,27.334 30.009,27.487C29.715,27.795 29.272,28.212 28.699,28.629C27.545,29.468 25.949,30.246 24,30.246L24,34.246Z" fill="#E4E4E3"/>
<line x1="18" y1="16.246" x2="18.02" y2="16.246" stroke="#E4E4E3" stroke-width="2" stroke-miterlimit="3.999327" stroke-linecap="round" stroke-linejoin="round"/>
<line x1="30" y1="16.246" x2="30.02" y2="16.246" stroke="#E4E4E3" stroke-width="2" stroke-miterlimit="3.999327" stroke-linecap="round" stroke-linejoin="round"/>
</svg>
