<svg width="48" height="48" viewBox="0 0 48 48" fill="none" xmlns="http://www.w3.org/2000/svg" xmlns:xlink="http://www.w3.org/1999/xlink">
<path d="M7.5,9.375C7.5,5.25 10.875,1.875 15,1.875L9.375,1.875C5.25,1.875 1.875,5.25 1.875,9.375L1.875,38.625L7.5,33L7.5,9.375Z" fill="#CEE1F2"/>
<path d="M1.875,40.5C1.633,40.5 1.389,40.453 1.158,40.357C0.457,40.067 0,39.383 0,38.625L0,9.375C0,4.206 4.206,0 9.375,0L23.625,0C28.794,0 33,4.206 33,9.375L33,23.625C33,28.794 28.794,33 23.625,33L10.928,33C10.428,33 9.957,33.195 9.603,33.549L3.201,39.951C2.842,40.31 2.362,40.5 1.875,40.5ZM9.375,3.75C6.273,3.75 3.75,6.273 3.75,9.375L3.75,34.098L6.951,30.898C8.013,29.835 9.426,29.25 10.928,29.25L23.625,29.25C26.727,29.25 29.25,26.727 29.25,23.625L29.25,9.375C29.25,6.273 26.727,3.75 23.625,3.75L9.375,3.75Z" fill="#0023C4"/>
<path d="M46.125,48C45.638,48 45.158,47.81 44.799,47.451L38.398,41.049C38.043,40.695 37.573,40.5 37.072,40.5L23.625,40.5C22.589,40.5 21.75,39.661 21.75,38.625C21.75,37.589 22.589,36.75 23.625,36.75L37.072,36.75C38.574,36.75 39.987,37.335 41.049,38.398L44.25,41.598L44.25,16.875C44.25,13.773 41.727,11.25 38.625,11.25C37.589,11.25 36.75,10.411 36.75,9.375C36.75,8.339 37.589,7.5 38.625,7.5C43.794,7.5 48,11.706 48,16.875L48,46.125C48,46.883 47.543,47.567 46.843,47.857C46.611,47.953 46.367,48 46.125,48Z" fill="#FF5CF4"/>
</svg>
