<svg width="48" height="48" viewBox="0 0 48 48" fill="none" xmlns="http://www.w3.org/2000/svg" xmlns:xlink="http://www.w3.org/1999/xlink">
<path d="M18.661,26.771L16.581,30.985L11.93,31.661L15.296,34.942L14.501,39.575L18.661,37.388L22.822,39.575L22.027,34.942L25.393,31.661L20.742,30.985L18.661,26.771Z" fill="#EEE421"/>
<path d="M47.506,12.564L34.284,-0.658C32.027,0.035 29.628,0.035 27.371,-0.655L10.875,15.84L15.647,15.84L22.386,9.102L24.374,11.09L19.624,15.84L24.543,15.84L26.834,13.549L29.125,15.84L36.177,15.84L34.804,14.468L36.751,12.521L38.739,14.51L37.409,15.84L44.892,15.84L45.26,16.686C45.759,17.836 46.483,18.852 47.377,19.69L47.464,19.603C46.759,17.3 46.774,14.858 47.506,12.564ZM27.894,7.558L25.906,5.569L27.852,3.623L29.841,5.611L27.894,7.558ZM32.344,12.007L30.355,10.018L32.302,8.072L34.29,10.061L32.344,12.007Z" fill="#EEE421"/>
<path d="M48,42.353L48,23.563C45.903,22.452 44.198,20.748 43.085,18.652L5.032,18.652C3.897,20.791 2.151,22.516 0,23.625L0,42.414C2.097,43.525 3.802,45.229 4.915,47.325L42.968,47.325C44.103,45.186 45.849,43.461 48,42.353ZM26.235,42.828L24.716,43.748L18.663,40.566L12.611,43.747L11.092,42.829L12.276,35.925L7.409,31.18L7.733,29.431L14.716,28.416L17.78,22.208L19.547,22.208L22.611,28.416L29.596,29.431L29.917,31.181L25.051,35.925L26.235,42.828ZM40.529,43.818L37.62,43.818L37.62,41.006L40.529,41.006L40.529,43.818ZM40.529,37.498L37.62,37.498L37.62,34.686L40.529,34.686L40.529,37.498ZM40.529,31.178L37.62,31.178L37.62,28.366L40.529,28.366L40.529,31.178ZM40.529,24.857L37.62,24.857L37.62,22.045L40.529,22.045L40.529,24.857Z" fill="#EEE421"/>
</svg>
