<svg width="48" height="48" viewBox="0 0 48 48" fill="none" xmlns="http://www.w3.org/2000/svg" xmlns:xlink="http://www.w3.org/1999/xlink">
<path d="M18.661,27.438L16.581,31.653L11.93,32.329L15.296,35.61L14.501,40.242L18.661,38.055L22.822,40.242L22.027,35.61L25.393,32.329L20.742,31.653L18.661,27.438Z" fill="#6BE3F9"/>
<path d="M47.506,13.231L34.284,0.009C32.027,0.701 29.628,0.702 27.371,0.011L10.875,16.507L15.647,16.507L22.386,9.768L24.374,11.757L19.624,16.507L24.543,16.507L26.834,14.215L29.125,16.507L36.177,16.507L34.804,15.135L36.751,13.188L38.739,15.177L37.409,16.507L44.892,16.507L45.26,17.353C45.759,18.503 46.483,19.519 47.377,20.357L47.464,20.27C46.759,17.967 46.774,15.525 47.506,13.231ZM27.894,8.224L25.906,6.236L27.852,4.29L29.841,6.278L27.894,8.224ZM32.344,12.674L30.355,10.685L32.302,8.739L34.29,10.727L32.344,12.674Z" fill="#6BE3F9"/>
<path d="M48,43.019L48,24.23C45.903,23.118 44.198,21.415 43.085,19.319L5.032,19.319C3.897,21.457 2.151,23.183 0,24.291L0,43.081C2.097,44.192 3.802,45.895 4.915,47.991L42.968,47.991C44.103,45.853 45.849,44.128 48,43.019ZM26.235,43.495L24.716,44.414L18.663,41.232L12.611,44.414L11.092,43.496L12.276,36.591L7.409,31.847L7.733,30.097L14.716,29.082L17.78,22.874L19.547,22.874L22.611,29.082L29.596,30.097L29.917,31.848L25.051,36.591L26.235,43.495ZM40.529,44.485L37.62,44.485L37.62,41.673L40.529,41.673L40.529,44.485ZM40.529,38.165L37.62,38.165L37.62,35.353L40.529,35.353L40.529,38.165ZM40.529,31.844L37.62,31.844L37.62,29.032L40.529,29.032L40.529,31.844ZM40.529,25.524L37.62,25.524L37.62,22.712L40.529,22.712L40.529,25.524Z" fill="#6BE3F9"/>
</svg>
