<svg width="48" height="48" viewBox="0 0 48 48" fill="none" xmlns="http://www.w3.org/2000/svg" xmlns:xlink="http://www.w3.org/1999/xlink">
<path d="M18.663,27.438L16.583,31.652L11.932,32.328L15.297,35.609L14.503,40.242L18.663,38.055L22.824,40.242L22.029,35.609L25.395,32.328L20.744,31.652L18.663,27.438Z" fill="#EEE421"/>
<path d="M47.504,13.23L34.282,0.008C32.025,0.701 29.626,0.701 27.369,0.011L10.873,16.506L15.645,16.506L22.384,9.768L24.372,11.756L19.622,16.506L24.541,16.506L26.832,14.215L29.123,16.506L36.175,16.506L34.802,15.134L36.749,13.187L38.737,15.176L37.407,16.506L44.89,16.506L45.258,17.352C45.757,18.502 46.481,19.518 47.375,20.356L47.462,20.269C46.757,17.966 46.772,15.524 47.504,13.23ZM27.892,8.224L25.904,6.235L27.85,4.289L29.839,6.277L27.892,8.224ZM32.342,12.673L30.353,10.684L32.3,8.738L34.288,10.727L32.342,12.673Z" fill="#EEE421"/>
<path d="M48,43.021L48,24.231C45.903,23.12 44.198,21.416 43.085,19.32L5.032,19.32C3.897,21.459 2.151,23.184 0,24.293L0,43.082C2.097,44.193 3.802,45.897 4.915,47.993L42.968,47.993C44.103,45.854 45.849,44.129 48,43.021ZM26.235,43.496L24.716,44.416L18.663,41.234L12.611,44.415L11.092,43.497L12.276,36.593L7.409,31.848L7.733,30.098L14.716,29.084L17.78,22.875L19.547,22.875L22.611,29.084L29.596,30.099L29.917,31.849L25.051,36.593L26.235,43.496ZM40.529,44.486L37.62,44.486L37.62,41.674L40.529,41.674L40.529,44.486ZM40.529,38.166L37.62,38.166L37.62,35.354L40.529,35.354L40.529,38.166ZM40.529,31.846L37.62,31.846L37.62,29.034L40.529,29.034L40.529,31.846ZM40.529,25.525L37.62,25.525L37.62,22.713L40.529,22.713L40.529,25.525Z" fill="#EEE421"/>
</svg>
