<svg width="48" height="50" viewBox="0 0 48 50" fill="none" xmlns="http://www.w3.org/2000/svg" xmlns:xlink="http://www.w3.org/1999/xlink">
<path d="M18.663,27.61L16.583,31.825L11.932,32.5L15.297,35.781L14.503,40.414L18.663,38.227L22.824,40.414L22.029,35.781L25.395,32.5L20.744,31.825L18.663,27.61Z" fill="#6BE3F9"/>
<path d="M47.503,13.403L34.281,0.18C32.024,0.873 29.625,0.874 27.368,0.183L10.872,16.679L15.644,16.679L22.383,9.94L24.371,11.928L19.621,16.679L24.54,16.679L26.831,14.387L29.122,16.679L36.174,16.679L34.801,15.307L36.748,13.36L38.736,15.349L37.406,16.679L44.889,16.679L45.257,17.524C45.756,18.675 46.48,19.691 47.374,20.529L47.461,20.441C46.756,18.138 46.771,15.697 47.503,13.403ZM27.891,8.396L25.903,6.408L27.849,4.461L29.838,6.45L27.891,8.396ZM32.341,12.845L30.352,10.857L32.299,8.911L34.287,10.899L32.341,12.845Z" fill="#6BE3F9"/>
<path d="M48,43.191L48,24.402C45.903,23.29 44.198,21.587 43.085,19.491L5.032,19.491C3.897,21.629 2.151,23.355 0,24.463L0,43.253C2.097,44.364 3.802,46.067 4.915,48.163L42.968,48.163C44.103,46.025 45.849,44.3 48,43.191ZM26.235,43.667L24.716,44.586L18.663,41.404L12.611,44.586L11.092,43.668L12.276,36.763L7.409,32.019L7.733,30.269L14.716,29.254L17.78,23.046L19.547,23.046L22.611,29.254L29.596,30.269L29.917,32.02L25.051,36.763L26.235,43.667ZM40.529,44.657L37.62,44.657L37.62,41.845L40.529,41.845L40.529,44.657ZM40.529,38.337L37.62,38.337L37.62,35.525L40.529,35.525L40.529,38.337ZM40.529,32.016L37.62,32.016L37.62,29.204L40.529,29.204L40.529,32.016ZM40.529,25.696L37.62,25.696L37.62,22.884L40.529,22.884L40.529,25.696Z" fill="#6BE3F9"/>
</svg>
