<svg width="44" height="44" viewBox="0 0 44 44" fill="none" xmlns="http://www.w3.org/2000/svg" xmlns:xlink="http://www.w3.org/1999/xlink">
<path d="M38.331,21.667C38.331,30.688 31.018,38.001 21.997,38.001L21.997,42.001C33.227,42.001 42.331,32.897 42.331,21.667L38.331,21.667ZM21.997,38.001C12.977,38.001 5.664,30.688 5.664,21.667L1.664,21.667C1.664,32.897 10.768,42.001 21.997,42.001L21.997,38.001ZM5.664,21.667C5.664,12.647 12.977,5.334 21.997,5.334L21.997,1.334C10.768,1.334 1.664,10.438 1.664,21.667L5.664,21.667ZM21.997,5.334C31.018,5.334 38.331,12.647 38.331,21.667L42.331,21.667C42.331,10.438 33.227,1.334 21.997,1.334L21.997,5.334Z" fill="#FFFFFF"/>
<path d="M24,10.667C24,9.562 23.105,8.667 22,8.667C20.895,8.667 20,9.562 20,10.667L24,10.667ZM22,21.667L20,21.667C20,22.425 20.428,23.117 21.106,23.456L22,21.667ZM28.439,27.123C29.427,27.616 30.628,27.216 31.122,26.228C31.616,25.24 31.216,24.039 30.228,23.545L28.439,27.123ZM20,10.667L20,21.667L24,21.667L24,10.667L20,10.667ZM21.106,23.456L28.439,27.123L30.228,23.545L22.894,19.878L21.106,23.456Z" fill="#FFFFFF"/>
</svg>
