<svg width="48" height="50" viewBox="0 0 48 50" fill="none" xmlns="http://www.w3.org/2000/svg" xmlns:xlink="http://www.w3.org/1999/xlink">
<path d="M42,24.172C42,34.113 33.941,42.172 24,42.172L24,46.172C36.15,46.172 46,36.322 46,24.172L42,24.172ZM24,42.172C14.059,42.172 6,34.113 6,24.172L2,24.172C2,36.322 11.85,46.172 24,46.172L24,42.172ZM6,24.172C6,14.231 14.059,6.172 24,6.172L24,2.172C11.85,2.172 2,12.022 2,24.172L6,24.172ZM24,6.172C33.941,6.172 42,14.231 42,24.172L46,24.172C46,12.022 36.15,2.172 24,2.172L24,6.172Z" fill="#E4E4E3"/>
<path d="M26,12.172C26,11.067 25.105,10.172 24,10.172C22.895,10.172 22,11.067 22,12.172L26,12.172ZM24,24.172L22,24.172C22,24.929 22.428,25.622 23.106,25.961L24,24.172ZM31.106,29.961C32.094,30.455 33.295,30.054 33.789,29.066C34.283,28.078 33.882,26.877 32.894,26.383L31.106,29.961ZM22,12.172L22,24.172L26,24.172L26,12.172L22,12.172ZM23.106,25.961L31.106,29.961L32.894,26.383L24.894,22.383L23.106,25.961Z" fill="#E4E4E3"/>
</svg>
