<svg width="44" height="44" viewBox="0 0 44 44" fill="none" xmlns="http://www.w3.org/2000/svg" xmlns:xlink="http://www.w3.org/1999/xlink">
<path d="M37.335,21C37.335,30.021 30.022,37.333 21.001,37.333L21.001,41.333C32.231,41.333 41.335,32.23 41.335,21L37.335,21ZM21.001,37.333C11.981,37.333 4.668,30.021 4.668,21L0.668,21C0.668,32.23 9.772,41.333 21.001,41.333L21.001,37.333ZM4.668,21C4.668,11.979 11.981,4.667 21.001,4.667L21.001,0.667C9.772,0.667 0.668,9.77 0.668,21L4.668,21ZM21.001,4.667C30.022,4.667 37.335,11.979 37.335,21L41.335,21C41.335,9.77 32.231,0.667 21.001,0.667L21.001,4.667Z" fill="#FFFFFF"/>
<path d="M23,10C23,8.895 22.105,8 21,8C19.895,8 19,8.895 19,10L23,10ZM21,21L19,21C19,21.758 19.428,22.45 20.106,22.789L21,21ZM27.439,26.456C28.427,26.949 29.628,26.549 30.122,25.561C30.616,24.573 30.216,23.372 29.228,22.878L27.439,26.456ZM19,10L19,21L23,21L23,10L19,10ZM20.106,22.789L27.439,26.456L29.228,22.878L21.894,19.211L20.106,22.789Z" fill="#FFFFFF"/>
</svg>
