<svg width="48" height="48" viewBox="0 0 48 48" fill="none" xmlns="http://www.w3.org/2000/svg" xmlns:xlink="http://www.w3.org/1999/xlink">
<path d="M41,24C41,33.941 32.941,42 23,42L23,46C35.15,46 45,36.15 45,24L41,24ZM23,42C13.059,42 5,33.941 5,24L1,24C1,36.15 10.85,46 23,46L23,42ZM5,24C5,14.059 13.059,6 23,6L23,2C10.85,2 1,11.85 1,24L5,24ZM23,6C32.941,6 41,14.059 41,24L45,24C45,11.85 35.15,2 23,2L23,6Z" fill="#84837D"/>
<path d="M25,12C25,10.895 24.105,10 23,10C21.895,10 21,10.895 21,12L25,12ZM23,24L21,24C21,24.758 21.428,25.45 22.106,25.789L23,24ZM30.106,29.789C31.094,30.283 32.295,29.882 32.789,28.894C33.283,27.906 32.882,26.705 31.894,26.211L30.106,29.789ZM21,12L21,24L25,24L25,12L21,12ZM22.106,25.789L30.106,29.789L31.894,26.211L23.894,22.211L22.106,25.789Z" fill="#84837D"/>
</svg>
