<svg width="48" height="48" viewBox="0 0 48 48" fill="none" xmlns="http://www.w3.org/2000/svg" xmlns:xlink="http://www.w3.org/1999/xlink">
<line x1="6" y1="9" x2="42" y2="9" stroke="#393936" stroke-width="2" stroke-miterlimit="3.999327" stroke-linecap="round" stroke-linejoin="round"/>
<path d="M40,11C40,9.895 39.105,9 38,9C36.895,9 36,9.895 36,11L40,11ZM10,39L8,39L10,39ZM12,11C12,9.895 11.105,9 10,9C8.895,9 8,9.895 8,11L12,11ZM14,11C14,12.105 14.895,13 16,13C17.105,13 18,12.105 18,11L14,11ZM20,3L20,1L20,3ZM28,3L28,1L28,3ZM30,11C30,12.105 30.895,13 32,13C33.105,13 34,12.105 34,11L30,11ZM36,11L36,39L40,39L40,11L36,11ZM36,39C36,39.53 35.789,40.039 35.414,40.414L38.243,43.243C39.368,42.117 40,40.591 40,39L36,39ZM35.414,40.414C35.039,40.789 34.53,41 34,41L34,45C35.591,45 37.117,44.368 38.243,43.243L35.414,40.414ZM34,41L14,41L14,45L34,45L34,41ZM14,41C13.47,41 12.961,40.789 12.586,40.414L9.757,43.243C10.883,44.368 12.409,45 14,45L14,41ZM12.586,40.414C12.211,40.039 12,39.53 12,39L8,39C8,40.591 8.632,42.117 9.757,43.243L12.586,40.414ZM12,39L12,11L8,11L8,39L12,39ZM18,11L18,7L14,7L14,11L18,11ZM18,7C18,6.47 18.211,5.961 18.586,5.586L15.757,2.757C14.632,3.883 14,5.409 14,7L18,7ZM18.586,5.586C18.961,5.211 19.47,5 20,5L20,1C18.409,1 16.883,1.632 15.757,2.757L18.586,5.586ZM20,5L28,5L28,1L20,1L20,5ZM28,5C28.53,5 29.039,5.211 29.414,5.586L32.243,2.757C31.117,1.632 29.591,1 28,1L28,5ZM29.414,5.586C29.789,5.961 30,6.47 30,7L34,7C34,5.409 33.368,3.883 32.243,2.757L29.414,5.586ZM30,7L30,11L34,11L34,7L30,7Z" fill="#393936"/>
<line x1="18" y1="21" x2="18" y2="33" stroke="#393936" stroke-width="2" stroke-miterlimit="3.999327" stroke-linecap="round" stroke-linejoin="round"/>
<line x1="26" y1="21" x2="26" y2="33" stroke="#393936" stroke-width="2" stroke-miterlimit="3.999327" stroke-linecap="round" stroke-linejoin="round"/>
</svg>
