<svg width="102" height="94" viewBox="0 0 102 94" fill="none" xmlns="http://www.w3.org/2000/svg" xmlns:xlink="http://www.w3.org/1999/xlink">
<path d="M9.071,43.245C9.071,24.698 26.545,7.887 50.247,7.887C74.037,7.887 91.81,24.775 91.81,43.245C91.81,61.715 74.037,78.604 50.247,78.604C45.501,78.604 40.926,77.929 36.58,76.609C32.293,75.307 27.814,76.375 24.577,79.029C23.172,80.181 21.642,81.164 20.024,81.963C21,78.323 21.185,74.471 20.509,70.68C20.054,68.125 18.814,66.136 17.574,64.748C11.996,58.503 9.071,50.914 9.071,43.245ZM29.824,85.427C25.424,89.034 20.126,91.411 14.513,92.302C14.426,92.315 14.34,92.329 14.253,92.342C13.609,92.438 12.961,92.516 12.31,92.573L12.31,92.573C11.386,92.654 10.457,92.695 9.523,92.695C6.932,92.695 5.642,89.554 7.467,87.73C8.234,86.963 8.92,86.135 9.523,85.259C9.707,84.992 9.883,84.72 10.051,84.445L10.069,84.415C12.286,80.763 13.123,76.392 12.364,72.131C12.238,71.427 11.879,70.792 11.403,70.259C4.55,62.587 0.797,53.063 0.797,43.245C0.797,19.185 22.979,-0.387 50.247,-0.387C77.514,-0.387 100.084,19.185 100.084,43.245C100.084,67.306 77.514,86.878 50.247,86.878C44.71,86.878 39.323,86.089 34.176,84.526C32.672,84.069 31.039,84.43 29.824,85.427ZM28.721,49.257C32.72,49.257 35.961,46.016 35.961,42.017C35.961,38.019 32.72,34.778 28.721,34.778C24.723,34.778 21.482,38.019 21.482,42.017C21.482,46.016 24.723,49.257 28.721,49.257ZM57.68,42.017C57.68,46.016 54.439,49.257 50.441,49.257C46.442,49.257 43.201,46.016 43.201,42.017C43.201,38.019 46.442,34.778 50.441,34.778C54.439,34.778 57.68,38.019 57.68,42.017ZM72.16,49.257C76.158,49.257 79.4,46.016 79.4,42.017C79.4,38.019 76.158,34.778 72.16,34.778C68.161,34.778 64.92,38.019 64.92,42.017C64.92,46.016 68.161,49.257 72.16,49.257Z" clip-rule="evenodd" fill-rule="evenodd" fill="#1D1D1B"/>
</svg>
