<svg width="72" height="68" viewBox="0 0 72 68" fill="none" xmlns="http://www.w3.org/2000/svg" xmlns:xlink="http://www.w3.org/1999/xlink">
<path d="M37.128,0.389L46.46,19.041C46.781,19.679 47.397,20.124 48.114,20.224L68.98,23.216C70.781,23.475 71.501,25.657 70.197,26.909L55.099,41.428C54.582,41.925 54.345,42.643 54.469,43.345L58.034,63.844C58.34,65.613 56.458,66.964 54.848,66.129L36.185,56.449C35.546,56.119 34.78,56.119 34.141,56.449L15.478,66.129C13.868,66.964 11.986,65.616 12.292,63.844L15.857,43.345C15.978,42.643 15.744,41.925 15.227,41.428L0.129,26.909C-1.175,25.657 -0.455,23.473 1.346,23.216L22.212,20.224C22.926,20.121 23.545,19.679 23.866,19.041L33.198,0.389C34.005,-1.219 36.332,-1.219 37.136,0.389L37.128,0.389Z" transform="rotate(41.349 35.163 32.783)" fill="#FED33C"/>
</svg>
