<svg width="34" height="34" viewBox="0 0 34 34" fill="none" xmlns="http://www.w3.org/2000/svg" xmlns:xlink="http://www.w3.org/1999/xlink">
<path d="M10.799,4.186C11.979,4.186 12.935,3.23 12.935,2.051C12.935,0.871 11.979,-0.085 10.799,-0.085L10.799,4.186ZM5.995,2.051L5.995,-0.085L5.995,2.051ZM2.792,5.254L0.656,5.254L2.792,5.254ZM0.656,10.059C0.656,11.238 1.612,12.194 2.792,12.194C3.971,12.194 4.927,11.238 4.927,10.059L0.656,10.059ZM29.485,10.059C29.485,11.238 30.441,12.194 31.62,12.194C32.799,12.194 33.755,11.238 33.755,10.059L29.485,10.059ZM28.417,2.051L28.417,-0.085L28.417,2.051ZM23.612,-0.085C22.433,-0.085 21.477,0.871 21.477,2.051C21.477,3.23 22.433,4.186 23.612,4.186L23.612,-0.085ZM23.612,28.744C22.433,28.744 21.477,29.7 21.477,30.879C21.477,32.059 22.433,33.015 23.612,33.015L23.612,28.744ZM33.755,22.871C33.755,21.692 32.799,20.736 31.62,20.736C30.441,20.736 29.485,21.692 29.485,22.871L33.755,22.871ZM4.927,22.871C4.927,21.692 3.971,20.736 2.792,20.736C1.612,20.736 0.656,21.692 0.656,22.871L4.927,22.871ZM2.792,27.676L0.656,27.676L2.792,27.676ZM10.799,33.015C11.979,33.015 12.935,32.059 12.935,30.879C12.935,29.7 11.979,28.744 10.799,28.744L10.799,33.015ZM10.799,-0.085L5.995,-0.085L5.995,4.186L10.799,4.186L10.799,-0.085ZM5.995,-0.085C4.579,-0.085 3.221,0.478 2.22,1.479L5.24,4.499C5.44,4.299 5.711,4.186 5.995,4.186L5.995,-0.085ZM2.22,1.479C1.219,2.48 0.656,3.838 0.656,5.254L4.927,5.254C4.927,4.971 5.039,4.699 5.24,4.499L2.22,1.479ZM0.656,5.254L0.656,10.059L4.927,10.059L4.927,5.254L0.656,5.254ZM33.755,10.059L33.755,5.254L29.485,5.254L29.485,10.059L33.755,10.059ZM33.755,5.254C33.755,3.838 33.193,2.48 32.192,1.479L29.172,4.499C29.372,4.699 29.485,4.971 29.485,5.254L33.755,5.254ZM32.192,1.479C31.191,0.478 29.833,-0.085 28.417,-0.085L28.417,4.186C28.7,4.186 28.972,4.299 29.172,4.499L32.192,1.479ZM28.417,-0.085L23.612,-0.085L23.612,4.186L28.417,4.186L28.417,-0.085ZM23.612,33.015L28.417,33.015L28.417,28.744L23.612,28.744L23.612,33.015ZM28.417,33.015C29.833,33.015 31.191,32.452 32.192,31.451L29.172,28.431C28.972,28.631 28.7,28.744 28.417,28.744L28.417,33.015ZM32.192,31.451C33.193,30.45 33.755,29.092 33.755,27.676L29.485,27.676C29.485,27.959 29.372,28.231 29.172,28.431L32.192,31.451ZM33.755,27.676L33.755,22.871L29.485,22.871L29.485,27.676L33.755,27.676ZM0.656,22.871L0.656,27.676L4.927,27.676L4.927,22.871L0.656,22.871ZM0.656,27.676C0.656,29.092 1.219,30.45 2.22,31.451L5.24,28.431C5.039,28.231 4.927,27.959 4.927,27.676L0.656,27.676ZM2.22,31.451C3.221,32.452 4.579,33.015 5.995,33.015L5.995,28.744C5.711,28.744 5.44,28.631 5.24,28.431L2.22,31.451ZM5.995,33.015L10.799,33.015L10.799,28.744L5.995,28.744L5.995,33.015Z" fill="#E4E4E3"/>
</svg>
