<svg width="48" height="48" viewBox="0 0 48 48" fill="none" xmlns="http://www.w3.org/2000/svg" xmlns:xlink="http://www.w3.org/1999/xlink">
<path d="M24,0C10.772,0 0,10.772 0,24C0,37.228 10.772,48 24,48C37.228,48 48,37.228 48,24C48,10.772 37.228,0 24,0ZM37.783,19.949L22.709,35.023C22.064,35.668 21.222,36.009 20.308,36.009C19.394,36.009 18.551,35.65 17.906,35.023L10.217,27.334C9.571,26.689 9.231,25.846 9.231,24.932C9.231,24.018 9.589,23.176 10.217,22.53C10.862,21.885 11.704,21.544 12.618,21.544C13.532,21.544 14.375,21.903 15.02,22.53L20.308,27.818L32.98,15.146C33.625,14.5 34.468,14.142 35.382,14.142C36.296,14.142 37.138,14.5 37.783,15.146C39.11,16.472 39.11,18.623 37.783,19.949Z" fill="#1ED760"/>
</svg>
