<svg width="32" height="32" viewBox="0 0 32 32" fill="none" xmlns="http://www.w3.org/2000/svg" xmlns:xlink="http://www.w3.org/1999/xlink">
<path d="M24.267,10.34C24.26,11.001 24.228,11.659 24.178,12.316C24.171,12.43 24.167,12.54 24.164,12.654C24.16,12.9 24.299,12.999 24.544,12.978C24.633,12.971 24.722,12.946 24.807,12.917C25.045,12.832 25.284,12.743 25.522,12.654C25.92,12.501 26.318,12.352 26.738,12.256C27.019,12.192 27.296,12.156 27.584,12.224C28.231,12.373 28.565,13.017 28.316,13.632C28.252,13.796 28.153,13.934 28.036,14.062C27.868,14.247 27.68,14.404 27.474,14.546C27.232,14.709 26.987,14.869 26.745,15.029C26.34,15.296 25.931,15.563 25.525,15.833C25.358,15.947 25.195,16.064 25.035,16.188C24.946,16.256 24.864,16.334 24.789,16.42C24.636,16.59 24.565,16.789 24.58,17.017C24.594,17.234 24.633,17.447 24.693,17.657C24.885,18.332 25.18,18.962 25.54,19.559C26.201,20.665 27.054,21.603 28.05,22.414C28.896,23.104 29.82,23.669 30.798,24.149C30.887,24.192 30.972,24.238 31.054,24.288C31.118,24.327 31.175,24.377 31.218,24.441C31.285,24.533 31.292,24.633 31.236,24.736C31.189,24.825 31.118,24.892 31.044,24.953C30.933,25.045 30.809,25.116 30.684,25.184C30.13,25.486 29.54,25.699 28.932,25.863C28.672,25.934 28.412,26.009 28.153,26.083C27.972,26.137 27.804,26.215 27.637,26.3C27.356,26.446 27.196,26.677 27.14,26.983C27.108,27.154 27.086,27.324 27.058,27.491C26.98,27.918 26.827,28.075 26.407,28.149C26.261,28.174 26.108,28.188 25.959,28.199C25.586,28.22 25.209,28.231 24.836,28.252C23.986,28.299 23.154,28.43 22.343,28.697C22.002,28.811 21.671,28.956 21.362,29.134C21.031,29.323 20.704,29.522 20.377,29.721C19.858,30.034 19.331,30.332 18.763,30.553C18.13,30.798 17.475,30.944 16.8,31.004C16.231,31.058 15.662,31.047 15.093,30.983C14.244,30.887 13.44,30.642 12.679,30.251C12.327,30.069 11.986,29.867 11.644,29.66C11.395,29.507 11.147,29.358 10.894,29.209C10.297,28.853 9.65,28.626 8.971,28.476C8.355,28.341 7.73,28.267 7.1,28.245C6.77,28.231 6.443,28.22 6.112,28.199C5.923,28.188 5.739,28.163 5.557,28.117C5.301,28.05 5.138,27.893 5.084,27.634C5.056,27.488 5.031,27.339 5.006,27.193C5.003,27.164 4.999,27.132 4.995,27.104C4.939,26.713 4.747,26.425 4.377,26.258C4.149,26.155 3.918,26.073 3.68,26.005C3.267,25.891 2.855,25.792 2.453,25.646C2.101,25.522 1.756,25.369 1.429,25.191C1.33,25.138 1.234,25.077 1.141,25.013C1.081,24.971 1.02,24.924 0.971,24.871C0.779,24.672 0.796,24.491 1.013,24.32C1.12,24.238 1.244,24.181 1.365,24.121C2.222,23.701 3.033,23.207 3.79,22.627C4.867,21.795 5.792,20.821 6.507,19.659C6.887,19.036 7.2,18.382 7.403,17.682C7.467,17.458 7.513,17.23 7.52,16.999C7.531,16.768 7.452,16.572 7.299,16.405C7.207,16.306 7.104,16.22 6.997,16.139C6.684,15.904 6.361,15.691 6.034,15.477C5.621,15.207 5.205,14.937 4.793,14.667C4.587,14.532 4.387,14.386 4.206,14.215C4.075,14.091 3.957,13.956 3.865,13.799C3.669,13.472 3.655,13.134 3.804,12.786C3.907,12.548 4.082,12.38 4.323,12.288C4.59,12.185 4.864,12.174 5.141,12.22C5.468,12.274 5.781,12.373 6.091,12.487C6.407,12.601 6.72,12.725 7.036,12.843C7.182,12.9 7.332,12.953 7.488,12.978C7.524,12.985 7.563,12.996 7.598,12.992C7.78,12.985 7.929,12.928 7.929,12.683C7.929,12.48 7.918,12.277 7.904,12.075C7.829,10.983 7.801,9.888 7.847,8.793C7.875,8.096 7.947,7.403 8.103,6.72C8.32,5.771 8.715,4.91 9.301,4.132C10.389,2.695 11.822,1.788 13.539,1.305C14.478,1.042 15.438,0.953 16.409,0.985C17.436,1.017 18.432,1.209 19.388,1.579C20.299,1.931 21.127,2.421 21.845,3.086C22.748,3.925 23.442,4.907 23.819,6.098C23.989,6.635 24.096,7.186 24.164,7.744C24.267,8.608 24.27,9.479 24.263,10.347L24.267,10.34Z" fill="#FFFFFF"/>
</svg>
