<svg width="16" height="26" viewBox="0 0 16 26" fill="none" xmlns="http://www.w3.org/2000/svg" xmlns:xlink="http://www.w3.org/1999/xlink">
<path d="M9.163,-0.369C8.33,-1.203 6.977,-1.203 6.143,-0.37C5.309,0.464 5.309,1.816 6.143,2.65L9.163,-0.369ZM6.143,22.277C5.309,23.111 5.309,24.463 6.143,25.297C6.977,26.131 8.33,26.131 9.163,25.297L6.143,22.277ZM3.51,5.284C2.676,4.45 1.324,4.45 0.49,5.284C-0.344,6.118 -0.344,7.47 0.489,8.304L3.51,5.284ZM0.489,16.608C-0.344,17.442 -0.344,18.794 0.49,19.628C1.324,20.461 2.676,20.461 3.51,19.627L0.489,16.608ZM6.143,2.65C8.745,5.253 10.207,8.783 10.207,12.464L14.478,12.464C14.478,7.651 12.566,3.035 9.163,-0.369L6.143,2.65ZM10.207,12.464C10.207,16.144 8.745,19.674 6.143,22.277L9.163,25.297C12.566,21.893 14.478,17.277 14.478,12.464L10.207,12.464ZM0.489,8.304C1.59,9.405 2.209,10.899 2.209,12.456L6.48,12.456C6.48,9.766 5.411,7.187 3.51,5.284L0.489,8.304ZM2.209,12.456C2.209,14.013 1.59,15.506 0.489,16.608L3.51,19.627C5.411,17.725 6.48,15.145 6.48,12.456L2.209,12.456Z" fill="#E4E4E3"/>
</svg>
