<svg width="48" height="44" viewBox="0 0 48 44" fill="none" xmlns="http://www.w3.org/2000/svg" xmlns:xlink="http://www.w3.org/1999/xlink">
<path d="M18.966,35.06C14.235,35.06 9.697,35.06 5.158,35.06C1.106,35.057 -0.996,32.884 -1,28.694C-1,20.999 -1,13.304 -1,5.609C-0.993,1.511 1.131,-0.688 5.098,-0.688C17.032,-0.688 28.962,-0.688 40.896,-0.688C44.869,-0.688 46.994,1.503 46.997,5.598C47.001,13.337 47.001,21.08 46.997,28.819C46.997,32.825 44.848,35.049 40.982,35.057C36.397,35.064 31.816,35.057 27.231,35.057C27.288,37.406 27.66,37.807 29.735,37.807C30.983,37.807 32.227,37.785 33.475,37.815C35.242,37.855 36.315,38.926 36.301,40.583C36.286,42.188 35.242,43.289 33.558,43.293C26.523,43.319 19.489,43.319 12.45,43.293C10.762,43.286 9.718,42.192 9.7,40.591C9.682,38.93 10.755,37.855 12.518,37.815C13.809,37.785 15.111,37.7 16.388,37.836C17.74,37.98 18.498,37.542 18.684,36.132C18.723,35.823 18.841,35.524 18.966,35.057L18.966,35.06ZM41.669,24.022L41.669,4.898L4.332,4.898L4.332,24.026L41.669,24.026L41.669,24.022Z" fill="#E4E4E3"/>
</svg>
