<svg width="34" height="34" viewBox="0 0 34 34" fill="none" xmlns="http://www.w3.org/2000/svg" xmlns:xlink="http://www.w3.org/1999/xlink">
<path d="M17,0.357C8.181,0.357 1,7.538 1,16.357C1,25.176 8.181,32.357 17,32.357C25.819,32.357 33,25.176 33,16.357C33,7.538 25.819,0.357 17,0.357ZM26.189,13.656L16.14,23.706C15.709,24.136 15.148,24.363 14.538,24.363C13.929,24.363 13.367,24.124 12.937,23.706L7.811,18.579C7.381,18.149 7.154,17.588 7.154,16.978C7.154,16.369 7.393,15.807 7.811,15.377C8.241,14.947 8.803,14.72 9.412,14.72C10.022,14.72 10.583,14.959 11.013,15.377L14.538,18.902L22.987,10.454C23.417,10.024 23.978,9.785 24.588,9.785C25.197,9.785 25.759,10.024 26.189,10.454C27.073,11.338 27.073,12.772 26.189,13.656Z" fill="#E4E4E3"/>
</svg>
