<svg width="36" height="34" viewBox="0 0 36 34" fill="none" xmlns="http://www.w3.org/2000/svg" xmlns:xlink="http://www.w3.org/1999/xlink">
<path d="M35.233,14.546L22.236,0.617C21.817,0.17 21.16,0.025 20.601,0.256C20.028,0.487 19.664,1.064 19.664,1.698L19.664,7.9C19.664,8.178 19.439,8.403 19.161,8.403C8.414,8.403 -0.334,17.43 -0.334,28.519L-0.334,31.619C-0.334,32.34 0.155,32.931 0.84,33.104C0.952,33.133 1.064,33.147 1.175,33.147C1.734,33.147 2.279,32.801 2.545,32.268C5.354,26.457 11.014,22.852 17.303,22.852C18.615,22.852 19.678,23.915 19.678,25.228L19.678,29.557C19.678,30.191 20.056,30.754 20.615,30.999C21.174,31.23 21.831,31.085 22.25,30.638L35.247,16.709C35.806,16.103 35.806,15.166 35.247,14.56L34.089,15.629L34.081,15.621L35.233,14.546ZM32.146,15.635L22.664,5.473L22.664,7.9C22.664,9.835 21.096,11.403 19.161,11.403C10.805,11.403 3.75,17.946 2.78,26.5C6.407,22.327 11.629,19.852 17.303,19.852C20.272,19.852 22.678,22.259 22.678,25.228L22.678,25.782L32.146,15.635ZM34.074,15.627L34.083,15.635L33.042,16.595C33.041,16.594 33.041,16.593 33.04,16.592L34.074,15.627Z" clip-rule="evenodd" fill-rule="evenodd" fill="#E4E4E3"/>
</svg>
