<svg width="38" height="46" viewBox="0 0 38 46" fill="none" xmlns="http://www.w3.org/2000/svg" xmlns:xlink="http://www.w3.org/1999/xlink">
<path d="M15.606,29.669C15.565,29.804 15.524,29.913 15.497,30.021C13.801,36.643 13.625,38.122 11.875,41.188C11.047,42.653 10.111,44.037 9.08,45.367C8.957,45.516 8.849,45.706 8.618,45.665C8.36,45.611 8.347,45.381 8.32,45.177C8.035,43.169 7.886,41.147 7.953,39.112C8.035,36.466 8.374,35.557 11.78,21.202C11.834,20.985 11.78,20.795 11.698,20.605C10.884,18.407 10.721,16.168 11.427,13.902C12.974,9.004 18.523,8.638 19.486,12.668C20.083,15.164 18.496,18.434 17.288,23.264C16.284,27.253 20.979,30.089 24.982,27.172C28.686,24.486 30.11,18.054 29.839,13.495C29.296,4.405 19.337,2.437 13.014,5.368C5.769,8.719 4.114,17.702 7.384,21.813C7.804,22.342 8.116,22.654 7.981,23.183C7.763,24.011 7.587,24.838 7.356,25.652C7.194,26.263 6.678,26.48 6.067,26.236C4.86,25.747 3.856,24.974 3.042,23.97C0.26,20.524 -0.54,13.726 3.137,7.96C7.207,1.569 14.778,-1.009 21.698,-0.222C29.961,0.714 35.171,6.359 36.162,12.763C36.609,15.68 36.284,22.871 32.186,27.959C27.478,33.793 19.839,34.187 16.325,30.605C16.054,30.333 15.837,30.008 15.565,29.682L15.606,29.669Z" clip-rule="evenodd" fill-rule="evenodd" fill="#FFFFFF"/>
</svg>
