<svg width="36" height="24" viewBox="0 0 36 24" fill="none" xmlns="http://www.w3.org/2000/svg" xmlns:xlink="http://www.w3.org/1999/xlink">
<path d="M0,11.906C0.169,11.315 0.705,11.091 1.134,10.788C2.728,9.655 4.337,8.553 5.931,7.436C7.387,6.414 8.843,5.376 10.314,4.354C11.463,3.54 12.628,2.742 13.793,1.928C14.636,1.337 15.463,0.746 16.306,0.156C16.766,-0.164 17.517,-0.004 17.548,0.746C17.548,0.826 17.548,0.89 17.548,0.97C17.548,2.726 17.548,4.482 17.548,6.254C17.548,6.318 17.548,6.398 17.548,6.462C17.517,6.845 17.517,6.861 17.869,6.893C19.279,7.052 20.659,7.388 22.023,7.787C23.065,8.09 24.076,8.441 25.088,8.84C26.237,9.287 27.356,9.862 28.429,10.485C29.287,10.98 30.114,11.554 30.865,12.209C31.463,12.736 32.045,13.279 32.582,13.869C33.333,14.683 33.946,15.609 34.467,16.615C35.065,17.749 35.463,18.946 35.708,20.207C35.816,20.75 35.861,21.293 35.923,21.852C35.969,22.283 35.984,22.73 35.999,23.161C36.015,23.64 35.724,23.927 35.279,23.959C34.835,24.007 34.666,23.703 34.513,23.384C34.13,22.65 33.67,21.995 33.118,21.389C32.26,20.431 31.264,19.664 30.176,19.042C29.287,18.531 28.352,18.1 27.356,17.828C26.62,17.621 25.885,17.413 25.134,17.254C24.597,17.142 24.061,17.094 23.525,17.03C23.003,16.966 22.482,16.934 21.977,16.903C21.517,16.871 21.042,16.839 20.567,16.823C19.617,16.791 18.651,16.759 17.701,16.743C17.655,16.743 17.609,16.743 17.548,16.743L17.548,17.014C17.548,19.026 17.548,21.037 17.548,23.049C17.548,23.416 17.486,23.735 17.119,23.911C16.843,24.039 16.597,24.039 16.337,23.847C15.019,22.921 13.716,21.995 12.398,21.069C11.448,20.399 10.483,19.728 9.532,19.058C8.322,18.212 7.126,17.381 5.931,16.535C4.475,15.514 3.034,14.492 1.579,13.47C1.149,13.167 0.705,12.864 0.291,12.544C0.153,12.432 0.092,12.225 0,12.065L0,11.906Z" fill="#E4E4E3"/>
</svg>
