<svg width="32" height="32" viewBox="0 0 32 32" fill="none" xmlns="http://www.w3.org/2000/svg" xmlns:xlink="http://www.w3.org/1999/xlink">
<path d="M16,0C7.181,0 0,7.181 0,16C0,24.819 7.181,32 16,32C24.819,32 32,24.819 32,16C32,7.181 24.819,0 16,0ZM25.189,13.299L15.14,23.349C14.709,23.779 14.148,24.006 13.538,24.006C12.929,24.006 12.367,23.767 11.937,23.349L6.811,18.223C6.381,17.792 6.154,17.231 6.154,16.621C6.154,16.012 6.393,15.45 6.811,15.02C7.241,14.59 7.803,14.363 8.412,14.363C9.022,14.363 9.583,14.602 10.013,15.02L13.538,18.545L21.987,10.097C22.417,9.667 22.978,9.428 23.588,9.428C24.197,9.428 24.759,9.667 25.189,10.097C26.073,10.981 26.073,12.415 25.189,13.299Z" fill="#E4E4E3"/>
</svg>
