<svg width="42" height="36" viewBox="0 0 42 36" fill="none" xmlns="http://www.w3.org/2000/svg" xmlns:xlink="http://www.w3.org/1999/xlink">
<path d="M40.034,15.708L25.405,0.512C24.933,0.024 24.194,-0.133 23.564,0.119C22.919,0.37 22.51,0.999 22.51,1.692L22.51,9.006L21.944,9.006C9.847,9.006 0,18.854 0,30.95L0,34.333C0,35.119 0.551,35.764 1.321,35.953C1.447,35.984 1.573,36 1.699,36C2.328,36 2.942,35.622 3.24,35.04C6.402,28.701 12.773,24.768 19.852,24.768L22.526,24.768L22.526,32.083C22.526,32.775 22.951,33.389 23.58,33.656C24.209,33.908 24.949,33.751 25.421,33.263L40.05,18.067C40.679,17.406 40.679,16.384 40.05,15.723Z" fill="#FFFFFF"/>
</svg>
