<svg width="32" height="32" viewBox="0 0 32 32" fill="none" xmlns="http://www.w3.org/2000/svg" xmlns:xlink="http://www.w3.org/1999/xlink">
<path d="M16,-1C7.181,-1 0,6.181 0,15C0,23.819 7.181,31 16,31C24.819,31 32,23.819 32,15C32,6.181 24.819,-1 16,-1ZM25.189,12.299L15.14,22.349C14.709,22.779 14.148,23.006 13.538,23.006C12.929,23.006 12.367,22.767 11.937,22.349L6.811,17.223C6.381,16.792 6.154,16.231 6.154,15.621C6.154,15.012 6.393,14.45 6.811,14.02C7.241,13.59 7.803,13.363 8.412,13.363C9.022,13.363 9.583,13.602 10.013,14.02L13.538,17.545L21.987,9.097C22.417,8.667 22.978,8.428 23.588,8.428C24.197,8.428 24.759,8.667 25.189,9.097C26.073,9.981 26.073,11.415 25.189,12.299Z" fill="#E4E4E3"/>
</svg>
