<svg width="34" height="34" viewBox="0 0 34 34" fill="none" xmlns="http://www.w3.org/2000/svg" xmlns:xlink="http://www.w3.org/1999/xlink">
<path d="M16.668,0.436C7.849,0.436 0.668,7.618 0.668,16.436C0.668,25.255 7.849,32.436 16.668,32.436C25.487,32.436 32.668,25.255 32.668,16.436C32.668,7.618 25.487,0.436 16.668,0.436ZM25.857,13.736L15.808,23.785C15.377,24.215 14.816,24.442 14.206,24.442C13.597,24.442 13.035,24.203 12.605,23.785L7.479,18.659C7.049,18.228 6.822,17.667 6.822,17.057C6.822,16.448 7.061,15.886 7.479,15.456C7.909,15.026 8.471,14.799 9.08,14.799C9.69,14.799 10.251,15.038 10.681,15.456L14.206,18.981L22.655,10.533C23.085,10.103 23.646,9.864 24.256,9.864C24.865,9.864 25.427,10.103 25.857,10.533C26.741,11.417 26.741,12.851 25.857,13.736Z" fill="#C9C9C6"/>
</svg>
