<svg width="48" height="44" viewBox="0 0 48 44" fill="none" xmlns="http://www.w3.org/2000/svg" xmlns:xlink="http://www.w3.org/1999/xlink">
<path d="M9.296,42.112C9.344,42.103 9.393,42.094 9.441,42.084C11.542,41.66 13.511,40.697 15.163,39.282C15.71,38.813 16.442,38.603 17.145,38.758C19.369,39.248 21.768,39.511 24.081,39.511C39.563,39.511 48,29.97 48,19.759C48,9.615 39.651,0.067 24.081,0.067C9.384,0.067 0,10.443 0,20.653C0,25.839 2.427,30.801 7.301,34.404C7.911,34.854 8.28,35.593 8.08,36.325C7.887,37.029 7.603,37.701 7.233,38.325C7.231,38.33 7.228,38.334 7.225,38.339C7.15,38.466 7.071,38.59 6.989,38.713C6.699,39.145 6.366,39.551 5.992,39.924C5.105,40.811 5.734,42.329 6.989,42.329C7.437,42.329 7.883,42.304 8.325,42.256C8.651,42.221 8.975,42.173 9.296,42.112ZM12.093,36.618C12.253,36.499 12.408,36.374 12.561,36.244C13.977,35.03 15.972,34.404 18.006,34.852C19.947,35.279 22.058,35.511 24.081,35.511C37.737,35.511 44,27.396 44,19.759C44,12.186 37.822,4.067 24.081,4.067C11.295,4.067 4,12.939 4,20.653C4,24.498 5.765,28.295 9.678,31.187C11.068,32.214 12.416,34.2 12.093,36.618Z" clip-rule="evenodd" fill-rule="evenodd" fill="#E4E4E3"/>
</svg>
