<svg width="10" height="18" viewBox="0 0 10 18" fill="none" xmlns="http://www.w3.org/2000/svg" xmlns:xlink="http://www.w3.org/1999/xlink">
<path d="M7.212,3.813C7.259,2.157 5.955,0.776 4.298,0.729C2.642,0.681 1.261,1.986 1.214,3.642L7.212,3.813ZM3.713,11.339L6.711,11.227L3.713,11.339ZM5.963,12.505L3.232,13.747L3.232,13.747L5.963,12.505ZM7.213,4.727C7.213,3.071 5.87,1.727 4.213,1.727C2.556,1.727 1.213,3.071 1.213,4.727L7.213,4.727ZM1.214,3.642C1.181,4.785 1.05,5.892 0.915,7.221C0.785,8.496 0.659,9.933 0.715,11.45L6.711,11.227C6.671,10.155 6.758,9.069 6.884,7.827C7.005,6.64 7.171,5.236 7.212,3.813L1.214,3.642ZM0.715,11.45C0.808,13.953 2.565,15.604 4.102,16.191C4.521,16.351 5.055,16.487 5.656,16.482C6.242,16.476 7.117,16.328 7.897,15.671C9.741,14.119 9,11.936 8.694,11.264L3.232,13.747C3.227,13.735 3.091,13.449 3.104,12.974C3.119,12.419 3.35,11.656 4.033,11.081C4.647,10.565 5.289,10.485 5.602,10.482C5.929,10.479 6.15,10.551 6.243,10.586C6.471,10.673 6.697,10.847 6.711,11.227L0.715,11.45ZM8.694,11.264C7.883,9.48 7.213,6.639 7.213,4.727L1.213,4.727C1.213,7.593 2.109,11.277 3.232,13.747L8.694,11.264Z" fill="#FFC7C2"/>
</svg>
