<svg width="48" height="48" viewBox="0 0 48 48" fill="none" xmlns="http://www.w3.org/2000/svg" xmlns:xlink="http://www.w3.org/1999/xlink">
<path d="M46.659,22.773C47.876,21.588 48.305,19.848 47.78,18.234C47.256,16.62 45.886,15.465 44.205,15.221L33.829,13.713C33.302,13.636 32.847,13.305 32.611,12.828L27.97,3.425C27.219,1.902 25.698,0.957 24,0.957C22.302,0.957 20.781,1.902 20.029,3.425L15.389,12.828C15.153,13.305 14.698,13.636 14.172,13.713L3.795,15.221C2.114,15.465 0.744,16.62 0.22,18.233C-0.305,19.848 0.124,21.588 1.34,22.772L8.85,30.093C9.231,30.464 9.404,30.999 9.315,31.522L7.542,41.859C7.255,43.532 7.93,45.191 9.303,46.189C10.676,47.186 12.463,47.316 13.967,46.526L23.248,41.646C23.719,41.399 24.281,41.399 24.751,41.646L34.034,46.526C35.537,47.316 37.324,47.186 38.697,46.189C40.07,45.191 40.745,43.532 40.458,41.859L38.685,31.523C38.596,30.999 38.769,30.464 39.15,30.093L46.659,22.773Z" fill="url(#pf_0_i_6209_32067;6201_12546;6188_34595;5882_15848;5875_6516)"/>
<defs>
<linearGradient id="pf_0_i_6209_32067;6201_12546;6188_34595;5882_15848;5875_6516" x1="-46.055" y1="10.094" x2="94.036" y2="37.898" gradientUnits="userSpaceOnUse">
<stop stop-color="#E72458"/>
<stop offset="0.58" stop-color="#F83B65"/>
<stop offset="1" stop-color="#FE6E8A"/>
</linearGradient>
</defs>
</svg>
