<svg width="140" height="114" viewBox="0 0 140 114" fill="none" xmlns="http://www.w3.org/2000/svg" xmlns:xlink="http://www.w3.org/1999/xlink">
<path d="M102.087,5.011C103.744,5.011 105.087,3.668 105.087,2.011C105.087,0.354 103.744,-0.989 102.087,-0.989L102.087,5.011ZM30.455,6.265L30.588,9.262L30.455,6.265ZM3.357,6.947L5.615,8.923L3.357,6.947ZM4.723,102.159L4.298,105.129L4.723,102.159ZM35.287,104.837L35.383,101.839L35.287,104.837ZM61.545,106.203L62.108,103.256L61.545,106.203ZM71.628,109.354L72.271,106.423L71.628,109.354ZM124.564,109.144L127.402,110.117L127.402,110.117L124.564,109.144ZM125.93,97.38L128.888,97.876L125.93,97.38ZM129.711,81.73L132.617,82.474L132.617,82.474L129.711,81.73ZM136.013,46.702L133.026,46.418L136.013,46.702ZM135.306,5.368C135.072,3.727 133.553,2.588 131.912,2.822C130.272,3.056 129.132,4.576 129.367,6.216L135.306,5.368ZM102.087,-0.989C89.9,-0.989 77.887,-0.183 65.978,0.749C54.037,1.683 42.241,2.74 30.323,3.267L30.588,9.262C42.64,8.728 54.596,7.658 66.447,6.731C78.329,5.801 90.147,5.011 102.087,5.011L102.087,-0.989ZM30.323,3.267C23.24,3.581 16.171,3.737 9.081,3.737L9.081,9.737C16.259,9.737 23.417,9.579 30.588,9.262L30.323,3.267ZM9.081,3.737C9.123,3.737 8.99,3.725 8.321,3.673C7.799,3.633 7.107,3.586 6.394,3.563C5.701,3.541 4.891,3.539 4.159,3.614C3.797,3.651 3.354,3.717 2.912,3.849C2.559,3.955 1.748,4.231 1.099,4.972L5.615,8.923C5.347,9.229 5.078,9.394 4.933,9.47C4.781,9.551 4.67,9.586 4.634,9.597C4.572,9.616 4.602,9.6 4.773,9.583C5.106,9.548 5.602,9.541 6.203,9.56C6.784,9.578 7.372,9.618 7.862,9.656C8.125,9.676 8.302,9.691 8.502,9.706C8.615,9.715 8.88,9.737 9.081,9.737L9.081,3.737ZM1.099,4.972C0.146,6.062 -0.157,7.473 -0.289,8.392C-0.438,9.434 -0.457,10.56 -0.433,11.565C-0.408,12.585 -0.337,13.591 -0.276,14.403C-0.209,15.296 -0.168,15.813 -0.168,16.085L5.832,16.085C5.832,15.521 5.762,14.68 5.708,13.954C5.647,13.147 5.586,12.275 5.565,11.421C5.545,10.552 5.57,9.807 5.65,9.246C5.749,8.562 5.864,8.638 5.615,8.923L1.099,4.972ZM-0.168,16.085C-0.168,16.1 -0.168,16.115 -0.168,16.13C-0.168,16.145 -0.168,16.16 -0.168,16.175C-0.168,16.19 -0.168,16.205 -0.168,16.22C-0.168,16.235 -0.168,16.25 -0.168,16.265C-0.168,16.28 -0.168,16.295 -0.168,16.31C-0.168,16.325 -0.168,16.34 -0.168,16.355C-0.168,16.37 -0.168,16.385 -0.168,16.4C-0.168,16.415 -0.168,16.429 -0.168,16.444C-0.168,16.459 -0.168,16.474 -0.168,16.489C-0.168,16.504 -0.168,16.519 -0.168,16.534C-0.168,16.549 -0.168,16.564 -0.168,16.579C-0.168,16.594 -0.168,16.609 -0.168,16.624C-0.168,16.639 -0.168,16.654 -0.168,16.669C-0.168,16.684 -0.168,16.699 -0.168,16.714C-0.168,16.729 -0.168,16.744 -0.168,16.759C-0.168,16.774 -0.168,16.789 -0.168,16.804C-0.168,16.819 -0.168,16.834 -0.168,16.849C-0.168,16.864 -0.168,16.879 -0.168,16.894C-0.168,16.909 -0.168,16.924 -0.168,16.939C-0.168,16.954 -0.168,16.969 -0.168,16.984C-0.168,16.999 -0.168,17.014 -0.168,17.028C-0.168,17.043 -0.168,17.058 -0.168,17.073C-0.168,17.088 -0.168,17.103 -0.168,17.118C-0.168,17.133 -0.168,17.148 -0.168,17.163C-0.168,17.178 -0.168,17.193 -0.168,17.208C-0.168,17.223 -0.168,17.238 -0.168,17.253C-0.168,17.268 -0.168,17.283 -0.168,17.298C-0.168,17.313 -0.168,17.328 -0.168,17.343C-0.168,17.358 -0.168,17.373 -0.168,17.388C-0.168,17.403 -0.168,17.418 -0.168,17.433C-0.168,17.448 -0.168,17.463 -0.168,17.478C-0.168,17.493 -0.168,17.508 -0.168,17.523C-0.168,17.538 -0.168,17.553 -0.168,17.568C-0.168,17.583 -0.168,17.598 -0.168,17.613C-0.168,17.628 -0.168,17.642 -0.168,17.657C-0.168,17.672 -0.168,17.687 -0.168,17.702C-0.168,17.717 -0.168,17.732 -0.168,17.747C-0.168,17.762 -0.168,17.777 -0.168,17.792C-0.168,17.807 -0.168,17.822 -0.168,17.837C-0.168,17.852 -0.168,17.867 -0.168,17.882C-0.168,17.897 -0.168,17.912 -0.168,17.927C-0.168,17.942 -0.168,17.957 -0.168,17.972C-0.168,17.987 -0.168,18.002 -0.168,18.017C-0.168,18.032 -0.168,18.047 -0.168,18.062C-0.168,18.077 -0.168,18.092 -0.168,18.107C-0.168,18.122 -0.168,18.137 -0.168,18.152C-0.168,18.167 -0.168,18.182 -0.168,18.197C-0.168,18.212 -0.168,18.227 -0.168,18.241C-0.168,18.256 -0.168,18.271 -0.168,18.286C-0.168,18.301 -0.168,18.316 -0.168,18.331C-0.168,18.346 -0.168,18.361 -0.168,18.376C-0.168,18.391 -0.168,18.406 -0.168,18.421C-0.168,18.436 -0.168,18.451 -0.168,18.466C-0.168,18.481 -0.168,18.496 -0.168,18.511C-0.168,18.526 -0.168,18.541 -0.168,18.556C-0.168,18.571 -0.168,18.586 -0.168,18.601C-0.168,18.616 -0.168,18.631 -0.168,18.646C-0.168,18.661 -0.168,18.676 -0.168,18.691C-0.168,18.706 -0.168,18.721 -0.168,18.736C-0.168,18.751 -0.168,18.766 -0.168,18.781C-0.168,18.796 -0.168,18.811 -0.168,18.826C-0.168,18.841 -0.168,18.855 -0.168,18.87C-0.168,18.885 -0.168,18.9 -0.168,18.915C-0.168,18.93 -0.168,18.945 -0.168,18.96C-0.168,18.975 -0.168,18.99 -0.168,19.005C-0.168,19.02 -0.168,19.035 -0.168,19.05C-0.168,19.065 -0.168,19.08 -0.168,19.095C-0.168,19.11 -0.168,19.125 -0.168,19.14C-0.168,19.155 -0.168,19.17 -0.168,19.185C-0.168,19.2 -0.168,19.215 -0.168,19.23C-0.168,19.245 -0.168,19.26 -0.168,19.275C-0.168,19.29 -0.168,19.305 -0.168,19.32C-0.168,19.335 -0.168,19.35 -0.168,19.365C-0.168,19.38 -0.168,19.395 -0.168,19.41C-0.168,19.425 -0.168,19.44 -0.168,19.454C-0.168,19.469 -0.168,19.484 -0.168,19.499C-0.168,19.514 -0.168,19.529 -0.168,19.544C-0.168,19.559 -0.168,19.574 -0.168,19.589C-0.168,19.604 -0.168,19.619 -0.168,19.634C-0.168,19.649 -0.168,19.664 -0.168,19.679C-0.168,19.694 -0.168,19.709 -0.168,19.724C-0.168,19.739 -0.168,19.754 -0.168,19.769C-0.168,19.784 -0.168,19.799 -0.168,19.814C-0.168,19.829 -0.168,19.844 -0.168,19.859C-0.168,19.874 -0.168,19.889 -0.168,19.904C-0.168,19.919 -0.168,19.934 -0.168,19.949C-0.168,19.964 -0.168,19.979 -0.168,19.994C-0.168,20.009 -0.168,20.024 -0.168,20.039C-0.168,20.054 -0.168,20.068 -0.168,20.083C-0.168,20.098 -0.168,20.113 -0.168,20.128C-0.168,20.143 -0.168,20.158 -0.168,20.173C-0.168,20.188 -0.168,20.203 -0.168,20.218C-0.168,20.233 -0.168,20.248 -0.168,20.263C-0.168,20.278 -0.168,20.293 -0.168,20.308C-0.168,20.323 -0.168,20.338 -0.168,20.353C-0.168,20.368 -0.168,20.383 -0.168,20.398C-0.168,20.413 -0.168,20.428 -0.168,20.443C-0.168,20.458 -0.168,20.473 -0.168,20.488C-0.168,20.503 -0.168,20.518 -0.168,20.533C-0.168,20.548 -0.168,20.563 -0.168,20.578C-0.168,20.593 -0.168,20.608 -0.168,20.623C-0.168,20.638 -0.168,20.653 -0.168,20.667C-0.168,20.682 -0.168,20.697 -0.168,20.712C-0.168,20.727 -0.168,20.742 -0.168,20.757C-0.168,20.772 -0.168,20.787 -0.168,20.802C-0.168,20.817 -0.168,20.832 -0.168,20.847C-0.168,20.862 -0.168,20.877 -0.168,20.892C-0.168,20.907 -0.168,20.922 -0.168,20.937C-0.168,20.952 -0.168,20.967 -0.168,20.982C-0.168,20.997 -0.168,21.012 -0.168,21.027C-0.168,21.042 -0.168,21.057 -0.168,21.072C-0.168,21.087 -0.168,21.102 -0.168,21.117C-0.168,21.132 -0.168,21.147 -0.168,21.162C-0.168,21.177 -0.168,21.192 -0.168,21.207C-0.168,21.222 -0.168,21.237 -0.168,21.252C-0.168,21.267 -0.168,21.281 -0.168,21.296C-0.168,21.311 -0.168,21.326 -0.168,21.341C-0.168,21.356 -0.168,21.371 -0.168,21.386C-0.168,21.401 -0.168,21.416 -0.168,21.431C-0.168,21.446 -0.168,21.461 -0.168,21.476C-0.168,21.491 -0.168,21.506 -0.168,21.521C-0.168,21.536 -0.168,21.551 -0.168,21.566C-0.168,21.581 -0.168,21.596 -0.168,21.611C-0.168,21.626 -0.168,21.641 -0.168,21.656C-0.168,21.671 -0.168,21.686 -0.168,21.701C-0.168,21.716 -0.168,21.731 -0.168,21.746C-0.168,21.761 -0.168,21.776 -0.168,21.791C-0.168,21.806 -0.168,21.821 -0.168,21.836C-0.168,21.851 -0.168,21.866 -0.168,21.88C-0.168,21.895 -0.168,21.91 -0.168,21.925C-0.168,21.94 -0.168,21.955 -0.168,21.97C-0.168,21.985 -0.168,22 -0.168,22.015C-0.168,22.03 -0.168,22.045 -0.168,22.06C-0.168,22.075 -0.168,22.09 -0.168,22.105C-0.168,22.12 -0.168,22.135 -0.168,22.15C-0.168,22.165 -0.168,22.18 -0.168,22.195C-0.168,22.21 -0.168,22.225 -0.168,22.24C-0.168,22.255 -0.168,22.27 -0.168,22.285C-0.168,22.3 -0.168,22.315 -0.168,22.33C-0.168,22.345 -0.168,22.36 -0.168,22.375C-0.168,22.39 -0.168,22.405 -0.168,22.42C-0.168,22.435 -0.168,22.45 -0.168,22.465C-0.168,22.48 -0.168,22.495 -0.168,22.51C-0.168,22.524 -0.168,22.539 -0.168,22.554C-0.168,22.569 -0.168,22.584 -0.168,22.599C-0.168,22.614 -0.168,22.629 -0.168,22.644C-0.168,22.659 -0.168,22.674 -0.168,22.689C-0.168,22.704 -0.168,22.719 -0.168,22.734C-0.168,22.749 -0.168,22.764 -0.168,22.779C-0.168,22.794 -0.168,22.809 -0.168,22.824C-0.168,22.839 -0.168,22.854 -0.168,22.869C-0.168,22.884 -0.168,22.899 -0.168,22.914C-0.168,22.929 -0.168,22.944 -0.168,22.959C-0.168,22.974 -0.168,22.989 -0.168,23.004C-0.168,23.019 -0.168,23.034 -0.168,23.049C-0.168,23.064 -0.168,23.079 -0.168,23.094C-0.168,23.109 -0.168,23.123 -0.168,23.138C-0.168,23.153 -0.168,23.168 -0.168,23.183C-0.168,23.198 -0.168,23.213 -0.168,23.228C-0.168,23.243 -0.168,23.258 -0.168,23.273C-0.168,23.288 -0.168,23.303 -0.168,23.318C-0.168,23.333 -0.168,23.348 -0.168,23.363C-0.168,23.378 -0.168,23.393 -0.168,23.408C-0.168,23.423 -0.168,23.438 -0.168,23.453C-0.168,23.468 -0.168,23.483 -0.168,23.498C-0.168,23.513 -0.168,23.528 -0.168,23.543C-0.168,23.558 -0.168,23.573 -0.168,23.588C-0.168,23.603 -0.168,23.618 -0.168,23.633C-0.168,23.648 -0.168,23.663 -0.168,23.678C-0.168,23.693 -0.168,23.708 -0.168,23.723C-0.168,23.737 -0.168,23.752 -0.168,23.767C-0.168,23.782 -0.168,23.797 -0.168,23.812C-0.168,23.827 -0.168,23.842 -0.168,23.857C-0.168,23.872 -0.168,23.887 -0.168,23.902C-0.168,23.917 -0.168,23.932 -0.168,23.947C-0.168,23.962 -0.168,23.977 -0.168,23.992C-0.168,24.007 -0.168,24.022 -0.168,24.037C-0.168,24.052 -0.168,24.067 -0.168,24.082C-0.168,24.097 -0.168,24.112 -0.168,24.127C-0.168,24.142 -0.168,24.157 -0.168,24.172C-0.168,24.187 -0.168,24.202 -0.168,24.217C-0.168,24.232 -0.168,24.247 -0.168,24.262C-0.168,24.277 -0.168,24.292 -0.168,24.307C-0.168,24.322 -0.168,24.336 -0.168,24.351C-0.168,24.366 -0.168,24.381 -0.168,24.396C-0.168,24.411 -0.168,24.426 -0.168,24.441C-0.168,24.456 -0.168,24.471 -0.168,24.486C-0.168,24.501 -0.168,24.516 -0.168,24.531C-0.168,24.546 -0.168,24.561 -0.168,24.576C-0.168,24.591 -0.168,24.606 -0.168,24.621C-0.168,24.636 -0.168,24.651 -0.168,24.666C-0.168,24.681 -0.168,24.696 -0.168,24.711C-0.168,24.726 -0.168,24.741 -0.168,24.756C-0.168,24.771 -0.168,24.786 -0.168,24.801C-0.168,24.816 -0.168,24.831 -0.168,24.846C-0.168,24.861 -0.168,24.876 -0.168,24.891C-0.168,24.906 -0.168,24.921 -0.168,24.935C-0.168,24.95 -0.168,24.965 -0.168,24.98C-0.168,24.995 -0.168,25.01 -0.168,25.025C-0.168,25.04 -0.168,25.055 -0.168,25.07C-0.168,25.085 -0.168,25.1 -0.168,25.115C-0.168,25.13 -0.168,25.145 -0.168,25.16C-0.168,25.175 -0.168,25.19 -0.168,25.205C-0.168,25.22 -0.168,25.235 -0.168,25.25C-0.168,25.265 -0.168,25.28 -0.168,25.295C-0.168,25.31 -0.168,25.325 -0.168,25.34C-0.168,25.355 -0.168,25.37 -0.168,25.385C-0.168,25.4 -0.168,25.415 -0.168,25.43C-0.168,25.445 -0.168,25.46 -0.168,25.475C-0.168,25.49 -0.168,25.505 -0.168,25.52C-0.168,25.535 -0.168,25.549 -0.168,25.564C-0.168,25.579 -0.168,25.594 -0.168,25.609C-0.168,25.624 -0.168,25.639 -0.168,25.654C-0.168,25.669 -0.168,25.684 -0.168,25.699C-0.168,25.714 -0.168,25.729 -0.168,25.744C-0.168,25.759 -0.168,25.774 -0.168,25.789C-0.168,25.804 -0.168,25.819 -0.168,25.834C-0.168,25.849 -0.168,25.864 -0.168,25.879C-0.168,25.894 -0.168,25.909 -0.168,25.924C-0.168,25.939 -0.168,25.954 -0.168,25.969C-0.168,25.984 -0.168,25.999 -0.168,26.014C-0.168,26.029 -0.168,26.044 -0.168,26.059C-0.168,26.074 -0.168,26.089 -0.168,26.104C-0.168,26.119 -0.168,26.134 -0.168,26.148C-0.168,26.163 -0.168,26.178 -0.168,26.193C-0.168,26.208 -0.168,26.223 -0.168,26.238C-0.168,26.253 -0.168,26.268 -0.168,26.283C-0.168,26.298 -0.168,26.313 -0.168,26.328C-0.168,26.343 -0.168,26.358 -0.168,26.373C-0.168,26.388 -0.168,26.403 -0.168,26.418C-0.168,26.433 -0.168,26.448 -0.168,26.463C-0.168,26.478 -0.168,26.493 -0.168,26.508C-0.168,26.523 -0.168,26.538 -0.168,26.553C-0.168,26.568 -0.168,26.583 -0.168,26.598C-0.168,26.613 -0.168,26.628 -0.168,26.643C-0.168,26.658 -0.168,26.673 -0.168,26.688C-0.168,26.703 -0.168,26.718 -0.168,26.733C-0.168,26.748 -0.168,26.762 -0.168,26.777C-0.168,26.792 -0.168,26.807 -0.168,26.822C-0.168,26.837 -0.168,26.852 -0.168,26.867C-0.168,26.882 -0.168,26.897 -0.168,26.912C-0.168,26.927 -0.168,26.942 -0.168,26.957C-0.168,26.972 -0.168,26.987 -0.168,27.002C-0.168,27.017 -0.168,27.032 -0.168,27.047C-0.168,27.062 -0.168,27.077 -0.168,27.092C-0.168,27.107 -0.168,27.122 -0.168,27.137C-0.168,27.152 -0.168,27.167 -0.168,27.182C-0.168,27.197 -0.168,27.212 -0.168,27.227C-0.168,27.242 -0.168,27.257 -0.168,27.272C-0.168,27.287 -0.168,27.302 -0.168,27.317C-0.168,27.332 -0.168,27.347 -0.168,27.361C-0.168,27.376 -0.168,27.391 -0.168,27.406C-0.168,27.421 -0.168,27.436 -0.168,27.451C-0.168,27.466 -0.168,27.481 -0.168,27.496C-0.168,27.511 -0.168,27.526 -0.168,27.541C-0.168,27.556 -0.168,27.571 -0.168,27.586C-0.168,27.601 -0.168,27.616 -0.168,27.631C-0.168,27.646 -0.168,27.661 -0.168,27.676C-0.168,27.691 -0.168,27.706 -0.168,27.721C-0.168,27.736 -0.168,27.751 -0.168,27.766C-0.168,27.781 -0.168,27.796 -0.168,27.811C-0.168,27.826 -0.168,27.841 -0.168,27.856C-0.168,27.871 -0.168,27.886 -0.168,27.901C-0.168,27.916 -0.168,27.931 -0.168,27.946C-0.168,27.961 -0.168,27.975 -0.168,27.99C-0.168,28.005 -0.168,28.02 -0.168,28.035C-0.168,28.05 -0.168,28.065 -0.168,28.08C-0.168,28.095 -0.168,28.11 -0.168,28.125C-0.168,28.14 -0.168,28.155 -0.168,28.17C-0.168,28.185 -0.168,28.2 -0.168,28.215C-0.168,28.23 -0.168,28.245 -0.168,28.26C-0.168,28.275 -0.168,28.29 -0.168,28.305C-0.168,28.32 -0.168,28.335 -0.168,28.35C-0.168,28.365 -0.168,28.38 -0.168,28.395C-0.168,28.41 -0.168,28.425 -0.168,28.44C-0.168,28.455 -0.168,28.47 -0.168,28.485C-0.168,28.5 -0.168,28.515 -0.168,28.53C-0.168,28.545 -0.168,28.56 -0.168,28.574C-0.168,28.589 -0.168,28.604 -0.168,28.619C-0.168,28.634 -0.168,28.649 -0.168,28.664C-0.168,28.679 -0.168,28.694 -0.168,28.709C-0.168,28.724 -0.168,28.739 -0.168,28.754C-0.168,28.769 -0.168,28.784 -0.168,28.799C-0.168,28.814 -0.168,28.829 -0.168,28.844C-0.168,28.859 -0.168,28.874 -0.168,28.889C-0.168,28.904 -0.168,28.919 -0.168,28.934C-0.168,28.949 -0.168,28.964 -0.168,28.979C-0.168,28.994 -0.168,29.009 -0.168,29.024C-0.168,29.039 -0.168,29.054 -0.168,29.069C-0.168,29.084 -0.168,29.099 -0.168,29.114C-0.168,29.129 -0.168,29.144 -0.168,29.159C-0.168,29.174 -0.168,29.188 -0.168,29.203C-0.168,29.218 -0.168,29.233 -0.168,29.248C-0.168,29.263 -0.168,29.278 -0.168,29.293C-0.168,29.308 -0.168,29.323 -0.168,29.338C-0.168,29.353 -0.168,29.368 -0.168,29.383C-0.168,29.398 -0.168,29.413 -0.168,29.428C-0.168,29.443 -0.168,29.458 -0.168,29.473C-0.168,29.488 -0.168,29.503 -0.168,29.518C-0.168,29.533 -0.168,29.548 -0.168,29.563C-0.168,29.578 -0.168,29.593 -0.168,29.608C-0.168,29.623 -0.168,29.638 -0.168,29.653C-0.168,29.668 -0.168,29.683 -0.168,29.698C-0.168,29.713 -0.168,29.728 -0.168,29.743C-0.168,29.758 -0.168,29.773 -0.168,29.787C-0.168,29.802 -0.168,29.817 -0.168,29.832C-0.168,29.847 -0.168,29.862 -0.168,29.877C-0.168,29.892 -0.168,29.907 -0.168,29.922C-0.168,29.937 -0.168,29.952 -0.168,29.967C-0.168,29.982 -0.168,29.997 -0.168,30.012C-0.168,30.027 -0.168,30.042 -0.168,30.057C-0.168,30.072 -0.168,30.087 -0.168,30.102C-0.168,30.117 -0.168,30.132 -0.168,30.147C-0.168,30.162 -0.168,30.177 -0.168,30.192C-0.168,30.207 -0.168,30.222 -0.168,30.237C-0.168,30.252 -0.168,30.267 -0.168,30.282C-0.168,30.297 -0.168,30.312 -0.168,30.327C-0.168,30.342 -0.168,30.357 -0.168,30.372C-0.168,30.386 -0.168,30.401 -0.168,30.416C-0.168,30.431 -0.168,30.446 -0.168,30.461C-0.168,30.476 -0.168,30.491 -0.168,30.506C-0.168,30.521 -0.168,30.536 -0.168,30.551C-0.168,30.566 -0.168,30.581 -0.168,30.596C-0.168,30.611 -0.168,30.626 -0.168,30.641C-0.168,30.656 -0.168,30.671 -0.168,30.686C-0.168,30.701 -0.168,30.716 -0.168,30.731C-0.168,30.746 -0.168,30.761 -0.168,30.776C-0.168,30.791 -0.168,30.806 -0.168,30.821C-0.168,30.836 -0.168,30.851 -0.168,30.866C-0.168,30.881 -0.168,30.896 -0.168,30.911C-0.168,30.926 -0.168,30.941 -0.168,30.956C-0.168,30.971 -0.168,30.986 -0.168,31C-0.168,31.015 -0.168,31.03 -0.168,31.045C-0.168,31.06 -0.168,31.075 -0.168,31.09C-0.168,31.105 -0.168,31.12 -0.168,31.135C-0.168,31.15 -0.168,31.165 -0.168,31.18C-0.168,31.195 -0.168,31.21 -0.168,31.225C-0.168,31.24 -0.168,31.255 -0.168,31.27C-0.168,31.285 -0.168,31.3 -0.168,31.315C-0.168,31.33 -0.168,31.345 -0.168,31.36C-0.168,31.375 -0.168,31.39 -0.168,31.405C-0.168,31.42 -0.168,31.435 -0.168,31.45C-0.168,31.465 -0.168,31.48 -0.168,31.495C-0.168,31.51 -0.168,31.525 -0.168,31.54C-0.168,31.555 -0.168,31.57 -0.168,31.585C-0.168,31.599 -0.168,31.614 -0.168,31.629C-0.168,31.644 -0.168,31.659 -0.168,31.674C-0.168,31.689 -0.168,31.704 -0.168,31.719C-0.168,31.734 -0.168,31.749 -0.168,31.764C-0.168,31.779 -0.168,31.794 -0.168,31.809C-0.168,31.824 -0.168,31.839 -0.168,31.854C-0.168,31.869 -0.168,31.884 -0.168,31.899C-0.168,31.914 -0.168,31.929 -0.168,31.944C-0.168,31.959 -0.168,31.974 -0.168,31.989C-0.168,32.004 -0.168,32.019 -0.168,32.034C-0.168,32.049 -0.168,32.064 -0.168,32.079C-0.168,32.094 -0.168,32.109 -0.168,32.124C-0.168,32.139 -0.168,32.154 -0.168,32.169C-0.168,32.184 -0.168,32.199 -0.168,32.213C-0.168,32.228 -0.168,32.243 -0.168,32.258C-0.168,32.273 -0.168,32.288 -0.168,32.303C-0.168,32.318 -0.168,32.333 -0.168,32.348C-0.168,32.363 -0.168,32.378 -0.168,32.393C-0.168,32.408 -0.168,32.423 -0.168,32.438C-0.168,32.453 -0.168,32.468 -0.168,32.483C-0.168,32.498 -0.168,32.513 -0.168,32.528C-0.168,32.543 -0.168,32.558 -0.168,32.573C-0.168,32.588 -0.168,32.603 -0.168,32.618C-0.168,32.633 -0.168,32.648 -0.168,32.663C-0.168,32.678 -0.168,32.693 -0.168,32.708C-0.168,32.723 -0.168,32.738 -0.168,32.753C-0.168,32.768 -0.168,32.783 -0.168,32.798C-0.168,32.812 -0.168,32.827 -0.168,32.842C-0.168,32.857 -0.168,32.872 -0.168,32.887C-0.168,32.902 -0.168,32.917 -0.168,32.932C-0.168,32.947 -0.168,32.962 -0.168,32.977C-0.168,32.992 -0.168,33.007 -0.168,33.022C-0.168,33.037 -0.168,33.052 -0.168,33.067C-0.168,33.082 -0.168,33.097 -0.168,33.112C-0.168,33.127 -0.168,33.142 -0.168,33.157C-0.168,33.172 -0.168,33.187 -0.168,33.202C-0.168,33.217 -0.168,33.232 -0.168,33.247C-0.168,33.262 -0.168,33.277 -0.168,33.292C-0.168,33.307 -0.168,33.322 -0.168,33.337C-0.168,33.352 -0.168,33.367 -0.168,33.382C-0.168,33.397 -0.168,33.412 -0.168,33.426C-0.168,33.441 -0.168,33.456 -0.168,33.471C-0.168,33.486 -0.168,33.501 -0.168,33.516C-0.168,33.531 -0.168,33.546 -0.168,33.561C-0.168,33.576 -0.168,33.591 -0.168,33.606C-0.168,33.621 -0.168,33.636 -0.168,33.651C-0.168,33.666 -0.168,33.681 -0.168,33.696C-0.168,33.711 -0.168,33.726 -0.168,33.741C-0.168,33.756 -0.168,33.771 -0.168,33.786C-0.168,33.801 -0.168,33.816 -0.168,33.831C-0.168,33.846 -0.168,33.861 -0.168,33.876C-0.168,33.891 -0.168,33.906 -0.168,33.921C-0.168,33.936 -0.168,33.951 -0.168,33.966C-0.168,33.981 -0.168,33.996 -0.168,34.011C-0.168,34.025 -0.168,34.04 -0.168,34.055C-0.168,34.07 -0.168,34.085 -0.168,34.1C-0.168,34.115 -0.168,34.13 -0.168,34.145C-0.168,34.16 -0.168,34.175 -0.168,34.19C-0.168,34.205 -0.168,34.22 -0.168,34.235C-0.168,34.25 -0.168,34.265 -0.168,34.28C-0.168,34.295 -0.168,34.31 -0.168,34.325C-0.168,34.34 -0.168,34.355 -0.168,34.37C-0.168,34.385 -0.168,34.4 -0.168,34.415C-0.168,34.43 -0.168,34.445 -0.168,34.46C-0.168,34.475 -0.168,34.49 -0.168,34.505C-0.168,34.52 -0.168,34.535 -0.168,34.55C-0.168,34.565 -0.168,34.58 -0.168,34.595C-0.168,34.61 -0.168,34.625 -0.168,34.639C-0.168,34.654 -0.168,34.669 -0.168,34.684C-0.168,34.699 -0.168,34.714 -0.168,34.729C-0.168,34.744 -0.168,34.759 -0.168,34.774C-0.168,34.789 -0.168,34.804 -0.168,34.819C-0.168,34.834 -0.168,34.849 -0.168,34.864C-0.168,34.879 -0.168,34.894 -0.168,34.909C-0.168,34.924 -0.168,34.939 -0.168,34.954C-0.168,34.969 -0.168,34.984 -0.168,34.999C-0.168,35.014 -0.168,35.029 -0.168,35.044C-0.168,35.059 -0.168,35.074 -0.168,35.089C-0.168,35.104 -0.168,35.119 -0.168,35.134C-0.168,35.149 -0.168,35.164 -0.168,35.179C-0.168,35.194 -0.168,35.209 -0.168,35.224C-0.168,35.238 -0.168,35.253 -0.168,35.268C-0.168,35.283 -0.168,35.298 -0.168,35.313C-0.168,35.328 -0.168,35.343 -0.168,35.358C-0.168,35.373 -0.168,35.388 -0.168,35.403C-0.168,35.418 -0.168,35.433 -0.168,35.448C-0.168,35.463 -0.168,35.478 -0.168,35.493C-0.168,35.508 -0.168,35.523 -0.168,35.538C-0.168,35.553 -0.168,35.568 -0.168,35.583C-0.168,35.598 -0.168,35.613 -0.168,35.628C-0.168,35.643 -0.168,35.658 -0.168,35.673C-0.168,35.688 -0.168,35.703 -0.168,35.718C-0.168,35.733 -0.168,35.748 -0.168,35.763C-0.168,35.778 -0.168,35.793 -0.168,35.808C-0.168,35.823 -0.168,35.838 -0.168,35.852C-0.168,35.867 -0.168,35.882 -0.168,35.897C-0.168,35.912 -0.168,35.927 -0.168,35.942C-0.168,35.957 -0.168,35.972 -0.168,35.987C-0.168,36.002 -0.168,36.017 -0.168,36.032C-0.168,36.047 -0.168,36.062 -0.168,36.077C-0.168,36.092 -0.168,36.107 -0.168,36.122C-0.168,36.137 -0.168,36.152 -0.168,36.167C-0.168,36.182 -0.168,36.197 -0.168,36.212C-0.168,36.227 -0.168,36.242 -0.168,36.257C-0.168,36.272 -0.168,36.287 -0.168,36.302C-0.168,36.317 -0.168,36.332 -0.168,36.347C-0.168,36.362 -0.168,36.377 -0.168,36.392C-0.168,36.407 -0.168,36.422 -0.168,36.437C-0.168,36.451 -0.168,36.466 -0.168,36.481C-0.168,36.496 -0.168,36.511 -0.168,36.526C-0.168,36.541 -0.168,36.556 -0.168,36.571C-0.168,36.586 -0.168,36.601 -0.168,36.616C-0.168,36.631 -0.168,36.646 -0.168,36.661C-0.168,36.676 -0.168,36.691 -0.168,36.706C-0.168,36.721 -0.168,36.736 -0.168,36.751C-0.168,36.766 -0.168,36.781 -0.168,36.796C-0.168,36.811 -0.168,36.826 -0.168,36.841C-0.168,36.856 -0.168,36.871 -0.168,36.886C-0.168,36.901 -0.168,36.916 -0.168,36.931C-0.168,36.946 -0.168,36.961 -0.168,36.976C-0.168,36.991 -0.168,37.006 -0.168,37.021C-0.168,37.036 -0.168,37.051 -0.168,37.065C-0.168,37.08 -0.168,37.095 -0.168,37.11C-0.168,37.125 -0.168,37.14 -0.168,37.155C-0.168,37.17 -0.168,37.185 -0.168,37.2C-0.168,37.215 -0.168,37.23 -0.168,37.245C-0.168,37.26 -0.168,37.275 -0.168,37.29C-0.168,37.305 -0.168,37.32 -0.168,37.335C-0.168,37.35 -0.168,37.365 -0.168,37.38C-0.168,37.395 -0.168,37.41 -0.168,37.425C-0.168,37.44 -0.168,37.455 -0.168,37.47C-0.168,37.485 -0.168,37.5 -0.168,37.515C-0.168,37.53 -0.168,37.545 -0.168,37.56C-0.168,37.575 -0.168,37.59 -0.168,37.605C-0.168,37.62 -0.168,37.635 -0.168,37.65C-0.168,37.664 -0.168,37.679 -0.168,37.694C-0.168,37.709 -0.168,37.724 -0.168,37.739C-0.168,37.754 -0.168,37.769 -0.168,37.784C-0.168,37.799 -0.168,37.814 -0.168,37.829C-0.168,37.844 -0.168,37.859 -0.168,37.874C-0.168,37.889 -0.168,37.904 -0.168,37.919C-0.168,37.934 -0.168,37.949 -0.168,37.964C-0.168,37.979 -0.168,37.994 -0.168,38.009C-0.168,38.024 -0.168,38.039 -0.168,38.054C-0.168,38.069 -0.168,38.084 -0.168,38.099C-0.168,38.114 -0.168,38.129 -0.168,38.144C-0.168,38.159 -0.168,38.174 -0.168,38.189C-0.168,38.204 -0.168,38.219 -0.168,38.234C-0.168,38.249 -0.168,38.264 -0.168,38.278C-0.168,38.293 -0.168,38.308 -0.168,38.323C-0.168,38.338 -0.168,38.353 -0.168,38.368C-0.168,38.383 -0.168,38.398 -0.168,38.413C-0.168,38.428 -0.168,38.443 -0.168,38.458C-0.168,38.473 -0.168,38.488 -0.168,38.503C-0.168,38.518 -0.168,38.533 -0.168,38.548C-0.168,38.563 -0.168,38.578 -0.168,38.593C-0.168,38.608 -0.168,38.623 -0.168,38.638C-0.168,38.653 -0.168,38.668 -0.168,38.683C-0.168,38.698 -0.168,38.713 -0.168,38.728C-0.168,38.743 -0.168,38.758 -0.168,38.773C-0.168,38.788 -0.168,38.803 -0.168,38.818C-0.168,38.833 -0.168,38.848 -0.168,38.863C-0.168,38.877 -0.168,38.892 -0.168,38.907C-0.168,38.922 -0.168,38.937 -0.168,38.952C-0.168,38.967 -0.168,38.982 -0.168,38.997C-0.168,39.012 -0.168,39.027 -0.168,39.042C-0.168,39.057 -0.168,39.072 -0.168,39.087L5.832,39.087C5.832,39.072 5.832,39.057 5.832,39.042C5.832,39.027 5.832,39.012 5.832,38.997C5.832,38.982 5.832,38.967 5.832,38.952C5.832,38.937 5.832,38.922 5.832,38.907C5.832,38.892 5.832,38.877 5.832,38.863C5.832,38.848 5.832,38.833 5.832,38.818C5.832,38.803 5.832,38.788 5.832,38.773C5.832,38.758 5.832,38.743 5.832,38.728C5.832,38.713 5.832,38.698 5.832,38.683C5.832,38.668 5.832,38.653 5.832,38.638C5.832,38.623 5.832,38.608 5.832,38.593C5.832,38.578 5.832,38.563 5.832,38.548C5.832,38.533 5.832,38.518 5.832,38.503C5.832,38.488 5.832,38.473 5.832,38.458C5.832,38.443 5.832,38.428 5.832,38.413C5.832,38.398 5.832,38.383 5.832,38.368C5.832,38.353 5.832,38.338 5.832,38.323C5.832,38.308 5.832,38.293 5.832,38.278C5.832,38.264 5.832,38.249 5.832,38.234C5.832,38.219 5.832,38.204 5.832,38.189C5.832,38.174 5.832,38.159 5.832,38.144C5.832,38.129 5.832,38.114 5.832,38.099C5.832,38.084 5.832,38.069 5.832,38.054C5.832,38.039 5.832,38.024 5.832,38.009C5.832,37.994 5.832,37.979 5.832,37.964C5.832,37.949 5.832,37.934 5.832,37.919C5.832,37.904 5.832,37.889 5.832,37.874C5.832,37.859 5.832,37.844 5.832,37.829C5.832,37.814 5.832,37.799 5.832,37.784C5.832,37.769 5.832,37.754 5.832,37.739C5.832,37.724 5.832,37.709 5.832,37.694C5.832,37.679 5.832,37.664 5.832,37.65C5.832,37.635 5.832,37.62 5.832,37.605C5.832,37.59 5.832,37.575 5.832,37.56C5.832,37.545 5.832,37.53 5.832,37.515C5.832,37.5 5.832,37.485 5.832,37.47C5.832,37.455 5.832,37.44 5.832,37.425C5.832,37.41 5.832,37.395 5.832,37.38C5.832,37.365 5.832,37.35 5.832,37.335C5.832,37.32 5.832,37.305 5.832,37.29C5.832,37.275 5.832,37.26 5.832,37.245C5.832,37.23 5.832,37.215 5.832,37.2C5.832,37.185 5.832,37.17 5.832,37.155C5.832,37.14 5.832,37.125 5.832,37.11C5.832,37.095 5.832,37.08 5.832,37.065C5.832,37.051 5.832,37.036 5.832,37.021C5.832,37.006 5.832,36.991 5.832,36.976C5.832,36.961 5.832,36.946 5.832,36.931C5.832,36.916 5.832,36.901 5.832,36.886C5.832,36.871 5.832,36.856 5.832,36.841C5.832,36.826 5.832,36.811 5.832,36.796C5.832,36.781 5.832,36.766 5.832,36.751C5.832,36.736 5.832,36.721 5.832,36.706C5.832,36.691 5.832,36.676 5.832,36.661C5.832,36.646 5.832,36.631 5.832,36.616C5.832,36.601 5.832,36.586 5.832,36.571C5.832,36.556 5.832,36.541 5.832,36.526C5.832,36.511 5.832,36.496 5.832,36.481C5.832,36.466 5.832,36.451 5.832,36.437C5.832,36.422 5.832,36.407 5.832,36.392C5.832,36.377 5.832,36.362 5.832,36.347C5.832,36.332 5.832,36.317 5.832,36.302C5.832,36.287 5.832,36.272 5.832,36.257C5.832,36.242 5.832,36.227 5.832,36.212C5.832,36.197 5.832,36.182 5.832,36.167C5.832,36.152 5.832,36.137 5.832,36.122C5.832,36.107 5.832,36.092 5.832,36.077C5.832,36.062 5.832,36.047 5.832,36.032C5.832,36.017 5.832,36.002 5.832,35.987C5.832,35.972 5.832,35.957 5.832,35.942C5.832,35.927 5.832,35.912 5.832,35.897C5.832,35.882 5.832,35.867 5.832,35.852C5.832,35.838 5.832,35.823 5.832,35.808C5.832,35.793 5.832,35.778 5.832,35.763C5.832,35.748 5.832,35.733 5.832,35.718C5.832,35.703 5.832,35.688 5.832,35.673C5.832,35.658 5.832,35.643 5.832,35.628C5.832,35.613 5.832,35.598 5.832,35.583C5.832,35.568 5.832,35.553 5.832,35.538C5.832,35.523 5.832,35.508 5.832,35.493C5.832,35.478 5.832,35.463 5.832,35.448C5.832,35.433 5.832,35.418 5.832,35.403C5.832,35.388 5.832,35.373 5.832,35.358C5.832,35.343 5.832,35.328 5.832,35.313C5.832,35.298 5.832,35.283 5.832,35.268C5.832,35.253 5.832,35.238 5.832,35.224C5.832,35.209 5.832,35.194 5.832,35.179C5.832,35.164 5.832,35.149 5.832,35.134C5.832,35.119 5.832,35.104 5.832,35.089C5.832,35.074 5.832,35.059 5.832,35.044C5.832,35.029 5.832,35.014 5.832,34.999C5.832,34.984 5.832,34.969 5.832,34.954C5.832,34.939 5.832,34.924 5.832,34.909C5.832,34.894 5.832,34.879 5.832,34.864C5.832,34.849 5.832,34.834 5.832,34.819C5.832,34.804 5.832,34.789 5.832,34.774C5.832,34.759 5.832,34.744 5.832,34.729C5.832,34.714 5.832,34.699 5.832,34.684C5.832,34.669 5.832,34.654 5.832,34.639C5.832,34.625 5.832,34.61 5.832,34.595C5.832,34.58 5.832,34.565 5.832,34.55C5.832,34.535 5.832,34.52 5.832,34.505C5.832,34.49 5.832,34.475 5.832,34.46C5.832,34.445 5.832,34.43 5.832,34.415C5.832,34.4 5.832,34.385 5.832,34.37C5.832,34.355 5.832,34.34 5.832,34.325C5.832,34.31 5.832,34.295 5.832,34.28C5.832,34.265 5.832,34.25 5.832,34.235C5.832,34.22 5.832,34.205 5.832,34.19C5.832,34.175 5.832,34.16 5.832,34.145C5.832,34.13 5.832,34.115 5.832,34.1C5.832,34.085 5.832,34.07 5.832,34.055C5.832,34.04 5.832,34.025 5.832,34.011C5.832,33.996 5.832,33.981 5.832,33.966C5.832,33.951 5.832,33.936 5.832,33.921C5.832,33.906 5.832,33.891 5.832,33.876C5.832,33.861 5.832,33.846 5.832,33.831C5.832,33.816 5.832,33.801 5.832,33.786C5.832,33.771 5.832,33.756 5.832,33.741C5.832,33.726 5.832,33.711 5.832,33.696C5.832,33.681 5.832,33.666 5.832,33.651C5.832,33.636 5.832,33.621 5.832,33.606C5.832,33.591 5.832,33.576 5.832,33.561C5.832,33.546 5.832,33.531 5.832,33.516C5.832,33.501 5.832,33.486 5.832,33.471C5.832,33.456 5.832,33.441 5.832,33.426C5.832,33.412 5.832,33.397 5.832,33.382C5.832,33.367 5.832,33.352 5.832,33.337C5.832,33.322 5.832,33.307 5.832,33.292C5.832,33.277 5.832,33.262 5.832,33.247C5.832,33.232 5.832,33.217 5.832,33.202C5.832,33.187 5.832,33.172 5.832,33.157C5.832,33.142 5.832,33.127 5.832,33.112C5.832,33.097 5.832,33.082 5.832,33.067C5.832,33.052 5.832,33.037 5.832,33.022C5.832,33.007 5.832,32.992 5.832,32.977C5.832,32.962 5.832,32.947 5.832,32.932C5.832,32.917 5.832,32.902 5.832,32.887C5.832,32.872 5.832,32.857 5.832,32.842C5.832,32.827 5.832,32.812 5.832,32.798C5.832,32.783 5.832,32.768 5.832,32.753C5.832,32.738 5.832,32.723 5.832,32.708C5.832,32.693 5.832,32.678 5.832,32.663C5.832,32.648 5.832,32.633 5.832,32.618C5.832,32.603 5.832,32.588 5.832,32.573C5.832,32.558 5.832,32.543 5.832,32.528C5.832,32.513 5.832,32.498 5.832,32.483C5.832,32.468 5.832,32.453 5.832,32.438C5.832,32.423 5.832,32.408 5.832,32.393C5.832,32.378 5.832,32.363 5.832,32.348C5.832,32.333 5.832,32.318 5.832,32.303C5.832,32.288 5.832,32.273 5.832,32.258C5.832,32.243 5.832,32.228 5.832,32.213C5.832,32.199 5.832,32.184 5.832,32.169C5.832,32.154 5.832,32.139 5.832,32.124C5.832,32.109 5.832,32.094 5.832,32.079C5.832,32.064 5.832,32.049 5.832,32.034C5.832,32.019 5.832,32.004 5.832,31.989C5.832,31.974 5.832,31.959 5.832,31.944C5.832,31.929 5.832,31.914 5.832,31.899C5.832,31.884 5.832,31.869 5.832,31.854C5.832,31.839 5.832,31.824 5.832,31.809C5.832,31.794 5.832,31.779 5.832,31.764C5.832,31.749 5.832,31.734 5.832,31.719C5.832,31.704 5.832,31.689 5.832,31.674C5.832,31.659 5.832,31.644 5.832,31.629C5.832,31.614 5.832,31.599 5.832,31.585C5.832,31.57 5.832,31.555 5.832,31.54C5.832,31.525 5.832,31.51 5.832,31.495C5.832,31.48 5.832,31.465 5.832,31.45C5.832,31.435 5.832,31.42 5.832,31.405C5.832,31.39 5.832,31.375 5.832,31.36C5.832,31.345 5.832,31.33 5.832,31.315C5.832,31.3 5.832,31.285 5.832,31.27C5.832,31.255 5.832,31.24 5.832,31.225C5.832,31.21 5.832,31.195 5.832,31.18C5.832,31.165 5.832,31.15 5.832,31.135C5.832,31.12 5.832,31.105 5.832,31.09C5.832,31.075 5.832,31.06 5.832,31.045C5.832,31.03 5.832,31.015 5.832,31C5.832,30.986 5.832,30.971 5.832,30.956C5.832,30.941 5.832,30.926 5.832,30.911C5.832,30.896 5.832,30.881 5.832,30.866C5.832,30.851 5.832,30.836 5.832,30.821C5.832,30.806 5.832,30.791 5.832,30.776C5.832,30.761 5.832,30.746 5.832,30.731C5.832,30.716 5.832,30.701 5.832,30.686C5.832,30.671 5.832,30.656 5.832,30.641C5.832,30.626 5.832,30.611 5.832,30.596C5.832,30.581 5.832,30.566 5.832,30.551C5.832,30.536 5.832,30.521 5.832,30.506C5.832,30.491 5.832,30.476 5.832,30.461C5.832,30.446 5.832,30.431 5.832,30.416C5.832,30.401 5.832,30.386 5.832,30.372C5.832,30.357 5.832,30.342 5.832,30.327C5.832,30.312 5.832,30.297 5.832,30.282C5.832,30.267 5.832,30.252 5.832,30.237C5.832,30.222 5.832,30.207 5.832,30.192C5.832,30.177 5.832,30.162 5.832,30.147C5.832,30.132 5.832,30.117 5.832,30.102C5.832,30.087 5.832,30.072 5.832,30.057C5.832,30.042 5.832,30.027 5.832,30.012C5.832,29.997 5.832,29.982 5.832,29.967C5.832,29.952 5.832,29.937 5.832,29.922C5.832,29.907 5.832,29.892 5.832,29.877C5.832,29.862 5.832,29.847 5.832,29.832C5.832,29.817 5.832,29.802 5.832,29.787C5.832,29.773 5.832,29.758 5.832,29.743C5.832,29.728 5.832,29.713 5.832,29.698C5.832,29.683 5.832,29.668 5.832,29.653C5.832,29.638 5.832,29.623 5.832,29.608C5.832,29.593 5.832,29.578 5.832,29.563C5.832,29.548 5.832,29.533 5.832,29.518C5.832,29.503 5.832,29.488 5.832,29.473C5.832,29.458 5.832,29.443 5.832,29.428C5.832,29.413 5.832,29.398 5.832,29.383C5.832,29.368 5.832,29.353 5.832,29.338C5.832,29.323 5.832,29.308 5.832,29.293C5.832,29.278 5.832,29.263 5.832,29.248C5.832,29.233 5.832,29.218 5.832,29.203C5.832,29.188 5.832,29.174 5.832,29.159C5.832,29.144 5.832,29.129 5.832,29.114C5.832,29.099 5.832,29.084 5.832,29.069C5.832,29.054 5.832,29.039 5.832,29.024C5.832,29.009 5.832,28.994 5.832,28.979C5.832,28.964 5.832,28.949 5.832,28.934C5.832,28.919 5.832,28.904 5.832,28.889C5.832,28.874 5.832,28.859 5.832,28.844C5.832,28.829 5.832,28.814 5.832,28.799C5.832,28.784 5.832,28.769 5.832,28.754C5.832,28.739 5.832,28.724 5.832,28.709C5.832,28.694 5.832,28.679 5.832,28.664C5.832,28.649 5.832,28.634 5.832,28.619C5.832,28.604 5.832,28.589 5.832,28.574C5.832,28.56 5.832,28.545 5.832,28.53C5.832,28.515 5.832,28.5 5.832,28.485C5.832,28.47 5.832,28.455 5.832,28.44C5.832,28.425 5.832,28.41 5.832,28.395C5.832,28.38 5.832,28.365 5.832,28.35C5.832,28.335 5.832,28.32 5.832,28.305C5.832,28.29 5.832,28.275 5.832,28.26C5.832,28.245 5.832,28.23 5.832,28.215C5.832,28.2 5.832,28.185 5.832,28.17C5.832,28.155 5.832,28.14 5.832,28.125C5.832,28.11 5.832,28.095 5.832,28.08C5.832,28.065 5.832,28.05 5.832,28.035C5.832,28.02 5.832,28.005 5.832,27.99C5.832,27.975 5.832,27.961 5.832,27.946C5.832,27.931 5.832,27.916 5.832,27.901C5.832,27.886 5.832,27.871 5.832,27.856C5.832,27.841 5.832,27.826 5.832,27.811C5.832,27.796 5.832,27.781 5.832,27.766C5.832,27.751 5.832,27.736 5.832,27.721C5.832,27.706 5.832,27.691 5.832,27.676C5.832,27.661 5.832,27.646 5.832,27.631C5.832,27.616 5.832,27.601 5.832,27.586C5.832,27.571 5.832,27.556 5.832,27.541C5.832,27.526 5.832,27.511 5.832,27.496C5.832,27.481 5.832,27.466 5.832,27.451C5.832,27.436 5.832,27.421 5.832,27.406C5.832,27.391 5.832,27.376 5.832,27.361C5.832,27.347 5.832,27.332 5.832,27.317C5.832,27.302 5.832,27.287 5.832,27.272C5.832,27.257 5.832,27.242 5.832,27.227C5.832,27.212 5.832,27.197 5.832,27.182C5.832,27.167 5.832,27.152 5.832,27.137C5.832,27.122 5.832,27.107 5.832,27.092C5.832,27.077 5.832,27.062 5.832,27.047C5.832,27.032 5.832,27.017 5.832,27.002C5.832,26.987 5.832,26.972 5.832,26.957C5.832,26.942 5.832,26.927 5.832,26.912C5.832,26.897 5.832,26.882 5.832,26.867C5.832,26.852 5.832,26.837 5.832,26.822C5.832,26.807 5.832,26.792 5.832,26.777C5.832,26.762 5.832,26.748 5.832,26.733C5.832,26.718 5.832,26.703 5.832,26.688C5.832,26.673 5.832,26.658 5.832,26.643C5.832,26.628 5.832,26.613 5.832,26.598C5.832,26.583 5.832,26.568 5.832,26.553C5.832,26.538 5.832,26.523 5.832,26.508C5.832,26.493 5.832,26.478 5.832,26.463C5.832,26.448 5.832,26.433 5.832,26.418C5.832,26.403 5.832,26.388 5.832,26.373C5.832,26.358 5.832,26.343 5.832,26.328C5.832,26.313 5.832,26.298 5.832,26.283C5.832,26.268 5.832,26.253 5.832,26.238C5.832,26.223 5.832,26.208 5.832,26.193C5.832,26.178 5.832,26.163 5.832,26.148C5.832,26.134 5.832,26.119 5.832,26.104C5.832,26.089 5.832,26.074 5.832,26.059C5.832,26.044 5.832,26.029 5.832,26.014C5.832,25.999 5.832,25.984 5.832,25.969C5.832,25.954 5.832,25.939 5.832,25.924C5.832,25.909 5.832,25.894 5.832,25.879C5.832,25.864 5.832,25.849 5.832,25.834C5.832,25.819 5.832,25.804 5.832,25.789C5.832,25.774 5.832,25.759 5.832,25.744C5.832,25.729 5.832,25.714 5.832,25.699C5.832,25.684 5.832,25.669 5.832,25.654C5.832,25.639 5.832,25.624 5.832,25.609C5.832,25.594 5.832,25.579 5.832,25.564C5.832,25.549 5.832,25.535 5.832,25.52C5.832,25.505 5.832,25.49 5.832,25.475C5.832,25.46 5.832,25.445 5.832,25.43C5.832,25.415 5.832,25.4 5.832,25.385C5.832,25.37 5.832,25.355 5.832,25.34C5.832,25.325 5.832,25.31 5.832,25.295C5.832,25.28 5.832,25.265 5.832,25.25C5.832,25.235 5.832,25.22 5.832,25.205C5.832,25.19 5.832,25.175 5.832,25.16C5.832,25.145 5.832,25.13 5.832,25.115C5.832,25.1 5.832,25.085 5.832,25.07C5.832,25.055 5.832,25.04 5.832,25.025C5.832,25.01 5.832,24.995 5.832,24.98C5.832,24.965 5.832,24.95 5.832,24.935C5.832,24.921 5.832,24.906 5.832,24.891C5.832,24.876 5.832,24.861 5.832,24.846C5.832,24.831 5.832,24.816 5.832,24.801C5.832,24.786 5.832,24.771 5.832,24.756C5.832,24.741 5.832,24.726 5.832,24.711C5.832,24.696 5.832,24.681 5.832,24.666C5.832,24.651 5.832,24.636 5.832,24.621C5.832,24.606 5.832,24.591 5.832,24.576C5.832,24.561 5.832,24.546 5.832,24.531C5.832,24.516 5.832,24.501 5.832,24.486C5.832,24.471 5.832,24.456 5.832,24.441C5.832,24.426 5.832,24.411 5.832,24.396C5.832,24.381 5.832,24.366 5.832,24.351C5.832,24.336 5.832,24.322 5.832,24.307C5.832,24.292 5.832,24.277 5.832,24.262C5.832,24.247 5.832,24.232 5.832,24.217C5.832,24.202 5.832,24.187 5.832,24.172C5.832,24.157 5.832,24.142 5.832,24.127C5.832,24.112 5.832,24.097 5.832,24.082C5.832,24.067 5.832,24.052 5.832,24.037C5.832,24.022 5.832,24.007 5.832,23.992C5.832,23.977 5.832,23.962 5.832,23.947C5.832,23.932 5.832,23.917 5.832,23.902C5.832,23.887 5.832,23.872 5.832,23.857C5.832,23.842 5.832,23.827 5.832,23.812C5.832,23.797 5.832,23.782 5.832,23.767C5.832,23.752 5.832,23.737 5.832,23.723C5.832,23.708 5.832,23.693 5.832,23.678C5.832,23.663 5.832,23.648 5.832,23.633C5.832,23.618 5.832,23.603 5.832,23.588C5.832,23.573 5.832,23.558 5.832,23.543C5.832,23.528 5.832,23.513 5.832,23.498C5.832,23.483 5.832,23.468 5.832,23.453C5.832,23.438 5.832,23.423 5.832,23.408C5.832,23.393 5.832,23.378 5.832,23.363C5.832,23.348 5.832,23.333 5.832,23.318C5.832,23.303 5.832,23.288 5.832,23.273C5.832,23.258 5.832,23.243 5.832,23.228C5.832,23.213 5.832,23.198 5.832,23.183C5.832,23.168 5.832,23.153 5.832,23.138C5.832,23.123 5.832,23.109 5.832,23.094C5.832,23.079 5.832,23.064 5.832,23.049C5.832,23.034 5.832,23.019 5.832,23.004C5.832,22.989 5.832,22.974 5.832,22.959C5.832,22.944 5.832,22.929 5.832,22.914C5.832,22.899 5.832,22.884 5.832,22.869C5.832,22.854 5.832,22.839 5.832,22.824C5.832,22.809 5.832,22.794 5.832,22.779C5.832,22.764 5.832,22.749 5.832,22.734C5.832,22.719 5.832,22.704 5.832,22.689C5.832,22.674 5.832,22.659 5.832,22.644C5.832,22.629 5.832,22.614 5.832,22.599C5.832,22.584 5.832,22.569 5.832,22.554C5.832,22.539 5.832,22.524 5.832,22.51C5.832,22.495 5.832,22.48 5.832,22.465C5.832,22.45 5.832,22.435 5.832,22.42C5.832,22.405 5.832,22.39 5.832,22.375C5.832,22.36 5.832,22.345 5.832,22.33C5.832,22.315 5.832,22.3 5.832,22.285C5.832,22.27 5.832,22.255 5.832,22.24C5.832,22.225 5.832,22.21 5.832,22.195C5.832,22.18 5.832,22.165 5.832,22.15C5.832,22.135 5.832,22.12 5.832,22.105C5.832,22.09 5.832,22.075 5.832,22.06C5.832,22.045 5.832,22.03 5.832,22.015C5.832,22 5.832,21.985 5.832,21.97C5.832,21.955 5.832,21.94 5.832,21.925C5.832,21.91 5.832,21.895 5.832,21.88C5.832,21.866 5.832,21.851 5.832,21.836C5.832,21.821 5.832,21.806 5.832,21.791C5.832,21.776 5.832,21.761 5.832,21.746C5.832,21.731 5.832,21.716 5.832,21.701C5.832,21.686 5.832,21.671 5.832,21.656C5.832,21.641 5.832,21.626 5.832,21.611C5.832,21.596 5.832,21.581 5.832,21.566C5.832,21.551 5.832,21.536 5.832,21.521C5.832,21.506 5.832,21.491 5.832,21.476C5.832,21.461 5.832,21.446 5.832,21.431C5.832,21.416 5.832,21.401 5.832,21.386C5.832,21.371 5.832,21.356 5.832,21.341C5.832,21.326 5.832,21.311 5.832,21.296C5.832,21.281 5.832,21.267 5.832,21.252C5.832,21.237 5.832,21.222 5.832,21.207C5.832,21.192 5.832,21.177 5.832,21.162C5.832,21.147 5.832,21.132 5.832,21.117C5.832,21.102 5.832,21.087 5.832,21.072C5.832,21.057 5.832,21.042 5.832,21.027C5.832,21.012 5.832,20.997 5.832,20.982C5.832,20.967 5.832,20.952 5.832,20.937C5.832,20.922 5.832,20.907 5.832,20.892C5.832,20.877 5.832,20.862 5.832,20.847C5.832,20.832 5.832,20.817 5.832,20.802C5.832,20.787 5.832,20.772 5.832,20.757C5.832,20.742 5.832,20.727 5.832,20.712C5.832,20.697 5.832,20.682 5.832,20.667C5.832,20.653 5.832,20.638 5.832,20.623C5.832,20.608 5.832,20.593 5.832,20.578C5.832,20.563 5.832,20.548 5.832,20.533C5.832,20.518 5.832,20.503 5.832,20.488C5.832,20.473 5.832,20.458 5.832,20.443C5.832,20.428 5.832,20.413 5.832,20.398C5.832,20.383 5.832,20.368 5.832,20.353C5.832,20.338 5.832,20.323 5.832,20.308C5.832,20.293 5.832,20.278 5.832,20.263C5.832,20.248 5.832,20.233 5.832,20.218C5.832,20.203 5.832,20.188 5.832,20.173C5.832,20.158 5.832,20.143 5.832,20.128C5.832,20.113 5.832,20.098 5.832,20.083C5.832,20.068 5.832,20.054 5.832,20.039C5.832,20.024 5.832,20.009 5.832,19.994C5.832,19.979 5.832,19.964 5.832,19.949C5.832,19.934 5.832,19.919 5.832,19.904C5.832,19.889 5.832,19.874 5.832,19.859C5.832,19.844 5.832,19.829 5.832,19.814C5.832,19.799 5.832,19.784 5.832,19.769C5.832,19.754 5.832,19.739 5.832,19.724C5.832,19.709 5.832,19.694 5.832,19.679C5.832,19.664 5.832,19.649 5.832,19.634C5.832,19.619 5.832,19.604 5.832,19.589C5.832,19.574 5.832,19.559 5.832,19.544C5.832,19.529 5.832,19.514 5.832,19.499C5.832,19.484 5.832,19.469 5.832,19.454C5.832,19.44 5.832,19.425 5.832,19.41C5.832,19.395 5.832,19.38 5.832,19.365C5.832,19.35 5.832,19.335 5.832,19.32C5.832,19.305 5.832,19.29 5.832,19.275C5.832,19.26 5.832,19.245 5.832,19.23C5.832,19.215 5.832,19.2 5.832,19.185C5.832,19.17 5.832,19.155 5.832,19.14C5.832,19.125 5.832,19.11 5.832,19.095C5.832,19.08 5.832,19.065 5.832,19.05C5.832,19.035 5.832,19.02 5.832,19.005C5.832,18.99 5.832,18.975 5.832,18.96C5.832,18.945 5.832,18.93 5.832,18.915C5.832,18.9 5.832,18.885 5.832,18.87C5.832,18.855 5.832,18.841 5.832,18.826C5.832,18.811 5.832,18.796 5.832,18.781C5.832,18.766 5.832,18.751 5.832,18.736C5.832,18.721 5.832,18.706 5.832,18.691C5.832,18.676 5.832,18.661 5.832,18.646C5.832,18.631 5.832,18.616 5.832,18.601C5.832,18.586 5.832,18.571 5.832,18.556C5.832,18.541 5.832,18.526 5.832,18.511C5.832,18.496 5.832,18.481 5.832,18.466C5.832,18.451 5.832,18.436 5.832,18.421C5.832,18.406 5.832,18.391 5.832,18.376C5.832,18.361 5.832,18.346 5.832,18.331C5.832,18.316 5.832,18.301 5.832,18.286C5.832,18.271 5.832,18.256 5.832,18.241C5.832,18.227 5.832,18.212 5.832,18.197C5.832,18.182 5.832,18.167 5.832,18.152C5.832,18.137 5.832,18.122 5.832,18.107C5.832,18.092 5.832,18.077 5.832,18.062C5.832,18.047 5.832,18.032 5.832,18.017C5.832,18.002 5.832,17.987 5.832,17.972C5.832,17.957 5.832,17.942 5.832,17.927C5.832,17.912 5.832,17.897 5.832,17.882C5.832,17.867 5.832,17.852 5.832,17.837C5.832,17.822 5.832,17.807 5.832,17.792C5.832,17.777 5.832,17.762 5.832,17.747C5.832,17.732 5.832,17.717 5.832,17.702C5.832,17.687 5.832,17.672 5.832,17.657C5.832,17.642 5.832,17.628 5.832,17.613C5.832,17.598 5.832,17.583 5.832,17.568C5.832,17.553 5.832,17.538 5.832,17.523C5.832,17.508 5.832,17.493 5.832,17.478C5.832,17.463 5.832,17.448 5.832,17.433C5.832,17.418 5.832,17.403 5.832,17.388C5.832,17.373 5.832,17.358 5.832,17.343C5.832,17.328 5.832,17.313 5.832,17.298C5.832,17.283 5.832,17.268 5.832,17.253C5.832,17.238 5.832,17.223 5.832,17.208C5.832,17.193 5.832,17.178 5.832,17.163C5.832,17.148 5.832,17.133 5.832,17.118C5.832,17.103 5.832,17.088 5.832,17.073C5.832,17.058 5.832,17.043 5.832,17.028C5.832,17.014 5.832,16.999 5.832,16.984C5.832,16.969 5.832,16.954 5.832,16.939C5.832,16.924 5.832,16.909 5.832,16.894C5.832,16.879 5.832,16.864 5.832,16.849C5.832,16.834 5.832,16.819 5.832,16.804C5.832,16.789 5.832,16.774 5.832,16.759C5.832,16.744 5.832,16.729 5.832,16.714C5.832,16.699 5.832,16.684 5.832,16.669C5.832,16.654 5.832,16.639 5.832,16.624C5.832,16.609 5.832,16.594 5.832,16.579C5.832,16.564 5.832,16.549 5.832,16.534C5.832,16.519 5.832,16.504 5.832,16.489C5.832,16.474 5.832,16.459 5.832,16.444C5.832,16.429 5.832,16.415 5.832,16.4C5.832,16.385 5.832,16.37 5.832,16.355C5.832,16.34 5.832,16.325 5.832,16.31C5.832,16.295 5.832,16.28 5.832,16.265C5.832,16.25 5.832,16.235 5.832,16.22C5.832,16.205 5.832,16.19 5.832,16.175C5.832,16.16 5.832,16.145 5.832,16.13C5.832,16.115 5.832,16.1 5.832,16.085L-0.168,16.085ZM-0.168,39.087C-0.168,39.123 -0.168,39.159 -0.168,39.195C-0.168,39.23 -0.168,39.266 -0.168,39.302C-0.168,39.338 -0.168,39.374 -0.168,39.409C-0.168,39.445 -0.168,39.481 -0.168,39.517C-0.168,39.553 -0.168,39.588 -0.168,39.624C-0.168,39.66 -0.168,39.696 -0.168,39.731C-0.168,39.767 -0.168,39.803 -0.168,39.839C-0.168,39.875 -0.168,39.91 -0.168,39.946C-0.168,39.982 -0.168,40.018 -0.168,40.054C-0.168,40.089 -0.168,40.125 -0.168,40.161C-0.168,40.197 -0.168,40.233 -0.168,40.268C-0.168,40.304 -0.168,40.34 -0.168,40.376C-0.168,40.412 -0.168,40.447 -0.168,40.483C-0.168,40.519 -0.168,40.555 -0.168,40.591C-0.168,40.626 -0.168,40.662 -0.168,40.698C-0.168,40.734 -0.168,40.77 -0.168,40.805C-0.168,40.841 -0.168,40.877 -0.168,40.913C-0.168,40.949 -0.168,40.984 -0.168,41.02C-0.168,41.056 -0.168,41.092 -0.168,41.128C-0.168,41.163 -0.168,41.199 -0.168,41.235C-0.168,41.271 -0.168,41.307 -0.168,41.342C-0.168,41.378 -0.168,41.414 -0.168,41.45C-0.168,41.486 -0.168,41.521 -0.168,41.557C-0.168,41.593 -0.168,41.629 -0.168,41.665C-0.168,41.7 -0.168,41.736 -0.168,41.772C-0.168,41.808 -0.168,41.844 -0.168,41.879C-0.168,41.915 -0.168,41.951 -0.168,41.987C-0.168,42.022 -0.168,42.058 -0.168,42.094C-0.168,42.13 -0.168,42.166 -0.168,42.201C-0.168,42.237 -0.168,42.273 -0.168,42.309C-0.168,42.345 -0.168,42.38 -0.168,42.416C-0.168,42.452 -0.168,42.488 -0.168,42.524C-0.168,42.559 -0.168,42.595 -0.168,42.631C-0.168,42.667 -0.168,42.703 -0.168,42.738C-0.168,42.774 -0.168,42.81 -0.168,42.846C-0.168,42.882 -0.168,42.917 -0.168,42.953C-0.168,42.989 -0.168,43.025 -0.168,43.061C-0.168,43.096 -0.168,43.132 -0.168,43.168C-0.168,43.204 -0.168,43.24 -0.168,43.275C-0.168,43.311 -0.168,43.347 -0.168,43.383C-0.168,43.419 -0.168,43.454 -0.168,43.49C-0.168,43.526 -0.168,43.562 -0.168,43.598C-0.168,43.633 -0.168,43.669 -0.168,43.705C-0.168,43.741 -0.168,43.777 -0.168,43.812C-0.168,43.848 -0.168,43.884 -0.168,43.92C-0.168,43.956 -0.168,43.991 -0.168,44.027C-0.168,44.063 -0.168,44.099 -0.168,44.135C-0.168,44.17 -0.168,44.206 -0.168,44.242C-0.168,44.278 -0.168,44.314 -0.168,44.349C-0.168,44.385 -0.168,44.421 -0.168,44.457C-0.168,44.493 -0.168,44.528 -0.168,44.564C-0.168,44.6 -0.168,44.636 -0.168,44.671C-0.168,44.707 -0.168,44.743 -0.168,44.779C-0.168,44.815 -0.168,44.85 -0.168,44.886C-0.168,44.922 -0.168,44.958 -0.168,44.994C-0.168,45.029 -0.168,45.065 -0.168,45.101C-0.168,45.137 -0.168,45.173 -0.168,45.208C-0.168,45.244 -0.168,45.28 -0.168,45.316C-0.168,45.352 -0.168,45.387 -0.168,45.423C-0.168,45.459 -0.168,45.495 -0.168,45.531C-0.168,45.566 -0.168,45.602 -0.168,45.638C-0.168,45.674 -0.168,45.71 -0.168,45.745C-0.168,45.781 -0.168,45.817 -0.168,45.853C-0.168,45.889 -0.168,45.924 -0.168,45.96C-0.168,45.996 -0.168,46.032 -0.168,46.068C-0.168,46.103 -0.168,46.139 -0.168,46.175C-0.168,46.211 -0.168,46.247 -0.168,46.282C-0.168,46.318 -0.168,46.354 -0.168,46.39C-0.168,46.426 -0.168,46.461 -0.168,46.497C-0.168,46.533 -0.168,46.569 -0.168,46.605C-0.168,46.64 -0.168,46.676 -0.168,46.712C-0.168,46.748 -0.168,46.784 -0.168,46.819C-0.168,46.855 -0.168,46.891 -0.168,46.927C-0.168,46.962 -0.168,46.998 -0.168,47.034C-0.168,47.07 -0.168,47.106 -0.168,47.141C-0.168,47.177 -0.168,47.213 -0.168,47.249C-0.168,47.285 -0.168,47.32 -0.168,47.356C-0.168,47.392 -0.168,47.428 -0.168,47.464C-0.168,47.499 -0.168,47.535 -0.168,47.571C-0.168,47.607 -0.168,47.643 -0.168,47.678C-0.168,47.714 -0.168,47.75 -0.168,47.786C-0.168,47.822 -0.168,47.857 -0.168,47.893C-0.168,47.929 -0.168,47.965 -0.168,48.001C-0.168,48.036 -0.168,48.072 -0.168,48.108C-0.168,48.144 -0.168,48.18 -0.168,48.215C-0.168,48.251 -0.168,48.287 -0.168,48.323C-0.168,48.359 -0.168,48.394 -0.168,48.43C-0.168,48.466 -0.168,48.502 -0.168,48.538C-0.168,48.573 -0.168,48.609 -0.168,48.645C-0.168,48.681 -0.168,48.717 -0.168,48.752C-0.168,48.788 -0.168,48.824 -0.168,48.86C-0.168,48.896 -0.168,48.931 -0.168,48.967C-0.168,49.003 -0.168,49.039 -0.168,49.075C-0.168,49.11 -0.168,49.146 -0.168,49.182C-0.168,49.218 -0.168,49.254 -0.168,49.289C-0.168,49.325 -0.168,49.361 -0.168,49.397C-0.168,49.432 -0.168,49.468 -0.168,49.504C-0.168,49.54 -0.168,49.576 -0.168,49.611C-0.168,49.647 -0.168,49.683 -0.168,49.719C-0.168,49.755 -0.168,49.79 -0.168,49.826C-0.168,49.862 -0.168,49.898 -0.168,49.934C-0.168,49.969 -0.168,50.005 -0.168,50.041C-0.168,50.077 -0.168,50.113 -0.168,50.148C-0.168,50.184 -0.168,50.22 -0.168,50.256C-0.168,50.292 -0.168,50.327 -0.168,50.363C-0.168,50.399 -0.168,50.435 -0.168,50.471C-0.168,50.506 -0.168,50.542 -0.168,50.578C-0.168,50.614 -0.168,50.65 -0.168,50.685C-0.168,50.721 -0.168,50.757 -0.168,50.793C-0.168,50.829 -0.168,50.864 -0.168,50.9C-0.168,50.936 -0.168,50.972 -0.168,51.008C-0.168,51.043 -0.168,51.079 -0.168,51.115C-0.168,51.151 -0.168,51.187 -0.168,51.222C-0.168,51.258 -0.168,51.294 -0.168,51.33C-0.168,51.366 -0.168,51.401 -0.168,51.437C-0.168,51.473 -0.168,51.509 -0.168,51.545C-0.168,51.58 -0.168,51.616 -0.168,51.652C-0.168,51.688 -0.168,51.724 -0.168,51.759C-0.168,51.795 -0.168,51.831 -0.168,51.867C-0.168,51.902 -0.168,51.938 -0.168,51.974C-0.168,52.01 -0.168,52.046 -0.168,52.081C-0.168,52.117 -0.168,52.153 -0.168,52.189C-0.168,52.225 -0.168,52.26 -0.168,52.296C-0.168,52.332 -0.168,52.368 -0.168,52.404C-0.168,52.439 -0.168,52.475 -0.168,52.511C-0.168,52.547 -0.168,52.583 -0.168,52.618C-0.168,52.654 -0.168,52.69 -0.168,52.726C-0.168,52.762 -0.168,52.797 -0.168,52.833C-0.168,52.869 -0.168,52.905 -0.168,52.941C-0.168,52.976 -0.168,53.012 -0.168,53.048C-0.168,53.084 -0.168,53.12 -0.168,53.155C-0.168,53.191 -0.168,53.227 -0.168,53.263C-0.168,53.299 -0.168,53.334 -0.168,53.37C-0.168,53.406 -0.168,53.442 -0.168,53.478C-0.168,53.513 -0.168,53.549 -0.168,53.585C-0.168,53.621 -0.168,53.657 -0.168,53.692C-0.168,53.728 -0.168,53.764 -0.168,53.8C-0.168,53.836 -0.168,53.871 -0.168,53.907C-0.168,53.943 -0.168,53.979 -0.168,54.015C-0.168,54.05 -0.168,54.086 -0.168,54.122C-0.168,54.158 -0.168,54.194 -0.168,54.229C-0.168,54.265 -0.168,54.301 -0.168,54.337C-0.168,54.372 -0.168,54.408 -0.168,54.444C-0.168,54.48 -0.168,54.516 -0.168,54.551C-0.168,54.587 -0.168,54.623 -0.168,54.659C-0.168,54.695 -0.168,54.73 -0.168,54.766C-0.168,54.802 -0.168,54.838 -0.168,54.874C-0.168,54.909 -0.168,54.945 -0.168,54.981C-0.168,55.017 -0.168,55.053 -0.168,55.088C-0.168,55.124 -0.168,55.16 -0.168,55.196C-0.168,55.232 -0.168,55.267 -0.168,55.303C-0.168,55.339 -0.168,55.375 -0.168,55.411C-0.168,55.446 -0.168,55.482 -0.168,55.518C-0.168,55.554 -0.168,55.59 -0.168,55.625C-0.168,55.661 -0.168,55.697 -0.168,55.733C-0.168,55.769 -0.168,55.804 -0.168,55.84C-0.168,55.876 -0.168,55.912 -0.168,55.948C-0.168,55.983 -0.168,56.019 -0.168,56.055C-0.168,56.091 -0.168,56.127 -0.168,56.162C-0.168,56.198 -0.168,56.234 -0.168,56.27C-0.168,56.306 -0.168,56.341 -0.168,56.377C-0.168,56.413 -0.168,56.449 -0.168,56.485C-0.168,56.52 -0.168,56.556 -0.168,56.592C-0.168,56.628 -0.168,56.664 -0.168,56.699C-0.168,56.735 -0.168,56.771 -0.168,56.807C-0.168,56.842 -0.168,56.878 -0.168,56.914C-0.168,56.95 -0.168,56.986 -0.168,57.021C-0.168,57.057 -0.168,57.093 -0.168,57.129C-0.168,57.165 -0.168,57.2 -0.168,57.236C-0.168,57.272 -0.168,57.308 -0.168,57.344C-0.168,57.379 -0.168,57.415 -0.168,57.451C-0.168,57.487 -0.168,57.523 -0.168,57.558C-0.168,57.594 -0.168,57.63 -0.168,57.666C-0.168,57.702 -0.168,57.737 -0.168,57.773C-0.168,57.809 -0.168,57.845 -0.168,57.881C-0.168,57.916 -0.168,57.952 -0.168,57.988C-0.168,58.024 -0.168,58.06 -0.168,58.095C-0.168,58.131 -0.168,58.167 -0.168,58.203C-0.168,58.239 -0.168,58.274 -0.168,58.31C-0.168,58.346 -0.168,58.382 -0.168,58.418C-0.168,58.453 -0.168,58.489 -0.168,58.525C-0.168,58.561 -0.168,58.597 -0.168,58.632C-0.168,58.668 -0.168,58.704 -0.168,58.74C-0.168,58.776 -0.168,58.811 -0.168,58.847C-0.168,58.883 -0.168,58.919 -0.168,58.955C-0.168,58.99 -0.168,59.026 -0.168,59.062C-0.168,59.098 -0.168,59.134 -0.168,59.169C-0.168,59.205 -0.168,59.241 -0.168,59.277C-0.168,59.312 -0.168,59.348 -0.168,59.384C-0.168,59.42 -0.168,59.456 -0.168,59.491C-0.168,59.527 -0.168,59.563 -0.168,59.599C-0.168,59.635 -0.168,59.67 -0.168,59.706C-0.168,59.742 -0.168,59.778 -0.168,59.814C-0.168,59.849 -0.168,59.885 -0.168,59.921C-0.168,59.957 -0.168,59.993 -0.168,60.028C-0.168,60.064 -0.168,60.1 -0.168,60.136C-0.168,60.172 -0.168,60.207 -0.168,60.243C-0.168,60.279 -0.168,60.315 -0.168,60.351C-0.168,60.386 -0.168,60.422 -0.168,60.458C-0.168,60.494 -0.168,60.53 -0.168,60.565C-0.168,60.601 -0.168,60.637 -0.168,60.673C-0.168,60.709 -0.168,60.744 -0.168,60.78C-0.168,60.816 -0.168,60.852 -0.168,60.888C-0.168,60.923 -0.168,60.959 -0.168,60.995C-0.168,61.031 -0.168,61.067 -0.168,61.102C-0.168,61.138 -0.168,61.174 -0.168,61.21C-0.168,61.246 -0.168,61.281 -0.168,61.317C-0.168,61.353 -0.168,61.389 -0.168,61.425C-0.168,61.46 -0.168,61.496 -0.168,61.532C-0.168,61.568 -0.168,61.604 -0.168,61.639C-0.168,61.675 -0.168,61.711 -0.168,61.747C-0.168,61.782 -0.168,61.818 -0.168,61.854C-0.168,61.89 -0.168,61.926 -0.168,61.961C-0.168,61.997 -0.168,62.033 -0.168,62.069C-0.168,62.105 -0.168,62.14 -0.168,62.176C-0.168,62.212 -0.168,62.248 -0.168,62.284C-0.168,62.319 -0.168,62.355 -0.168,62.391C-0.168,62.427 -0.168,62.463 -0.168,62.498C-0.168,62.534 -0.168,62.57 -0.168,62.606C-0.168,62.642 -0.168,62.677 -0.168,62.713C-0.168,62.749 -0.168,62.785 -0.168,62.821C-0.168,62.856 -0.168,62.892 -0.168,62.928C-0.168,62.964 -0.168,63 -0.168,63.035C-0.168,63.071 -0.168,63.107 -0.168,63.143C-0.168,63.179 -0.168,63.214 -0.168,63.25C-0.168,63.286 -0.168,63.322 -0.168,63.358C-0.168,63.393 -0.168,63.429 -0.168,63.465C-0.168,63.501 -0.168,63.537 -0.168,63.572C-0.168,63.608 -0.168,63.644 -0.168,63.68C-0.168,63.716 -0.168,63.751 -0.168,63.787C-0.168,63.823 -0.168,63.859 -0.168,63.895C-0.168,63.93 -0.168,63.966 -0.168,64.002C-0.168,64.038 -0.168,64.074 -0.168,64.109C-0.168,64.145 -0.168,64.181 -0.168,64.217C-0.168,64.252 -0.168,64.288 -0.168,64.324C-0.168,64.36 -0.168,64.396 -0.168,64.431C-0.168,64.467 -0.168,64.503 -0.168,64.539C-0.168,64.575 -0.168,64.61 -0.168,64.646C-0.168,64.682 -0.168,64.718 -0.168,64.754C-0.168,64.789 -0.168,64.825 -0.168,64.861C-0.168,64.897 -0.168,64.933 -0.168,64.968C-0.168,65.004 -0.168,65.04 -0.168,65.076C-0.168,65.112 -0.168,65.147 -0.168,65.183C-0.168,65.219 -0.168,65.255 -0.168,65.291C-0.168,65.326 -0.168,65.362 -0.168,65.398C-0.168,65.434 -0.168,65.47 -0.168,65.505C-0.168,65.541 -0.168,65.577 -0.168,65.613C-0.168,65.649 -0.168,65.684 -0.168,65.72C-0.168,65.756 -0.168,65.792 -0.168,65.828C-0.168,65.863 -0.168,65.899 -0.168,65.935C-0.168,65.971 -0.168,66.007 -0.168,66.042C-0.168,66.078 -0.168,66.114 -0.168,66.15C-0.168,66.186 -0.168,66.221 -0.168,66.257C-0.168,66.293 -0.168,66.329 -0.168,66.365C-0.168,66.4 -0.168,66.436 -0.168,66.472C-0.168,66.508 -0.168,66.543 -0.168,66.579C-0.168,66.615 -0.168,66.651 -0.168,66.687C-0.168,66.722 -0.168,66.758 -0.168,66.794C-0.168,66.83 -0.168,66.866 -0.168,66.901C-0.168,66.937 -0.168,66.973 -0.168,67.009C-0.168,67.045 -0.168,67.08 -0.168,67.116C-0.168,67.152 -0.168,67.188 -0.168,67.224C-0.168,67.259 -0.168,67.295 -0.168,67.331C-0.168,67.367 -0.168,67.403 -0.168,67.438C-0.168,67.474 -0.168,67.51 -0.168,67.546C-0.168,67.582 -0.168,67.617 -0.168,67.653C-0.168,67.689 -0.168,67.725 -0.168,67.761C-0.168,67.796 -0.168,67.832 -0.168,67.868C-0.168,67.904 -0.168,67.94 -0.168,67.975C-0.168,68.011 -0.168,68.047 -0.168,68.083C-0.168,68.119 -0.168,68.154 -0.168,68.19C-0.168,68.226 -0.168,68.262 -0.168,68.298C-0.168,68.333 -0.168,68.369 -0.168,68.405C-0.168,68.441 -0.168,68.477 -0.168,68.512C-0.168,68.548 -0.168,68.584 -0.168,68.62C-0.168,68.656 -0.168,68.691 -0.168,68.727C-0.168,68.763 -0.168,68.799 -0.168,68.835C-0.168,68.87 -0.168,68.906 -0.168,68.942C-0.168,68.978 -0.168,69.014 -0.168,69.049C-0.168,69.085 -0.168,69.121 -0.168,69.157C-0.168,69.192 -0.168,69.228 -0.168,69.264C-0.168,69.3 -0.168,69.336 -0.168,69.371C-0.168,69.407 -0.168,69.443 -0.168,69.479C-0.168,69.515 -0.168,69.55 -0.168,69.586C-0.168,69.622 -0.168,69.658 -0.168,69.694C-0.168,69.729 -0.168,69.765 -0.168,69.801C-0.168,69.837 -0.168,69.873 -0.168,69.908C-0.168,69.944 -0.168,69.98 -0.168,70.016C-0.168,70.052 -0.168,70.087 -0.168,70.123C-0.168,70.159 -0.168,70.195 -0.168,70.231C-0.168,70.266 -0.168,70.302 -0.168,70.338C-0.168,70.374 -0.168,70.41 -0.168,70.445C-0.168,70.481 -0.168,70.517 -0.168,70.553C-0.168,70.589 -0.168,70.624 -0.168,70.66C-0.168,70.696 -0.168,70.732 -0.168,70.768C-0.168,70.803 -0.168,70.839 -0.168,70.875C-0.168,70.911 -0.168,70.947 -0.168,70.982C-0.168,71.018 -0.168,71.054 -0.168,71.09C-0.168,71.126 -0.168,71.161 -0.168,71.197C-0.168,71.233 -0.168,71.269 -0.168,71.305C-0.168,71.34 -0.168,71.376 -0.168,71.412C-0.168,71.448 -0.168,71.484 -0.168,71.519C-0.168,71.555 -0.168,71.591 -0.168,71.627C-0.168,71.662 -0.168,71.698 -0.168,71.734C-0.168,71.77 -0.168,71.806 -0.168,71.841C-0.168,71.877 -0.168,71.913 -0.168,71.949C-0.168,71.985 -0.168,72.02 -0.168,72.056C-0.168,72.092 -0.168,72.128 -0.168,72.164C-0.168,72.199 -0.168,72.235 -0.168,72.271C-0.168,72.307 -0.168,72.343 -0.168,72.378C-0.168,72.414 -0.168,72.45 -0.168,72.486C-0.168,72.522 -0.168,72.557 -0.168,72.593C-0.168,72.629 -0.168,72.665 -0.168,72.701C-0.168,72.736 -0.168,72.772 -0.168,72.808C-0.168,72.844 -0.168,72.88 -0.168,72.915C-0.168,72.951 -0.168,72.987 -0.168,73.023C-0.168,73.059 -0.168,73.094 -0.168,73.13C-0.168,73.166 -0.168,73.202 -0.168,73.238C-0.168,73.273 -0.168,73.309 -0.168,73.345C-0.168,73.381 -0.168,73.417 -0.168,73.452C-0.168,73.488 -0.168,73.524 -0.168,73.56C-0.168,73.596 -0.168,73.631 -0.168,73.667C-0.168,73.703 -0.168,73.739 -0.168,73.775C-0.168,73.81 -0.168,73.846 -0.168,73.882C-0.168,73.918 -0.168,73.953 -0.168,73.989C-0.168,74.025 -0.168,74.061 -0.168,74.097C-0.168,74.132 -0.168,74.168 -0.168,74.204C-0.168,74.24 -0.168,74.276 -0.168,74.311C-0.168,74.347 -0.168,74.383 -0.168,74.419C-0.168,74.455 -0.168,74.49 -0.168,74.526C-0.168,74.562 -0.168,74.598 -0.168,74.634C-0.168,74.669 -0.168,74.705 -0.168,74.741C-0.168,74.777 -0.168,74.813 -0.168,74.848C-0.168,74.884 -0.168,74.92 -0.168,74.956C-0.168,74.992 -0.168,75.027 -0.168,75.063C-0.168,75.099 -0.168,75.135 -0.168,75.171C-0.168,75.206 -0.168,75.242 -0.168,75.278C-0.168,75.314 -0.168,75.35 -0.168,75.385C-0.168,75.421 -0.168,75.457 -0.168,75.493C-0.168,75.529 -0.168,75.564 -0.168,75.6C-0.168,75.636 -0.168,75.672 -0.168,75.708C-0.168,75.743 -0.168,75.779 -0.168,75.815C-0.168,75.851 -0.168,75.887 -0.168,75.922C-0.168,75.958 -0.168,75.994 -0.168,76.03C-0.168,76.066 -0.168,76.101 -0.168,76.137C-0.168,76.173 -0.168,76.209 -0.168,76.245C-0.168,76.28 -0.168,76.316 -0.168,76.352C-0.168,76.388 -0.168,76.423 -0.168,76.459C-0.168,76.495 -0.168,76.531 -0.168,76.567C-0.168,76.602 -0.168,76.638 -0.168,76.674C-0.168,76.71 -0.168,76.746 -0.168,76.781C-0.168,76.817 -0.168,76.853 -0.168,76.889C-0.168,76.925 -0.168,76.96 -0.168,76.996C-0.168,77.032 -0.168,77.068 -0.168,77.104C-0.168,77.139 -0.168,77.175 -0.168,77.211C-0.168,77.247 -0.168,77.283 -0.168,77.318C-0.168,77.354 -0.168,77.39 -0.168,77.426C-0.168,77.462 -0.168,77.497 -0.168,77.533C-0.168,77.569 -0.168,77.605 -0.168,77.641C-0.168,77.676 -0.168,77.712 -0.168,77.748C-0.168,77.784 -0.168,77.82 -0.168,77.855C-0.168,77.891 -0.168,77.927 -0.168,77.963C-0.168,77.999 -0.168,78.034 -0.168,78.07C-0.168,78.106 -0.168,78.142 -0.168,78.178C-0.168,78.213 -0.168,78.249 -0.168,78.285C-0.168,78.321 -0.168,78.357 -0.168,78.392C-0.168,78.428 -0.168,78.464 -0.168,78.5C-0.168,78.536 -0.168,78.571 -0.168,78.607C-0.168,78.643 -0.168,78.679 -0.168,78.715C-0.168,78.75 -0.168,78.786 -0.168,78.822C-0.168,78.858 -0.168,78.893 -0.168,78.929C-0.168,78.965 -0.168,79.001 -0.168,79.037C-0.168,79.072 -0.168,79.108 -0.168,79.144C-0.168,79.18 -0.168,79.216 -0.168,79.251C-0.168,79.287 -0.168,79.323 -0.168,79.359C-0.168,79.395 -0.168,79.43 -0.168,79.466C-0.168,79.502 -0.168,79.538 -0.168,79.574C-0.168,79.609 -0.168,79.645 -0.168,79.681C-0.168,79.717 -0.168,79.753 -0.168,79.788C-0.168,79.824 -0.168,79.86 -0.168,79.896C-0.168,79.932 -0.168,79.967 -0.168,80.003C-0.168,80.039 -0.168,80.075 -0.168,80.111C-0.168,80.146 -0.168,80.182 -0.168,80.218C-0.168,80.254 -0.168,80.29 -0.168,80.325C-0.168,80.361 -0.168,80.397 -0.168,80.433C-0.168,80.469 -0.168,80.504 -0.168,80.54C-0.168,80.576 -0.168,80.612 -0.168,80.648C-0.168,80.683 -0.168,80.719 -0.168,80.755C-0.168,80.791 -0.168,80.827 -0.168,80.862C-0.168,80.898 -0.168,80.934 -0.168,80.97C-0.168,81.006 -0.168,81.041 -0.168,81.077C-0.168,81.113 -0.168,81.149 -0.168,81.185C-0.168,81.22 -0.168,81.256 -0.168,81.292C-0.168,81.328 -0.168,81.363 -0.168,81.399C-0.168,81.435 -0.168,81.471 -0.168,81.507C-0.168,81.542 -0.168,81.578 -0.168,81.614C-0.168,81.65 -0.168,81.686 -0.168,81.721C-0.168,81.757 -0.168,81.793 -0.168,81.829C-0.168,81.865 -0.168,81.9 -0.168,81.936C-0.168,81.972 -0.168,82.008 -0.168,82.044C-0.168,82.079 -0.168,82.115 -0.168,82.151C-0.168,82.187 -0.168,82.223 -0.168,82.258C-0.168,82.294 -0.168,82.33 -0.168,82.366C-0.168,82.402 -0.168,82.437 -0.168,82.473C-0.168,82.509 -0.168,82.545 -0.168,82.581C-0.168,82.616 -0.168,82.652 -0.168,82.688C-0.168,82.724 -0.168,82.76 -0.168,82.795C-0.168,82.831 -0.168,82.867 -0.168,82.903C-0.168,82.939 -0.168,82.974 -0.168,83.01C-0.168,83.046 -0.168,83.082 -0.168,83.118C-0.168,83.153 -0.168,83.189 -0.168,83.225C-0.168,83.261 -0.168,83.297 -0.168,83.332C-0.168,83.368 -0.168,83.404 -0.168,83.44C-0.168,83.476 -0.168,83.511 -0.168,83.547C-0.168,83.583 -0.168,83.619 -0.168,83.655C-0.168,83.69 -0.168,83.726 -0.168,83.762C-0.168,83.798 -0.168,83.833 -0.168,83.869C-0.168,83.905 -0.168,83.941 -0.168,83.977C-0.168,84.012 -0.168,84.048 -0.168,84.084C-0.168,84.12 -0.168,84.156 -0.168,84.191C-0.168,84.227 -0.168,84.263 -0.168,84.299C-0.168,84.335 -0.168,84.37 -0.168,84.406C-0.168,84.442 -0.168,84.478 -0.168,84.514C-0.168,84.549 -0.168,84.585 -0.168,84.621C-0.168,84.657 -0.168,84.693 -0.168,84.728C-0.168,84.764 -0.168,84.8 -0.168,84.836C-0.168,84.872 -0.168,84.907 -0.168,84.943C-0.168,84.979 -0.168,85.015 -0.168,85.051C-0.168,85.086 -0.168,85.122 -0.168,85.158C-0.168,85.194 -0.168,85.23 -0.168,85.265C-0.168,85.301 -0.168,85.337 -0.168,85.373C-0.168,85.409 -0.168,85.444 -0.168,85.48C-0.168,85.516 -0.168,85.552 -0.168,85.588C-0.168,85.623 -0.168,85.659 -0.168,85.695C-0.168,85.731 -0.168,85.767 -0.168,85.802C-0.168,85.838 -0.168,85.874 -0.168,85.91C-0.168,85.946 -0.168,85.981 -0.168,86.017C-0.168,86.053 -0.168,86.089 -0.168,86.125C-0.168,86.16 -0.168,86.196 -0.168,86.232C-0.168,86.268 -0.168,86.303 -0.168,86.339C-0.168,86.375 -0.168,86.411 -0.168,86.447C-0.168,86.482 -0.168,86.518 -0.168,86.554C-0.168,86.59 -0.168,86.626 -0.168,86.661C-0.168,86.697 -0.168,86.733 -0.168,86.769C-0.168,86.805 -0.168,86.84 -0.168,86.876C-0.168,86.912 -0.168,86.948 -0.168,86.984C-0.168,87.019 -0.168,87.055 -0.168,87.091C-0.168,87.127 -0.168,87.163 -0.168,87.198C-0.168,87.234 -0.168,87.27 -0.168,87.306C-0.168,87.342 -0.168,87.377 -0.168,87.413C-0.168,87.449 -0.168,87.485 -0.168,87.521C-0.168,87.556 -0.168,87.592 -0.168,87.628C-0.168,87.664 -0.168,87.7 -0.168,87.735C-0.168,87.771 -0.168,87.807 -0.168,87.843C-0.168,87.879 -0.168,87.914 -0.168,87.95C-0.168,87.986 -0.168,88.022 -0.168,88.058C-0.168,88.093 -0.168,88.129 -0.168,88.165C-0.168,88.201 -0.168,88.237 -0.168,88.272C-0.168,88.308 -0.168,88.344 -0.168,88.38C-0.168,88.416 -0.168,88.451 -0.168,88.487C-0.168,88.523 -0.168,88.559 -0.168,88.595C-0.168,88.63 -0.168,88.666 -0.168,88.702C-0.168,88.738 -0.168,88.773 -0.168,88.809C-0.168,88.845 -0.168,88.881 -0.168,88.917C-0.168,88.952 -0.168,88.988 -0.168,89.024C-0.168,89.06 -0.168,89.096 -0.168,89.131C-0.168,89.167 -0.168,89.203 -0.168,89.239C-0.168,89.275 -0.168,89.31 -0.168,89.346C-0.168,89.382 -0.168,89.418 -0.168,89.454C-0.168,89.489 -0.168,89.525 -0.168,89.561C-0.168,89.597 -0.168,89.633 -0.168,89.668C-0.168,89.704 -0.168,89.74 -0.168,89.776C-0.168,89.812 -0.168,89.847 -0.168,89.883C-0.168,89.919 -0.168,89.955 -0.168,89.991C-0.168,90.026 -0.168,90.062 -0.168,90.098C-0.168,90.134 -0.168,90.17 -0.168,90.205C-0.168,90.241 -0.168,90.277 -0.168,90.313C-0.168,90.349 -0.168,90.384 -0.168,90.42C-0.168,90.456 -0.168,90.492 -0.168,90.528C-0.168,90.563 -0.168,90.599 -0.168,90.635C-0.168,90.671 -0.168,90.707 -0.168,90.742C-0.168,90.778 -0.168,90.814 -0.168,90.85C-0.168,90.886 -0.168,90.921 -0.168,90.957C-0.168,90.993 -0.168,91.029 -0.168,91.065C-0.168,91.1 -0.168,91.136 -0.168,91.172C-0.168,91.208 -0.168,91.243 -0.168,91.279C-0.168,91.315 -0.168,91.351 -0.168,91.387C-0.168,91.422 -0.168,91.458 -0.168,91.494C-0.168,91.53 -0.168,91.566 -0.168,91.601C-0.168,91.637 -0.168,91.673 -0.168,91.709C-0.168,91.745 -0.168,91.78 -0.168,91.816C-0.168,91.852 -0.168,91.888 -0.168,91.924C-0.168,91.959 -0.168,91.995 -0.168,92.031C-0.168,92.067 -0.168,92.103 -0.168,92.138C-0.168,92.174 -0.168,92.21 -0.168,92.246C-0.168,92.282 -0.168,92.317 -0.168,92.353C-0.168,92.389 -0.168,92.425 -0.168,92.461C-0.168,92.496 -0.168,92.532 -0.168,92.568C-0.168,92.604 -0.168,92.64 -0.168,92.675C-0.168,92.711 -0.168,92.747 -0.168,92.783C-0.168,92.819 -0.168,92.854 -0.168,92.89C-0.168,92.926 -0.168,92.962 -0.168,92.998C-0.168,93.033 -0.168,93.069 -0.168,93.105C-0.168,93.141 -0.168,93.177 -0.168,93.212C-0.168,93.248 -0.168,93.284 -0.168,93.32C-0.168,93.356 -0.168,93.391 -0.168,93.427C-0.168,93.463 -0.168,93.499 -0.168,93.535C-0.168,93.57 -0.168,93.606 -0.168,93.642C-0.168,93.678 -0.168,93.713 -0.168,93.749C-0.168,93.785 -0.168,93.821 -0.168,93.857C-0.168,93.892 -0.168,93.928 -0.168,93.964C-0.168,94 -0.168,94.036 -0.168,94.071L5.832,94.071C5.832,94.036 5.832,94 5.832,93.964C5.832,93.928 5.832,93.892 5.832,93.857C5.832,93.821 5.832,93.785 5.832,93.749C5.832,93.713 5.832,93.678 5.832,93.642C5.832,93.606 5.832,93.57 5.832,93.535C5.832,93.499 5.832,93.463 5.832,93.427C5.832,93.391 5.832,93.356 5.832,93.32C5.832,93.284 5.832,93.248 5.832,93.212C5.832,93.177 5.832,93.141 5.832,93.105C5.832,93.069 5.832,93.033 5.832,92.998C5.832,92.962 5.832,92.926 5.832,92.89C5.832,92.854 5.832,92.819 5.832,92.783C5.832,92.747 5.832,92.711 5.832,92.675C5.832,92.64 5.832,92.604 5.832,92.568C5.832,92.532 5.832,92.496 5.832,92.461C5.832,92.425 5.832,92.389 5.832,92.353C5.832,92.317 5.832,92.282 5.832,92.246C5.832,92.21 5.832,92.174 5.832,92.138C5.832,92.103 5.832,92.067 5.832,92.031C5.832,91.995 5.832,91.959 5.832,91.924C5.832,91.888 5.832,91.852 5.832,91.816C5.832,91.78 5.832,91.745 5.832,91.709C5.832,91.673 5.832,91.637 5.832,91.601C5.832,91.566 5.832,91.53 5.832,91.494C5.832,91.458 5.832,91.422 5.832,91.387C5.832,91.351 5.832,91.315 5.832,91.279C5.832,91.243 5.832,91.208 5.832,91.172C5.832,91.136 5.832,91.1 5.832,91.065C5.832,91.029 5.832,90.993 5.832,90.957C5.832,90.921 5.832,90.886 5.832,90.85C5.832,90.814 5.832,90.778 5.832,90.742C5.832,90.707 5.832,90.671 5.832,90.635C5.832,90.599 5.832,90.563 5.832,90.528C5.832,90.492 5.832,90.456 5.832,90.42C5.832,90.384 5.832,90.349 5.832,90.313C5.832,90.277 5.832,90.241 5.832,90.205C5.832,90.17 5.832,90.134 5.832,90.098C5.832,90.062 5.832,90.026 5.832,89.991C5.832,89.955 5.832,89.919 5.832,89.883C5.832,89.847 5.832,89.812 5.832,89.776C5.832,89.74 5.832,89.704 5.832,89.668C5.832,89.633 5.832,89.597 5.832,89.561C5.832,89.525 5.832,89.489 5.832,89.454C5.832,89.418 5.832,89.382 5.832,89.346C5.832,89.31 5.832,89.275 5.832,89.239C5.832,89.203 5.832,89.167 5.832,89.131C5.832,89.096 5.832,89.06 5.832,89.024C5.832,88.988 5.832,88.952 5.832,88.917C5.832,88.881 5.832,88.845 5.832,88.809C5.832,88.773 5.832,88.738 5.832,88.702C5.832,88.666 5.832,88.63 5.832,88.595C5.832,88.559 5.832,88.523 5.832,88.487C5.832,88.451 5.832,88.416 5.832,88.38C5.832,88.344 5.832,88.308 5.832,88.272C5.832,88.237 5.832,88.201 5.832,88.165C5.832,88.129 5.832,88.093 5.832,88.058C5.832,88.022 5.832,87.986 5.832,87.95C5.832,87.914 5.832,87.879 5.832,87.843C5.832,87.807 5.832,87.771 5.832,87.735C5.832,87.7 5.832,87.664 5.832,87.628C5.832,87.592 5.832,87.556 5.832,87.521C5.832,87.485 5.832,87.449 5.832,87.413C5.832,87.377 5.832,87.342 5.832,87.306C5.832,87.27 5.832,87.234 5.832,87.198C5.832,87.163 5.832,87.127 5.832,87.091C5.832,87.055 5.832,87.019 5.832,86.984C5.832,86.948 5.832,86.912 5.832,86.876C5.832,86.84 5.832,86.805 5.832,86.769C5.832,86.733 5.832,86.697 5.832,86.661C5.832,86.626 5.832,86.59 5.832,86.554C5.832,86.518 5.832,86.482 5.832,86.447C5.832,86.411 5.832,86.375 5.832,86.339C5.832,86.303 5.832,86.268 5.832,86.232C5.832,86.196 5.832,86.16 5.832,86.125C5.832,86.089 5.832,86.053 5.832,86.017C5.832,85.981 5.832,85.946 5.832,85.91C5.832,85.874 5.832,85.838 5.832,85.802C5.832,85.767 5.832,85.731 5.832,85.695C5.832,85.659 5.832,85.623 5.832,85.588C5.832,85.552 5.832,85.516 5.832,85.48C5.832,85.444 5.832,85.409 5.832,85.373C5.832,85.337 5.832,85.301 5.832,85.265C5.832,85.23 5.832,85.194 5.832,85.158C5.832,85.122 5.832,85.086 5.832,85.051C5.832,85.015 5.832,84.979 5.832,84.943C5.832,84.907 5.832,84.872 5.832,84.836C5.832,84.8 5.832,84.764 5.832,84.728C5.832,84.693 5.832,84.657 5.832,84.621C5.832,84.585 5.832,84.549 5.832,84.514C5.832,84.478 5.832,84.442 5.832,84.406C5.832,84.37 5.832,84.335 5.832,84.299C5.832,84.263 5.832,84.227 5.832,84.191C5.832,84.156 5.832,84.12 5.832,84.084C5.832,84.048 5.832,84.012 5.832,83.977C5.832,83.941 5.832,83.905 5.832,83.869C5.832,83.833 5.832,83.798 5.832,83.762C5.832,83.726 5.832,83.69 5.832,83.655C5.832,83.619 5.832,83.583 5.832,83.547C5.832,83.511 5.832,83.476 5.832,83.44C5.832,83.404 5.832,83.368 5.832,83.332C5.832,83.297 5.832,83.261 5.832,83.225C5.832,83.189 5.832,83.153 5.832,83.118C5.832,83.082 5.832,83.046 5.832,83.01C5.832,82.974 5.832,82.939 5.832,82.903C5.832,82.867 5.832,82.831 5.832,82.795C5.832,82.76 5.832,82.724 5.832,82.688C5.832,82.652 5.832,82.616 5.832,82.581C5.832,82.545 5.832,82.509 5.832,82.473C5.832,82.437 5.832,82.402 5.832,82.366C5.832,82.33 5.832,82.294 5.832,82.258C5.832,82.223 5.832,82.187 5.832,82.151C5.832,82.115 5.832,82.079 5.832,82.044C5.832,82.008 5.832,81.972 5.832,81.936C5.832,81.9 5.832,81.865 5.832,81.829C5.832,81.793 5.832,81.757 5.832,81.721C5.832,81.686 5.832,81.65 5.832,81.614C5.832,81.578 5.832,81.542 5.832,81.507C5.832,81.471 5.832,81.435 5.832,81.399C5.832,81.363 5.832,81.328 5.832,81.292C5.832,81.256 5.832,81.22 5.832,81.185C5.832,81.149 5.832,81.113 5.832,81.077C5.832,81.041 5.832,81.006 5.832,80.97C5.832,80.934 5.832,80.898 5.832,80.862C5.832,80.827 5.832,80.791 5.832,80.755C5.832,80.719 5.832,80.683 5.832,80.648C5.832,80.612 5.832,80.576 5.832,80.54C5.832,80.504 5.832,80.469 5.832,80.433C5.832,80.397 5.832,80.361 5.832,80.325C5.832,80.29 5.832,80.254 5.832,80.218C5.832,80.182 5.832,80.146 5.832,80.111C5.832,80.075 5.832,80.039 5.832,80.003C5.832,79.967 5.832,79.932 5.832,79.896C5.832,79.86 5.832,79.824 5.832,79.788C5.832,79.753 5.832,79.717 5.832,79.681C5.832,79.645 5.832,79.609 5.832,79.574C5.832,79.538 5.832,79.502 5.832,79.466C5.832,79.43 5.832,79.395 5.832,79.359C5.832,79.323 5.832,79.287 5.832,79.251C5.832,79.216 5.832,79.18 5.832,79.144C5.832,79.108 5.832,79.072 5.832,79.037C5.832,79.001 5.832,78.965 5.832,78.929C5.832,78.893 5.832,78.858 5.832,78.822C5.832,78.786 5.832,78.75 5.832,78.715C5.832,78.679 5.832,78.643 5.832,78.607C5.832,78.571 5.832,78.536 5.832,78.5C5.832,78.464 5.832,78.428 5.832,78.392C5.832,78.357 5.832,78.321 5.832,78.285C5.832,78.249 5.832,78.213 5.832,78.178C5.832,78.142 5.832,78.106 5.832,78.07C5.832,78.034 5.832,77.999 5.832,77.963C5.832,77.927 5.832,77.891 5.832,77.855C5.832,77.82 5.832,77.784 5.832,77.748C5.832,77.712 5.832,77.676 5.832,77.641C5.832,77.605 5.832,77.569 5.832,77.533C5.832,77.497 5.832,77.462 5.832,77.426C5.832,77.39 5.832,77.354 5.832,77.318C5.832,77.283 5.832,77.247 5.832,77.211C5.832,77.175 5.832,77.139 5.832,77.104C5.832,77.068 5.832,77.032 5.832,76.996C5.832,76.96 5.832,76.925 5.832,76.889C5.832,76.853 5.832,76.817 5.832,76.781C5.832,76.746 5.832,76.71 5.832,76.674C5.832,76.638 5.832,76.602 5.832,76.567C5.832,76.531 5.832,76.495 5.832,76.459C5.832,76.423 5.832,76.388 5.832,76.352C5.832,76.316 5.832,76.28 5.832,76.245C5.832,76.209 5.832,76.173 5.832,76.137C5.832,76.101 5.832,76.066 5.832,76.03C5.832,75.994 5.832,75.958 5.832,75.922C5.832,75.887 5.832,75.851 5.832,75.815C5.832,75.779 5.832,75.743 5.832,75.708C5.832,75.672 5.832,75.636 5.832,75.6C5.832,75.564 5.832,75.529 5.832,75.493C5.832,75.457 5.832,75.421 5.832,75.385C5.832,75.35 5.832,75.314 5.832,75.278C5.832,75.242 5.832,75.206 5.832,75.171C5.832,75.135 5.832,75.099 5.832,75.063C5.832,75.027 5.832,74.992 5.832,74.956C5.832,74.92 5.832,74.884 5.832,74.848C5.832,74.813 5.832,74.777 5.832,74.741C5.832,74.705 5.832,74.669 5.832,74.634C5.832,74.598 5.832,74.562 5.832,74.526C5.832,74.49 5.832,74.455 5.832,74.419C5.832,74.383 5.832,74.347 5.832,74.311C5.832,74.276 5.832,74.24 5.832,74.204C5.832,74.168 5.832,74.132 5.832,74.097C5.832,74.061 5.832,74.025 5.832,73.989C5.832,73.953 5.832,73.918 5.832,73.882C5.832,73.846 5.832,73.81 5.832,73.775C5.832,73.739 5.832,73.703 5.832,73.667C5.832,73.631 5.832,73.596 5.832,73.56C5.832,73.524 5.832,73.488 5.832,73.452C5.832,73.417 5.832,73.381 5.832,73.345C5.832,73.309 5.832,73.273 5.832,73.238C5.832,73.202 5.832,73.166 5.832,73.13C5.832,73.094 5.832,73.059 5.832,73.023C5.832,72.987 5.832,72.951 5.832,72.915C5.832,72.88 5.832,72.844 5.832,72.808C5.832,72.772 5.832,72.736 5.832,72.701C5.832,72.665 5.832,72.629 5.832,72.593C5.832,72.557 5.832,72.522 5.832,72.486C5.832,72.45 5.832,72.414 5.832,72.378C5.832,72.343 5.832,72.307 5.832,72.271C5.832,72.235 5.832,72.199 5.832,72.164C5.832,72.128 5.832,72.092 5.832,72.056C5.832,72.02 5.832,71.985 5.832,71.949C5.832,71.913 5.832,71.877 5.832,71.841C5.832,71.806 5.832,71.77 5.832,71.734C5.832,71.698 5.832,71.662 5.832,71.627C5.832,71.591 5.832,71.555 5.832,71.519C5.832,71.484 5.832,71.448 5.832,71.412C5.832,71.376 5.832,71.34 5.832,71.305C5.832,71.269 5.832,71.233 5.832,71.197C5.832,71.161 5.832,71.126 5.832,71.09C5.832,71.054 5.832,71.018 5.832,70.982C5.832,70.947 5.832,70.911 5.832,70.875C5.832,70.839 5.832,70.803 5.832,70.768C5.832,70.732 5.832,70.696 5.832,70.66C5.832,70.624 5.832,70.589 5.832,70.553C5.832,70.517 5.832,70.481 5.832,70.445C5.832,70.41 5.832,70.374 5.832,70.338C5.832,70.302 5.832,70.266 5.832,70.231C5.832,70.195 5.832,70.159 5.832,70.123C5.832,70.087 5.832,70.052 5.832,70.016C5.832,69.98 5.832,69.944 5.832,69.908C5.832,69.873 5.832,69.837 5.832,69.801C5.832,69.765 5.832,69.729 5.832,69.694C5.832,69.658 5.832,69.622 5.832,69.586C5.832,69.55 5.832,69.515 5.832,69.479C5.832,69.443 5.832,69.407 5.832,69.371C5.832,69.336 5.832,69.3 5.832,69.264C5.832,69.228 5.832,69.192 5.832,69.157C5.832,69.121 5.832,69.085 5.832,69.049C5.832,69.014 5.832,68.978 5.832,68.942C5.832,68.906 5.832,68.87 5.832,68.835C5.832,68.799 5.832,68.763 5.832,68.727C5.832,68.691 5.832,68.656 5.832,68.62C5.832,68.584 5.832,68.548 5.832,68.512C5.832,68.477 5.832,68.441 5.832,68.405C5.832,68.369 5.832,68.333 5.832,68.298C5.832,68.262 5.832,68.226 5.832,68.19C5.832,68.154 5.832,68.119 5.832,68.083C5.832,68.047 5.832,68.011 5.832,67.975C5.832,67.94 5.832,67.904 5.832,67.868C5.832,67.832 5.832,67.796 5.832,67.761C5.832,67.725 5.832,67.689 5.832,67.653C5.832,67.617 5.832,67.582 5.832,67.546C5.832,67.51 5.832,67.474 5.832,67.438C5.832,67.403 5.832,67.367 5.832,67.331C5.832,67.295 5.832,67.259 5.832,67.224C5.832,67.188 5.832,67.152 5.832,67.116C5.832,67.08 5.832,67.045 5.832,67.009C5.832,66.973 5.832,66.937 5.832,66.901C5.832,66.866 5.832,66.83 5.832,66.794C5.832,66.758 5.832,66.722 5.832,66.687C5.832,66.651 5.832,66.615 5.832,66.579C5.832,66.543 5.832,66.508 5.832,66.472C5.832,66.436 5.832,66.4 5.832,66.365C5.832,66.329 5.832,66.293 5.832,66.257C5.832,66.221 5.832,66.186 5.832,66.15C5.832,66.114 5.832,66.078 5.832,66.042C5.832,66.007 5.832,65.971 5.832,65.935C5.832,65.899 5.832,65.863 5.832,65.828C5.832,65.792 5.832,65.756 5.832,65.72C5.832,65.684 5.832,65.649 5.832,65.613C5.832,65.577 5.832,65.541 5.832,65.505C5.832,65.47 5.832,65.434 5.832,65.398C5.832,65.362 5.832,65.326 5.832,65.291C5.832,65.255 5.832,65.219 5.832,65.183C5.832,65.147 5.832,65.112 5.832,65.076C5.832,65.04 5.832,65.004 5.832,64.968C5.832,64.933 5.832,64.897 5.832,64.861C5.832,64.825 5.832,64.789 5.832,64.754C5.832,64.718 5.832,64.682 5.832,64.646C5.832,64.61 5.832,64.575 5.832,64.539C5.832,64.503 5.832,64.467 5.832,64.431C5.832,64.396 5.832,64.36 5.832,64.324C5.832,64.288 5.832,64.252 5.832,64.217C5.832,64.181 5.832,64.145 5.832,64.109C5.832,64.074 5.832,64.038 5.832,64.002C5.832,63.966 5.832,63.93 5.832,63.895C5.832,63.859 5.832,63.823 5.832,63.787C5.832,63.751 5.832,63.716 5.832,63.68C5.832,63.644 5.832,63.608 5.832,63.572C5.832,63.537 5.832,63.501 5.832,63.465C5.832,63.429 5.832,63.393 5.832,63.358C5.832,63.322 5.832,63.286 5.832,63.25C5.832,63.214 5.832,63.179 5.832,63.143C5.832,63.107 5.832,63.071 5.832,63.035C5.832,63 5.832,62.964 5.832,62.928C5.832,62.892 5.832,62.856 5.832,62.821C5.832,62.785 5.832,62.749 5.832,62.713C5.832,62.677 5.832,62.642 5.832,62.606C5.832,62.57 5.832,62.534 5.832,62.498C5.832,62.463 5.832,62.427 5.832,62.391C5.832,62.355 5.832,62.319 5.832,62.284C5.832,62.248 5.832,62.212 5.832,62.176C5.832,62.14 5.832,62.105 5.832,62.069C5.832,62.033 5.832,61.997 5.832,61.961C5.832,61.926 5.832,61.89 5.832,61.854C5.832,61.818 5.832,61.782 5.832,61.747C5.832,61.711 5.832,61.675 5.832,61.639C5.832,61.604 5.832,61.568 5.832,61.532C5.832,61.496 5.832,61.46 5.832,61.425C5.832,61.389 5.832,61.353 5.832,61.317C5.832,61.281 5.832,61.246 5.832,61.21C5.832,61.174 5.832,61.138 5.832,61.102C5.832,61.067 5.832,61.031 5.832,60.995C5.832,60.959 5.832,60.923 5.832,60.888C5.832,60.852 5.832,60.816 5.832,60.78C5.832,60.744 5.832,60.709 5.832,60.673C5.832,60.637 5.832,60.601 5.832,60.565C5.832,60.53 5.832,60.494 5.832,60.458C5.832,60.422 5.832,60.386 5.832,60.351C5.832,60.315 5.832,60.279 5.832,60.243C5.832,60.207 5.832,60.172 5.832,60.136C5.832,60.1 5.832,60.064 5.832,60.028C5.832,59.993 5.832,59.957 5.832,59.921C5.832,59.885 5.832,59.849 5.832,59.814C5.832,59.778 5.832,59.742 5.832,59.706C5.832,59.67 5.832,59.635 5.832,59.599C5.832,59.563 5.832,59.527 5.832,59.491C5.832,59.456 5.832,59.42 5.832,59.384C5.832,59.348 5.832,59.312 5.832,59.277C5.832,59.241 5.832,59.205 5.832,59.169C5.832,59.134 5.832,59.098 5.832,59.062C5.832,59.026 5.832,58.99 5.832,58.955C5.832,58.919 5.832,58.883 5.832,58.847C5.832,58.811 5.832,58.776 5.832,58.74C5.832,58.704 5.832,58.668 5.832,58.632C5.832,58.597 5.832,58.561 5.832,58.525C5.832,58.489 5.832,58.453 5.832,58.418C5.832,58.382 5.832,58.346 5.832,58.31C5.832,58.274 5.832,58.239 5.832,58.203C5.832,58.167 5.832,58.131 5.832,58.095C5.832,58.06 5.832,58.024 5.832,57.988C5.832,57.952 5.832,57.916 5.832,57.881C5.832,57.845 5.832,57.809 5.832,57.773C5.832,57.737 5.832,57.702 5.832,57.666C5.832,57.63 5.832,57.594 5.832,57.558C5.832,57.523 5.832,57.487 5.832,57.451C5.832,57.415 5.832,57.379 5.832,57.344C5.832,57.308 5.832,57.272 5.832,57.236C5.832,57.2 5.832,57.165 5.832,57.129C5.832,57.093 5.832,57.057 5.832,57.021C5.832,56.986 5.832,56.95 5.832,56.914C5.832,56.878 5.832,56.842 5.832,56.807C5.832,56.771 5.832,56.735 5.832,56.699C5.832,56.664 5.832,56.628 5.832,56.592C5.832,56.556 5.832,56.52 5.832,56.485C5.832,56.449 5.832,56.413 5.832,56.377C5.832,56.341 5.832,56.306 5.832,56.27C5.832,56.234 5.832,56.198 5.832,56.162C5.832,56.127 5.832,56.091 5.832,56.055C5.832,56.019 5.832,55.983 5.832,55.948C5.832,55.912 5.832,55.876 5.832,55.84C5.832,55.804 5.832,55.769 5.832,55.733C5.832,55.697 5.832,55.661 5.832,55.625C5.832,55.59 5.832,55.554 5.832,55.518C5.832,55.482 5.832,55.446 5.832,55.411C5.832,55.375 5.832,55.339 5.832,55.303C5.832,55.267 5.832,55.232 5.832,55.196C5.832,55.16 5.832,55.124 5.832,55.088C5.832,55.053 5.832,55.017 5.832,54.981C5.832,54.945 5.832,54.909 5.832,54.874C5.832,54.838 5.832,54.802 5.832,54.766C5.832,54.73 5.832,54.695 5.832,54.659C5.832,54.623 5.832,54.587 5.832,54.551C5.832,54.516 5.832,54.48 5.832,54.444C5.832,54.408 5.832,54.372 5.832,54.337C5.832,54.301 5.832,54.265 5.832,54.229C5.832,54.194 5.832,54.158 5.832,54.122C5.832,54.086 5.832,54.05 5.832,54.015C5.832,53.979 5.832,53.943 5.832,53.907C5.832,53.871 5.832,53.836 5.832,53.8C5.832,53.764 5.832,53.728 5.832,53.692C5.832,53.657 5.832,53.621 5.832,53.585C5.832,53.549 5.832,53.513 5.832,53.478C5.832,53.442 5.832,53.406 5.832,53.37C5.832,53.334 5.832,53.299 5.832,53.263C5.832,53.227 5.832,53.191 5.832,53.155C5.832,53.12 5.832,53.084 5.832,53.048C5.832,53.012 5.832,52.976 5.832,52.941C5.832,52.905 5.832,52.869 5.832,52.833C5.832,52.797 5.832,52.762 5.832,52.726C5.832,52.69 5.832,52.654 5.832,52.618C5.832,52.583 5.832,52.547 5.832,52.511C5.832,52.475 5.832,52.439 5.832,52.404C5.832,52.368 5.832,52.332 5.832,52.296C5.832,52.26 5.832,52.225 5.832,52.189C5.832,52.153 5.832,52.117 5.832,52.081C5.832,52.046 5.832,52.01 5.832,51.974C5.832,51.938 5.832,51.902 5.832,51.867C5.832,51.831 5.832,51.795 5.832,51.759C5.832,51.724 5.832,51.688 5.832,51.652C5.832,51.616 5.832,51.58 5.832,51.545C5.832,51.509 5.832,51.473 5.832,51.437C5.832,51.401 5.832,51.366 5.832,51.33C5.832,51.294 5.832,51.258 5.832,51.222C5.832,51.187 5.832,51.151 5.832,51.115C5.832,51.079 5.832,51.043 5.832,51.008C5.832,50.972 5.832,50.936 5.832,50.9C5.832,50.864 5.832,50.829 5.832,50.793C5.832,50.757 5.832,50.721 5.832,50.685C5.832,50.65 5.832,50.614 5.832,50.578C5.832,50.542 5.832,50.506 5.832,50.471C5.832,50.435 5.832,50.399 5.832,50.363C5.832,50.327 5.832,50.292 5.832,50.256C5.832,50.22 5.832,50.184 5.832,50.148C5.832,50.113 5.832,50.077 5.832,50.041C5.832,50.005 5.832,49.969 5.832,49.934C5.832,49.898 5.832,49.862 5.832,49.826C5.832,49.79 5.832,49.755 5.832,49.719C5.832,49.683 5.832,49.647 5.832,49.611C5.832,49.576 5.832,49.54 5.832,49.504C5.832,49.468 5.832,49.432 5.832,49.397C5.832,49.361 5.832,49.325 5.832,49.289C5.832,49.254 5.832,49.218 5.832,49.182C5.832,49.146 5.832,49.11 5.832,49.075C5.832,49.039 5.832,49.003 5.832,48.967C5.832,48.931 5.832,48.896 5.832,48.86C5.832,48.824 5.832,48.788 5.832,48.752C5.832,48.717 5.832,48.681 5.832,48.645C5.832,48.609 5.832,48.573 5.832,48.538C5.832,48.502 5.832,48.466 5.832,48.43C5.832,48.394 5.832,48.359 5.832,48.323C5.832,48.287 5.832,48.251 5.832,48.215C5.832,48.18 5.832,48.144 5.832,48.108C5.832,48.072 5.832,48.036 5.832,48.001C5.832,47.965 5.832,47.929 5.832,47.893C5.832,47.857 5.832,47.822 5.832,47.786C5.832,47.75 5.832,47.714 5.832,47.678C5.832,47.643 5.832,47.607 5.832,47.571C5.832,47.535 5.832,47.499 5.832,47.464C5.832,47.428 5.832,47.392 5.832,47.356C5.832,47.32 5.832,47.285 5.832,47.249C5.832,47.213 5.832,47.177 5.832,47.141C5.832,47.106 5.832,47.07 5.832,47.034C5.832,46.998 5.832,46.962 5.832,46.927C5.832,46.891 5.832,46.855 5.832,46.819C5.832,46.784 5.832,46.748 5.832,46.712C5.832,46.676 5.832,46.64 5.832,46.605C5.832,46.569 5.832,46.533 5.832,46.497C5.832,46.461 5.832,46.426 5.832,46.39C5.832,46.354 5.832,46.318 5.832,46.282C5.832,46.247 5.832,46.211 5.832,46.175C5.832,46.139 5.832,46.103 5.832,46.068C5.832,46.032 5.832,45.996 5.832,45.96C5.832,45.924 5.832,45.889 5.832,45.853C5.832,45.817 5.832,45.781 5.832,45.745C5.832,45.71 5.832,45.674 5.832,45.638C5.832,45.602 5.832,45.566 5.832,45.531C5.832,45.495 5.832,45.459 5.832,45.423C5.832,45.387 5.832,45.352 5.832,45.316C5.832,45.28 5.832,45.244 5.832,45.208C5.832,45.173 5.832,45.137 5.832,45.101C5.832,45.065 5.832,45.029 5.832,44.994C5.832,44.958 5.832,44.922 5.832,44.886C5.832,44.85 5.832,44.815 5.832,44.779C5.832,44.743 5.832,44.707 5.832,44.671C5.832,44.636 5.832,44.6 5.832,44.564C5.832,44.528 5.832,44.493 5.832,44.457C5.832,44.421 5.832,44.385 5.832,44.349C5.832,44.314 5.832,44.278 5.832,44.242C5.832,44.206 5.832,44.17 5.832,44.135C5.832,44.099 5.832,44.063 5.832,44.027C5.832,43.991 5.832,43.956 5.832,43.92C5.832,43.884 5.832,43.848 5.832,43.812C5.832,43.777 5.832,43.741 5.832,43.705C5.832,43.669 5.832,43.633 5.832,43.598C5.832,43.562 5.832,43.526 5.832,43.49C5.832,43.454 5.832,43.419 5.832,43.383C5.832,43.347 5.832,43.311 5.832,43.275C5.832,43.24 5.832,43.204 5.832,43.168C5.832,43.132 5.832,43.096 5.832,43.061C5.832,43.025 5.832,42.989 5.832,42.953C5.832,42.917 5.832,42.882 5.832,42.846C5.832,42.81 5.832,42.774 5.832,42.738C5.832,42.703 5.832,42.667 5.832,42.631C5.832,42.595 5.832,42.559 5.832,42.524C5.832,42.488 5.832,42.452 5.832,42.416C5.832,42.38 5.832,42.345 5.832,42.309C5.832,42.273 5.832,42.237 5.832,42.201C5.832,42.166 5.832,42.13 5.832,42.094C5.832,42.058 5.832,42.022 5.832,41.987C5.832,41.951 5.832,41.915 5.832,41.879C5.832,41.844 5.832,41.808 5.832,41.772C5.832,41.736 5.832,41.7 5.832,41.665C5.832,41.629 5.832,41.593 5.832,41.557C5.832,41.521 5.832,41.486 5.832,41.45C5.832,41.414 5.832,41.378 5.832,41.342C5.832,41.307 5.832,41.271 5.832,41.235C5.832,41.199 5.832,41.163 5.832,41.128C5.832,41.092 5.832,41.056 5.832,41.02C5.832,40.984 5.832,40.949 5.832,40.913C5.832,40.877 5.832,40.841 5.832,40.805C5.832,40.77 5.832,40.734 5.832,40.698C5.832,40.662 5.832,40.626 5.832,40.591C5.832,40.555 5.832,40.519 5.832,40.483C5.832,40.447 5.832,40.412 5.832,40.376C5.832,40.34 5.832,40.304 5.832,40.268C5.832,40.233 5.832,40.197 5.832,40.161C5.832,40.125 5.832,40.089 5.832,40.054C5.832,40.018 5.832,39.982 5.832,39.946C5.832,39.91 5.832,39.875 5.832,39.839C5.832,39.803 5.832,39.767 5.832,39.731C5.832,39.696 5.832,39.66 5.832,39.624C5.832,39.588 5.832,39.553 5.832,39.517C5.832,39.481 5.832,39.445 5.832,39.409C5.832,39.374 5.832,39.338 5.832,39.302C5.832,39.266 5.832,39.23 5.832,39.195C5.832,39.159 5.832,39.123 5.832,39.087L-0.168,39.087ZM-0.168,94.071C-0.168,94.439 -0.223,94.963 -0.296,95.923C-0.361,96.765 -0.427,97.83 -0.372,98.887C-0.32,99.896 -0.148,101.207 0.47,102.391C1.17,103.732 2.435,104.863 4.298,105.129L5.147,99.189C5.472,99.236 5.732,99.506 5.789,99.615C5.791,99.617 5.78,99.598 5.764,99.55C5.748,99.502 5.728,99.433 5.709,99.339C5.668,99.147 5.636,98.895 5.62,98.577C5.586,97.927 5.625,97.183 5.686,96.382C5.739,95.699 5.832,94.745 5.832,94.071L-0.168,94.071ZM4.298,105.129C14.493,106.585 24.862,107.504 35.191,107.836L35.383,101.839C25.279,101.515 15.13,100.615 5.147,99.189L4.298,105.129ZM35.191,107.836C44.238,108.126 52.726,107.571 60.982,109.149L62.108,103.256C53.239,101.56 43.655,102.104 35.383,101.839L35.191,107.836ZM60.982,109.149C62.45,109.43 63.89,109.942 65.562,110.559C67.163,111.149 69.017,111.852 70.985,112.284L72.271,106.423C70.786,106.097 69.343,105.558 67.638,104.929C66.004,104.327 64.128,103.642 62.108,103.256L60.982,109.149ZM70.985,112.284C74.856,113.134 78.962,113.231 82.863,113.142C86.973,113.047 90.453,112.774 94.052,112.774L94.052,106.774C90.501,106.774 86.283,107.062 82.726,107.143C78.959,107.229 75.429,107.117 72.271,106.423L70.985,112.284ZM94.052,112.774C94.514,112.774 96.491,112.887 99.492,113.035C102.397,113.179 106.089,113.344 109.747,113.428C113.386,113.511 117.071,113.516 119.935,113.327C121.35,113.233 122.692,113.085 123.767,112.836C124.294,112.714 124.904,112.536 125.466,112.248C125.932,112.01 126.962,111.399 127.402,110.117L121.726,108.171C121.898,107.669 122.18,107.345 122.366,107.172C122.548,107.004 122.696,106.925 122.734,106.906C122.797,106.874 122.725,106.919 122.414,106.991C121.813,107.13 120.852,107.253 119.54,107.34C116.95,107.511 113.482,107.512 109.884,107.43C106.305,107.348 102.675,107.185 99.788,107.043C96.997,106.905 94.711,106.774 94.052,106.774L94.052,112.774ZM127.402,110.117C128.151,107.933 128.349,105.538 128.464,103.484C128.587,101.271 128.618,99.489 128.888,97.876L122.971,96.884C122.628,98.929 122.578,101.272 122.473,103.149C122.359,105.185 122.182,106.843 121.726,108.171L127.402,110.117ZM128.888,97.876C129.749,92.744 131.243,87.84 132.617,82.474L126.805,80.986C125.517,86.013 123.888,91.418 122.971,96.884L128.888,97.876ZM132.617,82.474C135.521,71.135 137.884,58.698 138.999,46.986L133.026,46.418C131.946,57.761 129.647,69.886 126.805,80.986L132.617,82.474ZM138.999,46.986C140.378,32.504 137.215,18.73 135.306,5.368L129.367,6.216C131.371,20.244 134.316,32.872 133.026,46.418L138.999,46.986Z" fill="#F24822"/>
</svg>
