<svg width="36" height="36" viewBox="0 0 36 36" fill="none" xmlns="http://www.w3.org/2000/svg" xmlns:xlink="http://www.w3.org/1999/xlink">
<path d="M18,36C13.192,36 8.672,34.128 5.272,30.728C1.872,27.328 0,22.808 0,18C0,13.192 1.872,8.672 5.272,5.272C8.672,1.872 13.192,0 18,0C22.808,0 27.328,1.872 30.728,5.272C34.128,8.672 36,13.192 36,18C36,22.808 34.128,27.328 30.728,30.728C27.328,34.128 22.808,36 18,36ZM18,2.813C9.626,2.813 2.813,9.626 2.813,18C2.813,26.374 9.626,33.188 18,33.188C26.374,33.188 33.188,26.374 33.188,18C33.188,9.626 26.374,2.813 18,2.813ZM17.93,19.336C14.208,19.336 11.18,16.308 11.18,12.586C11.18,8.864 14.208,5.836 17.93,5.836C21.652,5.836 24.68,8.864 24.68,12.586C24.68,16.308 21.652,19.336 17.93,19.336ZM17.93,8.648C15.759,8.648 13.992,10.415 13.992,12.586C13.992,14.757 15.759,16.523 17.93,16.523C20.101,16.523 21.867,14.757 21.867,12.586C21.867,10.415 20.101,8.648 17.93,8.648ZM26.839,27.525C27.44,27.033 27.528,26.147 27.036,25.546C25.047,23.119 22.109,21.727 18.975,21.727L17.306,21.727C14.172,21.727 11.234,23.119 9.245,25.546C8.753,26.147 8.841,27.033 9.442,27.525C10.043,28.018 10.929,27.929 11.421,27.329C12.873,25.556 15.018,24.539 17.306,24.539L18.975,24.539C21.263,24.539 23.408,25.556 24.86,27.329C25.138,27.668 25.542,27.844 25.949,27.844C26.262,27.844 26.578,27.739 26.839,27.525Z" stroke="#E4E4E3" stroke-width="0.75" stroke-miterlimit="3.999327"/>
</svg>
