<svg width="48" height="32" viewBox="0 0 48 32" fill="none" xmlns="http://www.w3.org/2000/svg" xmlns:xlink="http://www.w3.org/1999/xlink">
<path d="M0,15.874C0.225,15.087 0.94,14.789 1.512,14.384C3.637,12.873 5.783,11.404 7.908,9.914C9.849,8.552 11.79,7.168 13.752,5.806C15.285,4.72 16.838,3.656 18.391,2.57C19.514,1.783 20.618,0.995 21.742,0.208C22.355,-0.218 23.356,-0.005 23.397,0.995C23.397,1.102 23.397,1.187 23.397,1.293C23.397,3.635 23.397,5.976 23.397,8.339C23.397,8.424 23.397,8.531 23.397,8.616C23.356,9.127 23.356,9.148 23.826,9.19C25.706,9.403 27.545,9.85 29.364,10.382C30.753,10.787 32.102,11.255 33.45,11.787C34.983,12.383 36.475,13.15 37.905,13.98C39.049,14.64 40.153,15.406 41.154,16.279C41.951,16.981 42.727,17.705 43.442,18.492C44.444,19.578 45.261,20.813 45.956,22.154C46.753,23.665 47.284,25.261 47.611,26.943C47.754,27.667 47.815,28.39 47.897,29.135C47.958,29.71 47.979,30.306 47.999,30.881C48.02,31.519 47.631,31.903 47.039,31.945C46.446,32.009 46.221,31.605 46.017,31.179C45.506,30.2 44.893,29.327 44.158,28.518C43.013,27.241 41.685,26.219 40.234,25.389C39.049,24.708 37.803,24.133 36.475,23.771C35.494,23.495 34.513,23.218 33.512,23.005C32.796,22.856 32.081,22.792 31.366,22.707C30.671,22.622 29.977,22.579 29.302,22.537C28.689,22.494 28.056,22.452 27.422,22.43C26.155,22.388 24.868,22.345 23.601,22.324C23.54,22.324 23.479,22.324 23.397,22.324L23.397,22.686C23.397,25.368 23.397,28.05 23.397,30.732C23.397,31.221 23.315,31.647 22.825,31.881C22.457,32.052 22.13,32.052 21.783,31.796C20.025,30.562 18.288,29.327 16.531,28.092C15.264,27.198 13.977,26.304 12.71,25.41C11.096,24.282 9.502,23.175 7.908,22.047C5.967,20.685 4.046,19.323 2.105,17.96C1.533,17.556 0.94,17.151 0.388,16.726C0.204,16.577 0.123,16.3 0,16.087L0,15.874Z" fill="#E4E4E3"/>
</svg>
