<svg width="34" height="34" viewBox="0 0 34 34" fill="none" xmlns="http://www.w3.org/2000/svg" xmlns:xlink="http://www.w3.org/1999/xlink">
<path d="M10.599,4.483C11.779,4.483 12.735,3.527 12.735,2.348C12.735,1.168 11.779,0.212 10.599,0.212L10.599,4.483ZM5.795,2.348L5.795,0.212L5.795,2.348ZM2.592,5.551L0.456,5.551L2.592,5.551ZM0.456,10.356C0.456,11.535 1.412,12.491 2.592,12.491C3.771,12.491 4.727,11.535 4.727,10.356L0.456,10.356ZM29.285,10.356C29.285,11.535 30.241,12.491 31.42,12.491C32.599,12.491 33.555,11.535 33.555,10.356L29.285,10.356ZM28.217,2.348L28.217,0.212L28.217,2.348ZM23.412,0.212C22.233,0.212 21.277,1.168 21.277,2.348C21.277,3.527 22.233,4.483 23.412,4.483L23.412,0.212ZM23.412,29.041C22.233,29.041 21.277,29.997 21.277,31.176C21.277,32.355 22.233,33.311 23.412,33.311L23.412,29.041ZM33.555,23.168C33.555,21.989 32.599,21.033 31.42,21.033C30.241,21.033 29.285,21.989 29.285,23.168L33.555,23.168ZM4.727,23.168C4.727,21.989 3.771,21.033 2.592,21.033C1.412,21.033 0.456,21.989 0.456,23.168L4.727,23.168ZM2.592,27.973L0.456,27.973L2.592,27.973ZM10.599,33.311C11.779,33.311 12.735,32.355 12.735,31.176C12.735,29.997 11.779,29.041 10.599,29.041L10.599,33.311ZM10.599,0.212L5.795,0.212L5.795,4.483L10.599,4.483L10.599,0.212ZM5.795,0.212C4.379,0.212 3.021,0.775 2.02,1.776L5.04,4.796C5.24,4.596 5.512,4.483 5.795,4.483L5.795,0.212ZM2.02,1.776C1.019,2.777 0.456,4.135 0.456,5.551L4.727,5.551C4.727,5.268 4.839,4.996 5.04,4.796L2.02,1.776ZM0.456,5.551L0.456,10.356L4.727,10.356L4.727,5.551L0.456,5.551ZM33.555,10.356L33.555,5.551L29.285,5.551L29.285,10.356L33.555,10.356ZM33.555,5.551C33.555,4.135 32.993,2.777 31.992,1.776L28.972,4.796C29.172,4.996 29.285,5.268 29.285,5.551L33.555,5.551ZM31.992,1.776C30.991,0.775 29.633,0.212 28.217,0.212L28.217,4.483C28.5,4.483 28.772,4.596 28.972,4.796L31.992,1.776ZM28.217,0.212L23.412,0.212L23.412,4.483L28.217,4.483L28.217,0.212ZM23.412,33.311L28.217,33.311L28.217,29.041L23.412,29.041L23.412,33.311ZM28.217,33.311C29.633,33.311 30.991,32.749 31.992,31.748L28.972,28.728C28.772,28.928 28.5,29.041 28.217,29.041L28.217,33.311ZM31.992,31.748C32.993,30.747 33.555,29.389 33.555,27.973L29.285,27.973C29.285,28.256 29.172,28.528 28.972,28.728L31.992,31.748ZM33.555,27.973L33.555,23.168L29.285,23.168L29.285,27.973L33.555,27.973ZM0.456,23.168L0.456,27.973L4.727,27.973L4.727,23.168L0.456,23.168ZM0.456,27.973C0.456,29.389 1.019,30.747 2.02,31.748L5.04,28.728C4.839,28.528 4.727,28.256 4.727,27.973L0.456,27.973ZM2.02,31.748C3.021,32.749 4.379,33.311 5.795,33.311L5.795,29.041C5.512,29.041 5.24,28.928 5.04,28.728L2.02,31.748ZM5.795,33.311L10.599,33.311L10.599,29.041L5.795,29.041L5.795,33.311Z" fill="#E4E4E3"/>
</svg>
