<svg width="48" height="44" viewBox="0 0 48 44" fill="none" xmlns="http://www.w3.org/2000/svg" xmlns:xlink="http://www.w3.org/1999/xlink">
<path d="M8.296,42.046C8.344,42.036 8.393,42.027 8.441,42.017C10.542,41.593 12.511,40.631 14.163,39.215C14.71,38.747 15.442,38.537 16.145,38.692C18.369,39.181 20.768,39.445 23.081,39.445C38.563,39.445 47,29.903 47,19.692C47,9.548 38.651,0 23.081,0C8.384,0 -1,10.376 -1,20.587C-1,25.773 1.427,30.734 6.301,34.337C6.911,34.788 7.28,35.527 7.08,36.258C6.887,36.963 6.603,37.635 6.233,38.259C6.231,38.263 6.228,38.268 6.225,38.272C6.15,38.399 6.071,38.524 5.989,38.647C5.699,39.078 5.366,39.484 4.992,39.857C4.105,40.745 4.734,42.262 5.989,42.262C6.437,42.262 6.883,42.238 7.325,42.19C7.651,42.155 7.975,42.106 8.296,42.046ZM11.093,36.551C11.253,36.432 11.409,36.308 11.561,36.177C12.977,34.964 14.972,34.337 17.006,34.785C18.947,35.213 21.058,35.445 23.081,35.445C36.737,35.445 43,27.329 43,19.692C43,12.119 36.822,4 23.081,4C10.295,4 3,12.872 3,20.587C3,24.431 4.765,28.228 8.678,31.12C10.068,32.148 11.416,34.133 11.093,36.551Z" clip-rule="evenodd" fill-rule="evenodd" fill="#E4E4E3"/>
</svg>
