<svg width="34" height="32" viewBox="0 0 34 32" fill="none" xmlns="http://www.w3.org/2000/svg" xmlns:xlink="http://www.w3.org/1999/xlink">
<path d="M16.427,-0.434C7.662,-0.434 0.523,6.705 0.523,15.47C0.523,24.235 7.662,31.374 16.427,31.374C25.192,31.374 32.331,24.235 32.331,15.47C32.331,6.705 25.192,-0.434 16.427,-0.434ZM25.561,12.786L15.572,22.775C15.144,23.202 14.586,23.428 13.98,23.428C13.375,23.428 12.816,23.19 12.389,22.775L7.293,17.679C6.866,17.252 6.64,16.693 6.64,16.088C6.64,15.482 6.878,14.924 7.293,14.496C7.721,14.069 8.279,13.843 8.885,13.843C9.491,13.843 10.049,14.08 10.477,14.496L13.98,18L22.378,9.603C22.805,9.175 23.363,8.938 23.969,8.938C24.575,8.938 25.133,9.175 25.561,9.603C26.44,10.482 26.44,11.907 25.561,12.786Z" fill="#E4E4E3"/>
</svg>
