<svg width="48" height="48" viewBox="0 0 48 48" fill="none" xmlns="http://www.w3.org/2000/svg" xmlns:xlink="http://www.w3.org/1999/xlink">
<path d="M46.664,31.895C47.528,29.422 48,26.765 48,24C48,21.235 47.528,18.578 46.664,16.104C46.643,16.03 46.618,15.957 46.588,15.888C43.254,6.634 34.388,0 24,0C13.612,0 4.746,6.634 1.413,15.888C1.382,15.958 1.357,16.03 1.336,16.104C0.472,18.578 0,21.235 0,24C0,26.765 0.472,29.422 1.336,31.895C1.357,31.97 1.382,32.042 1.413,32.112C4.746,41.366 13.612,48 24,48C34.388,48 43.254,41.365 46.588,32.112C46.618,32.042 46.643,31.97 46.664,31.895ZM24,44.56C23.086,44.56 21.612,42.906 20.381,39.21C19.786,37.427 19.31,35.377 18.964,33.147L29.036,33.147C28.69,35.377 28.214,37.427 27.62,39.21C26.388,42.906 24.914,44.56 24,44.56ZM18.546,29.707C18.381,27.872 18.294,25.958 18.294,24C18.294,22.041 18.381,20.128 18.546,18.293L29.454,18.293C29.619,20.128 29.706,22.041 29.706,24C29.706,25.958 29.619,27.872 29.454,29.707L18.546,29.707ZM3.441,24C3.441,22.021 3.722,20.106 4.247,18.293L15.096,18.293C14.935,20.166 14.853,22.085 14.853,24C14.853,25.916 14.935,27.834 15.096,29.707L4.247,29.707C3.722,27.894 3.441,25.979 3.441,24ZM24,3.44C24.914,3.44 26.388,5.094 27.62,8.79C28.214,10.573 28.69,12.623 29.036,14.853L18.963,14.853C19.31,12.623 19.786,10.573 20.381,8.79C21.612,5.094 23.086,3.44 24,3.44ZM32.904,18.293L43.753,18.293C44.277,20.106 44.559,22.021 44.559,24C44.559,25.979 44.277,27.894 43.753,29.707L32.904,29.707C33.065,27.834 33.147,25.916 33.147,24C33.147,22.085 33.065,20.166 32.904,18.293ZM42.409,14.853L32.51,14.853C31.898,10.634 30.848,6.848 29.375,4.155C35.085,5.703 39.816,9.655 42.409,14.853ZM18.625,4.155C17.152,6.848 16.102,10.633 15.49,14.853L5.591,14.853C8.185,9.655 12.915,5.703 18.625,4.155ZM5.591,33.147L15.49,33.147C16.102,37.366 17.152,41.152 18.625,43.845C12.915,42.297 8.185,38.345 5.591,33.147ZM29.375,43.845C30.848,41.152 31.898,37.367 32.51,33.147L42.409,33.147C39.816,38.345 35.085,42.297 29.375,43.845Z" fill="#E4E4E3"/>
</svg>
