<svg width="34" height="34" viewBox="0 0 34 34" fill="none" xmlns="http://www.w3.org/2000/svg" xmlns:xlink="http://www.w3.org/1999/xlink">
<path d="M17,0.938C8.181,0.938 1,8.119 1,16.938C1,25.756 8.181,32.938 17,32.938C25.819,32.938 33,25.756 33,16.938C33,8.119 25.819,0.938 17,0.938ZM26.189,14.237L16.14,24.286C15.709,24.717 15.148,24.944 14.538,24.944C13.929,24.944 13.367,24.704 12.937,24.286L7.811,19.16C7.381,18.73 7.154,18.168 7.154,17.559C7.154,16.949 7.393,16.388 7.811,15.958C8.241,15.528 8.803,15.3 9.412,15.3C10.022,15.3 10.583,15.539 11.013,15.958L14.538,19.483L22.987,11.035C23.417,10.604 23.978,10.365 24.588,10.365C25.197,10.365 25.759,10.604 26.189,11.035C27.073,11.919 27.073,13.353 26.189,14.237Z" fill="#E4E4E3"/>
</svg>
