<svg width="16" height="26" viewBox="0 0 16 26" fill="none" xmlns="http://www.w3.org/2000/svg" xmlns:xlink="http://www.w3.org/1999/xlink">
<path d="M9.164,-0.317C8.33,-1.151 6.978,-1.152 6.144,-0.318C5.31,0.516 5.31,1.868 6.143,2.702L9.164,-0.317ZM6.143,22.329C5.31,23.163 5.31,24.515 6.144,25.349C6.978,26.183 8.33,26.183 9.164,25.349L6.143,22.329ZM3.51,5.336C2.676,4.502 1.324,4.502 0.49,5.336C-0.344,6.17 -0.344,7.522 0.49,8.356L3.51,5.336ZM0.49,16.659C-0.344,17.493 -0.344,18.846 0.49,19.679C1.324,20.513 2.676,20.513 3.51,19.679L0.49,16.659ZM6.143,2.702C8.746,5.305 10.207,8.835 10.207,12.516L14.478,12.516C14.478,7.703 12.567,3.086 9.164,-0.317L6.143,2.702ZM10.207,12.516C10.207,16.196 8.746,19.726 6.143,22.329L9.164,25.349C12.567,21.945 14.478,17.329 14.478,12.516L10.207,12.516ZM0.49,8.356C1.591,9.457 2.209,10.95 2.209,12.508L6.48,12.508C6.48,9.818 5.412,7.238 3.51,5.336L0.49,8.356ZM2.209,12.508C2.209,14.065 1.591,15.558 0.49,16.659L3.51,19.679C5.412,17.777 6.48,15.197 6.48,12.508L2.209,12.508Z" fill="#E4E4E3"/>
</svg>
