<svg width="32" height="34" viewBox="0 0 32 34" fill="none" xmlns="http://www.w3.org/2000/svg" xmlns:xlink="http://www.w3.org/1999/xlink">
<path d="M16,0.227C7.181,0.227 0,7.408 0,16.227C0,25.045 7.181,32.227 16,32.227C24.819,32.227 32,25.045 32,16.227C32,7.408 24.819,0.227 16,0.227ZM25.189,13.526L15.14,23.575C14.709,24.006 14.148,24.233 13.538,24.233C12.929,24.233 12.367,23.994 11.937,23.575L6.811,18.449C6.381,18.019 6.154,17.457 6.154,16.848C6.154,16.239 6.393,15.677 6.811,15.247C7.241,14.817 7.803,14.59 8.412,14.59C9.022,14.59 9.583,14.829 10.013,15.247L13.538,18.772L21.987,10.324C22.417,9.893 22.978,9.655 23.588,9.655C24.197,9.655 24.759,9.893 25.189,10.324C26.073,11.208 26.073,12.642 25.189,13.526Z" fill="#E4E4E3"/>
</svg>
