<svg width="26" height="48" viewBox="0 0 26 48" fill="none" xmlns="http://www.w3.org/2000/svg" xmlns:xlink="http://www.w3.org/1999/xlink">
<path d="M15.442,1C13.994,-0.448 11.647,-0.448 10.199,0.999C8.751,2.447 8.751,4.794 10.198,6.242L15.442,1ZM10.198,40.312C8.751,41.76 8.751,44.107 10.199,45.555C11.647,47.002 13.994,47.002 15.442,45.554L10.198,40.312ZM5.627,10.814C4.18,9.367 1.833,9.366 0.385,10.814C-1.063,12.261 -1.063,14.608 0.384,16.056L5.627,10.814ZM0.384,30.47C-1.063,31.918 -1.063,34.265 0.385,35.713C1.833,37.16 4.18,37.16 5.627,35.712L0.384,30.47ZM10.198,6.242C14.716,10.76 17.253,16.888 17.253,23.277L24.667,23.277C24.667,14.922 21.349,6.909 15.442,1L10.198,6.242ZM17.253,23.277C17.253,29.666 14.716,35.794 10.198,40.312L15.442,45.554C21.349,39.645 24.667,31.632 24.667,23.277L17.253,23.277ZM0.384,16.056C2.295,17.968 3.369,20.56 3.369,23.263L10.783,23.263C10.783,18.594 8.928,14.116 5.627,10.814L0.384,16.056ZM3.369,23.263C3.369,25.966 2.295,28.559 0.384,30.47L5.627,35.712C8.928,32.41 10.783,27.932 10.783,23.263L3.369,23.263Z" fill="#FFFFFF"/>
</svg>
