<svg width="24" height="26" viewBox="0 0 24 26" fill="none" xmlns="http://www.w3.org/2000/svg" xmlns:xlink="http://www.w3.org/1999/xlink">
<path d="M11.36,9.635C12.813,10.432 14.636,9.9 15.433,8.447C16.229,6.995 15.698,5.171 14.245,4.374L11.36,9.635ZM5.799,6.124L6.705,8.984L5.799,6.124ZM2.255,13.442L5.247,13.229L2.255,13.442ZM5.442,19.523L3.778,22.019L5.442,19.523ZM6.763,20.97L4.421,22.844L6.763,20.97ZM19.911,17.594L22.784,18.456L22.784,18.456L19.911,17.594ZM20.33,12.058L23.322,11.837L20.33,12.058ZM13.693,1.808C12.698,0.482 10.818,0.214 9.493,1.208C8.167,2.202 7.898,4.082 8.893,5.408L13.693,1.808ZM14.245,4.374C11.774,3.019 8.024,2.271 4.892,3.264L6.705,8.984C7.936,8.594 9.982,8.88 11.36,9.635L14.245,4.374ZM4.892,3.264C2.277,4.094 0.785,6.085 0.027,8.031C-0.712,9.929 -0.856,11.991 -0.737,13.656L5.247,13.229C5.172,12.168 5.291,11.049 5.618,10.208C5.927,9.416 6.304,9.111 6.705,8.984L4.892,3.264ZM-0.737,13.656C-0.516,16.756 0.788,20.026 3.778,22.019L7.106,17.027C6.09,16.349 5.378,15.063 5.247,13.229L-0.737,13.656ZM3.778,22.019C3.661,21.941 3.623,21.894 3.674,21.945C3.713,21.984 3.775,22.05 3.862,22.151C4.052,22.373 4.205,22.574 4.421,22.844L9.106,19.096C8.989,18.949 8.695,18.57 8.415,18.244C8.173,17.962 7.695,17.42 7.106,17.027L3.778,22.019ZM4.421,22.844C5.171,23.782 6.163,24.141 6.791,24.291C7.444,24.448 8.082,24.47 8.552,24.465C9.04,24.46 9.511,24.421 9.847,24.393C10.03,24.377 10.161,24.366 10.282,24.357C10.338,24.353 10.381,24.351 10.413,24.349C10.446,24.348 10.458,24.348 10.454,24.348L10.454,18.348C10.234,18.348 10.019,18.361 9.852,18.373C9.682,18.385 9.494,18.401 9.341,18.414C9.003,18.443 8.73,18.463 8.488,18.465C8.229,18.468 8.152,18.447 8.191,18.457C8.204,18.46 8.683,18.567 9.106,19.096L4.421,22.844ZM10.454,24.348C11.854,24.348 14.367,24.442 16.615,23.906C19.011,23.335 21.755,21.887 22.784,18.456L17.037,16.732C16.853,17.346 16.459,17.775 15.224,18.069C13.842,18.399 12.234,18.348 10.454,18.348L10.454,24.348ZM22.784,18.456C23.452,16.229 23.464,13.753 23.322,11.837L17.338,12.28C17.459,13.912 17.396,15.535 17.037,16.732L22.784,18.456ZM23.322,11.837C23.043,8.079 20.022,6.037 18.156,4.879C16.942,4.126 16.249,3.771 15.292,3.145C14.453,2.596 13.963,2.169 13.693,1.808L8.893,5.408C9.794,6.61 10.982,7.495 12.008,8.166C12.917,8.761 14.278,9.534 14.992,9.977C16.98,11.211 17.305,11.831 17.338,12.28L23.322,11.837Z" fill="#F51D1D"/>
</svg>
