<svg width="48" height="48" viewBox="0 0 48 48" fill="none" xmlns="http://www.w3.org/2000/svg" xmlns:xlink="http://www.w3.org/1999/xlink">
<path d="M46.659,22.775C47.876,21.59 48.305,19.85 47.78,18.236C47.256,16.622 45.886,15.467 44.205,15.223L33.829,13.715C33.302,13.638 32.847,13.307 32.611,12.83L27.97,3.426C27.219,1.904 25.698,0.959 24,0.959C22.302,0.959 20.781,1.904 20.029,3.426L15.389,12.83C15.153,13.307 14.698,13.638 14.172,13.715L3.795,15.223C2.114,15.467 0.744,16.622 0.22,18.235C-0.305,19.85 0.124,21.59 1.34,22.774L8.85,30.095C9.231,30.466 9.404,31.001 9.315,31.524L7.542,41.861C7.255,43.534 7.93,45.193 9.303,46.191C10.676,47.188 12.463,47.318 13.967,46.528L23.248,41.648C23.719,41.401 24.281,41.401 24.751,41.648L34.034,46.528C35.537,47.318 37.324,47.188 38.697,46.191C40.07,45.193 40.745,43.534 40.458,41.861L38.685,31.525C38.596,31.001 38.769,30.466 39.15,30.095L46.659,22.775Z" fill="url(#pf_0_i_7465_33959;6923_36503;8277_21034;5875_6516)"/>
<defs>
<linearGradient id="pf_0_i_7465_33959;6923_36503;8277_21034;5875_6516" x1="-46.036" y1="10.096" x2="94.055" y2="37.9" gradientUnits="userSpaceOnUse">
<stop stop-color="#07A856"/>
<stop offset="0.5" stop-color="#5ED36A"/>
<stop offset="1" stop-color="#8EE5FF"/>
</linearGradient>
</defs>
</svg>
