<svg width="36" height="34" viewBox="0 0 36 34" fill="none" xmlns="http://www.w3.org/2000/svg" xmlns:xlink="http://www.w3.org/1999/xlink">
<path d="M35.233,14.11L22.236,0.181C21.817,-0.266 21.16,-0.41 20.601,-0.18C20.028,0.051 19.664,0.628 19.664,1.262L19.664,7.464C19.664,7.742 19.439,7.968 19.161,7.968C8.414,7.968 -0.334,16.994 -0.334,28.083L-0.334,31.183C-0.334,31.904 0.155,32.496 0.84,32.669C0.952,32.697 1.064,32.712 1.175,32.712C1.734,32.712 2.279,32.366 2.545,31.832C5.354,26.021 11.014,22.416 17.303,22.416C18.615,22.416 19.678,23.48 19.678,24.792L19.678,29.121C19.678,29.756 20.056,30.318 20.615,30.563C21.174,30.794 21.831,30.65 22.25,30.203L35.247,16.273C35.806,15.668 35.806,14.73 35.247,14.125L34.089,15.193L34.081,15.185L35.233,14.11ZM32.146,15.199L22.664,5.038L22.664,7.464C22.664,9.399 21.096,10.968 19.161,10.968C10.805,10.968 3.75,17.511 2.78,26.064C6.407,21.891 11.629,19.416 17.303,19.416C20.272,19.416 22.678,21.823 22.678,24.792L22.678,25.346L32.146,15.199ZM34.074,15.191L34.083,15.199L33.042,16.16C33.041,16.159 33.041,16.158 33.04,16.157L34.074,15.191Z" clip-rule="evenodd" fill-rule="evenodd" fill="#E4E4E3"/>
</svg>
