<svg width="36" height="34" viewBox="0 0 36 34" fill="none" xmlns="http://www.w3.org/2000/svg" xmlns:xlink="http://www.w3.org/1999/xlink">
<path d="M35.567,14.231L22.57,0.301C22.151,-0.146 21.494,-0.29 20.935,-0.059C20.362,0.171 19.998,0.748 19.998,1.383L19.998,7.585C19.998,7.863 19.773,8.088 19.495,8.088C8.748,8.088 0,17.115 0,28.203L0,31.304C0,32.024 0.489,32.616 1.174,32.789C1.286,32.818 1.398,32.832 1.509,32.832C2.068,32.832 2.613,32.486 2.879,31.952C5.688,26.141 11.348,22.536 17.637,22.536C18.949,22.536 20.012,23.6 20.012,24.912L20.012,29.242C20.012,29.876 20.39,30.438 20.949,30.683C21.508,30.914 22.165,30.77 22.584,30.323L35.581,16.394C36.14,15.788 36.14,14.851 35.581,14.245L34.423,15.314L34.415,15.306L35.567,14.231ZM32.48,15.32L22.998,5.158L22.998,7.585C22.998,9.519 21.43,11.088 19.495,11.088C11.139,11.088 4.084,17.631 3.114,26.185C6.741,22.011 11.963,19.536 17.637,19.536C20.606,19.536 23.012,21.943 23.012,24.912L23.012,25.466L32.48,15.32ZM34.408,15.311L34.417,15.319L33.376,16.28C33.375,16.279 33.375,16.278 33.374,16.277L34.408,15.311Z" clip-rule="evenodd" fill-rule="evenodd" fill="#E4E4E3"/>
</svg>
