<svg width="24" height="24" viewBox="0 0 24 24" fill="none" xmlns="http://www.w3.org/2000/svg" xmlns:xlink="http://www.w3.org/1999/xlink">
<path d="M12,-1C5.386,-1 0,4.386 0,11C0,17.614 5.386,23 12,23C18.614,23 24,17.614 24,11C24,4.386 18.614,-1 12,-1ZM18.892,8.975L11.355,16.512C11.032,16.834 10.611,17.004 10.154,17.004C9.697,17.004 9.276,16.825 8.953,16.512L5.108,12.667C4.786,12.344 4.615,11.923 4.615,11.466C4.615,11.009 4.795,10.588 5.108,10.265C5.431,9.943 5.852,9.772 6.309,9.772C6.766,9.772 7.187,9.951 7.51,10.265L10.154,12.909L16.49,6.573C16.813,6.25 17.234,6.071 17.691,6.071C18.148,6.071 18.569,6.25 18.892,6.573C19.555,7.236 19.555,8.311 18.892,8.975Z" fill="#62C4E0"/>
</svg>
