<svg width="40" height="38" viewBox="0 0 40 38" fill="none" xmlns="http://www.w3.org/2000/svg" xmlns:xlink="http://www.w3.org/1999/xlink">
<path d="M39.154,16.563L24.789,1.367C24.326,0.88 23.6,0.722 22.982,0.974C22.349,1.226 21.947,1.855 21.947,2.547L21.947,9.862L21.391,9.862C9.513,9.862 -0.156,19.709 -0.156,31.806L-0.156,35.188C-0.156,35.974 0.384,36.619 1.141,36.808C1.265,36.84 1.388,36.855 1.512,36.855C2.13,36.855 2.732,36.478 3.026,35.896C6.13,29.556 12.386,25.624 19.337,25.624L21.963,25.624L21.963,32.938C21.963,33.631 22.38,34.244 22.998,34.512C23.616,34.763 24.342,34.606 24.805,34.118L39.17,18.923C39.788,18.262 39.788,17.239 39.17,16.579Z" fill="#FFFFFF" stroke="#FFFFFF" stroke-width="1" stroke-miterlimit="3.999327"/>
</svg>
