<svg width="16" height="20" viewBox="0 0 16 20" fill="none" xmlns="http://www.w3.org/2000/svg" xmlns:xlink="http://www.w3.org/1999/xlink">
<path d="M4.328,0.224C2.672,0.163 1.281,1.456 1.219,3.111C1.158,4.767 2.45,6.159 4.106,6.22L4.328,0.224ZM12.143,5.864L9.374,4.711L12.143,5.864ZM6.859,11.149L9.338,12.838L6.859,11.149ZM1.198,14.633C0.413,16.092 0.959,17.911 2.417,18.697C3.876,19.482 5.696,18.936 6.481,17.478L1.198,14.633ZM4.106,6.22C3.955,6.215 3.956,6.199 4.254,6.263C4.488,6.314 4.801,6.391 5.178,6.492C5.93,6.694 6.852,6.969 7.743,7.258C8.644,7.549 9.455,7.837 10.003,8.06C10.137,8.115 10.242,8.16 10.321,8.197C10.405,8.235 10.434,8.252 10.424,8.246C10.418,8.243 10.384,8.224 10.333,8.189C10.289,8.159 10.183,8.085 10.056,7.967C9.954,7.873 9.678,7.606 9.457,7.164C9.213,6.678 8.94,5.752 9.374,4.711L14.913,7.018C15.357,5.952 15.081,4.996 14.821,4.477C14.584,4.003 14.278,3.7 14.135,3.567C13.832,3.286 13.52,3.104 13.373,3.021C13.028,2.826 12.624,2.649 12.27,2.505C11.524,2.201 10.555,1.862 9.593,1.55C8.622,1.235 7.601,0.93 6.734,0.697C6.302,0.581 5.887,0.477 5.524,0.399C5.225,0.334 4.761,0.241 4.328,0.224L4.106,6.22ZM9.374,4.711C9.375,4.708 9.359,4.746 9.3,4.829C9.24,4.912 9.147,5.023 9.009,5.164C8.718,5.46 8.334,5.78 7.813,6.192C6.958,6.867 5.353,8.031 4.38,9.459L9.338,12.838C9.657,12.37 10.277,11.892 11.534,10.899C12.471,10.158 14.147,8.856 14.913,7.018L9.374,4.711ZM4.38,9.459C3.241,11.131 2.185,12.8 1.198,14.633L6.481,17.478C7.34,15.883 8.276,14.398 9.338,12.838L4.38,9.459Z" fill="#F51D1D"/>
</svg>
