<svg width="38" height="34" viewBox="0 0 38 34" fill="none" xmlns="http://www.w3.org/2000/svg" xmlns:xlink="http://www.w3.org/1999/xlink">
<path d="M36.234,15.033L23.237,1.104C22.817,0.657 22.161,0.513 21.602,0.743C21.029,0.974 20.665,1.551 20.665,2.185L20.665,8.387C20.665,8.665 20.44,8.891 20.162,8.891C9.415,8.891 0.667,17.917 0.667,29.006L0.667,32.106C0.667,32.827 1.156,33.419 1.841,33.592C1.952,33.62 2.064,33.635 2.176,33.635C2.735,33.635 3.28,33.289 3.546,32.755C6.355,26.944 12.015,23.339 18.303,23.339C19.615,23.339 20.679,24.403 20.679,25.715L20.679,30.044C20.679,30.679 21.057,31.241 21.616,31.486C22.175,31.717 22.831,31.573 23.251,31.126L36.248,17.196C36.807,16.591 36.807,15.653 36.248,15.048L35.09,16.116L35.081,16.108L36.234,15.033ZM33.147,16.122L23.665,5.961L23.665,8.387C23.665,10.322 22.097,11.891 20.162,11.891C11.806,11.891 4.75,18.434 3.78,26.987C7.408,22.814 12.63,20.339 18.303,20.339C21.272,20.339 23.679,22.746 23.679,25.715L23.679,26.269L33.147,16.122ZM35.075,16.114L35.084,16.122L34.043,17.083C34.042,17.082 34.041,17.081 34.04,17.08L35.075,16.114Z" clip-rule="evenodd" fill-rule="evenodd" fill="#E4E4E3"/>
</svg>
