<svg width="28" height="36" viewBox="0 0 28 36" fill="none" xmlns="http://www.w3.org/2000/svg" xmlns:xlink="http://www.w3.org/1999/xlink">
<path d="M24.635,36L3.381,36C3.381,36 3.33,35.948 3.291,35.948C1.469,35.51 0.5,34.271 0.5,32.386C0.5,27.275 0.5,22.164 0.5,17.04C0.5,14.962 1.947,13.517 4.04,13.517L4.996,13.517C4.996,12.058 4.996,10.639 4.996,9.232C4.996,8.638 5.048,8.032 5.138,7.451C5.901,2.74 10.617,-0.655 15.319,0.107C19.842,0.843 23.007,4.547 23.007,9.116C23.007,10.445 23.007,11.787 23.007,13.117L23.007,13.504C23.446,13.504 23.834,13.504 24.209,13.504C26.004,13.543 27.49,14.988 27.49,16.782C27.503,22.087 27.503,27.391 27.49,32.696C27.49,34.077 26.586,35.303 25.268,35.781C25.048,35.858 24.829,35.923 24.609,35.987M19.984,13.478C19.984,12.304 19.984,11.168 19.984,10.019C19.984,9.335 19.984,8.638 19.893,7.954C19.415,4.831 16.25,2.546 13.136,3.063C10.087,3.566 8.02,5.979 7.994,9.077C7.994,10.264 7.994,11.439 7.994,12.626L7.994,13.478L19.997,13.478L19.984,13.478ZM12.49,26.927C12.49,27.12 12.49,27.327 12.49,27.52C12.49,27.882 12.49,28.243 12.49,28.605C12.542,29.366 13.188,29.973 13.963,29.986C14.751,29.986 15.436,29.379 15.462,28.605C15.487,27.572 15.475,26.54 15.462,25.52C15.462,25.236 15.526,25.042 15.785,24.849C16.883,24.036 17.27,22.616 16.754,21.364C16.237,20.099 14.958,19.351 13.601,19.518C12.387,19.673 11.392,20.525 11.082,21.7C10.759,22.9 11.185,24.126 12.193,24.862C12.412,25.017 12.49,25.184 12.477,25.442C12.464,25.933 12.477,26.423 12.477,26.914Z" fill="#A7A6A1"/>
</svg>
