<svg width="48" height="46" viewBox="0 0 48 46" fill="none" xmlns="http://www.w3.org/2000/svg" xmlns:xlink="http://www.w3.org/1999/xlink">
<path d="M46.659,20.841C47.876,19.656 48.305,17.917 47.78,16.303C47.256,14.688 45.886,13.534 44.205,13.289L33.829,11.782C33.302,11.705 32.847,11.374 32.611,10.897L27.97,1.493C27.219,-0.029 25.698,-0.974 24,-0.974C22.302,-0.974 20.781,-0.029 20.029,1.493L15.389,10.897C15.153,11.374 14.698,11.705 14.172,11.781L3.795,13.289C2.114,13.534 0.744,14.688 0.22,16.302C-0.305,17.917 0.124,19.656 1.34,20.841L8.85,28.161C9.231,28.533 9.404,29.067 9.315,29.591L7.542,39.927C7.255,41.601 7.93,43.26 9.303,44.257C10.676,45.255 12.463,45.384 13.967,44.595L23.248,39.715C23.719,39.467 24.281,39.467 24.751,39.715L34.034,44.595C35.537,45.384 37.324,45.255 38.697,44.257C40.07,43.26 40.745,41.601 40.458,39.927L38.685,29.591C38.596,29.067 38.769,28.533 39.15,28.161L46.659,20.841Z" fill="url(#pf_0_i_6986_45363;6986_44722;6968_37501;6968_36662;5882_15848;5875_6516)"/>
<defs>
<linearGradient id="pf_0_i_6986_45363;6986_44722;6968_37501;6968_36662;5882_15848;5875_6516" x1="-46.036" y1="8.163" x2="94.055" y2="35.967" gradientUnits="userSpaceOnUse">
<stop stop-color="#07A856"/>
<stop offset="0.5" stop-color="#5ED36A"/>
<stop offset="1" stop-color="#8EE5FF"/>
</linearGradient>
</defs>
</svg>
