<svg width="48" height="46" viewBox="0 0 48 46" fill="none" xmlns="http://www.w3.org/2000/svg" xmlns:xlink="http://www.w3.org/1999/xlink">
<path d="M32.354,9.597C33.994,9.363 35.133,7.843 34.899,6.203C34.665,4.563 33.145,3.423 31.505,3.657L32.354,9.597ZM17.629,9.257L16.557,6.455L16.557,6.455L17.629,9.257ZM2.344,17.147L5.324,17.49L2.344,17.147ZM17.958,39.582L19.055,36.79L17.958,39.582ZM42.942,28.036L40,27.447L42.942,28.036ZM42.983,13.777L39.996,14.061L42.983,13.777ZM39.309,2.341C38.984,0.716 37.403,-0.338 35.779,-0.013C34.154,0.312 33.1,1.893 33.425,3.517L39.309,2.341ZM31.505,3.657C29.62,3.927 26.638,4.254 24.234,4.62C21.663,5.012 18.917,5.552 16.557,6.455L18.702,12.059C20.443,11.392 22.672,10.927 25.138,10.552C27.771,10.151 29.888,9.949 32.354,9.597L31.505,3.657ZM16.557,6.455C15.916,6.701 14.768,7.054 13.132,7.587C11.578,8.093 9.723,8.718 7.928,9.439C6.16,10.148 4.307,11.005 2.82,12.01C1.527,12.884 -0.364,14.44 -0.637,16.803L5.324,17.49C5.267,17.985 5.027,17.76 6.18,16.981C7.14,16.332 8.53,15.662 10.162,15.007C11.767,14.363 13.468,13.787 14.989,13.292C16.428,12.824 17.872,12.377 18.702,12.059L16.557,6.455ZM-0.637,16.803C-2.068,29.208 6.752,38.403 16.861,42.375L19.055,36.79C10.427,33.4 4.317,26.214 5.324,17.49L-0.637,16.803ZM16.861,42.375C22.845,44.725 28.28,45.87 34.806,45.87L34.806,39.87C29.101,39.87 24.407,38.893 19.055,36.79L16.861,42.375ZM34.806,45.87C37.235,45.87 39,44.314 40.1,42.976C41.262,41.561 42.207,39.763 42.958,38.028C44.471,34.534 45.486,30.611 45.883,28.624L40,27.447C39.659,29.151 38.751,32.644 37.452,35.645C36.797,37.157 36.114,38.375 35.465,39.166C34.752,40.033 34.521,39.87 34.806,39.87L34.806,45.87ZM45.883,28.624C46.824,23.92 46.373,17.727 45.969,13.493L39.996,14.061C40.409,18.395 40.742,23.736 40,27.447L45.883,28.624ZM45.969,13.493C45.651,10.147 43.452,7.787 42.046,6.25C40.364,4.411 39.531,3.451 39.309,2.341L33.425,3.517C34.044,6.609 36.309,8.868 37.619,10.3C39.206,12.034 39.895,12.997 39.996,14.061L45.969,13.493Z" fill="#F24822"/>
</svg>
