<svg width="36" height="36" viewBox="0 0 36 36" fill="none" xmlns="http://www.w3.org/2000/svg" xmlns:xlink="http://www.w3.org/1999/xlink">
<path d="M36,18.055C35.973,27.927 27.88,36 18.003,36C8.081,36.003 -0.024,27.873 0,17.946C0.027,8.029 8.19,-0.063 18.109,0C27.989,0.064 36.024,8.173 36,18.055ZM17.491,3.112C11.657,3.387 5.937,7.512 4.148,12.912C4.042,13.235 4.015,13.675 4.148,13.968C4.82,15.423 5.835,16.512 7.476,16.926C8.714,17.237 9.931,17.632 11.151,18.009C12.711,18.492 13.34,19.34 13.371,20.985C13.383,21.698 13.383,22.413 13.371,23.125C13.355,24.097 13.761,24.779 14.524,25.428C15.057,25.881 15.39,26.665 15.599,27.366C15.772,27.954 15.651,28.63 15.632,29.27C15.611,30.166 15.66,31.051 16.641,31.452C17.585,31.838 18.472,31.543 19.123,30.854C19.62,30.329 20.126,29.656 20.262,28.977C20.601,27.29 21.485,26.122 22.981,25.328C24.131,24.719 24.74,23.726 24.864,22.437C25.118,19.811 23.42,17.889 20.737,18C18.254,18.103 15.959,17.792 13.9,16.265C13.18,15.731 12.535,15.272 12.877,14.282C13.144,13.509 14.3,13.036 15.26,13.268C15.881,13.419 16.492,13.739 17.107,13.73C17.631,13.724 18.379,13.491 18.606,13.111C18.836,12.722 18.745,11.895 18.463,11.49C16.638,8.859 16.607,8.88 18.569,6.423C18.639,6.335 18.712,6.248 18.781,6.16C19.341,5.442 19.544,4.585 19.039,3.861C18.754,3.45 18.018,3.353 17.485,3.112L17.491,3.112ZM30.926,10.826C30.35,11.038 29.857,11.207 29.375,11.397C27.68,12.07 27.238,13.008 27.783,14.768C27.995,15.45 28.213,16.126 28.434,16.805C29.206,19.199 30.005,19.79 32.685,19.872C33.039,16.697 32.491,13.718 30.929,10.826L30.926,10.826Z" fill="#A7A6A1"/>
</svg>
