<svg width="36" height="38" viewBox="0 0 36 38" fill="none" xmlns="http://www.w3.org/2000/svg" xmlns:xlink="http://www.w3.org/1999/xlink">
<path d="M18,36.121C13.192,36.121 8.672,34.249 5.272,30.849C1.872,27.449 0,22.929 0,18.121C0,13.313 1.872,8.793 5.272,5.393C8.672,1.993 13.192,0.121 18,0.121C22.808,0.121 27.328,1.993 30.728,5.393C34.128,8.793 36,13.313 36,18.121C36,22.929 34.128,27.449 30.728,30.849C27.328,34.249 22.808,36.121 18,36.121ZM18,2.934C9.626,2.934 2.813,9.747 2.813,18.121C2.813,26.495 9.626,33.309 18,33.309C26.374,33.309 33.188,26.495 33.188,18.121C33.188,9.747 26.374,2.934 18,2.934ZM17.93,19.457C14.208,19.457 11.18,16.429 11.18,12.707C11.18,8.985 14.208,5.957 17.93,5.957C21.652,5.957 24.68,8.985 24.68,12.707C24.68,16.429 21.652,19.457 17.93,19.457ZM17.93,8.77C15.758,8.77 13.992,10.536 13.992,12.707C13.992,14.878 15.758,16.645 17.93,16.645C20.101,16.645 21.867,14.878 21.867,12.707C21.867,10.536 20.101,8.77 17.93,8.77ZM26.839,27.646C27.44,27.154 27.528,26.268 27.036,25.667C25.047,23.24 22.109,21.848 18.975,21.848L17.306,21.848C14.172,21.848 11.234,23.24 9.245,25.667C8.753,26.268 8.841,27.154 9.442,27.646C10.043,28.139 10.929,28.05 11.421,27.45C12.873,25.677 15.018,24.66 17.306,24.66L18.975,24.66C21.263,24.66 23.408,25.677 24.86,27.45C25.138,27.789 25.542,27.965 25.949,27.965C26.262,27.965 26.578,27.86 26.839,27.646Z" stroke="#E4E4E3" stroke-width="0.75" stroke-miterlimit="3.999327"/>
</svg>
