<svg width="20" height="16" viewBox="0 0 20 16" fill="none" xmlns="http://www.w3.org/2000/svg" xmlns:xlink="http://www.w3.org/1999/xlink">
<path d="M19.474,3.351C20.221,2.537 20.166,1.272 19.351,0.526C18.537,-0.221 17.272,-0.166 16.526,0.649L19.474,3.351ZM7,14L5.526,15.351C5.905,15.765 6.439,16 7,16C7.561,16 8.095,15.765 8.474,15.351L7,14ZM3.474,7.194C2.728,6.38 1.463,6.325 0.649,7.071C-0.166,7.818 -0.221,9.083 0.526,9.897L3.474,7.194ZM16.526,0.649L5.526,12.649L8.474,15.351L19.474,3.351L16.526,0.649ZM8.474,12.649L3.474,7.194L0.526,9.897L5.526,15.351L8.474,12.649Z" fill="#1D1D1B"/>
</svg>
