<svg width="44" height="44" viewBox="0 0 44 44" fill="none" xmlns="http://www.w3.org/2000/svg" xmlns:xlink="http://www.w3.org/1999/xlink">
<path d="M32.338,0C31.346,0.055 30.353,0.166 29.416,0.498C27.927,1.051 26.494,1.881 25.281,3.098C24.932,3.32 24.637,3.617 24.418,3.969C24.199,4.321 24.062,4.717 24.017,5.129C23.971,5.541 24.019,5.958 24.155,6.35C24.292,6.741 24.515,7.096 24.807,7.389C25.1,7.682 25.454,7.906 25.844,8.043C26.234,8.18 26.649,8.228 27.06,8.182C27.471,8.137 27.866,7.999 28.217,7.78C28.567,7.56 28.864,7.264 29.085,6.914C29.692,6.306 30.409,5.974 31.18,5.697C33.11,5.034 35.481,5.31 37.025,6.914C39.175,9.071 39.175,12.667 37.025,14.879L28.754,23.176C26.328,25.61 24.343,25.832 22.91,25.776C21.476,25.721 20.649,25.057 20.649,25.057C20.331,24.876 19.979,24.759 19.616,24.713C19.252,24.668 18.883,24.695 18.53,24.792C18.177,24.89 17.846,25.056 17.557,25.282C17.268,25.508 17.026,25.789 16.845,26.108C16.664,26.428 16.547,26.78 16.502,27.145C16.456,27.51 16.483,27.88 16.58,28.234C16.678,28.589 16.844,28.92 17.069,29.21C17.294,29.5 17.574,29.743 17.892,29.925C17.892,29.925 19.767,31.142 22.524,31.308C25.281,31.474 29.14,30.423 32.504,26.993L40.774,18.696C45.075,14.382 45.075,7.412 40.774,3.153C39.231,1.604 37.411,0.664 35.426,0.221C34.434,0 33.331,0 32.338,0.055L32.338,0ZM21.311,12.777C18.554,12.667 14.749,13.607 11.496,16.926L3.226,25.223C-1.075,29.538 -1.075,36.507 3.226,40.766C6.313,43.864 10.724,44.749 14.584,43.366C16.073,42.813 17.506,41.983 18.719,40.766C19.068,40.544 19.363,40.246 19.582,39.895C19.801,39.543 19.938,39.147 19.983,38.735C20.029,38.323 19.981,37.905 19.845,37.514C19.708,37.123 19.485,36.768 19.193,36.475C18.9,36.182 18.546,35.958 18.156,35.821C17.766,35.683 17.351,35.636 16.94,35.681C16.529,35.727 16.134,35.865 15.783,36.084C15.433,36.304 15.136,36.599 14.915,36.95C14.308,37.558 13.591,37.89 12.82,38.167C10.89,38.83 8.519,38.554 6.975,36.95C4.825,34.792 4.825,31.197 6.975,28.984L15.246,20.687C17.451,18.475 19.381,18.198 20.925,18.254C22.469,18.309 23.516,18.751 23.516,18.751C23.839,18.994 24.212,19.163 24.607,19.246C25.002,19.329 25.411,19.324 25.804,19.231C26.197,19.137 26.565,18.959 26.881,18.708C27.198,18.456 27.456,18.138 27.636,17.776C27.817,17.413 27.916,17.016 27.926,16.611C27.937,16.206 27.859,15.803 27.697,15.432C27.535,15.061 27.294,14.73 26.991,14.462C26.688,14.195 26.33,13.997 25.942,13.884C25.942,13.884 24.068,12.777 21.311,12.667L21.311,12.777Z" fill="#1ED760"/>
</svg>
