<svg width="36" height="26" viewBox="0 0 36 26" fill="none" xmlns="http://www.w3.org/2000/svg" xmlns:xlink="http://www.w3.org/1999/xlink">
<path d="M35.414,3.414C36.195,2.633 36.195,1.367 35.414,0.586C34.633,-0.195 33.367,-0.195 32.586,0.586L35.414,3.414ZM12,24L10.586,25.414C11.367,26.195 12.633,26.195 13.414,25.414L12,24ZM3.414,12.586C2.633,11.805 1.367,11.805 0.586,12.586C-0.195,13.367 -0.195,14.633 0.586,15.414L3.414,12.586ZM32.586,0.586L10.586,22.586L13.414,25.414L35.414,3.414L32.586,0.586ZM13.414,22.586L3.414,12.586L0.586,15.414L10.586,25.414L13.414,22.586Z" fill="#1ED760"/>
</svg>
