<svg width="36" height="24" viewBox="0 0 36 24" fill="none" xmlns="http://www.w3.org/2000/svg" xmlns:xlink="http://www.w3.org/1999/xlink">
<path d="M-1,11.906C-0.831,11.315 -0.295,11.091 0.134,10.788C1.728,9.655 3.337,8.553 4.931,7.436C6.387,6.414 7.843,5.376 9.314,4.354C10.463,3.54 11.628,2.742 12.793,1.928C13.636,1.337 14.463,0.746 15.306,0.156C15.766,-0.164 16.517,-0.004 16.548,0.746C16.548,0.826 16.548,0.89 16.548,0.97C16.548,2.726 16.548,4.482 16.548,6.254C16.548,6.318 16.548,6.398 16.548,6.462C16.517,6.845 16.517,6.861 16.869,6.893C18.279,7.052 19.659,7.388 21.023,7.787C22.065,8.09 23.076,8.441 24.088,8.84C25.237,9.287 26.356,9.862 27.429,10.485C28.287,10.98 29.114,11.554 29.865,12.209C30.463,12.736 31.045,13.279 31.582,13.869C32.333,14.683 32.946,15.609 33.467,16.615C34.065,17.749 34.463,18.946 34.708,20.207C34.816,20.75 34.861,21.293 34.923,21.852C34.969,22.283 34.984,22.73 34.999,23.161C35.015,23.64 34.724,23.927 34.279,23.959C33.835,24.007 33.666,23.703 33.513,23.384C33.13,22.65 32.67,21.995 32.118,21.389C31.26,20.431 30.264,19.664 29.176,19.042C28.287,18.531 27.352,18.1 26.356,17.829C25.62,17.621 24.885,17.413 24.134,17.254C23.597,17.142 23.061,17.094 22.525,17.03C22.003,16.966 21.482,16.934 20.977,16.903C20.517,16.871 20.042,16.839 19.567,16.823C18.617,16.791 17.651,16.759 16.701,16.743C16.655,16.743 16.609,16.743 16.548,16.743L16.548,17.014C16.548,19.026 16.548,21.037 16.548,23.049C16.548,23.416 16.486,23.735 16.118,23.911C15.843,24.039 15.597,24.039 15.337,23.847C14.019,22.921 12.716,21.995 11.398,21.069C10.448,20.399 9.483,19.728 8.532,19.058C7.322,18.212 6.126,17.381 4.931,16.535C3.475,15.514 2.034,14.492 0.579,13.47C0.149,13.167 -0.295,12.864 -0.709,12.544C-0.847,12.432 -0.908,12.225 -1,12.065L-1,11.906Z" fill="#1ED760"/>
</svg>
