<svg width="34" height="34" viewBox="0 0 34 34" fill="none" xmlns="http://www.w3.org/2000/svg" xmlns:xlink="http://www.w3.org/1999/xlink">
<path d="M24.754,-0.5C24.009,-0.459 23.265,-0.376 22.562,-0.127C21.445,0.288 20.37,0.911 19.461,1.823C19.199,1.99 18.978,2.213 18.814,2.477C18.649,2.741 18.547,3.038 18.512,3.347C18.478,3.656 18.514,3.969 18.617,4.262C18.719,4.556 18.886,4.822 19.106,5.042C19.325,5.262 19.59,5.429 19.883,5.532C20.175,5.635 20.487,5.671 20.795,5.637C21.103,5.603 21.399,5.499 21.662,5.335C21.925,5.17 22.148,4.948 22.314,4.686C22.769,4.229 23.306,3.98 23.885,3.773C25.333,3.275 27.111,3.483 28.269,4.686C29.882,6.304 29.882,9 28.269,10.66L22.066,16.882C20.246,18.708 18.758,18.874 17.682,18.832C16.607,18.791 15.987,18.293 15.987,18.293C15.748,18.157 15.485,18.069 15.212,18.035C14.939,18.001 14.662,18.021 14.397,18.094C14.132,18.167 13.884,18.292 13.668,18.462C13.451,18.631 13.269,18.841 13.133,19.081C12.998,19.321 12.91,19.585 12.876,19.859C12.842,20.132 12.862,20.41 12.935,20.676C13.008,20.941 13.133,21.19 13.302,21.408C13.47,21.625 13.68,21.807 13.919,21.944C13.919,21.944 15.325,22.856 17.393,22.981C19.461,23.105 22.355,22.317 24.878,19.745L31.081,13.522C34.306,10.286 34.306,5.059 31.081,1.865C29.923,0.703 28.558,-0.002 27.07,-0.334C26.325,-0.5 25.498,-0.5 24.754,-0.459L24.754,-0.5ZM16.483,9.083C14.415,9 11.562,9.705 9.122,12.195L2.919,18.417C-0.306,21.653 -0.306,26.88 2.919,30.075C5.235,32.398 8.543,33.062 11.438,32.025C12.555,31.61 13.63,30.987 14.539,30.075C14.801,29.908 15.022,29.685 15.186,29.421C15.351,29.157 15.453,28.86 15.488,28.551C15.522,28.242 15.486,27.929 15.383,27.636C15.281,27.342 15.114,27.076 14.894,26.856C14.675,26.636 14.41,26.469 14.117,26.366C13.825,26.263 13.513,26.227 13.205,26.261C12.897,26.295 12.601,26.399 12.338,26.563C12.075,26.728 11.852,26.95 11.686,27.212C11.231,27.669 10.694,27.917 10.115,28.125C8.667,28.623 6.889,28.415 5.731,27.212C4.118,25.594 4.118,22.898 5.731,21.238L11.934,15.016C13.588,13.356 15.036,13.149 16.194,13.19C17.351,13.232 18.137,13.564 18.137,13.564C18.38,13.746 18.659,13.873 18.955,13.935C19.252,13.997 19.558,13.993 19.853,13.923C20.148,13.853 20.423,13.719 20.661,13.531C20.898,13.342 21.092,13.104 21.227,12.832C21.363,12.56 21.437,12.262 21.445,11.958C21.453,11.654 21.394,11.353 21.273,11.074C21.152,10.796 20.971,10.547 20.743,10.347C20.516,10.146 20.248,9.998 19.957,9.913C19.957,9.913 18.551,9.083 16.483,9L16.483,9.083Z" fill="#E4E4E3"/>
</svg>
