<svg width="38" height="34" viewBox="0 0 38 34" fill="none" xmlns="http://www.w3.org/2000/svg" xmlns:xlink="http://www.w3.org/1999/xlink">
<path d="M35.901,13.899L22.904,-0.031C22.485,-0.478 21.828,-0.622 21.269,-0.391C20.696,-0.161 20.332,0.416 20.332,1.051L20.332,7.253C20.332,7.531 20.107,7.756 19.829,7.756C9.082,7.756 0.334,16.783 0.334,27.871L0.334,30.972C0.334,31.692 0.823,32.284 1.508,32.457C1.62,32.486 1.731,32.5 1.843,32.5C2.402,32.5 2.947,32.154 3.213,31.62C6.022,25.809 11.682,22.204 17.971,22.204C19.283,22.204 20.346,23.268 20.346,24.58L20.346,28.91C20.346,29.544 20.724,30.106 21.283,30.351C21.842,30.582 22.499,30.438 22.918,29.991L35.915,16.062C36.474,15.456 36.474,14.519 35.915,13.913L34.757,14.981L34.749,14.974L35.901,13.899ZM32.814,14.988L23.332,4.826L23.332,7.253C23.332,9.187 21.764,10.756 19.829,10.756C11.473,10.756 4.418,17.299 3.448,25.853C7.075,21.679 12.297,19.204 17.971,19.204C20.94,19.204 23.346,21.611 23.346,24.58L23.346,25.134L32.814,14.988ZM34.742,14.979L34.751,14.987L33.71,15.948C33.709,15.947 33.709,15.946 33.708,15.945L34.742,14.979Z" clip-rule="evenodd" fill-rule="evenodd" fill="#E4E4E3"/>
</svg>
