<svg width="48" height="44" viewBox="0 0 48 44" fill="none" xmlns="http://www.w3.org/2000/svg" xmlns:xlink="http://www.w3.org/1999/xlink">
<path d="M9.296,42.882C9.344,42.872 9.393,42.863 9.441,42.853C11.542,42.429 13.511,41.467 15.163,40.051C15.71,39.583 16.442,39.373 17.145,39.528C19.369,40.017 21.768,40.281 24.081,40.281C39.563,40.281 48,30.739 48,20.528C48,10.384 39.651,0.836 24.081,0.836C9.384,0.836 0,11.212 0,21.423C0,26.609 2.427,31.57 7.301,35.173C7.911,35.624 8.28,36.363 8.08,37.094C7.887,37.799 7.603,38.471 7.233,39.095C7.231,39.099 7.228,39.104 7.225,39.108C7.15,39.235 7.071,39.36 6.989,39.483C6.699,39.914 6.366,40.32 5.992,40.693C5.105,41.581 5.734,43.098 6.989,43.098C7.437,43.098 7.883,43.074 8.325,43.026C8.651,42.991 8.975,42.942 9.296,42.882ZM12.093,37.387C12.253,37.268 12.409,37.144 12.561,37.013C13.977,35.8 15.972,35.173 18.006,35.621C19.947,36.049 22.058,36.281 24.081,36.281C37.737,36.281 44,28.165 44,20.528C44,12.955 37.822,4.836 24.081,4.836C11.295,4.836 4,13.708 4,21.423C4,25.267 5.765,29.064 9.678,31.956C11.068,32.984 12.416,34.969 12.093,37.387Z" clip-rule="evenodd" fill-rule="evenodd" fill="#E4E4E3"/>
</svg>
