<svg width="48" height="48" viewBox="0 0 48 48" fill="none" xmlns="http://www.w3.org/2000/svg" xmlns:xlink="http://www.w3.org/1999/xlink">
<path d="M24,-1C10.772,-1 0,9.772 0,23C0,36.228 10.772,47 24,47C37.228,47 48,36.228 48,23C48,9.772 37.228,-1 24,-1ZM37.783,18.949L22.709,34.023C22.064,34.668 21.222,35.009 20.308,35.009C19.394,35.009 18.551,34.65 17.906,34.023L10.217,26.334C9.571,25.689 9.231,24.846 9.231,23.932C9.231,23.018 9.589,22.176 10.217,21.53C10.862,20.885 11.704,20.544 12.618,20.544C13.532,20.544 14.375,20.903 15.02,21.53L20.308,26.818L32.98,14.146C33.625,13.5 34.468,13.142 35.382,13.142C36.296,13.142 37.138,13.5 37.783,14.146C39.11,15.472 39.11,17.623 37.783,18.949Z" fill="#E4E4E3"/>
</svg>
