<svg width="40" height="36" viewBox="0 0 40 36" fill="none" xmlns="http://www.w3.org/2000/svg" xmlns:xlink="http://www.w3.org/1999/xlink">
<path d="M39.154,14.736L24.789,-0.459C24.326,-0.947 23.6,-1.104 22.982,-0.853C22.349,-0.601 21.947,0.028 21.947,0.72L21.947,8.035L21.391,8.035C9.513,8.035 -0.156,17.882 -0.156,29.979L-0.156,33.361C-0.156,34.148 0.384,34.793 1.141,34.982C1.265,35.013 1.388,35.029 1.512,35.029C2.13,35.029 2.732,34.651 3.026,34.069C6.13,27.73 12.386,23.797 19.337,23.797L21.963,23.797L21.963,31.112C21.963,31.804 22.38,32.418 22.998,32.685C23.616,32.937 24.342,32.779 24.805,32.292L39.17,17.096C39.788,16.435 39.788,15.413 39.17,14.752Z" fill="#FFFFFF" stroke="#FFFFFF" stroke-width="1" stroke-miterlimit="3.999327"/>
</svg>
