<svg width="34" height="34" viewBox="0 0 34 34" fill="none" xmlns="http://www.w3.org/2000/svg" xmlns:xlink="http://www.w3.org/1999/xlink">
<path d="M23.754,-0.5C23.009,-0.459 22.265,-0.376 21.562,-0.127C20.445,0.288 19.37,0.911 18.461,1.823C18.199,1.99 17.978,2.213 17.814,2.477C17.649,2.741 17.547,3.038 17.512,3.347C17.478,3.656 17.514,3.969 17.617,4.262C17.719,4.555 17.886,4.822 18.106,5.042C18.325,5.262 18.59,5.429 18.883,5.532C19.175,5.635 19.487,5.671 19.795,5.637C20.103,5.603 20.399,5.499 20.662,5.335C20.925,5.17 21.148,4.948 21.314,4.686C21.769,4.229 22.306,3.98 22.885,3.773C24.333,3.275 26.111,3.483 27.269,4.686C28.882,6.304 28.882,9 27.269,10.66L21.066,16.882C19.246,18.708 17.758,18.874 16.682,18.832C15.607,18.791 14.987,18.293 14.987,18.293C14.748,18.157 14.485,18.069 14.212,18.035C13.939,18.001 13.662,18.021 13.397,18.094C13.132,18.167 12.884,18.292 12.668,18.462C12.451,18.631 12.269,18.841 12.133,19.081C11.998,19.321 11.91,19.585 11.876,19.859C11.842,20.132 11.862,20.41 11.935,20.676C12.008,20.941 12.133,21.19 12.302,21.408C12.47,21.625 12.68,21.807 12.919,21.944C12.919,21.944 14.325,22.856 16.393,22.981C18.461,23.105 21.355,22.317 23.878,19.745L30.081,13.522C33.306,10.286 33.306,5.059 30.081,1.865C28.923,0.703 27.558,-0.002 26.07,-0.334C25.325,-0.5 24.498,-0.5 23.754,-0.459L23.754,-0.5ZM15.483,9.083C13.415,9 10.562,9.705 8.122,12.195L1.919,18.417C-1.306,21.653 -1.306,26.88 1.919,30.075C4.235,32.398 7.543,33.062 10.438,32.025C11.555,31.61 12.63,30.987 13.539,30.075C13.801,29.908 14.022,29.685 14.186,29.421C14.351,29.157 14.453,28.86 14.488,28.551C14.522,28.242 14.486,27.929 14.383,27.636C14.281,27.342 14.114,27.076 13.894,26.856C13.675,26.636 13.41,26.469 13.117,26.366C12.825,26.263 12.513,26.227 12.205,26.261C11.897,26.295 11.601,26.399 11.338,26.563C11.075,26.728 10.852,26.95 10.686,27.212C10.231,27.669 9.694,27.917 9.115,28.125C7.667,28.623 5.889,28.415 4.731,27.212C3.118,25.594 3.118,22.898 4.731,21.238L10.934,15.016C12.588,13.356 14.036,13.149 15.194,13.19C16.352,13.232 17.137,13.564 17.137,13.564C17.38,13.746 17.659,13.873 17.955,13.935C18.252,13.997 18.558,13.993 18.853,13.923C19.148,13.853 19.423,13.719 19.661,13.531C19.898,13.342 20.092,13.104 20.227,12.832C20.363,12.56 20.437,12.262 20.445,11.958C20.453,11.654 20.394,11.353 20.273,11.074C20.152,10.796 19.971,10.547 19.743,10.347C19.516,10.146 19.248,9.998 18.957,9.913C18.957,9.913 17.551,9.083 15.483,9L15.483,9.083Z" fill="#E4E4E3"/>
</svg>
