<svg width="32" height="32" viewBox="0 0 32 32" fill="none" xmlns="http://www.w3.org/2000/svg" xmlns:xlink="http://www.w3.org/1999/xlink">
<path d="M16,-0.879C7.181,-0.879 0,6.303 0,15.121C0,23.94 7.181,31.121 16,31.121C24.819,31.121 32,23.94 32,15.121C32,6.303 24.819,-0.879 16,-0.879ZM25.189,12.421L15.14,22.47C14.709,22.9 14.148,23.127 13.538,23.127C12.929,23.127 12.367,22.888 11.937,22.47L6.811,17.344C6.381,16.913 6.154,16.352 6.154,15.742C6.154,15.133 6.393,14.571 6.811,14.141C7.241,13.711 7.803,13.484 8.412,13.484C9.022,13.484 9.583,13.723 10.013,14.141L13.538,17.666L21.987,9.218C22.417,8.788 22.978,8.549 23.588,8.549C24.197,8.549 24.759,8.788 25.189,9.218C26.073,10.102 26.073,11.536 25.189,12.421Z" fill="#E4E4E3"/>
</svg>
