<svg width="34" height="34" viewBox="0 0 34 34" fill="none" xmlns="http://www.w3.org/2000/svg" xmlns:xlink="http://www.w3.org/1999/xlink">
<path d="M17,1C8.181,1 1,8.181 1,17C1,25.819 8.181,33 17,33C25.819,33 33,25.819 33,17C33,8.181 25.819,1 17,1ZM26.189,14.299L16.14,24.349C15.709,24.779 15.148,25.006 14.538,25.006C13.929,25.006 13.367,24.767 12.937,24.349L7.811,19.223C7.381,18.792 7.154,18.231 7.154,17.621C7.154,17.012 7.393,16.45 7.811,16.02C8.241,15.59 8.803,15.363 9.412,15.363C10.022,15.363 10.583,15.602 11.013,16.02L14.538,19.545L22.987,11.097C23.417,10.667 23.978,10.428 24.588,10.428C25.197,10.428 25.759,10.667 26.189,11.097C27.073,11.981 27.073,13.415 26.189,14.299Z" fill="#E4E4E3"/>
</svg>
