<svg width="16" height="28" viewBox="0 0 16 28" fill="none" xmlns="http://www.w3.org/2000/svg" xmlns:xlink="http://www.w3.org/1999/xlink">
<path d="M9.163,1.547C8.329,0.713 6.977,0.713 6.143,1.546C5.309,2.38 5.309,3.732 6.143,4.566L9.163,1.547ZM6.143,24.193C5.309,25.027 5.309,26.379 6.143,27.213C6.977,28.047 8.329,28.047 9.163,27.213L6.143,24.193ZM3.51,7.2C2.676,6.366 1.324,6.366 0.49,7.2C-0.344,8.034 -0.345,9.386 0.489,10.22L3.51,7.2ZM0.489,18.524C-0.345,19.358 -0.344,20.71 0.49,21.544C1.324,22.377 2.676,22.377 3.51,21.543L0.489,18.524ZM6.143,4.566C8.745,7.169 10.207,10.699 10.207,14.38L14.478,14.38C14.478,9.567 12.566,4.951 9.163,1.547L6.143,4.566ZM10.207,14.38C10.207,18.06 8.745,21.59 6.143,24.193L9.163,27.213C12.566,23.809 14.478,19.193 14.478,14.38L10.207,14.38ZM0.489,10.22C1.59,11.321 2.209,12.815 2.209,14.372L6.48,14.372C6.48,11.682 5.411,9.103 3.51,7.2L0.489,10.22ZM2.209,14.372C2.209,15.929 1.59,17.422 0.489,18.524L3.51,21.543C5.411,19.641 6.48,17.061 6.48,14.372L2.209,14.372Z" fill="#E4E4E3"/>
</svg>
