<svg width="48" height="48" viewBox="0 0 48 48" fill="none" xmlns="http://www.w3.org/2000/svg" xmlns:xlink="http://www.w3.org/1999/xlink">
<path d="M40.024,7.975C38.983,6.933 37.294,6.933 36.253,7.974C35.211,9.016 35.211,10.704 36.252,11.746L40.024,7.975ZM36.252,36.255C35.211,37.297 35.211,38.985 36.253,40.026C37.294,41.068 38.983,41.067 40.024,40.026L36.252,36.255ZM32.964,15.035C31.923,13.993 30.234,13.993 29.193,15.034C28.151,16.076 28.151,17.764 29.192,18.806L32.964,15.035ZM29.192,29.175C28.151,30.217 28.151,31.905 29.193,32.946C30.234,33.988 31.923,33.987 32.964,32.946L29.192,29.175ZM36.252,11.746C39.502,14.996 41.327,19.404 41.327,24L46.661,24C46.661,17.99 44.273,12.226 40.024,7.975L36.252,11.746ZM41.327,24C41.327,28.597 39.502,33.005 36.252,36.255L40.024,40.026C44.273,35.775 46.661,30.011 46.661,24L41.327,24ZM29.192,18.806C30.567,20.181 31.339,22.046 31.339,23.99L36.673,23.99C36.673,20.632 35.339,17.41 32.964,15.035L29.192,18.806ZM31.339,23.99C31.339,25.935 30.567,27.8 29.192,29.175L32.964,32.946C35.339,30.57 36.673,27.349 36.673,23.99L31.339,23.99Z" fill="#E4E4E3"/>
</svg>
