<svg width="48" height="48" viewBox="0 0 48 48" fill="none" xmlns="http://www.w3.org/2000/svg" xmlns:xlink="http://www.w3.org/1999/xlink">
<path d="M39.026,7.974C37.985,6.932 36.296,6.932 35.255,7.973C34.213,9.015 34.213,10.703 35.254,11.745L39.026,7.974ZM35.254,36.254C34.213,37.296 34.213,38.984 35.255,40.025C36.296,41.067 37.985,41.066 39.026,40.025L35.254,36.254ZM31.966,15.034C30.925,13.992 29.236,13.992 28.195,15.033C27.153,16.075 27.153,17.763 28.194,18.805L31.966,15.034ZM28.194,29.174C27.153,30.216 27.153,31.904 28.195,32.945C29.236,33.987 30.925,33.986 31.966,32.945L28.194,29.174ZM35.254,11.745C38.504,14.995 40.329,19.403 40.329,23.999L45.662,23.999C45.662,17.989 43.275,12.225 39.026,7.974L35.254,11.745ZM40.329,23.999C40.329,28.596 38.504,33.004 35.254,36.254L39.026,40.025C43.275,35.774 45.662,30.01 45.662,23.999L40.329,23.999ZM28.194,18.805C29.569,20.18 30.341,22.045 30.341,23.989L35.675,23.989C35.675,20.631 34.341,17.409 31.966,15.034L28.194,18.805ZM30.341,23.989C30.341,25.934 29.569,27.799 28.194,29.174L31.966,32.945C34.341,30.569 35.675,27.348 35.675,23.989L30.341,23.989Z" fill="#FFFFFF"/>
</svg>
