<svg width="48" height="48" viewBox="0 0 48 48" fill="none" xmlns="http://www.w3.org/2000/svg" xmlns:xlink="http://www.w3.org/1999/xlink">
<path d="M40.026,7.974C38.985,6.932 37.296,6.932 36.255,7.973C35.213,9.015 35.213,10.703 36.254,11.745L40.026,7.974ZM36.254,36.254C35.213,37.296 35.213,38.984 36.255,40.025C37.296,41.067 38.985,41.066 40.026,40.025L36.254,36.254ZM32.966,15.034C31.925,13.992 30.236,13.992 29.195,15.033C28.153,16.075 28.153,17.763 29.194,18.805L32.966,15.034ZM29.194,29.174C28.153,30.216 28.153,31.904 29.195,32.945C30.236,33.987 31.925,33.986 32.966,32.945L29.194,29.174ZM36.254,11.745C39.504,14.995 41.329,19.403 41.329,23.999L46.662,23.999C46.662,17.989 44.275,12.225 40.026,7.974L36.254,11.745ZM41.329,23.999C41.329,28.596 39.504,33.004 36.254,36.254L40.026,40.025C44.275,35.774 46.662,30.01 46.662,23.999L41.329,23.999ZM29.194,18.805C30.569,20.18 31.341,22.045 31.341,23.989L36.675,23.989C36.675,20.631 35.341,17.409 32.966,15.034L29.194,18.805ZM31.341,23.989C31.341,25.934 30.569,27.799 29.194,29.174L32.966,32.945C35.341,30.569 36.675,27.348 36.675,23.989L31.341,23.989Z" fill="#E4E4E3"/>
</svg>
