<svg width="48" height="48" viewBox="0 0 48 48" fill="none" xmlns="http://www.w3.org/2000/svg" xmlns:xlink="http://www.w3.org/1999/xlink">
<path d="M40.026,7.975C38.985,6.933 37.296,6.933 36.255,7.974C35.213,9.015 35.213,10.704 36.254,11.745L40.026,7.975ZM36.254,36.255C35.213,37.296 35.213,38.985 36.255,40.026C37.296,41.067 38.985,41.067 40.026,40.025L36.254,36.255ZM32.966,15.035C31.925,13.993 30.236,13.993 29.195,15.034C28.153,16.075 28.153,17.764 29.194,18.805L32.966,15.035ZM29.194,29.175C28.153,30.216 28.153,31.905 29.195,32.946C30.236,33.987 31.925,33.987 32.966,32.945L29.194,29.175ZM36.254,11.745C39.504,14.996 41.329,19.404 41.329,24L46.662,24C46.662,17.99 44.275,12.225 40.026,7.975L36.254,11.745ZM41.329,24C41.329,28.596 39.504,33.004 36.254,36.255L40.026,40.025C44.275,35.775 46.662,30.01 46.662,24L41.329,24ZM29.194,18.805C30.569,20.181 31.341,22.045 31.341,23.99L36.675,23.99C36.675,20.631 35.341,17.41 32.966,15.035L29.194,18.805ZM31.341,23.99C31.341,25.935 30.569,27.799 29.194,29.175L32.966,32.945C35.341,30.57 36.675,27.349 36.675,23.99L31.341,23.99Z" fill="#E4E4E3"/>
</svg>
