<svg width="50" height="50" viewBox="0 0 50 50" fill="none" xmlns="http://www.w3.org/2000/svg" xmlns:xlink="http://www.w3.org/1999/xlink">
<path d="M41.026,8.912C39.985,7.87 38.296,7.87 37.255,8.911C36.213,9.953 36.213,11.641 37.254,12.683L41.026,8.912ZM37.254,37.192C36.213,38.234 36.213,39.922 37.255,40.963C38.296,42.005 39.985,42.004 41.026,40.963L37.254,37.192ZM33.966,15.972C32.925,14.93 31.236,14.93 30.195,15.971C29.153,17.013 29.153,18.701 30.194,19.743L33.966,15.972ZM30.194,30.112C29.153,31.154 29.153,32.842 30.195,33.883C31.236,34.925 32.925,34.924 33.966,33.883L30.194,30.112ZM37.254,12.683C40.504,15.933 42.329,20.341 42.329,24.937L47.662,24.937C47.662,18.927 45.275,13.163 41.026,8.912L37.254,12.683ZM42.329,24.937C42.329,29.534 40.504,33.942 37.254,37.192L41.026,40.963C45.275,36.712 47.662,30.948 47.662,24.937L42.329,24.937ZM30.194,19.743C31.569,21.118 32.341,22.983 32.341,24.927L37.675,24.927C37.675,21.569 36.341,18.347 33.966,15.972L30.194,19.743ZM32.341,24.927C32.341,26.872 31.569,28.737 30.194,30.112L33.966,33.883C36.341,31.507 37.675,28.286 37.675,24.927L32.341,24.927Z" fill="#E4E4E3"/>
</svg>
