<svg width="50" height="50" viewBox="0 0 50 50" fill="none" xmlns="http://www.w3.org/2000/svg" xmlns:xlink="http://www.w3.org/1999/xlink">
<path d="M40.643,8.412C39.602,7.37 37.913,7.37 36.872,8.411C35.83,9.452 35.83,11.141 36.871,12.182L40.643,8.412ZM36.871,36.691C35.83,37.733 35.83,39.421 36.872,40.463C37.913,41.504 39.602,41.504 40.643,40.462L36.871,36.691ZM33.583,15.472C32.542,14.43 30.853,14.43 29.812,15.471C28.77,16.512 28.77,18.201 29.811,19.242L33.583,15.472ZM29.811,29.612C28.77,30.653 28.77,32.341 29.812,33.383C30.853,34.424 32.542,34.424 33.583,33.382L29.811,29.612ZM36.871,12.182C40.121,15.433 41.946,19.841 41.946,24.437L47.28,24.437C47.28,18.426 44.893,12.662 40.643,8.412L36.871,12.182ZM41.946,24.437C41.946,29.033 40.121,33.441 36.871,36.691L40.643,40.462C44.893,36.212 47.28,30.447 47.28,24.437L41.946,24.437ZM29.811,19.242C31.186,20.617 31.958,22.482 31.958,24.427L37.292,24.427C37.292,21.068 35.958,17.847 33.583,15.472L29.811,19.242ZM31.958,24.427C31.958,26.371 31.186,28.236 29.811,29.612L33.583,33.382C35.958,31.007 37.292,27.786 37.292,24.427L31.958,24.427Z" fill="#E4E4E3"/>
</svg>
