<svg width="48" height="46" viewBox="0 0 48 46" fill="none" xmlns="http://www.w3.org/2000/svg" xmlns:xlink="http://www.w3.org/1999/xlink">
<path d="M38.863,7.09C37.869,6.096 36.257,6.095 35.262,7.09C34.267,8.084 34.267,9.696 35.261,10.691L38.863,7.09ZM35.261,34.097C34.267,35.091 34.267,36.704 35.262,37.698C36.257,38.692 37.869,38.692 38.863,37.697L35.261,34.097ZM32.121,13.832C31.127,12.838 29.515,12.837 28.52,13.832C27.525,14.826 27.525,16.438 28.519,17.433L32.121,13.832ZM28.519,27.335C27.525,28.33 27.525,29.943 28.52,30.937C29.515,31.931 31.127,31.931 32.121,30.936L28.519,27.335ZM35.261,10.691C38.365,13.795 40.108,18.005 40.108,22.394L45.201,22.394C45.201,16.654 42.921,11.149 38.863,7.09L35.261,10.691ZM40.108,22.394C40.108,26.783 38.365,30.993 35.261,34.097L38.863,37.697C42.921,33.638 45.201,28.134 45.201,22.394L40.108,22.394ZM28.519,17.433C29.832,18.746 30.57,20.527 30.57,22.384L35.663,22.384C35.663,19.177 34.389,16.101 32.121,13.832L28.519,17.433ZM30.57,22.384C30.57,24.241 29.832,26.022 28.519,27.335L32.121,30.936C34.389,28.668 35.663,25.592 35.663,22.384L30.57,22.384Z" fill="#E4E4E3"/>
</svg>
