<svg width="48" height="48" viewBox="0 0 48 48" fill="none" xmlns="http://www.w3.org/2000/svg" xmlns:xlink="http://www.w3.org/1999/xlink">
<path d="M40.026,7.611C38.985,6.569 37.296,6.569 36.255,7.61C35.213,8.651 35.213,10.34 36.254,11.381L40.026,7.611ZM36.254,35.891C35.213,36.932 35.213,38.621 36.255,39.662C37.296,40.703 38.985,40.703 40.026,39.661L36.254,35.891ZM32.966,14.671C31.925,13.629 30.236,13.629 29.195,14.67C28.153,15.711 28.153,17.4 29.194,18.441L32.966,14.671ZM29.194,28.811C28.153,29.852 28.153,31.541 29.195,32.582C30.236,33.623 31.925,33.623 32.966,32.581L29.194,28.811ZM36.254,11.381C39.504,14.632 41.329,19.04 41.329,23.636L46.662,23.636C46.662,17.626 44.275,11.861 40.026,7.611L36.254,11.381ZM41.329,23.636C41.329,28.232 39.504,32.64 36.254,35.891L40.026,39.661C44.275,35.411 46.662,29.646 46.662,23.636L41.329,23.636ZM29.194,18.441C30.569,19.817 31.341,21.682 31.341,23.626L36.675,23.626C36.675,20.267 35.341,17.046 32.966,14.671L29.194,18.441ZM31.341,23.626C31.341,25.571 30.569,27.436 29.194,28.811L32.966,32.581C35.341,30.206 36.675,26.985 36.675,23.626L31.341,23.626Z" fill="#E4E4E3"/>
</svg>
