<svg width="28" height="28" viewBox="0 0 28 28" fill="none" xmlns="http://www.w3.org/2000/svg" xmlns:xlink="http://www.w3.org/1999/xlink">
<path d="M23.097,4.887C22.505,4.295 21.545,4.295 20.953,4.887C20.361,5.479 20.361,6.439 20.953,7.031L23.097,4.887ZM20.953,20.966C20.361,21.558 20.361,22.518 20.953,23.11C21.545,23.702 22.505,23.702 23.097,23.11L20.953,20.966ZM19.083,8.901C18.491,8.309 17.531,8.309 16.939,8.901C16.347,9.493 16.346,10.453 16.938,11.045L19.083,8.901ZM16.938,16.941C16.346,17.533 16.347,18.493 16.939,19.085C17.531,19.677 18.491,19.677 19.083,19.085L16.938,16.941ZM20.953,7.031C22.8,8.879 23.838,11.385 23.838,13.999L26.87,13.999C26.87,10.581 25.513,7.304 23.097,4.887L20.953,7.031ZM23.838,13.999C23.838,16.612 22.8,19.118 20.953,20.966L23.097,23.11C25.513,20.693 26.87,17.416 26.87,13.999L23.838,13.999ZM16.938,11.045C17.72,11.827 18.159,12.887 18.159,13.993L21.192,13.993C21.192,12.083 20.433,10.252 19.083,8.901L16.938,11.045ZM18.159,13.993C18.159,15.098 17.72,16.159 16.938,16.941L19.083,19.085C20.433,17.734 21.192,15.902 21.192,13.993L18.159,13.993Z" fill="#E4E4E3"/>
</svg>
