<svg width="48" height="46" viewBox="0 0 48 46" fill="none" xmlns="http://www.w3.org/2000/svg" xmlns:xlink="http://www.w3.org/1999/xlink">
<path d="M38.863,7.575C37.869,6.58 36.257,6.58 35.262,7.574C34.267,8.568 34.267,10.181 35.261,11.175L38.863,7.575ZM35.261,34.581C34.267,35.576 34.267,37.188 35.262,38.182C36.257,39.177 37.869,39.177 38.863,38.182L35.261,34.581ZM32.121,14.317C31.127,13.322 29.515,13.322 28.52,14.316C27.525,15.31 27.525,16.923 28.519,17.918L32.121,14.317ZM28.519,27.82C27.525,28.815 27.525,30.427 28.52,31.421C29.515,32.416 31.127,32.415 32.121,31.421L28.519,27.82ZM35.261,11.175C38.365,14.28 40.108,18.489 40.108,22.878L45.201,22.878C45.201,17.139 42.921,11.634 38.863,7.575L35.261,11.175ZM40.108,22.878C40.108,27.267 38.365,31.477 35.261,34.581L38.863,38.182C42.921,34.123 45.201,28.618 45.201,22.878L40.108,22.878ZM28.519,17.918C29.832,19.231 30.57,21.012 30.57,22.869L35.663,22.869C35.663,19.661 34.389,16.585 32.121,14.317L28.519,17.918ZM30.57,22.869C30.57,24.726 29.832,26.507 28.519,27.82L32.121,31.421C34.389,29.152 35.663,26.076 35.663,22.869L30.57,22.869Z" fill="#E4E4E3"/>
</svg>
