<svg width="50" height="50" viewBox="0 0 50 50" fill="none" xmlns="http://www.w3.org/2000/svg" xmlns:xlink="http://www.w3.org/1999/xlink">
<path d="M41.024,8.477C39.983,7.435 38.294,7.435 37.253,8.476C36.211,9.518 36.211,11.206 37.252,12.248L41.024,8.477ZM37.252,36.757C36.211,37.799 36.211,39.487 37.253,40.528C38.294,41.57 39.983,41.569 41.024,40.528L37.252,36.757ZM33.964,15.537C32.923,14.495 31.234,14.495 30.193,15.536C29.151,16.578 29.151,18.266 30.192,19.308L33.964,15.537ZM30.192,29.677C29.151,30.719 29.151,32.407 30.193,33.448C31.234,34.49 32.923,34.489 33.964,33.448L30.192,29.677ZM37.252,12.248C40.502,15.498 42.327,19.906 42.327,24.502L47.661,24.502C47.661,18.492 45.273,12.728 41.024,8.477L37.252,12.248ZM42.327,24.502C42.327,29.098 40.502,33.507 37.252,36.757L41.024,40.528C45.273,36.277 47.661,30.513 47.661,24.502L42.327,24.502ZM30.192,19.308C31.567,20.683 32.339,22.548 32.339,24.492L37.673,24.492C37.673,21.134 36.339,17.912 33.964,15.537L30.192,19.308ZM32.339,24.492C32.339,26.437 31.567,28.302 30.192,29.677L33.964,33.448C36.339,31.072 37.673,27.851 37.673,24.492L32.339,24.492Z" fill="#E4E4E3"/>
</svg>
