<svg width="50" height="50" viewBox="0 0 50 50" fill="none" xmlns="http://www.w3.org/2000/svg" xmlns:xlink="http://www.w3.org/1999/xlink">
<path d="M41.026,8.477C39.985,7.435 38.296,7.435 37.255,8.476C36.213,9.518 36.213,11.206 37.254,12.248L41.026,8.477ZM37.254,36.757C36.213,37.799 36.213,39.487 37.255,40.528C38.296,41.57 39.985,41.569 41.026,40.528L37.254,36.757ZM33.966,15.537C32.925,14.495 31.236,14.495 30.195,15.536C29.153,16.578 29.153,18.266 30.194,19.308L33.966,15.537ZM30.194,29.677C29.153,30.719 29.153,32.407 30.195,33.448C31.236,34.49 32.925,34.489 33.966,33.448L30.194,29.677ZM37.254,12.248C40.504,15.498 42.329,19.906 42.329,24.502L47.662,24.502C47.662,18.492 45.275,12.728 41.026,8.477L37.254,12.248ZM42.329,24.502C42.329,29.098 40.504,33.507 37.254,36.757L41.026,40.528C45.275,36.277 47.662,30.513 47.662,24.502L42.329,24.502ZM30.194,19.308C31.569,20.683 32.341,22.548 32.341,24.492L37.675,24.492C37.675,21.134 36.341,17.912 33.966,15.537L30.194,19.308ZM32.341,24.492C32.341,26.437 31.569,28.302 30.194,29.677L33.966,33.448C36.341,31.072 37.675,27.851 37.675,24.492L32.341,24.492Z" fill="#E4E4E3"/>
</svg>
