<svg width="48" height="50" viewBox="0 0 48 50" fill="none" xmlns="http://www.w3.org/2000/svg" xmlns:xlink="http://www.w3.org/1999/xlink">
<path d="M40.026,8.41C38.985,7.369 37.296,7.369 36.255,8.41C35.213,9.451 35.213,11.139 36.254,12.181L40.026,8.41ZM36.254,36.69C35.213,37.732 35.213,39.42 36.255,40.462C37.296,41.503 38.985,41.502 40.026,40.461L36.254,36.69ZM32.966,15.47C31.925,14.429 30.236,14.429 29.195,15.47C28.153,16.511 28.153,18.199 29.194,19.241L32.966,15.47ZM29.194,29.61C28.153,30.652 28.153,32.34 29.195,33.382C30.236,34.423 31.925,34.422 32.966,33.381L29.194,29.61ZM36.254,12.181C39.504,15.431 41.329,19.839 41.329,24.436L46.662,24.436C46.662,18.425 44.275,12.661 40.026,8.41L36.254,12.181ZM41.329,24.436C41.329,29.032 39.504,33.44 36.254,36.69L40.026,40.461C44.275,36.21 46.662,30.446 46.662,24.436L41.329,24.436ZM29.194,19.241C30.569,20.616 31.341,22.481 31.341,24.426L36.675,24.426C36.675,21.067 35.341,17.846 32.966,15.47L29.194,19.241ZM31.341,24.426C31.341,26.37 30.569,28.235 29.194,29.61L32.966,33.381C35.341,31.006 36.675,27.784 36.675,24.426L31.341,24.426Z" fill="#E4E4E3"/>
</svg>
