<svg width="50" height="50" viewBox="0 0 50 50" fill="none" xmlns="http://www.w3.org/2000/svg" xmlns:xlink="http://www.w3.org/1999/xlink">
<path d="M41.026,8.767C39.985,7.725 38.296,7.725 37.255,8.766C36.213,9.807 36.213,11.496 37.254,12.537L41.026,8.767ZM37.254,37.046C36.213,38.088 36.213,39.776 37.255,40.818C38.296,41.859 39.985,41.859 41.026,40.817L37.254,37.046ZM33.966,15.827C32.925,14.785 31.236,14.785 30.195,15.826C29.153,16.867 29.153,18.556 30.194,19.597L33.966,15.827ZM30.194,29.967C29.153,31.008 29.153,32.696 30.195,33.738C31.236,34.779 32.925,34.779 33.966,33.737L30.194,29.967ZM37.254,12.537C40.504,15.788 42.329,20.196 42.329,24.792L47.662,24.792C47.662,18.781 45.275,13.017 41.026,8.767L37.254,12.537ZM42.329,24.792C42.329,29.388 40.504,33.796 37.254,37.046L41.026,40.817C45.275,36.567 47.662,30.802 47.662,24.792L42.329,24.792ZM30.194,19.597C31.569,20.972 32.341,22.837 32.341,24.782L37.675,24.782C37.675,21.423 36.341,18.202 33.966,15.827L30.194,19.597ZM32.341,24.782C32.341,26.726 31.569,28.591 30.194,29.967L33.966,33.737C36.341,31.362 37.675,28.141 37.675,24.782L32.341,24.782Z" fill="#E4E4E3"/>
</svg>
