<svg width="50" height="50" viewBox="0 0 50 50" fill="none" xmlns="http://www.w3.org/2000/svg" xmlns:xlink="http://www.w3.org/1999/xlink">
<path d="M40.887,8.412C39.846,7.37 38.158,7.37 37.116,8.411C36.075,9.452 36.074,11.141 37.116,12.182L40.887,8.412ZM37.116,36.691C36.074,37.733 36.075,39.421 37.116,40.463C38.158,41.504 39.846,41.504 40.887,40.462L37.116,36.691ZM33.827,15.472C32.786,14.43 31.098,14.43 30.056,15.471C29.015,16.512 29.014,18.201 30.056,19.242L33.827,15.472ZM30.056,29.612C29.014,30.653 29.015,32.341 30.056,33.383C31.098,34.424 32.786,34.424 33.827,33.382L30.056,29.612ZM37.116,12.182C40.365,15.433 42.19,19.841 42.19,24.437L47.524,24.437C47.524,18.426 45.137,12.662 40.887,8.412L37.116,12.182ZM42.19,24.437C42.19,29.033 40.365,33.441 37.116,36.691L40.887,40.462C45.137,36.212 47.524,30.447 47.524,24.437L42.19,24.437ZM30.056,19.242C31.43,20.617 32.203,22.482 32.203,24.427L37.536,24.427C37.536,21.068 36.202,17.847 33.827,15.472L30.056,19.242ZM32.203,24.427C32.203,26.371 31.43,28.236 30.056,29.612L33.827,33.382C36.202,31.007 37.536,27.786 37.536,24.427L32.203,24.427Z" fill="#B9F9CE"/>
</svg>
