<svg width="48" height="48" viewBox="0 0 48 48" fill="none" xmlns="http://www.w3.org/2000/svg" xmlns:xlink="http://www.w3.org/1999/xlink">
<path d="M40.024,7.974C38.983,6.932 37.294,6.932 36.253,7.973C35.211,9.015 35.211,10.703 36.252,11.745L40.024,7.974ZM36.252,36.254C35.211,37.296 35.211,38.984 36.253,40.025C37.294,41.067 38.983,41.066 40.024,40.025L36.252,36.254ZM32.964,15.034C31.923,13.992 30.234,13.992 29.193,15.033C28.151,16.075 28.151,17.763 29.192,18.805L32.964,15.034ZM29.192,29.174C28.151,30.216 28.151,31.904 29.193,32.945C30.234,33.987 31.923,33.986 32.964,32.945L29.192,29.174ZM36.252,11.745C39.502,14.995 41.327,19.403 41.327,23.999L46.661,23.999C46.661,17.989 44.273,12.225 40.024,7.974L36.252,11.745ZM41.327,23.999C41.327,28.596 39.502,33.004 36.252,36.254L40.024,40.025C44.273,35.774 46.661,30.01 46.661,23.999L41.327,23.999ZM29.192,18.805C30.567,20.18 31.339,22.045 31.339,23.989L36.673,23.989C36.673,20.631 35.339,17.409 32.964,15.034L29.192,18.805ZM31.339,23.989C31.339,25.934 30.567,27.799 29.192,29.174L32.964,32.945C35.339,30.569 36.673,27.348 36.673,23.989L31.339,23.989Z" fill="#E4E4E3"/>
</svg>
