<svg width="48" height="48" viewBox="0 0 48 48" fill="none" xmlns="http://www.w3.org/2000/svg" xmlns:xlink="http://www.w3.org/1999/xlink">
<path d="M40.026,7.975C38.985,6.933 37.296,6.933 36.255,7.974C35.213,9.016 35.213,10.704 36.254,11.746L40.026,7.975ZM36.254,36.255C35.213,37.297 35.213,38.985 36.255,40.026C37.296,41.068 38.985,41.067 40.026,40.026L36.254,36.255ZM32.966,15.035C31.925,13.993 30.236,13.993 29.195,15.034C28.153,16.076 28.153,17.764 29.194,18.806L32.966,15.035ZM29.194,29.175C28.153,30.217 28.153,31.905 29.195,32.946C30.236,33.988 31.925,33.987 32.966,32.946L29.194,29.175ZM36.254,11.746C39.504,14.996 41.329,19.404 41.329,24L46.662,24C46.662,17.99 44.275,12.226 40.026,7.975L36.254,11.746ZM41.329,24C41.329,28.597 39.504,33.005 36.254,36.255L40.026,40.026C44.275,35.775 46.662,30.011 46.662,24L41.329,24ZM29.194,18.806C30.569,20.181 31.341,22.046 31.341,23.99L36.674,23.99C36.674,20.632 35.34,17.41 32.966,15.035L29.194,18.806ZM31.341,23.99C31.341,25.935 30.569,27.8 29.194,29.175L32.966,32.946C35.34,30.57 36.674,27.349 36.674,23.99L31.341,23.99Z" fill="#E4E4E3"/>
</svg>
