<svg width="50" height="50" viewBox="0 0 50 50" fill="none" xmlns="http://www.w3.org/2000/svg" xmlns:xlink="http://www.w3.org/1999/xlink">
<path d="M41.026,8.622C39.985,7.58 38.296,7.58 37.255,8.621C36.213,9.663 36.213,11.351 37.254,12.393L41.026,8.622ZM37.254,36.902C36.213,37.944 36.213,39.632 37.255,40.673C38.296,41.715 39.985,41.714 41.026,40.673L37.254,36.902ZM33.966,15.682C32.925,14.64 31.236,14.64 30.195,15.681C29.153,16.723 29.153,18.411 30.194,19.453L33.966,15.682ZM30.194,29.822C29.153,30.864 29.153,32.552 30.195,33.593C31.236,34.635 32.925,34.634 33.966,33.593L30.194,29.822ZM37.254,12.393C40.504,15.643 42.329,20.051 42.329,24.647L47.662,24.647C47.662,18.637 45.275,12.873 41.026,8.622L37.254,12.393ZM42.329,24.647C42.329,29.244 40.504,33.652 37.254,36.902L41.026,40.673C45.275,36.422 47.662,30.658 47.662,24.647L42.329,24.647ZM30.194,19.453C31.569,20.828 32.341,22.693 32.341,24.637L37.675,24.637C37.675,21.279 36.341,18.057 33.966,15.682L30.194,19.453ZM32.341,24.637C32.341,26.582 31.569,28.447 30.194,29.822L33.966,33.593C36.341,31.217 37.675,27.996 37.675,24.637L32.341,24.637Z" fill="#E4E4E3"/>
</svg>
