<svg width="168" height="168" viewBox="0 0 168 168" fill="none" xmlns="http://www.w3.org/2000/svg" xmlns:xlink="http://www.w3.org/1999/xlink">
<path d="M72.03,27.02L67.755,24.427L67.741,24.451L72.03,27.02ZM12.74,126L8.451,123.431C8.437,123.454 8.423,123.477 8.41,123.5L12.74,126ZM24.71,147L24.655,152C24.673,152 24.692,152 24.71,152L24.71,147ZM143.29,147L143.29,152C143.308,152 143.327,152 143.345,152L143.29,147ZM155.26,126L159.59,123.5C159.577,123.477 159.563,123.454 159.549,123.431L155.26,126ZM95.97,27.02L100.259,24.451L100.245,24.427L95.97,27.02ZM84,20.281L84,15.281L84,20.281ZM67.741,24.451L8.451,123.431L17.029,128.569L76.319,29.589L67.741,24.451ZM8.41,123.5C6.751,126.373 5.873,129.63 5.864,132.948L15.864,132.976C15.868,131.404 16.284,129.861 17.07,128.5L8.41,123.5ZM5.864,132.948C5.855,136.265 6.714,139.527 8.357,142.41L17.045,137.458C16.267,136.092 15.86,134.547 15.864,132.976L5.864,132.948ZM8.357,142.41C10,145.292 12.369,147.694 15.228,149.376L20.3,140.758C18.945,139.961 17.823,138.823 17.045,137.458L8.357,142.41ZM15.228,149.376C18.088,151.059 21.338,151.963 24.655,152L24.765,142C23.194,141.983 21.654,141.555 20.3,140.758L15.228,149.376ZM24.71,152L143.29,152L143.29,142L24.71,142L24.71,152ZM143.345,152C146.662,151.963 149.912,151.059 152.772,149.376L147.7,140.758C146.346,141.555 144.806,141.983 143.235,142L143.345,152ZM152.772,149.376C155.631,147.694 158,145.292 159.643,142.41L150.955,137.458C150.177,138.823 149.055,139.961 147.7,140.758L152.772,149.376ZM159.643,142.41C161.286,139.527 162.145,136.265 162.136,132.948L152.136,132.976C152.14,134.547 151.733,136.092 150.955,137.458L159.643,142.41ZM162.136,132.948C162.127,129.63 161.249,126.373 159.59,123.5L150.93,128.5C151.716,129.861 152.132,131.404 152.136,132.976L162.136,132.948ZM159.549,123.431L100.259,24.451L91.681,29.589L150.971,128.569L159.549,123.431ZM100.245,24.427C98.551,21.635 96.167,19.326 93.321,17.724L88.415,26.438C89.763,27.197 90.893,28.291 91.695,29.613L100.245,24.427ZM93.321,17.724C90.476,16.122 87.265,15.281 84,15.281L84,25.281C85.547,25.281 87.067,25.679 88.415,26.438L93.321,17.724ZM84,15.281C80.734,15.281 77.524,16.122 74.679,17.724L79.585,26.438C80.932,25.679 82.453,25.281 84,25.281L84,15.281ZM74.679,17.724C71.833,19.326 69.449,21.635 67.755,24.427L76.305,29.613C77.107,28.291 78.237,27.197 79.585,26.438L74.679,17.724Z" fill="#7F5D14"/>
<line x1="79" y1="63" x2="79" y2="91" stroke="#EEE421" stroke-width="5" stroke-miterlimit="3.999327" stroke-linecap="round" stroke-linejoin="round"/>
<line x1="84" y1="114" x2="84.07" y2="114" stroke="#EEE421" stroke-width="5" stroke-miterlimit="3.999327" stroke-linecap="round" stroke-linejoin="round"/>
</svg>
