<svg width="34" height="24" viewBox="0 0 34 24" fill="none" xmlns="http://www.w3.org/2000/svg" xmlns:xlink="http://www.w3.org/1999/xlink">
<path d="M16.982,23.619C17.08,23.626 17.179,23.611 17.272,23.577C17.365,23.542 17.449,23.489 17.52,23.419C17.672,23.281 21.057,19.877 21.825,19.199C21.923,19.051 21.982,18.881 21.998,18.705C21.973,18.51 21.877,18.332 21.73,18.203C20.354,17.169 18.68,16.61 16.959,16.61C15.238,16.61 13.563,17.169 12.188,18.203C12.078,18.35 12.008,18.523 11.987,18.705C11.975,18.797 11.987,18.892 12.022,18.979C12.057,19.065 12.114,19.141 12.188,19.199C12.37,19.399 16.356,23.257 16.546,23.419C16.736,23.581 16.74,23.619 16.982,23.619Z" fill="#E4E4E3"/>
<path d="M7,12.975C7.015,13.152 7.092,13.318 7.218,13.443L9.528,16.043C9.65,16.159 9.812,16.223 9.98,16.223C10.148,16.223 10.31,16.159 10.432,16.043C12.174,14.269 14.546,13.258 17.032,13.229C19.514,13.275 21.881,14.284 23.632,16.043C23.754,16.156 23.913,16.218 24.079,16.218C24.245,16.218 24.405,16.156 24.526,16.043L26.85,13.443C26.953,13.308 27.012,13.145 27.02,12.975C27.03,12.887 27.02,12.799 26.99,12.716C26.961,12.632 26.913,12.557 26.85,12.495C25.597,11.147 24.08,10.071 22.393,9.335C20.706,8.6 18.885,8.22 17.044,8.22C15.204,8.22 13.383,8.6 11.695,9.335C10.008,10.071 8.491,11.147 7.238,12.495C7.074,12.729 7,12.709 7,12.975Z" fill="#E4E4E3"/>
<path d="M1.194,6.787C1.068,6.987 0.994,7.035 0.994,7.279C1.012,7.457 1.081,7.625 1.194,7.763C1.194,7.763 3.128,9.851 3.622,10.213C3.756,10.316 3.92,10.371 4.088,10.371C4.257,10.371 4.42,10.316 4.554,10.213C7.905,6.989 12.374,5.188 17.024,5.188C21.674,5.188 26.144,6.989 29.494,10.213C29.494,10.213 30.018,10.593 30.394,10.213C30.77,9.833 32.794,7.763 32.794,7.763C32.908,7.625 32.977,7.457 32.994,7.279C33.003,7.187 32.99,7.094 32.955,7.008C32.92,6.923 32.865,6.847 32.794,6.787C28.56,2.68 22.893,0.384 16.994,0.384C11.095,0.384 5.428,2.68 1.194,6.787L1.194,6.787Z" fill="#E4E4E3"/>
</svg>
