<svg width="34" height="24" viewBox="0 0 34 24" fill="none" xmlns="http://www.w3.org/2000/svg" xmlns:xlink="http://www.w3.org/1999/xlink">
<path d="M16.982,23.619C17.08,23.625 17.179,23.611 17.272,23.577C17.365,23.542 17.449,23.489 17.52,23.419C17.672,23.281 21.057,19.877 21.825,19.199C21.923,19.051 21.982,18.881 21.998,18.705C21.973,18.51 21.877,18.331 21.73,18.203C20.354,17.169 18.68,16.61 16.959,16.61C15.238,16.61 13.563,17.169 12.188,18.203C12.078,18.349 12.008,18.522 11.987,18.705C11.975,18.797 11.987,18.892 12.022,18.979C12.057,19.065 12.114,19.141 12.188,19.199C12.37,19.399 16.356,23.257 16.546,23.419C16.736,23.581 16.74,23.619 16.982,23.619Z" fill="#E4E4E3"/>
<path d="M7,12.975C7.015,13.151 7.092,13.317 7.218,13.443L9.528,16.043C9.65,16.158 9.812,16.222 9.98,16.222C10.148,16.222 10.31,16.158 10.432,16.043C12.174,14.269 14.546,13.257 17.032,13.229C19.514,13.274 21.881,14.283 23.632,16.043C23.754,16.155 23.913,16.218 24.079,16.218C24.245,16.218 24.405,16.155 24.526,16.043L26.85,13.443C26.953,13.307 27.012,13.144 27.02,12.975C27.03,12.887 27.02,12.798 26.99,12.715C26.961,12.632 26.913,12.557 26.85,12.495C25.597,11.146 24.08,10.071 22.393,9.335C20.706,8.599 18.885,8.22 17.044,8.22C15.204,8.22 13.383,8.599 11.695,9.335C10.008,10.071 8.491,11.146 7.238,12.495C7.074,12.729 7,12.709 7,12.975Z" fill="#E4E4E3"/>
<path d="M1.194,6.787C1.068,6.987 0.994,7.035 0.994,7.279C1.012,7.456 1.081,7.625 1.194,7.763C1.194,7.763 3.128,9.851 3.622,10.213C3.756,10.315 3.92,10.371 4.088,10.371C4.257,10.371 4.42,10.315 4.554,10.213C7.905,6.989 12.374,5.187 17.024,5.187C21.674,5.187 26.144,6.989 29.494,10.213C29.494,10.213 30.018,10.593 30.394,10.213C30.77,9.833 32.794,7.763 32.794,7.763C32.908,7.625 32.977,7.457 32.994,7.279C33.003,7.187 32.99,7.094 32.955,7.008C32.92,6.922 32.865,6.846 32.794,6.787C28.56,2.68 22.893,0.383 16.994,0.383C11.095,0.383 5.428,2.68 1.194,6.787L1.194,6.787Z" fill="#E4E4E3"/>
</svg>
