<svg width="144" height="146" viewBox="0 0 144 146" fill="none" xmlns="http://www.w3.org/2000/svg" xmlns:xlink="http://www.w3.org/1999/xlink">
<path d="M100.456,50.544C102.113,48.887 102.113,46.201 100.456,44.544C98.799,42.887 96.113,42.887 94.456,44.544L100.456,50.544ZM43.544,95.456C41.887,97.113 41.887,99.799 43.544,101.456C45.201,103.113 47.887,103.113 49.544,101.456L43.544,95.456ZM94.456,44.544L43.544,95.456L49.544,101.456L100.456,50.544L94.456,44.544Z" transform="rotate(90 72 73)" fill="#808189"/>
<path d="M49.544,44.544C47.887,42.887 45.201,42.887 43.544,44.544C41.887,46.201 41.887,48.887 43.544,50.544L49.544,44.544ZM94.456,101.456C96.113,103.113 98.799,103.113 100.456,101.456C102.113,99.799 102.113,97.113 100.456,95.456L94.456,101.456ZM43.544,50.544L94.456,101.456L100.456,95.456L49.544,44.544L43.544,50.544Z" transform="rotate(90 72 73)" fill="#808189"/>
</svg>
