<svg width="146" height="144" viewBox="0 0 146 144" fill="none" xmlns="http://www.w3.org/2000/svg" xmlns:xlink="http://www.w3.org/1999/xlink">
<path d="M100.612,49.544C102.269,47.887 102.269,45.201 100.612,43.544C98.955,41.887 96.269,41.887 94.612,43.544L100.612,49.544ZM43.7,94.456C42.043,96.113 42.043,98.799 43.7,100.456C45.357,102.113 48.043,102.113 49.7,100.456L43.7,94.456ZM94.612,43.544L43.7,94.456L49.7,100.456L100.612,49.544L94.612,43.544Z" transform="rotate(90 72.156 72)" fill="#808189"/>
<path d="M49.7,43.544C48.043,41.887 45.357,41.887 43.7,43.544C42.043,45.201 42.043,47.887 43.7,49.544L49.7,43.544ZM94.612,100.456C96.269,102.113 98.955,102.113 100.612,100.456C102.269,98.799 102.269,96.113 100.612,94.456L94.612,100.456ZM43.7,49.544L94.612,100.456L100.612,94.456L49.7,43.544L43.7,49.544Z" transform="rotate(90 72.156 72)" fill="#808189"/>
</svg>
