<svg width="168" height="168" viewBox="0 0 168 168" fill="none" xmlns="http://www.w3.org/2000/svg" xmlns:xlink="http://www.w3.org/1999/xlink">
<path d="M116.723,58.244C118.647,56.32 118.647,53.201 116.723,51.277C114.799,49.353 111.68,49.353 109.756,51.277L116.723,58.244ZM50.632,110.4C48.708,112.324 48.708,115.444 50.632,117.368C52.556,119.292 55.676,119.292 57.6,117.368L50.632,110.4ZM109.756,51.277L50.632,110.4L57.6,117.368L116.723,58.244L109.756,51.277Z" transform="rotate(90 83.678 84.322)" fill="#808189"/>
<path d="M57.6,51.277C55.676,49.353 52.556,49.353 50.632,51.277C48.708,53.201 48.708,56.32 50.632,58.244L57.6,51.277ZM109.756,117.368C111.68,119.292 114.799,119.292 116.723,117.368C118.647,115.444 118.647,112.324 116.723,110.4L109.756,117.368ZM50.632,58.244L109.756,117.368L116.723,110.4L57.6,51.277L50.632,58.244Z" transform="rotate(90 83.678 84.322)" fill="#808189"/>
</svg>
