<svg width="34" height="32" viewBox="0 0 34 32" fill="none" xmlns="http://www.w3.org/2000/svg" xmlns:xlink="http://www.w3.org/1999/xlink">
<path d="M25.718,8.197C26.248,7.667 26.248,6.809 25.718,6.28C25.189,5.751 24.331,5.751 23.802,6.28L25.718,8.197ZM7.538,22.544C7.008,23.073 7.008,23.931 7.538,24.461C8.067,24.99 8.925,24.99 9.454,24.461L7.538,22.544ZM23.802,6.28L7.538,22.544L9.454,24.461L25.718,8.197L23.802,6.28Z" fill="#E4E4E3"/>
<path d="M9.454,6.28C8.925,5.751 8.067,5.751 7.538,6.28C7.008,6.809 7.008,7.667 7.538,8.197L9.454,6.28ZM23.802,24.461C24.331,24.99 25.189,24.99 25.718,24.461C26.248,23.931 26.248,23.073 25.718,22.544L23.802,24.461ZM7.538,8.197L23.802,24.461L25.718,22.544L9.454,6.28L7.538,8.197Z" fill="#E4E4E3"/>
</svg>
