<svg width="36" height="38" viewBox="0 0 36 38" fill="none" xmlns="http://www.w3.org/2000/svg" xmlns:xlink="http://www.w3.org/1999/xlink">
<path d="M28.024,10.681C28.601,10.104 28.601,9.169 28.024,8.592C27.447,8.015 26.512,8.015 25.935,8.592L28.024,10.681ZM8.205,26.321C7.628,26.898 7.628,27.834 8.205,28.411C8.782,28.988 9.718,28.988 10.295,28.411L8.205,26.321ZM25.935,8.592L8.205,26.321L10.295,28.411L28.024,10.681L25.935,8.592Z" fill="#E4E4E3"/>
<path d="M10.295,8.592C9.718,8.015 8.782,8.015 8.205,8.592C7.628,9.169 7.628,10.104 8.205,10.681L10.295,8.592ZM25.935,28.411C26.512,28.988 27.447,28.988 28.024,28.411C28.601,27.834 28.601,26.898 28.024,26.321L25.935,28.411ZM8.205,10.681L25.935,28.411L28.024,26.321L10.295,8.592L8.205,10.681Z" fill="#E4E4E3"/>
</svg>
