<svg width="114" height="114" viewBox="0 0 114 114" fill="none" xmlns="http://www.w3.org/2000/svg" xmlns:xlink="http://www.w3.org/1999/xlink">
<path d="M78.522,38.703C79.818,37.408 79.818,35.307 78.522,34.012C77.227,32.716 75.126,32.716 73.831,34.012L78.522,38.703ZM34.025,73.818C32.729,75.114 32.729,77.214 34.025,78.509C35.32,79.805 37.42,79.805 38.716,78.509L34.025,73.818ZM73.831,34.012L34.025,73.818L38.716,78.509L78.522,38.703L73.831,34.012Z" transform="rotate(90 56.273 56.261)" fill="#808189"/>
<path d="M38.716,34.012C37.42,32.716 35.32,32.716 34.025,34.012C32.729,35.307 32.729,37.408 34.025,38.703L38.716,34.012ZM73.831,78.509C75.126,79.805 77.227,79.805 78.522,78.509C79.818,77.214 79.818,75.114 78.522,73.818L73.831,78.509ZM34.025,38.703L73.831,78.509L78.522,73.818L38.716,34.012L34.025,38.703Z" transform="rotate(90 56.273 56.261)" fill="#808189"/>
</svg>
