<svg width="48" height="50" viewBox="0 0 48 50" fill="none" xmlns="http://www.w3.org/2000/svg" xmlns:xlink="http://www.w3.org/1999/xlink">
<path d="M37.414,14.402C38.195,13.62 38.195,12.354 37.414,11.573C36.633,10.792 35.367,10.792 34.586,11.573L37.414,14.402ZM10.586,35.573C9.805,36.354 9.805,37.621 10.586,38.402C11.367,39.183 12.633,39.183 13.414,38.402L10.586,35.573ZM34.586,11.573L10.586,35.573L13.414,38.402L37.414,14.402L34.586,11.573Z" fill="#E4E4E3"/>
<path d="M13.414,11.573C12.633,10.792 11.367,10.792 10.586,11.573C9.805,12.354 9.805,13.62 10.586,14.402L13.414,11.573ZM34.586,38.402C35.367,39.183 36.633,39.183 37.414,38.402C38.195,37.621 38.195,36.354 37.414,35.573L34.586,38.402ZM10.586,14.402L34.586,38.402L37.414,35.573L13.414,11.573L10.586,14.402Z" fill="#E4E4E3"/>
</svg>
