<svg width="146" height="144" viewBox="0 0 146 144" fill="none" xmlns="http://www.w3.org/2000/svg" xmlns:xlink="http://www.w3.org/1999/xlink">
<path d="M100.612,48.949C102.269,47.293 102.269,44.606 100.612,42.949C98.955,41.293 96.269,41.293 94.612,42.949L100.612,48.949ZM43.7,93.861C42.043,95.518 42.043,98.204 43.7,99.861C45.357,101.518 48.043,101.518 49.7,99.861L43.7,93.861ZM94.612,42.949L43.7,93.861L49.7,99.861L100.612,48.949L94.612,42.949Z" transform="rotate(90 72.156 71.405)" fill="#808189"/>
<path d="M49.7,42.949C48.043,41.293 45.357,41.293 43.7,42.949C42.043,44.606 42.043,47.293 43.7,48.949L49.7,42.949ZM94.612,99.861C96.269,101.518 98.955,101.518 100.612,99.861C102.269,98.204 102.269,95.518 100.612,93.861L94.612,99.861ZM43.7,48.949L94.612,99.861L100.612,93.861L49.7,42.949L43.7,48.949Z" transform="rotate(90 72.156 71.405)" fill="#808189"/>
</svg>
