<svg width="34" height="34" viewBox="0 0 34 34" fill="none" xmlns="http://www.w3.org/2000/svg" xmlns:xlink="http://www.w3.org/1999/xlink">
<path d="M26.195,9.933C26.724,9.404 26.724,8.546 26.195,8.016C25.666,7.487 24.807,7.487 24.278,8.016L26.195,9.933ZM8.014,24.28C7.485,24.809 7.485,25.668 8.014,26.197C8.544,26.726 9.402,26.726 9.931,26.197L8.014,24.28ZM24.278,8.016L8.014,24.28L9.931,26.197L26.195,9.933L24.278,8.016Z" fill="#E4E4E3"/>
<path d="M9.931,8.016C9.402,7.487 8.544,7.487 8.014,8.016C7.485,8.546 7.485,9.404 8.014,9.933L9.931,8.016ZM24.278,26.197C24.807,26.726 25.666,26.726 26.195,26.197C26.724,25.668 26.724,24.809 26.195,24.28L24.278,26.197ZM8.014,9.933L24.278,26.197L26.195,24.28L9.931,8.016L8.014,9.933Z" fill="#E4E4E3"/>
</svg>
