<svg width="40" height="40" viewBox="0 0 40 40" fill="none" xmlns="http://www.w3.org/2000/svg" xmlns:xlink="http://www.w3.org/1999/xlink">
<path d="M31.179,11.179C31.829,10.528 31.829,9.472 31.179,8.821C30.528,8.171 29.472,8.171 28.821,8.821L31.179,11.179ZM8.821,28.821C8.171,29.472 8.171,30.528 8.821,31.179C9.472,31.829 10.528,31.829 11.179,31.179L8.821,28.821ZM28.821,8.821L8.821,28.821L11.179,31.179L31.179,11.179L28.821,8.821Z" fill="#E4E4E3"/>
<path d="M11.179,8.821C10.528,8.171 9.472,8.171 8.821,8.821C8.171,9.472 8.171,10.528 8.821,11.179L11.179,8.821ZM28.821,31.179C29.472,31.829 30.528,31.829 31.179,31.179C31.829,30.528 31.829,29.472 31.179,28.821L28.821,31.179ZM8.821,11.179L28.821,31.179L31.179,28.821L11.179,8.821L8.821,11.179Z" fill="#E4E4E3"/>
</svg>
