<svg width="132" height="132" viewBox="0 0 132 132" fill="none" xmlns="http://www.w3.org/2000/svg" xmlns:xlink="http://www.w3.org/1999/xlink">
<path d="M90.941,45.341C92.453,43.83 92.453,41.379 90.941,39.868C89.43,38.357 86.98,38.357 85.468,39.868L90.941,45.341ZM39.027,86.309C37.516,87.82 37.516,90.271 39.027,91.782C40.539,93.293 42.989,93.293 44.5,91.782L39.027,86.309ZM85.468,39.868L39.027,86.309L44.5,91.782L90.941,45.341L85.468,39.868Z" transform="rotate(90 64.984 65.825)" fill="#808189"/>
<path d="M44.5,39.868C42.989,38.357 40.539,38.357 39.027,39.868C37.516,41.379 37.516,43.83 39.027,45.341L44.5,39.868ZM85.468,91.782C86.98,93.293 89.43,93.293 90.941,91.782C92.453,90.271 92.453,87.82 90.941,86.309L85.468,91.782ZM39.027,45.341L85.468,91.782L90.941,86.309L44.5,39.868L39.027,45.341Z" transform="rotate(90 64.984 65.825)" fill="#808189"/>
</svg>
