<svg width="48" height="48" viewBox="0 0 48 48" fill="none" xmlns="http://www.w3.org/2000/svg" xmlns:xlink="http://www.w3.org/1999/xlink">
<path d="M36.414,13.414C37.195,12.633 37.195,11.367 36.414,10.586C35.633,9.805 34.367,9.805 33.586,10.586L36.414,13.414ZM9.586,34.586C8.805,35.367 8.805,36.633 9.586,37.414C10.367,38.195 11.633,38.195 12.414,37.414L9.586,34.586ZM33.586,10.586L9.586,34.586L12.414,37.414L36.414,13.414L33.586,10.586Z" fill="#A7A6A1"/>
<path d="M12.414,10.586C11.633,9.805 10.367,9.805 9.586,10.586C8.805,11.367 8.805,12.633 9.586,13.414L12.414,10.586ZM33.586,37.414C34.367,38.195 35.633,38.195 36.414,37.414C37.195,36.633 37.195,35.367 36.414,34.586L33.586,37.414ZM9.586,13.414L33.586,37.414L36.414,34.586L12.414,10.586L9.586,13.414Z" fill="#A7A6A1"/>
</svg>
