<svg width="48" height="50" viewBox="0 0 48 50" fill="none" xmlns="http://www.w3.org/2000/svg" xmlns:xlink="http://www.w3.org/1999/xlink">
<path d="M37.414,14.414C38.195,13.633 38.195,12.367 37.414,11.586C36.633,10.805 35.367,10.805 34.586,11.586L37.414,14.414ZM10.586,35.586C9.805,36.367 9.805,37.633 10.586,38.414C11.367,39.195 12.633,39.195 13.414,38.414L10.586,35.586ZM34.586,11.586L10.586,35.586L13.414,38.414L37.414,14.414L34.586,11.586Z" fill="#1ED760"/>
<path d="M13.414,11.586C12.633,10.805 11.367,10.805 10.586,11.586C9.805,12.367 9.805,13.633 10.586,14.414L13.414,11.586ZM34.586,38.414C35.367,39.195 36.633,39.195 37.414,38.414C38.195,37.633 38.195,36.367 37.414,35.586L34.586,38.414ZM10.586,14.414L34.586,38.414L37.414,35.586L13.414,11.586L10.586,14.414Z" fill="#1ED760"/>
</svg>
