<svg width="46" height="48" viewBox="0 0 46 48" fill="none" xmlns="http://www.w3.org/2000/svg" xmlns:xlink="http://www.w3.org/1999/xlink">
<path d="M35.395,13.62C36.141,12.874 36.141,11.665 35.395,10.919C34.649,10.173 33.44,10.173 32.694,10.919L35.395,13.62ZM9.774,33.838C9.029,34.584 9.029,35.793 9.774,36.539C10.52,37.285 11.73,37.285 12.476,36.539L9.774,33.838ZM32.694,10.919L9.774,33.838L12.476,36.539L35.395,13.62L32.694,10.919Z" fill="#E4E4E3"/>
<path d="M12.476,10.919C11.73,10.173 10.52,10.173 9.774,10.919C9.029,11.665 9.029,12.874 9.774,13.62L12.476,10.919ZM32.694,36.539C33.44,37.285 34.649,37.285 35.395,36.539C36.141,35.793 36.141,34.584 35.395,33.838L32.694,36.539ZM9.774,13.62L32.694,36.539L35.395,33.838L12.476,10.919L9.774,13.62Z" fill="#E4E4E3"/>
</svg>
