<svg width="36" height="36" viewBox="0 0 36 36" fill="none" xmlns="http://www.w3.org/2000/svg" xmlns:xlink="http://www.w3.org/1999/xlink">
<path d="M28.414,10.414C29.195,9.633 29.195,8.367 28.414,7.586C27.633,6.805 26.367,6.805 25.586,7.586L28.414,10.414ZM7.586,25.586C6.805,26.367 6.805,27.633 7.586,28.414C8.367,29.195 9.633,29.195 10.414,28.414L7.586,25.586ZM25.586,7.586L7.586,25.586L10.414,28.414L28.414,10.414L25.586,7.586Z" fill="#DBFDE7"/>
<path d="M10.414,7.586C9.633,6.805 8.367,6.805 7.586,7.586C6.805,8.367 6.805,9.633 7.586,10.414L10.414,7.586ZM25.586,28.414C26.367,29.195 27.633,29.195 28.414,28.414C29.195,27.633 29.195,26.367 28.414,25.586L25.586,28.414ZM7.586,10.414L25.586,28.414L28.414,25.586L10.414,7.586L7.586,10.414Z" fill="#DBFDE7"/>
</svg>
