<svg width="48" height="48" viewBox="0 0 48 48" fill="none" xmlns="http://www.w3.org/2000/svg" xmlns:xlink="http://www.w3.org/1999/xlink">
<path d="M1.034,32.221L5.397,39.779C5.917,40.68 7.001,41.088 7.986,40.755L14.407,38.583C14.974,38.957 15.563,39.297 16.168,39.602L17.497,46.246C17.701,47.266 18.596,48 19.636,48L28.364,48C29.404,48 30.299,47.266 30.503,46.246L31.832,39.602C32.437,39.297 33.026,38.957 33.593,38.583L40.014,40.755C40.999,41.088 42.083,40.68 42.603,39.779L46.967,32.221C47.487,31.32 47.299,30.178 46.517,29.491L41.425,25.016C41.445,24.677 41.455,24.338 41.455,24C41.455,23.662 41.445,23.323 41.425,22.984L46.517,18.509C47.298,17.822 47.486,16.68 46.966,15.779L42.603,8.221C42.083,7.32 40.999,6.912 40.014,7.245L33.593,9.417C33.026,9.043 32.437,8.703 31.832,8.398L30.503,1.754C30.299,0.734 29.404,0 28.364,0L19.636,0C18.596,0 17.701,0.734 17.497,1.754L16.168,8.398C15.563,8.703 14.974,9.043 14.407,9.417L7.986,7.245C7.001,6.912 5.917,7.32 5.397,8.221L1.034,15.779C0.514,16.68 0.701,17.822 1.483,18.509L6.575,22.984C6.555,23.322 6.546,23.662 6.546,24C6.546,24.338 6.555,24.678 6.575,25.016L1.483,29.491C0.701,30.178 0.514,31.32 1.034,32.221ZM24,15.273C28.812,15.273 32.727,19.188 32.727,24C32.727,28.812 28.812,32.727 24,32.727C19.188,32.727 15.273,28.812 15.273,24C15.273,19.188 19.188,15.273 24,15.273Z" fill="#E4E4E3"/>
</svg>
