<svg width="112" height="114" viewBox="0 0 112 114" fill="none" xmlns="http://www.w3.org/2000/svg" xmlns:xlink="http://www.w3.org/1999/xlink">
<path d="M54.235,34.477L54.235,49.082L60.803,49.082L60.803,34.477C63.849,33.191 65.991,30.175 65.991,26.667C65.991,21.996 62.191,18.195 57.519,18.195C52.847,18.195 49.047,21.996 49.047,26.667C49.047,30.175 51.19,33.191 54.235,34.477Z" fill="#FFFFFF"/>
<path d="M0,55.656L0,112.003L112,112.003L112,55.656L0,55.656ZM32.006,98.266L17.595,98.266L17.595,69.32L24.164,69.32L24.164,91.697L32.006,91.697L32.006,98.266ZM45.185,98.074L38.616,98.074L38.616,69.11L45.185,69.11L45.185,98.074ZM64.721,97.614L59.02,97.614L49.166,69.068L56.109,69.068L61.805,85.556L67.279,69.068L74.356,69.068L64.721,97.614ZM94.405,75.781L85.054,75.781L85.054,80.308L93.715,80.308L93.715,86.877L85.054,86.877L85.054,91.403L94.405,91.403L94.405,97.972L78.485,97.972L78.485,69.212L94.405,69.212L94.405,75.781L94.405,75.781Z" fill="#FFFFFF"/>
<path d="M68.221,40.215L72.866,44.86L75.188,42.537C83.936,33.789 83.936,19.555 75.188,10.807L72.866,8.484L68.221,13.129L70.543,15.452C76.73,21.639 76.73,31.705 70.543,37.892L68.221,40.215Z" fill="#FFFFFF"/>
<path d="M39.853,42.537L42.175,44.859L46.82,40.214L44.498,37.892C41.5,34.895 39.85,30.91 39.85,26.672C39.85,22.433 41.5,18.449 44.498,15.452L46.82,13.129L42.175,8.484L39.853,10.807C35.615,15.045 33.281,20.679 33.281,26.672C33.281,32.665 35.615,38.299 39.853,42.537Z" fill="#FFFFFF"/>
<path d="M81.264,46.372L78.942,48.694L83.586,53.34L85.909,51.017C99.334,37.592 99.334,15.748 85.909,2.323L83.586,0L78.941,4.645L81.264,6.967C92.128,17.832 92.128,35.508 81.264,46.372Z" fill="#FFFFFF"/>
<path d="M31.453,53.34L36.097,48.695L33.775,46.372C28.512,41.109 25.614,34.112 25.614,26.67C25.614,19.227 28.512,12.23 33.775,6.967L36.097,4.645L31.453,0L29.13,2.323C22.627,8.826 19.045,17.473 19.045,26.67C19.045,35.867 22.627,44.514 29.13,51.017L31.453,53.34Z" fill="#FFFFFF"/>
</svg>
