<svg width="41" height="40" viewBox="0 0 41 40" fill="none" xmlns="http://www.w3.org/2000/svg">
<g clip-path="url(#clip0_10227_27293)">
<path d="M24.4978 20.571C24.4978 22.3673 24.5038 24.1636 24.496 25.9599C24.4881 27.783 23.3691 28.9835 21.6376 28.9899C18.2129 29.0034 14.7881 29.0034 11.3633 28.9899C9.63187 28.9829 8.50861 27.783 8.50499 25.9599C8.49834 22.32 8.49834 18.68 8.50499 15.0401C8.50922 13.2176 9.63187 12.0171 11.3633 12.0101C14.7881 11.9966 18.2129 11.9966 21.6376 12.0101C23.3691 12.0171 24.4887 13.217 24.496 15.0401C24.5032 16.8837 24.4978 18.7273 24.4978 20.571Z" fill="#1ED760"/>
<path d="M32.4941 20.4903C32.4941 22.3998 32.4839 24.3092 32.4999 26.218C32.5056 26.8987 32.336 27.4583 31.7572 27.8126C31.156 28.1805 30.6355 27.9554 30.1137 27.5794C28.7628 26.6056 27.403 25.6448 26.0354 24.6975C25.6679 24.4425 25.4932 24.1637 25.5002 23.6646C25.5309 21.5294 25.4951 19.3935 25.5335 17.259C25.5393 16.9509 25.7435 16.5388 25.9797 16.362C27.3722 15.3203 28.8025 14.3356 30.2181 13.3286C30.7315 12.9634 31.2668 12.8709 31.8148 13.2136C32.3379 13.5407 32.5011 14.065 32.4979 14.6879C32.4877 16.6225 32.4941 18.5571 32.4941 20.491V20.4903Z" fill="#1ED760"/>
</g>
<defs>
<clipPath id="clip0_10227_27293">
<rect width="24" height="24" fill="white" transform="translate(8.5 8)"/>
</clipPath>
</defs>
</svg>
