<svg width="24" height="25" viewBox="0 0 24 25" fill="none" xmlns="http://www.w3.org/2000/svg">
<path d="M10.5917 24.1067H14.3584C14.8784 24.1067 15.3 23.6851 15.3 23.165C15.3 22.6449 14.8784 22.2233 14.3584 22.2233H10.5917C10.0716 22.2233 9.65002 22.6449 9.65002 23.165C9.65002 23.6851 10.0716 24.1067 10.5917 24.1067Z" fill="#E4E4E3"/>
<path d="M12.475 0C11.9549 0 11.5333 0.421584 11.5333 0.941666V1.9509C8.3432 2.40921 5.88333 5.16005 5.88333 8.475V14.2642C5.88333 14.596 5.73384 14.8979 5.51142 15.0154C4.57912 15.5077 4 16.4655 4 17.515C4 19.0727 5.26729 20.34 6.825 20.34H18.125C19.6827 20.34 20.95 19.0727 20.95 17.515C20.95 16.4655 20.3709 15.5077 19.4386 15.0154C19.2161 14.898 19.0667 14.5961 19.0667 14.2642V8.475C19.0667 5.16005 16.6068 2.40921 13.4167 1.9509V0.941666C13.4167 0.421584 12.9951 0 12.475 0ZM17.1833 8.475V14.2642C17.1833 15.3067 17.7105 16.2327 18.5592 16.6808C18.8722 16.8461 19.0667 17.1657 19.0667 17.515C19.0667 18.0342 18.6442 18.4567 18.125 18.4567H6.825C6.30576 18.4567 5.88333 18.0342 5.88333 17.515C5.88333 17.1657 6.07779 16.8461 6.3908 16.6808C7.23947 16.2327 7.76666 15.3067 7.76666 14.2642V8.475C7.76666 5.87882 9.87882 3.76666 12.475 3.76666C15.0712 3.76666 17.1833 5.87882 17.1833 8.475Z" fill="#E4E4E3"/>
</svg>
