<svg width="24" height="24" viewBox="0 0 24 24" fill="none" xmlns="http://www.w3.org/2000/svg">
<path fill-rule="evenodd" clip-rule="evenodd" d="M4.64791 22.0228C4.67213 22.0182 4.69631 22.0135 4.72045 22.0086C5.77097 21.7967 6.75531 21.3153 7.58143 20.6076C7.85493 20.3734 8.22103 20.2683 8.57272 20.3458C9.68445 20.5906 10.884 20.7223 12.0407 20.7223C19.7815 20.7223 24 15.9515 24 10.846C24 5.77402 19.8256 1 12.0407 1C4.69218 1 0 6.1881 0 11.2933C0 13.8863 1.2133 16.3672 3.65044 18.1685C3.95543 18.3939 4.1401 18.7634 4.04 19.1292C3.94365 19.4813 3.80142 19.8173 3.61673 20.1293C3.61539 20.1315 3.61405 20.1338 3.61271 20.136C3.575 20.1995 3.53553 20.2619 3.49433 20.3233C3.34931 20.5392 3.18286 20.742 2.99624 20.9286C2.55251 21.3723 2.86679 22.1311 3.49433 22.1311C3.71866 22.1311 3.94168 22.1189 4.16257 22.0949C4.32562 22.0773 4.48751 22.0531 4.64791 22.0228ZM6.04666 19.2756C6.1263 19.2162 6.20425 19.1539 6.28035 19.0887C6.98869 18.4819 7.9858 18.1686 9.00289 18.3926C9.97356 18.6064 11.0289 18.7223 12.0407 18.7223C18.8686 18.7223 22 14.6645 22 10.846C22 7.05943 18.911 3 12.0407 3C5.64751 3 2 7.43622 2 11.2933C2 13.2157 2.88251 15.114 4.83917 16.5601C5.53421 17.0738 6.20781 18.0665 6.04666 19.2756Z" fill="#E4E4E3"/>
</svg>
